<svg width="590" height="428" viewBox="0 0 590 428" fill="none" xmlns="http://www.w3.org/2000/svg">
    <g clip-path="url(#clip0_2739_52307)">
    <g opacity="0.7">
    <path opacity="0.47" d="M657.65 0H-67.0498V427.55H657.65V0Z" fill="#6FF8DC"/>
    </g>
    <path d="M444.22 118.18H548.46C548.457 114.165 547.373 110.224 545.324 106.771C543.274 103.317 540.334 100.479 536.81 98.5527C533.287 96.6263 529.31 95.6831 525.297 95.8216C521.284 95.9602 517.382 97.1755 514 99.3402C512.001 96.35 509.31 93.8857 506.157 92.156C503.003 90.4263 499.479 89.4823 495.883 89.4038C492.287 89.3253 488.725 90.1147 485.499 91.7051C482.273 93.2955 479.477 95.6401 477.35 98.5402C473.941 96.6788 470.106 95.7363 466.223 95.8052C462.339 95.8741 458.54 96.952 455.2 98.9331C451.859 100.914 449.091 103.73 447.167 107.105C445.244 110.479 444.232 114.296 444.23 118.18H444.22Z" fill="white"/>
    <path d="M61.5 118.771H138.72C138.726 115.791 137.929 112.865 136.413 110.299C134.896 107.734 132.718 105.624 130.104 104.192C127.491 102.759 124.541 102.057 121.563 102.159C118.585 102.261 115.689 103.163 113.18 104.771C111.699 102.558 109.707 100.733 107.372 99.4529C105.037 98.1723 102.428 97.4731 99.766 97.4142C97.1037 97.3553 94.4663 97.9386 92.0771 99.1147C89.6879 100.291 87.6171 102.025 86.04 104.171C83.5131 102.795 80.6718 102.099 77.7949 102.152C74.918 102.204 72.1042 103.004 69.6296 104.472C67.155 105.941 65.1045 108.027 63.6793 110.527C62.2541 113.026 61.5031 115.853 61.5 118.731V118.771Z" fill="white"/>
    <path d="M657.65 260H-68V293.37H657.65V260Z" fill="#31BC2E"/>
    <path d="M657.65 310.01H-68V329.8H657.65V310.01Z" fill="#723723"/>
    <path d="M657.65 293.369H-68V313.159H657.65V293.369Z" fill="#B36D2D"/>
    <path d="M657.65 323.949H-68V343.739H657.65V323.949Z" fill="#B36D2D"/>
    <path d="M657.65 384.65H-68V427.54H657.65V384.65Z" fill="#723723"/>
    <path d="M657.65 338.859H-68V361.749H657.65V338.859Z" fill="#723723"/>
    <path d="M657.65 361.76H-68V384.65H657.65V361.76Z" fill="#B36D2D"/>
    <path d="M245.58 393.52C250.274 393.52 254.08 389.714 254.08 385.02C254.08 380.325 250.274 376.52 245.58 376.52C240.886 376.52 237.08 380.325 237.08 385.02C237.08 389.714 240.886 393.52 245.58 393.52Z" fill="#723723"/>
    <path d="M262.98 395.56C270.11 395.56 275.89 389.78 275.89 382.65C275.89 375.52 270.11 369.74 262.98 369.74C255.85 369.74 250.07 375.52 250.07 382.65C250.07 389.78 255.85 395.56 262.98 395.56Z" fill="#723723"/>
    <path d="M282.78 403.82C289.91 403.82 295.69 398.04 295.69 390.91C295.69 383.78 289.91 378 282.78 378C275.65 378 269.87 383.78 269.87 390.91C269.87 398.04 275.65 403.82 282.78 403.82Z" fill="#723723"/>
    <path d="M303.96 397.929C311.09 397.929 316.87 392.149 316.87 385.019C316.87 377.889 311.09 372.109 303.96 372.109C296.83 372.109 291.05 377.889 291.05 385.019C291.05 392.149 296.83 397.929 303.96 397.929Z" fill="#723723"/>
    <path d="M263.68 188.43H324.18C324.175 186.1 323.545 183.815 322.355 181.812C321.165 179.81 319.458 178.164 317.414 177.047C315.37 175.93 313.063 175.382 310.735 175.462C308.407 175.542 306.143 176.245 304.18 177.5C303.021 175.763 301.461 174.33 299.632 173.323C297.802 172.317 295.757 171.766 293.67 171.716C291.582 171.667 289.514 172.122 287.639 173.042C285.764 173.961 284.139 175.319 282.9 177C280.921 175.922 278.696 175.376 276.443 175.417C274.19 175.458 271.986 176.085 270.048 177.234C268.11 178.384 266.504 180.017 265.387 181.975C264.271 183.932 263.682 186.146 263.68 188.4V188.43Z" fill="white"/>
    <path d="M123.67 295.9L121.38 301.9C120.724 303.608 119.738 305.17 118.479 306.496C117.219 307.823 115.71 308.888 114.038 309.631C112.366 310.374 110.565 310.78 108.736 310.826C106.907 310.873 105.087 310.558 103.38 309.9L105.66 303.9C106.317 302.192 107.304 300.63 108.564 299.303C109.825 297.976 111.335 296.911 113.007 296.168C114.68 295.425 116.482 295.019 118.312 294.973C120.141 294.927 121.962 295.242 123.67 295.9Z" fill="#31BC2E"/>
    <path d="M109.59 310.38L107.84 304.23C106.829 300.678 104.45 297.673 101.225 295.875C97.9995 294.076 94.1922 293.632 90.6396 294.64L92.3797 300.79C93.3922 304.343 95.7734 307.348 99.0003 309.146C102.227 310.944 106.036 311.388 109.59 310.38Z" fill="#31BC2E"/>
    <path d="M286.32 296.289L284.04 302.289C282.714 305.737 280.072 308.516 276.697 310.017C273.321 311.517 269.488 311.615 266.04 310.289L268.32 304.289C269.646 300.842 272.288 298.062 275.663 296.562C279.039 295.062 282.872 294.964 286.32 296.289Z" fill="#31BC2E"/>
    <path d="M272.24 310.769L270.5 304.619C270.002 302.858 269.161 301.211 268.027 299.774C266.892 298.337 265.486 297.138 263.888 296.245C262.29 295.351 260.531 294.782 258.713 294.568C256.894 294.354 255.052 294.501 253.29 294.999L255.04 301.149C255.537 302.911 256.376 304.557 257.51 305.994C258.644 307.431 260.049 308.63 261.647 309.524C263.244 310.417 265.002 310.987 266.819 311.201C268.637 311.414 270.479 311.268 272.24 310.769Z" fill="#31BC2E"/>
    <path d="M449 297.381L446.71 303.381C445.384 306.828 442.742 309.608 439.367 311.108C435.991 312.608 432.158 312.706 428.71 311.381L430.99 305.381C431.647 303.672 432.634 302.11 433.894 300.784C435.155 299.457 436.665 298.392 438.337 297.649C440.01 296.906 441.812 296.5 443.642 296.454C445.471 296.408 447.292 296.723 449 297.381Z" fill="#31BC2E"/>
    <path d="M434.9 311.859L433.15 305.709C432.65 303.949 431.808 302.305 430.673 300.871C429.537 299.437 428.13 298.24 426.532 297.35C424.934 296.459 423.176 295.892 421.358 295.681C419.541 295.47 417.7 295.619 415.94 296.119L417.69 302.269C418.191 304.029 419.033 305.673 420.168 307.107C421.304 308.542 422.711 309.738 424.309 310.629C425.907 311.52 427.665 312.087 429.482 312.298C431.3 312.509 433.141 312.36 434.9 311.859Z" fill="#31BC2E"/>
    <path d="M203 292.829L202.58 299.209C202.463 301.036 201.986 302.822 201.178 304.464C200.37 306.106 199.247 307.573 197.871 308.781C196.495 309.988 194.895 310.913 193.162 311.501C191.428 312.089 189.596 312.33 187.77 312.209L188.19 305.829C188.307 304.002 188.783 302.217 189.591 300.574C190.399 298.932 191.523 297.465 192.898 296.257C194.274 295.05 195.874 294.126 197.607 293.537C199.341 292.949 201.173 292.708 203 292.829Z" fill="#31BC2E"/>
    <path d="M190.06 312.211L189.34 305.861C188.923 302.19 187.065 298.836 184.176 296.535C181.286 294.234 177.6 293.175 173.93 293.591L174.65 299.941C175.066 303.611 176.924 306.966 179.814 309.267C182.704 311.568 186.389 312.627 190.06 312.211Z" fill="#31BC2E"/>
    <path d="M365.69 292.79L365.27 299.17C365.028 302.857 363.333 306.298 360.556 308.736C357.779 311.173 354.147 312.409 350.46 312.17L350.88 305.78C350.998 303.954 351.475 302.17 352.284 300.528C353.092 298.887 354.216 297.421 355.592 296.215C356.967 295.008 358.567 294.085 360.3 293.497C362.033 292.91 363.864 292.669 365.69 292.79Z" fill="#31BC2E"/>
    <path d="M352.71 312.17L351.99 305.82C351.573 302.149 349.716 298.795 346.826 296.494C343.936 294.193 340.251 293.134 336.58 293.55L337.3 299.91C337.719 303.578 339.578 306.93 342.467 309.229C345.357 311.528 349.041 312.586 352.71 312.17Z" fill="#31BC2E"/>
    <path d="M528.34 293.569L527.92 299.949C527.803 301.776 527.327 303.562 526.519 305.204C525.711 306.847 524.587 308.314 523.212 309.521C521.836 310.729 520.236 311.653 518.502 312.241C516.769 312.83 514.937 313.07 513.11 312.949L513.53 306.569C513.647 304.743 514.123 302.957 514.931 301.315C515.739 299.672 516.863 298.205 518.239 296.998C519.615 295.79 521.215 294.866 522.948 294.278C524.682 293.689 526.514 293.449 528.34 293.569Z" fill="#31BC2E"/>
    <path d="M515.37 313L514.65 306.65C514.234 302.979 512.376 299.625 509.486 297.324C506.596 295.023 502.911 293.964 499.24 294.38L499.96 300.73C500.377 304.4 502.235 307.755 505.124 310.056C508.014 312.357 511.7 313.416 515.37 313Z" fill="#31BC2E"/>
    <path d="M91.6696 332.74L89.3896 338.74C88.0632 342.188 85.4218 344.967 82.0462 346.467C78.6707 347.968 74.8375 348.066 71.3896 346.74L73.6796 340.74C74.3354 339.033 75.3209 337.473 76.58 336.147C77.839 334.821 79.3469 333.756 81.0175 333.013C82.6881 332.271 84.4886 331.864 86.3164 331.817C88.1441 331.77 89.9631 332.084 91.6696 332.74Z" fill="#1C4A45"/>
    <path d="M77.5896 347.231L75.8396 341.071C75.3395 339.312 74.4978 337.67 73.3627 336.236C72.2276 334.803 70.8212 333.608 69.224 332.718C67.6268 331.828 65.87 331.262 64.0539 331.052C62.2378 330.841 60.398 330.99 58.6396 331.491L60.3896 337.641C60.8888 339.4 61.7297 341.044 62.8643 342.478C63.999 343.913 65.4052 345.109 67.0025 346C68.5998 346.89 70.357 347.458 72.1736 347.669C73.9902 347.88 75.8306 347.731 77.5896 347.231Z" fill="#1C4A45"/>
    <path d="M254.33 333.131L252.04 339.131C251.384 340.838 250.398 342.4 249.139 343.727C247.879 345.053 246.37 346.119 244.698 346.862C243.027 347.605 241.225 348.011 239.396 348.057C237.567 348.103 235.747 347.788 234.04 347.131L236.32 341.131C236.977 339.422 237.964 337.86 239.224 336.534C240.485 335.207 241.995 334.142 243.667 333.399C245.34 332.656 247.142 332.25 248.972 332.204C250.802 332.158 252.622 332.473 254.33 333.131Z" fill="#1C4A45"/>
    <path d="M240.25 347.61L238.5 341.46C237.488 337.908 235.106 334.903 231.879 333.106C228.651 331.31 224.843 330.869 221.29 331.88L223 338C223.497 339.767 224.338 341.418 225.475 342.858C226.612 344.298 228.023 345.5 229.626 346.393C231.229 347.286 232.993 347.853 234.817 348.062C236.64 348.271 238.486 348.117 240.25 347.61Z" fill="#1C4A45"/>
    <path d="M417 334.219L414.72 340.219C413.393 343.667 410.752 346.447 407.376 347.947C404.001 349.447 400.168 349.545 396.72 348.219L399.01 342.219C400.336 338.774 402.976 335.997 406.349 334.497C409.722 332.997 413.553 332.897 417 334.219Z" fill="#1C4A45"/>
    <path d="M402.9 348.709L401.15 342.559C400.137 339.021 397.764 336.029 394.55 334.237C391.335 332.445 387.542 332 384 332.999L385.75 339.149C386.765 342.686 389.139 345.677 392.352 347.468C395.566 349.259 399.358 349.706 402.9 348.709Z" fill="#1C4A45"/>
    <path d="M171 329.67L170.58 336.05C170.461 337.876 169.984 339.661 169.176 341.303C168.367 342.945 167.243 344.411 165.868 345.618C164.493 346.826 162.893 347.75 161.16 348.339C159.427 348.928 157.596 349.169 155.77 349.05L156.19 342.67C156.431 338.982 158.127 335.542 160.904 333.104C163.681 330.667 167.312 329.431 171 329.67Z" fill="#1C4A45"/>
    <path d="M158.06 349.05L157.34 342.7C156.921 339.032 155.062 335.68 152.172 333.381C149.283 331.082 145.599 330.024 141.93 330.44L142.65 336.79C143.069 340.459 144.927 343.811 147.817 346.11C150.707 348.409 154.391 349.467 158.06 349.05Z" fill="#1C4A45"/>
    <path d="M333.69 329.64L333.27 336.02C333.152 337.847 332.675 339.632 331.866 341.273C331.058 342.915 329.934 344.382 328.559 345.589C327.183 346.796 325.583 347.721 323.851 348.309C322.118 348.898 320.286 349.14 318.46 349.02L318.88 342.64C318.996 340.813 319.471 339.027 320.278 337.384C321.086 335.741 322.21 334.273 323.586 333.065C324.962 331.858 326.563 330.933 328.297 330.346C330.03 329.758 331.863 329.518 333.69 329.64Z" fill="#1C4A45"/>
    <path d="M320.72 349L320 342.64C319.581 338.971 317.722 335.619 314.833 333.32C311.943 331.021 308.259 329.964 304.59 330.38L305.31 336.73C305.727 340.4 307.584 343.755 310.474 346.056C313.364 348.357 317.049 349.416 320.72 349Z" fill="#1C4A45"/>
    <path d="M496.34 330.41L495.92 336.79C495.802 338.616 495.325 340.401 494.517 342.043C493.708 343.685 492.584 345.151 491.209 346.359C489.834 347.566 488.234 348.49 486.501 349.079C484.768 349.668 482.937 349.909 481.11 349.79L481.53 343.41C481.772 339.723 483.467 336.282 486.245 333.844C489.022 331.407 492.653 330.171 496.34 330.41Z" fill="#1C4A45"/>
    <path d="M483.37 349.801L482.65 343.441C482.231 339.772 480.372 336.42 477.483 334.121C474.593 331.822 470.909 330.764 467.24 331.181L467.96 337.531C468.38 341.2 470.238 344.553 473.127 346.853C476.016 349.154 479.7 350.214 483.37 349.801Z" fill="#1C4A45"/>
    <path d="M137.69 373.53L135.4 379.53C134.746 381.239 133.761 382.802 132.501 384.129C131.241 385.456 129.732 386.522 128.06 387.265C126.388 388.008 124.586 388.414 122.757 388.46C120.928 388.505 119.107 388.19 117.4 387.53L119.69 381.53C120.346 379.823 121.332 378.261 122.592 376.934C123.852 375.608 125.36 374.542 127.032 373.799C128.704 373.056 130.506 372.65 132.335 372.604C134.163 372.558 135.983 372.873 137.69 373.53Z" fill="#31BC2E"/>
    <path d="M123.61 387.999L121.86 381.849C120.85 378.297 118.471 375.292 115.245 373.494C112.02 371.696 108.213 371.252 104.66 372.259L106.4 378.409C107.413 381.962 109.794 384.967 113.021 386.765C116.248 388.563 120.056 389.007 123.61 387.999Z" fill="#31BC2E"/>
    <path d="M300.34 373.92L298.06 379.92C296.733 383.368 294.092 386.147 290.716 387.647C287.341 389.148 283.507 389.246 280.06 387.92L282.34 381.92C283.666 378.473 286.307 375.693 289.683 374.193C293.059 372.693 296.892 372.594 300.34 373.92Z" fill="#31BC2E"/>
    <path d="M286.26 388.4L284.52 382.25C283.507 378.697 281.126 375.692 277.899 373.894C274.672 372.096 270.863 371.652 267.31 372.66L269.06 378.81C270.07 382.362 272.449 385.367 275.674 387.165C278.9 388.964 282.707 389.408 286.26 388.4Z" fill="#31BC2E"/>
    <path d="M463 375L460.71 381C460.054 382.708 459.068 384.269 457.809 385.596C456.549 386.923 455.04 387.988 453.368 388.731C451.697 389.474 449.895 389.88 448.066 389.926C446.237 389.972 444.417 389.657 442.71 389L444.99 383C445.647 381.291 446.634 379.729 447.894 378.403C449.155 377.076 450.665 376.011 452.337 375.268C454.01 374.525 455.812 374.119 457.642 374.073C459.471 374.027 461.292 374.342 463 375Z" fill="#31BC2E"/>
    <path d="M448.92 389.489L447.17 383.339C446.159 379.794 443.785 376.794 440.566 374.997C437.348 373.199 433.548 372.751 430 373.749L431.75 379.899C432.761 383.445 435.135 386.444 438.354 388.242C441.572 390.04 445.372 390.488 448.92 389.489Z" fill="#31BC2E"/>
    <path d="M217.05 370.459L216.63 376.839C216.515 378.667 216.039 380.453 215.232 382.096C214.424 383.739 213.3 385.207 211.924 386.414C210.548 387.622 208.948 388.546 207.214 389.134C205.48 389.722 203.647 389.962 201.82 389.839L202.24 383.459C202.359 381.633 202.836 379.848 203.644 378.206C204.452 376.564 205.576 375.098 206.952 373.891C208.327 372.683 209.927 371.759 211.66 371.17C213.392 370.582 215.224 370.34 217.05 370.459Z" fill="#31BC2E"/>
    <path d="M204.08 389.84L203.36 383.49C202.943 379.829 201.093 376.483 198.214 374.183C195.335 371.883 191.662 370.818 188 371.22L188.72 377.57C189.137 381.231 190.988 384.577 193.866 386.877C196.745 389.176 200.418 390.242 204.08 389.84Z" fill="#31BC2E"/>
    <path d="M379.71 370.42L379.29 376.8C379.049 380.488 377.353 383.928 374.576 386.366C371.799 388.803 368.168 390.039 364.48 389.8L364.9 383.42C365.019 381.594 365.496 379.809 366.304 378.167C367.113 376.525 368.236 375.059 369.612 373.852C370.987 372.644 372.587 371.72 374.32 371.131C376.052 370.542 377.884 370.301 379.71 370.42Z" fill="#31BC2E"/>
    <path d="M366.74 389.8L366.01 383.45C365.593 379.78 363.735 376.425 360.845 374.124C357.956 371.823 354.27 370.764 350.6 371.18L351.32 377.54C351.739 381.211 353.599 384.565 356.491 386.864C359.382 389.163 363.069 390.219 366.74 389.8Z" fill="#31BC2E"/>
    <path d="M542.36 371.2L541.94 377.58C541.824 379.407 541.349 381.193 540.541 382.836C539.734 384.479 538.61 385.947 537.234 387.154C535.858 388.362 534.257 389.287 532.523 389.874C530.789 390.462 528.957 390.702 527.13 390.58L527.55 384.2C527.668 382.373 528.145 380.588 528.954 378.947C529.762 377.305 530.886 375.838 532.261 374.631C533.637 373.424 535.236 372.499 536.969 371.91C538.702 371.322 540.534 371.08 542.36 371.2Z" fill="#31BC2E"/>
    <path d="M529.39 390.579L528.67 384.229C528.243 380.566 526.382 377.222 523.493 374.929C520.604 372.636 516.924 371.583 513.26 371.999L513.98 378.359C514.409 382.021 516.271 385.363 519.16 387.653C522.048 389.944 525.727 390.996 529.39 390.579Z" fill="#31BC2E"/>
    <path d="M404.32 242.24H399.74V268.1H404.32V242.24Z" fill="#3C2415"/>
    <path d="M434.72 242.24H430.14V268.1H434.72V242.24Z" fill="#3C2415"/>
    <path d="M465.12 242.24H460.54V268.1H465.12V242.24Z" fill="#3C2415"/>
    <path d="M495.52 242.24H490.94V268.1H495.52V242.24Z" fill="#3C2415"/>
    <path d="M525.93 242.24H521.35V268.1H525.93V242.24Z" fill="#3C2415"/>
    <path d="M556.33 242.24H551.75V268.1H556.33V242.24Z" fill="#3C2415"/>
    <path d="M559.87 246.369H395.16V250.329H559.87V246.369Z" fill="#3C2415"/>
    <path d="M559.87 255.25H395.16V259.21H559.87V255.25Z" fill="#3C2415"/>
    <path d="M225.5 242.24H220.92V268.1H225.5V242.24Z" fill="#3C2415"/>
    <path d="M255.9 242.24H251.32V268.1H255.9V242.24Z" fill="#3C2415"/>
    <path d="M286.3 242.24H281.72V268.1H286.3V242.24Z" fill="#3C2415"/>
    <path d="M316.7 242.24H312.12V268.1H316.7V242.24Z" fill="#3C2415"/>
    <path d="M347.1 242.24H342.52V268.1H347.1V242.24Z" fill="#3C2415"/>
    <path d="M377.5 242.24H372.92V268.1H377.5V242.24Z" fill="#3C2415"/>
    <path d="M381.05 246.369H216.34V250.329H381.05V246.369Z" fill="#3C2415"/>
    <path d="M381.05 255.25H216.34V259.21H381.05V255.25Z" fill="#3C2415"/>
    <path d="M46.6796 242.24H42.0996V268.1H46.6796V242.24Z" fill="#3C2415"/>
    <path d="M77.08 242.24H72.5V268.1H77.08V242.24Z" fill="#3C2415"/>
    <path d="M107.48 242.24H102.9V268.1H107.48V242.24Z" fill="#3C2415"/>
    <path d="M137.88 242.24H133.3V268.1H137.88V242.24Z" fill="#3C2415"/>
    <path d="M168.28 242.24H163.7V268.1H168.28V242.24Z" fill="#3C2415"/>
    <path d="M198.68 242.24H194.1V268.1H198.68V242.24Z" fill="#3C2415"/>
    <path d="M202.23 246.369H37.5195V250.329H202.23V246.369Z" fill="#3C2415"/>
    <path d="M202.23 255.25H37.5195V259.21H202.23V255.25Z" fill="#3C2415"/>
    <path d="M243.06 246.699H239.06C238.985 246.701 238.912 246.68 238.85 246.639C238.787 246.598 238.739 246.539 238.71 246.469C238.681 246.399 238.673 246.322 238.688 246.247C238.702 246.173 238.737 246.104 238.79 246.049L252 232.889C252.072 232.818 252.169 232.778 252.27 232.778C252.371 232.778 252.469 232.818 252.54 232.889C252.612 232.961 252.652 233.058 252.652 233.159C252.652 233.261 252.612 233.358 252.54 233.429L240 245.939H242.9L262.71 226.129C262.782 226.058 262.879 226.018 262.98 226.018C263.082 226.018 263.179 226.058 263.25 226.129C263.322 226.201 263.362 226.298 263.362 226.399C263.362 226.501 263.322 226.598 263.25 226.669L243.32 246.589C243.25 246.657 243.158 246.697 243.06 246.699Z" fill="#363E44"/>
    <path d="M349.62 246.699H345.62C345.52 246.698 345.423 246.659 345.35 246.589L325.43 226.669C325.359 226.598 325.318 226.501 325.318 226.399C325.318 226.298 325.359 226.201 325.43 226.129C325.502 226.058 325.599 226.018 325.7 226.018C325.801 226.018 325.899 226.058 325.97 226.129L345.78 245.939H348.68L336.17 233.429C336.099 233.358 336.058 233.261 336.058 233.159C336.058 233.058 336.099 232.961 336.17 232.889C336.242 232.818 336.339 232.778 336.44 232.778C336.541 232.778 336.639 232.818 336.71 232.889L349.87 246.049C349.924 246.103 349.96 246.171 349.975 246.245C349.99 246.319 349.983 246.395 349.954 246.465C349.925 246.535 349.876 246.594 349.813 246.636C349.75 246.678 349.676 246.7 349.6 246.699H349.62Z" fill="#363E44"/>
    <path d="M251.12 217.041L207.42 186.891V180.811L257.06 202.331L251.12 217.041Z" fill="#21A01D"/>
    <path d="M220.11 188.771H211.63L207.42 180.811H220.11V188.771Z" fill="#21A01D"/>
    <path d="M217.62 180.161H209.92C209.819 180.161 209.723 180.121 209.651 180.049C209.58 179.978 209.54 179.881 209.54 179.781V176.691C209.54 176.59 209.58 176.493 209.651 176.422C209.723 176.351 209.819 176.311 209.92 176.311H217.62C217.721 176.311 217.817 176.351 217.889 176.422C217.96 176.493 218 176.59 218 176.691V179.781C218 179.881 217.96 179.978 217.889 180.049C217.817 180.121 217.721 180.161 217.62 180.161ZM210.3 179.401H217.24V177.071H210.3V179.401Z" fill="#363E44"/>
    <path d="M192.13 200.58C192.084 200.59 192.036 200.59 191.99 200.58C191.922 200.552 191.864 200.505 191.821 200.445C191.779 200.385 191.754 200.314 191.75 200.24C191.75 200.09 191.48 185.69 208.2 180.45C208.249 180.429 208.302 180.418 208.355 180.418C208.408 180.418 208.461 180.43 208.509 180.452C208.558 180.474 208.601 180.505 208.637 180.545C208.672 180.585 208.699 180.632 208.715 180.682C208.731 180.733 208.737 180.787 208.731 180.84C208.725 180.892 208.708 180.944 208.681 180.99C208.654 181.036 208.618 181.075 208.575 181.106C208.532 181.138 208.482 181.159 208.43 181.17C194.7 185.48 192.81 196.09 192.55 199.29L211.03 181.29C211.064 181.25 211.107 181.217 211.154 181.194C211.202 181.17 211.254 181.157 211.306 181.155C211.359 181.153 211.412 181.162 211.461 181.182C211.51 181.201 211.555 181.231 211.592 181.269C211.629 181.307 211.658 181.352 211.676 181.401C211.695 181.451 211.703 181.504 211.7 181.556C211.697 181.609 211.683 181.661 211.659 181.708C211.635 181.755 211.601 181.797 211.56 181.83L192.4 200.47C192.327 200.539 192.231 200.579 192.13 200.58Z" fill="#363E44"/>
    <path d="M219.39 176.07C219.31 176.069 219.231 176.044 219.165 175.998C219.099 175.951 219.049 175.886 219.02 175.81C219.005 175.762 218.999 175.712 219.003 175.662C219.008 175.611 219.022 175.563 219.045 175.518C219.068 175.473 219.1 175.434 219.139 175.401C219.177 175.369 219.222 175.345 219.27 175.33C233 171 234.9 160.41 235.15 157.22L216.67 175.22C216.634 175.255 216.592 175.282 216.545 175.301C216.498 175.319 216.448 175.328 216.398 175.327C216.348 175.326 216.299 175.315 216.253 175.295C216.207 175.275 216.165 175.246 216.13 175.21C216.096 175.174 216.068 175.131 216.05 175.085C216.032 175.038 216.023 174.988 216.024 174.938C216.024 174.888 216.035 174.839 216.055 174.793C216.075 174.747 216.104 174.705 216.14 174.67L235.31 156C235.365 155.951 235.432 155.918 235.504 155.904C235.577 155.89 235.651 155.896 235.72 155.92C235.788 155.948 235.846 155.995 235.887 156.055C235.928 156.116 235.95 156.187 235.95 156.26C235.95 156.41 236.23 170.81 219.5 176.05C219.466 176.066 219.428 176.073 219.39 176.07Z" fill="#363E44"/>
    <path d="M213.77 203.559C208.045 203.583 202.486 201.642 198.02 198.059C197.974 198.031 197.935 197.994 197.905 197.949C197.874 197.905 197.854 197.854 197.845 197.801C197.835 197.748 197.837 197.694 197.851 197.642C197.864 197.59 197.888 197.541 197.922 197.499C197.955 197.457 197.997 197.422 198.045 197.398C198.093 197.373 198.146 197.359 198.199 197.356C198.253 197.353 198.307 197.362 198.357 197.381C198.407 197.401 198.452 197.431 198.49 197.469C202.042 200.291 206.306 202.073 210.809 202.619C215.312 203.164 219.878 202.451 224 200.559C224.093 200.521 224.198 200.519 224.292 200.554C224.387 200.589 224.465 200.659 224.51 200.749C224.551 200.842 224.554 200.948 224.519 201.043C224.483 201.138 224.412 201.216 224.32 201.259C221.011 202.779 217.412 203.563 213.77 203.559Z" fill="#363E44"/>
    <path d="M231.4 196.25C231.35 196.251 231.301 196.241 231.254 196.222C231.208 196.204 231.166 196.176 231.13 196.14C231.063 196.067 231.025 195.97 231.025 195.87C231.025 195.771 231.063 195.674 231.13 195.601C234.921 191.814 237.369 186.89 238.101 181.582C238.832 176.273 237.806 170.871 235.18 166.2C235.156 166.157 235.141 166.108 235.135 166.058C235.129 166.008 235.134 165.958 235.148 165.909C235.162 165.861 235.185 165.816 235.216 165.777C235.248 165.738 235.286 165.705 235.33 165.68C235.374 165.656 235.423 165.641 235.473 165.635C235.523 165.63 235.573 165.634 235.621 165.648C235.67 165.662 235.715 165.685 235.754 165.716C235.793 165.748 235.826 165.787 235.85 165.831C238.554 170.647 239.608 176.216 238.854 181.688C238.099 187.16 235.577 192.235 231.67 196.14C231.636 196.177 231.594 196.206 231.547 196.225C231.501 196.244 231.451 196.253 231.4 196.25Z" fill="#363E44"/>
    <path d="M227.57 157.84C227.496 157.84 227.423 157.819 227.36 157.78C224.741 156.03 221.807 154.807 218.72 154.18C218.622 154.158 218.535 154.099 218.48 154.015C218.424 153.931 218.402 153.829 218.42 153.73C218.43 153.68 218.449 153.633 218.477 153.591C218.505 153.55 218.541 153.514 218.583 153.486C218.624 153.458 218.671 153.438 218.721 153.429C218.77 153.419 218.821 153.42 218.87 153.43C222.053 154.076 225.079 155.336 227.78 157.14C227.864 157.197 227.922 157.284 227.942 157.383C227.963 157.481 227.944 157.584 227.89 157.67C227.854 157.721 227.806 157.764 227.751 157.793C227.695 157.823 227.633 157.839 227.57 157.84Z" fill="#363E44"/>
    <path d="M191.86 190.54C191.791 190.539 191.724 190.52 191.664 190.485C191.604 190.45 191.555 190.4 191.52 190.34C189.426 186.482 188.369 182.146 188.455 177.757C188.541 173.367 189.765 169.076 192.008 165.302C194.251 161.528 197.437 158.402 201.251 156.23C205.066 154.058 209.38 152.914 213.77 152.91C213.862 152.925 213.945 152.972 214.005 153.042C214.065 153.113 214.098 153.203 214.098 153.295C214.098 153.388 214.065 153.477 214.005 153.548C213.945 153.619 213.862 153.665 213.77 153.68C209.508 153.677 205.318 154.783 201.613 156.89C197.908 158.996 194.815 162.031 192.638 165.695C190.46 169.359 189.274 173.527 189.196 177.788C189.117 182.05 190.149 186.258 192.19 190C192.237 190.089 192.248 190.193 192.22 190.29C192.192 190.387 192.128 190.47 192.04 190.52C191.983 190.54 191.921 190.547 191.86 190.54Z" fill="#363E44"/>
    <path d="M337.59 217.041L381.28 186.891V180.811L331.65 202.331L337.59 217.041Z" fill="#21A01D"/>
    <path d="M368.6 188.771H377.08L381.28 180.811H368.6V188.771Z" fill="#21A01D"/>
    <path d="M378.79 180.161H371.09C370.989 180.161 370.893 180.121 370.821 180.049C370.75 179.978 370.71 179.881 370.71 179.781V176.691C370.71 176.59 370.75 176.493 370.821 176.422C370.893 176.351 370.989 176.311 371.09 176.311H378.79C378.891 176.311 378.987 176.351 379.059 176.422C379.13 176.493 379.17 176.59 379.17 176.691V179.781C379.17 179.881 379.13 179.978 379.059 180.049C378.987 180.121 378.891 180.161 378.79 180.161ZM371.47 179.401H378.41V177.071H371.47V179.401Z" fill="#363E44"/>
    <path d="M396.58 200.58C396.479 200.58 396.382 200.54 396.31 200.47L377.14 181.84C377.104 181.805 377.076 181.762 377.057 181.716C377.037 181.67 377.027 181.62 377.027 181.57C377.027 181.52 377.037 181.47 377.057 181.424C377.076 181.377 377.104 181.335 377.14 181.3C377.174 181.265 377.216 181.236 377.261 181.217C377.307 181.198 377.356 181.188 377.405 181.188C377.454 181.188 377.503 181.198 377.549 181.217C377.594 181.236 377.635 181.265 377.67 181.3L396.16 199.3C395.89 196.09 393.99 185.48 380.28 181.18C380.197 181.141 380.13 181.074 380.093 180.99C380.055 180.906 380.049 180.812 380.076 180.724C380.103 180.636 380.161 180.561 380.239 180.513C380.317 180.464 380.409 180.445 380.5 180.46C397.23 185.7 396.96 200.1 396.96 200.25C396.956 200.323 396.932 200.394 396.889 200.455C396.847 200.515 396.788 200.562 396.72 200.59L396.58 200.58Z" fill="#363E44"/>
    <path d="M369.32 176.07C369.284 176.08 369.246 176.08 369.21 176.07C352.48 170.83 352.75 156.43 352.75 156.28C352.754 156.206 352.779 156.135 352.821 156.075C352.864 156.015 352.922 155.968 352.99 155.94C353.059 155.915 353.134 155.91 353.206 155.924C353.278 155.938 353.345 155.971 353.4 156.02L372.57 174.65C372.643 174.72 372.685 174.816 372.687 174.918C372.689 175.019 372.651 175.117 372.58 175.19C372.51 175.263 372.414 175.305 372.312 175.307C372.211 175.308 372.113 175.27 372.04 175.2L353.55 157.2C353.82 160.4 355.72 171.01 369.43 175.31C369.515 175.338 369.587 175.395 369.633 175.471C369.68 175.548 369.698 175.638 369.685 175.726C369.672 175.814 369.628 175.895 369.561 175.954C369.495 176.013 369.409 176.047 369.32 176.05V176.07Z" fill="#363E44"/>
    <path d="M374.94 203.56C371.295 203.566 367.693 202.782 364.38 201.26C364.289 201.217 364.217 201.139 364.182 201.044C364.146 200.948 364.149 200.843 364.19 200.75C364.232 200.659 364.308 200.588 364.401 200.552C364.495 200.517 364.599 200.519 364.69 200.56C368.814 202.454 373.382 203.168 377.887 202.622C382.392 202.077 386.658 200.293 390.21 197.47C390.249 197.439 390.294 197.415 390.342 197.401C390.389 197.386 390.44 197.382 390.489 197.387C390.539 197.392 390.587 197.407 390.631 197.43C390.675 197.454 390.714 197.486 390.745 197.525C390.777 197.564 390.801 197.608 390.815 197.656C390.829 197.704 390.834 197.754 390.829 197.804C390.824 197.854 390.809 197.902 390.785 197.946C390.761 197.99 390.729 198.029 390.69 198.06C386.225 201.643 380.665 203.584 374.94 203.56Z" fill="#363E44"/>
    <path d="M357.3 196.25C357.25 196.25 357.2 196.241 357.154 196.222C357.108 196.203 357.065 196.175 357.03 196.14C353.128 192.231 350.609 187.156 349.857 181.685C349.104 176.214 350.159 170.647 352.86 165.83C352.885 165.786 352.918 165.748 352.958 165.718C352.997 165.687 353.042 165.665 353.091 165.652C353.139 165.639 353.19 165.635 353.239 165.642C353.289 165.648 353.337 165.665 353.38 165.69C353.423 165.714 353.461 165.746 353.491 165.785C353.522 165.823 353.544 165.868 353.557 165.915C353.57 165.963 353.574 166.012 353.567 166.061C353.561 166.11 353.545 166.157 353.52 166.2C351.469 169.867 350.388 173.998 350.38 178.2C350.37 181.425 351.001 184.62 352.235 187.6C353.469 190.58 355.283 193.286 357.57 195.56C357.606 195.595 357.634 195.637 357.653 195.683C357.673 195.73 357.683 195.78 357.683 195.83C357.683 195.88 357.673 195.93 357.653 195.976C357.634 196.022 357.606 196.064 357.57 196.1C357.539 196.144 357.499 196.18 357.452 196.206C357.406 196.232 357.353 196.247 357.3 196.25Z" fill="#363E44"/>
    <path d="M361.14 157.84C361.076 157.841 361.013 157.827 360.957 157.797C360.901 157.767 360.854 157.723 360.82 157.67C360.792 157.628 360.772 157.581 360.763 157.532C360.753 157.482 360.754 157.431 360.764 157.382C360.774 157.333 360.794 157.286 360.822 157.244C360.851 157.203 360.887 157.167 360.93 157.14C363.631 155.336 366.657 154.076 369.84 153.43C369.939 153.412 370.041 153.433 370.125 153.489C370.209 153.545 370.268 153.632 370.29 153.73C370.305 153.829 370.283 153.93 370.227 154.013C370.172 154.097 370.087 154.156 369.99 154.18C366.903 154.806 363.968 156.028 361.35 157.78C361.286 157.818 361.214 157.839 361.14 157.84Z" fill="#363E44"/>
    <path d="M396.85 190.541C396.791 190.554 396.729 190.554 396.67 190.541C396.583 190.491 396.518 190.408 396.49 190.311C396.462 190.214 396.473 190.11 396.52 190.021C398.554 186.28 399.58 182.075 399.498 177.818C399.416 173.56 398.228 169.398 396.052 165.738C393.876 162.078 390.785 159.047 387.084 156.942C383.383 154.837 379.198 153.731 374.94 153.731C374.849 153.716 374.765 153.669 374.705 153.599C374.645 153.528 374.612 153.439 374.612 153.346C374.612 153.253 374.645 153.164 374.705 153.093C374.765 153.023 374.849 152.976 374.94 152.961C379.33 152.964 383.644 154.108 387.459 156.281C391.274 158.453 394.459 161.579 396.702 165.353C398.946 169.126 400.17 173.418 400.255 177.807C400.341 182.197 399.285 186.533 397.19 190.391C397.15 190.442 397.098 190.482 397.039 190.508C396.979 190.534 396.915 190.545 396.85 190.541Z" fill="#363E44"/>
    <path d="M319.12 210.74H269.59V230.06H319.12V210.74Z" fill="#21A01D"/>
    <path d="M339.66 199.9H249.04V223.42H339.66V199.9Z" fill="#31BC2E"/>
    <path d="M264.63 220.781C264.529 220.781 264.433 220.741 264.361 220.669C264.29 220.598 264.25 220.501 264.25 220.401V206.741C264.249 206.691 264.258 206.641 264.277 206.594C264.296 206.548 264.324 206.506 264.36 206.471L267.92 202.911C267.992 202.839 268.089 202.799 268.19 202.799C268.291 202.799 268.388 202.839 268.46 202.911C268.532 202.982 268.572 203.079 268.572 203.181C268.572 203.282 268.532 203.379 268.46 203.451L265 206.891V220.401C264.998 220.499 264.958 220.593 264.89 220.663C264.821 220.734 264.728 220.776 264.63 220.781Z" fill="white"/>
    <path d="M261.21 220.781C261.109 220.781 261.013 220.741 260.941 220.669C260.87 220.598 260.83 220.501 260.83 220.401V206.741C260.829 206.691 260.839 206.641 260.857 206.594C260.876 206.548 260.904 206.506 260.94 206.471L264.5 202.911C264.572 202.839 264.669 202.799 264.77 202.799C264.871 202.799 264.969 202.839 265.04 202.911C265.112 202.982 265.152 203.079 265.152 203.181C265.152 203.282 265.112 203.379 265.04 203.451L261.59 206.891V220.401C261.59 220.501 261.55 220.598 261.479 220.669C261.408 220.741 261.311 220.781 261.21 220.781Z" fill="white"/>
    <path d="M257.79 220.781C257.689 220.781 257.593 220.741 257.522 220.669C257.45 220.598 257.41 220.501 257.41 220.401V206.741C257.409 206.691 257.419 206.641 257.437 206.594C257.456 206.548 257.485 206.506 257.52 206.471L261.08 202.911C261.115 202.875 261.156 202.847 261.201 202.828C261.247 202.809 261.296 202.799 261.345 202.799C261.395 202.799 261.444 202.809 261.489 202.828C261.535 202.847 261.576 202.875 261.61 202.911C261.646 202.946 261.674 202.988 261.694 203.034C261.713 203.081 261.723 203.13 261.723 203.181C261.723 203.231 261.713 203.281 261.694 203.327C261.674 203.373 261.646 203.415 261.61 203.451L258.17 206.891V220.401C258.17 220.501 258.13 220.598 258.059 220.669C257.988 220.741 257.891 220.781 257.79 220.781Z" fill="white"/>
    <path d="M333.07 220.781C333.02 220.782 332.97 220.773 332.923 220.754C332.877 220.735 332.835 220.707 332.8 220.671L329.24 217.111C329.204 217.076 329.176 217.033 329.157 216.987C329.138 216.941 329.129 216.891 329.13 216.841V203.181C329.13 203.08 329.17 202.983 329.241 202.912C329.313 202.841 329.409 202.801 329.51 202.801C329.611 202.801 329.707 202.841 329.779 202.912C329.85 202.983 329.89 203.08 329.89 203.181V216.691L333.34 220.131C333.376 220.166 333.404 220.208 333.423 220.255C333.443 220.301 333.453 220.351 333.453 220.401C333.453 220.451 333.443 220.501 333.423 220.547C333.404 220.593 333.376 220.635 333.34 220.671C333.305 220.707 333.264 220.736 333.217 220.755C333.17 220.774 333.12 220.783 333.07 220.781Z" fill="white"/>
    <path d="M329.65 220.781C329.6 220.783 329.55 220.774 329.503 220.755C329.456 220.736 329.414 220.707 329.38 220.671L325.82 217.111C325.784 217.076 325.756 217.033 325.737 216.987C325.718 216.941 325.709 216.891 325.71 216.841V203.181C325.71 203.08 325.75 202.983 325.821 202.912C325.893 202.841 325.989 202.801 326.09 202.801C326.191 202.801 326.287 202.841 326.359 202.912C326.43 202.983 326.47 203.08 326.47 203.181V216.691L329.92 220.131C329.956 220.166 329.984 220.208 330.003 220.255C330.023 220.301 330.033 220.351 330.033 220.401C330.033 220.451 330.023 220.501 330.003 220.547C329.984 220.593 329.956 220.635 329.92 220.671C329.885 220.707 329.843 220.735 329.797 220.754C329.75 220.773 329.7 220.782 329.65 220.781Z" fill="white"/>
    <path d="M326.22 220.781C326.171 220.782 326.123 220.773 326.078 220.754C326.033 220.735 325.993 220.707 325.96 220.671L322.4 217.111C322.364 217.076 322.336 217.033 322.317 216.987C322.298 216.941 322.289 216.891 322.29 216.841V203.181C322.29 203.08 322.33 202.983 322.401 202.912C322.473 202.841 322.569 202.801 322.67 202.801C322.771 202.801 322.868 202.841 322.939 202.912C323.01 202.983 323.05 203.08 323.05 203.181V216.691L326.49 220.131C326.526 220.166 326.554 220.208 326.573 220.255C326.593 220.301 326.603 220.351 326.603 220.401C326.603 220.451 326.593 220.501 326.573 220.547C326.554 220.593 326.526 220.635 326.49 220.671C326.456 220.707 326.414 220.736 326.367 220.755C326.321 220.774 326.27 220.783 326.22 220.781Z" fill="white"/>
    <path d="M294.35 222.069C292.361 222.069 290.416 221.479 288.762 220.375C287.108 219.27 285.818 217.699 285.057 215.861C284.295 214.024 284.095 212.001 284.483 210.05C284.87 208.099 285.827 206.307 287.233 204.899C288.639 203.492 290.431 202.533 292.381 202.144C294.332 201.754 296.355 201.952 298.193 202.712C300.031 203.472 301.603 204.76 302.71 206.413C303.816 208.066 304.408 210.01 304.41 211.999C304.41 214.668 303.35 217.228 301.464 219.116C299.578 221.004 297.019 222.067 294.35 222.069ZM294.35 202.709C292.511 202.709 290.713 203.255 289.183 204.277C287.654 205.298 286.462 206.751 285.758 208.45C285.054 210.15 284.87 212.02 285.229 213.824C285.588 215.628 286.473 217.285 287.774 218.585C289.075 219.886 290.732 220.772 292.536 221.131C294.34 221.489 296.21 221.305 297.909 220.601C299.608 219.897 301.061 218.705 302.083 217.176C303.105 215.647 303.65 213.849 303.65 212.009C303.647 209.544 302.667 207.18 300.923 205.436C299.18 203.693 296.816 202.712 294.35 202.709Z" fill="#363E44"/>
    <path d="M294.35 218.92C298.167 218.92 301.26 215.826 301.26 212.01C301.26 208.193 298.167 205.1 294.35 205.1C290.534 205.1 287.44 208.193 287.44 212.01C287.44 215.826 290.534 218.92 294.35 218.92Z" fill="#363E44"/>
    <path d="M297.58 209.63C297.578 209.952 297.48 210.266 297.299 210.532C297.118 210.798 296.862 211.004 296.563 211.123C296.265 211.243 295.937 211.271 295.623 211.205C295.308 211.138 295.02 210.978 294.797 210.748C294.573 210.517 294.423 210.224 294.366 209.908C294.308 209.591 294.347 209.265 294.476 208.97C294.605 208.675 294.819 208.426 295.09 208.253C295.362 208.081 295.678 207.993 296 208C296.425 208.008 296.83 208.184 297.126 208.49C297.422 208.795 297.585 209.205 297.58 209.63Z" fill="#F7F1EB"/>
    <path d="M368.59 348.76C368.5 348.759 368.414 348.726 368.346 348.667C368.279 348.609 368.234 348.528 368.22 348.44L361 304.76C360.991 304.711 360.992 304.661 361.004 304.613C361.015 304.565 361.035 304.52 361.064 304.48C361.093 304.439 361.13 304.406 361.172 304.38C361.214 304.354 361.261 304.337 361.31 304.33C361.359 304.321 361.409 304.322 361.458 304.333C361.507 304.344 361.553 304.365 361.594 304.394C361.635 304.422 361.67 304.459 361.696 304.501C361.723 304.543 361.741 304.591 361.75 304.64L369 348.32C369.014 348.418 368.99 348.518 368.932 348.598C368.874 348.678 368.787 348.733 368.69 348.75L368.59 348.76Z" fill="#6FF8DC"/>
    <path d="M360.68 301.179C360.59 301.178 360.504 301.145 360.437 301.087C360.369 301.028 360.324 300.947 360.31 300.859L356.53 278.139C356.52 278.09 356.52 278.039 356.53 277.989C356.541 277.94 356.561 277.893 356.59 277.852C356.619 277.811 356.656 277.776 356.699 277.75C356.742 277.723 356.79 277.706 356.84 277.699C356.889 277.69 356.94 277.692 356.988 277.703C357.037 277.713 357.083 277.734 357.124 277.763C357.165 277.792 357.2 277.828 357.227 277.87C357.253 277.913 357.271 277.96 357.28 278.009L361.06 300.739C361.074 300.838 361.049 300.939 360.989 301.02C360.929 301.101 360.839 301.154 360.74 301.169L360.68 301.179Z" fill="#6FF8DC"/>
    <path d="M356.35 275.149C356.261 275.148 356.175 275.115 356.107 275.057C356.039 274.998 355.994 274.917 355.98 274.829L352.76 255.469C352.75 255.42 352.75 255.369 352.761 255.319C352.771 255.27 352.791 255.223 352.82 255.182C352.849 255.141 352.887 255.106 352.93 255.08C352.973 255.054 353.02 255.036 353.07 255.029C353.12 255.021 353.17 255.022 353.219 255.033C353.268 255.044 353.314 255.064 353.355 255.093C353.396 255.122 353.43 255.158 353.457 255.2C353.484 255.243 353.502 255.29 353.51 255.339L356.73 274.699C356.745 274.798 356.721 274.899 356.663 274.981C356.606 275.063 356.519 275.12 356.42 275.139L356.35 275.149Z" fill="#6FF8DC"/>
    <path d="M346.94 299.919C346.839 299.919 346.742 299.879 346.671 299.808C346.6 299.737 346.56 299.64 346.56 299.539V254.839C346.574 254.748 346.621 254.665 346.692 254.605C346.762 254.545 346.852 254.512 346.945 254.512C347.037 254.512 347.127 254.545 347.197 254.605C347.268 254.665 347.315 254.748 347.33 254.839V299.539C347.33 299.59 347.319 299.64 347.3 299.687C347.28 299.734 347.251 299.776 347.215 299.812C347.178 299.847 347.135 299.875 347.088 299.893C347.041 299.912 346.99 299.921 346.94 299.919Z" fill="#6FF8DC"/>
    <path d="M325.54 340.821H325.47C325.421 340.811 325.374 340.792 325.332 340.764C325.29 340.736 325.254 340.7 325.226 340.659C325.198 340.617 325.179 340.57 325.169 340.52C325.159 340.471 325.16 340.42 325.17 340.371L335 291.081C335.02 290.981 335.078 290.894 335.163 290.838C335.247 290.781 335.351 290.761 335.45 290.781C335.549 290.801 335.637 290.859 335.693 290.944C335.749 291.028 335.77 291.131 335.75 291.231L325.9 340.511C325.882 340.595 325.838 340.671 325.773 340.727C325.708 340.783 325.626 340.816 325.54 340.821Z" fill="#6FF8DC"/>
    <path d="M337.1 283.001H337C336.903 282.977 336.819 282.917 336.765 282.833C336.711 282.75 336.691 282.649 336.71 282.551L343 251.101C343.009 251.051 343.029 251.004 343.056 250.963C343.084 250.921 343.12 250.885 343.162 250.857C343.204 250.829 343.251 250.81 343.3 250.8C343.35 250.79 343.4 250.791 343.45 250.801C343.548 250.823 343.634 250.881 343.69 250.965C343.746 251.049 343.768 251.152 343.75 251.251L337.46 282.691C337.446 282.777 337.402 282.855 337.336 282.911C337.27 282.968 337.187 283 337.1 283.001Z" fill="#6FF8DC"/>
    <path d="M232.2 291.39H232.14C232.091 291.381 232.043 291.363 232.001 291.337C231.959 291.31 231.922 291.275 231.894 291.234C231.865 291.193 231.844 291.147 231.833 291.098C231.822 291.05 231.821 290.999 231.83 290.95L234.29 276.16C234.307 276.06 234.363 275.97 234.445 275.911C234.527 275.851 234.629 275.825 234.73 275.84C234.828 275.859 234.915 275.916 234.973 275.998C235.031 276.08 235.055 276.181 235.04 276.28L232.58 291.08C232.563 291.168 232.516 291.248 232.447 291.304C232.377 291.361 232.29 291.391 232.2 291.39Z" fill="#6FF8DC"/>
    <path d="M235.21 273.29H235.15C235.101 273.283 235.054 273.266 235.012 273.24C234.969 273.214 234.933 273.18 234.904 273.14C234.875 273.1 234.854 273.055 234.843 273.006C234.832 272.958 234.831 272.908 234.84 272.86L238.06 253.5C238.077 253.4 238.132 253.31 238.215 253.25C238.297 253.191 238.399 253.165 238.5 253.18C238.598 253.199 238.685 253.256 238.743 253.338C238.8 253.42 238.824 253.521 238.81 253.62L235.59 273C235.569 273.084 235.52 273.159 235.451 273.212C235.382 273.265 235.297 273.292 235.21 273.29Z" fill="#6FF8DC"/>
    <path d="M244.62 298.069C244.519 298.069 244.423 298.029 244.352 297.958C244.28 297.887 244.24 297.79 244.24 297.689V252.999C244.24 252.898 244.28 252.802 244.352 252.73C244.423 252.659 244.519 252.619 244.62 252.619C244.721 252.619 244.818 252.659 244.889 252.73C244.96 252.802 245 252.898 245 252.999V297.699C244.998 297.798 244.956 297.892 244.885 297.961C244.814 298.031 244.719 298.069 244.62 298.069Z" fill="#6FF8DC"/>
    <path d="M266 339C265.913 339 265.829 338.97 265.762 338.916C265.695 338.861 265.648 338.785 265.63 338.7L255.78 289.41C255.761 289.311 255.783 289.208 255.84 289.125C255.897 289.041 255.985 288.984 256.085 288.965C256.184 288.947 256.287 288.969 256.371 289.026C256.454 289.083 256.511 289.171 256.53 289.27L266.38 338.55C266.395 338.649 266.373 338.751 266.317 338.834C266.262 338.917 266.177 338.977 266.08 339H266Z" fill="#6FF8DC"/>
    <path d="M254.47 281.14C254.38 281.139 254.294 281.108 254.225 281.052C254.156 280.996 254.108 280.917 254.09 280.83L247.81 249.39C247.799 249.34 247.799 249.29 247.809 249.24C247.818 249.191 247.838 249.144 247.866 249.102C247.894 249.06 247.929 249.024 247.971 248.996C248.013 248.969 248.06 248.949 248.11 248.94C248.209 248.922 248.311 248.943 248.395 248.999C248.479 249.055 248.538 249.141 248.56 249.24L254.84 280.68C254.85 280.729 254.85 280.78 254.841 280.829C254.831 280.879 254.812 280.926 254.784 280.967C254.756 281.009 254.72 281.045 254.678 281.073C254.636 281.101 254.589 281.12 254.54 281.13L254.47 281.14Z" fill="#6FF8DC"/>
    </g>
    <defs>
    <clipPath id="clip0_2739_52307">
    <rect width="590" height="428" fill="white"/>
    </clipPath>
    </defs>
    </svg>
    