<svg width="645" height="421" viewBox="0 0 645 421" fill="none" xmlns="http://www.w3.org/2000/svg">
    <g clip-path="url(#clip0_2739_53580)">
    <g opacity="0.7">
    <path opacity="0.47" d="M645 0H0V331H645V0Z" fill="#6FF8DC"/>
    </g>
    <path d="M487.061 130.279H602.231C602.229 125.84 601.033 121.483 598.768 117.665C596.503 113.847 593.252 110.709 589.357 108.58C585.461 106.45 581.065 105.409 576.628 105.563C572.191 105.718 567.878 107.064 564.141 109.459C561.932 106.157 558.96 103.435 555.476 101.524C551.992 99.613 548.099 98.5699 544.127 98.4825C540.155 98.3952 536.22 99.2663 532.655 101.022C529.091 102.778 526.002 105.367 523.651 108.569C519.883 106.514 515.646 105.474 511.355 105.551C507.064 105.628 502.867 106.82 499.176 109.01C495.486 111.2 492.428 114.312 490.304 118.041C488.179 121.77 487.062 125.988 487.061 130.279Z" fill="white"/>
    <path d="M64.1807 130.92H149.501C149.5 127.632 148.615 124.405 146.938 121.576C145.261 118.748 142.853 116.423 139.968 114.846C137.082 113.269 133.826 112.498 130.539 112.613C127.253 112.728 124.059 113.725 121.291 115.5C119.652 113.055 117.449 111.04 114.868 109.626C112.286 108.213 109.402 107.441 106.46 107.377C103.517 107.314 100.602 107.959 97.9619 109.26C95.3216 110.561 93.0333 112.478 91.2907 114.85C88.5014 113.322 85.3621 112.546 82.1818 112.6C79.0016 112.653 75.8902 113.534 73.1541 115.156C70.418 116.778 68.1516 119.085 66.5781 121.849C65.0046 124.613 64.1783 127.74 64.1807 130.92Z" fill="white"/>
    <path d="M99.1104 364.761C99.1104 364.761 96.3604 369.881 115.88 374.141H524.54C524.54 374.141 538.21 373.271 541.81 366.821V363.301L99.1104 364.761Z" fill="#B0B0B0"/>
    <path d="M99.1999 354.43H542V365.8C542 365.8 542.66 367.32 537.45 366.94H103.37C103.37 366.94 99.2899 368.08 98.9199 365.42L99.1999 354.43Z" fill="white"/>
    <path d="M521.41 361.07C521.427 361.263 521.367 361.455 521.244 361.604C521.12 361.754 520.943 361.849 520.75 361.87H505.69C505.497 361.849 505.32 361.754 505.197 361.604C505.073 361.455 505.013 361.263 505.03 361.07C505.013 360.876 505.073 360.684 505.197 360.535C505.32 360.385 505.497 360.29 505.69 360.27H520.75C520.846 360.278 520.939 360.306 521.025 360.351C521.11 360.396 521.185 360.458 521.247 360.532C521.308 360.606 521.354 360.692 521.382 360.784C521.41 360.877 521.42 360.974 521.41 361.07Z" fill="#B0B0B0"/>
    <path d="M290.511 354.52C290.511 354.52 288.811 360.21 294.511 360.78H345.871C345.871 360.78 351.331 361.48 350.611 354.71L290.511 354.52Z" fill="#B0B0B0"/>
    <path d="M498.451 354.38V152.56C498.437 148.147 496.678 143.918 493.556 140.798C490.434 137.678 486.204 135.921 481.79 135.91H159.13C154.719 135.923 150.491 137.682 147.372 140.801C144.252 143.921 142.494 148.148 142.48 152.56V354.38H498.451Z" fill="#1B384C"/>
    <path d="M486.991 148.41H153.931V342H486.991V148.41Z" fill="white"/>
    <path d="M101.341 202.76C101.597 209.086 104.29 215.069 108.856 219.454C113.423 223.84 119.509 226.29 125.841 226.29C132.172 226.29 138.259 223.84 142.825 219.454C147.392 215.069 150.085 209.086 150.341 202.76H101.341Z" fill="#3173D3"/>
    <path d="M155.34 147.75L101.271 202.76H150.37L192.421 147.75H155.34Z" fill="#3A7EE4"/>
    <path d="M192.42 147.75L150.37 202.76H199.47L229.51 147.75H192.42Z" fill="#EEEEEE"/>
    <path d="M150.44 202.76C150.696 209.086 153.389 215.069 157.956 219.454C162.523 223.84 168.609 226.29 174.94 226.29C181.272 226.29 187.358 223.84 191.925 219.454C196.492 215.069 199.185 209.086 199.44 202.76H150.44Z" fill="#EEEEEE"/>
    <path d="M199.54 202.76C199.796 209.086 202.489 215.069 207.055 219.454C211.622 223.84 217.708 226.29 224.04 226.29C230.372 226.29 236.458 223.84 241.025 219.454C245.591 215.069 248.284 209.086 248.54 202.76H199.54Z" fill="#3173D3"/>
    <path d="M229.511 147.75L199.471 202.76H248.561L266.591 147.75H229.511Z" fill="#3A7EE4"/>
    <path d="M266.591 147.75L248.561 202.76H297.671L303.681 147.75H266.591Z" fill="#EEEEEE"/>
    <path d="M248.641 202.76C248.976 209.025 251.701 214.922 256.254 219.238C260.807 223.555 266.842 225.96 273.116 225.96C279.389 225.96 285.424 223.555 289.978 219.238C294.531 214.922 297.255 209.025 297.591 202.76H248.641Z" fill="#EEEEEE"/>
    <path d="M297.74 202.76C298.075 209.025 300.8 214.922 305.353 219.238C309.907 223.555 315.941 225.96 322.215 225.96C328.489 225.96 334.524 223.555 339.077 219.238C343.63 214.922 346.355 209.025 346.69 202.76H297.74Z" fill="#3173D3"/>
    <path d="M303.68 147.75L297.67 202.76H346.77L340.76 147.75H303.68Z" fill="#3A7EE4"/>
    <path d="M346.83 202.76C347.086 209.086 349.779 215.069 354.346 219.454C358.912 223.84 364.998 226.29 371.33 226.29C377.662 226.29 383.748 223.84 388.315 219.454C392.881 215.069 395.574 209.086 395.83 202.76H346.83Z" fill="#EEEEEE"/>
    <path d="M340.761 147.75L346.771 202.76H395.861L377.841 147.75H340.761Z" fill="#EEEEEE"/>
    <path d="M377.841 147.75L395.861 202.76H444.961L414.931 147.75H377.841Z" fill="#3A7EE4"/>
    <path d="M395.931 202.76C396.186 209.086 398.879 215.069 403.446 219.454C408.013 223.84 414.099 226.29 420.431 226.29C426.762 226.29 432.849 223.84 437.415 219.454C441.982 215.069 444.675 209.086 444.931 202.76H395.931Z" fill="#3173D3"/>
    <path d="M414.931 147.75L444.961 202.76H494.061L452.011 147.75H414.931Z" fill="#EEEEEE"/>
    <path d="M445 202.76C445.256 209.086 447.949 215.069 452.515 219.454C457.082 223.84 463.168 226.29 469.5 226.29C475.832 226.29 481.918 223.84 486.485 219.454C491.051 215.069 493.744 209.086 494 202.76H445Z" fill="#EEEEEE"/>
    <path d="M452.011 147.75L494.061 202.76H543.161L489.091 147.75H452.011Z" fill="#3A7EE4"/>
    <path d="M494.141 202.76C494.323 209.136 496.984 215.191 501.559 219.637C506.133 224.083 512.261 226.57 518.641 226.57C525.02 226.57 531.148 224.083 535.722 219.637C540.297 215.191 542.958 209.136 543.141 202.76H494.141Z" fill="#3173D3"/>
    <path d="M286.98 303.5H99.2803V405.12H286.98V303.5Z" fill="#2FAA95"/>
    <path d="M281.44 400.089H104.82V308.529H281.44V400.089Z" fill="white"/>
    <path d="M276.46 337C269.983 336.937 263.789 334.339 259.205 329.763C254.621 325.187 252.013 318.996 251.94 312.52H133.44C133.254 318.803 130.683 324.781 126.25 329.238C121.816 333.695 115.853 336.299 109.57 336.52V371.52C116.013 371.634 122.158 374.254 126.701 378.825C131.243 383.395 133.826 389.556 133.9 396C133.9 396 133.9 396.09 133.9 396.15H252C252 395.95 252 395.76 252 395.56C252.055 389.08 254.646 382.88 259.219 378.288C263.791 373.697 269.981 371.08 276.46 371H276.69V337H276.46Z" fill="#2FAA95"/>
    <path d="M163.29 354.321C163.292 360.225 165.045 365.995 168.326 370.903C171.608 375.811 176.271 379.635 181.726 381.893C187.181 384.15 193.183 384.739 198.973 383.585C204.763 382.432 210.081 379.587 214.254 375.411C218.427 371.235 221.269 365.915 222.418 360.125C223.568 354.334 222.975 348.332 220.714 342.879C218.453 337.425 214.625 332.764 209.715 329.486C204.806 326.208 199.034 324.459 193.13 324.461C185.215 324.469 177.627 327.618 172.032 333.217C166.437 338.815 163.293 346.406 163.29 354.321Z" fill="white"/>
    <path d="M220.311 354.061C220.311 359.401 218.727 364.621 215.76 369.061C212.793 373.501 208.577 376.962 203.643 379.005C198.709 381.049 193.281 381.584 188.043 380.542C182.806 379.5 177.995 376.928 174.219 373.152C170.443 369.376 167.871 364.565 166.829 359.328C165.788 354.091 166.322 348.662 168.366 343.728C170.409 338.794 173.87 334.578 178.31 331.611C182.75 328.644 187.97 327.061 193.311 327.061C200.471 327.061 207.339 329.905 212.402 334.969C217.466 340.032 220.311 346.9 220.311 354.061Z" fill="#2FA9BC"/>
    <path d="M154.94 352.391H141.25V356.231H154.94V352.391Z" fill="white"/>
    <path d="M136.331 352.391H122.631V356.231H136.331V352.391Z" fill="white"/>
    <path d="M261.73 352.391H248.04V356.231H261.73V352.391Z" fill="white"/>
    <path d="M243.121 352.391H229.431V356.231H243.121V352.391Z" fill="white"/>
    <path d="M299.801 318.609H112.101V420.229H299.801V318.609Z" fill="#2FAA95"/>
    <path d="M294.261 415.201H117.641V323.641H294.261V415.201Z" fill="white"/>
    <path d="M289.281 352.08C282.801 352.017 276.604 349.418 272.018 344.84C267.433 340.262 264.824 334.069 264.751 327.59H146.261C146.072 333.873 143.5 339.849 139.067 344.306C134.635 348.763 128.673 351.367 122.391 351.59V386.59C128.84 386.704 134.991 389.33 139.535 393.909C144.079 398.488 146.657 404.659 146.721 411.11C146.721 411.17 146.721 411.21 146.721 411.26H264.781C264.781 411.07 264.781 410.88 264.781 410.68C264.841 404.192 267.444 397.986 272.031 393.397C276.618 388.808 282.823 386.202 289.311 386.14H289.541V352.07L289.281 352.08Z" fill="#2FAA95"/>
    <path d="M176.101 369.42C176.101 375.322 177.85 381.091 181.128 385.999C184.406 390.907 189.064 394.733 194.516 396.993C199.967 399.254 205.967 399.848 211.756 398.7C217.545 397.553 222.863 394.715 227.04 390.545C231.217 386.375 234.064 381.061 235.221 375.274C236.378 369.487 235.794 363.487 233.543 358.032C231.291 352.577 227.473 347.911 222.571 344.625C217.668 341.339 211.902 339.58 206.001 339.57C198.078 339.565 190.477 342.707 184.87 348.304C179.263 353.902 176.109 361.497 176.101 369.42Z" fill="white"/>
    <path d="M233.131 369.18C233.131 374.52 231.547 379.74 228.581 384.18C225.614 388.62 221.397 392.081 216.463 394.124C211.53 396.168 206.101 396.703 200.863 395.661C195.626 394.619 190.815 392.048 187.039 388.272C183.263 384.496 180.691 379.685 179.65 374.447C178.608 369.21 179.143 363.781 181.186 358.847C183.23 353.914 186.69 349.697 191.13 346.73C195.571 343.763 200.791 342.18 206.131 342.18C213.292 342.18 220.159 345.024 225.223 350.088C230.286 355.151 233.131 362.019 233.131 369.18Z" fill="white"/>
    <path d="M167.76 367.5H154.07V371.33H167.76V367.5Z" fill="white"/>
    <path d="M149.14 367.5H135.45V371.33H149.14V367.5Z" fill="white"/>
    <path d="M274.55 367.5H260.86V371.33H274.55V367.5Z" fill="white"/>
    <path d="M255.93 367.5H242.24V371.33H255.93V367.5Z" fill="white"/>
    <path d="M326.551 323.929C326.551 326.155 327.434 328.29 329.008 329.865C330.581 331.44 332.715 332.327 334.941 332.329H456.641C458.867 332.327 461.001 331.44 462.574 329.865C464.147 328.29 465.031 326.155 465.031 323.929V252.849C465.031 250.623 464.147 248.488 462.574 246.913C461.001 245.338 458.867 244.452 456.641 244.449H334.941C332.715 244.452 330.581 245.338 329.008 246.913C327.434 248.488 326.551 250.623 326.551 252.849V323.929Z" fill="#EBE5EE"/>
    <path d="M465.031 253.74H326.551V265.84H465.031V253.74Z" fill="#161D21"/>
    <path d="M457.13 286.609H358.83V299.569H457.13V286.609Z" fill="#3A7EE4"/>
    <path d="M457.13 278.869H358.83V282.029H457.13V278.869Z" fill="#3A7EE4"/>
    <path d="M457.13 303.631H407.98V307.491H457.13V303.631Z" fill="#3A7EE4"/>
    <path d="M457.13 309.84H407.98V313.7H457.13V309.84Z" fill="#3A7EE4"/>
    <path opacity="0.5" d="M344.67 316.631C344.669 315.56 344.878 314.499 345.287 313.509C345.696 312.519 346.297 311.619 347.053 310.861C347.81 310.103 348.709 309.502 349.699 309.092C350.688 308.682 351.749 308.471 352.82 308.471C353.892 308.471 354.953 308.682 355.943 309.092C356.933 309.502 357.832 310.103 358.59 310.861C359.348 311.618 359.949 312.518 360.359 313.508C360.769 314.498 360.98 315.559 360.98 316.631C360.977 318.793 360.116 320.866 358.586 322.394C357.056 323.922 354.982 324.781 352.82 324.781C350.658 324.781 348.585 323.922 347.057 322.394C345.529 320.865 344.67 318.792 344.67 316.631Z" fill="#3A7EE4"/>
    <path opacity="0.5" d="M335.29 316.631C335.289 315.56 335.499 314.499 335.908 313.509C336.317 312.519 336.917 311.619 337.674 310.861C338.431 310.103 339.329 309.502 340.319 309.092C341.308 308.682 342.369 308.471 343.44 308.471C344.512 308.471 345.573 308.682 346.563 309.092C347.553 309.502 348.452 310.103 349.21 310.861C349.968 311.618 350.569 312.518 350.979 313.508C351.389 314.498 351.6 315.559 351.6 316.631C351.6 317.702 351.389 318.762 350.979 319.752C350.569 320.741 349.967 321.64 349.209 322.397C348.452 323.154 347.552 323.754 346.562 324.163C345.572 324.572 344.511 324.782 343.44 324.781C341.279 324.781 339.206 323.922 337.677 322.394C336.149 320.865 335.29 318.792 335.29 316.631Z" fill="#3A7EE4"/>
    </g>
    <defs>
    <clipPath id="clip0_2739_53580">
    <rect width="645" height="421" fill="white"/>
    </clipPath>
    </defs>
    </svg>
    