<svg width="496" height="412" viewBox="0 0 496 412" fill="none" xmlns="http://www.w3.org/2000/svg">
    <g clip-path="url(#clip0_2739_48501)">
    <g opacity="0.47">
    <path opacity="0.47" d="M496 0H0V380H496V0Z" fill="#6FF8DC"/>
    </g>
    <path d="M401.3 296.42C404.75 296.42 404.76 291.05 401.3 291.05C397.84 291.05 397.84 296.42 401.3 296.42Z" fill="#1F2C31"/>
    <path d="M427.97 326.5H200.86V368.8H427.97V326.5Z" fill="#A9CAFF"/>
    <path d="M374.16 284.19H208.16V326.49H374.16V284.19Z" fill="#005BCF"/>
    <path d="M374.16 291.81H216.04V318.87H374.16V291.81Z" fill="#EAEAE8"/>
    <path d="M401.3 368.8H174.19V411.1H401.3V368.8Z" fill="#007DFF"/>
    <path d="M208.15 371.86H184.98V408.04H208.15V371.86Z" fill="#A9CAFF"/>
    <path d="M390.51 371.86H367.34V408.04H390.51V371.86Z" fill="#A9CAFF"/>
    <path opacity="0.5" d="M420.66 331.61H208.16V363.69H420.66V331.61Z" fill="#007DFF"/>
    <path d="M146.93 410.01H307.19C317.822 410.01 326.44 401.391 326.44 390.76L326.44 110.11C326.44 99.4785 317.822 90.86 307.19 90.86H146.93C136.299 90.86 127.68 99.4785 127.68 110.11L127.68 390.76C127.68 401.391 136.299 410.01 146.93 410.01Z" fill="#040B0A"/>
    <path d="M150.45 403.42H303.67C313.064 403.42 320.68 395.804 320.68 386.41L320.68 113.97C320.68 104.576 313.064 96.9601 303.67 96.9601H150.45C141.055 96.9601 133.44 104.576 133.44 113.97L133.44 386.41C133.44 395.804 141.055 403.42 150.45 403.42Z" fill="white"/>
    <path d="M159.039 149L293.961 149C297.848 149 301 145.418 301 141C301 136.582 297.848 133 293.961 133L159.039 133C155.152 133 152 136.582 152 141C152 145.418 155.152 149 159.039 149Z" fill="#C5FCF1"/>
    <path d="M239.12 224.94H293.95C297.883 224.94 301.07 221.752 301.07 217.82V162.99C301.07 159.058 297.883 155.87 293.95 155.87H239.12C235.188 155.87 232 159.058 232 162.99V217.82C232 221.752 235.188 224.94 239.12 224.94Z" fill="#DCFDF7"/>
    <path d="M160.17 224.94H215C218.932 224.94 222.12 221.752 222.12 217.82V162.99C222.12 159.058 218.932 155.87 215 155.87H160.17C156.238 155.87 153.05 159.058 153.05 162.99V217.82C153.05 221.752 156.238 224.94 160.17 224.94Z" fill="#DCFDF7"/>
    <path d="M239.12 309.39H293.95C297.883 309.39 301.07 306.202 301.07 302.27V247.44C301.07 243.508 297.883 240.32 293.95 240.32H239.12C235.188 240.32 232 243.508 232 247.44V302.27C232 306.202 235.188 309.39 239.12 309.39Z" fill="#DCFDF7"/>
    <path d="M160.17 309.39H215C218.932 309.39 222.12 306.202 222.12 302.27V247.44C222.12 243.508 218.932 240.32 215 240.32H160.17C156.238 240.32 153.05 243.508 153.05 247.44V302.27C153.05 306.202 156.238 309.39 160.17 309.39Z" fill="#DCFDF7"/>
    <path d="M239.12 393.85H293.95C297.883 393.85 301.07 390.662 301.07 386.73V331.9C301.07 327.968 297.883 324.78 293.95 324.78H239.12C235.188 324.78 232 327.968 232 331.9V386.73C232 390.662 235.188 393.85 239.12 393.85Z" fill="#DCFDF7"/>
    <path d="M160.17 393.85H215C218.932 393.85 222.12 390.662 222.12 386.73V331.9C222.12 327.968 218.932 324.78 215 324.78H160.17C156.238 324.78 153.05 327.968 153.05 331.9V386.73C153.05 390.662 156.238 393.85 160.17 393.85Z" fill="#DCFDF7"/>
    <path d="M271.58 177.81C272.14 175.05 272.51 173.27 272.51 173.27L271.59 173.45L270 181.13L271.45 181.73C271.45 181.73 271 180.57 271.58 177.81Z" fill="#7D9745"/>
    <path d="M271.11 173.54C270.544 174.708 270.176 175.961 270.02 177.25C269.878 178.464 269.373 179.608 268.57 180.53L270.01 181.13L271.59 173.45L271.11 173.54Z" fill="#7D9745"/>
    <path d="M270.13 180.57L266.57 178.92C265.082 178.237 263.86 177.085 263.09 175.64C262.539 174.605 261.751 173.714 260.79 173.04L260.58 172.89C261.554 173.764 262.249 174.904 262.58 176.17C263.01 178.17 263.37 180.65 267.45 181.55C271.53 182.45 270.13 180.57 270.13 180.57Z" fill="#74733D"/>
    <path d="M269.8 182.19C268.444 181.57 267.385 180.442 266.85 179.05C266.138 177.606 265.843 175.992 266 174.39L266.39 175.47C266.955 177.017 267.833 178.43 268.97 179.62C269.31 179.946 269.564 180.352 269.709 180.8C269.854 181.249 269.885 181.726 269.8 182.19Z" fill="#74733D"/>
    <path d="M270.47 180.64L274.39 180.53C276.026 180.48 277.601 179.901 278.88 178.88C279.803 178.149 280.88 177.639 282.03 177.39L282.28 177.34C281.04 177.763 279.951 178.542 279.15 179.58C277.98 181.21 276.66 183.38 272.56 182.58C268.46 181.78 270.47 180.64 270.47 180.64Z" fill="#74733D"/>
    <path d="M270.14 182.26C271.628 182.225 273.042 181.607 274.08 180.54C275.303 179.493 276.211 178.125 276.7 176.59L275.92 177.43C274.788 178.622 273.427 179.575 271.92 180.23C271.476 180.391 271.08 180.661 270.769 181.016C270.458 181.371 270.241 181.799 270.14 182.26Z" fill="#74733D"/>
    <path d="M263.53 212.76L260.18 212.07C251.06 210.2 245.31 200.68 247.34 190.81L247.4 190.49C248.95 182.95 256.09 177.11 262.82 179.43C264.62 180.05 269.93 181.55 269.93 181.55L263.53 212.76Z" fill="#EC3833"/>
    <path d="M263.53 212.76L266.87 213.44C276 215.31 285 208.83 287.05 199L287.11 198.68C288.66 191.14 284.4 182.95 277.3 182.44C275.4 182.3 269.93 181.59 269.93 181.59L263.53 212.76Z" fill="#EC3833"/>
    <path d="M180.97 186.67L179.69 185.62L177.72 181.35L178.31 181.08L180.98 186.65L180.97 186.67Z" fill="#5DB040"/>
    <path d="M178.31 181.08L179.02 180.75L181 185.05L180.98 186.65L178.31 181.08Z" fill="#5DB040"/>
    <path d="M182.51 180.36L182.4 186.59L181.81 186.8L181.37 187H181.28L181.18 187.05L181 186.66V185.06L181.09 180.35L182.51 180.36Z" fill="#458430"/>
    <path d="M176 182.63L179.65 185.63L180.93 186.63L181.11 187.02L180.91 187.12L180.48 187.36L179.98 187.68L175.08 183.68L176 182.63Z" fill="#458430"/>
    <path d="M181.28 187H181.37L181.81 186.8L182.4 186.59C185.19 185.73 187.91 186.67 188.87 189.59C188.87 189.59 189.13 190.36 189.54 191.59C190.05 193.12 190.79 195.38 191.62 197.89C192.45 200.4 193.4 203.31 194.25 205.89C195.1 208.47 195.83 210.68 196.31 212.16C196.408 212.448 196.484 212.742 196.54 213.04C196.9 214.74 197.12 217.56 196.08 218.04H196.03L193.37 212.46L189.31 203.98L181.79 188.24V188.18L181.24 187.04L181.28 187Z" fill="#EE6837"/>
    <path d="M180 187.75L180.5 187.43L180.93 187.19L181.13 187.09L181.68 188.23V188.29L189.2 204.03L193.26 212.51L195.92 218.09C194.66 218.67 191.92 215.75 191.2 214.58L178.4 194.65C176.75 192.09 177.68 189.41 180 187.75Z" fill="#EE6837"/>
    <path d="M184.36 190.58L186.22 189.69C186.22 189.69 186.36 189.69 186.42 189.85L184.37 190.85C184.31 190.72 184.31 190.61 184.36 190.58Z" fill="#F9D5B1"/>
    <path d="M186.91 192.94L188.49 192.18C188.49 192.18 188.61 192.18 188.67 192.35L186.93 193.19C186.88 193.07 186.87 193 186.91 192.94Z" fill="#F9D5B1"/>
    <path d="M188.79 199.36L190.27 198.64C190.27 198.64 190.39 198.7 190.45 198.81L188.81 199.6C188.76 199.49 188.75 199.38 188.79 199.36Z" fill="#F9D5B1"/>
    <path d="M183.48 198.54L185.48 197.54C185.54 197.54 185.63 197.54 185.69 197.69L183.43 198.79C183.42 198.69 183.42 198.57 183.48 198.54Z" fill="#F9D5B1"/>
    <path d="M180.68 194.58L182.05 193.92C182.05 193.92 182.17 193.98 182.23 194.1L180.71 194.83C180.65 194.71 180.64 194.6 180.68 194.58Z" fill="#F9D5B1"/>
    <path d="M180.19 191.46L181.94 190.61C181.99 190.61 182.07 190.61 182.13 190.78L180.2 191.71C180.15 191.59 180.14 191.48 180.19 191.46Z" fill="#F9D5B1"/>
    <path d="M190.77 205.48L192.56 204.62C192.61 204.62 192.69 204.62 192.74 204.77L190.74 205.72C190.72 205.61 190.72 205.51 190.77 205.48Z" fill="#F9D5B1"/>
    <path d="M185.82 204L187.6 203.13C187.66 203.13 187.74 203.18 187.79 203.29L185.79 204.24C185.76 204.17 185.76 204.06 185.82 204Z" fill="#F9D5B1"/>
    <path d="M189.29 209.49L190.46 208.93C190.46 208.93 190.56 208.93 190.61 209.07L189.31 209.7C189.26 209.6 189.25 209.51 189.29 209.49Z" fill="#F9D5B1"/>
    <path d="M193.87 211.39L194.69 210.99C194.69 210.99 194.76 210.99 194.8 211.12L193.9 211.55C193.86 211.47 193.85 211.4 193.87 211.39Z" fill="#F9D5B1"/>
    <path d="M192.46 214.32L193.2 213.96C193.2 213.96 193.27 213.96 193.3 214.07L192.48 214.47C192.45 214.39 192.44 214.33 192.46 214.32Z" fill="#F9D5B1"/>
    <path d="M192.48 214.47L193.3 214.07C193.3 214.14 193.3 214.21 193.3 214.22L192.56 214.58C192.56 214.58 192.52 214.54 192.48 214.47Z" fill="#F0853B"/>
    <path d="M195.63 215.23L196.16 214.98C196.16 214.98 196.22 215.04 196.27 215.14L195.69 215.42C195.653 215.363 195.633 215.298 195.63 215.23Z" fill="#F9D5B1"/>
    <path d="M195.69 215.42L196.27 215.14C196.27 215.23 196.34 215.32 196.32 215.33L195.8 215.58C195.8 215.58 195.73 215.52 195.69 215.42Z" fill="#F0853B"/>
    <path d="M188.48 176.07H188.57L189.04 175.94C189.25 175.94 189.45 175.85 189.66 175.82C192.54 175.38 195.09 176.69 195.66 179.73L196.03 181.84C196.31 183.43 196.72 185.77 197.17 188.37C197.62 190.97 198.17 193.99 198.62 196.65C199.07 199.31 199.48 201.65 199.75 203.15C199.75 203.39 199.82 203.7 199.85 204.06C199.95 205.79 199.77 208.61 198.66 208.96H198.61L196.72 203L193.94 194L188.78 177.34V177.28L188.41 176.08L188.48 176.07Z" fill="#F0824D"/>
    <path d="M187.14 176.6C187.31 176.51 187.49 176.43 187.68 176.35L188.14 176.18L188.35 176.11L188.72 177.31V177.37L193.88 194.03L196.66 203.03L198.49 208.94C197.16 209.33 194.91 206.05 194.33 204.78L184.47 183.17C183.26 180.41 184.58 177.89 187.14 176.6Z" fill="#F0824D"/>
    <path d="M188.23 175.66L187.11 174.44L185.78 169.93L186.41 169.74L188.23 175.64V175.66Z" fill="#5DB040"/>
    <path d="M186.41 169.74L187.15 169.52L188.49 174.06L188.23 175.64L186.41 169.74Z" fill="#5DB040"/>
    <path d="M190.67 169.64L189.67 175.79C189.46 175.79 189.26 175.86 189.05 175.91L188.58 176.04H188.49H188.39L188.26 175.63V175.58L188.52 174L189.29 169.35L190.67 169.64Z" fill="#458430"/>
    <path d="M183.93 171L187.11 174.49L188.23 175.71V175.76L188.36 176.17L188.15 176.24L187.69 176.41C187.5 176.49 187.32 176.57 187.15 176.66L182.88 171.97L183.93 171Z" fill="#458430"/>
    <path d="M191 180L193 179.39C193.06 179.39 193.14 179.45 193.17 179.58L191 180.26C190.94 180.16 191 180 191 180Z" fill="#F9D5B1"/>
    <path d="M193.2 182.72L194.86 182.2C194.91 182.2 194.98 182.27 195.02 182.4L193.18 182.97C193.14 182.85 193.15 182.74 193.2 182.72Z" fill="#F9D5B1"/>
    <path d="M194.12 189.35L195.69 188.85C195.74 188.85 195.81 188.93 195.84 189.05L194.11 189.59C194.07 189.47 194.08 189.36 194.12 189.35Z" fill="#F9D5B1"/>
    <path d="M189 187.77L191.17 187.09C191.23 187.09 191.32 187.16 191.35 187.28L189 188C188.91 187.91 188.93 187.79 189 187.77Z" fill="#F9D5B1"/>
    <path d="M186.79 183.45L188.25 182.99C188.25 182.99 188.35 183.07 188.39 183.19L186.78 183.7C186.75 183.57 186.75 183.46 186.79 183.45Z" fill="#F9D5B1"/>
    <path d="M186.76 180.28L188.61 179.7C188.67 179.7 188.74 179.77 188.78 179.89L186.78 180.54C186.7 180.41 186.71 180.3 186.76 180.28Z" fill="#F9D5B1"/>
    <path d="M195.19 195.69L197.09 195.1C197.14 195.1 197.22 195.16 197.25 195.28L195.16 195.93C195.12 195.82 195.14 195.71 195.19 195.69Z" fill="#F9D5B1"/>
    <path d="M190.5 193.55L192.4 192.95C192.45 192.95 192.53 193.01 192.56 193.13L190.47 193.79C190.43 193.67 190.45 193.56 190.5 193.55Z" fill="#F9D5B1"/>
    <path d="M193.15 199.45L194.39 199.06C194.39 199.06 194.48 199.12 194.51 199.23L193.14 199.66C193.11 199.55 193.11 199.46 193.15 199.45Z" fill="#F9D5B1"/>
    <path d="M197.41 202L198.27 201.73C198.27 201.73 198.34 201.78 198.36 201.87L197.41 202.17C197.38 202.07 197.38 202 197.41 202Z" fill="#F9D5B1"/>
    <path d="M195.58 204.68L196.37 204.43C196.37 204.43 196.43 204.43 196.45 204.56L195.59 204.83C195.56 204.76 195.56 204.69 195.58 204.68Z" fill="#F9D5B1"/>
    <path d="M195.59 204.83L196.45 204.56C196.45 204.64 196.45 204.7 196.45 204.71L195.66 204.96C195.66 204.96 195.61 204.91 195.59 204.83Z" fill="#F0853B"/>
    <path d="M198.59 206.05L199.15 205.87C199.192 205.923 199.222 205.985 199.24 206.05L198.62 206.24C198.596 206.18 198.586 206.115 198.59 206.05Z" fill="#F9D5B1"/>
    <path d="M198.62 206.24L199.24 206.05C199.24 206.15 199.24 206.23 199.24 206.24L198.69 206.41C198.69 206.41 198.65 206.34 198.62 206.24Z" fill="#F0853B"/>
    <path d="M251 249.9C254.25 249.01 257.76 251.39 259 255.28L269.13 287.12C270.71 292.2 268.49 297.41 264.25 298.56H264.17L250.97 249.89L251 249.9Z" fill="#458430"/>
    <path d="M246.69 258.6C245.77 254.6 247.6 250.81 250.85 249.93H250.91L264.11 298.6H264.04C259.8 299.75 255.25 296.38 254.04 291.2L246.69 258.6Z" fill="#458430"/>
    <path d="M264.11 298.58C262.49 299.02 259.19 293.83 258.69 291.25L250.52 260.87C249.8 258.55 248.97 251.13 250.91 249.87L264.11 298.58Z" fill="#458430"/>
    <path d="M250.91 249.91C250.73 249.971 250.568 250.078 250.44 250.22V250.11L250.91 249.91Z" fill="#62A42A"/>
    <path d="M257.8 282.35C257.637 282.395 257.499 282.501 257.415 282.647C257.33 282.794 257.307 282.967 257.35 283.13L257.47 283.55C257.491 283.63 257.528 283.705 257.578 283.771C257.628 283.837 257.69 283.893 257.762 283.935C257.833 283.976 257.912 284.004 257.994 284.015C258.077 284.026 258.16 284.021 258.24 284C258.32 283.979 258.396 283.943 258.462 283.892C258.528 283.842 258.583 283.78 258.625 283.708C258.667 283.637 258.694 283.558 258.705 283.476C258.716 283.394 258.711 283.31 258.69 283.23L258.57 282.8C258.549 282.72 258.513 282.645 258.463 282.579C258.413 282.513 258.35 282.457 258.278 282.415C258.207 282.374 258.128 282.346 258.046 282.335C257.964 282.324 257.88 282.329 257.8 282.35Z" fill="#79B831"/>
    <path d="M255.59 288.28C255.428 288.325 255.289 288.431 255.205 288.577C255.121 288.724 255.097 288.897 255.14 289.06L255.26 289.48C255.281 289.56 255.318 289.635 255.368 289.701C255.418 289.767 255.48 289.823 255.552 289.865C255.623 289.906 255.702 289.934 255.784 289.945C255.867 289.956 255.95 289.951 256.03 289.93C256.11 289.909 256.186 289.873 256.252 289.822C256.318 289.772 256.373 289.71 256.415 289.638C256.457 289.567 256.484 289.488 256.495 289.406C256.506 289.324 256.501 289.24 256.48 289.16L256.36 288.73C256.339 288.65 256.303 288.575 256.253 288.509C256.203 288.443 256.14 288.387 256.068 288.345C255.997 288.304 255.918 288.276 255.836 288.265C255.754 288.254 255.67 288.259 255.59 288.28Z" fill="#79B831"/>
    <path d="M253.66 281.35C253.499 281.397 253.363 281.504 253.281 281.65C253.199 281.796 253.177 281.968 253.22 282.13L253.33 282.55C253.374 282.713 253.481 282.851 253.627 282.935C253.773 283.02 253.947 283.043 254.11 283C254.19 282.978 254.265 282.94 254.331 282.889C254.397 282.838 254.452 282.774 254.493 282.702C254.534 282.629 254.56 282.549 254.57 282.467C254.579 282.384 254.573 282.3 254.55 282.22L254.44 281.8C254.395 281.637 254.289 281.499 254.142 281.415C253.996 281.33 253.823 281.307 253.66 281.35Z" fill="#79B831"/>
    <path d="M255.23 275.37C255.149 275.391 255.074 275.427 255.008 275.478C254.942 275.528 254.887 275.59 254.845 275.662C254.803 275.733 254.776 275.812 254.765 275.894C254.753 275.976 254.758 276.06 254.78 276.14L254.9 276.57C254.944 276.73 255.05 276.866 255.194 276.948C255.338 277.031 255.509 277.053 255.67 277.01C255.83 276.963 255.966 276.856 256.049 276.71C256.131 276.564 256.153 276.392 256.11 276.23L256 275.81C255.953 275.651 255.847 275.517 255.703 275.435C255.56 275.353 255.39 275.33 255.23 275.37Z" fill="#79B831"/>
    <path d="M252.06 273.56C251.897 273.605 251.759 273.711 251.675 273.858C251.59 274.004 251.567 274.177 251.61 274.34L251.73 274.76C251.751 274.84 251.787 274.915 251.838 274.981C251.888 275.046 251.951 275.101 252.022 275.142C252.094 275.183 252.173 275.209 252.255 275.219C252.337 275.229 252.42 275.223 252.5 275.2C252.661 275.153 252.797 275.046 252.879 274.9C252.961 274.754 252.983 274.582 252.94 274.42L252.83 274C252.785 273.84 252.68 273.704 252.535 273.622C252.391 273.539 252.22 273.517 252.06 273.56Z" fill="#79B831"/>
    <path d="M249.727 266.246L249.707 266.251C249.377 266.34 249.18 266.68 249.269 267.011L249.383 267.436C249.471 267.766 249.811 267.963 250.142 267.874L250.161 267.869C250.492 267.78 250.688 267.44 250.6 267.11L250.486 266.685C250.397 266.354 250.057 266.158 249.727 266.246Z" fill="#79B831"/>
    <path d="M262.86 285.71C262.699 285.757 262.563 285.864 262.481 286.01C262.399 286.156 262.377 286.328 262.42 286.49L262.53 286.91C262.575 287.073 262.682 287.211 262.828 287.295C262.974 287.38 263.147 287.403 263.31 287.36C263.39 287.339 263.466 287.302 263.532 287.252C263.598 287.202 263.653 287.14 263.695 287.068C263.737 286.997 263.764 286.918 263.775 286.836C263.786 286.754 263.781 286.67 263.76 286.59L263.64 286.16C263.619 286.079 263.582 286.002 263.532 285.936C263.481 285.869 263.417 285.813 263.345 285.771C263.272 285.729 263.192 285.702 263.109 285.692C263.025 285.681 262.941 285.687 262.86 285.71Z" fill="#79B831"/>
    <path d="M265.28 279.88C265.119 279.927 264.983 280.034 264.901 280.18C264.819 280.326 264.797 280.498 264.84 280.66L264.95 281.08C264.995 281.243 265.102 281.381 265.248 281.465C265.394 281.55 265.567 281.573 265.73 281.53C265.811 281.51 265.887 281.475 265.953 281.425C266.019 281.375 266.075 281.312 266.116 281.24C266.157 281.168 266.183 281.088 266.193 281.005C266.202 280.923 266.194 280.839 266.17 280.76L266.06 280.34C266.039 280.259 266.002 280.182 265.952 280.115C265.901 280.048 265.838 279.991 265.765 279.948C265.693 279.906 265.613 279.878 265.53 279.866C265.446 279.854 265.362 279.859 265.28 279.88Z" fill="#79B831"/>
    <path d="M267.277 286.868L267.257 286.874C266.922 286.965 266.723 287.311 266.814 287.647L266.93 288.071C267.021 288.407 267.367 288.605 267.703 288.514L267.722 288.509C268.058 288.418 268.256 288.072 268.165 287.736L268.05 287.311C267.959 286.976 267.613 286.777 267.277 286.868Z" fill="#79B831"/>
    <path d="M260.153 264.621L260.133 264.626C259.798 264.717 259.599 265.063 259.69 265.399L259.806 265.824C259.897 266.16 260.243 266.358 260.579 266.267L260.598 266.262C260.934 266.17 261.132 265.824 261.041 265.488L260.926 265.064C260.835 264.728 260.488 264.53 260.153 264.621Z" fill="#79B831"/>
    <path d="M258.12 270.343L258.101 270.349C257.765 270.44 257.567 270.786 257.658 271.122L257.773 271.546C257.864 271.882 258.211 272.08 258.546 271.989L258.566 271.984C258.901 271.893 259.1 271.547 259.009 271.211L258.893 270.786C258.802 270.451 258.456 270.252 258.12 270.343Z" fill="#79B831"/>
    <path d="M260.719 277.251L260.7 277.257C260.364 277.348 260.166 277.694 260.257 278.03L260.372 278.454C260.463 278.79 260.809 278.988 261.145 278.897L261.164 278.892C261.5 278.801 261.698 278.455 261.607 278.119L261.492 277.695C261.401 277.359 261.055 277.16 260.719 277.251Z" fill="#79B831"/>
    <path d="M262.328 272.196L262.308 272.202C261.972 272.293 261.774 272.639 261.865 272.975L261.98 273.399C262.071 273.735 262.418 273.934 262.753 273.842L262.773 273.837C263.108 273.746 263.307 273.4 263.216 273.064L263.1 272.64C263.009 272.304 262.663 272.105 262.328 272.196Z" fill="#79B831"/>
    <path d="M253 269.25C252.92 269.272 252.845 269.31 252.779 269.361C252.713 269.412 252.658 269.476 252.617 269.548C252.576 269.621 252.55 269.701 252.541 269.783C252.531 269.866 252.537 269.95 252.56 270.03L252.67 270.45C252.691 270.531 252.728 270.607 252.779 270.674C252.83 270.74 252.893 270.795 252.966 270.836C253.039 270.878 253.12 270.904 253.203 270.913C253.286 270.922 253.37 270.914 253.45 270.89C253.53 270.869 253.605 270.833 253.671 270.782C253.736 270.732 253.791 270.669 253.832 270.598C253.873 270.526 253.899 270.447 253.909 270.365C253.919 270.283 253.913 270.199 253.89 270.12L253.78 269.69C253.758 269.61 253.721 269.534 253.669 269.469C253.618 269.403 253.554 269.348 253.482 269.307C253.409 269.266 253.329 269.24 253.247 269.23C253.164 269.221 253.08 269.227 253 269.25Z" fill="#79B831"/>
    <path d="M256.25 262C256.089 262.047 255.953 262.154 255.871 262.3C255.788 262.446 255.767 262.618 255.81 262.78L255.92 263.2C255.964 263.363 256.071 263.501 256.217 263.585C256.363 263.67 256.537 263.693 256.7 263.65C256.78 263.629 256.855 263.593 256.921 263.542C256.987 263.492 257.043 263.43 257.084 263.358C257.126 263.287 257.154 263.208 257.165 263.126C257.176 263.044 257.171 262.96 257.15 262.88L257.03 262.46C257.009 262.379 256.972 262.302 256.921 262.235C256.871 262.168 256.808 262.111 256.735 262.068C256.663 262.026 256.583 261.998 256.499 261.986C256.416 261.974 256.331 261.979 256.25 262Z" fill="#79B831"/>
    <path d="M252.252 260.486L252.243 260.488C251.987 260.558 251.836 260.821 251.905 261.077L251.994 261.405C252.063 261.661 252.327 261.812 252.583 261.743L252.592 261.74C252.848 261.671 252.999 261.407 252.93 261.151L252.841 260.823C252.772 260.567 252.508 260.416 252.252 260.486Z" fill="#79B831"/>
    <path d="M259.5 290C259.419 290.021 259.343 290.058 259.276 290.109C259.21 290.159 259.154 290.223 259.113 290.296C259.072 290.369 259.046 290.449 259.037 290.533C259.028 290.616 259.035 290.7 259.06 290.78L259.17 291.2C259.19 291.281 259.227 291.357 259.278 291.424C259.329 291.49 259.393 291.545 259.466 291.586C259.539 291.628 259.619 291.654 259.702 291.663C259.785 291.672 259.87 291.664 259.95 291.64C260.03 291.619 260.105 291.583 260.17 291.532C260.236 291.482 260.291 291.419 260.332 291.348C260.373 291.276 260.399 291.197 260.409 291.115C260.419 291.033 260.412 290.949 260.39 290.87L260.28 290.44C260.233 290.279 260.125 290.143 259.979 290.061C259.834 289.979 259.661 289.957 259.5 290Z" fill="#79B831"/>
    <path d="M279.59 259.78C282.87 259.05 285.53 261 285.59 264.2L286.59 290.37C286.72 294.55 283.25 298.83 278.97 299.78H278.89L279.5 259.78H279.59Z" fill="#1C4A45"/>
    <path d="M273.26 267C273.436 265.316 274.126 263.727 275.237 262.45C276.349 261.172 277.826 260.268 279.47 259.86H279.53L278.92 299.86H278.84C274.56 300.81 271.2 298.05 271.45 293.79L273.26 267Z" fill="#1C4A45"/>
    <path d="M279.53 259.8C279.342 259.848 279.165 259.933 279.01 260.05V260L279.53 259.8Z" fill="#62A42A"/>
    <path d="M277.33 286.46C277.171 286.487 277.025 286.564 276.912 286.679C276.799 286.794 276.725 286.941 276.7 287.1V287.44C276.7 287.72 276.97 287.88 277.31 287.81C277.467 287.781 277.611 287.704 277.722 287.589C277.833 287.474 277.906 287.328 277.93 287.17V286.82C277.94 286.55 277.67 286.39 277.33 286.46Z" fill="#0F2C2A"/>
    <path d="M273.68 291.35C273.521 291.377 273.375 291.454 273.262 291.569C273.149 291.683 273.075 291.831 273.05 291.99V292.34C273.05 292.61 273.31 292.78 273.65 292.7C273.807 292.672 273.952 292.595 274.063 292.48C274.175 292.365 274.247 292.218 274.27 292.06V291.71C274.29 291.43 274 291.27 273.68 291.35Z" fill="#0F2C2A"/>
    <path d="M273.72 285.65C273.563 285.679 273.419 285.757 273.308 285.871C273.197 285.986 273.124 286.132 273.1 286.29V286.64C273.1 286.92 273.37 287.08 273.71 287.01C273.868 286.983 274.015 286.906 274.128 286.791C274.241 286.677 274.315 286.529 274.34 286.37V286C274.33 285.74 274.06 285.58 273.72 285.65Z" fill="#0F2C2A"/>
    <path d="M276.79 280.73C276.633 280.759 276.489 280.837 276.378 280.951C276.267 281.066 276.194 281.212 276.17 281.37V281.72C276.17 282 276.44 282.16 276.78 282.09C276.937 282.062 277.082 281.985 277.194 281.87C277.305 281.755 277.377 281.608 277.4 281.45V281.11C277.4 280.82 277.13 280.66 276.79 280.73Z" fill="#0F2C2A"/>
    <path d="M274.3 279.24C274.143 279.267 273.997 279.342 273.885 279.455C273.772 279.568 273.697 279.713 273.67 279.87V280.22C273.67 280.5 273.94 280.66 274.28 280.59C274.438 280.564 274.584 280.487 274.695 280.372C274.807 280.257 274.879 280.109 274.9 279.95V279.61C274.91 279.33 274.64 279.17 274.3 279.24Z" fill="#0F2C2A"/>
    <path d="M274.07 273.22C273.916 273.249 273.774 273.325 273.665 273.438C273.556 273.551 273.484 273.695 273.46 273.85V274.2C273.46 274.47 273.73 274.63 274.06 274.56C274.216 274.534 274.359 274.458 274.468 274.345C274.578 274.232 274.649 274.086 274.67 273.93V273.59C274.67 273.31 274.4 273.15 274.07 273.22Z" fill="#0F2C2A"/>
    <path d="M281.17 289.22C281.012 289.248 280.868 289.325 280.756 289.44C280.645 289.555 280.573 289.702 280.55 289.86V290.21C280.55 290.48 280.82 290.65 281.16 290.57C281.318 290.541 281.463 290.464 281.576 290.35C281.689 290.235 281.764 290.089 281.79 289.93V289.58C281.79 289.3 281.52 289.14 281.17 289.22Z" fill="#0F2C2A"/>
    <path d="M285 284.42C284.842 284.448 284.698 284.525 284.586 284.64C284.475 284.755 284.403 284.902 284.38 285.06V285.41C284.38 285.69 284.65 285.85 284.99 285.77C285.149 285.743 285.295 285.666 285.408 285.551C285.521 285.437 285.595 285.289 285.62 285.13V284.78C285.62 284.51 285.34 284.34 285 284.42Z" fill="#0F2C2A"/>
    <path d="M285 290.16C284.842 290.188 284.698 290.265 284.586 290.38C284.475 290.495 284.403 290.642 284.38 290.8V291.14C284.38 291.42 284.64 291.58 284.98 291.51C285.137 291.481 285.281 291.403 285.392 291.289C285.503 291.174 285.576 291.028 285.6 290.87V290.52C285.62 290.25 285.35 290.09 285 290.16Z" fill="#0F2C2A"/>
    <path d="M284.25 271.89C284.093 271.919 283.949 271.997 283.838 272.111C283.727 272.226 283.654 272.372 283.63 272.53V272.88C283.63 273.16 283.9 273.32 284.24 273.24C284.399 273.213 284.545 273.136 284.658 273.021C284.771 272.907 284.845 272.759 284.87 272.6V272.25C284.87 272 284.59 271.81 284.25 271.89Z" fill="#0F2C2A"/>
    <path d="M280.83 276.59C280.672 276.619 280.527 276.696 280.414 276.81C280.301 276.925 280.226 277.071 280.2 277.23V277.58C280.2 277.86 280.47 278.02 280.81 277.94C280.968 277.914 281.114 277.837 281.226 277.722C281.337 277.607 281.409 277.459 281.43 277.3V277C281.44 276.68 281.17 276.51 280.83 276.59Z" fill="#0F2C2A"/>
    <path d="M281.42 282.27C281.261 282.297 281.115 282.374 281.002 282.489C280.889 282.603 280.815 282.751 280.79 282.91V283.25C280.79 283.53 281.06 283.69 281.4 283.62C281.551 283.588 281.688 283.512 281.795 283.402C281.902 283.291 281.973 283.151 282 283V282.65C282 282.36 281.76 282.2 281.42 282.27Z" fill="#0F2C2A"/>
    <path d="M284.28 278.1C284.123 278.126 283.979 278.201 283.867 278.314C283.756 278.427 283.683 278.573 283.66 278.73V279.08C283.66 279.36 283.93 279.52 284.27 279.45C284.429 279.423 284.575 279.346 284.688 279.231C284.801 279.117 284.875 278.969 284.9 278.81V278.47C284.9 278.19 284.62 278 284.28 278.1Z" fill="#0F2C2A"/>
    <path d="M276.34 275.7C276.182 275.728 276.037 275.805 275.926 275.92C275.815 276.035 275.743 276.182 275.72 276.34V276.69C275.72 276.96 275.99 277.13 276.33 277.05C276.488 277.021 276.633 276.944 276.746 276.83C276.859 276.715 276.933 276.569 276.96 276.41V276.06C277 275.78 276.68 275.62 276.34 275.7Z" fill="#0F2C2A"/>
    <path d="M281.31 269.73C281.153 269.758 281.008 269.835 280.897 269.95C280.785 270.065 280.713 270.212 280.69 270.37V270.72C280.69 271 280.96 271.16 281.3 271.08C281.459 271.051 281.604 270.974 281.717 270.86C281.83 270.745 281.904 270.599 281.93 270.44V270.09C281.93 269.82 281.65 269.65 281.31 269.73Z" fill="#0F2C2A"/>
    <path d="M278 268.5C277.881 268.523 277.772 268.583 277.688 268.671C277.604 268.758 277.549 268.87 277.53 268.99V269.26C277.53 269.47 277.73 269.59 277.99 269.53C278.11 269.508 278.22 269.449 278.304 269.361C278.389 269.273 278.443 269.161 278.46 269.04V268.78C278.43 268.57 278.22 268.44 278 268.5Z" fill="#0F2C2A"/>
    <path d="M276.89 292.73C276.732 292.758 276.587 292.835 276.476 292.95C276.365 293.065 276.292 293.212 276.27 293.37V293.72C276.27 293.99 276.54 294.16 276.88 294.08C277.038 294.051 277.183 293.974 277.296 293.86C277.409 293.745 277.483 293.599 277.51 293.44V293.09C277.51 292.81 277.24 292.65 276.89 292.73Z" fill="#0F2C2A"/>
    <path fill-rule="evenodd" clip-rule="evenodd" d="M253.39 379.41H281.83L281.91 379.14C285.39 367.047 285.241 354.199 281.48 342.19L281.35 341.79H253.35C249.59 354.048 249.59 367.152 253.35 379.41H253.39Z" fill="#5DB040"/>
    <path d="M277.29 354.19H257.08C254.805 354.19 252.96 356.035 252.96 358.31V362.9C252.96 365.175 254.805 367.02 257.08 367.02H277.29C279.565 367.02 281.41 365.175 281.41 362.9V358.31C281.41 356.035 279.565 354.19 277.29 354.19Z" fill="#0F2C2A"/>
    <path d="M272.443 362.009C272.739 362.009 272.994 361.939 273.206 361.8C273.414 361.661 273.561 361.47 273.646 361.228L273.283 361.019C273.159 361.404 272.876 361.596 272.434 361.596C272.216 361.596 272.049 361.552 271.934 361.464C271.819 361.373 271.761 361.254 271.761 361.105C271.761 360.954 271.819 360.84 271.934 360.765C272.049 360.689 272.241 360.609 272.511 360.524C272.644 360.482 272.745 360.448 272.815 360.424C272.885 360.397 272.972 360.358 273.078 360.306C273.181 360.252 273.259 360.197 273.31 360.143C273.361 360.085 273.408 360.011 273.451 359.92C273.49 359.829 273.51 359.726 273.51 359.611C273.51 359.336 273.413 359.118 273.219 358.957C273.025 358.794 272.789 358.712 272.511 358.712C272.259 358.712 272.041 358.776 271.857 358.903C271.669 359.03 271.528 359.198 271.434 359.407L271.789 359.611C271.925 359.284 272.166 359.121 272.511 359.121C272.683 359.121 272.823 359.163 272.929 359.248C273.035 359.333 273.087 359.448 273.087 359.593C273.087 359.732 273.038 359.838 272.938 359.911C272.838 359.984 272.665 360.059 272.42 360.138C272.332 360.165 272.27 360.185 272.234 360.197C272.197 360.209 272.141 360.23 272.066 360.261C271.987 360.291 271.929 360.315 271.893 360.333C271.857 360.351 271.808 360.377 271.748 360.41C271.684 360.444 271.637 360.476 271.607 360.506C271.577 360.536 271.542 360.574 271.503 360.619C271.46 360.662 271.43 360.706 271.412 360.751C271.394 360.797 271.378 360.849 271.366 360.91C271.351 360.968 271.344 361.03 271.344 361.096C271.344 361.375 271.445 361.597 271.648 361.764C271.851 361.927 272.116 362.009 272.443 362.009ZM270.457 361.569H269.049V361.95H270.859V358.919H269.071V359.3H270.457V360.231H269.179V360.608H270.457V361.569ZM268.161 361.569H266.753V361.95H268.563V358.919H266.775V359.3H268.161V360.231H266.883V360.608H268.161V361.569ZM265.085 358.919C264.672 358.919 264.33 359.066 264.059 359.361C263.785 359.652 263.648 360.01 263.648 360.435C263.648 360.859 263.785 361.218 264.059 361.513C264.33 361.804 264.672 361.95 265.085 361.95H266.267V358.919H265.085ZM265.085 361.569C264.776 361.569 264.524 361.461 264.327 361.244C264.131 361.028 264.033 360.758 264.033 360.435C264.033 360.111 264.131 359.841 264.327 359.625C264.524 359.408 264.776 359.3 265.085 359.3H265.864V361.569H265.085ZM262.291 362.006C262.573 362.006 262.816 361.94 263.018 361.807C263.217 361.674 263.357 361.492 263.438 361.262L263.092 361.062C262.973 361.429 262.703 361.612 262.282 361.612C262.074 361.612 261.915 361.57 261.806 361.487C261.696 361.4 261.641 361.286 261.641 361.145C261.641 361 261.696 360.892 261.806 360.82C261.915 360.748 262.099 360.671 262.356 360.59C262.483 360.55 262.579 360.518 262.646 360.495C262.712 360.469 262.796 360.432 262.897 360.383C262.995 360.331 263.069 360.279 263.118 360.227C263.167 360.172 263.211 360.101 263.252 360.015C263.289 359.928 263.308 359.83 263.308 359.72C263.308 359.457 263.216 359.25 263.031 359.097C262.846 358.941 262.621 358.863 262.356 358.863C262.116 358.863 261.908 358.923 261.732 359.045C261.553 359.166 261.419 359.326 261.329 359.525L261.667 359.72C261.797 359.408 262.026 359.252 262.356 359.252C262.52 359.252 262.653 359.293 262.754 359.374C262.855 359.454 262.905 359.564 262.905 359.703C262.905 359.836 262.858 359.937 262.763 360.006C262.667 360.075 262.503 360.147 262.269 360.222C262.185 360.248 262.126 360.267 262.091 360.279C262.057 360.29 262.003 360.31 261.931 360.339C261.856 360.368 261.801 360.391 261.767 360.409C261.732 360.426 261.686 360.45 261.628 360.482C261.567 360.514 261.523 360.544 261.494 360.573C261.465 360.602 261.432 360.638 261.394 360.681C261.354 360.722 261.325 360.764 261.308 360.807C261.29 360.85 261.276 360.901 261.264 360.958C261.25 361.013 261.243 361.072 261.243 361.136C261.243 361.402 261.339 361.614 261.533 361.772C261.726 361.928 261.979 362.006 262.291 362.006Z" fill="white"/>
    <path d="M252.88 343.29H282.11C282.414 343.29 282.66 343.044 282.66 342.74V341.02C282.66 340.716 282.414 340.47 282.11 340.47H252.88C252.576 340.47 252.33 340.716 252.33 341.02V342.74C252.33 343.044 252.576 343.29 252.88 343.29Z" fill="#416E6A"/>
    <path d="M280.93 343.29H281.54V340.47H280.93V343.29Z" fill="#1C4A45"/>
    <path d="M278.47 343.29H279.08V340.47H278.47V343.29Z" fill="#1C4A45"/>
    <path d="M276.03 343.29H276.64V340.47H276.03V343.29Z" fill="#1C4A45"/>
    <path d="M273.57 343.29H274.18V340.47H273.57V343.29Z" fill="#1C4A45"/>
    <path d="M271.12 343.29H271.73V340.47H271.12V343.29Z" fill="#1C4A45"/>
    <path d="M268.66 343.29H269.27V340.47H268.66V343.29Z" fill="#1C4A45"/>
    <path d="M266.22 343.29H266.83V340.47H266.22V343.29Z" fill="#1C4A45"/>
    <path d="M263.76 343.29H264.37V340.47H263.76V343.29Z" fill="#1C4A45"/>
    <path d="M261.31 343.29H261.92V340.47H261.31V343.29Z" fill="#1C4A45"/>
    <path d="M258.85 343.29H259.46V340.47H258.85V343.29Z" fill="#1C4A45"/>
    <path d="M256.41 343.29H257.02V340.47H256.41V343.29Z" fill="#1C4A45"/>
    <path d="M253.95 343.29H254.56V340.47H253.95V343.29Z" fill="#1C4A45"/>
    <path d="M252.88 380.33H282.11C282.414 380.33 282.66 380.084 282.66 379.78V378.06C282.66 377.756 282.414 377.51 282.11 377.51H252.88C252.576 377.51 252.33 377.756 252.33 378.06V379.78C252.33 380.084 252.576 380.33 252.88 380.33Z" fill="#416E6A"/>
    <path d="M280.67 380.33H281.28V377.51H280.67V380.33Z" fill="#1C4A45"/>
    <path d="M278.22 380.33H278.83V377.51H278.22V380.33Z" fill="#1C4A45"/>
    <path d="M275.77 380.33H276.38V377.51H275.77V380.33Z" fill="#1C4A45"/>
    <path d="M273.32 380.33H273.93V377.51H273.32V380.33Z" fill="#1C4A45"/>
    <path d="M270.86 380.33H271.47V377.51H270.86V380.33Z" fill="#1C4A45"/>
    <path d="M268.41 380.33H269.02V377.51H268.41V380.33Z" fill="#1C4A45"/>
    <path d="M265.96 380.33H266.57V377.51H265.96V380.33Z" fill="#1C4A45"/>
    <path d="M263.51 380.33H264.12V377.51H263.51V380.33Z" fill="#1C4A45"/>
    <path d="M261.05 380.33H261.66V377.51H261.05V380.33Z" fill="#1C4A45"/>
    <path d="M258.6 380.33H259.21V377.51H258.6V380.33Z" fill="#1C4A45"/>
    <path d="M256.15 380.33H256.76V377.51H256.15V380.33Z" fill="#1C4A45"/>
    <path d="M253.7 380.33H254.31V377.51H253.7V380.33Z" fill="#1C4A45"/>
    <path d="M266.82 357.45C270.023 357.45 272.62 354.853 272.62 351.65C272.62 348.447 270.023 345.85 266.82 345.85C263.616 345.85 261.02 348.447 261.02 351.65C261.02 354.853 263.616 357.45 266.82 357.45Z" fill="white"/>
    <path d="M266.93 355.05V355.14H267C267.5 355.14 271.06 354.76 270.8 349.97C266.46 350.49 266.92 354.29 266.93 355.05Z" fill="#458430"/>
    <path d="M266.93 355.05V355.14H267L267.09 355.05L267.45 354.68L267.5 354.62L267.59 354.51V354.45L267.69 354.33L267.75 354.25L267.85 354.13L267.9 354.06L267.99 353.93L268.28 353.51V353.45V353.4L268.35 353.3V353.24L268.44 353.1L268.69 352.72L268.91 352.37L268.96 352.29L269.06 352.14L269.11 352.07C269.17 351.97 269.22 351.88 269.27 351.81L269.49 351.45C269.43 351.52 269.35 351.64 269.24 351.79L269.06 352.04L268.86 352.34L268.74 352.5L268.58 352.75L268.37 353.05L268.24 353.25L268.17 353.35L268.1 353.46L268.04 353.54L267.87 353.78L267.8 353.88L267.71 354.01V354.07L267.62 354.2L267.53 354.32L267.44 354.43V354.49V354.54L267.34 354.65L267.29 354.7L267 355L266.93 355.05Z" fill="#458430"/>
    <path d="M268.26 352.36C268.25 352.426 268.25 352.494 268.26 352.56V353V353.26C268.26 353.26 268.26 353.34 268.26 353.37V353.47C268.265 353.496 268.265 353.524 268.26 353.55V353.61C268.26 353.61 268.26 353.66 268.26 353.67C268.26 353.68 268.26 353.67 268.31 353.67C268.312 353.643 268.312 353.617 268.31 353.59C268.309 353.573 268.309 353.557 268.31 353.54C268.315 353.5 268.315 353.46 268.31 353.42C268.317 353.33 268.317 353.24 268.31 353.15C268.32 353.06 268.32 352.97 268.31 352.88C268.31 352.88 268.31 352.8 268.31 352.76V352.66C268.31 352.43 268.28 352.36 268.26 352.36Z" fill="#458430"/>
    <path d="M268.94 351.19C268.936 351.243 268.936 351.297 268.94 351.35V351.44V352V352.1C268.945 352.143 268.945 352.187 268.94 352.23V352.3C268.936 352.316 268.936 352.334 268.94 352.35V352.41V352.5C268.94 352.5 268.94 352.55 268.94 352.57V352.51C268.942 352.483 268.942 352.457 268.94 352.43V352.37C268.94 352.37 268.94 352.37 268.94 352.31V352.24C268.94 352.24 268.94 352.15 268.94 352.1V352C268.945 351.947 268.945 351.893 268.94 351.84V351.64V351.56V351.51C268.927 351.457 268.907 351.407 268.88 351.36L268.94 351.19Z" fill="#458430"/>
    <path d="M270.19 351.73C270.19 351.73 270.13 351.73 270.03 351.73C269.9 351.746 269.773 351.777 269.65 351.82C269.529 351.864 269.412 351.917 269.3 351.98L269.21 352.06H269.26H269.36L269.71 351.94L270.07 351.82C270.14 351.78 270.19 351.75 270.19 351.73Z" fill="#458430"/>
    <path d="M269.54 352.85C269.54 352.85 269.54 352.85 269.49 352.85H269H268.94H268.87H268.82H268.77L268.6 352.97C268.6 352.97 268.6 353.02 268.6 353.03H268.65L268.76 352.96L268.94 352.87H268.99H269.05H269.1H269.16H269.22H269.27H269.33H269.43H269.52H269.59H269.65L269.54 352.85Z" fill="#458430"/>
    <path d="M268.49 354C268.49 354 268.43 354 268.33 354H268.16L267.95 354.08L267.76 354.18L267.68 354.24V354.3V354.35H267.73L267.8 354.3L267.98 354.21L268.17 354.14L268.33 354.07C268.44 354.05 268.5 354 268.49 354Z" fill="#458430"/>
    <path d="M266.82 355.17H266.91C266.908 355.15 266.908 355.13 266.91 355.11C267.02 354.61 267.59 351.11 262.91 350.11C262.3 354.45 266.08 355 266.82 355.17Z" fill="#458430"/>
    <path d="M266.82 355.17H266.91C266.908 355.15 266.908 355.13 266.91 355.11L266.85 355.01C266.77 354.863 266.68 354.713 266.58 354.56V354.5L266.5 354.38V354.33L266.45 354.27L266.37 354.15L266.3 354.07L266.21 353.95L266.16 353.89L266.06 353.77L265.72 353.37V353.32L265.64 353.23L265.59 353.18L265.48 353.05L265.17 352.71L264.89 352.41L264.83 352.34L264.71 352.21L264.65 352.14L264.44 351.91L264.15 351.61L264.41 351.93L264.61 352.17C264.68 352.25 264.76 352.35 264.85 352.44L264.98 352.6L265.17 352.82L265.41 353.1L265.57 353.28L265.65 353.37C265.682 353.399 265.709 353.432 265.73 353.47L265.8 353.54L265.99 353.76L266.07 353.86L266.17 353.98L266.22 354.04L266.31 354.16L266.4 354.28C266.434 354.318 266.464 354.358 266.49 354.4V354.45V354.51L266.57 354.63V354.68L266.85 355.12L266.82 355.17Z" fill="#458430"/>
    <path d="M264.56 353.18C264.56 353.18 264.64 353.18 264.75 353.25H264.85H264.96L265.21 353.32C265.293 353.345 265.373 353.379 265.45 353.42H265.55H265.6H265.67C265.67 353.42 265.72 353.42 265.73 353.42V353.37H265.66L265.56 353.31L265.31 353.2L265.05 353.13H264.83C264.736 353.111 264.64 353.129 264.56 353.18Z" fill="#458430"/>
    <path d="M263.6 352.23H263.66H263.82H264H264.06H264.2H264.34H264.41H264.48L264.6 352.28H264.66H264.72H264.79H264.87H264.94H265V352.23L264.93 352.17H264.86H264.8L264.67 352.11H264.6H264.52H264.38H264.31H264.24H263.99H263.83H263.77L263.6 352.23Z" fill="#458430"/>
    <path d="M264.45 351.16C264.45 351.16 264.45 351.22 264.4 351.32C264.389 351.446 264.389 351.574 264.4 351.7C264.406 351.829 264.426 351.956 264.46 352.08C264.473 352.12 264.494 352.157 264.52 352.19C264.524 352.153 264.524 352.117 264.52 352.08C264.52 351.99 264.52 351.86 264.52 351.71C264.52 351.56 264.52 351.43 264.52 351.34C264.52 351.25 264.47 351.16 264.45 351.16Z" fill="#458430"/>
    <path d="M265.37 352.08V352.15C265.375 352.183 265.375 352.217 265.37 352.25C265.366 352.27 265.366 352.29 265.37 352.31V352.5C265.366 352.523 265.366 352.547 265.37 352.57V352.69V352.79C265.389 352.86 265.416 352.927 265.45 352.99H265.5C265.5 352.99 265.5 352.99 265.5 352.93V352.8C265.5 352.75 265.5 352.69 265.5 352.61V352.56V351.95C265.505 351.924 265.505 351.896 265.5 351.87V351.82C265.483 351.812 265.465 351.806 265.446 351.805C265.427 351.804 265.408 351.806 265.389 351.812C265.371 351.818 265.355 351.828 265.34 351.84C265.326 351.853 265.314 351.868 265.305 351.885C265.297 351.902 265.292 351.921 265.29 351.94C265.289 351.959 265.291 351.978 265.298 351.996C265.304 352.014 265.313 352.031 265.326 352.045C265.338 352.06 265.353 352.071 265.37 352.08Z" fill="#458430"/>
    <path d="M266.2 353.38C266.2 353.38 266.2 353.44 266.2 353.54C266.2 353.64 266.2 353.65 266.2 353.72C266.2 353.79 266.2 353.86 266.2 353.93C266.211 354.005 266.228 354.078 266.25 354.15C266.254 354.18 266.254 354.21 266.25 354.24L266.3 354.3C266.3 354.3 266.3 354.3 266.35 354.3C266.4 354.3 266.35 354.3 266.35 354.25C266.346 354.23 266.346 354.21 266.35 354.19C266.35 354.19 266.35 354.13 266.35 354.1C266.345 354.033 266.345 353.967 266.35 353.9V353.7C266.356 353.643 266.356 353.587 266.35 353.53C266.24 353.44 266.22 353.38 266.2 353.38Z" fill="#458430"/>
    <path d="M266.87 355.08C266.885 355.113 266.905 355.143 266.93 355.17L266.98 355.12C267.44 354.75 270.52 351.95 266.98 347.65C263.26 351.14 266.33 354.38 266.87 355.08Z" fill="#5DB040"/>
    <path d="M266.87 355.08C266.885 355.113 266.906 355.143 266.93 355.17L266.98 355.12C266.985 355.073 266.985 355.027 266.98 354.98C266.98 354.79 267.04 354.59 267.06 354.37V353.97V353.88C267.06 353.82 267.06 353.77 267.06 353.71V353.28V353V352.4V352V351.8V351.27C267.06 351.103 267.06 350.943 267.06 350.79V350.37C267.06 350.24 267.06 350.12 267.06 350.02C267.06 349.92 267.06 349.64 267.06 349.53C267.056 349.514 267.056 349.496 267.06 349.48V349.41V349.55V350C267.06 350.11 267.06 350.23 267.06 350.36C267.06 350.49 267.06 350.63 267.06 350.78V351V351.34C267.06 351.48 267.06 351.62 267.06 351.77C267.065 351.863 267.065 351.957 267.06 352.05V352.19C267.06 352.24 267.06 352.29 267.06 352.34V352.45C267.06 352.56 267.06 352.68 267.06 352.79V353.21V353.63C267.065 353.69 267.065 353.75 267.06 353.81V354.3C267.06 354.51 267.06 354.71 267 354.9L266.87 355.08Z" fill="#5DB040"/>
    <path d="M266.25 351.63C266.25 351.63 266.25 351.72 266.38 351.83V351.88V351.93L266.46 352.03L266.63 352.28C266.685 352.363 266.735 352.45 266.78 352.54C266.78 352.54 266.78 352.62 266.84 352.65V352.71V352.76C266.842 352.787 266.842 352.813 266.84 352.84C266.84 352.78 266.84 352.84 266.84 352.78V352.7C266.844 352.667 266.844 352.633 266.84 352.6V352.55C266.836 352.53 266.836 352.51 266.84 352.49C266.84 352.49 266.84 352.4 266.84 352.36C266.798 352.263 266.748 352.169 266.69 352.08L266.5 351.82L266.4 351.72H266.35C266.34 351.67 266.26 351.62 266.25 351.63Z" fill="#5DB040"/>
    <path d="M266.07 350.07C266.108 350.122 266.151 350.169 266.2 350.21V350.27L266.29 350.4C266.329 350.442 266.363 350.489 266.39 350.54V350.61L266.48 350.75V350.81C266.479 350.843 266.479 350.877 266.48 350.91C266.479 350.933 266.479 350.957 266.48 350.98V350.84C266.485 350.803 266.485 350.766 266.48 350.73V350.68V350.61C266.458 350.558 266.431 350.508 266.4 350.46V350.39C266.366 350.341 266.33 350.295 266.29 350.25L266.24 350.18L266.18 350.12L266.13 350.06C266.083 350.023 266.033 349.99 265.98 349.96L266.07 350.07Z" fill="#5DB040"/>
    <path d="M267.62 349.71C267.62 349.71 267.54 349.71 267.46 349.82C267.347 349.918 267.249 350.033 267.17 350.16C267.081 350.28 267.007 350.411 266.95 350.55C266.944 350.596 266.944 350.644 266.95 350.69V350.75L267.03 350.64L267.27 350.28C267.37 350.14 267.46 350.02 267.52 349.92C267.58 349.82 267.63 349.73 267.62 349.71Z" fill="#5DB040"/>
    <path d="M267.78 351.21H267.72H267.66L267.58 351.26L267.49 351.33V351.38L267.44 351.43L267.39 351.49V351.56V351.63V351.69C267.359 351.764 267.336 351.841 267.32 351.92V352.08C267.32 352.08 267.32 352.14 267.32 352.15C267.32 352.16 267.32 352.15 267.32 352.09L267.38 351.95C267.38 351.89 267.44 351.82 267.48 351.75V351.69V351.63V351.56V351.5V351.44V351.39L267.55 351.29L267.62 351.21L267.68 351.14C267.68 351.14 267.79 351.22 267.78 351.21Z" fill="#5DB040"/>
    <path d="M267.6 353C267.6 353 267.53 353 267.44 353.11L267.31 353.27C267.258 353.337 267.212 353.407 267.17 353.48C267.129 353.555 267.092 353.631 267.06 353.71V353.82C267.064 353.836 267.064 353.854 267.06 353.87V354.06V354.11C267.06 354.11 267.06 354.11 267.06 354.06V354C267.06 354 267.06 354 267.06 353.93C267.06 353.93 267.06 353.93 267.06 353.88V353.79L267.17 353.58L267.29 353.38L267.4 353.21C267.59 353.09 267.62 353 267.6 353Z" fill="#5DB040"/>
    <path fill-rule="evenodd" clip-rule="evenodd" d="M184 254.93V259.19H173V254.91H184V254.93Z" fill="#1C4A45"/>
    <path fill-rule="evenodd" clip-rule="evenodd" d="M185.39 252.77V255.05C185.395 255.11 185.395 255.17 185.39 255.23C185.39 255.23 185.39 255.23 185.39 255.29C185.378 255.338 185.361 255.385 185.34 255.43C185.345 255.45 185.345 255.47 185.34 255.49V255.55V255.61L185.27 255.7L185.22 255.76L185.17 255.81C184.889 256.067 184.544 256.243 184.17 256.32C183.983 256.36 183.792 256.38 183.6 256.38H173.69C173.499 256.38 173.308 256.36 173.12 256.32L172.85 256.25L172.65 256.17H172.59L172.48 256.11H172.43L172.33 256.04L172.24 255.97H172.18C172.097 255.892 172.026 255.801 171.97 255.7C171.873 255.544 171.822 255.364 171.82 255.18V252.9C171.824 252.7 171.877 252.504 171.974 252.33C172.072 252.155 172.212 252.007 172.38 251.9C172.71 251.683 173.087 251.549 173.48 251.51H183.95C184.343 251.549 184.721 251.683 185.05 251.9C185.162 252.015 185.249 252.152 185.308 252.301C185.366 252.45 185.394 252.61 185.39 252.77Z" fill="white"/>
    <path fill-rule="evenodd" clip-rule="evenodd" d="M185.39 253.66V255.05C185.395 255.11 185.395 255.17 185.39 255.23C185.39 255.23 185.39 255.23 185.39 255.29C185.378 255.338 185.361 255.385 185.34 255.43C185.345 255.45 185.345 255.47 185.34 255.49V255.55V255.61L185.27 255.7L185.22 255.76L185.17 255.81C184.889 256.067 184.544 256.243 184.17 256.32C183.983 256.36 183.792 256.38 183.6 256.38H173.69C173.499 256.38 173.308 256.36 173.12 256.32L172.85 256.25L172.65 256.17H172.59L172.48 256.11H172.43L172.33 256.04L172.24 255.97H172.18C172.097 255.892 172.026 255.801 171.97 255.7C171.873 255.544 171.822 255.364 171.82 255.18V253.79H185.61L185.39 253.66Z" fill="#458430"/>
    <path fill-rule="evenodd" clip-rule="evenodd" d="M184.83 251.81V253.65H183.73V251.42C184.123 251.459 184.501 251.593 184.83 251.81Z" fill="#458430"/>
    <path d="M182.9 251.41H181.8V253.66H182.9V251.41Z" fill="#458430"/>
    <path d="M180.98 251.41H179.88V253.66H180.98V251.41Z" fill="#458430"/>
    <path d="M179.05 251.41H177.95V253.66H179.05V251.41Z" fill="#458430"/>
    <path d="M177.12 251.41H176.02V253.66H177.12V251.41Z" fill="#458430"/>
    <path d="M175.19 251.41H174.09V253.66H175.19V251.41Z" fill="#458430"/>
    <path fill-rule="evenodd" clip-rule="evenodd" d="M173.26 251.42V253.65H172.16V251.81C172.49 251.593 172.867 251.459 173.26 251.42Z" fill="#458430"/>
    <path fill-rule="evenodd" clip-rule="evenodd" d="M201.73 257.47H172.8C171.596 257.47 170.441 257.948 169.59 258.8C168.738 259.651 168.26 260.806 168.26 262.01V296.45C168.258 297.047 168.375 297.638 168.602 298.19C168.83 298.742 169.164 299.244 169.586 299.667C170.008 300.089 170.509 300.425 171.06 300.653C171.612 300.882 172.203 301 172.8 301H201.73C202.934 301 204.089 300.522 204.94 299.67C205.791 298.819 206.27 297.664 206.27 296.46V262C206.267 260.798 205.788 259.645 204.937 258.796C204.085 257.947 202.932 257.47 201.73 257.47ZM190.14 260.47H201.63C202.106 260.473 202.563 260.663 202.9 261C203.237 261.337 203.427 261.793 203.43 262.27V276C203.427 276.477 203.237 276.933 202.9 277.27C202.563 277.607 202.106 277.797 201.63 277.8L188.34 262.32C188.334 262.08 188.377 261.841 188.465 261.617C188.553 261.394 188.685 261.19 188.852 261.018C189.02 260.846 189.22 260.708 189.441 260.614C189.662 260.52 189.9 260.471 190.14 260.47Z" fill="#458430"/>
    <path d="M206.27 279.24H168.26V296.14H206.27V279.24Z" fill="#1C4A45"/>
    <path d="M198.76 285.9H201.29V289.9H200.7V288.2H198.84V287.7H200.7V286.4H198.76V285.9Z" fill="white"/>
    <path d="M197.47 288.12H195.62V287.63H197.47V286.4H195.47V285.9H198.06V289.9H195.44V289.4H197.44L197.47 288.12Z" fill="white"/>
    <path d="M191.48 289.89L192.48 288.3C192.222 288.217 191.995 288.057 191.83 287.84C191.663 287.645 191.571 287.397 191.57 287.14C191.57 286.973 191.605 286.808 191.674 286.656C191.743 286.505 191.844 286.369 191.97 286.26C192.244 286.013 192.603 285.884 192.97 285.9H194.73V289.9H194.14V288.37H193.14L192.14 289.9L191.48 289.89ZM193 286.4C192.794 286.396 192.594 286.471 192.44 286.61C192.369 286.678 192.312 286.761 192.275 286.852C192.237 286.943 192.218 287.041 192.22 287.14C192.218 287.237 192.237 287.334 192.275 287.424C192.313 287.513 192.369 287.594 192.44 287.66C192.515 287.732 192.602 287.788 192.698 287.826C192.795 287.864 192.897 287.882 193 287.88H194.17V286.4H193Z" fill="white"/>
    <path d="M191.34 285.9V286.4H190.05V289.89H189.48V286.4H188.18V285.9H191.34Z" fill="white"/>
    <path d="M187.6 289.89H187V285.89H187.58L187.6 289.89Z" fill="white"/>
    <path d="M185.49 285.9H186.08V289.9H183.6V289.4H185.49V285.9Z" fill="white"/>
    <path d="M183 289.89H182.42V285.89H183V289.89Z" fill="white"/>
    <path d="M178.9 286.35V285.9H181.66V286.4H179.6L181.72 289.4V289.86H178.85V289.36H181L178.9 286.35Z" fill="white"/>
    <path d="M177.61 288.12H175.76V287.63H177.61V286.4H175.61V285.9H178.2V289.9H175.57V289.4H177.57L177.61 288.12Z" fill="white"/>
    <path d="M171.62 289.89L172.62 288.3C172.358 288.217 172.128 288.057 171.96 287.84C171.796 287.644 171.707 287.396 171.71 287.14C171.707 286.973 171.741 286.807 171.81 286.655C171.88 286.502 171.982 286.368 172.11 286.26C172.383 286.013 172.742 285.884 173.11 285.9H174.86V289.9H174.28V288.37H173.28L172.28 289.9L171.62 289.89ZM173.12 286.4C172.913 286.394 172.712 286.469 172.56 286.61C172.487 286.678 172.429 286.76 172.39 286.851C172.35 286.942 172.33 287.041 172.33 287.14C172.33 287.238 172.35 287.335 172.39 287.424C172.43 287.514 172.488 287.594 172.56 287.66C172.634 287.733 172.721 287.79 172.817 287.828C172.914 287.866 173.017 287.883 173.12 287.88H174.29V286.4H173.12Z" fill="white"/>
    <path d="M161.87 143.99C160.053 143.99 158.58 142.517 158.58 140.7C158.58 138.883 160.053 137.41 161.87 137.41C163.687 137.41 165.16 138.883 165.16 140.7C165.16 142.517 163.687 143.99 161.87 143.99Z" stroke="#040B0A" stroke-width="1.5" stroke-miterlimit="10"/>
    <path d="M167.42 145.64L164.26 142.96" stroke="#040B0A" stroke-width="1.5" stroke-miterlimit="10" stroke-linecap="round"/>
    <path d="M258.7 108.23L193.27 108.23C190.965 108.23 188.755 107.314 187.125 105.685C185.495 104.055 184.58 101.845 184.58 99.54V95.23L267.38 95.23V99.54C267.38 101.843 266.466 104.052 264.838 105.681C263.211 107.311 261.003 108.227 258.7 108.23Z" fill="#040B0A"/>
    </g>
    <defs>
    <clipPath id="clip0_2739_48501">
    <rect width="496" height="412" fill="white"/>
    </clipPath>
    </defs>
    </svg>
    