<svg width="552" height="386" viewBox="0 0 552 386" fill="none" xmlns="http://www.w3.org/2000/svg">
    <g clip-path="url(#clip0_2739_49407)">
    <g opacity="0.7">
    <path opacity="0.47" d="M552 0H0V338.033H552V0Z" fill="#6FF8DC"/>
    </g>
    <path d="M411.753 117.251H515.275C515.274 113.259 514.199 109.342 512.162 105.91C510.126 102.477 507.203 99.6562 503.701 97.742C500.199 95.8278 496.247 94.8911 492.258 95.0303C488.269 95.1694 484.392 96.3793 481.032 98.5329C479.046 95.5635 476.374 93.1164 473.242 91.3986C470.11 89.6808 466.61 88.7429 463.039 88.6644C459.468 88.5859 455.93 89.3691 452.726 90.9476C449.521 92.5261 446.744 94.8535 444.63 97.7327C441.244 95.8891 437.436 94.9573 433.581 95.029C429.726 95.1006 425.956 96.1732 422.641 98.1414C419.325 100.11 416.578 102.906 414.67 106.256C412.761 109.606 411.756 113.395 411.753 117.251Z" fill="white"/>
    <path d="M31.5559 117.826H108.261C108.258 114.87 107.461 111.968 105.952 109.426C104.443 106.884 102.278 104.794 99.6832 103.377C97.0889 101.959 94.1609 101.265 91.2063 101.369C88.2517 101.472 85.3792 102.368 82.8901 103.963C81.4185 101.763 79.4384 99.9499 77.1174 98.6775C74.7965 97.4051 72.203 96.7109 69.5568 96.6535C66.9105 96.5962 64.2895 97.1775 61.9156 98.3481C59.5417 99.5188 57.4849 101.244 55.9194 103.379C53.4118 102.004 50.5894 101.307 47.7303 101.355C44.8712 101.403 42.074 102.196 39.6142 103.654C37.1544 105.112 35.1168 107.186 33.7022 109.671C32.2876 112.156 31.5448 114.966 31.5469 117.826H31.5559Z" fill="white"/>
    <path d="M372.124 66.8423H200.707C194.367 66.8423 189.227 71.9824 189.227 78.3229V184.381C189.227 190.721 194.367 195.861 200.707 195.861H372.124C378.464 195.861 383.604 190.721 383.604 184.381V78.3229C383.604 71.9824 378.464 66.8423 372.124 66.8423Z" fill="#4A75CB"/>
    <path d="M328.934 43.0452C322.62 43.8329 316.682 46.4746 311.87 50.6365C307.057 54.7984 303.587 60.2936 301.897 66.4275C300.207 72.5614 300.374 79.0586 302.376 85.0979C304.377 91.1371 308.125 96.4473 313.144 100.357C318.163 104.267 324.229 106.601 330.575 107.064C336.92 107.528 343.261 106.099 348.795 102.96C354.328 99.82 358.807 95.1103 361.665 89.4257C364.523 83.7412 365.631 77.3371 364.85 71.0228C364.331 66.8266 362.989 62.7739 360.903 59.0964C358.817 55.4188 356.026 52.1885 352.69 49.5902C349.355 46.9919 345.54 45.0764 341.463 43.9534C337.387 42.8304 333.129 42.5217 328.934 43.0452Z" fill="#E2810E"/>
    <path d="M326.147 43.3868C319.835 44.184 313.902 46.8343 309.096 51.0026C304.29 55.1709 300.828 60.6703 299.147 66.8057C297.466 72.9412 297.641 79.4373 299.65 85.4732C301.66 91.5091 305.414 96.8138 310.437 100.717C315.461 104.62 321.528 106.947 327.874 107.403C334.219 107.858 340.557 106.423 346.087 103.278C351.616 100.133 356.09 95.419 358.941 89.7323C361.793 84.0456 362.895 77.6412 362.108 71.3285C361.582 67.1322 360.235 63.0805 358.143 59.405C356.051 55.7295 353.256 52.5021 349.916 49.9073C346.577 47.3125 342.759 45.4011 338.68 44.2823C334.602 43.1635 330.343 42.8592 326.147 43.3868Z" fill="#FFB93E"/>
    <path d="M333.826 104.79C328.073 105.51 322.235 104.507 317.051 101.909C311.868 99.3113 307.571 95.2346 304.704 90.1946C301.837 85.1547 300.529 79.3779 300.946 73.5947C301.362 67.8115 303.484 62.2815 307.043 57.7042C310.602 53.1268 315.438 49.7076 320.941 47.8789C326.443 46.0501 332.364 45.894 337.955 47.4303C343.546 48.9665 348.556 52.1261 352.351 56.5096C356.146 60.893 358.557 66.3034 359.277 72.0567C360.231 79.7704 358.088 87.5477 353.317 93.6837C348.546 99.8197 341.537 103.814 333.826 104.79ZM326.769 48.3405C321.356 49.0159 316.266 51.2812 312.142 54.8498C308.017 58.4184 305.044 63.1301 303.597 68.3888C302.151 73.6476 302.297 79.2172 304.016 84.3931C305.735 89.5691 308.951 94.1189 313.256 97.4671C317.562 100.815 322.763 102.811 328.203 103.203C333.643 103.595 339.077 102.364 343.818 99.6673C348.558 96.9704 352.392 92.9281 354.835 88.0518C357.278 83.1755 358.22 77.6842 357.542 72.2725C356.626 65.0219 352.872 58.4306 347.103 53.9442C341.334 49.4578 334.021 47.4425 326.769 48.3405Z" fill="#FFA412"/>
    <path d="M335.245 83.6091C335.248 83.037 335.154 82.4686 334.967 81.9279C334.763 81.4317 334.457 80.9843 334.068 80.6154C333.591 80.1868 333.059 79.824 332.485 79.5365C331.719 79.1582 330.926 78.8367 330.112 78.5746C328.512 78.0262 327.055 77.4418 325.743 76.8395C324.533 76.2924 323.402 75.5848 322.38 74.7358C321.468 73.9585 320.727 73.0003 320.205 71.9218C319.186 69.5791 319.138 66.9283 320.07 64.5498C320.516 63.4956 321.177 62.5463 322.012 61.7629C322.902 60.9409 323.931 60.2834 325.051 59.821C326.327 59.3129 327.673 59.0007 329.042 58.895V54.0223H332.962V58.9579C334.29 59.1059 335.584 59.4735 336.792 60.0457C337.904 60.5694 338.901 61.3099 339.724 62.2238C340.547 63.1377 341.179 64.2066 341.584 65.3679C342.04 66.6861 342.268 68.0725 342.258 69.4675H335.183C335.286 68.0048 334.848 66.5551 333.951 65.3949C333.539 64.9486 333.034 64.5982 332.471 64.3683C331.909 64.1384 331.303 64.0347 330.696 64.0644C330.05 64.0505 329.407 64.1572 328.799 64.379C328.303 64.5765 327.857 64.8838 327.496 65.278C327.153 65.6393 326.895 66.0723 326.741 66.5457C326.583 67.0521 326.504 67.5796 326.507 68.11C326.505 68.6307 326.593 69.1478 326.768 69.6383C326.949 70.1148 327.238 70.5427 327.613 70.8879C328.087 71.304 328.616 71.652 329.186 71.9218C329.987 72.3145 330.81 72.6626 331.649 72.9647C333.241 73.5401 334.679 74.1424 335.983 74.7627C337.193 75.3155 338.321 76.0324 339.336 76.8934C340.304 77.699 341.075 78.7143 341.592 79.8622C342.109 81.0102 342.359 82.2607 342.321 83.5192C342.348 84.7517 342.118 85.9763 341.647 87.1153C341.198 88.1729 340.53 89.1229 339.687 89.9023C338.793 90.7126 337.756 91.3497 336.63 91.7812C335.347 92.2721 333.999 92.5749 332.629 92.6803V97.1754H328.746V92.6803C327.402 92.5374 326.08 92.2356 324.808 91.7812C323.569 91.3489 322.422 90.6871 321.427 89.8304C320.413 88.9377 319.604 87.8368 319.054 86.6029C318.426 85.1259 318.12 83.5324 318.155 81.9279H325.23C325.209 82.8488 325.368 83.765 325.698 84.625C325.968 85.2836 326.387 85.8712 326.921 86.3422C327.424 86.7682 328.017 87.0755 328.656 87.2412C329.298 87.4099 329.96 87.4945 330.624 87.4929C331.311 87.4991 331.995 87.3928 332.647 87.1782C333.181 87.0039 333.674 86.7224 334.095 86.3511C334.487 86.0134 334.795 85.5885 334.994 85.1105C335.172 84.6305 335.258 84.121 335.245 83.6091Z" fill="#FFA412"/>
    <path d="M359.421 76.9384H200.707C194.367 76.9384 189.227 82.0784 189.227 88.4189V194.477C189.227 200.817 194.367 205.957 200.707 205.957H359.421C365.761 205.957 370.901 200.817 370.901 194.477V88.4189C370.901 82.0784 365.761 76.9384 359.421 76.9384Z" fill="#699FF0"/>
    <path d="M376.295 159.073H319.918C317.603 159.073 315.311 158.617 313.172 157.731C311.034 156.845 309.091 155.546 307.455 153.909C305.818 152.272 304.521 150.328 303.636 148.189C302.751 146.05 302.296 143.758 302.297 141.443C302.296 139.128 302.751 136.836 303.636 134.697C304.521 132.558 305.818 130.615 307.455 128.978C309.091 127.34 311.034 126.042 313.172 125.156C315.311 124.269 317.603 123.813 319.918 123.813H376.295V159.073Z" fill="#4A75CB"/>
    <path d="M333.736 141.443C333.743 144.178 332.938 146.853 331.424 149.13C329.91 151.407 327.755 153.184 325.23 154.235C322.706 155.286 319.927 155.565 317.244 155.036C314.561 154.507 312.096 153.194 310.16 151.263C308.223 149.332 306.904 146.87 306.368 144.188C305.832 141.507 306.103 138.727 307.148 136.2C308.193 133.673 309.964 131.512 312.237 129.993C314.51 128.473 317.183 127.661 319.918 127.661C323.576 127.661 327.085 129.112 329.676 131.696C332.266 134.279 333.726 137.785 333.736 141.443Z" fill="#E9F3FE"/>
    <path d="M385.258 312.86L363.034 220.863C359.592 213.244 354.5 206.485 348.125 201.075C341.75 195.666 334.252 191.742 326.174 189.586L278.697 176.928C274.211 175.731 269.449 176.125 265.22 178.043C260.992 179.96 257.558 183.283 255.502 187.446L249.56 199.466C247.899 202.826 247.211 206.584 247.575 210.315C247.939 214.045 249.34 217.599 251.618 220.575L321.059 315.647L385.258 312.86Z" fill="#98492F"/>
    <path d="M244.597 310.514H328.224C333.775 310.514 338.275 306.014 338.275 300.462V154.012C338.275 148.461 333.775 143.961 328.224 143.961H244.597C239.046 143.961 234.546 148.461 234.546 154.012V300.462C234.546 306.014 239.046 310.514 244.597 310.514Z" fill="#040B0A"/>
    <path d="M246.422 307.07H326.39C331.291 307.07 335.264 303.098 335.264 298.197V156.016C335.264 151.116 331.291 147.143 326.39 147.143H246.422C241.522 147.143 237.549 151.116 237.549 156.016V298.197C237.549 303.098 241.522 307.07 246.422 307.07Z" fill="white"/>
    <path d="M251.152 174.105H321.365C323.391 174.105 325.033 172.465 325.033 170.441C325.033 168.418 323.391 166.778 321.365 166.778H251.152C249.126 166.778 247.484 168.418 247.484 170.441C247.484 172.465 249.126 174.105 251.152 174.105Z" fill="#C5FCF1"/>
    <path d="M292.695 213.922H321.32C323.371 213.922 325.033 212.26 325.033 210.21V181.585C325.033 179.534 323.371 177.872 321.32 177.872H292.695C290.645 177.872 288.982 179.534 288.982 181.585V210.21C288.982 212.26 290.645 213.922 292.695 213.922Z" fill="#DCFDF7"/>
    <path d="M251.492 213.922H280.117C282.168 213.922 283.83 212.26 283.83 210.21V181.585C283.83 179.534 282.168 177.872 280.117 177.872H251.492C249.442 177.872 247.779 179.534 247.779 181.585V210.21C247.779 212.26 249.442 213.922 251.492 213.922Z" fill="#DCFDF7"/>
    <path d="M292.695 258.002H321.32C323.371 258.002 325.033 256.339 325.033 254.289V225.664C325.033 223.613 323.371 221.951 321.32 221.951H292.695C290.645 221.951 288.982 223.613 288.982 225.664V254.289C288.982 256.339 290.645 258.002 292.695 258.002Z" fill="#DCFDF7"/>
    <path d="M251.492 258.002H280.117C282.168 258.002 283.83 256.339 283.83 254.289V225.664C283.83 223.613 282.168 221.951 280.117 221.951H251.492C249.442 221.951 247.779 223.613 247.779 225.664V254.289C247.779 256.339 249.442 258.002 251.492 258.002Z" fill="#DCFDF7"/>
    <path d="M292.695 302.081H321.32C323.371 302.081 325.033 300.418 325.033 298.368V269.743C325.033 267.692 323.371 266.03 321.32 266.03H292.695C290.645 266.03 288.982 267.692 288.982 269.743V298.368C288.982 300.418 290.645 302.081 292.695 302.081Z" fill="#DCFDF7"/>
    <path d="M251.492 302.081H280.117C282.168 302.081 283.83 300.418 283.83 298.368V269.743C283.83 267.692 282.168 266.03 280.117 266.03H251.492C249.442 266.03 247.779 267.692 247.779 269.743V298.368C247.779 300.418 249.442 302.081 251.492 302.081Z" fill="#DCFDF7"/>
    <path d="M309.641 189.325C309.929 187.887 310.127 186.961 310.127 186.961L309.65 187.051L308.823 191.06L309.578 191.375C309.424 190.698 309.445 189.992 309.641 189.325Z" fill="#7D9745"/>
    <path d="M309.399 187.105C309.101 187.712 308.909 188.366 308.833 189.038C308.754 189.67 308.488 190.265 308.068 190.746L308.824 191.06L309.651 187.051L309.399 187.105Z" fill="#7D9745"/>
    <path d="M308.886 190.773L307.025 189.874C306.259 189.51 305.629 188.912 305.227 188.166C304.938 187.624 304.525 187.159 304.022 186.808L303.914 186.736C304.423 187.19 304.786 187.784 304.957 188.444C305.182 189.469 305.37 190.782 307.501 191.249C309.632 191.717 308.886 190.773 308.886 190.773Z" fill="#74733D"/>
    <path d="M308.715 191.618C308.009 191.293 307.458 190.706 307.178 189.982C306.802 189.228 306.647 188.383 306.728 187.545L306.935 188.112C307.229 188.92 307.688 189.657 308.283 190.278C308.458 190.45 308.588 190.662 308.664 190.895C308.739 191.128 308.756 191.376 308.715 191.618Z" fill="#74733D"/>
    <path d="M309.066 190.809L311.107 190.746C311.961 190.725 312.786 190.425 313.453 189.892C313.929 189.507 314.49 189.241 315.09 189.118H315.224C314.576 189.335 314.007 189.738 313.588 190.278C312.986 191.177 312.294 192.265 310.154 191.86C308.014 191.456 309.066 190.809 309.066 190.809Z" fill="#74733D"/>
    <path d="M308.887 191.654C309.665 191.636 310.404 191.313 310.945 190.755C311.586 190.207 312.059 189.491 312.312 188.687L311.907 189.127C311.316 189.753 310.603 190.251 309.813 190.593C309.582 190.678 309.377 190.82 309.215 191.006C309.053 191.191 308.94 191.414 308.887 191.654Z" fill="#74733D"/>
    <path d="M305.443 207.566L303.69 207.207C298.934 206.236 295.932 201.264 296.992 196.113V195.951C297.793 192.013 301.488 188.966 305.03 190.17C305.974 190.503 308.743 191.285 308.743 191.285L305.443 207.566Z" fill="#EC3833"/>
    <path d="M305.443 207.566L307.187 207.926C311.943 208.906 316.654 205.517 317.715 200.365V200.203C318.515 196.266 316.295 191.995 312.591 191.726C311.602 191.654 308.743 191.285 308.743 191.285L305.443 207.566Z" fill="#EC3833"/>
    <path d="M262.353 193.955L261.688 193.407L260.663 191.177L260.969 191.033L262.353 193.937V193.955Z" fill="#5DB040"/>
    <path d="M260.969 191.033L261.337 190.863L262.371 193.11L262.353 193.937L260.969 191.033Z" fill="#5DB040"/>
    <path d="M263.162 190.656L263.099 193.91L262.794 194.018L262.56 194.126H262.515H262.47L262.371 193.919V193.065L262.416 190.602L263.162 190.656Z" fill="#458430"/>
    <path d="M259.817 191.842L261.723 193.407L262.388 193.955L262.487 194.162L262.388 194.216L262.164 194.342C262.073 194.393 261.986 194.45 261.903 194.513L259.305 192.391L259.817 191.842Z" fill="#458430"/>
    <path d="M262.515 194.189H262.56L262.793 194.081L263.099 193.973C263.422 193.838 263.77 193.772 264.12 193.779C264.47 193.785 264.815 193.865 265.133 194.012C265.451 194.159 265.735 194.37 265.967 194.633C266.198 194.896 266.373 195.204 266.479 195.537L266.83 196.607C267.091 197.407 267.477 198.585 267.909 199.889C268.34 201.192 268.808 202.721 269.284 204.06C269.761 205.4 270.111 206.559 270.363 207.333C270.411 207.483 270.45 207.636 270.48 207.791C270.669 208.69 270.786 210.147 270.237 210.407L268.808 207.45L266.686 203.026L262.766 194.809L262.515 194.189Z" fill="#EE6837"/>
    <path d="M261.868 194.522C261.951 194.459 262.038 194.402 262.128 194.351L262.353 194.225L262.452 194.171L262.731 194.764L266.65 202.981L268.772 207.405L270.166 210.317C269.5 210.614 268.098 209.095 267.702 208.519C266.012 205.921 260.969 198.109 260.969 198.109C260.78 197.818 260.653 197.491 260.596 197.149C260.539 196.806 260.553 196.456 260.637 196.119C260.722 195.783 260.874 195.467 261.086 195.192C261.298 194.917 261.564 194.689 261.868 194.522Z" fill="#EE6837"/>
    <path d="M264.124 195.987L265.095 195.519C265.095 195.519 265.167 195.519 265.194 195.6L264.124 196.122C264.097 196.068 264.097 195.987 264.124 195.987Z" fill="#F9D5B1"/>
    <path d="M265.454 197.228L266.272 196.832C266.272 196.832 266.344 196.832 266.371 196.922L265.472 197.353C265.436 197.291 265.436 197.237 265.454 197.228Z" fill="#F9D5B1"/>
    <path d="M266.435 200.572L267.208 200.203C267.208 200.203 267.271 200.203 267.298 200.293L266.453 200.707C266.417 200.644 266.417 200.581 266.435 200.572Z" fill="#F9D5B1"/>
    <path d="M263.666 200.149L264.736 199.637C264.736 199.637 264.816 199.637 264.843 199.718L263.666 200.284C263.639 200.23 263.639 200.167 263.666 200.149Z" fill="#F9D5B1"/>
    <path d="M262.2 198.082L262.919 197.74C262.919 197.74 262.982 197.74 263.009 197.83L262.218 198.208C262.191 198.154 262.182 198.091 262.2 198.082Z" fill="#F9D5B1"/>
    <path d="M261.948 196.455L262.847 196.014C262.847 196.014 262.919 196.014 262.955 196.095L261.948 196.58C261.921 196.526 261.921 196.463 261.948 196.455Z" fill="#F9D5B1"/>
    <path d="M267.468 203.773L268.367 203.323C268.367 203.323 268.439 203.323 268.466 203.395L267.432 203.898C267.441 203.844 267.441 203.781 267.468 203.773Z" fill="#F9D5B1"/>
    <path d="M264.888 203.017L265.787 202.568C265.787 202.568 265.859 202.568 265.886 202.649L264.861 203.143C264.861 203.089 264.861 203.026 264.888 203.017Z" fill="#F9D5B1"/>
    <path d="M266.694 205.876L267.306 205.58C267.306 205.58 267.36 205.58 267.387 205.651L266.703 205.984C266.685 205.921 266.676 205.876 266.694 205.876Z" fill="#F9D5B1"/>
    <path d="M269.086 206.856L269.508 206.649C269.508 206.649 269.553 206.649 269.571 206.712L269.104 206.937C269.104 206.937 269.077 206.856 269.086 206.856Z" fill="#F9D5B1"/>
    <path d="M268.349 208.385L268.736 208.196C268.736 208.196 268.736 208.196 268.79 208.259L268.358 208.456C268.358 208.456 268.34 208.385 268.349 208.385Z" fill="#F9D5B1"/>
    <path d="M268.358 208.456L268.79 208.259V208.331L268.403 208.519C268.403 208.519 268.376 208.501 268.358 208.456Z" fill="#F0853B"/>
    <path d="M270.003 208.861L270.282 208.726C270.282 208.726 270.282 208.726 270.336 208.807L270.039 208.96C270.012 208.906 269.994 208.861 270.003 208.861Z" fill="#F9D5B1"/>
    <path d="M270.04 208.96L270.337 208.807C270.337 208.861 270.337 208.906 270.337 208.906L270.067 209.041C270.067 209.041 270.058 209.005 270.04 208.96Z" fill="#F0853B"/>
    <path d="M266.272 188.417H266.326L266.569 188.345L266.884 188.282C267.224 188.195 267.578 188.18 267.924 188.238C268.269 188.295 268.6 188.424 268.893 188.616C269.187 188.808 269.437 189.059 269.628 189.353C269.819 189.647 269.947 189.977 270.003 190.323L270.192 191.429C270.336 192.256 270.552 193.479 270.786 194.836L271.541 199.161C271.784 200.527 271.999 201.75 272.134 202.55C272.134 202.676 272.134 202.838 272.188 203.017C272.242 203.916 272.143 205.4 271.568 205.58L270.606 202.496L269.122 197.785L266.425 189.091V189.038L266.228 188.408L266.272 188.417Z" fill="#F0824D"/>
    <path d="M265.572 188.696L265.859 188.57C265.938 188.535 266.019 188.505 266.102 188.48H266.21L266.408 189.109V189.163L269.105 197.857L270.561 202.541L271.514 205.625C270.813 205.831 269.644 204.123 269.338 203.458L264.196 192.175C264.041 191.859 263.953 191.514 263.939 191.162C263.924 190.81 263.984 190.459 264.113 190.131C264.243 189.803 264.44 189.506 264.691 189.259C264.942 189.012 265.242 188.82 265.572 188.696Z" fill="#F0824D"/>
    <path d="M266.147 188.21L265.562 187.572L264.87 185.217L265.194 185.118L266.147 188.192V188.21Z" fill="#5DB040"/>
    <path d="M265.194 185.118L265.581 185.001L266.282 187.374L266.147 188.193L265.194 185.118Z" fill="#5DB040"/>
    <path d="M267.414 185.064L266.883 188.273L266.569 188.336L266.326 188.408H266.272H266.218L266.155 188.192L266.29 187.374L266.686 184.947L267.414 185.064Z" fill="#458430"/>
    <path d="M263.899 185.747L265.562 187.545L266.147 188.183L266.209 188.399H266.102C266.019 188.424 265.938 188.454 265.859 188.489L265.571 188.615L263.351 186.17L263.899 185.747Z" fill="#458430"/>
    <path d="M267.594 190.485L268.619 190.161C268.619 190.161 268.691 190.161 268.709 190.26L267.576 190.62C267.558 190.593 267.567 190.494 267.594 190.485Z" fill="#F9D5B1"/>
    <path d="M268.736 191.896L269.635 191.618C269.635 191.618 269.698 191.663 269.716 191.726L268.754 192.022C268.709 191.959 268.709 191.905 268.736 191.896Z" fill="#F9D5B1"/>
    <path d="M269.221 195.349L270.04 195.097C270.04 195.097 270.093 195.097 270.12 195.196L269.221 195.484C269.194 195.421 269.194 195.358 269.221 195.349Z" fill="#F9D5B1"/>
    <path d="M266.543 194.531L267.676 194.171C267.676 194.171 267.747 194.171 267.765 194.27L266.516 194.665C266.498 194.602 266.507 194.54 266.543 194.531Z" fill="#F9D5B1"/>
    <path d="M265.391 192.274L266.156 192.031C266.156 192.031 266.21 192.076 266.227 192.139L265.391 192.4C265.373 192.337 265.373 192.283 265.391 192.274Z" fill="#F9D5B1"/>
    <path d="M265.374 190.593L266.345 190.287C266.345 190.287 266.408 190.287 266.426 190.395L265.365 190.728C265.347 190.692 265.347 190.593 265.374 190.593Z" fill="#F9D5B1"/>
    <path d="M269.78 198.684L270.769 198.369C270.769 198.369 270.831 198.369 270.849 198.459L269.762 198.81C269.708 198.729 269.753 198.684 269.78 198.684Z" fill="#F9D5B1"/>
    <path d="M267.333 197.542L268.322 197.237C268.322 197.237 268.385 197.237 268.403 197.327L267.315 197.668C267.289 197.605 267.297 197.551 267.333 197.542Z" fill="#F9D5B1"/>
    <path d="M268.709 200.626L269.356 200.419C269.356 200.419 269.41 200.419 269.428 200.509L268.709 200.734C268.691 200.68 268.691 200.626 268.709 200.626Z" fill="#F9D5B1"/>
    <path d="M270.929 201.947L271.388 201.804C271.388 201.804 271.388 201.804 271.433 201.876L270.938 202.037C270.938 202.037 270.92 201.956 270.929 201.947Z" fill="#F9D5B1"/>
    <path d="M269.986 203.35L270.39 203.224C270.402 203.231 270.412 203.24 270.42 203.251C270.427 203.261 270.433 203.274 270.435 203.287L269.986 203.431C269.986 203.431 269.968 203.359 269.986 203.35Z" fill="#F9D5B1"/>
    <path d="M269.985 203.431L270.435 203.287V203.368L270.03 203.494C270.03 203.494 269.994 203.476 269.985 203.431Z" fill="#F0853B"/>
    <path d="M271.55 204.078L271.837 203.979C271.864 204.007 271.882 204.041 271.891 204.078L271.568 204.177C271.55 204.078 271.505 204.078 271.55 204.078Z" fill="#F9D5B1"/>
    <path d="M271.568 204.168L271.892 204.069C271.892 204.123 271.892 204.168 271.892 204.168L271.604 204.258C271.604 204.258 271.586 204.222 271.568 204.168Z" fill="#F0853B"/>
    <path d="M298.889 226.949C300.579 226.491 302.413 227.731 303.042 229.763L308.364 246.377C309.182 249.029 308.023 251.771 305.811 252.347L298.916 226.949H298.889Z" fill="#458430"/>
    <path d="M296.677 231.498C296.201 229.422 297.154 227.426 298.853 227.003L305.748 252.401C303.537 253.003 301.163 251.25 300.534 248.544L296.677 231.498Z" fill="#458430"/>
    <path d="M305.748 252.356C304.894 252.589 303.177 249.874 302.916 248.535L298.655 232.676C298.277 231.462 297.837 227.597 298.853 226.958L305.748 252.356Z" fill="#458430"/>
    <path d="M298.853 226.958C298.76 226.992 298.677 227.047 298.61 227.12V227.057L298.853 226.958Z" fill="#62A42A"/>
    <path d="M302.449 243.887C302.408 243.898 302.369 243.918 302.335 243.944C302.301 243.971 302.273 244.004 302.252 244.042C302.231 244.08 302.218 244.121 302.213 244.164C302.208 244.207 302.212 244.25 302.224 244.291L302.278 244.516C302.304 244.599 302.359 244.67 302.434 244.713C302.51 244.756 302.598 244.77 302.683 244.75C302.725 244.74 302.765 244.721 302.8 244.695C302.835 244.668 302.864 244.635 302.886 244.598C302.908 244.56 302.922 244.518 302.927 244.475C302.932 244.431 302.929 244.387 302.917 244.345L302.854 244.13C302.844 244.086 302.826 244.046 302.8 244.01C302.775 243.974 302.742 243.943 302.704 243.921C302.666 243.898 302.624 243.883 302.58 243.877C302.536 243.872 302.492 243.875 302.449 243.887Z" fill="#79B831"/>
    <path d="M301.298 246.98C301.215 247.005 301.145 247.06 301.101 247.136C301.058 247.211 301.045 247.3 301.065 247.384L301.128 247.609C301.138 247.651 301.157 247.691 301.183 247.726C301.209 247.761 301.242 247.79 301.28 247.812C301.318 247.834 301.36 247.848 301.403 247.853C301.446 247.858 301.49 247.855 301.532 247.843C301.615 247.817 301.686 247.762 301.729 247.687C301.772 247.611 301.786 247.523 301.766 247.438L301.703 247.213C301.68 247.129 301.624 247.057 301.549 247.013C301.473 246.97 301.383 246.958 301.298 246.98Z" fill="#79B831"/>
    <path d="M300.273 243.365C300.191 243.391 300.121 243.447 300.079 243.522C300.037 243.598 300.026 243.687 300.048 243.77L300.102 243.995C300.128 244.078 300.183 244.148 300.259 244.192C300.334 244.235 300.422 244.248 300.507 244.229C300.591 244.205 300.663 244.15 300.707 244.074C300.751 243.999 300.763 243.909 300.741 243.824L300.678 243.608C300.668 243.565 300.65 243.524 300.625 243.488C300.599 243.452 300.566 243.422 300.528 243.399C300.49 243.377 300.448 243.362 300.404 243.356C300.36 243.35 300.316 243.353 300.273 243.365Z" fill="#79B831"/>
    <path d="M301.11 240.246C301.027 240.271 300.956 240.327 300.913 240.402C300.87 240.477 300.856 240.566 300.876 240.65L300.939 240.875C300.964 240.958 301.02 241.029 301.095 241.072C301.17 241.115 301.259 241.129 301.344 241.109C301.428 241.086 301.5 241.03 301.543 240.955C301.587 240.879 301.599 240.789 301.577 240.704L301.514 240.489C301.505 240.445 301.487 240.405 301.461 240.369C301.435 240.333 301.403 240.302 301.365 240.28C301.327 240.257 301.285 240.242 301.241 240.236C301.197 240.231 301.152 240.234 301.11 240.246Z" fill="#79B831"/>
    <path d="M299.455 239.302C299.371 239.325 299.299 239.381 299.256 239.456C299.212 239.532 299.2 239.622 299.222 239.706L299.285 239.922C299.308 240.007 299.363 240.078 299.439 240.122C299.515 240.166 299.605 240.178 299.689 240.156C299.772 240.131 299.843 240.075 299.886 240C299.929 239.925 299.943 239.836 299.923 239.751L299.86 239.527C299.849 239.485 299.829 239.446 299.802 239.412C299.776 239.378 299.743 239.35 299.705 239.329C299.667 239.308 299.626 239.295 299.583 239.29C299.54 239.286 299.497 239.29 299.455 239.302Z" fill="#79B831"/>
    <path d="M298.236 235.499L298.228 235.501C298.055 235.547 297.953 235.725 297.999 235.897L298.059 236.123C298.106 236.296 298.283 236.398 298.456 236.352L298.464 236.35C298.637 236.303 298.739 236.126 298.693 235.953L298.633 235.727C298.586 235.555 298.409 235.452 298.236 235.499Z" fill="#79B831"/>
    <path d="M305.092 245.64C305.008 245.663 304.936 245.719 304.892 245.794C304.849 245.87 304.836 245.96 304.858 246.045L304.921 246.269C304.945 246.354 305 246.425 305.076 246.469C305.151 246.513 305.241 246.525 305.326 246.503C305.367 246.492 305.406 246.472 305.44 246.445C305.474 246.419 305.502 246.386 305.523 246.348C305.544 246.31 305.557 246.269 305.562 246.226C305.567 246.183 305.563 246.14 305.551 246.098L305.497 245.883C305.486 245.84 305.467 245.8 305.441 245.765C305.415 245.73 305.382 245.7 305.345 245.677C305.307 245.655 305.266 245.64 305.222 245.633C305.179 245.627 305.135 245.629 305.092 245.64Z" fill="#79B831"/>
    <path d="M306.36 242.601C306.317 242.612 306.278 242.631 306.243 242.657C306.208 242.683 306.179 242.716 306.157 242.754C306.135 242.791 306.121 242.833 306.116 242.877C306.11 242.92 306.114 242.964 306.126 243.006L306.189 243.222C306.199 243.264 306.218 243.304 306.245 243.339C306.271 243.374 306.304 243.403 306.341 243.425C306.379 243.447 306.421 243.461 306.464 243.466C306.508 243.471 306.552 243.468 306.594 243.455C306.636 243.445 306.676 243.426 306.711 243.4C306.746 243.374 306.775 243.341 306.797 243.303C306.819 243.265 306.833 243.223 306.838 243.18C306.843 243.137 306.84 243.093 306.827 243.051L306.773 242.826C306.761 242.784 306.741 242.745 306.713 242.711C306.686 242.677 306.652 242.649 306.613 242.628C306.575 242.607 306.533 242.594 306.489 242.589C306.446 242.585 306.402 242.589 306.36 242.601Z" fill="#79B831"/>
    <path d="M307.808 246.481C307.76 246.303 307.577 246.199 307.4 246.247C307.223 246.295 307.118 246.478 307.166 246.655L307.225 246.872C307.273 247.049 307.456 247.154 307.633 247.106C307.81 247.058 307.915 246.875 307.867 246.698L307.808 246.481Z" fill="#79B831"/>
    <path d="M304.083 234.864C304.035 234.686 303.852 234.582 303.675 234.63C303.497 234.678 303.393 234.861 303.441 235.038L303.5 235.255C303.548 235.432 303.73 235.537 303.908 235.489C304.085 235.441 304.19 235.258 304.142 235.08L304.083 234.864Z" fill="#79B831"/>
    <path d="M304.534 239.728C304.486 239.55 304.303 239.444 304.124 239.492C303.946 239.54 303.84 239.723 303.888 239.901L303.947 240.119C303.994 240.297 304.178 240.403 304.356 240.355C304.534 240.308 304.64 240.124 304.592 239.946L304.534 239.728Z" fill="#79B831"/>
    <path d="M304.375 241.466C304.327 241.289 304.144 241.184 303.967 241.232C303.789 241.28 303.685 241.463 303.733 241.64L303.791 241.857C303.84 242.035 304.022 242.139 304.2 242.091C304.377 242.043 304.482 241.86 304.434 241.683L304.375 241.466Z" fill="#79B831"/>
    <path d="M305.217 238.822C305.169 238.645 304.987 238.54 304.809 238.588C304.632 238.637 304.527 238.819 304.575 238.997L304.634 239.213C304.682 239.391 304.865 239.496 305.042 239.447C305.22 239.399 305.324 239.217 305.276 239.039L305.217 238.822Z" fill="#79B831"/>
    <path d="M299.95 237.045C299.907 237.056 299.867 237.075 299.833 237.101C299.798 237.127 299.768 237.16 299.747 237.198C299.725 237.236 299.711 237.277 299.705 237.321C299.7 237.364 299.704 237.408 299.716 237.45L299.77 237.666C299.793 237.75 299.849 237.822 299.924 237.866C300 237.909 300.09 237.921 300.174 237.899C300.259 237.876 300.331 237.821 300.374 237.745C300.418 237.669 300.43 237.58 300.408 237.495L300.345 237.27C300.32 237.189 300.265 237.121 300.192 237.08C300.118 237.038 300.032 237.026 299.95 237.045Z" fill="#79B831"/>
    <path d="M301.64 233.269C301.598 233.28 301.558 233.299 301.523 233.325C301.488 233.351 301.459 233.384 301.437 233.422C301.415 233.46 301.401 233.501 301.396 233.545C301.391 233.588 301.394 233.632 301.406 233.674L301.469 233.899C301.481 233.94 301.5 233.979 301.527 234.013C301.554 234.047 301.587 234.075 301.624 234.096C301.662 234.117 301.703 234.13 301.746 234.135C301.789 234.14 301.833 234.136 301.874 234.124C301.947 234.095 302.007 234.041 302.044 233.972C302.08 233.902 302.09 233.822 302.072 233.746L302.009 233.53C301.993 233.447 301.946 233.374 301.877 233.325C301.809 233.276 301.723 233.256 301.64 233.269Z" fill="#79B831"/>
    <path d="M299.863 232.645C299.827 232.511 299.689 232.432 299.554 232.468C299.42 232.504 299.341 232.643 299.377 232.777L299.422 232.942C299.458 233.076 299.597 233.155 299.731 233.119C299.865 233.082 299.944 232.944 299.908 232.81L299.863 232.645Z" fill="#79B831"/>
    <path d="M303.339 247.861C303.256 247.886 303.186 247.942 303.143 248.017C303.099 248.092 303.086 248.181 303.106 248.265L303.169 248.49C303.192 248.574 303.247 248.646 303.323 248.69C303.399 248.734 303.488 248.746 303.573 248.724C303.656 248.699 303.727 248.643 303.77 248.568C303.813 248.492 303.827 248.404 303.807 248.319L303.744 248.094C303.734 248.052 303.715 248.012 303.688 247.977C303.662 247.942 303.629 247.913 303.591 247.891C303.554 247.869 303.512 247.855 303.469 247.85C303.425 247.845 303.381 247.848 303.339 247.861Z" fill="#79B831"/>
    <path d="M313.821 232.11C314.183 231.995 314.567 231.968 314.942 232.029C315.316 232.091 315.671 232.24 315.977 232.464C316.284 232.688 316.533 232.981 316.705 233.319C316.877 233.658 316.967 234.032 316.968 234.411L317.489 248.067C317.459 249.21 317.053 250.31 316.335 251.199C315.617 252.087 314.626 252.715 313.516 252.985H313.471L313.794 232.11H313.821Z" fill="#1C4A45"/>
    <path d="M310.523 235.85C310.613 234.972 310.973 234.143 311.552 233.477C312.131 232.811 312.902 232.34 313.759 232.128L313.435 253.003C312.963 253.153 312.461 253.182 311.974 253.089C311.487 252.995 311.032 252.781 310.649 252.467C310.266 252.152 309.967 251.747 309.78 251.288C309.593 250.829 309.524 250.331 309.579 249.838L310.523 235.85Z" fill="#1C4A45"/>
    <path d="M313.759 232.119C313.658 232.143 313.563 232.189 313.48 232.254V232.2L313.759 232.119Z" fill="#62A42A"/>
    <path d="M312.645 246.036C312.562 246.049 312.486 246.088 312.428 246.148C312.369 246.208 312.332 246.285 312.321 246.368V246.548C312.321 246.692 312.456 246.782 312.636 246.737C312.718 246.723 312.794 246.683 312.852 246.623C312.91 246.563 312.948 246.487 312.96 246.404V246.224C312.96 246.081 312.861 245.991 312.645 246.036Z" fill="#0F2C2A"/>
    <path d="M310.739 248.58C310.657 248.594 310.581 248.634 310.523 248.694C310.465 248.753 310.427 248.83 310.415 248.912V249.101C310.415 249.245 310.55 249.326 310.73 249.29C310.811 249.273 310.885 249.233 310.943 249.173C311 249.114 311.039 249.039 311.053 248.957V248.769C311.062 248.625 310.919 248.544 310.739 248.58Z" fill="#0F2C2A"/>
    <path d="M310.756 245.613C310.674 245.628 310.598 245.668 310.538 245.727C310.479 245.787 310.439 245.863 310.424 245.946V246.126C310.424 246.269 310.568 246.359 310.738 246.314C310.821 246.301 310.897 246.262 310.956 246.202C311.014 246.142 311.051 246.065 311.062 245.982V245.802C311.062 245.658 310.936 245.568 310.756 245.613Z" fill="#0F2C2A"/>
    <path d="M312.357 243.042C312.275 243.058 312.199 243.098 312.14 243.158C312.081 243.217 312.041 243.292 312.024 243.374V243.554C312.024 243.707 312.168 243.788 312.339 243.752C312.422 243.739 312.498 243.7 312.556 243.64C312.615 243.58 312.652 243.502 312.663 243.419V243.24C312.681 243.087 312.537 243.006 312.357 243.042Z" fill="#0F2C2A"/>
    <path d="M311.062 242.269C310.979 242.282 310.903 242.321 310.845 242.381C310.786 242.441 310.749 242.518 310.738 242.601V242.781C310.738 242.925 310.873 243.015 311.053 242.97C311.135 242.956 311.211 242.916 311.269 242.856C311.327 242.796 311.365 242.72 311.377 242.637V242.457C311.377 242.314 311.242 242.224 311.062 242.269Z" fill="#0F2C2A"/>
    <path d="M310.936 239.14C310.854 239.154 310.778 239.194 310.72 239.254C310.662 239.314 310.624 239.39 310.612 239.473V239.653C310.612 239.796 310.747 239.877 310.918 239.841C311 239.83 311.076 239.793 311.134 239.734C311.193 239.676 311.231 239.6 311.242 239.518V239.338C311.251 239.14 311.116 239.086 310.936 239.14Z" fill="#0F2C2A"/>
    <path d="M314.658 247.474C314.576 247.488 314.5 247.528 314.442 247.588C314.384 247.648 314.346 247.724 314.334 247.807V247.986C314.334 248.13 314.469 248.22 314.649 248.175C314.731 248.162 314.808 248.123 314.866 248.063C314.924 248.003 314.962 247.926 314.972 247.843V247.663C314.972 247.519 314.828 247.429 314.658 247.474Z" fill="#0F2C2A"/>
    <path d="M316.645 244.966C316.563 244.982 316.487 245.022 316.428 245.082C316.369 245.141 316.329 245.216 316.312 245.298V245.487C316.312 245.631 316.456 245.712 316.627 245.676C316.711 245.661 316.787 245.62 316.845 245.559C316.904 245.497 316.941 245.418 316.951 245.334V245.155C316.969 245.011 316.825 244.93 316.645 244.966Z" fill="#0F2C2A"/>
    <path d="M316.645 247.968C316.562 247.981 316.486 248.021 316.428 248.081C316.369 248.141 316.332 248.218 316.321 248.301V248.481C316.321 248.625 316.465 248.715 316.645 248.67C316.728 248.655 316.804 248.615 316.863 248.555C316.923 248.496 316.962 248.42 316.978 248.337V248.13C316.969 248.013 316.825 247.924 316.645 247.968Z" fill="#0F2C2A"/>
    <path d="M316.258 238.43C316.176 238.443 316.099 238.482 316.041 238.542C315.983 238.602 315.945 238.679 315.935 238.762V238.942C315.935 239.086 316.078 239.176 316.258 239.131C316.339 239.114 316.413 239.074 316.471 239.014C316.529 238.955 316.567 238.88 316.582 238.798V238.619C316.573 238.475 316.456 238.385 316.258 238.43Z" fill="#0F2C2A"/>
    <path d="M314.469 240.884C314.387 240.898 314.312 240.938 314.253 240.998C314.195 241.058 314.158 241.134 314.146 241.217V241.397C314.146 241.54 314.28 241.63 314.46 241.585C314.543 241.572 314.619 241.533 314.677 241.473C314.736 241.413 314.773 241.336 314.784 241.253V241.073C314.793 240.938 314.658 240.839 314.469 240.884Z" fill="#0F2C2A"/>
    <path d="M314.775 243.851C314.692 243.866 314.616 243.906 314.557 243.965C314.497 244.025 314.457 244.101 314.442 244.184V244.363C314.442 244.507 314.586 244.597 314.757 244.552C314.84 244.539 314.916 244.5 314.974 244.44C315.033 244.38 315.07 244.303 315.081 244.22V244.04C315.099 243.896 314.955 243.806 314.775 243.851Z" fill="#0F2C2A"/>
    <path d="M316.267 241.666C316.184 241.679 316.108 241.719 316.05 241.779C315.991 241.839 315.954 241.916 315.943 241.999V242.179C315.943 242.323 316.087 242.403 316.267 242.368C316.349 242.353 316.425 242.313 316.483 242.254C316.541 242.194 316.579 242.117 316.591 242.035V241.837C316.591 241.711 316.456 241.63 316.267 241.666Z" fill="#0F2C2A"/>
    <path d="M312.132 240.417C312.05 240.43 311.973 240.469 311.915 240.529C311.857 240.589 311.819 240.666 311.809 240.749V240.929C311.809 241.073 311.952 241.163 312.132 241.118C312.215 241.103 312.291 241.063 312.35 241.004C312.41 240.944 312.45 240.868 312.465 240.785V240.606C312.447 240.462 312.303 240.372 312.132 240.417Z" fill="#0F2C2A"/>
    <path d="M314.721 237.342C314.639 237.356 314.564 237.396 314.505 237.456C314.447 237.516 314.409 237.592 314.397 237.675V237.854C314.397 237.998 314.532 238.079 314.712 238.043C314.794 238.029 314.87 237.989 314.928 237.929C314.986 237.87 315.024 237.793 315.036 237.711V237.531C315.045 237.342 314.901 237.261 314.721 237.342Z" fill="#0F2C2A"/>
    <path d="M312.977 236.659C312.916 236.671 312.86 236.701 312.816 236.746C312.773 236.791 312.744 236.849 312.734 236.91V237.054C312.734 237.162 312.842 237.225 312.977 237.198C313.038 237.186 313.095 237.155 313.138 237.11C313.181 237.065 313.21 237.008 313.22 236.946V236.803C313.22 236.695 313.112 236.632 312.977 236.659Z" fill="#0F2C2A"/>
    <path d="M312.419 249.299C312.337 249.312 312.26 249.351 312.202 249.411C312.144 249.471 312.106 249.549 312.096 249.632V249.811C312.096 249.955 312.24 250.036 312.419 250C312.502 249.984 312.577 249.944 312.636 249.885C312.695 249.825 312.736 249.75 312.752 249.668V249.488C312.734 249.344 312.59 249.263 312.419 249.299Z" fill="#0F2C2A"/>
    <path fill-rule="evenodd" clip-rule="evenodd" d="M300.148 294.538H314.991L315.036 294.403C316.85 288.092 316.772 281.386 314.811 275.119L314.739 274.912H300.148C298.188 281.307 298.188 288.143 300.148 294.538Z" fill="#5DB040"/>
    <path d="M312.618 281.376H302.073C300.886 281.376 299.924 282.338 299.924 283.525V285.925C299.924 287.112 300.886 288.074 302.073 288.074H312.618C313.805 288.074 314.767 287.112 314.767 285.925V283.525C314.767 282.338 313.805 281.376 312.618 281.376Z" fill="#0F2C2A"/>
    <path d="M310.097 285.376C310.252 285.376 310.384 285.34 310.495 285.267C310.604 285.194 310.68 285.095 310.724 284.969L310.535 284.86C310.47 285.06 310.323 285.16 310.092 285.16C309.979 285.16 309.892 285.138 309.832 285.092C309.772 285.045 309.742 284.982 309.742 284.905C309.742 284.826 309.772 284.767 309.832 284.727C309.892 284.688 309.992 284.646 310.133 284.602C310.202 284.58 310.255 284.563 310.291 284.55C310.328 284.536 310.373 284.515 310.429 284.488C310.482 284.46 310.522 284.432 310.549 284.403C310.576 284.373 310.601 284.335 310.623 284.287C310.643 284.24 310.653 284.186 310.653 284.126C310.653 283.983 310.603 283.869 310.502 283.785C310.401 283.7 310.278 283.658 310.133 283.658C310.002 283.658 309.888 283.691 309.792 283.757C309.694 283.823 309.621 283.911 309.572 284.02L309.756 284.126C309.827 283.956 309.953 283.871 310.133 283.871C310.223 283.871 310.295 283.893 310.35 283.937C310.406 283.981 310.433 284.041 310.433 284.117C310.433 284.189 310.407 284.245 310.355 284.282C310.303 284.32 310.213 284.36 310.085 284.401C310.04 284.415 310.007 284.425 309.988 284.432C309.969 284.438 309.94 284.449 309.901 284.465C309.86 284.48 309.83 284.493 309.811 284.503C309.792 284.512 309.767 284.525 309.735 284.543C309.702 284.56 309.678 284.577 309.662 284.592C309.646 284.608 309.628 284.628 309.607 284.652C309.585 284.674 309.569 284.697 309.56 284.72C309.55 284.744 309.543 284.772 309.536 284.803C309.528 284.833 309.524 284.865 309.524 284.9C309.524 285.045 309.577 285.161 309.683 285.248C309.789 285.333 309.927 285.376 310.097 285.376ZM309.062 285.147H308.329V285.345H309.272V283.766H308.34V283.964H309.062V284.449H308.397V284.646H309.062V285.147ZM307.866 285.147H307.132V285.345H308.076V283.766H307.144V283.964H307.866V284.449H307.2V284.646H307.866V285.147ZM306.263 283.766C306.048 283.766 305.869 283.842 305.728 283.996C305.585 284.148 305.514 284.334 305.514 284.555C305.514 284.776 305.585 284.964 305.728 285.117C305.869 285.269 306.048 285.345 306.263 285.345H306.879V283.766H306.263ZM306.263 285.147C306.102 285.147 305.97 285.09 305.868 284.977C305.766 284.864 305.715 284.724 305.715 284.555C305.715 284.387 305.766 284.246 305.868 284.133C305.97 284.02 306.102 283.964 306.263 283.964H306.669V285.147H306.263ZM304.807 285.374C304.954 285.374 305.08 285.34 305.186 285.271C305.289 285.201 305.362 285.107 305.405 284.986L305.224 284.883C305.162 285.074 305.022 285.169 304.802 285.169C304.694 285.169 304.611 285.147 304.554 285.104C304.497 285.059 304.468 284.999 304.468 284.925C304.468 284.85 304.497 284.794 304.554 284.756C304.611 284.719 304.706 284.679 304.84 284.637C304.907 284.615 304.957 284.599 304.992 284.587C305.026 284.573 305.07 284.554 305.122 284.528C305.174 284.501 305.212 284.474 305.238 284.447C305.263 284.418 305.286 284.382 305.307 284.336C305.327 284.291 305.337 284.24 305.337 284.183C305.337 284.046 305.289 283.938 305.192 283.858C305.096 283.777 304.979 283.736 304.84 283.736C304.716 283.736 304.607 283.768 304.515 283.831C304.422 283.894 304.352 283.978 304.306 284.081L304.482 284.183C304.549 284.02 304.669 283.939 304.84 283.939C304.926 283.939 304.995 283.96 305.048 284.002C305.101 284.045 305.127 284.102 305.127 284.174C305.127 284.243 305.102 284.296 305.053 284.332C305.003 284.368 304.917 284.406 304.795 284.445C304.752 284.458 304.721 284.468 304.703 284.474C304.685 284.48 304.657 284.491 304.619 284.506C304.58 284.521 304.552 284.533 304.533 284.542C304.515 284.551 304.491 284.564 304.461 284.58C304.43 284.597 304.406 284.612 304.391 284.628C304.376 284.643 304.359 284.661 304.339 284.684C304.318 284.705 304.303 284.727 304.294 284.749C304.285 284.772 304.278 284.798 304.272 284.828C304.264 284.857 304.26 284.888 304.26 284.921C304.26 285.059 304.311 285.17 304.412 285.253C304.512 285.334 304.644 285.374 304.807 285.374Z" fill="white"/>
    <path d="M299.888 275.694H315.144C315.303 275.694 315.432 275.566 315.432 275.407V274.508C315.432 274.349 315.303 274.22 315.144 274.22H299.888C299.729 274.22 299.6 274.349 299.6 274.508V275.407C299.6 275.566 299.729 275.694 299.888 275.694Z" fill="#416E6A"/>
    <path d="M314.523 275.694H314.838V274.22H314.523V275.694Z" fill="#1C4A45"/>
    <path d="M313.247 275.694H313.562V274.22H313.247V275.694Z" fill="#1C4A45"/>
    <path d="M311.961 275.694H312.275V274.22H311.961V275.694Z" fill="#1C4A45"/>
    <path d="M310.684 275.694H310.999V274.22H310.684V275.694Z" fill="#1C4A45"/>
    <path d="M309.408 275.694H309.723V274.22H309.408V275.694Z" fill="#1C4A45"/>
    <path d="M308.122 275.694H308.437V274.22H308.122V275.694Z" fill="#1C4A45"/>
    <path d="M306.837 275.694H307.151V274.22H306.837V275.694Z" fill="#1C4A45"/>
    <path d="M305.569 275.694H305.884V274.22H305.569V275.694Z" fill="#1C4A45"/>
    <path d="M304.283 275.694H304.598V274.22H304.283V275.694Z" fill="#1C4A45"/>
    <path d="M302.998 275.694H303.312V274.22H302.998V275.694Z" fill="#1C4A45"/>
    <path d="M301.73 275.694H302.045V274.22H301.73V275.694Z" fill="#1C4A45"/>
    <path d="M300.444 275.694H300.759V274.22H300.444V275.694Z" fill="#1C4A45"/>
    <path d="M299.888 295.023H315.144C315.303 295.023 315.432 294.895 315.432 294.736V293.837C315.432 293.678 315.303 293.549 315.144 293.549H299.888C299.729 293.549 299.6 293.678 299.6 293.837V294.736C299.6 294.895 299.729 295.023 299.888 295.023Z" fill="#416E6A"/>
    <path d="M314.397 295.023H314.712V293.549H314.397V295.023Z" fill="#1C4A45"/>
    <path d="M313.111 295.023H313.426V293.549H313.111V295.023Z" fill="#1C4A45"/>
    <path d="M311.835 295.023H312.149V293.549H311.835V295.023Z" fill="#1C4A45"/>
    <path d="M310.55 295.023H310.864V293.549H310.55V295.023Z" fill="#1C4A45"/>
    <path d="M309.273 295.023H309.588V293.549H309.273V295.023Z" fill="#1C4A45"/>
    <path d="M307.997 295.023H308.312V293.549H307.997V295.023Z" fill="#1C4A45"/>
    <path d="M306.711 295.023H307.025V293.549H306.711V295.023Z" fill="#1C4A45"/>
    <path d="M305.433 295.023H305.748V293.549H305.433V295.023Z" fill="#1C4A45"/>
    <path d="M304.157 295.023H304.472V293.549H304.157V295.023Z" fill="#1C4A45"/>
    <path d="M302.872 295.023H303.187V293.549H302.872V295.023Z" fill="#1C4A45"/>
    <path d="M301.586 295.023H301.9V293.549H301.586V295.023Z" fill="#1C4A45"/>
    <path d="M300.319 295.023H300.634V293.549H300.319V295.023Z" fill="#1C4A45"/>
    <path d="M307.161 283.084C308.834 283.084 310.19 281.728 310.19 280.055C310.19 278.381 308.834 277.025 307.161 277.025C305.487 277.025 304.131 278.381 304.131 280.055C304.131 281.728 305.487 283.084 307.161 283.084Z" fill="white"/>
    <path d="M307.214 281.826C307.483 281.826 309.335 281.628 309.2 279.129C308.883 279.153 308.575 279.245 308.297 279.4C308.019 279.554 307.778 279.766 307.589 280.022C307.401 280.278 307.269 280.572 307.205 280.883C307.14 281.194 307.143 281.516 307.214 281.826Z" fill="#458430"/>
    <path d="M307.214 281.826H307.259C307.327 281.764 307.39 281.698 307.448 281.628L307.502 281.574L307.556 281.52V281.475L307.61 281.412V281.349L307.763 281.124V281.07L307.817 280.999L307.942 280.801L308.059 280.621V280.576L308.113 280.504V280.459L308.194 280.324L308.311 280.135L308.185 280.315L308.086 280.441C308.055 280.498 308.019 280.552 307.978 280.603L307.924 280.684L307.835 280.81L307.727 280.972L307.655 281.079V281.133V281.187L307.565 281.313V281.367V281.439L307.511 281.502L307.466 281.565L307.421 281.628L307.376 281.691L307.196 281.889L307.214 281.826Z" fill="#458430"/>
    <path d="M307.915 280.423C307.915 280.423 307.915 280.468 307.915 280.531V280.774C307.915 280.819 307.915 280.864 307.915 280.909C307.915 280.954 307.915 280.909 307.915 280.963V281.017C307.911 281.031 307.911 281.047 307.915 281.062C307.916 281.041 307.916 281.02 307.915 280.999C307.92 280.954 307.92 280.909 307.915 280.864V280.72C307.915 280.72 307.915 280.675 307.915 280.657V280.495C307.933 280.495 307.924 280.423 307.915 280.423Z" fill="#458430"/>
    <path d="M308.265 279.812C308.262 279.839 308.262 279.866 308.265 279.893V280.099C308.27 280.123 308.27 280.148 308.265 280.171V280.252C308.266 280.267 308.266 280.282 308.265 280.297V280.198C308.27 280.175 308.27 280.15 308.265 280.126V280.082V279.875V279.794V279.812Z" fill="#458430"/>
    <path d="M308.913 280.1C308.913 280.1 308.913 280.1 308.832 280.1L308.634 280.144L308.454 280.225L308.4 280.27H308.454L308.643 280.207L308.823 280.144C308.886 280.118 308.922 280.109 308.913 280.1Z" fill="#458430"/>
    <path d="M308.572 280.684H308.32H308.194L308.104 280.747H308.158L308.248 280.702H308.302H308.545L308.572 280.684Z" fill="#458430"/>
    <path d="M308.032 281.277H307.942H307.852H307.753L307.646 281.34H307.69L307.789 281.295H307.888H307.969C308.005 281.304 308.032 281.286 308.032 281.277Z" fill="#458430"/>
    <path d="M307.16 281.889C307.214 281.628 307.51 279.785 305.065 279.272C305.007 279.585 305.016 279.907 305.094 280.215C305.171 280.524 305.314 280.812 305.513 281.061C305.711 281.309 305.961 281.512 306.246 281.654C306.53 281.797 306.842 281.877 307.16 281.889Z" fill="#458430"/>
    <path d="M307.161 281.889V281.844V281.79C307.161 281.718 307.071 281.637 307.026 281.556L306.981 281.493L306.927 281.43V281.385V281.322L306.873 281.259L306.693 281.052V281.008L306.63 280.936L306.477 280.765L306.333 280.603L306.27 280.531L306.163 280.414L306.01 280.261L306.145 280.432L306.252 280.558L306.369 280.702L306.441 280.783L306.54 280.9L306.666 281.043L306.747 281.133L306.792 281.187L306.837 281.232V281.277L306.936 281.385L306.981 281.439L307.035 281.502V281.565L307.089 281.628L307.134 281.691V281.754L307.277 281.978L307.161 281.889Z" fill="#458430"/>
    <path d="M305.982 280.855C305.982 280.855 305.982 280.855 306.081 280.855H306.126H306.189H306.315L306.441 280.9H306.495H306.567H306.63H306.576L306.45 280.846H306.306H306.198C306.018 280.837 305.982 280.846 305.982 280.855Z" fill="#458430"/>
    <path d="M305.92 279.794C305.92 279.794 305.92 279.794 305.92 279.875C305.911 279.943 305.911 280.013 305.92 280.082C305.914 280.147 305.914 280.213 305.92 280.279V280.333V280.261C305.92 280.207 305.92 280.144 305.92 280.064C305.925 279.998 305.925 279.932 305.92 279.866C305.938 279.83 305.929 279.794 305.92 279.794Z" fill="#458430"/>
    <path d="M306.396 280.279V280.324V280.369V280.63C306.396 280.63 306.396 280.702 306.396 280.729V280.657C306.398 280.624 306.398 280.591 306.396 280.558V280.45V280.18C306.396 280.18 306.404 280.279 306.396 280.279Z" fill="#458430"/>
    <path d="M306.836 280.954C306.836 280.954 306.836 280.954 306.836 281.043V281.133C306.832 281.169 306.832 281.205 306.836 281.241V281.358C306.836 281.358 306.836 281.358 306.836 281.403C306.837 281.388 306.837 281.373 306.836 281.358V281.25C306.836 281.25 306.836 281.178 306.836 281.142C306.836 281.106 306.836 281.079 306.836 281.052C306.836 281.026 306.845 280.954 306.836 280.954Z" fill="#458430"/>
    <path d="M307.187 281.844V281.889C307.43 281.7 309.039 280.234 307.187 277.996C306.914 278.236 306.695 278.532 306.545 278.864C306.395 279.196 306.317 279.556 306.317 279.92C306.317 280.284 306.395 280.644 306.545 280.976C306.695 281.307 306.914 281.603 307.187 281.844Z" fill="#5DB040"/>
    <path d="M307.188 281.844V281.889C307.188 281.889 307.188 281.844 307.188 281.817C307.188 281.79 307.187 281.619 307.232 281.502V281.295V281.071C307.237 281.038 307.237 281.004 307.232 280.972V280.216C307.232 280.118 307.232 280.028 307.232 279.938V279.686V279.47C307.232 279.398 307.232 279.335 307.232 279.281C307.232 279.228 307.232 279.084 307.232 279.03V279.102V279.353C307.228 279.416 307.228 279.479 307.232 279.542V280.064V281.044V281.268C307.232 281.268 307.232 281.322 307.232 281.358V281.61C307.232 281.727 307.232 281.826 307.232 281.925L307.188 281.844Z" fill="#5DB040"/>
    <path d="M306.863 280.046C306.863 280.046 306.863 280.09 306.926 280.153L306.971 280.207L307.061 280.333C307.084 280.38 307.111 280.426 307.142 280.468V280.531V280.576C307.142 280.576 307.142 280.576 307.142 280.522V280.459V280.396C307.122 280.345 307.095 280.296 307.061 280.252C307.036 280.202 307.002 280.157 306.962 280.117L306.917 280.064C306.908 280.064 306.863 280.037 306.863 280.046Z" fill="#5DB040"/>
    <path d="M306.765 279.227L306.828 279.299L306.882 279.362L306.935 279.434V279.479C306.952 279.502 306.967 279.526 306.98 279.551C306.98 279.551 306.98 279.551 306.98 279.605V279.551C306.98 279.551 306.98 279.551 306.98 279.488L306.935 279.407L306.882 279.335L306.801 279.29L306.765 279.227Z" fill="#5DB040"/>
    <path d="M307.574 279.039C307.574 279.039 307.574 279.039 307.493 279.093L307.34 279.272C307.297 279.339 307.258 279.408 307.224 279.479C307.224 279.479 307.224 279.533 307.224 279.551V279.497L307.349 279.308C307.397 279.249 307.439 279.186 307.475 279.12C307.565 279.084 307.583 279.048 307.574 279.039Z" fill="#5DB040"/>
    <path d="M307.664 279.83H307.592H307.547V279.884C307.529 279.922 307.514 279.961 307.502 280.001V280.091V280.019C307.523 279.985 307.542 279.948 307.556 279.911V279.857L307.664 279.83Z" fill="#5DB040"/>
    <path d="M307.565 280.765C307.565 280.765 307.565 280.765 307.484 280.819L307.412 280.9C307.391 280.938 307.367 280.974 307.34 281.008C307.32 281.049 307.302 281.091 307.286 281.133C307.286 281.133 307.286 281.133 307.286 281.187V281.304C307.291 281.29 307.291 281.274 307.286 281.259C307.304 281.221 307.325 281.185 307.349 281.151L307.412 281.044L307.466 280.954C307.556 280.801 307.574 280.765 307.565 280.765Z" fill="#5DB040"/>
    <path fill-rule="evenodd" clip-rule="evenodd" d="M263.943 229.583V231.804H258.181V229.574H263.943V229.583Z" fill="#1C4A45"/>
    <path fill-rule="evenodd" clip-rule="evenodd" d="M264.663 228.451V229.637C264.663 229.637 264.663 229.7 264.663 229.727V229.799C264.659 229.814 264.659 229.829 264.663 229.844C264.516 229.983 264.332 230.076 264.133 230.114C264.034 230.124 263.935 230.124 263.836 230.114H258.667C258.568 230.123 258.469 230.123 258.37 230.114L258.226 230.069H258.118H258.055H258.01H257.956C257.913 230.027 257.876 229.979 257.849 229.925C257.795 229.845 257.767 229.751 257.768 229.655V228.469C257.773 228.367 257.802 228.268 257.854 228.18C257.906 228.093 257.978 228.019 258.064 227.965C258.235 227.849 258.434 227.781 258.64 227.767H264.106C264.309 227.782 264.504 227.85 264.672 227.965C264.732 228.122 264.729 228.296 264.663 228.451Z" fill="white"/>
    <path fill-rule="evenodd" clip-rule="evenodd" d="M264.663 228.909V229.637C264.663 229.637 264.663 229.7 264.663 229.727V229.799C264.659 229.814 264.659 229.829 264.663 229.844C264.516 229.983 264.332 230.076 264.133 230.114C264.034 230.124 263.935 230.124 263.836 230.114H258.667C258.568 230.123 258.469 230.123 258.37 230.114L258.226 230.069H258.118H258.055H258.01H257.956C257.913 230.027 257.876 229.979 257.849 229.925C257.795 229.845 257.767 229.751 257.768 229.655V228.927H264.96L264.663 228.909Z" fill="#458430"/>
    <path fill-rule="evenodd" clip-rule="evenodd" d="M264.366 227.947V228.909H263.8V227.749C264.003 227.764 264.198 227.832 264.366 227.947Z" fill="#458430"/>
    <path d="M263.368 227.74H262.793V228.909H263.368V227.74Z" fill="#458430"/>
    <path d="M262.362 227.74H261.787V228.909H262.362V227.74Z" fill="#458430"/>
    <path d="M261.356 227.74H260.78V228.909H261.356V227.74Z" fill="#458430"/>
    <path d="M260.348 227.74H259.772V228.909H260.348V227.74Z" fill="#458430"/>
    <path d="M259.341 227.74H258.766V228.909H259.341V227.74Z" fill="#458430"/>
    <path fill-rule="evenodd" clip-rule="evenodd" d="M258.334 227.749V228.909H257.759V227.947C257.93 227.831 258.128 227.763 258.334 227.749Z" fill="#458430"/>
    <path fill-rule="evenodd" clip-rule="evenodd" d="M273.187 230.905H258.092C257.464 230.905 256.862 231.154 256.417 231.597C255.972 232.04 255.721 232.641 255.719 233.269V251.25C255.719 251.879 255.969 252.483 256.414 252.928C256.859 253.373 257.463 253.623 258.092 253.623H273.187C273.816 253.623 274.42 253.373 274.865 252.928C275.31 252.483 275.56 251.879 275.56 251.25V233.269C275.558 232.641 275.307 232.04 274.862 231.597C274.417 231.154 273.815 230.905 273.187 230.905ZM267.145 232.469H273.142C273.38 232.469 273.609 232.564 273.778 232.733C273.946 232.901 274.041 233.13 274.041 233.368V240.498C274.047 240.619 274.028 240.741 273.986 240.855C273.943 240.97 273.878 241.074 273.794 241.163C273.71 241.251 273.609 241.321 273.497 241.369C273.384 241.417 273.264 241.442 273.142 241.442L266.201 233.35C266.204 233.23 266.23 233.111 266.279 233.001C266.328 232.891 266.399 232.792 266.487 232.71C266.575 232.628 266.679 232.564 266.792 232.523C266.905 232.481 267.025 232.463 267.145 232.469Z" fill="#458430"/>
    <path d="M275.551 242.26H255.719V251.079H275.551V242.26Z" fill="#1C4A45"/>
    <path d="M271.64 245.739H272.961V247.825H272.656V246.926H271.685V246.665H272.656V245.991H271.64V245.739Z" fill="white"/>
    <path d="M270.965 246.899H269.994V246.638H270.965V246H269.913V245.739H271.271V247.825H269.904V247.564H270.965V246.899Z" fill="white"/>
    <path d="M267.837 247.825L268.376 246.989C268.243 246.944 268.125 246.863 268.035 246.755C267.947 246.652 267.899 246.521 267.9 246.386C267.899 246.298 267.918 246.212 267.955 246.132C267.993 246.053 268.048 245.983 268.116 245.928C268.252 245.801 268.433 245.733 268.619 245.739H269.518V247.825H269.212V247.024H268.673L268.161 247.825H267.837ZM268.619 246.027C268.566 246.024 268.514 246.033 268.464 246.051C268.415 246.07 268.37 246.098 268.331 246.134C268.291 246.169 268.259 246.212 268.237 246.26C268.215 246.308 268.204 246.36 268.204 246.413C268.204 246.466 268.215 246.518 268.237 246.566C268.259 246.614 268.291 246.657 268.331 246.692C268.37 246.728 268.415 246.756 268.464 246.775C268.514 246.793 268.566 246.802 268.619 246.8H269.23V246.027H268.619Z" fill="white"/>
    <path d="M267.765 245.739V246H267.09V247.798H266.794V246H266.11V245.739H267.765Z" fill="white"/>
    <path d="M265.814 247.825H265.509V245.739H265.814V247.825Z" fill="white"/>
    <path d="M264.716 245.739H265.022V247.825H263.728V247.564H264.716V245.739Z" fill="white"/>
    <path d="M263.414 247.825H263.108V245.739H263.414V247.825Z" fill="white"/>
    <path d="M261.274 245.973V245.739H262.713V246H261.616L262.731 247.582V247.825H261.229V247.564H262.371L261.274 245.973Z" fill="white"/>
    <path d="M260.6 246.899H259.638V246.638H260.6V246H259.557V245.739H260.906V247.825H259.539V247.564H260.6V246.899Z" fill="white"/>
    <path d="M257.48 247.825L258.02 246.989C257.885 246.946 257.766 246.865 257.678 246.755C257.591 246.652 257.543 246.521 257.543 246.386C257.543 246.299 257.562 246.214 257.597 246.135C257.633 246.056 257.685 245.985 257.75 245.928C257.888 245.803 258.068 245.735 258.254 245.739H259.153V247.825H258.847V247.025H258.308L257.795 247.825H257.48ZM258.254 246.027C258.148 246.025 258.045 246.064 257.966 246.134C257.928 246.171 257.899 246.214 257.878 246.262C257.858 246.31 257.847 246.361 257.847 246.413C257.847 246.465 257.858 246.517 257.878 246.565C257.899 246.613 257.928 246.656 257.966 246.692C258.045 246.763 258.148 246.801 258.254 246.8H258.865V246.027H258.254Z" fill="white"/>
    <path d="M266.111 238.682C264.153 237.638 261.87 237.383 259.73 237.97C257.59 238.557 255.756 239.941 254.604 241.837L218.463 300.678L235.463 311.961L269.626 250.495C270.176 249.489 270.522 248.385 270.643 247.246C270.764 246.106 270.658 244.954 270.331 243.855C270.004 242.757 269.463 241.734 268.739 240.846C268.014 239.958 267.121 239.223 266.111 238.682Z" fill="#98492F"/>
    <path d="M232.9 248.796C231.795 248.199 230.582 247.826 229.333 247.699C228.083 247.571 226.821 247.691 225.617 248.052C224.414 248.412 223.294 249.007 222.321 249.801C221.347 250.595 220.54 251.573 219.945 252.679L198.683 291.283C197.219 294.011 196.896 297.207 197.786 300.172C198.676 303.137 200.706 305.627 203.43 307.097C204.824 307.845 206.355 308.302 207.93 308.441C209.505 308.579 211.092 308.397 212.595 307.904C214.098 307.412 215.485 306.62 216.673 305.575C217.861 304.531 218.824 303.256 219.505 301.829L236.991 261.328C238.051 259.114 238.217 256.576 237.455 254.242C236.694 251.909 235.062 249.958 232.9 248.796Z" fill="#98492F"/>
    <path d="M211.064 242.448C210.018 241.824 208.86 241.412 207.655 241.236C206.451 241.059 205.223 241.122 204.043 241.42C202.862 241.718 201.752 242.245 200.775 242.973C199.799 243.7 198.975 244.612 198.351 245.658L176.775 280.522C175.238 283.102 174.788 286.187 175.525 289.098C176.262 292.01 178.124 294.51 180.704 296.048C182.021 296.834 183.484 297.344 185.005 297.547C186.525 297.75 188.071 297.641 189.548 297.228C191.025 296.816 192.403 296.107 193.598 295.145C194.793 294.183 195.78 292.989 196.499 291.634L214.48 254.774C215.605 252.675 215.878 250.222 215.242 247.927C214.605 245.631 213.109 243.669 211.064 242.448Z" fill="#98492F"/>
    <path d="M188.795 238.52C186.953 237.348 184.72 236.954 182.588 237.426C180.456 237.898 178.598 239.197 177.422 241.037L153.005 277.654C151.57 279.907 151.088 282.637 151.664 285.244C152.241 287.852 153.829 290.124 156.08 291.562C157.228 292.295 158.513 292.787 159.857 293.009C161.202 293.23 162.577 293.177 163.9 292.852C165.223 292.526 166.466 291.936 167.554 291.116C168.642 290.297 169.553 289.265 170.23 288.083L191.492 249.551C192.54 247.716 192.844 245.55 192.342 243.498C191.841 241.446 190.571 239.664 188.795 238.52Z" fill="#98492F"/>
    <path d="M259.143 328.413C246.026 322.452 226.131 329.735 226.131 329.735L248.84 287.04L167.497 265.517C161.204 263.396 154.731 269.248 151.647 276.072L135.968 304.517C132.858 310.369 131.299 316.919 131.437 323.544C131.576 330.17 133.408 336.649 136.759 342.366C135.042 345.346 133.948 348.645 133.545 352.061C133.142 355.478 133.437 358.94 134.413 362.239C135.389 365.538 137.026 368.603 139.224 371.25C141.421 373.896 144.134 376.069 147.197 377.635L156.376 382.327C161.922 385.148 168.313 385.828 174.329 384.238C180.345 382.648 185.564 378.899 188.992 373.706C195.801 374.543 202.709 373.595 209.041 370.955C228.37 362.864 240.929 349.549 254.486 345.144C257.202 344.226 259.457 342.293 260.779 339.75L261.93 337.583C263.674 334.329 262.568 329.941 259.143 328.413Z" fill="#98492F"/>
    <path d="M253.569 171.677C254.517 171.677 255.286 170.909 255.286 169.96C255.286 169.012 254.517 168.243 253.569 168.243C252.62 168.243 251.852 169.012 251.852 169.96C251.852 170.909 252.62 171.677 253.569 171.677Z" stroke="#040B0A" stroke-width="1.79805" stroke-miterlimit="10"/>
    <path d="M250.666 172.54L252.32 171.147" stroke="#040B0A" stroke-width="1.79805" stroke-miterlimit="10" stroke-linecap="round"/>
    <path d="M302.89 153.023H268.727C267.535 153.023 266.392 152.549 265.549 151.706C264.706 150.863 264.232 149.72 264.232 148.528V146.28H307.457V148.528C307.457 149.124 307.339 149.714 307.108 150.265C306.878 150.815 306.54 151.313 306.115 151.732C305.69 152.15 305.186 152.48 304.632 152.701C304.079 152.923 303.486 153.032 302.89 153.023Z" fill="#040B0A"/>
    <path d="M363.035 220.863L400.165 371.225C400.572 372.874 400.597 374.595 400.24 376.256C399.883 377.917 399.151 379.475 398.102 380.811C397.053 382.148 395.712 383.227 394.183 383.968C392.654 384.709 390.977 385.092 389.277 385.087H345.45C342.687 385.089 340.022 384.068 337.968 382.22C335.915 380.372 334.618 377.829 334.329 375.081C332.585 358.359 328.333 325.635 321.06 315.647L356.715 297.666L363.035 220.863Z" fill="#98492F"/>
    </g>
    <defs>
    <clipPath id="clip0_2739_49407">
    <rect width="552" height="385.681" fill="white"/>
    </clipPath>
    </defs>
    </svg>
    