<svg width="16" height="14" viewBox="0 0 16 14" fill="none" xmlns="http://www.w3.org/2000/svg">
<path d="M1 6.00019H12.59L9.29 2.71019C9.1017 2.52188 8.99591 2.26649 8.99591 2.00019C8.99591 1.73388 9.1017 1.47849 9.29 1.29019C9.4783 1.10188 9.7337 0.996094 10 0.996094C10.2663 0.996094 10.5217 1.10188 10.71 1.29019L15.71 6.29019C15.801 6.38529 15.8724 6.49743 15.92 6.62019C16.02 6.86365 16.02 7.13672 15.92 7.38019C15.8724 7.50294 15.801 7.61508 15.71 7.71019L10.71 12.7102C10.617 12.8039 10.5064 12.8783 10.3846 12.9291C10.2627 12.9798 10.132 13.006 10 13.006C9.86799 13.006 9.73728 12.9798 9.61542 12.9291C9.49356 12.8783 9.38296 12.8039 9.29 12.7102C9.19627 12.6172 9.12188 12.5066 9.07111 12.3848C9.02034 12.2629 8.9942 12.1322 8.9942 12.0002C8.9942 11.8682 9.02034 11.7375 9.07111 11.6156C9.12188 11.4937 9.19627 11.3831 9.29 11.2902L12.59 8.00019H1C0.734784 8.00019 0.480429 7.89483 0.292892 7.70729C0.105356 7.51976 0 7.2654 0 7.00019C0 6.73497 0.105356 6.48062 0.292892 6.29308C0.480429 6.10554 0.734784 6.00019 1 6.00019Z" fill="#31BC2E"/>
</svg>
