<svg width="34" height="34" viewBox="0 0 34 34" fill="none" xmlns="http://www.w3.org/2000/svg">
<path fill-rule="evenodd" clip-rule="evenodd" d="M18.6663 11.1668C18.6663 10.2464 19.4125 9.50016 20.333 9.50016H25.333C26.2535 9.50016 26.9997 10.2464 26.9997 11.1668C26.9997 12.0873 26.2535 12.8335 25.333 12.8335H20.333C19.4125 12.8335 18.6663 12.0873 18.6663 11.1668Z" fill="#E58C00"/>
<path fill-rule="evenodd" clip-rule="evenodd" d="M18.6663 22.8335C18.6663 21.913 19.4125 21.1668 20.333 21.1668H31.9997C32.9202 21.1668 33.6663 21.913 33.6663 22.8335C33.6663 23.754 32.9202 24.5002 31.9997 24.5002H20.333C19.4125 24.5002 18.6663 23.754 18.6663 22.8335Z" fill="#E58C00"/>
<path fill-rule="evenodd" clip-rule="evenodd" d="M18.6663 28.6668C18.6663 27.7464 19.4125 27.0002 20.333 27.0002H25.333C26.2535 27.0002 26.9997 27.7464 26.9997 28.6668C26.9997 29.5873 26.2535 30.3335 25.333 30.3335H20.333C19.4125 30.3335 18.6663 29.5873 18.6663 28.6668Z" fill="#E58C00"/>
<path d="M20.333 3.66683C19.4125 3.66683 18.6663 4.41302 18.6663 5.3335C18.6663 6.25397 19.4125 7.00016 20.333 7.00016H31.9997C32.9202 7.00016 33.6663 6.25397 33.6663 5.3335C33.6663 4.41302 32.9202 3.66683 31.9997 3.66683H20.333Z" fill="#E58C00"/>
<path fill-rule="evenodd" clip-rule="evenodd" d="M13.6663 0.333496H1.99967C1.55765 0.333496 1.13372 0.509091 0.821163 0.821651C0.508602 1.13421 0.333008 1.55814 0.333008 2.00016V13.6668C0.333008 14.1089 0.508602 14.5328 0.821163 14.8453C1.13372 15.1579 1.55765 15.3335 1.99967 15.3335H13.6663C14.1084 15.3335 14.5323 15.1579 14.8449 14.8453C15.1574 14.5328 15.333 14.1089 15.333 13.6668V2.00016C15.333 1.55814 15.1574 1.13421 14.8449 0.821651C14.5323 0.509091 14.1084 0.333496 13.6663 0.333496ZM3.66634 12.0002H11.9997V3.66683H3.66634V12.0002Z" fill="#31BC2E"/>
<path fill-rule="evenodd" clip-rule="evenodd" d="M13.6663 18.6668H1.99967C1.55765 18.6668 1.13372 18.8424 0.821163 19.155C0.508602 19.4675 0.333008 19.8915 0.333008 20.3335V32.0002C0.333008 32.4422 0.508602 32.8661 0.821163 33.1787C1.13372 33.4912 1.55765 33.6668 1.99967 33.6668H13.6663C14.1084 33.6668 14.5323 33.4912 14.8449 33.1787C15.1574 32.8661 15.333 32.4422 15.333 32.0002V20.3335C15.333 19.8915 15.1574 19.4675 14.8449 19.155C14.5323 18.8424 14.1084 18.6668 13.6663 18.6668ZM3.66634 30.3335H11.9997V22.0002H3.66634V30.3335Z" fill="#31BC2E"/>
</svg>
