<svg width="34" height="34" viewBox="0 0 34 34" fill="none" xmlns="http://www.w3.org/2000/svg">
<path fill-rule="evenodd" clip-rule="evenodd" d="M5.33301 30.3335H16.9997C17.4417 30.3335 17.8656 30.5091 18.1782 30.8217C18.4907 31.1342 18.6663 31.5581 18.6663 32.0002C18.6663 32.4422 18.4907 32.8661 18.1782 33.1787C17.8656 33.4912 17.4417 33.6668 16.9997 33.6668H5.33301C4.00693 33.6668 2.73516 33.14 1.79747 32.2024C0.859792 31.2647 0.333008 29.9929 0.333008 28.6668V5.3335C0.333008 4.00741 0.859792 2.73564 1.79747 1.79796C2.73516 0.86028 4.00693 0.333496 5.33301 0.333496H15.4163C15.61 0.357403 15.797 0.419732 15.9663 0.516829C16.0161 0.509763 16.0666 0.509763 16.1163 0.516829C16.2877 0.596964 16.4452 0.703856 16.583 0.833496L26.583 10.8335C26.7126 10.9713 26.8195 11.1288 26.8997 11.3002V11.4502C26.9488 11.5962 26.9823 11.7471 26.9997 11.9002V12.0002V15.3335C26.9997 15.7755 26.8241 16.1994 26.5115 16.512C26.199 16.8246 25.775 17.0002 25.333 17.0002C24.891 17.0002 24.4671 16.8246 24.1545 16.512C23.8419 16.1994 23.6663 15.7755 23.6663 15.3335V13.6668H18.6663C17.3403 13.6668 16.0685 13.14 15.1308 12.2024C14.1931 11.2647 13.6663 9.99291 13.6663 8.66683V3.66683H5.33301C4.89098 3.66683 4.46706 3.84242 4.1545 4.15499C3.84194 4.46755 3.66634 4.89147 3.66634 5.3335V28.6668C3.66634 29.1089 3.84194 29.5328 4.1545 29.8453C4.46706 30.1579 4.89098 30.3335 5.33301 30.3335ZM21.3163 10.3335L16.9997 6.01683V8.66683C16.9997 9.10886 17.1753 9.53278 17.4878 9.84534C17.8004 10.1579 18.2243 10.3335 18.6663 10.3335H21.3163ZM7.48783 10.8217C7.80039 10.5091 8.22431 10.3335 8.66634 10.3335H10.333C10.775 10.3335 11.199 10.5091 11.5115 10.8217C11.8241 11.1342 11.9997 11.5581 11.9997 12.0002C11.9997 12.4422 11.8241 12.8661 11.5115 13.1787C11.199 13.4912 10.775 13.6668 10.333 13.6668H8.66634C8.22431 13.6668 7.80039 13.4912 7.48783 13.1787C7.17527 12.8661 6.99967 12.4422 6.99967 12.0002C6.99967 11.5581 7.17527 11.1342 7.48783 10.8217ZM8.66634 17.0002H18.6663C19.1084 17.0002 19.5323 17.1758 19.8449 17.4883C20.1574 17.8009 20.333 18.2248 20.333 18.6668C20.333 19.1089 20.1574 19.5328 19.8449 19.8453C19.5323 20.1579 19.1084 20.3335 18.6663 20.3335H8.66634C8.22431 20.3335 7.80039 20.1579 7.48783 19.8453C7.17527 19.5328 6.99967 19.1089 6.99967 18.6668C6.99967 18.2248 7.17527 17.8009 7.48783 17.4883C7.80039 17.1758 8.22431 17.0002 8.66634 17.0002ZM16.5115 26.512C16.199 26.8246 15.775 27.0002 15.333 27.0002H8.66634C8.22431 27.0002 7.80039 26.8246 7.48783 26.512C7.17527 26.1994 6.99967 25.7755 6.99967 25.3335C6.99967 24.8915 7.17527 24.4675 7.48783 24.155C7.80039 23.8424 8.22431 23.6668 8.66634 23.6668H15.333C15.775 23.6668 16.199 23.8424 16.5115 24.155C16.8241 24.4675 16.9997 24.8915 16.9997 25.3335C16.9997 25.7755 16.8241 26.1994 16.5115 26.512Z" fill="#31BC2E"/>
<path fill-rule="evenodd" clip-rule="evenodd" d="M33.183 30.8168L31.233 28.8835C31.8563 27.7956 32.1057 26.5334 31.9432 25.2901C31.7806 24.0469 31.215 22.8913 30.333 22.0002C29.5214 21.1596 28.4754 20.583 27.3314 20.3454C26.1874 20.1078 24.9983 20.2203 23.9191 20.6681C22.8399 21.116 21.9206 21.8785 21.281 22.8563C20.6413 23.8341 20.311 24.9819 20.333 26.1502C20.3273 27.1555 20.5845 28.1448 21.079 29.0201C21.5736 29.8953 22.2884 30.6261 23.1526 31.1398C24.0167 31.6536 25.0001 31.9325 26.0053 31.949C27.0105 31.9654 28.0025 31.7187 28.883 31.2335L30.8163 33.1835C30.9713 33.3397 31.1556 33.4637 31.3587 33.5483C31.5618 33.6329 31.7797 33.6765 31.9997 33.6765C32.2197 33.6765 32.4375 33.6329 32.6406 33.5483C32.8437 33.4637 33.0281 33.3397 33.183 33.1835C33.3392 33.0286 33.4632 32.8442 33.5478 32.6411C33.6324 32.438 33.676 32.2202 33.676 32.0002C33.676 31.7801 33.6324 31.5623 33.5478 31.3592C33.4632 31.1561 33.3392 30.9718 33.183 30.8168ZM26.1413 28.5971C26.7948 28.5971 27.4236 28.3478 27.8997 27.9002C28.3768 27.4413 28.6526 26.812 28.6663 26.1502C28.6716 25.8126 28.607 25.4776 28.4766 25.1662C28.3463 24.8548 28.153 24.5737 27.9088 24.3405C27.6647 24.1073 27.375 23.9271 27.058 23.8112C26.7409 23.6953 26.4033 23.6461 26.0663 23.6668C25.4399 23.6853 24.844 23.9416 24.3997 24.3835C24.1644 24.6132 23.9782 24.8881 23.8521 25.1917C23.7261 25.4954 23.6629 25.8214 23.6663 26.1502C23.6669 26.8048 23.9242 27.4332 24.383 27.9002C24.859 28.3478 25.4879 28.5971 26.1413 28.5971Z" fill="#E58C00"/>
</svg>
