<svg width="34" height="30" viewBox="0 0 34 30" fill="none" xmlns="http://www.w3.org/2000/svg">
<path fill-rule="evenodd" clip-rule="evenodd" d="M23.6663 13.3333H25.333C25.775 13.3333 26.199 13.5089 26.5115 13.8215C26.8241 14.134 26.9997 14.558 26.9997 15C26.9997 15.442 26.8241 15.8659 26.5115 16.1785C26.199 16.4911 25.775 16.6667 25.333 16.6667H23.6663C23.2243 16.6667 22.8004 16.4911 22.4878 16.1785C22.1753 15.8659 21.9997 15.442 21.9997 15C21.9997 14.558 22.1753 14.134 22.4878 13.8215C22.8004 13.5089 23.2243 13.3333 23.6663 13.3333ZM23.6663 20H25.333C25.775 20 26.199 20.1756 26.5115 20.4882C26.8241 20.8007 26.9997 21.2246 26.9997 21.6667C26.9997 22.1087 26.8241 22.5326 26.5115 22.8452C26.199 23.1577 25.775 23.3333 25.333 23.3333H23.6663C23.2243 23.3333 22.8004 23.1577 22.4878 22.8452C22.1753 22.5326 21.9997 22.1087 21.9997 21.6667C21.9997 21.2246 22.1753 20.8007 22.4878 20.4882C22.8004 20.1756 23.2243 20 23.6663 20ZM25.333 10H15.333C14.891 10 14.4671 9.8244 14.1545 9.51184C13.8419 9.19928 13.6663 8.77536 13.6663 8.33333C13.6663 7.89131 13.8419 7.46738 14.1545 7.15482C14.4671 6.84226 14.891 6.66667 15.333 6.66667H25.333C25.775 6.66667 26.199 6.84226 26.5115 7.15482C26.8241 7.46738 26.9997 7.89131 26.9997 8.33333C26.9997 8.77536 26.8241 9.19928 26.5115 9.51184C26.199 9.8244 25.775 10 25.333 10ZM16.9997 16.6667H15.333C14.891 16.6667 14.4671 16.4911 14.1545 16.1785C13.8419 15.8659 13.6663 15.442 13.6663 15C13.6663 14.558 13.8419 14.134 14.1545 13.8215C14.4671 13.5089 14.891 13.3333 15.333 13.3333H16.9997C17.4417 13.3333 17.8656 13.5089 18.1782 13.8215C18.4907 14.134 18.6663 14.558 18.6663 15C18.6663 15.442 18.4907 15.8659 18.1782 16.1785C17.8656 16.4911 17.4417 16.6667 16.9997 16.6667ZM16.9997 23.3333H15.333C14.891 23.3333 14.4671 23.1577 14.1545 22.8452C13.8419 22.5326 13.6663 22.1087 13.6663 21.6667C13.6663 21.2246 13.8419 20.8007 14.1545 20.4882C14.4671 20.1756 14.891 20 15.333 20H16.9997C17.4417 20 17.8656 20.1756 18.1782 20.4882C18.4907 20.8007 18.6663 21.2246 18.6663 21.6667C18.6663 22.1087 18.4907 22.5326 18.1782 22.8452C17.8656 23.1577 17.4417 23.3333 16.9997 23.3333Z" fill="#E58C00"/>
<path fill-rule="evenodd" clip-rule="evenodd" d="M31.9997 0H8.66634C8.22431 0 7.80039 0.175595 7.48783 0.488155C7.17527 0.800716 6.99967 1.22464 6.99967 1.66667V6.66667H1.99967C1.55765 6.66667 1.13372 6.84226 0.821163 7.15482C0.508602 7.46738 0.333008 7.89131 0.333008 8.33333V25C0.333008 26.3261 0.859792 27.5979 1.79747 28.5355C2.73516 29.4732 4.00693 30 5.33301 30H26.9997C28.7678 30 30.4635 29.2976 31.7137 28.0474C32.964 26.7971 33.6663 25.1014 33.6663 23.3333V1.66667C33.6663 1.22464 33.4907 0.800716 33.1782 0.488155C32.8656 0.175595 32.4417 0 31.9997 0ZM6.51152 26.1785C6.82408 25.866 6.99967 25.442 6.99967 25V10H3.66634V25C3.66634 25.442 3.84194 25.866 4.1545 26.1785C4.46706 26.4911 4.89098 26.6667 5.33301 26.6667C5.77504 26.6667 6.19896 26.4911 6.51152 26.1785ZM29.3567 25.6904C29.9818 25.0652 30.333 24.2174 30.333 23.3333V3.33333H10.333V25C10.3285 25.5686 10.227 26.1322 10.033 26.6667H26.9997C27.8837 26.6667 28.7316 26.3155 29.3567 25.6904Z" fill="#31BC2E"/>
</svg>
