<svg width="16" height="14" viewBox="0 0 16 14" fill="none" xmlns="http://www.w3.org/2000/svg">
<path d="M1 5.99994H12.59L9.29 2.70994C9.1017 2.52164 8.99591 2.26624 8.99591 1.99994C8.99591 1.73364 9.1017 1.47825 9.29 1.28994C9.4783 1.10164 9.7337 0.99585 10 0.99585C10.2663 0.99585 10.5217 1.10164 10.71 1.28994L15.71 6.28994C15.801 6.38505 15.8724 6.49719 15.92 6.61994C16.02 6.8634 16.02 7.13648 15.92 7.37994C15.8724 7.50269 15.801 7.61484 15.71 7.70994L10.71 12.7099C10.617 12.8037 10.5064 12.8781 10.3846 12.9288C10.2627 12.9796 10.132 13.0057 10 13.0057C9.86799 13.0057 9.73728 12.9796 9.61542 12.9288C9.49356 12.8781 9.38296 12.8037 9.29 12.7099C9.19627 12.617 9.12188 12.5064 9.07111 12.3845C9.02034 12.2627 8.9942 12.132 8.9942 11.9999C8.9942 11.8679 9.02034 11.7372 9.07111 11.6154C9.12188 11.4935 9.19627 11.3829 9.29 11.2899L12.59 7.99994H1C0.734784 7.99994 0.480429 7.89458 0.292892 7.70705C0.105356 7.51951 0 7.26516 0 6.99994C0 6.73472 0.105356 6.48037 0.292892 6.29283C0.480429 6.1053 0.734784 5.99994 1 5.99994Z" fill="#367AFE"/>
</svg>
