<svg width="24" height="25" viewBox="0 0 24 25" fill="none" xmlns="http://www.w3.org/2000/svg">
<path d="M18.995 11.7892H7.40501L10.705 8.49925C10.8933 8.31094 10.9991 8.05555 10.9991 7.78925C10.9991 7.52295 10.8933 7.26755 10.705 7.07925C10.5167 6.89094 10.2613 6.78516 9.99501 6.78516C9.72871 6.78516 9.47332 6.89094 9.28501 7.07925L4.28501 12.0792C4.19397 12.1744 4.12261 12.2865 4.07501 12.4092C3.975 12.6527 3.975 12.9258 4.07501 13.1692C4.12261 13.292 4.19397 13.4041 4.28501 13.4992L9.28501 18.4992C9.37798 18.593 9.48858 18.6674 9.61044 18.7181C9.7323 18.7689 9.863 18.795 9.99501 18.795C10.127 18.795 10.2577 18.7689 10.3796 18.7181C10.5014 18.6674 10.6121 18.593 10.705 18.4992C10.7987 18.4063 10.8731 18.2957 10.9239 18.1738C10.9747 18.052 11.0008 17.9213 11.0008 17.7892C11.0008 17.6572 10.9747 17.5265 10.9239 17.4047C10.8731 17.2828 10.7987 17.1722 10.705 17.0792L7.40501 13.7892H18.995C19.2602 13.7892 19.5146 13.6839 19.7021 13.4964C19.8897 13.3088 19.995 13.0545 19.995 12.7892C19.995 12.524 19.8897 12.2697 19.7021 12.0821C19.5146 11.8946 19.2602 11.7892 18.995 11.7892Z" fill="#31BC2E"/>
</svg>
