   <svg
            width="24"
            height="24"
            viewBox="0 0 24 24"
            fill="none"
            xmlns="http://www.w3.org/2000/svg"
            className="flex-grow-0 flex-shrink-0 w-6 h-6 relative"
            preserveAspectRatio="none"
          >
            <path
              d="M5 11.0002H16.59L13.29 7.71019C13.1017 7.52188 12.9959 7.26649 12.9959 7.00019C12.9959 6.73388 13.1017 6.47849 13.29 6.29019C13.4783 6.10188 13.7337 5.99609 14 5.99609C14.2663 5.99609 14.5217 6.10188 14.71 6.29019L19.71 11.2902C19.801 11.3853 19.8724 11.4974 19.92 11.6202C20.02 11.8636 20.02 12.1367 19.92 12.3802C19.8724 12.5029 19.801 12.6151 19.71 12.7102L14.71 17.7102C14.617 17.8039 14.5064 17.8783 14.3846 17.9291C14.2627 17.9798 14.132 18.006 14 18.006C13.868 18.006 13.7373 17.9798 13.6154 17.9291C13.4936 17.8783 13.383 17.8039 13.29 17.7102C13.1963 17.6172 13.1219 17.5066 13.0711 17.3848C13.0203 17.2629 12.9942 17.1322 12.9942 17.0002C12.9942 16.8682 13.0203 16.7375 13.0711 16.6156C13.1219 16.4937 13.1963 16.3831 13.29 16.2902L16.59 13.0002H5C4.73478 13.0002 4.48043 12.8948 4.29289 12.7073C4.10536 12.5198 4 12.2654 4 12.0002C4 11.735 4.10536 11.4806 4.29289 11.2931C4.48043 11.1055 4.73478 11.0002 5 11.0002Z"
              fill="#31BC2E"
            />
          </svg>