<svg width="36" height="36" viewBox="0 0 36 36" fill="none" xmlns="http://www.w3.org/2000/svg">
<rect width="36" height="36" rx="8" fill="white"/>
<path fill-rule="evenodd" clip-rule="evenodd" d="M24.6673 21.8947C24.6673 20.6923 24.2844 19.5212 23.5741 18.5511L22.2234 16.7065C22.6974 16.3246 23.0007 15.7394 23.0007 15.0833C23.0007 14.5035 22.7638 13.9791 22.3816 13.6014L23.3224 11.7198C23.8088 10.747 22.9068 9.66011 21.861 9.95891L20.9507 10.219C20.418 10.3712 19.8499 10.3421 19.3355 10.1364L18.4649 9.78813C18.1669 9.66893 17.8344 9.66893 17.5364 9.78813L16.6659 10.1364C16.1515 10.3421 15.5833 10.3712 15.0506 10.219L14.1403 9.95891C13.0946 9.66011 12.1925 10.747 12.6789 11.7198L13.6197 13.6014C13.2375 13.9791 13.0007 14.5035 13.0007 15.0833C13.0007 15.7394 13.3039 16.3246 13.7779 16.7065L12.4272 18.5511C11.7169 19.5212 11.334 20.6923 11.334 21.8947C11.334 24.5762 13.5078 26.75 16.1893 26.75H19.812C22.4935 26.75 24.6673 24.5762 24.6673 21.8947ZM15.5066 17.1666L13.772 19.5357C13.2708 20.2202 13.0007 21.0464 13.0007 21.8947C13.0007 23.6557 14.4282 25.0833 16.1893 25.0833H19.812C21.5731 25.0833 23.0007 23.6557 23.0007 21.8947C23.0007 21.0464 22.7305 20.2202 22.2293 19.5357L20.4947 17.1666H18.0007H15.5066ZM14.6673 15.0833C14.6673 14.8532 14.8539 14.6666 15.084 14.6666H20.9173C21.1474 14.6666 21.334 14.8532 21.334 15.0833C21.334 15.3134 21.1474 15.5 20.9173 15.5H15.084C14.8539 15.5 14.6673 15.3134 14.6673 15.0833ZM18.0007 11.3975L17.2848 11.6838C16.4277 12.0267 15.4809 12.0752 14.5932 11.8217L15.1824 13H18.0007H20.819L21.4081 11.8217C20.5204 12.0752 19.5737 12.0267 18.7165 11.6838L18.0007 11.3975Z" fill="#6C6C6C"/>
<path d="M16.334 20.6011L-nan -nanL16.334 20.6011C17.099 20.2186 17.7193 19.5983 18.1018 18.8333L-nan -nanL18.1018 18.8333L-nan -nanL18.1018 18.8333C18.4842 19.5983 19.1045 20.2186 19.8695 20.6011L-nan -nanL19.8695 20.6011L-nan -nanL19.8695 20.6011C19.1045 20.9836 18.4842 21.6039 18.1018 22.3688L-nan -nanL18.1018 22.3688L-nan -nanL18.1018 22.3688C17.7193 21.6039 17.099 20.9836 16.334 20.6011L-nan -nanL16.334 20.6011Z" fill="#6C6C6C"/>
</svg>
