<svg width="20" height="20" viewBox="0 0 20 20" fill="none" xmlns="http://www.w3.org/2000/svg">
<path d="M11.1114 2.27701L16.0985 7.26408C16.1049 7.27108 16.111 7.2783 16.1168 7.28573V7.30715L16.1429 7.38471C16.1537 7.41671 16.1617 7.44956 16.1668 7.48289V7.48294V7.48309V7.48323V7.48338V7.48352V7.48366V7.4838V7.48394V7.48408V7.48422V7.48435V7.48449V7.48463V7.48476V7.48489V7.48503V7.48516V7.48529V7.48542V7.48555V7.48568V7.48581V7.48594V7.48607V7.48619V7.48632V7.48645V7.48657V7.48669V7.48682V7.48694V7.48706V7.48718V7.4873V7.48742V7.48754V7.48766V7.48777V7.48789V7.488V7.48812V7.48823V7.48835V7.48846V7.48857V7.48868V7.48879V7.4889V7.48901V7.48912V7.48923V7.48933V7.48944V7.48955V7.48965V7.48976V7.48986V7.48996V7.49006V7.49017V7.49027V7.49037V7.49047V7.49057V7.49066V7.49076V7.49086V7.49096V7.49105V7.49115V7.49124V7.49133V7.49143V7.49152V7.49161V7.4917V7.49179V7.49188V7.49197V7.49206V7.49215V7.49224V7.49232V7.49241V7.49249V7.49258V7.49266V7.49275V7.49283V7.49291V7.49299V7.49307V7.49316V7.49324V7.49331V7.49339V7.49347V7.49355V7.49363V7.4937V7.49378V7.49385V7.49393V7.494V7.49408V7.49415V7.49422V7.49429V7.49436V7.49443V7.4945V7.49457V7.49464V7.49471V7.49478V7.49485V7.49491V7.49498V7.49505V7.49511V7.49518V7.49524V7.4953V7.49537V7.49543V7.49549V7.49555V7.49561V7.49567V7.49573V7.49579V7.49585V7.49591V7.49597V7.49603V7.49608V7.49614V7.49619V7.49625V7.4963V7.49636V7.49641V7.49647V7.49652V7.49657V7.49662V7.49667V7.49673V7.49678V7.49683V7.49688V7.49692V7.49697V7.49702V7.49707V7.49712V7.49716V7.49721V7.49726V7.4973V7.49735V7.49739V7.49743V7.49748V7.49752V7.49756V7.49761V7.49765V7.49769V7.49773V7.49777V7.49781V7.49785V7.49789V7.49793V7.49797V7.498V7.49804V7.49808V7.49812V7.49815V7.49819V7.49822V7.49826V7.49829V7.49833V7.49836V7.4984V7.49843V7.49846V7.4985V7.49853V7.49856V7.49859V7.49862V7.49865V7.49868V7.49871V7.49874V7.49877V7.4988V7.49883V7.49886V7.49888V7.49891V7.49894V7.49897V7.49899V7.49902V7.49904V7.49907V7.49909V7.49912V7.49914V7.49917V7.49919V7.49921V7.49924V7.49926V7.49928V7.4993V7.49933V7.49935V7.49937V7.49939V7.49941V7.49943V7.49945V7.49947V7.49949V7.49951V7.49953V7.49954V7.49956V7.49958V7.4996V7.49962V7.49963V7.49965V7.49967V7.49968V7.4997V7.49971V7.49973V7.49974V7.49976V7.49977V7.49979V7.4998V7.49982V7.49983V7.49984V7.49986V7.49987V7.49988V7.49989V7.49991V7.49992V7.49993V7.49994V7.49995V7.49996V7.49998V7.49999V7.5V7.50001V7.50002V7.50003V7.50004V7.50004V7.50005V7.50006V7.50007V7.50008V7.50009V7.5001V7.5001V7.50011V7.50012V7.50013V7.50014V7.50016V7.50017V7.50018V7.50019V7.5002V7.50021V7.50022V7.50023V7.50024V7.50025V7.50026V7.50027V7.50028V7.50029V7.5003V7.5003V7.50031V7.50033V15.8337C16.1668 16.3641 15.9561 16.8728 15.581 17.2479C15.206 17.6229 14.6973 17.8337 14.1668 17.8337H5.8335C5.30306 17.8337 4.79436 17.6229 4.41928 17.2479C4.04421 16.8728 3.8335 16.3641 3.8335 15.8337V4.16699C3.8335 3.63656 4.04421 3.12785 4.41928 2.75278C4.79436 2.37771 5.30306 2.16699 5.8335 2.16699H10.8358C10.8588 2.17208 10.8809 2.18064 10.9014 2.19239L11.0504 2.27784L11.1038 2.27026C11.1064 2.27248 11.1089 2.27473 11.1114 2.27701ZM12.0204 4.15511L11.1668 3.30155V4.50866V5.83366C11.1668 6.18728 11.3073 6.52642 11.5574 6.77647C11.8074 7.02652 12.1465 7.16699 12.5002 7.16699H13.8252H15.0323L14.1787 6.31344L12.0204 4.15511ZM10.5002 3.33366V2.83366H10.0002H5.8335C5.47987 2.83366 5.14074 2.97414 4.89069 3.22418C4.64064 3.47423 4.50016 3.81337 4.50016 4.16699V15.8337C4.50016 16.1873 4.64064 16.5264 4.89069 16.7765C5.14074 17.0265 5.47987 17.167 5.8335 17.167H14.1668C14.5205 17.167 14.8596 17.0265 15.1096 16.7765C15.3597 16.5264 15.5002 16.1873 15.5002 15.8337V8.33366V7.83366H15.0002H12.5002C11.9697 7.83366 11.461 7.62295 11.0859 7.24787C10.7109 6.8728 10.5002 6.36409 10.5002 5.83366V3.33366ZM8.3335 7.83366H7.50016C7.41176 7.83366 7.32697 7.79854 7.26446 7.73603C7.20195 7.67352 7.16683 7.58873 7.16683 7.50033C7.16683 7.41192 7.20195 7.32714 7.26446 7.26462C7.32697 7.20211 7.41176 7.16699 7.50016 7.16699H8.3335C8.4219 7.16699 8.50669 7.20211 8.5692 7.26462C8.63171 7.32714 8.66683 7.41192 8.66683 7.50033C8.66683 7.58873 8.63171 7.67352 8.5692 7.73603C8.50669 7.79854 8.4219 7.83366 8.3335 7.83366ZM7.26446 10.598C7.32697 10.5354 7.41176 10.5003 7.50016 10.5003H12.5002C12.5886 10.5003 12.6734 10.5354 12.7359 10.598C12.7984 10.6605 12.8335 10.7453 12.8335 10.8337C12.8335 10.9221 12.7984 11.0068 12.7359 11.0694C12.6734 11.1319 12.5886 11.167 12.5002 11.167H7.50016C7.41176 11.167 7.32697 11.1319 7.26446 11.0694C7.20195 11.0068 7.16683 10.9221 7.16683 10.8337C7.16683 10.7453 7.20195 10.6605 7.26446 10.598ZM7.26446 13.9313C7.32697 13.8688 7.41176 13.8337 7.50016 13.8337H12.5002C12.5886 13.8337 12.6734 13.8688 12.7359 13.9313C12.7984 13.9938 12.8335 14.0786 12.8335 14.167C12.8335 14.2554 12.7984 14.3402 12.7359 14.4027C12.6734 14.4652 12.5886 14.5003 12.5002 14.5003H7.50016C7.41176 14.5003 7.32697 14.4652 7.26446 14.4027C7.20195 14.3402 7.16683 14.2554 7.16683 14.167C7.16683 14.0786 7.20195 13.9938 7.26446 13.9313Z" stroke="#6C6C6C"/>
</svg>
