<svg width="56" height="56" viewBox="0 0 56 56" fill="none" xmlns="http://www.w3.org/2000/svg">
<rect width="56" height="56" rx="28" fill="#004C46"/>
<path fill-rule="evenodd" clip-rule="evenodd" d="M19.9997 30.6673H24.7807C25.9881 30.6673 27.146 31.1469 27.9997 32.0007C28.8534 32.8544 30.0113 33.334 31.2186 33.334H35.9997C37.4724 33.334 38.6663 32.1401 38.6663 30.6673V22.6673C38.6663 21.1946 37.4724 20.0007 35.9997 20.0007H31.2186C30.0113 20.0007 28.8534 19.521 27.9997 18.6673C27.146 17.8136 25.9881 17.334 24.7807 17.334H19.9997V30.6673ZM29.8445 25.9702H29.3049C29.3049 25.816 29.3353 25.6633 29.3943 25.5208C29.4534 25.3783 29.54 25.2489 29.6491 25.1399C29.7582 25.0309 29.8877 24.9445 30.0303 24.8856C30.1728 24.8266 30.3255 24.7964 30.4798 24.7966H31.0194C31.0194 24.9508 30.989 25.1035 30.93 25.246C30.8709 25.3885 30.7844 25.5179 30.6752 25.6269C30.5661 25.7359 30.4366 25.8223 30.2941 25.8813C30.1515 25.9402 29.9988 25.9704 29.8445 25.9702ZM32.351 27.9776C32.0941 27.722 31.7657 27.5504 31.4092 27.4856C31.0527 27.4207 30.6849 27.4657 30.3545 27.6146C29.9142 27.8103 29.4269 27.8749 28.9509 27.801V23.8286C28.6393 23.8286 28.3405 23.9524 28.1201 24.1727C27.8998 24.393 27.776 24.6919 27.776 25.0035V27.2807C27.3725 26.9578 27.0791 26.5175 26.9366 26.0207C26.7941 25.5239 26.8093 24.9951 26.9803 24.5074C27.1512 24.0196 27.4694 23.597 27.8909 23.2979C28.3124 22.9988 28.8164 22.8379 29.3333 22.8376C29.6831 22.8368 30.0291 22.9102 30.3484 23.053C30.6788 23.2019 31.0466 23.2469 31.4031 23.1821C31.7597 23.1172 32.0881 22.9456 32.3449 22.69L32.1622 22.5073C31.4673 21.8105 30.5395 21.3949 29.557 21.3402C28.5744 21.2855 27.6062 21.5955 26.8383 22.2108C26.3691 22.5845 25.9902 23.0591 25.7296 23.5994C25.469 24.1396 25.3334 24.7316 25.333 25.3314C25.331 25.8576 25.4335 26.3789 25.6346 26.8652C25.8356 27.3514 26.1313 27.7929 26.5043 28.164C26.6095 28.2685 26.7202 28.3675 26.8358 28.4604C27.6047 29.0737 28.5724 29.3825 29.5544 29.3278C30.5363 29.2731 31.4638 28.8588 32.1598 28.164L32.351 27.9776Z" fill="#31BC2E"/>
<path d="M19.9997 14.6673C19.9997 13.9309 19.4027 13.334 18.6663 13.334C17.93 13.334 17.333 13.9309 17.333 14.6673V40.6673C17.333 41.0355 17.6315 41.334 17.9997 41.334H19.333C19.7012 41.334 19.9997 41.0355 19.9997 40.6673V30.6673V17.334V14.6673Z" fill="#E58C00"/>
</svg>
