<svg width="34" height="28" viewBox="0 0 34 28" fill="none" xmlns="http://www.w3.org/2000/svg">
<path fill-rule="evenodd" clip-rule="evenodd" d="M27.8334 11.3499H32.0001C32.4421 11.3499 32.866 11.5255 33.1786 11.8381C33.4911 12.1506 33.6667 12.5746 33.6667 13.0166C33.6667 13.4586 33.4911 13.8825 33.1786 14.1951C32.866 14.5077 32.4421 14.6833 32.0001 14.6833H28.5501L25.7167 17.5333C25.561 17.6877 25.3763 17.8099 25.1732 17.8929C24.9702 17.9758 24.7527 18.0179 24.5334 18.0166C24.3052 18.0094 24.081 17.9553 23.8746 17.8578C23.6681 17.7604 23.4839 17.6215 23.3334 17.4499L18.6667 12.1333L16.5167 14.3666C16.361 14.5211 16.1763 14.6433 15.9732 14.7262C15.7702 14.8092 15.5527 14.8512 15.3334 14.8499H12.0001C11.558 14.8499 11.1341 14.6743 10.8215 14.3618C10.509 14.0492 10.3334 13.6253 10.3334 13.1833C10.3334 12.7412 10.509 12.3173 10.8215 12.0047C11.1341 11.6922 11.558 11.5166 12.0001 11.5166H14.6501L17.4834 8.68326C17.6393 8.51674 17.8277 8.384 18.037 8.29325C18.2463 8.2025 18.472 8.15567 18.7001 8.15567C18.9282 8.15567 19.1538 8.2025 19.3631 8.29325C19.5724 8.384 19.7608 8.51674 19.9167 8.68326L24.5834 13.9999L26.6501 11.8499C26.8044 11.6924 26.9885 11.5672 27.1916 11.4813C27.3947 11.3955 27.6129 11.3508 27.8334 11.3499Z" fill="#E58C00"/>
<path d="M19.6834 20.1833L16.5167 23.3499C16.3618 23.5061 16.1775 23.6301 15.9744 23.7147C15.7713 23.7994 15.5534 23.8429 15.3334 23.8429C15.1134 23.8429 14.8955 23.7994 14.6924 23.7147C14.4893 23.6301 14.305 23.5061 14.1501 23.3499L5.46673 14.6666C4.89526 14.0955 4.44193 13.4173 4.13263 12.6709C3.82333 11.9246 3.66414 11.1245 3.66414 10.3166C3.66414 9.50866 3.82333 8.70864 4.13263 7.96224C4.44193 7.21585 4.89526 6.53772 5.46673 5.96659C6.6195 4.81754 8.18076 4.17233 9.80839 4.17233C11.436 4.17233 12.9973 4.81754 14.1501 5.96659C14.305 6.12281 14.4893 6.2468 14.6924 6.33141C14.8955 6.41603 15.1134 6.45959 15.3334 6.45959C15.5534 6.45959 15.7713 6.41603 15.9744 6.33141C16.1775 6.2468 16.3618 6.12281 16.5167 5.96659C17.6878 4.85279 19.2422 4.23167 20.8584 4.23167C22.4746 4.23167 24.0289 4.85279 25.2001 5.96659C25.5714 6.34283 25.896 6.76253 26.1667 7.21659C26.4094 7.55028 26.7672 7.78209 27.171 7.86717C27.5747 7.95225 27.9956 7.88455 28.3523 7.67717C28.709 7.46979 28.9761 7.13747 29.1019 6.74451C29.2277 6.35156 29.2033 5.92591 29.0334 5.54993C28.6215 4.86584 28.1291 4.23356 27.5667 3.66659C25.9851 2.06634 23.8851 1.08176 21.6434 0.889353C19.4016 0.696941 17.1646 1.30928 15.3334 2.61659C13.9182 1.59708 12.2488 0.988386 10.5095 0.857677C8.77015 0.726968 7.02853 1.07933 5.47682 1.87587C3.92511 2.67242 2.62363 3.88218 1.71601 5.37165C0.80839 6.86111 0.329916 8.57238 0.333393 10.3166C0.332894 11.5567 0.578671 12.7846 1.05646 13.9291C1.53426 15.0735 2.23456 16.1116 3.11673 16.9833L11.8001 25.6666C12.7376 26.6029 14.0084 27.1289 15.3334 27.1289C16.6584 27.1289 17.9292 26.6029 18.8667 25.6666L22.0001 22.5333C22.3105 22.221 22.4847 21.7986 22.4847 21.3583C22.4847 20.918 22.3105 20.4955 22.0001 20.1833C21.6893 19.8829 21.274 19.7149 20.8417 19.7149C20.4095 19.7149 19.9942 19.8829 19.6834 20.1833Z" fill="#31BC2E"/>
</svg>
