  <svg
        width="1440"
        height="300"
        viewBox="0 0 1440 300"
        fill="none"
        xmlns="http://www.w3.org/2000/svg"
        className="w-[1440px] h-[300px] absolute left-0 top-0"
        preserveAspectRatio="none"
      >
        <g opacity="0.3" clip-path="url(#clip0_495_53366)">
          <path
            d="M176.15 212.48V244.032C176.15 282.329 145.373 313.394 107.25 313.929V282.376C107.25 244.125 137.983 213.015 176.15 212.48Z"
            stroke="#31BC2E"
            stroke-width="2"
          />
          <path
            d="M96.0144 280.415V311.968C57.892 311.432 27.1143 280.322 27.1143 242.071V210.519C65.237 211.054 96.0144 242.119 96.0144 280.415Z"
            stroke="#31BC2E"
            stroke-width="2"
          />
          <path
            d="M607.662 212.48V244.032C607.662 282.329 576.885 313.394 538.762 313.929V282.376C538.762 244.125 569.495 213.015 607.662 212.48Z"
            stroke="#31BC2E"
            stroke-width="2"
          />
          <path
            d="M527.527 280.415V311.968C489.404 311.432 458.627 280.322 458.627 242.071V210.519C496.749 211.054 527.527 242.119 527.527 280.415Z"
            stroke="#31BC2E"
            stroke-width="2"
          />
          <path
            d="M823.419 212.48V244.032C823.419 282.329 792.642 313.394 754.519 313.929V282.376C754.519 244.125 785.252 213.015 823.419 212.48Z"
            stroke="#31BC2E"
            stroke-width="2"
          />
          <path
            d="M743.283 280.415V311.968C705.161 311.432 674.383 280.322 674.383 242.071V210.519C712.506 211.054 743.283 242.119 743.283 280.415Z"
            stroke="#31BC2E"
            stroke-width="2"
          />
          <path
            d="M1039.18 212.48V244.032C1039.18 282.329 1008.4 313.394 970.276 313.929V282.376C970.276 244.125 1001.01 213.015 1039.18 212.48Z"
            stroke="#31BC2E"
            stroke-width="2"
          />
          <path
            d="M959.04 280.415V311.968C920.918 311.432 890.14 280.322 890.14 242.071V210.519C928.263 211.054 959.04 242.119 959.04 280.415Z"
            stroke="#31BC2E"
            stroke-width="2"
          />
          <path
            d="M1470.69 212.48V244.032C1470.69 282.329 1439.91 313.394 1401.79 313.929V282.376C1401.79 244.125 1432.52 213.015 1470.69 212.48Z"
            stroke="#31BC2E"
            stroke-width="2"
          />
          <path
            d="M1390.55 280.415V311.968C1352.43 311.432 1321.65 280.322 1321.65 242.071V210.519C1359.78 211.054 1390.55 242.119 1390.55 280.415Z"
            stroke="#31BC2E"
            stroke-width="2"
          />
          <path
            d="M1254.93 212.48V244.032C1254.93 282.329 1224.16 313.394 1186.03 313.929V282.376C1186.03 244.125 1216.77 213.015 1254.93 212.48Z"
            stroke="#31BC2E"
            stroke-width="2"
          />
          <path
            d="M1174.8 280.415V311.968C1136.67 311.432 1105.9 280.322 1105.9 242.071V210.519C1144.02 211.054 1174.8 242.119 1174.8 280.415Z"
            stroke="#31BC2E"
            stroke-width="2"
          />
          <path
            d="M323.006 282.375C322.96 244.125 353.737 213.015 391.906 212.48V244.032C391.906 282.329 361.129 313.394 323.006 313.929L323.006 282.376L323.006 282.375Z"
            stroke="#31BC2E"
            stroke-width="2"
          />
          <path
            d="M242.87 242.072V242.071V210.519C280.993 211.054 311.77 242.119 311.77 280.415V311.968C273.601 311.433 242.825 280.322 242.87 242.072Z"
            stroke="#31BC2E"
            stroke-width="2"
          />
          <path
            d="M52.6562 3.132V34.6846C52.6562 72.981 21.8789 104.046 -16.2439 104.581V73.0284C-16.2439 34.7769 14.4891 3.66694 52.6562 3.132Z"
            stroke="#31BC2E"
            stroke-width="2"
          />
          <path
            d="M34.625 185.571H-71.0254H-96.3331V116.668H-30.2112H-6.18916H14.0081C52.2577 116.668 83.3663 147.402 83.9012 185.571H34.625Z"
            stroke="#31BC2E"
            stroke-width="2"
          />
          <path
            d="M484.169 3.132V34.6846C484.169 72.981 453.391 104.046 415.269 104.581V73.0284C415.269 34.7769 446.002 3.66694 484.169 3.132Z"
            stroke="#31BC2E"
            stroke-width="2"
          />
          <path
            d="M466.138 185.571H360.488H335.18V116.668H401.302H425.324H445.521C483.771 116.668 514.879 147.402 515.414 185.571H466.138Z"
            stroke="#31BC2E"
            stroke-width="2"
          />
          <path
            d="M404.033 71.0674V102.62C365.911 102.084 335.133 70.9743 335.133 32.7236V1.17107C373.256 1.70585 404.033 32.771 404.033 71.0674Z"
            stroke="#31BC2E"
            stroke-width="2"
          />
          <path
            d="M699.927 3.132V34.6846C699.927 72.981 669.15 104.046 631.027 104.581V73.0284C631.027 34.7769 661.76 3.66694 699.927 3.132Z"
            stroke="#31BC2E"
            stroke-width="2"
          />
          <path
            d="M681.895 185.571H576.244H550.937V116.668H617.059H641.081H661.278C699.527 116.668 730.636 147.402 731.171 185.571H681.895Z"
            stroke="#31BC2E"
            stroke-width="2"
          />
          <path
            d="M619.79 71.0674V102.62C581.668 102.084 550.89 70.9743 550.89 32.7236V1.17107C589.013 1.70585 619.79 32.771 619.79 71.0674Z"
            stroke="#31BC2E"
            stroke-width="2"
          />
          <path
            d="M915.683 3.132V34.6846C915.683 72.981 884.906 104.046 846.783 104.581V73.0284C846.783 34.7769 877.516 3.66694 915.683 3.132Z"
            stroke="#31BC2E"
            stroke-width="2"
          />
          <path
            d="M897.652 185.571H792.001H766.693V116.668H832.815H856.837H877.035C915.284 116.668 946.393 147.402 946.928 185.571H897.652Z"
            stroke="#31BC2E"
            stroke-width="2"
          />
          <path
            d="M835.547 71.0674V102.62C797.425 102.084 766.647 70.9743 766.647 32.7236V1.17107C804.77 1.70585 835.547 32.771 835.547 71.0674Z"
            stroke="#31BC2E"
            stroke-width="2"
          />
          <path
            d="M1347.2 3.132V34.6846C1347.2 72.981 1316.42 104.046 1278.3 104.581V73.0284C1278.3 34.7769 1309.03 3.66694 1347.2 3.132Z"
            stroke="#31BC2E"
            stroke-width="2"
          />
          <path
            d="M1329.17 185.571H1223.51H1198.21V116.668H1264.33H1288.35H1308.55C1346.8 116.668 1377.91 147.402 1378.44 185.571H1329.17Z"
            stroke="#31BC2E"
            stroke-width="2"
          />
          <path
            d="M1267.06 71.0674V102.62C1228.94 102.084 1198.16 70.9743 1198.16 32.7236V1.17107C1236.28 1.70585 1267.06 32.771 1267.06 71.0674Z"
            stroke="#31BC2E"
            stroke-width="2"
          />
          <path
            d="M1131.44 3.132V34.6846C1131.44 72.981 1100.66 104.046 1062.54 104.581V73.0284C1062.54 34.7769 1093.27 3.66694 1131.44 3.132Z"
            stroke="#31BC2E"
            stroke-width="2"
          />
          <path
            d="M1113.41 185.571H1007.76H982.451V116.668H1048.57H1072.59H1092.79C1131.04 116.668 1162.15 147.402 1162.69 185.571H1113.41Z"
            stroke="#31BC2E"
            stroke-width="2"
          />
          <path
            d="M1051.3 71.0674V102.62C1013.18 102.084 982.404 70.9743 982.404 32.7236V1.17107C1020.53 1.70585 1051.3 32.771 1051.3 71.0674Z"
            stroke="#31BC2E"
            stroke-width="2"
          />
          <path
            d="M1544.92 185.571H1439.27H1413.97V116.668H1480.09H1504.11H1524.31C1562.56 116.668 1593.66 147.402 1594.2 185.571H1544.92Z"
            stroke="#31BC2E"
            stroke-width="2"
          />
          <path
            d="M1482.82 71.0674V102.62C1444.7 102.084 1413.92 70.9743 1413.92 32.7236V1.17107C1452.04 1.70585 1482.82 32.771 1482.82 71.0674Z"
            stroke="#31BC2E"
            stroke-width="2"
          />
          <path
            d="M199.512 73.0272C199.466 34.7777 230.243 3.66694 268.412 3.132V34.6846C268.412 72.981 237.635 104.046 199.512 104.581L199.512 73.0284L199.512 73.0272Z"
            stroke="#31BC2E"
            stroke-width="2"
          />
          <path
            d="M250.381 185.571H144.731H119.47V116.668H185.592H209.567H229.764C268.014 116.668 299.122 147.402 299.657 185.571H250.381Z"
            stroke="#31BC2E"
            stroke-width="2"
          />
          <path
            d="M119.377 32.7248V32.7236V1.17107C157.5 1.70585 188.277 32.771 188.277 71.0674V102.62C150.108 102.085 119.331 70.9743 119.377 32.7248Z"
            stroke="#31BC2E"
            stroke-width="2"
          />
        </g>
        <defs>
          <clippath id="clip0_495_53366">
            <rect width="1440" height="300" fill="white" />
          </clippath>
        </defs>
      </svg>