<svg width="106" height="30" viewBox="0 0 106 30" fill="none" xmlns="http://www.w3.org/2000/svg">
<g clip-path="url(#clip0_704_3082)">
<path d="M13.1389 18.8804H14.9241C15.4343 18.8809 15.9396 18.7809 16.4111 18.586C16.8827 18.3911 17.3111 18.1052 17.6721 17.7446C18.0331 17.384 18.3194 16.9559 18.5148 16.4845C18.7101 16.0132 18.8107 15.508 18.8107 14.9978H17.0255C16.5153 14.9973 16.01 15.0973 15.5385 15.2922C15.067 15.4871 14.6385 15.773 14.2775 16.1336C13.9166 16.4942 13.6302 16.9223 13.4348 17.3937C13.2395 17.865 13.1389 18.3702 13.1389 18.8804Z" fill="#31BC2E"/>
<path d="M23.2156 25.5208C22.366 24.6751 21.2796 24.1075 20.1002 23.893C18.9208 23.6786 17.7041 23.8275 16.6112 24.32C15.1548 24.9671 13.5429 25.1811 11.9681 24.9364V11.7957C10.9373 11.7957 9.94872 12.2052 9.21984 12.934C8.49097 13.6629 8.08149 14.6515 8.08149 15.6823V23.2153C6.74654 22.1471 5.77628 20.6907 5.30475 19.0472C4.83323 17.4038 4.88371 15.6545 5.44922 14.041C6.01473 12.4276 7.06736 11.0295 8.46169 10.0401C9.85601 9.0506 11.5232 8.51858 13.2329 8.51749C14.3901 8.51494 15.5347 8.75777 16.5912 9.22997C17.684 9.7225 18.9008 9.87141 20.0802 9.65698C21.2596 9.44254 22.346 8.87487 23.1956 8.02917L22.5912 7.42477C20.2923 5.11978 17.2233 3.74489 13.973 3.5639C10.7226 3.38291 7.51992 4.40859 4.97942 6.44411C3.42742 7.6803 2.17385 9.25025 1.31182 11.0374C0.449794 12.8245 0.00145318 14.7828 9.8525e-05 16.767C-0.00664049 18.5076 0.332391 20.2322 0.997517 21.8408C1.66264 23.4493 2.64062 24.9097 3.87468 26.1372C4.22283 26.4831 4.58891 26.8104 4.97141 27.1179C7.51476 29.1467 10.716 30.168 13.9644 29.9872C17.2127 29.8063 20.2808 28.4358 22.5832 26.1372L23.2156 25.5208Z" fill="#31BC2E"/>
<path d="M36.3828 5.03303C37.0464 5.42442 37.5925 5.98711 37.9639 6.66211L36.2547 8.00701C35.6743 7.13043 34.9499 6.69413 34.0893 6.69413C33.7724 6.68442 33.457 6.7418 33.1638 6.86251C32.8707 6.98323 32.6063 7.16456 32.3881 7.3946C32.1672 7.62937 31.9948 7.90543 31.8808 8.20696C31.7668 8.50849 31.7134 8.82957 31.7237 9.15177C31.7124 9.47651 31.7652 9.8003 31.8792 10.1046C31.9932 10.4089 32.1662 10.6876 32.3881 10.925C32.6073 11.1527 32.8722 11.3315 33.1654 11.4494C33.4586 11.5674 33.7735 11.6219 34.0893 11.6094C34.9272 11.6094 35.649 11.1785 36.2547 10.3165L37.9639 11.6294C37.5855 12.3079 37.0327 12.8731 36.3628 13.2665C35.6581 13.6745 34.8554 13.8821 34.0412 13.8669C33.4085 13.8799 32.7796 13.7657 32.1918 13.5313C31.6039 13.2968 31.0691 12.9468 30.619 12.502C30.1644 12.069 29.8051 11.546 29.5639 10.9664C29.3227 10.3869 29.2049 9.76339 29.218 9.13576C29.2059 8.51241 29.3242 7.89341 29.5655 7.31851C29.8068 6.74361 30.1656 6.22553 30.619 5.79754C31.0702 5.3547 31.6054 5.00653 32.1931 4.77351C32.7808 4.54049 33.4092 4.42731 34.0412 4.44063C34.8613 4.41995 35.6713 4.62487 36.3828 5.03303Z" fill="#004C46"/>
<path d="M46.79 5.79722C47.2478 6.22256 47.6107 6.73978 47.8549 7.31504C48.0991 7.8903 48.219 8.51063 48.2069 9.13545C48.2186 9.7614 48.0985 10.3828 47.8544 10.9593C47.6103 11.5358 47.2476 12.0545 46.79 12.4817C46.3364 12.9264 45.7987 13.2762 45.2084 13.5106C44.618 13.745 43.9867 13.8592 43.3517 13.8466C42.721 13.8609 42.0939 13.7486 41.5074 13.5162C40.9209 13.2838 40.3871 12.9361 39.9374 12.4937C39.4858 12.0607 39.1292 11.5386 38.8901 10.9605C38.651 10.3824 38.5347 9.76089 38.5485 9.13545C38.5353 8.51196 38.6532 7.89266 38.8945 7.31762C39.1359 6.74257 39.4952 6.2246 39.9494 5.79722C40.3996 5.35413 40.9341 5.00577 41.5212 4.77271C42.1083 4.53966 42.7361 4.42663 43.3677 4.44032C43.9995 4.42879 44.6274 4.54279 45.2148 4.77571C45.8023 5.00863 46.3377 5.35585 46.79 5.79722ZM41.6946 7.37828C41.2522 7.8607 41.0165 8.49728 41.0381 9.15146C41.0261 9.47319 41.0779 9.79412 41.1906 10.0957C41.3032 10.3973 41.4745 10.6736 41.6946 10.9086C42.1379 11.3501 42.738 11.5979 43.3637 11.5979C43.9893 11.5979 44.5895 11.3501 45.0328 10.9086C45.2549 10.6764 45.4282 10.4019 45.5424 10.1014C45.6565 9.80096 45.7092 9.48065 45.6972 9.15947C45.7165 8.50778 45.4777 7.87485 45.0328 7.39829C44.823 7.16658 44.5655 6.98295 44.2781 6.85998C43.9907 6.73701 43.6802 6.6776 43.3677 6.68582C43.0556 6.67601 42.7451 6.73268 42.4566 6.85206C42.1682 6.97145 41.9084 7.15082 41.6946 7.37828Z" fill="#004C46"/>
<path d="M62.5434 5.43114C63.1744 6.15754 63.5 7.09988 63.452 8.06089V13.6646H60.9983V8.40512C61.0211 7.94064 60.865 7.4851 60.562 7.13227C60.4132 6.97446 60.2322 6.85058 60.0312 6.76907C59.8302 6.68757 59.6139 6.65035 59.3973 6.65996C59.1753 6.65107 58.9539 6.68848 58.7472 6.76979C58.5404 6.8511 58.3529 6.97455 58.1965 7.13227C58.0434 7.29172 57.9236 7.47997 57.8439 7.68611C57.7642 7.89224 57.7262 8.11215 57.7322 8.33307V13.6446H55.2745V8.40512C55.2979 7.93987 55.1401 7.48366 54.8342 7.13227C54.6857 6.97404 54.5047 6.84987 54.3036 6.76833C54.1026 6.68679 53.8862 6.64982 53.6694 6.65996C53.4475 6.65107 53.2261 6.68848 53.0194 6.76979C52.8126 6.8511 52.6251 6.97455 52.4686 7.13227C52.1616 7.48276 52.0049 7.94 52.0323 8.40512V13.6446H49.5747V4.63861H51.8322V5.43915C52.1627 5.10327 52.5601 4.84062 52.9987 4.66824C53.4373 4.49585 53.9072 4.41757 54.3779 4.43848C55.5894 4.43848 56.4806 4.86943 57.0517 5.73134C57.4225 5.30372 57.885 4.96536 58.4048 4.74149C58.9246 4.51763 59.4883 4.41405 60.0537 4.43848C60.5158 4.41424 60.9776 4.49043 61.4074 4.66179C61.8372 4.83316 62.2247 5.09563 62.5434 5.43114Z" fill="#004C46"/>
<path d="M73.5471 5.76512C74.3775 6.68531 74.8168 7.89272 74.772 9.13136C74.8139 10.3743 74.3752 11.5857 73.5471 12.5136C73.1533 12.9537 72.668 13.3025 72.1252 13.5355C71.5825 13.7685 70.9954 13.8801 70.405 13.8625C69.9044 13.8857 69.4046 13.8 68.9402 13.6113C68.4759 13.4227 68.0579 13.1356 67.7152 12.7698V16.9166H65.2456V4.63637H67.5031V5.76512C68.1435 4.8792 69.1068 4.43623 70.393 4.43623C70.9835 4.41709 71.5711 4.52594 72.1156 4.75532C72.66 4.98471 73.1484 5.32919 73.5471 5.76512ZM71.6098 10.9406C71.837 10.7024 72.0137 10.4208 72.1292 10.1127C72.2448 9.8045 72.2968 9.47616 72.2823 9.14737C72.2967 8.81685 72.2453 8.48677 72.1313 8.17621C72.0172 7.86566 71.8427 7.58082 71.6178 7.33817C71.1845 6.9112 70.6034 6.66757 69.9952 6.65788C69.3869 6.64819 68.7984 6.87319 68.3517 7.28613C68.1159 7.52895 67.9341 7.81887 67.8182 8.13687C67.7023 8.45487 67.655 8.79378 67.6792 9.13136C67.6567 9.46813 67.704 9.80593 67.8184 10.1235C67.9327 10.4411 68.1116 10.7315 68.3437 10.9766C68.5533 11.1867 68.8031 11.3524 69.0782 11.4638C69.3533 11.5752 69.648 11.63 69.9447 11.625C70.2545 11.632 70.5623 11.5748 70.8489 11.457C71.1354 11.3392 71.3945 11.1634 71.6098 10.9406Z" fill="#004C46"/>
<path d="M78.6094 13.6451H76.1558V0H78.6094V13.6451Z" fill="#004C46"/>
<path d="M88.7773 9.96915H82.4531C82.5855 10.5031 82.9051 10.9717 83.3537 11.29C83.8408 11.611 84.4159 11.7719 84.9988 11.7503C85.9142 11.741 86.7992 11.4205 87.5085 10.8417L88.5292 12.5148C87.5325 13.3879 86.2517 13.8675 84.9267 13.8637C84.2775 13.8848 83.6306 13.7756 83.0243 13.5425C82.4179 13.3095 81.8644 12.9573 81.3964 12.5068C80.9415 12.0758 80.5819 11.5543 80.3406 10.976C80.0993 10.3976 79.9817 9.77513 79.9955 9.1486C79.9868 8.52754 80.1028 7.91105 80.3365 7.33557C80.5702 6.7601 80.9169 6.23731 81.3561 5.79811C81.7953 5.35891 82.3181 5.01221 82.8936 4.77851C83.4691 4.5448 84.0855 4.42883 84.7066 4.43745C85.2649 4.41473 85.8219 4.50707 86.3431 4.70875C86.8642 4.91043 87.3382 5.21713 87.7358 5.6098C88.1333 6.00247 88.4458 6.4727 88.6539 6.99128C88.862 7.50986 88.9613 8.0657 88.9454 8.62425C88.9434 9.07766 88.887 9.52919 88.7773 9.96915ZM83.2536 6.91111C82.8534 7.25858 82.5732 7.7237 82.4531 8.23999H86.5638C86.5686 7.98937 86.5188 7.74071 86.4179 7.51125C86.317 7.28179 86.1674 7.07701 85.9795 6.91111C85.6015 6.58348 85.1145 6.40927 84.6145 6.42278C84.1168 6.41554 83.6332 6.58904 83.2536 6.91111Z" fill="#004C46"/>
<path d="M96.0954 11.6086V13.662C95.5423 13.8054 94.9736 13.8793 94.4023 13.8821C93.4415 13.9411 92.4934 13.6384 91.7445 13.0336C91.1147 12.4679 90.7999 11.622 90.7999 10.4959V6.71335H89.3789V4.63997H90.7999V2.36646H93.2615V4.63997H95.8112V6.71335H93.2615V10.2637C93.2416 10.4624 93.2673 10.6631 93.3367 10.8503C93.4061 11.0376 93.5172 11.2066 93.6618 11.3444C94.0408 11.5881 94.4894 11.7006 94.9386 11.6647C95.0774 11.6647 95.463 11.646 96.0954 11.6086Z" fill="#004C46"/>
<path d="M105.427 9.96915H99.095C99.2306 10.5016 99.5495 10.9693 99.9956 11.29C100.484 11.6118 101.06 11.7727 101.645 11.7503C102.56 11.741 103.445 11.4205 104.154 10.8417L105.175 12.5148C104.178 13.3879 102.898 13.8675 101.573 13.8637C100.923 13.8848 100.277 13.7756 99.6702 13.5425C99.0638 13.3095 98.5103 12.9573 98.0423 12.5068C97.5866 12.0764 97.2264 11.5551 96.9851 10.9765C96.7438 10.398 96.6267 9.77526 96.6414 9.1486C96.6322 8.52739 96.7478 7.91065 96.9813 7.33493C97.2148 6.7592 97.5615 6.23619 98.0008 5.79688C98.4401 5.35757 98.9631 5.01089 99.5388 4.77738C100.115 4.54387 100.731 4.42828 101.353 4.43745C101.911 4.41473 102.468 4.50707 102.989 4.70875C103.51 4.91043 103.984 5.21713 104.382 5.6098C104.779 6.00247 105.092 6.4727 105.3 6.99128C105.508 7.50986 105.607 8.0657 105.591 8.62425C105.591 9.0775 105.536 9.52903 105.427 9.96915ZM99.8955 6.91111C99.4965 7.25964 99.2166 7.72432 99.095 8.23999H103.21C103.214 7.98937 103.165 7.74071 103.064 7.51125C102.963 7.28179 102.813 7.07701 102.625 6.91111C102.249 6.58537 101.766 6.41128 101.268 6.42278C100.767 6.41372 100.279 6.58726 99.8955 6.91111Z" fill="#004C46"/>
<path d="M33.0176 17.8658C32.8723 18.0031 32.7607 18.172 32.6913 18.3594C32.6218 18.5468 32.5965 18.7477 32.6173 18.9465V20.2034H34.6187V22.2767H32.6173V29.2174H30.1597V22.2767H28.8868V20.2034H30.1597V18.7304C30.1597 17.6016 30.4719 16.7571 31.0883 16.1927C31.7949 15.5991 32.7004 15.2958 33.622 15.3441C34.0792 15.342 34.534 15.4095 34.9709 15.5442V17.6096C34.7296 17.5749 34.4862 17.5561 34.2424 17.5536C33.8111 17.5226 33.3814 17.6321 33.0176 17.8658Z" fill="#004C46"/>
<path d="M41.9242 20.9962C42.6207 21.658 42.9689 22.6133 42.9689 23.8621V29.2177H40.7154V28.3371C40.3606 28.7035 39.9319 28.9904 39.4579 29.1788C38.9838 29.3672 38.4752 29.4527 37.9656 29.4298C37.1392 29.4752 36.3265 29.2047 35.6921 28.6733C35.4197 28.431 35.2037 28.132 35.0592 27.7974C34.9146 27.4627 34.8451 27.1004 34.8555 26.736C34.841 26.3654 34.9168 25.9969 35.0765 25.6621C35.2362 25.3274 35.4749 25.0366 35.7721 24.8147C36.5005 24.313 37.3746 24.0667 38.2578 24.1143H40.5153V23.714C40.5273 23.5009 40.4955 23.2876 40.4219 23.0872C40.3482 22.8869 40.2342 22.7038 40.087 22.5492C39.7399 22.2562 39.291 22.1124 38.8382 22.149C38.0376 22.149 37.2371 22.5612 36.4366 23.3858L35.1837 21.8608C35.654 21.2727 36.2529 20.8002 36.9343 20.4796C37.6157 20.1591 38.3614 19.9989 39.1144 20.0115C40.1441 19.9573 41.1536 20.3111 41.9242 20.9962ZM39.9669 27.1283C40.1457 26.9664 40.2873 26.7678 40.382 26.546C40.4767 26.3242 40.5221 26.0845 40.5153 25.8434V25.7354H38.586C37.7495 25.7354 37.3292 26.0396 37.3292 26.644C37.3247 26.7841 37.3549 26.9231 37.4171 27.0488C37.4792 27.1745 37.5714 27.2829 37.6854 27.3644C37.9605 27.5522 38.2894 27.6449 38.622 27.6286C39.1181 27.6414 39.5999 27.4621 39.9669 27.1283Z" fill="#004C46"/>
<path d="M50.3208 20.2049V22.3703H49.6643C49.022 22.3358 48.3906 22.5477 47.8991 22.9627C47.6674 23.1891 47.4877 23.4631 47.3723 23.7658C47.2569 24.0685 47.2086 24.3927 47.2307 24.7159V29.2189H44.7891V20.2049H47.0426V21.2976C47.3282 20.9126 47.7027 20.6023 48.1341 20.3932C48.5655 20.1841 49.041 20.0824 49.5202 20.0968C49.791 20.0926 50.0608 20.129 50.3208 20.2049Z" fill="#004C46"/>
<path d="M64.2758 20.9994C64.9021 21.7238 65.2272 22.6605 65.1844 23.6171V29.2209H62.7308V23.9734C62.7541 23.5081 62.5963 23.0519 62.2905 22.7005C62.1428 22.5424 61.9625 22.4182 61.7621 22.3367C61.5616 22.2551 61.3459 22.2181 61.1297 22.2282C60.9078 22.2193 60.6864 22.2567 60.4796 22.338C60.2729 22.4194 60.0854 22.5428 59.9289 22.7005C59.7759 22.86 59.656 23.0482 59.5763 23.2544C59.4966 23.4605 59.4586 23.6804 59.4646 23.9013V29.2209H57.007V23.9734C57.0314 23.5087 56.8751 23.0525 56.5707 22.7005C56.4219 22.5427 56.2408 22.4188 56.0398 22.3373C55.8388 22.2558 55.6226 22.2186 55.4059 22.2282C55.1839 22.2193 54.9626 22.2567 54.7558 22.338C54.5491 22.4194 54.3615 22.5428 54.2051 22.7005C54.0488 22.872 53.9279 23.0728 53.8496 23.2913C53.7713 23.5098 53.737 23.7416 53.7488 23.9734V29.2209H51.2952V20.2069H53.5487V21.0074C53.8802 20.6718 54.2784 20.4094 54.7176 20.2371C55.1567 20.0647 55.6271 19.9863 56.0984 20.0067C57.3098 20.0067 58.2011 20.4377 58.7721 21.2996C59.1429 20.872 59.6054 20.5336 60.1252 20.3097C60.6451 20.0859 61.2087 19.9823 61.7741 20.0067C62.2382 19.9807 62.7023 20.056 63.1343 20.2275C63.5663 20.3989 63.9559 20.6623 64.2758 20.9994Z" fill="#004C46"/>
<path d="M75.2482 25.5354H68.928C69.0626 26.0672 69.3818 26.5339 69.8286 26.8522C70.3164 27.1754 70.893 27.3377 71.4777 27.3165C72.3922 27.3094 73.2771 26.9919 73.9874 26.4159L75.0081 28.0891C74.0114 28.9621 72.7306 29.4417 71.4057 29.438C70.7564 29.459 70.1095 29.3498 69.5032 29.1168C68.8968 28.8837 68.3433 28.5315 67.8753 28.081C67.4196 27.6506 67.0594 27.1293 66.8181 26.5507C66.5768 25.9722 66.4597 25.3495 66.4744 24.7228C66.4652 24.1016 66.5808 23.4849 66.8143 22.9091C67.0478 22.3334 67.3945 21.8104 67.8338 21.3711C68.2731 20.9318 68.7961 20.5851 69.3718 20.3516C69.9476 20.1181 70.5643 20.0025 71.1855 20.0117C71.7438 19.9889 72.3009 20.0813 72.822 20.283C73.3431 20.4846 73.8171 20.7914 74.2147 21.184C74.6122 21.5767 74.9248 22.0469 75.1329 22.5655C75.341 23.0841 75.4402 23.6399 75.4243 24.1985C75.4171 24.6494 75.358 25.0979 75.2482 25.5354ZM69.7165 22.4773C69.3175 22.8259 69.0376 23.2905 68.916 23.8062H73.0307C73.0355 23.5556 72.9857 23.3069 72.8848 23.0775C72.7839 22.848 72.6343 22.6432 72.4464 22.4773C72.0684 22.1497 71.5815 21.9755 71.0814 21.989C70.5863 21.983 70.1057 22.1564 69.7285 22.4773H69.7165Z" fill="#004C46"/>
<path d="M82.3211 20.2049V22.3703H81.6526C81.0103 22.3358 80.3789 22.5477 79.8874 22.9627C79.6615 23.192 79.4877 23.4673 79.3778 23.7698C79.268 24.0724 79.2247 24.3951 79.251 24.7159V29.2189H76.7974V20.2049H79.0509V21.2976C79.3365 20.9126 79.711 20.6023 80.1424 20.3932C80.5738 20.1841 81.0493 20.0824 81.5285 20.0968C81.7966 20.0931 82.0637 20.1295 82.3211 20.2049Z" fill="#004C46"/>
<path d="M84.6588 26.5364C84.9626 26.8624 85.1316 27.2915 85.1316 27.7372C85.1316 28.1829 84.9626 28.612 84.6588 28.938C84.5034 29.0979 84.3163 29.2236 84.1095 29.307C83.9027 29.3904 83.6808 29.4297 83.458 29.4223C83.2323 29.4284 83.0078 29.3886 82.7979 29.3053C82.5881 29.2221 82.3973 29.0971 82.2371 28.938C81.9261 28.6157 81.7522 28.1852 81.7522 27.7372C81.7522 27.2893 81.9261 26.8588 82.2371 26.5364C82.3964 26.3755 82.5868 26.2488 82.7967 26.1642C83.0066 26.0795 83.2317 26.0386 83.458 26.0441C83.6814 26.0378 83.9037 26.0783 84.1105 26.1631C84.3173 26.2479 84.5041 26.3751 84.6588 26.5364Z" fill="#004C46"/>
</g>
<defs>
<clipPath id="clip0_704_3082">
<rect width="105.59" height="30" fill="white"/>
</clipPath>
</defs>
</svg>
