<svg width="198" height="56" viewBox="0 0 198 56" fill="none" xmlns="http://www.w3.org/2000/svg">
    <g clip-path="url(#clip0_767_2582)">
        <path
            d="M24.5264 35.2433H27.8587C28.8111 35.2443 29.7543 35.0576 30.6345 34.6938C31.5147 34.33 32.3145 33.7963 32.9883 33.1233C33.6621 32.4502 34.1966 31.6509 34.5613 30.7711C34.926 29.8913 35.1137 28.9482 35.1137 27.9959H31.7813C30.829 27.9949 29.8857 28.1816 29.0055 28.5454C28.1254 28.9092 27.3255 29.4429 26.6517 30.116C25.978 30.789 25.4435 31.5883 25.0788 32.4681C24.7141 33.3479 24.5264 34.291 24.5264 35.2433Z"
            fill="#31BC2E" />
        <path
            d="M43.3357 47.6389C41.7499 46.0603 39.7219 45.0006 37.5203 44.6004C35.3188 44.2001 33.0476 44.478 31.0075 45.3974C28.2889 46.6054 25.28 47.0048 22.3404 46.5481V22.0187C20.4163 22.0187 18.5709 22.783 17.2104 24.1436C15.8498 25.5042 15.0854 27.3495 15.0854 29.2736V43.3353C12.5935 41.3413 10.7824 38.6226 9.90221 35.5549C9.02202 32.4872 9.11625 29.2219 10.1719 26.21C11.2275 23.1982 13.1924 20.5885 15.7951 18.7415C18.3979 16.8945 21.51 15.9014 24.7015 15.8994C26.8615 15.8946 28.9981 16.3479 30.9702 17.2293C33.0102 18.1487 35.2814 18.4267 37.483 18.0264C39.6845 17.6261 41.7125 16.5665 43.2984 14.9878L42.1702 13.8596C37.879 9.55697 32.1502 6.9905 26.0829 6.65266C20.0156 6.31482 14.0372 8.22942 9.29491 12.0291C6.39784 14.3366 4.05785 17.2672 2.44873 20.6031C0.839615 23.9391 0.00271259 27.5947 0.000183913 31.2984C-0.0123956 34.5476 0.620463 37.7669 1.86203 40.7695C3.1036 43.7721 4.92915 46.4982 7.23274 48.7896C7.88262 49.4352 8.56597 50.0462 9.27997 50.6201C14.0275 54.4072 20.0032 56.3137 26.0668 55.9761C32.1304 55.6385 37.8574 53.0803 42.1552 48.7896L43.3357 47.6389Z"
            fill="#31BC2E" />
        <path
            d="M67.9142 9.39496C69.1529 10.1256 70.1723 11.1759 70.8655 12.4359L67.6751 14.9464C66.5917 13.3101 65.2393 12.4957 63.6329 12.4957C63.0414 12.4776 62.4527 12.5847 61.9054 12.81C61.3582 13.0353 60.8647 13.3738 60.4575 13.8032C60.0451 14.2415 59.7232 14.7568 59.5104 15.3196C59.2976 15.8825 59.1979 16.4818 59.2172 17.0833C59.196 17.6895 59.2947 18.2939 59.5075 18.8619C59.7203 19.4298 60.0432 19.9502 60.4575 20.3932C60.8665 20.8184 61.361 21.1521 61.9083 21.3723C62.4556 21.5925 63.0434 21.6943 63.6329 21.6709C65.197 21.6709 66.5444 20.8664 67.6751 19.2575L70.8655 21.7082C70.1591 22.9748 69.1274 24.0298 67.8768 24.7641C66.5614 25.5257 65.0629 25.9132 63.5433 25.8849C62.3622 25.9091 61.1882 25.696 60.0909 25.2584C58.9936 24.8207 57.9953 24.1674 57.155 23.3371C56.3066 22.5288 55.6358 21.5526 55.1856 20.4707C54.7354 19.3888 54.5155 18.225 54.5399 17.0534C54.5172 15.8898 54.7382 14.7343 55.1885 13.6612C55.6389 12.5881 56.3087 11.621 57.155 10.822C57.9973 9.99541 58.9963 9.34551 60.0934 8.91053C61.1904 8.47556 62.3634 8.26429 63.5433 8.28916C65.074 8.25055 66.586 8.63306 67.9142 9.39496Z"
            fill="white" />
        <path
            d="M87.3413 10.8215C88.1959 11.6154 88.8733 12.5809 89.3291 13.6547C89.7849 14.7285 90.0088 15.8865 89.9862 17.0528C90.0081 18.2212 89.7839 19.3812 89.3283 20.4573C88.8726 21.5335 88.1956 22.5017 87.3413 23.2991C86.4947 24.1293 85.491 24.7823 84.3889 25.2198C83.2869 25.6573 82.1086 25.8705 80.9231 25.8469C79.7459 25.8737 78.5752 25.664 77.4805 25.2302C76.3857 24.7965 75.3892 24.1474 74.5498 23.3215C73.7069 22.5133 73.0412 21.5387 72.5949 20.4595C72.1486 19.3804 71.9314 18.2203 71.9571 17.0528C71.9326 15.889 72.1527 14.7329 72.6032 13.6595C73.0536 12.5861 73.7244 11.6192 74.5722 10.8215C75.4126 9.99436 76.4102 9.34408 77.5062 8.90904C78.6021 8.474 79.7741 8.26302 80.953 8.28857C82.1324 8.26704 83.3044 8.47984 84.401 8.91463C85.4976 9.34942 86.497 9.99756 87.3413 10.8215ZM77.8298 13.7728C77.0041 14.6733 76.5642 15.8616 76.6045 17.0827C76.582 17.6833 76.6787 18.2823 76.889 18.8453C77.0993 19.4083 77.4191 19.924 77.8298 20.3628C78.6574 21.1868 79.7777 21.6494 80.9455 21.6494C82.1134 21.6494 83.2336 21.1868 84.0612 20.3628C84.4759 19.9292 84.7994 19.4168 85.0124 18.856C85.2255 18.2951 85.3238 17.6972 85.3015 17.0976C85.3375 15.8812 84.8917 14.6997 84.0612 13.8101C83.6695 13.3776 83.189 13.0348 82.6525 12.8053C82.116 12.5757 81.5363 12.4648 80.953 12.4802C80.3705 12.4619 79.7908 12.5676 79.2524 12.7905C78.7139 13.0133 78.229 13.3482 77.8298 13.7728Z"
            fill="white" />
        <path
            d="M116.747 10.1382C117.925 11.4941 118.533 13.2531 118.443 15.047V25.5073H113.863V15.6896C113.906 14.8226 113.614 13.9722 113.049 13.3136C112.771 13.019 112.433 12.7878 112.058 12.6356C111.683 12.4835 111.279 12.414 110.874 12.4319C110.46 12.4154 110.047 12.4852 109.661 12.637C109.275 12.7888 108.925 13.0192 108.633 13.3136C108.347 13.6112 108.124 13.9626 107.975 14.3474C107.826 14.7322 107.755 15.1427 107.766 15.5551V25.47H103.179V15.6896C103.222 14.8211 102.928 13.9695 102.357 13.3136C102.08 13.0182 101.742 12.7864 101.366 12.6342C100.991 12.482 100.587 12.413 100.183 12.4319C99.7682 12.4154 99.355 12.4852 98.9691 12.637C98.5832 12.7888 98.2331 13.0192 97.9411 13.3136C97.368 13.9678 97.0754 14.8214 97.1267 15.6896V25.47H92.5391V8.65877H96.7531V10.1531C97.37 9.52613 98.1119 9.03586 98.9305 8.71407C99.7492 8.39227 100.626 8.24616 101.505 8.28518C103.766 8.28518 105.43 9.08963 106.496 10.6985C107.188 9.90031 108.052 9.26869 109.022 8.85081C109.992 8.43293 111.044 8.23958 112.1 8.28518C112.962 8.23994 113.824 8.38215 114.627 8.70204C115.429 9.02192 116.152 9.51187 116.747 10.1382Z"
            fill="white" />
        <path
            d="M137.288 10.7616C138.838 12.4793 139.658 14.7331 139.575 17.0452C139.653 19.3655 138.834 21.6266 137.288 23.3588C136.553 24.1803 135.647 24.8313 134.634 25.2663C133.621 25.7012 132.525 25.9095 131.423 25.8767C130.488 25.92 129.555 25.76 128.689 25.4078C127.822 25.0557 127.042 24.5198 126.402 23.837V31.5776H121.792V8.65458H126.006V10.7616C127.201 9.10786 129 8.28099 131.401 8.28099C132.503 8.24525 133.6 8.44845 134.616 8.87663C135.632 9.30481 136.544 9.94785 137.288 10.7616ZM133.672 20.4224C134.096 19.9779 134.426 19.4522 134.641 18.877C134.857 18.3018 134.954 17.6889 134.927 17.0751C134.954 16.4582 134.858 15.842 134.645 15.2623C134.432 14.6826 134.107 14.1509 133.687 13.6979C132.878 12.9009 131.793 12.4462 130.658 12.4281C129.523 12.41 128.424 12.83 127.59 13.6008C127.15 14.0541 126.811 14.5952 126.594 15.1888C126.378 15.7824 126.289 16.4151 126.335 17.0452C126.293 17.6739 126.381 18.3044 126.595 18.8972C126.808 19.49 127.142 20.0322 127.575 20.4897C127.966 20.8818 128.433 21.1911 128.946 21.399C129.46 21.607 130.01 21.7094 130.564 21.7001C131.142 21.7131 131.717 21.6063 132.251 21.3864C132.786 21.1665 133.27 20.8383 133.672 20.4224Z"
            fill="white" />
        <path d="M146.737 25.4708H142.157V0H146.737V25.4708Z" fill="white" />
        <path
            d="M165.718 18.6091H153.913C154.16 19.6057 154.756 20.4806 155.594 21.0747C156.503 21.6738 157.577 21.9742 158.665 21.934C160.374 21.9165 162.026 21.3184 163.35 20.2379L165.255 23.3611C163.394 24.9908 161.004 25.886 158.53 25.879C157.318 25.9183 156.111 25.7145 154.979 25.2794C153.847 24.8444 152.814 24.187 151.94 23.3461C151.091 22.5415 150.42 21.5681 149.969 20.4885C149.519 19.4089 149.3 18.2469 149.325 17.0774C149.309 15.9181 149.526 14.7673 149.962 13.6931C150.398 12.6189 151.045 11.643 151.865 10.8232C152.685 10.0033 153.661 9.35616 154.735 8.91991C155.809 8.48366 156.96 8.26718 158.119 8.28327C159.162 8.24085 160.201 8.41322 161.174 8.78969C162.147 9.16616 163.032 9.73868 163.774 10.4717C164.516 11.2046 165.099 12.0824 165.488 13.0504C165.876 14.0184 166.061 15.056 166.032 16.0986C166.028 16.945 165.923 17.7878 165.718 18.6091ZM155.407 12.9008C154.66 13.5494 154.137 14.4176 153.913 15.3813H161.586C161.595 14.9135 161.502 14.4494 161.314 14.021C161.125 13.5927 160.846 13.2104 160.495 12.9008C159.79 12.2892 158.881 11.964 157.948 11.9892C157.018 11.9757 156.116 12.2996 155.407 12.9008Z"
            fill="white" />
        <path
            d="M179.378 21.6694V25.5024C178.346 25.77 177.284 25.9081 176.218 25.9133C174.424 26.0233 172.654 25.4583 171.257 24.3293C170.081 23.2733 169.493 21.6943 169.493 19.5923V12.5316H166.841V8.66125H169.493V4.41736H174.088V8.66125H178.848V12.5316H174.088V19.1589C174.051 19.5299 174.099 19.9044 174.229 20.254C174.358 20.6035 174.566 20.919 174.835 21.1763C175.543 21.6312 176.38 21.8412 177.219 21.774C177.478 21.774 178.198 21.7391 179.378 21.6694Z"
            fill="white" />
        <path
            d="M196.797 18.6091H184.977C185.23 19.603 185.825 20.476 186.658 21.0747C187.569 21.6753 188.646 21.9758 189.736 21.934C191.445 21.9165 193.097 21.3184 194.421 20.2379L196.326 23.3611C194.466 24.9908 192.075 25.886 189.602 25.879C188.39 25.9183 187.182 25.7145 186.051 25.2794C184.919 24.8444 183.886 24.187 183.012 23.3461C182.161 22.5427 181.489 21.5695 181.038 20.4896C180.588 19.4097 180.369 18.2472 180.397 17.0774C180.38 15.9178 180.595 14.7666 181.031 13.6919C181.467 12.6172 182.114 11.6409 182.934 10.8209C183.754 10.0008 184.731 9.35369 185.805 8.91781C186.88 8.48192 188.031 8.26615 189.191 8.28327C190.233 8.24085 191.273 8.41322 192.246 8.78969C193.218 9.16616 194.103 9.73868 194.845 10.4717C195.587 11.2046 196.171 12.0824 196.559 13.0504C196.948 14.0184 197.133 15.056 197.103 16.0986C197.102 16.9447 196.999 17.7875 196.797 18.6091ZM186.471 12.9008C185.726 13.5514 185.204 14.4188 184.977 15.3813H192.658C192.667 14.9135 192.574 14.4494 192.385 14.021C192.197 13.5927 191.918 13.2104 191.567 12.9008C190.865 12.2927 189.962 11.9677 189.034 11.9892C188.098 11.9723 187.187 12.2962 186.471 12.9008Z"
            fill="white" />
        <path
            d="M61.6326 33.3495C61.3615 33.6058 61.153 33.9211 61.0235 34.2709C60.8939 34.6208 60.8467 34.9958 60.8855 35.3669V37.713H64.6213V41.5833H60.8855V54.5391H56.2979V41.5833H53.9219V37.713H56.2979V34.9634C56.2979 32.8564 56.8807 31.2799 58.0313 30.2264C59.3502 29.1183 61.0406 28.5522 62.7608 28.6424C63.6143 28.6385 64.4633 28.7645 65.2788 29.016V32.8713C64.8283 32.8064 64.374 32.7715 63.919 32.7667C63.1139 32.7089 62.3118 32.9134 61.6326 33.3495Z"
            fill="white" />
        <path
            d="M78.2588 39.1929C79.5588 40.4282 80.2089 42.2114 80.2089 44.5426V54.5397H76.0023V52.8959C75.3399 53.5799 74.5398 54.1155 73.6549 54.4671C72.77 54.8188 71.8205 54.9785 70.8693 54.9357C69.3268 55.0203 67.8097 54.5155 66.6254 53.5235C66.117 53.0712 65.7137 52.5131 65.444 51.8884C65.1742 51.2637 65.0444 50.5874 65.0638 49.9072C65.0367 49.2155 65.1782 48.5275 65.4763 47.9027C65.7744 47.2779 66.2201 46.735 66.7748 46.3208C68.1345 45.3843 69.7661 44.9245 71.4147 45.0133H75.6287V44.2661C75.6512 43.8683 75.5919 43.4701 75.4544 43.0962C75.3168 42.7222 75.1041 42.3804 74.8293 42.0919C74.1813 41.545 73.3433 41.2764 72.4981 41.3447C71.0038 41.3447 69.5095 42.1143 68.0151 43.6535L65.6765 40.8068C66.5544 39.709 67.6723 38.827 68.9442 38.2286C70.2161 37.6302 71.6082 37.3313 73.0137 37.3549C74.9358 37.2536 76.8203 37.914 78.2588 39.1929ZM74.6051 50.6395C74.9389 50.3374 75.2032 49.9665 75.3799 49.5525C75.5566 49.1385 75.6415 48.691 75.6287 48.2411V48.0393H72.0274C70.4658 48.0393 69.6813 48.6072 69.6813 49.7354C69.673 49.997 69.7294 50.2565 69.8454 50.4911C69.9614 50.7257 70.1334 50.9281 70.3463 51.0803C70.8598 51.4307 71.4737 51.6038 72.0947 51.5734C73.0206 51.5972 73.9199 51.2626 74.6051 50.6395Z"
            fill="white" />
        <path
            d="M93.9323 37.7157V41.7579H92.7069C91.5078 41.6934 90.3293 42.0889 89.4119 42.8637C88.9794 43.2863 88.6439 43.7978 88.4284 44.3628C88.213 44.9279 88.1228 45.533 88.1642 46.1362V54.5418H83.6064V37.7157H87.813V39.7555C88.3461 39.0367 89.0451 38.4576 89.8504 38.0673C90.6557 37.677 91.5435 37.4872 92.4379 37.514C92.9433 37.5062 93.447 37.5742 93.9323 37.7157Z"
            fill="white" />
        <path
            d="M119.982 39.1989C121.151 40.5511 121.757 42.2996 121.678 44.0853V54.5456H117.097V44.7503C117.141 43.8818 116.846 43.0302 116.276 42.3743C116 42.0791 115.663 41.8474 115.289 41.6952C114.915 41.5429 114.512 41.4738 114.109 41.4927C113.694 41.4761 113.281 41.5459 112.895 41.6977C112.509 41.8495 112.159 42.0799 111.867 42.3743C111.582 42.672 111.358 43.0234 111.209 43.4081C111.06 43.7929 110.989 44.2034 111.001 44.6158V54.5456H106.413V44.7503C106.459 43.8829 106.167 43.0314 105.599 42.3743C105.321 42.0797 104.983 41.8485 104.608 41.6964C104.232 41.5442 103.829 41.4747 103.424 41.4927C103.01 41.4761 102.597 41.5459 102.211 41.6977C101.825 41.8495 101.475 42.0799 101.183 42.3743C100.891 42.6945 100.665 43.0693 100.519 43.4771C100.373 43.8849 100.309 44.3177 100.331 44.7503V54.5456H95.751V37.7195H99.9575V39.2138C100.576 38.5874 101.32 38.0976 102.139 37.7759C102.959 37.4542 103.837 37.3077 104.717 37.3459C106.978 37.3459 108.642 38.1504 109.708 39.7593C110.4 38.961 111.263 38.3294 112.234 37.9115C113.204 37.4937 114.256 37.3003 115.312 37.3459C116.178 37.2974 117.044 37.438 117.851 37.758C118.657 38.0779 119.384 38.5696 119.982 39.1989Z"
            fill="white" />
        <path
            d="M140.463 47.666H128.665C128.917 48.6588 129.512 49.5301 130.347 50.1242C131.257 50.7274 132.333 51.0305 133.425 50.9909C135.132 50.9776 136.784 50.3849 138.11 49.3098L140.015 52.433C138.154 54.0626 135.764 54.9579 133.29 54.9509C132.078 54.9902 130.871 54.7864 129.739 54.3513C128.607 53.9163 127.574 53.2589 126.7 52.418C125.85 51.6145 125.177 50.6413 124.727 49.5614C124.276 48.4816 124.058 47.3191 124.085 46.1493C124.068 44.9897 124.284 43.8385 124.72 42.7638C125.156 41.6891 125.803 40.7128 126.623 39.8928C127.443 39.0727 128.419 38.4256 129.494 37.9897C130.569 37.5538 131.72 37.3381 132.879 37.3552C133.922 37.3127 134.961 37.4851 135.934 37.8616C136.907 38.2381 137.792 38.8106 138.534 39.5435C139.276 40.2765 139.859 41.1543 140.248 42.1223C140.636 43.0903 140.821 44.1279 140.792 45.1705C140.778 46.0122 140.668 46.8496 140.463 47.666ZM130.137 41.9577C129.392 42.6083 128.87 43.4757 128.643 44.4383H136.324C136.333 43.9705 136.24 43.5063 136.051 43.078C135.863 42.6496 135.584 42.2674 135.233 41.9577C134.527 41.3461 133.619 41.0209 132.685 41.0462C131.761 41.0349 130.864 41.3587 130.16 41.9577H130.137Z"
            fill="white" />
        <path
            d="M153.666 37.7157V41.7579H152.419C151.22 41.6934 150.041 42.0889 149.124 42.8637C148.702 43.2916 148.377 43.8055 148.172 44.3703C147.967 44.935 147.887 45.5374 147.936 46.1362V54.5418H143.355V37.7157H147.562V39.7555C148.095 39.0367 148.794 38.4576 149.599 38.0673C150.405 37.677 151.292 37.4872 152.187 37.514C152.687 37.5071 153.186 37.5751 153.666 37.7157Z"
            fill="white" />
        <path
            d="M158.03 49.5347C158.597 50.1433 158.913 50.9443 158.913 51.7762C158.913 52.6081 158.597 53.4091 158.03 54.0177C157.74 54.3162 157.391 54.5507 157.005 54.7064C156.619 54.8621 156.205 54.9355 155.789 54.9218C155.367 54.933 154.948 54.8587 154.556 54.7033C154.165 54.5479 153.809 54.3147 153.51 54.0177C152.929 53.416 152.604 52.6124 152.604 51.7762C152.604 50.94 152.929 50.1364 153.51 49.5347C153.807 49.2343 154.162 48.9979 154.554 48.8398C154.946 48.6818 155.366 48.6055 155.789 48.6157C156.206 48.6039 156.621 48.6796 157.007 48.8379C157.393 48.9962 157.741 49.2335 158.03 49.5347Z"
            fill="white" />
    </g>
    <defs>
        <clipPath id="clip0_767_2582">
            <rect width="197.102" height="56" fill="white" />
        </clipPath>
    </defs>
</svg>
    