<svg
          width="20"
          height="20"
          viewBox="0 0 20 20"
          fill="none"
          xmlns="http://www.w3.org/2000/svg"
          className="w-5 h-5 relative"
          preserveAspectRatio="xMidYMid meet"
        >
          <path
            d="M9.99967 1.66699C8.23156 1.66699 6.53587 2.36937 5.28563 3.61961C4.03539 4.86986 3.33301 6.56555 3.33301 8.33366C3.33301 12.8337 9.20801 17.917 9.45801 18.1337C9.60895 18.2628 9.80105 18.3337 9.99967 18.3337C10.1983 18.3337 10.3904 18.2628 10.5413 18.1337C10.833 17.917 16.6663 12.8337 16.6663 8.33366C16.6663 6.56555 15.964 4.86986 14.7137 3.61961C13.4635 2.36937 11.7678 1.66699 9.99967 1.66699ZM9.99967 16.3753C8.22467 14.7087 4.99967 11.117 4.99967 8.33366C4.99967 7.00758 5.52646 5.73581 6.46414 4.79813C7.40182 3.86044 8.67359 3.33366 9.99967 3.33366C11.3258 3.33366 12.5975 3.86044 13.5352 4.79813C14.4729 5.73581 14.9997 7.00758 14.9997 8.33366C14.9997 11.117 11.7747 14.717 9.99967 16.3753ZM9.99967 5.00033C9.3404 5.00033 8.69594 5.19582 8.14777 5.56209C7.59961 5.92836 7.17237 6.44896 6.92008 7.05805C6.66778 7.66713 6.60177 8.33736 6.73039 8.98396C6.85901 9.63056 7.17648 10.2245 7.64265 10.6907C8.10883 11.1569 8.70277 11.4743 9.34937 11.6029C9.99598 11.7316 10.6662 11.6656 11.2753 11.4133C11.8844 11.161 12.405 10.7337 12.7712 10.1856C13.1375 9.6374 13.333 8.99293 13.333 8.33366C13.333 7.4496 12.9818 6.60176 12.3567 5.97664C11.7316 5.35152 10.8837 5.00033 9.99967 5.00033ZM9.99967 10.0003C9.67004 10.0003 9.34781 9.90258 9.07372 9.71944C8.79964 9.53631 8.58602 9.27601 8.45988 8.97146C8.33373 8.66692 8.30072 8.33181 8.36503 8.00851C8.42934 7.68521 8.58808 7.38824 8.82116 7.15515C9.05425 6.92206 9.35122 6.76333 9.67452 6.69902C9.99783 6.63471 10.3329 6.66771 10.6375 6.79386C10.942 6.92001 11.2023 7.13363 11.3855 7.40771C11.5686 7.68179 11.6663 8.00402 11.6663 8.33366C11.6663 8.77569 11.4907 9.19961 11.1782 9.51217C10.8656 9.82473 10.4417 10.0003 9.99967 10.0003Z"
            fill="#31BC2E"
          />
        </svg>