<svg width="16" height="16" viewBox="0 0 16 16" fill="none" xmlns="http://www.w3.org/2000/svg">
<path d="M12.3601 5.99998L5.92014 2.30664C5.57167 2.10542 5.17614 2 4.77374 2.00111C4.37134 2.00221 3.97639 2.1098 3.62903 2.31294C3.28166 2.51607 2.99425 2.80753 2.79597 3.1577C2.5977 3.50786 2.49563 3.90427 2.50014 4.30664V11.72C2.50014 12.3247 2.74036 12.9046 3.16794 13.3322C3.59552 13.7598 4.17545 14 4.78014 14C5.18043 13.9993 5.57353 13.8936 5.92014 13.6933L12.3601 9.99998C12.7062 9.7997 12.9935 9.51196 13.1932 9.1656C13.3929 8.81924 13.4981 8.42646 13.4981 8.02664C13.4981 7.62683 13.3929 7.23404 13.1932 6.88769C12.9935 6.54133 12.7062 6.25358 12.3601 6.05331V5.99998Z" fill="#367AFE"/>
</svg>
