<svg width="36" height="36" viewBox="0 0 36 36" fill="none" xmlns="http://www.w3.org/2000/svg">
<rect width="36" height="36" rx="8" fill="white"/>
<path d="M13.8333 21.3334C14.1649 21.3334 14.4828 21.2017 14.7172 20.9672C14.9516 20.7328 15.0833 20.4149 15.0833 20.0834C15.0874 20.0418 15.0874 19.9999 15.0833 19.9584L17.4083 17.6334H17.6H17.7917L19.1333 18.975C19.1333 18.975 19.1333 19.0167 19.1333 19.0417C19.1333 19.3732 19.265 19.6912 19.4994 19.9256C19.7339 20.16 20.0518 20.2917 20.3833 20.2917C20.7149 20.2917 21.0328 20.16 21.2672 19.9256C21.5016 19.6912 21.6333 19.3732 21.6333 19.0417V18.975L24.6667 15.9167C24.9139 15.9167 25.1556 15.8434 25.3611 15.706C25.5667 15.5687 25.7269 15.3734 25.8215 15.145C25.9161 14.9166 25.9409 14.6653 25.8926 14.4228C25.8444 14.1803 25.7254 13.9576 25.5505 13.7828C25.3757 13.608 25.153 13.4889 24.9105 13.4407C24.6681 13.3925 24.4167 13.4172 24.1883 13.5118C23.9599 13.6064 23.7647 13.7667 23.6273 13.9722C23.49 14.1778 23.4167 14.4195 23.4167 14.6667C23.4126 14.7083 23.4126 14.7501 23.4167 14.7917L20.4083 17.8H20.275L18.8333 16.3334C18.8333 16.0018 18.7016 15.6839 18.4672 15.4495C18.2328 15.215 17.9149 15.0834 17.5833 15.0834C17.2518 15.0834 16.9339 15.215 16.6994 15.4495C16.465 15.6839 16.3333 16.0018 16.3333 16.3334L13.8333 18.8334C13.5018 18.8334 13.1839 18.9651 12.9494 19.1995C12.715 19.4339 12.5833 19.7518 12.5833 20.0834C12.5833 20.4149 12.715 20.7328 12.9494 20.9672C13.1839 21.2017 13.5018 21.3334 13.8333 21.3334V21.3334ZM25.0833 24.6667H10.9167V10.5C10.9167 10.279 10.8289 10.067 10.6726 9.91076C10.5163 9.75448 10.3043 9.66669 10.0833 9.66669C9.86232 9.66669 9.65036 9.75448 9.49408 9.91076C9.3378 10.067 9.25 10.279 9.25 10.5V25.5C9.25 25.721 9.3378 25.933 9.49408 26.0893C9.65036 26.2456 9.86232 26.3334 10.0833 26.3334H25.0833C25.3043 26.3334 25.5163 26.2456 25.6726 26.0893C25.8289 25.933 25.9167 25.721 25.9167 25.5C25.9167 25.279 25.8289 25.067 25.6726 24.9108C25.5163 24.7545 25.3043 24.6667 25.0833 24.6667Z" fill="#6C6C6C"/>
</svg>
