<svg width="34" height="34" viewBox="0 0 34 34" fill="none" xmlns="http://www.w3.org/2000/svg">
<path fill-rule="evenodd" clip-rule="evenodd" d="M5.33334 30.3333H17C17.442 30.3333 17.866 30.5088 18.1785 30.8214C18.4911 31.134 18.6667 31.5579 18.6667 31.9999C18.6667 32.4419 18.4911 32.8659 18.1785 33.1784C17.866 33.491 17.442 33.6666 17 33.6666H5.33334C4.00726 33.6666 2.73549 33.1398 1.79781 32.2021C0.860128 31.2644 0.333344 29.9927 0.333344 28.6666V5.33325C0.333344 4.00717 0.860128 2.7354 1.79781 1.79772C2.73549 0.860036 4.00726 0.333252 5.33334 0.333252H15.4167C15.6104 0.357159 15.7974 0.419487 15.9667 0.516585C16.0164 0.509519 16.0669 0.509519 16.1167 0.516585C16.288 0.59672 16.4456 0.703612 16.5833 0.833252L26.5833 10.8333C26.713 10.971 26.8199 11.1286 26.9 11.2999V11.4499C26.9491 11.596 26.9827 11.7468 27 11.8999V11.9999V15.3333C27 15.7753 26.8244 16.1992 26.5119 16.5118C26.1993 16.8243 25.7754 16.9999 25.3333 16.9999C24.8913 16.9999 24.4674 16.8243 24.1548 16.5118C23.8423 16.1992 23.6667 15.7753 23.6667 15.3333V13.6666H18.6667C17.3406 13.6666 16.0688 13.1398 15.1311 12.2021C14.1935 11.2644 13.6667 9.99267 13.6667 8.66659V3.66659H5.33334C4.89132 3.66659 4.46739 3.84218 4.15483 4.15474C3.84227 4.4673 3.66668 4.89122 3.66668 5.33325V28.6666C3.66668 29.1086 3.84227 29.5325 4.15483 29.8451C4.46739 30.1577 4.89132 30.3333 5.33334 30.3333ZM21.3167 10.3333L17 6.01659V8.66659C17 9.10861 17.1756 9.53254 17.4882 9.8451C17.8007 10.1577 18.2246 10.3333 18.6667 10.3333H21.3167ZM7.48817 10.8214C7.80073 10.5088 8.22465 10.3333 8.66668 10.3333H10.3333C10.7754 10.3333 11.1993 10.5088 11.5119 10.8214C11.8244 11.134 12 11.5579 12 11.9999C12 12.4419 11.8244 12.8659 11.5119 13.1784C11.1993 13.491 10.7754 13.6666 10.3333 13.6666H8.66668C8.22465 13.6666 7.80073 13.491 7.48817 13.1784C7.17561 12.8659 7.00001 12.4419 7.00001 11.9999C7.00001 11.5579 7.17561 11.134 7.48817 10.8214ZM8.66668 16.9999H18.6667C19.1087 16.9999 19.5326 17.1755 19.8452 17.4881C20.1577 17.8006 20.3333 18.2246 20.3333 18.6666C20.3333 19.1086 20.1577 19.5325 19.8452 19.8451C19.5326 20.1577 19.1087 20.3333 18.6667 20.3333H8.66668C8.22465 20.3333 7.80073 20.1577 7.48817 19.8451C7.17561 19.5325 7.00001 19.1086 7.00001 18.6666C7.00001 18.2246 7.17561 17.8006 7.48817 17.4881C7.80073 17.1755 8.22465 16.9999 8.66668 16.9999ZM16.5119 26.5118C16.1993 26.8243 15.7754 26.9999 15.3333 26.9999H8.66668C8.22465 26.9999 7.80073 26.8243 7.48817 26.5118C7.17561 26.1992 7.00001 25.7753 7.00001 25.3333C7.00001 24.8912 7.17561 24.4673 7.48817 24.1547C7.80073 23.8422 8.22465 23.6666 8.66668 23.6666H15.3333C15.7754 23.6666 16.1993 23.8422 16.5119 24.1547C16.8244 24.4673 17 24.8912 17 25.3333C17 25.7753 16.8244 26.1992 16.5119 26.5118Z" fill="#367AFE"/>
<path fill-rule="evenodd" clip-rule="evenodd" d="M33.1833 30.8166L31.2333 28.8833C31.8566 27.7953 32.1061 26.5331 31.9435 25.2899C31.781 24.0467 31.2154 22.891 30.3333 21.9999C29.5217 21.1594 28.4758 20.5827 27.3317 20.3452C26.1877 20.1076 24.9986 20.22 23.9194 20.6679C22.8402 21.1158 21.9209 21.8783 21.2813 22.8561C20.6417 23.8339 20.3113 24.9817 20.3333 26.1499C20.3276 27.1552 20.5848 28.1446 21.0794 29.0198C21.574 29.8951 22.2888 30.6258 23.1529 31.1396C24.017 31.6533 25.0005 31.9323 26.0057 31.9487C27.0109 31.9651 28.0029 31.7185 28.8833 31.2333L30.8167 33.1833C30.9716 33.3395 31.156 33.4635 31.3591 33.5481C31.5621 33.6327 31.78 33.6763 32 33.6763C32.22 33.6763 32.4379 33.6327 32.641 33.5481C32.8441 33.4635 33.0284 33.3395 33.1833 33.1833C33.3396 33.0283 33.4636 32.844 33.5482 32.6409C33.6328 32.4378 33.6763 32.2199 33.6763 31.9999C33.6763 31.7799 33.6328 31.5621 33.5482 31.359C33.4636 31.1559 33.3396 30.9715 33.1833 30.8166ZM26.1417 28.5968C26.7951 28.5968 27.424 28.3476 27.9 27.8999C28.3772 27.4411 28.6529 26.8118 28.6667 26.1499C28.6719 25.8124 28.6073 25.4774 28.477 25.166C28.3466 24.8546 28.1533 24.5734 27.9092 24.3403C27.665 24.1071 27.3754 23.9269 27.0583 23.811C26.7412 23.695 26.4036 23.6459 26.0667 23.6666C25.4403 23.6851 24.8444 23.9413 24.4 24.3833C24.1648 24.6129 23.9785 24.8879 23.8525 25.1915C23.7264 25.4951 23.6632 25.8212 23.6667 26.1499C23.6672 26.8046 23.9245 27.4329 24.3833 27.8999C24.8594 28.3476 25.4882 28.5968 26.1417 28.5968Z" fill="#E58C00"/>
</svg>
