<svg width="34" height="34" viewBox="0 0 34 34" fill="none" xmlns="http://www.w3.org/2000/svg">
<path d="M32.1667 30.3335H3.83333V2.00016C3.83333 1.55814 3.65774 1.13421 3.34518 0.821651C3.03262 0.509091 2.60869 0.333496 2.16667 0.333496C1.72464 0.333496 1.30072 0.509091 0.988155 0.821651C0.675595 1.13421 0.5 1.55814 0.5 2.00016V32.0002C0.5 32.4422 0.675595 32.8661 0.988155 33.1787C1.30072 33.4912 1.72464 33.6668 2.16667 33.6668H32.1667C32.6087 33.6668 33.0326 33.4912 33.3452 33.1787C33.6577 32.8661 33.8333 32.4422 33.8333 32.0002C33.8333 31.5581 33.6577 31.1342 33.3452 30.8217C33.0326 30.5091 32.6087 30.3335 32.1667 30.3335Z" fill="#31BC2E"/>
<path fill-rule="evenodd" clip-rule="evenodd" d="M9.66667 7.00016C10.5871 7.00016 11.3333 7.74636 11.3333 8.66683V10.3335H8V8.66683C8 7.74636 8.74619 7.00016 9.66667 7.00016ZM8 20.3335V25.3335C8 26.254 8.74619 27.0002 9.66667 27.0002C10.5871 27.0002 11.3333 26.254 11.3333 25.3335V20.3335H8Z" fill="#31BC2E"/>
<path d="M13 19.5002V11.1668C13 10.7066 12.6269 10.3335 12.1667 10.3335H11.3333H8H7.16667C6.70643 10.3335 6.33333 10.7066 6.33333 11.1668V19.5002C6.33333 19.9604 6.70643 20.3335 7.16667 20.3335H8H11.3333H12.1667C12.6269 20.3335 13 19.9604 13 19.5002Z" fill="#E58C00"/>
<path fill-rule="evenodd" clip-rule="evenodd" d="M19.6667 3.66683C20.5871 3.66683 21.3333 4.41302 21.3333 5.3335V8.66683H18V5.3335C18 4.41302 18.7462 3.66683 19.6667 3.66683ZM18 18.6668V20.3335C18 21.254 18.7462 22.0002 19.6667 22.0002C20.5871 22.0002 21.3333 21.254 21.3333 20.3335V18.6668H18Z" fill="#31BC2E"/>
<path d="M23 17.8335V9.50016C23 9.03993 22.6269 8.66683 22.1667 8.66683H21.3333H18H17.1667C16.7064 8.66683 16.3333 9.03993 16.3333 9.50016V17.8335C16.3333 18.2937 16.7064 18.6668 17.1667 18.6668H18H21.3333H22.1667C22.6269 18.6668 23 18.2937 23 17.8335Z" fill="#E58C00"/>
<path fill-rule="evenodd" clip-rule="evenodd" d="M29.6667 0.333496C30.5871 0.333496 31.3333 1.07969 31.3333 2.00016V3.66683H28V2.00016C28 1.07969 28.7462 0.333496 29.6667 0.333496ZM28 13.6668V17.0002C28 17.9206 28.7462 18.6668 29.6667 18.6668C30.5871 18.6668 31.3333 17.9206 31.3333 17.0002V13.6668H28Z" fill="#31BC2E"/>
<path d="M33 12.8335V4.50016C33 4.03993 32.6269 3.66683 32.1667 3.66683H31.3333H28H27.1667C26.7064 3.66683 26.3333 4.03993 26.3333 4.50016V12.8335C26.3333 13.2937 26.7064 13.6668 27.1667 13.6668H28H31.3333H32.1667C32.6269 13.6668 33 13.2937 33 12.8335Z" fill="#E58C00"/>
</svg>
