<svg width="21" height="20" viewBox="0 0 21 20" fill="none" xmlns="http://www.w3.org/2000/svg">
<path d="M10.1666 4.50841V3.29757L9.3123 4.15563L7.40474 6.07152C7.40463 6.07163 7.40452 6.07174 7.40441 6.07186C7.37321 6.10297 7.3362 6.12766 7.29549 6.14452L7.48683 6.60646L7.29549 6.14452C7.25464 6.16144 7.21085 6.17015 7.16663 6.17015C7.12241 6.17015 7.07862 6.16144 7.03776 6.14452L6.84642 6.60646L7.03776 6.14452C6.9969 6.1276 6.95978 6.10279 6.92851 6.07152C6.89724 6.04026 6.87244 6.00313 6.85552 5.96228C6.83859 5.92142 6.82988 5.87763 6.82988 5.83341C6.82988 5.78919 6.83859 5.7454 6.85552 5.70454C6.87244 5.66369 6.89724 5.62656 6.92851 5.5953L10.2571 2.26669C10.2882 2.23773 10.3244 2.21495 10.364 2.19959L10.3641 2.19969L10.3733 2.1959C10.4544 2.16256 10.5455 2.16256 10.6266 2.1959L10.6266 2.19599L10.6359 2.19959C10.6755 2.21495 10.7118 2.23772 10.7428 2.26669L14.0714 5.5953L14.0729 5.59674C14.1041 5.62773 14.1289 5.6646 14.1458 5.70522C14.1627 5.74583 14.1715 5.7894 14.1715 5.83341C14.1715 5.87742 14.1627 5.92099 14.1458 5.9616C14.1289 6.00222 14.1041 6.03909 14.0729 6.07008L14.07 6.07298C14.039 6.10422 14.0021 6.12902 13.9615 6.14594C13.9209 6.16286 13.8773 6.17158 13.8333 6.17158C13.7893 6.17158 13.7457 6.16286 13.7051 6.14594C13.6645 6.12902 13.6276 6.10422 13.5966 6.07298L13.5959 6.07229L11.6876 4.15563L10.8333 3.29757V4.50841V12.5001C10.8333 12.5885 10.7982 12.6733 10.7357 12.7358C10.6731 12.7983 10.5884 12.8334 10.5 12.8334C10.4116 12.8334 10.3268 12.7983 10.2643 12.7358C10.2017 12.6733 10.1666 12.5885 10.1666 12.5001V4.50841ZM3.72382 16.7762L4.07737 16.4227L3.72382 16.7762C3.97387 17.0263 4.313 17.1667 4.66663 17.1667H16.3333C16.6869 17.1667 17.0261 17.0263 17.2761 16.7762C17.5262 16.5262 17.6666 16.187 17.6666 15.8334V12.5001C17.6666 12.4117 17.7017 12.3269 17.7643 12.2644C17.8268 12.2019 17.9116 12.1667 18 12.1667C18.0884 12.1667 18.1732 12.2019 18.2357 12.2644C18.2982 12.3269 18.3333 12.4117 18.3333 12.5001V15.8334C18.3333 16.3638 18.1226 16.8726 17.7475 17.2476C17.3724 17.6227 16.8637 17.8334 16.3333 17.8334H4.66663C4.13619 17.8334 3.62749 17.6227 3.25241 17.2476L2.90672 17.5933L3.25241 17.2476C2.87734 16.8726 2.66663 16.3638 2.66663 15.8334V12.5001C2.66663 12.4117 2.70175 12.3269 2.76426 12.2644C2.82677 12.2019 2.91155 12.1667 2.99996 12.1667C3.08836 12.1667 3.17315 12.2019 3.23566 12.2644C3.29817 12.3269 3.33329 12.4117 3.33329 12.5001V15.8334C3.33329 16.187 3.47377 16.5262 3.72382 16.7762Z" stroke="#31BC2E"/>
</svg>
