<svg width="324" height="276" viewBox="0 0 324 276" fill="none" xmlns="http://www.w3.org/2000/svg">
<g opacity="0.7">
<mask id="mask0_2251_78407" style="mask-type:luminance" maskUnits="userSpaceOnUse" x="0" y="9" width="324" height="200">
<path d="M323.71 9.39258H0V208.999H323.71V9.39258Z" fill="white"/>
</mask>
<g mask="url(#mask0_2251_78407)">
<path d="M376.811 87.6674C371.233 88.4754 365.72 88.7614 360.765 92.5082C357.39 95.0538 352.57 94.6534 348.609 92.8944C347.548 92.3815 346.386 92.111 345.208 92.1023C344.029 92.0937 342.863 92.3471 341.795 92.8443C334.394 95.8475 331.112 94.5533 327.494 87.4243C326.979 86.416 326.55 85.1575 325.699 84.5641C325.041 84.1207 323.06 84.2852 322.896 84.6856C319.6 92.7585 312.721 93.9812 305.377 93.5594C297.176 93.0946 289.696 90.6348 285.356 83.3699C282.96 84.3638 280.637 86.1586 278.441 86.0085C276.246 85.8583 274.051 83.5844 271.698 82.6906C266.972 80.8959 262.203 79.0582 257.29 77.9498C255.145 77.4636 252.65 78.7865 250.304 79.2083C247.616 79.6874 244.92 80.3596 242.217 80.4311C237.333 80.5526 234.144 77.4493 233.636 72.5655C233.543 71.6717 233.372 70.7922 233.222 69.8054C228.266 69.0904 223.876 68.9974 218.921 71.1712C215.679 72.6567 212.087 73.2068 208.549 72.7596C205.011 72.3123 201.669 70.8854 198.899 68.6399C196.625 66.8809 195.017 66.9595 192.542 68.4468C185.635 72.6084 178.37 71.9077 171.305 68.7186C169.682 68.0035 168.524 67.3743 167.087 68.7901C166.611 69.2927 165.987 69.6308 165.306 69.7554C160.051 70.1987 154.781 70.5133 149.518 70.9495C148.295 71.0496 146.822 71.1068 145.943 71.7861C139.507 76.6628 134.867 76.341 129.082 70.3989C128.812 70.0536 128.438 69.8031 128.016 69.6839C124.584 69.4479 121.109 69.498 117.72 68.9688C116.132 68.7329 114.03 67.8677 113.336 66.6306C111.906 64.1279 110.398 64.0707 108.403 65.3078C103.547 68.311 99.1069 66.5019 94.974 63.9563C86.7294 58.951 87.0226 47.8034 95.453 41.5824C99.0712 38.9225 102.982 37.95 107.359 39.6733C108.016 39.9307 108.925 39.6733 109.69 39.5016C113.737 38.7437 116.232 36.2267 118.742 32.9732C121.431 29.4981 124.985 29.9343 130.183 33.1377C133.379 25.4509 138.127 20.0237 147.58 23.7348C152.428 25.6511 155.01 29.0691 154.573 33.6954C151.763 28.2468 148.624 23.8778 141.452 24.6358C133.065 25.5224 134.252 32.4084 132.357 38.2217C130.834 37.0347 129.497 36.2696 128.51 35.1684C125.385 31.6361 119.15 32.4942 118.263 37.8141C117.984 39.5159 117.026 41.1034 116.318 42.9053C112.743 39.8663 112.743 39.8663 110.233 44.1066C106.35 39.6375 102.11 40.0022 97.6482 43.1627C92.2711 46.9811 90.5549 52.2152 93.0147 57.7211C95.1599 62.5119 101.595 65.4079 107.28 63.6775C110.598 62.6549 113.143 62.326 114.874 66.0943C115.16 66.7164 117.105 67.0525 118.07 66.7736C120.115 66.1873 121.795 65.5437 123.583 67.553C125.063 69.2262 126.443 68.3467 127.158 66.4519C127.552 65.4079 127.873 64.3496 128.588 62.326C130.419 66.9166 130.019 72.1222 135.846 72.8873C140.852 73.5523 143.24 72.5727 146.844 67.0024C147.895 67.5173 148.989 68.4325 150.076 68.4969C151.942 68.6042 154.259 68.7686 155.632 67.7818C157.319 66.6163 158.549 66.3517 160.237 67.217C162.846 68.4897 165.185 68.4182 167.387 66.2016C167.923 65.6725 169.575 65.6009 170.312 66.0228C178.585 70.7421 186.557 70.3846 194.43 65.0575C194.876 64.8359 195.368 64.7241 195.865 64.7316C196.363 64.739 196.852 64.8655 197.29 65.1004C206.279 72.1722 215.331 72.444 224.784 65.8155C224.976 65.6951 225.177 65.5899 225.385 65.5008V66.4733C227.165 66.6306 229.089 67.2956 230.69 66.838C233.429 66.0514 235.739 65.6867 238.513 67.1097C240.1 67.9249 242.532 67.4744 244.476 67.1097C247.222 66.5448 249.882 65.508 252.642 64.6499C251.727 68.2895 251.727 68.2895 236.146 68.6828C234.888 72.0721 235.581 75.2684 238.02 77.2634C240.665 79.4586 244.455 79.4085 248.302 77.0274L246.993 73.7311C251.091 76.2766 254.659 78.243 257.991 75.1612C260.908 76.7843 263.354 78.6649 266.121 79.5516C270.132 80.8458 270.74 77.1776 272.378 74.6106C272.435 75.7975 272.578 76.9917 272.535 78.1858C272.442 80.7171 273.179 82.8193 275.796 83.5201C278.591 84.2351 281.352 84.0206 283.039 81.2462C284.405 79.001 285.792 78.1572 286.979 81.0961C289.596 87.5315 295.338 89.505 301.209 90.12C306.171 90.642 311.334 89.6195 316.353 88.9044C317.726 88.7042 319.113 87.3527 320.122 86.2015C321.287 84.8715 321.866 83.3413 319.871 81.8469C318.87 81.0818 318.477 79.523 318.298 77.9713C320.25 80.238 322.038 81.3606 325.241 81.2748C327.386 81.2176 329.532 84.4353 332.113 80.6599L332.721 82.233L328.559 85.9655C330.633 93.5451 336.997 94.2673 346.285 87.746C350.447 91.4786 355.087 93.2448 360.522 90.4346C362.474 89.4264 363.89 88.0821 362.023 84.9216C367.494 87.0024 372.234 87.4243 376.825 84.9216L376.811 87.6674Z" fill="#31BC2E"/>
<path d="M144.455 137.384C146.771 130.552 150.398 124.237 155.131 118.793C164.62 107.703 160.622 109.755 173.872 111.5C184.598 112.93 195.195 115.111 205.778 117.32C208.414 117.993 210.844 119.307 212.85 121.146C218.57 126.201 221.781 132.851 223.447 140.238C223.969 142.554 224.205 144.757 220.908 145.422C220.25 145.55 219.478 147.016 219.428 147.881C219.314 151.635 219.557 155.404 219.471 159.165C219.421 161.453 220.579 162.218 222.553 162.232C227.101 162.268 231.648 162.232 236.282 162.232C236.539 160.802 236.739 159.601 237.147 157.227C238.763 158.75 239.786 159.744 240.837 160.702C241.373 161.196 241.952 162.025 242.524 162.039C248.416 162.139 254.322 162.097 260.4 162.097V158.192L253.128 156.047C253.128 155.804 253.128 155.568 253.128 155.332L261.981 153.495L260.551 151.006L260.958 150.563L264.09 152.615L261.845 145.722L262.388 145.45C263.461 147.09 264.538 148.728 265.62 150.363C269.381 146.644 269.646 145.3 267.358 140.152L269.31 141.51L270.147 141.153C269.126 138.054 268.101 134.956 267.072 131.857C267.987 135.432 275.016 133.101 273.657 137.814C275.009 139.565 276.324 140.595 276.689 141.889C277.368 144.335 278.77 144.514 281.03 144.034C280.872 143.005 280.736 142.097 280.508 140.566L291.319 145.329L291.04 146.115L285.978 144.442L285.334 143.398C284.619 144.742 283.189 146.158 283.303 147.409C283.561 149.748 285.62 148.84 287.329 148.933C291.816 149.113 296.285 149.615 300.701 150.434C303.832 151.028 305.992 149.633 306.235 146.344C306.315 144.985 306.798 143.681 307.622 142.597C309.189 140.793 310.136 138.534 310.324 136.151C310.512 133.769 309.931 131.389 308.666 129.362C307.551 127.631 307.758 124.671 304.519 124.85C304.419 124.85 304.283 124.278 304.176 123.97C302.359 118.664 301.494 118.121 296.532 119.158C294.094 112.787 292.835 112.301 288.23 116.484C287.823 115.189 287.451 114.095 287.143 112.987C286.342 110.084 284.891 107.667 281.766 106.945C278.384 106.165 274.98 106.53 272.613 109.219C271.498 110.477 271.434 112.658 270.897 114.417C269.768 114.639 267.78 114.467 266.914 115.368C266.049 116.269 266.378 118.228 266.149 119.923C259.428 119.58 263.289 125.829 261.244 128.546C256.611 126.323 255.059 127.166 253.579 132.315C253.275 133.4 252.555 134.322 251.577 134.882C247.322 136.584 246.385 138.679 248.516 142.747C249.08 143.733 249.756 144.65 250.533 145.479C251.248 146.323 252.12 147.073 252.892 147.831C252.242 149.333 251.67 150.692 251.312 151.471C249.968 148.961 248.409 146.301 247.086 143.52C244.548 138.185 245.763 135.232 251.183 132.794C251.586 132.629 251.952 132.385 252.258 132.075C252.564 131.765 252.804 131.397 252.964 130.992C253.815 126.408 256.332 124.485 260.965 125.922C260.765 120.338 265.313 113.695 269.732 112.722C270.447 108.911 272.413 106.366 278.012 105.622C284.169 104.8 287.215 108.425 288.652 113.852C293.164 111.585 295.674 112.858 296.989 117.771C302.224 116.913 303.303 117.549 304.941 122.454C305.038 122.974 305.256 123.464 305.577 123.884C312.013 129.683 313.307 136.219 309.21 142.283C308.201 143.77 307.901 145.808 307.508 147.638C306.693 151.435 303.218 153.723 300.543 152.594L286.671 159.515L288.423 162.847H301.602C301.702 161.746 301.795 160.759 301.923 159.394C303.06 159.272 304.44 158.714 305.406 159.129C305.926 159.419 306.379 159.818 306.733 160.298C307.087 160.777 307.334 161.327 307.458 161.911C307.98 165.279 308.13 168.704 308.452 172.107C308.716 174.81 309.017 177.506 309.367 180.895L301.673 180.38L303.21 178.271C302.395 176.09 291.24 175.918 286.6 177.892L288.173 180.116C286.149 180.309 284.304 180.888 282.696 180.495C281.737 180.259 281.158 178.493 280.078 176.92C275.016 175.604 270.668 175.775 267.63 177.742L270.819 179.029C270.819 179.272 270.754 179.515 270.726 179.744H254.508L254.423 179.136L261.816 178.507C259.978 175.79 246.8 175.718 241.33 178.779H247.05C245.62 180.759 235.059 181.639 231.763 179.751L236.925 180.009C235.796 178.536 235.188 177.084 234.616 177.098C228.402 177.263 222.202 177.649 216.024 178.021C215.817 178.021 215.638 178.528 214.966 179.501H222.117V180.395L210.34 181.181C210.34 177.427 207.737 177.463 204.827 177.606C200.629 177.821 196.411 177.678 192.22 177.921C191.033 177.985 189.896 178.872 188.745 179.351L191.899 181.71H179.028L178.913 181.367L182.574 180.202C181.659 177.849 181.659 177.849 174.151 178.843C173.994 177.063 173.844 175.268 173.636 172.937C176.568 172.937 179.357 172.872 182.167 172.937C184.526 173.008 185.52 172.029 185.12 169.297C183.702 169.061 182.267 168.934 180.83 168.918C173.794 169.326 167.494 167.145 160.944 164.721C154.394 162.297 147.058 162.068 140.88 167.002C135.51 171.292 129.875 174.36 122.567 173.902C117.099 173.484 111.6 173.777 106.207 174.774C101.781 175.683 97.7123 178.35 93.4792 180.202C92.6212 180.573 91.6487 181.217 90.855 181.074C88.9816 180.731 87.2011 179.565 85.3563 179.487C80.022 179.265 74.6806 179.408 69.5179 179.408C67.9162 185.371 64.2051 181.989 60.8158 182.404C63.0825 180.638 63.819 179.122 60.7157 178.979C56.0035 178.757 51.277 178.922 45.9642 178.922L47.5373 181.782C42.6678 183.684 41.1019 183.098 40.6443 179C36.2109 178.285 31.749 177.17 26.6078 179.422L30.5335 181.103L30.3618 181.853H14.1803L14.1016 181.038L21.5524 180.502C19.2857 177.792 6.53639 177.728 1.18068 180.702H7.2872C4.74162 182.883 -5.2619 183.691 -8.37238 181.76L-4.59691 182.018C-3.88187 180.13 -4.26801 178.743 -6.39885 178.793C-12.0835 178.922 -17.761 179.258 -23.4313 179.63C-23.9962 179.673 -24.5039 180.538 -24.6469 181.732H-18.1757L-18.14 182.375L-29.5807 183.162C-31.397 179.522 -31.397 179.587 -36.2021 179.508C-42.4087 179.451 -48.6082 179.265 -54.7934 179.272C-55.7444 179.272 -56.6954 179.987 -57.6536 180.409C-56.8599 180.91 -56.0662 181.424 -55.2653 181.918C-54.5494 182.272 -53.9783 182.863 -53.6493 183.591L-67.3139 182.926L-67.364 182.211C-67.006 182.181 -66.6555 182.092 -66.3271 181.946C-65.6121 181.482 -64.897 180.931 -64.182 180.416C-64.897 179.851 -65.6121 178.829 -66.3271 178.779C-72.7626 178.328 -79.2624 178.064 -85.9266 177.72L-86.892 181.76L-99.1407 180.538V179.908H-92.1762L-91.9259 179.043C-92.5909 178.621 -93.2201 177.878 -93.9137 177.813C-99.3481 177.294 -104.787 176.85 -110.231 176.483C-112.376 176.34 -113.914 177.005 -112.812 179.851L-109.437 179.665C-111.583 181.567 -121.765 180.767 -124.74 178.357L-118.955 178.793C-122.165 175.668 -135.708 174.882 -139.412 177.599L-130.753 178.679C-131.718 179.243 -131.897 179.437 -132.076 179.437C-137.138 179.437 -142.203 179.437 -147.271 179.437L-147.528 178.335L-144.06 176.619C-148.622 174.295 -152.877 175.032 -157.124 175.904C-157.746 179.959 -158.905 180.423 -163.81 178.528L-162.544 176.312C-167.936 174.717 -173.063 174.982 -178.819 175.683L-176.781 178.864H-227.006V178.149C-213.813 177.735 -200.628 177.248 -187.428 176.97C-184.568 176.905 -183.402 176.026 -183.445 173.051C-183.502 168.954 -183.052 164.857 -183.009 160.759C-183.009 158.478 -181.836 157.063 -179.863 157.184C-178.876 157.241 -177.996 159.043 -176.445 160.759C-169.523 161.989 -165.44 161.474 -164.41 158.7C-167.986 156.369 -171.654 154.002 -175.308 151.65C-175.866 151.285 -176.638 150.577 -177.031 150.734C-181.457 152.508 -182.187 148.632 -183.702 146.294C-186.734 141.61 -187.928 136.283 -188.336 130.777C-188.608 127.009 -187.399 124.149 -183.774 122.411C-183.281 122.12 -182.859 121.724 -182.537 121.25C-182.216 120.777 -182.003 120.238 -181.915 119.673C-181.643 114.732 -181.715 114.667 -176.809 115.697C-176.259 115.811 -175.701 115.854 -175.165 115.926C-172.741 109.169 -171.432 108.396 -167.514 111.471C-167.218 110.752 -166.979 110.011 -166.799 109.254C-165.369 101.11 -156.001 101.682 -151.897 105.15C-151.286 105.796 -150.801 106.55 -150.467 107.374C-150.152 107.96 -150.174 108.804 -149.752 109.254C-147.864 111.4 -146.105 113.759 -143.867 115.475C-141.264 117.478 -140.385 119.766 -141.186 122.983C-140.721 123.131 -140.241 123.229 -139.756 123.277C-134.936 123.134 -133.799 123.992 -132.276 128.439C-131.899 129.657 -131.08 130.69 -129.981 131.335C-124.125 133.859 -122.83 138.049 -127.085 143.112C-128.951 145.329 -129.266 147.081 -128.393 149.755C-126.906 154.331 -127.864 155.532 -132.555 156.34C-133.785 156.548 -134.958 157.127 -136.187 157.277C-138.604 157.585 -138.84 158.965 -138.19 161.038H-120.807L-115.916 155.725C-115.337 157.978 -115.022 159.229 -114.579 160.931H-99.012C-99.226 156.608 -100.57 152.417 -102.909 148.775C-103.289 148.213 -103.561 147.585 -103.71 146.923C-104.389 142.862 -97.8107 135.411 -93.6992 135.575C-88.4293 135.776 -86.7918 138.235 -88.9155 143.441C-84.5251 144.084 -85.3403 147.367 -85.3975 150.434C-85.5047 154.167 -85.3975 157.899 -85.3975 161.946H-73.9567C-74.4286 156.019 -74.8863 150.291 -75.3439 144.485L-79.8273 143.226C-78.2112 141.124 -76.917 139.079 -75.2652 137.392C-74.3055 136.517 -73.6202 135.382 -73.2928 134.126C-72.9653 132.869 -73.0096 131.545 -73.4204 130.313C-74.1355 127.595 -74.3142 124.735 -74.779 121.61L-66.2842 119.322C-65.705 121.124 -65.2617 122.483 -64.7254 124.135C-63.9103 123.491 -63.1809 123.005 -62.5803 122.411C-61.1158 120.965 -59.363 119.844 -57.436 119.121C-55.509 118.397 -53.4513 118.088 -51.3969 118.214C-41.8367 118.572 -32.2765 118.929 -22.7091 119.329C-21.716 119.338 -20.7507 119.658 -19.949 120.245C-12.9844 126.258 -6.09137 132.401 1.23074 138.836C-3.00235 139.401 -3.05956 142.118 -3.00951 145.086C-2.92369 148.954 -3.00951 152.83 -3.14536 156.705C-3.20972 158.693 -2.99519 160.359 -0.664139 160.867C-0.349518 160.938 0.179611 161.103 0.201065 161.274C0.830307 165.708 4.31975 164.134 6.78667 164.277C11.1914 164.485 15.6104 164.335 20.0294 164.335C20.4584 161.074 18.6494 159.515 14.2446 159.429C9.83994 159.344 9.06769 158.335 9.2393 153.995C9.2822 152.758 8.52423 151.435 7.9951 150.241C7.05124 148.203 5.49957 146.337 5.02765 144.22C4.04803 139.866 6.05731 137.427 10.984 135.833C10.984 133.387 10.6908 130.985 11.0984 128.682C11.3201 127.417 12.4856 125.672 13.5939 125.336C16.354 124.485 17.4695 122.712 17.5839 120.159C17.6626 118.35 18.492 117.599 19.9507 116.584C22.9999 114.312 25.836 111.768 28.4241 108.983C33.0862 104.135 43.626 105.779 46.3789 111.936C47.0153 113.366 47.4873 114.868 48.0665 116.398C52.0421 112.351 55.41 115.368 57.5266 120.381C62.7393 118.672 63.0611 118.858 65.0918 124.492C65.3305 125.101 65.7434 125.626 66.2788 126.001C73.3578 130.692 74.745 138.693 69.7253 145.364C68.8112 146.626 68.1862 148.074 67.8948 149.605C66.8222 155.182 64.4983 156.483 59.6717 154.224L46.143 160.981L48.0164 164.892H61.2305C61.3592 163.756 61.4879 162.676 61.6095 161.618C65.7282 160.316 66.5648 160.709 67.0868 164.699C67.6731 169.204 68.0378 173.738 68.5169 178.743C70.6263 178.2 72.6856 177.992 74.4232 177.141C76.2507 176.209 78.2616 175.691 80.3122 175.626C82.3628 175.56 84.4026 175.948 86.2859 176.762C89.6537 178.114 92.6855 177.477 95.7245 175.675C98.7635 173.873 101.888 172.358 105.506 170.427C105.506 161.339 105.506 151.664 105.506 141.989C105.506 139.844 105.821 137.699 105.85 135.511C105.85 133.037 106.944 130.42 104.419 128.289C103.783 127.753 103.783 126.08 103.976 125.021C105.17 118.35 108.552 112.944 114.831 110.27C120.816 107.724 126.35 109.44 131.148 113.888C135.789 118.178 138.613 123.284 139.135 129.862C136.461 130.577 136.275 132.451 136.404 134.939C136.897 144.606 137.119 154.288 137.483 164.435L147.494 161.103C147.78 154.56 148.209 147.982 148.209 141.403C148.266 140.288 146.25 139.179 144.455 137.384ZM272.814 146.509L275.087 142.483L271.655 139.73C270.518 142.59 270.747 144.735 272.771 146.544C272.949 152.594 276.818 157.191 279.113 162.397C279.324 162.702 279.609 162.947 279.943 163.109C280.276 163.27 280.646 163.343 281.015 163.319C281.73 163.155 282.367 162.39 282.946 161.796C283.732 160.988 284.376 160.066 285.191 159.244C287.622 156.691 290.089 154.16 292.949 151.199C285.241 150.041 285.02 150.234 284.226 156.455C284.147 157.07 283.16 157.577 282.595 158.135L281.501 157.67V147.66L280.658 147.703C280.221 149.984 279.785 152.272 279.228 155.168L276.303 153.409C276.947 153.094 278.012 152.901 278.148 152.443C278.59 150.635 278.934 148.804 279.178 146.959L275.545 145.665C275.888 148.739 276.146 151.135 276.41 153.53C275.574 150.942 274.737 148.353 273.915 145.829L272.814 146.509ZM-154.686 151.964L-156.745 153.63L-158.676 145.815L-159.477 145.872V156.162L-160.499 156.398C-160.828 155.554 -161.4 154.732 -161.457 153.866C-161.793 148.94 -163.853 147.495 -168.808 149.455L-162.53 157.148C-161.7 158.164 -160.928 159.251 -160.013 160.195C-159.462 160.767 -158.64 161.553 -158.039 161.474C-157.627 161.355 -157.245 161.151 -156.915 160.877C-156.585 160.603 -156.316 160.263 -156.123 159.88C-153.599 155.068 -151.404 150.134 -150.753 144.649C-150.481 142.376 -150.038 140.13 -149.552 137.277C-154.064 139.959 -154.142 140.395 -151.954 143.133C-152.298 144.564 -152.476 145.357 -152.669 146.144C-153.141 147.917 -153.627 149.719 -154.099 151.464V143.87L-158.061 145.2L-154.686 151.964ZM65.149 127.653L62.2888 129.276C61.9599 128.275 61.5738 127.288 61.3235 126.273C61.2448 125.979 61.4808 125.608 61.4736 125.272C61.4379 123.977 61.3664 122.683 61.3092 121.396C59.9649 121.689 58.3775 121.632 57.3192 122.354C55.0168 123.906 54.2802 122.776 53.7869 120.788C53.5938 120.023 53.6439 119.186 53.3936 118.45C52.6786 116.391 51.4915 115.647 49.611 117.299C46.6578 119.894 46.0357 119.673 45.2349 115.704C45.1205 115.146 45.1061 114.567 44.9489 114.024C43.7905 110.105 39.9435 108.146 35.0311 108.94C31.2556 109.555 30.0615 111.021 30.1831 114.925C24.3983 114.145 24.8202 114.775 24.1838 119.68L20.6801 119.258C19.8935 121.832 19.157 124.263 18.3705 126.838L14.5307 126.373C14.2375 129.948 13.9729 133.237 13.7084 136.519C8.92468 137.778 7.2729 139.687 8.44559 143.033C8.98187 144.606 9.73267 146.351 10.9268 147.395C12.6715 148.911 13.2078 150.112 12.0566 152.265C11.5846 153.13 11.7062 155.01 12.3354 155.59C13.0505 156.305 14.6594 156.083 15.9107 156.269C16.6855 156.424 17.4686 156.534 18.2561 156.598C19.6862 156.655 21.1163 156.598 23.1684 156.598L20.6872 152.493L21.2593 152.029L24.5699 154.739C23.5689 151.764 22.8252 149.555 22.0887 147.345L22.6608 147.109L25.521 151.929L26.4791 152.143C27.3944 149.283 28.3025 146.423 29.418 142.948L35.7462 146.644L36.2968 145.329L40.9088 145.958L40.1008 143.133C42.1458 143.434 44.1194 143.362 45.7568 144.07C47.3943 144.778 48.7458 146.258 50.2045 147.388L42.582 147.903C42.296 149.247 42.7179 150.677 45.2706 150.67C49.232 150.67 53.2005 150.67 57.1619 150.67C57.7053 150.67 58.2345 151.02 58.7851 151.071C60.4583 151.228 63.1898 151.986 63.6116 151.321C64.6342 149.69 64.6985 147.402 64.9273 145.35C65.0274 144.492 64.5555 143.563 64.341 142.669L67.5659 143.205C70.612 136.619 69.8254 131.528 65.1704 127.653H65.149ZM-152.011 112.694C-151.54 108.404 -151.611 108.203 -154.321 106.566C-159.884 103.191 -164.103 105.293 -164.982 111.764C-165.133 112.865 -165.905 113.909 -166.413 114.932C-167.196 114.444 -167.95 113.912 -168.672 113.337C-170.438 111.793 -171.826 112.15 -172.362 114.431C-172.598 115.418 -172.362 116.577 -172.805 117.435C-173.141 118.078 -174.371 118.865 -174.95 118.679C-180.177 117.184 -180.163 117.127 -179.283 122.347C-179.283 122.454 -179.162 122.576 -179.183 122.669C-179.405 123.505 -179.648 124.335 -179.898 125.164C-180.506 124.835 -181.121 124.242 -181.722 124.256C-182.568 124.286 -183.38 124.596 -184.031 125.136C-184.525 125.593 -184.453 126.609 -184.825 127.281C-186.856 130.913 -186.377 136.641 -183.996 139.851C-182.978 141.189 -182.28 142.742 -181.958 144.392C-181.4 147.788 -179.426 148.968 -176.237 147.667C-174.888 147.178 -173.461 146.936 -172.026 146.952C-168.829 146.873 -165.59 147.159 -162.444 146.887C-161.851 146.83 -161.014 144.85 -161.014 143.763C-161.014 142.676 -161.922 141.517 -162.444 140.395L-163.502 142.132L-168.336 144.106L-168.679 143.305L-158.225 138.2L-159.355 141.775C-156.566 142.261 -155.193 141.61 -154.607 138.75C-154.221 136.862 -151.346 135.811 -152.09 133.166C-152.09 133.073 -151.582 132.794 -151.289 132.629C-149.738 131.736 -148.179 130.849 -146.82 130.077C-147.535 132.694 -148.336 135.797 -149.158 138.857L-148.193 139.101L-146.763 138.192C-149.466 142.533 -147.006 145.286 -144.275 148.203L-141.686 143.198L-141.128 143.448L-143.023 150.863L-140.106 148.518L-139.605 149.04L-141.25 152.014C-139.298 154.646 -137.517 153.952 -136.616 152.923C-134.264 152.751 -131.718 152.83 -131.675 152.522C-131.332 150.284 -131.49 147.967 -131.49 145C-128.722 142.14 -126.949 138.765 -128.2 136.512C-129.244 134.617 -131.361 133.316 -133.005 131.75L-133.721 132.465C-135.201 125.708 -136.874 124.506 -142.072 126.459C-143.817 123.677 -140.685 118.042 -147.035 117.949C-147.328 112.265 -147.514 112.057 -152.011 112.694ZM-4.9473 164.177C-4.9473 155.74 -4.9473 147.674 -4.9473 139.601C-4.94252 139.047 -5.14093 138.51 -5.50504 138.092C-10.6391 133.487 -15.8089 128.933 -21.1789 124.185C-23.7674 127.045 -26.0055 129.583 -28.3723 132.05C-32.9772 136.812 -35.866 141.925 -34.4502 149.068C-33.442 154.138 -33.6851 159.451 -33.3634 164.656C-28.358 165.665 -31.1396 161.231 -29.259 159.458C-28.2007 160.359 -27.1138 161.21 -26.1127 162.147C-25.2475 162.947 -24.461 163.841 -23.6387 164.692L-22.8807 164.099V145.214C-21.279 145.007 -19.8275 144.714 -18.3688 144.642C-14.3645 144.449 -13.9569 144.878 -13.7424 148.933C-13.4778 154.009 -13.1775 159.086 -12.8915 164.185L-4.9473 164.177ZM-22.6519 121.932C-23.8872 121.595 -25.1473 121.356 -26.4202 121.217C-35.4012 120.981 -44.3823 120.688 -53.3561 120.731C-55.5013 120.731 -58.2614 121.317 -59.6486 122.719C-65.5191 128.668 -70.9821 135.018 -76.9599 141.632C-76.0161 141.703 -75.6085 141.761 -75.208 141.753C-63.5027 141.525 -51.7902 141.332 -40.0848 140.974C-38.9056 140.781 -37.8402 140.157 -37.0959 139.222C-32.3694 133.716 -27.7574 128.06 -22.6519 121.932ZM-72.5552 161.782L-71.7329 162.704C-70.8748 161.889 -70.074 161.003 -69.1516 160.273C-68.2292 159.544 -67.1137 158.414 -66.0197 158.321C-65.3046 158.257 -64.5252 159.801 -63.7029 160.545C-62.8806 161.289 -61.901 162.611 -60.8999 162.69C-57.7465 163.026 -54.5431 162.897 -51.3611 162.976C-50.3529 162.976 -49.0444 162.754 -48.3865 163.276C-44.2679 166.516 -39.8059 164.313 -35.1653 165C-35.6158 157.134 -36.0305 149.984 -36.4595 142.54L-73.5348 143.756C-73.213 150.034 -72.8913 155.883 -72.5552 161.782ZM133.965 166.644C127.923 167.631 122.246 167.402 116.64 162.74C122.803 163.141 127.616 161.989 132.442 158.085L120.129 157.063L120.201 156.684L129.689 154.982C129.639 154.803 129.582 154.624 129.532 154.453L119.693 151.442C119.772 151.099 119.857 150.727 119.936 150.42L131.413 149.097L131.305 148.518L124.04 146.194C124.112 145.865 124.176 145.536 124.248 145.207L130.454 144.006L126.944 140.867L133.322 138.335L126.886 135.833L133.286 132.386L132.964 131.671L108.617 130.499C108.452 130.842 108.202 131.142 108.202 131.435C108.016 143.491 107.866 155.547 107.687 167.602C107.652 169.748 108.674 170.713 110.791 170.649C112.721 170.591 114.795 170.112 116.561 170.649C123.168 172.572 128.495 169.583 133.951 166.644H133.965ZM178.384 163.584C177.919 154.403 177.569 145.665 176.954 136.948C176.818 135.011 176.239 132.658 174.981 131.335C170.883 127.045 166.4 123.091 161.902 118.9C159.5 122.354 157.019 125.743 154.752 129.262C153.787 130.756 152.714 132.508 152.607 134.188C152.142 142.254 152.027 150.334 151.72 158.407C151.627 160.917 152.936 161.267 154.938 160.838C155.167 155.647 155.403 150.484 155.653 144.821L173.136 146.587V163.326L178.384 163.584ZM183.297 162.64L184.291 163.591C185.249 162.712 186.221 161.853 187.151 160.96C187.823 160.309 188.424 159.072 189.074 159.05C190.04 159.05 191.706 159.687 191.884 160.359C192.599 163.219 194.702 162.926 196.697 162.819C199.764 162.654 202.832 162.44 205.878 162.054C208.195 161.753 210.776 161.489 210.125 157.599L214.315 159.086V145.779C209.01 146.237 203.911 146.587 198.835 147.138C193.758 147.688 188.524 148.453 183.289 149.133L183.297 162.64ZM116.933 123.977L117.062 123.448L127.959 122.097C127.959 121.732 128.002 121.382 128.016 121.003L117.155 118.3L124.441 116.369C113.758 112.794 111.184 113.652 107.544 121.518C105.735 125.429 106.6 127.796 110.848 127.953C117.197 128.167 123.576 127.438 129.947 127.109L129.861 126.33L116.933 123.977ZM31.127 145.236L30.3404 145.6C33.1505 151.778 35.9249 157.978 38.828 164.113C39.0682 164.447 39.3807 164.723 39.7422 164.92C40.1037 165.117 40.5049 165.23 40.916 165.25C41.438 165.25 42.0172 164.421 42.5034 163.899C43.3686 162.976 44.1981 162.018 45.0132 161.038C47.0583 158.579 49.0818 156.104 51.3271 153.38C45.0418 151.585 44.4698 152.064 43.9335 158.25C43.8834 158.879 43.0969 159.451 42.6535 160.052L41.4022 159.744V149.662L40.4727 149.726C39.9673 152.11 39.462 154.493 38.9568 156.877C35.3386 156.498 34.3089 154.017 34.3804 151.535C34.4376 148.518 32.6071 147.073 31.127 145.236ZM263.153 155.768C262.781 156.483 261.359 157.821 261.48 159.043C262.081 165.214 263.053 171.349 263.983 177.492C264.076 178.085 264.698 178.593 265.134 179.143L265.649 178.786L262.989 159.715L263.783 159.408C264.254 160.516 264.734 161.625 265.341 163.026H277.819C277.49 160.23 276.475 159.043 273.936 158.65C270.611 158.128 267.358 156.927 263.125 155.768H263.153ZM217.111 137.599L217.068 136.319C205.098 136.677 192.914 133.366 181.216 138.228C181.216 138.707 181.266 139.186 181.294 139.658L217.111 137.599ZM177.712 127.281V128.382H213.221C206.536 124.263 183.068 123.212 177.712 127.281ZM180.25 132.365L180.572 133.323H216.618C216.26 132.901 216.146 132.608 215.982 132.608C205.334 130.463 194.616 129.283 183.804 130.827C182.582 130.985 181.452 131.829 180.279 132.358L180.25 132.365ZM174.015 121.789L210.418 123.605C205.027 119.759 179.421 118.436 174.044 121.782L174.015 121.789ZM181.287 143.512C194.53 144.578 207.651 142.34 221.38 142.311C219.471 140.359 183.597 141.439 181.287 143.512ZM37.5624 165.178C36.6114 161.024 32.0422 158.743 23.9765 158.121C23.0969 158.057 22.1388 159.022 21.6168 159.301L25.5138 165.178H37.5624ZM-24.5039 170.32L-25.2762 171.55C-24.5611 172.336 -23.7746 173.802 -23.0452 173.788C-17.146 173.688 -11.2469 173.366 -5.36201 172.937C-4.73993 172.894 -4.21078 171.714 -3.63159 171.056C-4.26799 170.606 -4.90439 169.748 -5.52649 169.762C-11.8904 169.848 -18.2115 170.091 -24.5396 170.298L-24.5039 170.32ZM236.346 168.36H215.688C215.145 171.035 215.831 171.936 218.027 171.828C223.468 171.507 228.91 171.264 234.351 171.063C236.718 170.978 236.882 169.791 236.346 168.36ZM-114.028 166.787C-114.807 169.54 -113.978 170.363 -111.683 170.47C-105.891 170.727 -100.113 171.185 -94.3213 171.571C-93.9124 171.567 -93.5041 171.538 -93.0986 171.485C-92.9556 170.541 -92.8125 169.605 -92.5766 168.024L-114.028 166.787ZM-66.2413 172.129C-66.0482 169.676 -67.507 168.675 -69.8881 168.589C-73.3918 168.468 -76.9027 168.353 -80.4064 168.282C-82.6231 168.232 -84.8469 168.282 -87.4354 168.282C-87.1494 169.776 -86.9491 170.806 -86.7203 172.136L-66.2413 172.129ZM-142.887 161.689L-143.166 160.752L-139.684 155.382C-141.114 155.225 -142.408 154.767 -143.574 155.01C-146.348 155.597 -149.008 156.855 -151.797 157.198C-154.586 157.542 -154.972 159.086 -155.151 161.689H-142.887ZM-87.4997 173.437C-86.6846 174.388 -86.1125 175.661 -85.4619 175.711C-78.6331 176.212 -71.7901 176.512 -64.9757 176.862C-64.6539 173.688 -66.5988 173.509 -68.2363 173.48C-74.3357 173.373 -80.4207 173.437 -87.4997 173.437ZM162.539 158.028L169.36 161.946L170.433 160.516C169.289 159.608 168.145 158.707 167.008 157.792C165.249 156.362 164.684 155.053 166.614 153.123C167.937 151.793 168.717 149.912 169.739 148.282L169.189 147.946L163.197 153.495L157.691 147.738L156.625 148.525C157.998 150.875 159.369 153.228 160.737 155.582L161.824 156.548L157.147 159.136L157.862 160.137L162.539 158.028ZM251.956 171.035V170.935C254.337 170.935 256.718 171.028 259.106 170.885C259.957 170.834 260.765 170.169 261.594 169.833C260.751 169.118 259.914 167.781 259.049 167.76C253.851 167.653 248.638 167.803 243.439 167.989C242.782 167.989 242.152 168.789 241.509 169.218C242.167 169.819 242.789 170.899 243.489 170.949C246.292 171.171 249.131 171.056 251.956 171.056V171.035ZM-67.8144 166.158C-68.8441 164.978 -69.695 163.119 -70.6317 163.069C-76.2735 162.797 -81.9367 162.933 -87.5855 162.933L-88.179 163.741C-87.3925 164.542 -86.6274 166.022 -85.8122 166.051C-80.0847 166.28 -74.3428 166.18 -67.8144 166.18V166.158ZM11.556 173.015V172.98C13.9372 172.98 16.3254 173.116 18.7065 172.915C19.5789 172.837 20.3869 171.971 21.2164 171.485C20.4084 170.87 19.6004 169.748 18.7781 169.733C13.5725 169.633 8.35979 169.733 3.15422 169.912C2.48923 169.912 1.84569 170.742 1.18784 171.185C1.81708 171.8 2.41772 172.908 3.08987 172.951C5.91432 173.151 8.75307 173.044 11.5847 173.044L11.556 173.015ZM-129.044 166.916V166.609C-131.754 166.609 -134.478 166.48 -137.174 166.702C-137.839 166.759 -138.411 167.946 -139.026 168.611C-138.311 169.018 -137.703 169.705 -136.988 169.791C-135.194 169.991 -133.37 169.883 -131.561 169.962C-128.508 170.098 -125.455 170.456 -122.416 170.363C-121.322 170.363 -120.27 169.261 -119.184 168.668C-120.206 168.089 -121.193 167.131 -122.273 167.009C-124.526 166.846 -126.787 166.815 -129.044 166.916ZM-104.382 162.082V162.161C-107.106 162.025 -109.831 161.803 -112.562 161.818C-113.349 161.818 -114.135 162.533 -114.922 162.919C-114.207 163.469 -113.492 164.428 -112.741 164.499C-106.859 165.043 -100.959 165.464 -95.0435 165.765C-94.3285 165.801 -93.6134 164.892 -92.8984 164.428C-93.5419 163.813 -94.1282 162.747 -94.829 162.669C-98.0324 162.318 -101.229 162.254 -104.411 162.082H-104.382ZM215.824 163.326L215.023 164.814C215.924 165.379 216.84 166.444 217.726 166.423C223.404 166.28 229.088 165.958 234.752 165.522C235.467 165.464 236.146 164.399 237.39 163.326H215.824ZM-25.0402 165.472C-25.0402 169.962 -22.18 168.382 -20.6069 168.332C-5.21901 168.124 -4.12498 167.867 -3.73886 165.472H-25.0402ZM189.646 171.278L190.461 171.914H209.675C210.39 169.59 210.039 168.396 207.708 168.468C202.703 168.611 197.733 168.582 192.764 168.947C191.648 169.011 190.654 170.448 189.618 171.264L189.646 171.278ZM-30.3887 170.684C-36.3451 170.684 -41.8867 170.577 -47.4212 170.777C-48.4366 170.813 -49.4091 172.072 -50.403 172.772L-49.9025 173.823H-30.3887V170.684ZM-113.485 171.614L-114.035 172.872C-113.206 173.437 -112.434 174.374 -111.547 174.496C-108.522 174.903 -105.462 175.11 -102.416 175.211C-99.1836 175.325 -95.9802 175.211 -91.7686 175.211C-92.9484 173.924 -93.5491 172.665 -94.2426 172.615C-100.649 172.15 -107.071 171.893 -113.485 171.614ZM63.7975 175.754L63.5401 175.797C63.8045 177.585 64.1988 179.351 64.72 181.081C64.8987 181.582 66.1501 181.796 66.9509 181.889C67.1297 181.889 67.666 180.867 67.666 180.359C67.0582 174.867 66.4218 169.369 65.6281 163.913C65.5208 163.198 64.5341 162.54 63.9549 161.861C63.5902 162.669 62.8823 163.498 62.9252 164.285C63.0897 168.039 63.4829 171.893 63.7975 175.718V175.754ZM308.03 179.608C307.672 176.44 307.315 173.645 307.05 170.849C306.757 167.931 306.65 164.978 306.156 162.097C306.021 161.317 304.783 160.724 304.054 160.044C303.711 160.86 303.017 161.696 303.067 162.49C303.382 167.223 303.782 171.957 304.34 176.669C304.569 178.643 304.948 180.96 308.03 179.572V179.608ZM190.883 166.551C197.497 166.551 203.039 166.63 208.559 166.458C209.274 166.458 209.946 165.143 210.64 164.442C205.161 163.695 199.624 163.456 194.101 163.727C193.171 163.748 192.306 165.25 190.883 166.551ZM-179.398 160.652L-178.475 160.288L-180.299 158.142C-180.821 158.857 -181.729 159.572 -181.808 160.352C-182.237 165.75 -182.523 171.156 -182.737 176.562C-182.708 176.902 -182.593 177.23 -182.405 177.515C-182.216 177.799 -181.959 178.032 -181.657 178.192C-181.32 178.186 -180.99 178.092 -180.7 177.918C-180.411 177.745 -180.171 177.5 -180.006 177.206C-179.625 176.027 -179.427 174.797 -179.419 173.559C-179.355 169.247 -179.398 164.95 -179.398 160.652ZM236.625 172.672C229.996 172.672 223.69 172.608 217.383 172.751C216.668 172.751 215.953 173.938 215.009 174.824C221.394 176.562 235.181 175.253 236.625 172.672ZM188.752 174.817L189.382 175.647C195.574 175.647 201.759 175.704 207.973 175.575C208.688 175.575 209.31 174.546 209.982 173.995C209.267 173.695 208.552 173.144 207.801 173.137C202.489 173.094 197.176 173.08 191.87 173.266C190.797 173.301 189.782 174.274 188.752 174.817ZM-60.1205 182.34L-59.3411 181.739C-59.4082 180.992 -59.5157 180.25 -59.6629 179.515C-61.236 173.502 -62.8019 167.488 -64.4751 161.503C-64.6897 160.724 -65.5263 160.116 -66.0769 159.429C-66.5845 160.195 -67.3139 160.91 -67.507 161.753C-67.6786 162.411 -67.2638 163.248 -67.0422 163.984C-65.419 169.39 -63.8316 174.803 -62.0797 180.159C-61.8295 181.01 -60.7998 181.625 -60.1205 182.34ZM-25.5622 176.841C-18.4117 176.841 -12.2908 176.891 -6.21294 176.769C-5.49788 176.769 -4.78284 175.84 -4.06778 175.339C-4.78284 175.003 -5.49788 174.388 -6.26299 174.395C-11.7975 174.395 -17.3391 174.496 -22.8664 174.739C-23.6101 174.774 -24.3037 175.818 -25.5622 176.841ZM-49.3519 168.475C-42.7377 168.475 -37.196 168.539 -31.7116 168.382C-31.068 168.382 -30.4531 167.102 -29.1374 165.679C-35.7016 165.679 -41.1359 165.579 -46.5632 165.779C-47.3569 165.808 -48.1005 167.216 -49.3519 168.475ZM47.2728 172.972H62.4532C62.4532 169.926 62.4532 169.898 60.1222 169.876C56.7186 169.876 53.3149 169.962 49.9185 169.833C47.5731 169.748 46.4576 170.448 47.2728 172.972ZM-164.031 169.569L-163.245 168.689C-164.06 167.917 -164.832 166.544 -165.705 166.48C-169.442 166.243 -173.189 166.195 -176.931 166.337C-177.503 166.337 -178.054 167.345 -178.611 167.881C-178.068 168.446 -177.532 169.476 -176.974 169.49C-172.662 169.626 -168.372 169.569 -164.031 169.569ZM-48.7727 177.17L-48.0576 178.207C-42.6447 177.964 -37.2246 177.749 -31.8117 177.413C-31.2611 177.377 -30.7606 176.576 -30.2386 176.126C-30.6676 175.718 -31.1038 174.967 -31.54 174.967C-36.6311 174.967 -41.7294 175.068 -46.8206 175.332C-47.5285 175.368 -48.1291 176.526 -48.7727 177.17ZM-118.318 173.952C-119.405 172.801 -119.827 171.964 -120.292 171.929C-125.934 171.557 -131.59 171.249 -137.246 171.092C-137.961 171.092 -138.676 172.057 -139.391 172.572C-138.676 173.037 -137.961 173.873 -137.174 173.888C-131.304 174.002 -125.433 173.952 -118.318 173.952ZM1.38805 174.667L1.17352 175.611C1.53819 175.947 1.88858 176.555 2.2747 176.569C8.18816 176.726 14.1016 176.848 20.0222 176.855C20.5728 176.855 21.1306 176.09 21.6883 175.683C21.1234 175.118 20.5514 174.059 20.0008 174.074C13.8013 174.152 7.60184 174.424 1.3952 174.646L1.38805 174.667ZM287.472 171.028H302.681C303.396 168.797 302.61 167.939 300.472 167.953C296.975 167.989 293.486 167.953 289.989 167.846C287.987 167.781 286.986 168.561 287.479 171.006L287.472 171.028ZM261.859 174.195C262.46 172.172 260.987 171.814 259.199 171.886C253.529 172.107 247.866 172.379 242.195 172.665C241.895 172.665 241.609 172.958 241.316 173.116C241.409 173.473 241.502 173.831 241.587 174.195H261.859ZM-138.404 162.969L-138.333 164.399H-119.913C-120.256 163.348 -121.078 162.404 -121.937 162.368C-126.141 162.218 -130.353 162.254 -134.564 162.368C-135.854 162.468 -137.135 162.661 -138.397 162.947L-138.404 162.969ZM-71.8401 132.286C-66.6561 129.426 -68.222 124.821 -67.1494 119.944C-69.552 122.09 -73.4633 120.659 -73.1558 124.792C-72.8469 127.311 -72.4077 129.813 -71.8401 132.286ZM169.253 116.555C177.119 118.593 185.106 115.883 193 116.956C185.113 114.982 177.212 114.224 169.239 116.555H169.253ZM184.469 180.302L185.091 181.017C185.628 180.473 186.521 180.016 186.657 179.372C188.011 174.367 189.279 169.335 190.461 164.277C190.661 163.318 190.639 162.325 190.397 161.374C190.283 160.902 189.56 160.459 189.017 160.273C188.838 160.209 188.152 160.938 188.066 161.382C186.815 167.631 185.642 173.952 184.455 180.266L184.469 180.302ZM-178.547 170.899C-177.768 171.85 -177.26 173.044 -176.652 173.108C-172.812 173.437 -168.951 173.566 -165.09 173.602C-164.425 173.602 -163.753 172.829 -163.088 172.422C-163.703 171.914 -164.317 170.992 -164.947 170.992C-169.23 170.899 -173.513 170.899 -178.547 170.899ZM211.913 158.743V179.908H213.271C213.45 173.852 213.7 167.803 213.722 161.746C213.729 160.888 212.685 160.016 211.913 158.786V158.743ZM25.4066 171.85L26.2074 172.937H39.0425C38.5349 170.241 34.7523 169.161 27.6876 169.812C26.8796 169.883 26.1717 171.142 25.4066 171.85ZM303.11 173.38L302.438 172.422C297.926 172.422 293.414 172.372 288.909 172.486C288.28 172.486 287.68 173.351 287.065 173.809C287.722 174.224 288.373 174.982 289.045 175.003C292.899 175.118 296.753 175.153 300.6 175.003C301.473 174.939 302.288 173.938 303.117 173.38H303.11ZM279.056 171.049L279.771 170.019C278.949 169.433 278.177 168.446 277.297 168.339C274.275 167.97 271.232 167.786 268.187 167.788C267.472 167.788 266.757 168.747 266.092 169.261C266.714 169.855 267.308 170.942 267.951 170.97C271.641 171.135 275.352 171.049 279.063 171.049H279.056ZM-88.9584 158.264L-90.2455 157.999C-90.6245 159.215 -91.3539 160.438 -91.3181 161.632C-91.1608 166.837 -90.8033 172.043 -90.4529 177.241C-90.3068 178.299 -90.0797 179.343 -89.7736 180.366L-88.9584 180.209V158.264ZM285.863 160.731L284.433 160.566C282.774 166.609 283.446 173.001 282.631 179.372C283.632 179.129 284.776 178.657 284.841 178.135C285.263 172.329 285.534 166.537 285.863 160.731ZM-115.658 179.687L-114.614 179.129L-116.266 158.743C-116.688 158.891 -117.061 159.155 -117.341 159.504C-117.622 159.852 -117.799 160.272 -117.854 160.717C-117.789 166.151 -117.668 171.592 -117.36 177.02C-117.31 177.949 -116.252 178.807 -115.658 179.687ZM-158.182 170.949L-158.769 172.114C-158.054 172.644 -157.339 173.58 -156.552 173.616C-152.92 173.773 -149.266 173.759 -145.626 173.616C-144.99 173.616 -144.382 172.765 -143.767 172.315C-144.389 171.85 -145.004 171.013 -145.64 170.999C-149.781 170.899 -153.999 170.949 -158.182 170.949ZM-1.76532 161.603L-2.58763 162.089V181.324L-1.75102 181.796C-1.22905 180.888 -0.263718 179.987 -0.263718 179.079C-0.263718 174.074 -0.428177 169.104 -0.664139 164.127C-0.685593 163.269 -1.3649 162.44 -1.76532 161.603ZM241.723 163.577L241.216 164.521C241.988 165.014 242.746 165.901 243.518 165.951C248.631 166.065 253.743 166.015 258.856 165.951C259.45 165.839 260.023 165.631 260.551 165.336L260.508 164.192C254.33 163.033 248.009 163.691 241.745 163.577H241.723ZM287.115 166.215C292.442 166.215 296.739 166.258 301.029 166.158C301.551 166.158 302.059 165.364 302.581 164.935C302.052 164.499 301.523 163.684 300.994 163.677C297.247 163.634 293.493 163.677 289.753 163.906C289.017 163.956 288.373 165.057 287.115 166.215ZM33.9872 176.619V176.791C36.0179 176.791 38.0558 176.855 40.0793 176.734C40.5728 176.734 41.0304 176.054 41.5095 175.683C41.1305 175.232 40.7944 174.41 40.3725 174.388C36.0822 174.179 31.7919 174.064 27.5016 174.045C27.044 174.045 26.5864 174.76 26.1288 175.153C26.6007 175.64 27.044 176.519 27.5589 176.583C29.6969 176.712 31.842 176.619 33.9872 176.619ZM0.765961 165.579C1.43095 166.73 1.73128 167.724 2.03874 167.724C8.10951 167.81 14.1946 167.788 20.2511 167.788C20.2511 167.231 20.2511 166.666 20.2511 166.108C14.0945 165.229 7.83064 165.586 0.780258 165.579H0.765961ZM45.4494 162.719L43.9836 162.404C42.2817 168.432 43.5045 174.939 42.2459 181.289C43.3471 180.845 44.3411 180.109 44.3911 179.301C44.8773 173.795 45.1419 168.26 45.4637 162.733L45.4494 162.719ZM63.3256 174.488C57.4479 174.488 52.7429 174.445 48.045 174.546C47.4944 174.546 46.9581 175.325 46.4147 175.747C46.9653 176.133 47.5159 176.841 48.0807 176.855C52.2495 176.948 56.4254 176.991 60.587 176.812C61.3378 176.798 62.0314 175.661 63.3399 174.474L63.3256 174.488ZM281.366 174.567C281.53 172.529 281.53 172.529 273.607 172C267.315 171.585 266.986 171.7 266.85 174.567H281.366ZM-143.874 169.562C-143.202 167.631 -143.409 166.323 -145.791 166.408C-148.522 166.501 -151.268 166.523 -153.964 166.88C-154.907 167.002 -155.73 168.046 -156.609 168.668L-156.102 169.562H-143.874ZM-62.1155 163.605C-62.3228 163.877 -62.5302 164.142 -62.7304 164.413C-61.9224 165.321 -61.1859 166.93 -60.2993 167.016C-56.9743 167.324 -53.5992 167.138 -49.4377 167.138C-50.1527 165.872 -50.5317 164.463 -51.0608 164.406C-54.729 163.984 -58.4258 163.841 -62.1155 163.605ZM265.742 164.227L265.084 165.064C266.035 165.464 266.965 166.137 267.944 166.215C278.927 167.038 281.451 166.737 282.452 164.227H265.742ZM-164.582 165.014L-164.346 163.856C-167.206 160.767 -171.375 162.204 -174.957 161.789C-176.33 161.632 -178.69 160.902 -178.318 164.134L-164.582 165.014ZM47.3943 167.359L47.8949 168.074C52.0421 168.074 56.1966 168.132 60.3438 168.01C60.9803 168.01 61.6024 167.181 62.2244 166.737C61.6524 166.365 61.0875 165.672 60.5083 165.672C56.9331 165.636 53.2792 165.672 49.6825 165.886C48.8888 165.951 48.1523 166.852 47.3943 167.359ZM-161.836 158.743L-162.809 159.086C-162.23 164.807 -161.7 170.484 -161.014 176.169C-160.921 176.884 -160.049 177.563 -159.534 178.25C-159.298 177.492 -158.776 176.698 -158.819 175.976C-159.4 171.161 -160.049 166.37 -160.764 161.603C-161.01 160.612 -161.37 159.652 -161.836 158.743ZM-158.976 163.033L-159.612 163.691C-159.005 164.106 -158.404 164.857 -157.789 164.871C-153.356 164.919 -148.918 164.869 -144.475 164.721C-143.96 164.721 -143.474 163.863 -142.973 163.405C-143.545 163.04 -144.124 162.354 -144.682 162.368C-149.466 162.533 -154.228 162.812 -158.99 163.033H-158.976ZM-28.4152 181.875H-26.7921C-26.7921 175.668 -26.742 169.462 -26.8564 163.284C-26.8564 162.569 -27.8217 161.853 -28.4152 161.017V181.875ZM42.2746 167.738L42.0958 166.623C36.8545 166.323 31.6203 165.994 26.3647 165.779C25.9285 165.779 25.4566 166.494 25.0061 166.837C25.571 167.238 26.1144 167.953 26.6936 167.981C30.8743 168.196 35.0597 168.32 39.2499 168.353C40.2717 168.26 41.2809 168.059 42.2603 167.753L42.2746 167.738ZM238.913 159.744L237.719 160.037V179.265L238.57 179.801C239.07 178.893 240 177.992 240 177.077C240 172.072 239.828 167.109 239.628 162.132C239.476 161.312 239.222 160.515 238.87 159.758L238.913 159.744ZM175.274 164.37C175.095 164.778 174.923 165.193 174.745 165.6C176.89 168.932 180.579 166.551 183.461 166.995C185.678 167.338 185.721 167.045 185.764 164.37H175.274ZM-147.943 145.972L-148.98 146.28C-149.173 148.01 -149.473 149.733 -149.516 151.464C-149.516 152.258 -149.151 153.695 -148.801 153.759C-147.728 153.921 -146.631 153.731 -145.676 153.216C-145.374 152.932 -145.149 152.575 -145.024 152.179C-144.898 151.784 -144.877 151.362 -144.961 150.956C-145.854 149.236 -146.85 147.572 -147.943 145.972ZM-59.9918 174.653C-60.0282 174.701 -60.053 174.757 -60.0641 174.817C-60.0753 174.876 -60.0726 174.938 -60.0562 174.996C-59.1194 177.277 -55.6085 178.343 -51.5399 177.456C-50.8249 177.299 -50.2528 176.526 -49.6093 176.026C-50.26 175.568 -50.8821 174.746 -51.5542 174.71C-54.3286 174.567 -57.1173 174.653 -59.9846 174.653H-59.9918ZM-139.541 158.571L-140.9 158.5C-141.434 165.002 -141.967 171.502 -142.501 177.999L-141.114 178.142L-139.541 158.571ZM30.2975 149.705H29.2964C28.3005 151.029 27.3997 152.422 26.6007 153.874C26.4794 154.256 26.4565 154.663 26.534 155.056C26.6115 155.45 26.7869 155.818 27.044 156.126C28.0615 156.746 29.2002 157.141 30.3833 157.284C30.6335 157.327 31.4058 156.283 31.3486 155.811C31.127 153.738 30.6693 151.728 30.2975 149.705ZM24.6915 180.788C23.2614 174.553 24.6915 167.788 21.5381 161.882C22.6965 168.167 22.246 174.753 24.6915 180.788ZM270.475 147.831H269.517C268.538 149.304 267.172 150.692 266.736 152.286C266.507 153.108 267.765 154.639 268.716 155.354C269.195 155.711 271.319 154.91 271.305 154.703C271.212 152.408 270.819 150.162 270.504 147.831H270.475ZM175.252 174.138L174.981 175.289C176.783 178.056 179.807 176.226 182.224 176.448C182.996 176.519 183.89 175.296 185.427 174.138H175.252ZM-15.9948 146.737C-17.7967 147.181 -19.427 147.166 -20.2851 147.967C-20.8071 148.439 -20.5711 150.77 -19.9204 151.264C-18.998 151.979 -17.3677 151.75 -15.7231 151.979C-15.8375 150.12 -15.9018 148.825 -15.9948 146.737ZM38.2774 148.017C34.645 150.713 34.7022 153.409 37.9128 155.354C38.0486 152.765 38.1702 150.398 38.2774 148.017Z" fill="#31BC2E"/>
<path d="M32.3851 202.598L2.86069 195.448C2.86069 195.09 2.82495 194.733 2.8035 194.375C4.07629 193.932 5.31332 193.245 6.62186 193.088C16.5682 191.915 26.5074 190.614 36.4823 189.799C56.0032 188.19 75.5383 186.867 95.0734 185.415C95.953 185.351 96.8182 185.144 98.3913 184.893L93.8936 182.448L94.0438 182.09C95.7742 182.519 97.4975 182.991 99.235 183.37C105.191 184.643 110.919 184.357 117.018 183.049C123.339 181.697 130.161 181.962 136.689 182.462C143.997 183.027 150.089 181.125 155.617 176.484C158.613 173.968 161.902 171.794 165.234 169.334C166.421 173.624 164.176 174.969 161.266 176.077H168.316V176.384C166.176 176.582 164.051 176.912 161.952 177.371C159.385 178.086 156.568 178.687 154.487 180.231C151.241 182.598 147.765 183.356 143.961 183.485C137.59 183.699 131.169 183.485 124.862 184.2C95.102 187.775 65.1629 188.919 35.3096 191.15C26.9078 191.779 18.5489 192.831 10.1685 193.731C8.97504 193.862 7.84747 194.345 6.92932 195.119C13.0215 196.427 19.1281 197.693 25.206 199.087C27.652 199.61 30.0454 200.354 32.3565 201.311C33.5649 201.84 34.4373 203.149 35.4598 204.107C34.3729 205.022 33.429 206.431 32.192 206.76C28.9099 207.639 25.5134 208.526 22.1813 208.576C1.44489 208.869 -19.2486 209.119 -39.9636 208.983C-50.3446 208.82 -60.708 208.068 -71.0039 206.731C-69.3378 206.731 -67.6789 206.695 -65.9986 206.731C-44.7115 207.282 -23.4245 208.161 -2.1375 208.283C7.27255 208.347 16.6969 207.046 26.0998 206.138C28.2449 205.937 30.3472 204.915 32.4637 204.271C32.4208 203.721 32.4065 203.163 32.3851 202.598Z" fill="#31BC2E"/>
<path d="M287.829 129.219C287.443 128.003 287.057 126.781 286.564 125.207C283.868 126.859 281.759 126.967 280.758 123.47C280.65 123.105 278.498 122.991 277.468 123.313C276.439 123.634 275.459 124.664 274.479 125.372C274.718 124.564 275.148 123.826 275.733 123.22C276.317 122.614 277.039 122.158 277.838 121.89C278.636 121.622 279.487 121.55 280.319 121.681C281.151 121.811 281.939 122.141 282.617 122.64C283.85 123.39 285.156 124.013 286.514 124.5C286.821 124.635 287.229 124.571 287.493 124.75C289.224 125.951 290.926 127.188 292.349 128.211L287.829 129.219Z" fill="#31BC2E"/>
<path d="M57.2622 145.786C56.0109 145.786 54.3591 146.272 53.6011 145.657C52.643 144.885 52.2855 143.24 51.9565 141.903C51.8707 141.539 52.836 140.917 53.3223 140.416C53.7442 140.952 54.6451 141.725 54.5164 141.982C52.7931 145.414 55.1743 145.014 57.4267 144.778L57.2622 145.786Z" fill="#31BC2E"/>
<path d="M114.788 132.036C116.108 131.954 117.433 131.974 118.75 132.093C119.465 132.207 120.587 132.808 120.688 133.358C121.145 135.761 121.303 138.214 121.56 140.638C114.688 141.846 113.759 141.846 114.788 132.036Z" fill="#31BC2E"/>
<path d="M163.411 134.947H167.287C167.38 136.07 167.465 137.142 167.573 138.451H163.411V134.947Z" fill="#31BC2E"/>
<path d="M167.222 132.588L163.568 132.087V128.197C166.679 127.897 167.658 129.427 167.222 132.588Z" fill="#31BC2E"/>
<path d="M161.18 134.783V138.008L160.379 138.766C159.55 137.915 158.334 137.171 158.041 136.163C157.898 135.648 159.399 134.654 160.186 133.875L161.18 134.783Z" fill="#31BC2E"/>
<path d="M158.07 131.923L158.721 128.348H161.982C161.731 129.713 161.538 130.793 161.338 131.923H158.07Z" fill="#31BC2E"/>
</g>
</g>
<path d="M167.329 0.714844H79.6499C73.8328 0.714844 69.1172 5.43048 69.1172 11.2475V164.79C69.1172 170.607 73.8328 175.323 79.6499 175.323H167.329C173.146 175.323 177.862 170.607 177.862 164.79V11.2475C177.862 5.43048 173.146 0.714844 167.329 0.714844Z" fill="#040B0A"/>
<path d="M165.406 4.05469H81.5733C76.4355 4.05469 72.2705 8.21969 72.2705 13.3575V162.417C72.2705 167.554 76.4355 171.719 81.5733 171.719H165.406C170.543 171.719 174.708 167.554 174.708 162.417V13.3575C174.708 8.21969 170.543 4.05469 165.406 4.05469Z" fill="white"/>
<path d="M158.998 83.6973H89.1882C85.3299 83.6973 82.2021 86.825 82.2021 90.6833V131.491C82.2021 135.349 85.3299 138.477 89.1882 138.477H158.998C162.857 138.477 165.984 135.349 165.984 131.491V90.6833C165.984 86.825 162.857 83.6973 158.998 83.6973Z" fill="#DCFDF7"/>
<path d="M149.467 46.4863H99.4424V71.32H149.467V46.4863Z" fill="#532719"/>
<path d="M113.186 46.5645V26.2285L80.5864 26.2285V46.5645H113.186Z" fill="#1C3235"/>
<path d="M80.6365 36.7676H113.164V35.7451H80.6365V36.7676Z" fill="#0F2C2A"/>
<path d="M80.5866 39.6777H113.114V38.6552H80.5866V39.6777Z" fill="#0F2C2A"/>
<path d="M80.6648 42.5898H113.192V41.5673H80.6648V42.5898Z" fill="#0F2C2A"/>
<path d="M80.615 45.5H113.143V44.4775H80.615V45.5Z" fill="#0F2C2A"/>
<path d="M80.6365 33.8574H113.164V32.8349H80.6365V33.8574Z" fill="#0F2C2A"/>
<path d="M80.6365 30.9551H113.164V29.9326H80.6365V30.9551Z" fill="#0F2C2A"/>
<path d="M80.6365 28.0449H113.164V27.0224H80.6365V28.0449Z" fill="#0F2C2A"/>
<path d="M134.758 26.2285H113.192V46.4859H134.758V26.2285Z" fill="#31BC2E"/>
<path d="M167.729 46.4859V26.2285L134.759 26.2285V46.4859H167.729Z" fill="#3F1D13"/>
<path d="M148.287 49.2754H99.4424V51.3419H148.287V49.2754Z" fill="#3F1D13"/>
<path d="M148.287 54.9512H99.4424V57.0177H148.287V54.9512Z" fill="#3F1D13"/>
<path d="M148.287 60.6367H99.4424V62.7032H148.287V60.6367Z" fill="#3F1D13"/>
<path d="M148.287 66.3145H99.4424V68.3809H148.287V66.3145Z" fill="#3F1D13"/>
<path d="M167.729 28.6094H134.758V30.1968H167.729V28.6094Z" fill="#2F160E"/>
<path d="M167.729 32.9785H134.758V34.5659H167.729V32.9785Z" fill="#2F160E"/>
<path d="M167.729 37.3477H134.758V38.9351H167.729V37.3477Z" fill="#2F160E"/>
<path d="M167.729 41.7227H134.758V43.3101H167.729V41.7227Z" fill="#2F160E"/>
<path d="M128.845 46.4859V26.2285H127.343V46.4859H128.845Z" fill="#037700"/>
<path d="M133.021 46.5152V26.2578H131.519V46.5152H133.021Z" fill="#037700"/>
<path d="M124.676 46.4859V26.2285H123.174V46.4859H124.676Z" fill="#037700"/>
<path d="M120.5 46.4859V26.2285H118.998V46.4859H120.5Z" fill="#037700"/>
<path d="M116.324 46.4859V26.2285H114.823V46.4859H116.324Z" fill="#037700"/>
<path d="M140.079 44.106C140.592 44.106 141.009 43.8051 141.009 43.4339C141.009 43.0627 140.592 42.7617 140.079 42.7617C139.566 42.7617 139.149 43.0627 139.149 43.4339C139.149 43.8051 139.566 44.106 140.079 44.106Z" fill="#2F160E"/>
<path d="M141.401 44.4263C141.915 44.4263 142.331 44.1254 142.331 43.7542C142.331 43.383 141.915 43.082 141.401 43.082C140.888 43.082 140.472 43.383 140.472 43.7542C140.472 44.1254 140.888 44.4263 141.401 44.4263Z" fill="#2F160E"/>
<path d="M143.926 44.4703C145.32 44.4703 146.45 43.6475 146.45 42.6326C146.45 41.6177 145.32 40.7949 143.926 40.7949C142.531 40.7949 141.401 41.6177 141.401 42.6326C141.401 43.6475 142.531 44.4703 143.926 44.4703Z" fill="#2F160E"/>
<path d="M146.878 44.4346C147.763 44.4346 148.48 43.9127 148.48 43.269C148.48 42.6253 147.763 42.1035 146.878 42.1035C145.993 42.1035 145.276 42.6253 145.276 43.269C145.276 43.9127 145.993 44.4346 146.878 44.4346Z" fill="#2F160E"/>
<path d="M139.149 43.2744C140.033 43.2744 140.75 42.7526 140.75 42.1089C140.75 41.4652 140.033 40.9434 139.149 40.9434C138.264 40.9434 137.547 41.4652 137.547 42.1089C137.547 42.7526 138.264 43.2744 139.149 43.2744Z" fill="#2F160E"/>
<path d="M148.308 30.5826C148.822 30.5826 149.238 30.2816 149.238 29.9104C149.238 29.5392 148.822 29.2383 148.308 29.2383C147.795 29.2383 147.379 29.5392 147.379 29.9104C147.379 30.2816 147.795 30.5826 148.308 30.5826Z" fill="#2F160E"/>
<path d="M149.631 30.9107C150.144 30.9107 150.56 30.6098 150.56 30.2386C150.56 29.8673 150.144 29.5664 149.631 29.5664C149.117 29.5664 148.701 29.8673 148.701 30.2386C148.701 30.6098 149.117 30.9107 149.631 30.9107Z" fill="#2F160E"/>
<path d="M152.156 30.9547C153.55 30.9547 154.68 30.1319 154.68 29.117C154.68 28.1021 153.55 27.2793 152.156 27.2793C150.762 27.2793 149.632 28.1021 149.632 29.117C149.632 30.1319 150.762 30.9547 152.156 30.9547Z" fill="#2F160E"/>
<path d="M155.109 30.9131C155.993 30.9131 156.71 30.3913 156.71 29.7476C156.71 29.1039 155.993 28.582 155.109 28.582C154.224 28.582 153.507 29.1039 153.507 29.7476C153.507 30.3913 154.224 30.9131 155.109 30.9131Z" fill="#2F160E"/>
<path d="M147.379 29.7529C148.264 29.7529 148.981 29.2311 148.981 28.5874C148.981 27.9437 148.264 27.4219 147.379 27.4219C146.494 27.4219 145.777 27.9437 145.777 28.5874C145.777 29.2311 146.494 29.7529 147.379 29.7529Z" fill="#2F160E"/>
<path d="M154.451 37.7623C154.964 37.7623 155.381 37.4613 155.381 37.0901C155.381 36.7189 154.964 36.418 154.451 36.418C153.938 36.418 153.521 36.7189 153.521 37.0901C153.521 37.4613 153.938 37.7623 154.451 37.7623Z" fill="#3F1D13"/>
<path d="M160.857 35.1236C161.371 35.1236 161.787 34.8227 161.787 34.4514C161.787 34.0802 161.371 33.7793 160.857 33.7793C160.344 33.7793 159.928 34.0802 159.928 34.4514C159.928 34.8227 160.344 35.1236 160.857 35.1236Z" fill="#3F1D13"/>
<path d="M157.904 37.0894C159.298 37.0894 160.428 36.2667 160.428 35.2517C160.428 34.2368 159.298 33.4141 157.904 33.4141C156.51 33.4141 155.38 34.2368 155.38 35.2517C155.38 36.2667 156.51 37.0894 157.904 37.0894Z" fill="#3F1D13"/>
<path d="M160.186 38.2119C161.07 38.2119 161.787 37.6901 161.787 37.0464C161.787 36.4027 161.07 35.8809 160.186 35.8809C159.301 35.8809 158.584 36.4027 158.584 37.0464C158.584 37.6901 159.301 38.2119 160.186 38.2119Z" fill="#3F1D13"/>
<path d="M152.47 37.9482C153.354 37.9482 154.072 37.4264 154.072 36.7827C154.072 36.139 153.354 35.6172 152.47 35.6172C151.585 35.6172 150.868 36.139 150.868 36.7827C150.868 37.4264 151.585 37.9482 152.47 37.9482Z" fill="#3F1D13"/>
<path d="M167.665 71.32V46.4863H148.287V71.32H167.665Z" fill="#B36D2D"/>
<path d="M165.992 71.2758V46.4922H164.348V71.2758H165.992Z" fill="#C1884A"/>
<path d="M161.466 71.2758V46.4922H159.821V71.2758H161.466Z" fill="#C1884A"/>
<path d="M156.939 71.2758V46.4922H155.295V71.2758H156.939Z" fill="#C1884A"/>
<path d="M152.406 71.2758V46.4922H150.762V71.2758H152.406Z" fill="#C1884A"/>
<path d="M99.4424 46.3496H80.5293V71.3263H99.4424V46.3496Z" fill="#B36D2D"/>
<path d="M97.5977 71.3277V46.4512H95.953V71.3277H97.5977Z" fill="#C1884A"/>
<path d="M93.0713 71.318V46.4414H91.4267V71.318H93.0713Z" fill="#C1884A"/>
<path d="M88.5449 71.3277V46.4512H86.9003V71.3277H88.5449Z" fill="#C1884A"/>
<path d="M84.0186 71.3277V46.4512H82.3739V71.3277H84.0186Z" fill="#C1884A"/>
<path d="M103.046 51.3477C103.622 51.3477 104.09 50.8803 104.09 50.3037C104.09 49.7272 103.622 49.2598 103.046 49.2598C102.469 49.2598 102.002 49.7272 102.002 50.3037C102.002 50.8803 102.469 51.3477 103.046 51.3477Z" fill="#31BC2E"/>
<path d="M107.915 51.3477C108.492 51.3477 108.959 50.8803 108.959 50.3037C108.959 49.7272 108.492 49.2598 107.915 49.2598C107.339 49.2598 106.871 49.7272 106.871 50.3037C106.871 50.8803 107.339 51.3477 107.915 51.3477Z" fill="#31BC2E"/>
<path d="M112.785 51.3477C113.362 51.3477 113.829 50.8803 113.829 50.3037C113.829 49.7272 113.362 49.2598 112.785 49.2598C112.209 49.2598 111.741 49.7272 111.741 50.3037C111.741 50.8803 112.209 51.3477 112.785 51.3477Z" fill="#31BC2E"/>
<path d="M117.654 51.3477C118.231 51.3477 118.698 50.8803 118.698 50.3037C118.698 49.7272 118.231 49.2598 117.654 49.2598C117.078 49.2598 116.61 49.7272 116.61 50.3037C116.61 50.8803 117.078 51.3477 117.654 51.3477Z" fill="#31BC2E"/>
<path d="M122.524 51.3477C123.101 51.3477 123.568 50.8803 123.568 50.3037C123.568 49.7272 123.101 49.2598 122.524 49.2598C121.948 49.2598 121.48 49.7272 121.48 50.3037C121.48 50.8803 121.948 51.3477 122.524 51.3477Z" fill="#31BC2E"/>
<path d="M127.4 51.3477C127.977 51.3477 128.444 50.8803 128.444 50.3037C128.444 49.7272 127.977 49.2598 127.4 49.2598C126.824 49.2598 126.356 49.7272 126.356 50.3037C126.356 50.8803 126.824 51.3477 127.4 51.3477Z" fill="#31BC2E"/>
<path d="M132.271 51.3477C132.847 51.3477 133.315 50.8803 133.315 50.3037C133.315 49.7272 132.847 49.2598 132.271 49.2598C131.694 49.2598 131.227 49.7272 131.227 50.3037C131.227 50.8803 131.694 51.3477 132.271 51.3477Z" fill="#31BC2E"/>
<path d="M137.14 51.3477C137.716 51.3477 138.184 50.8803 138.184 50.3037C138.184 49.7272 137.716 49.2598 137.14 49.2598C136.563 49.2598 136.096 49.7272 136.096 50.3037C136.096 50.8803 136.563 51.3477 137.14 51.3477Z" fill="#31BC2E"/>
<path d="M142.009 51.3477C142.585 51.3477 143.053 50.8803 143.053 50.3037C143.053 49.7272 142.585 49.2598 142.009 49.2598C141.432 49.2598 140.965 49.7272 140.965 50.3037C140.965 50.8803 141.432 51.3477 142.009 51.3477Z" fill="#31BC2E"/>
<path d="M103.046 57.0333C103.622 57.0333 104.09 56.5659 104.09 55.9893C104.09 55.4127 103.622 54.9453 103.046 54.9453C102.469 54.9453 102.002 55.4127 102.002 55.9893C102.002 56.5659 102.469 57.0333 103.046 57.0333Z" fill="#31BC2E"/>
<path d="M107.915 57.0333C108.492 57.0333 108.959 56.5659 108.959 55.9893C108.959 55.4127 108.492 54.9453 107.915 54.9453C107.339 54.9453 106.871 55.4127 106.871 55.9893C106.871 56.5659 107.339 57.0333 107.915 57.0333Z" fill="#31BC2E"/>
<path d="M112.785 57.0333C113.362 57.0333 113.829 56.5659 113.829 55.9893C113.829 55.4127 113.362 54.9453 112.785 54.9453C112.209 54.9453 111.741 55.4127 111.741 55.9893C111.741 56.5659 112.209 57.0333 112.785 57.0333Z" fill="#31BC2E"/>
<path d="M117.654 57.0333C118.231 57.0333 118.698 56.5659 118.698 55.9893C118.698 55.4127 118.231 54.9453 117.654 54.9453C117.078 54.9453 116.61 55.4127 116.61 55.9893C116.61 56.5659 117.078 57.0333 117.654 57.0333Z" fill="#31BC2E"/>
<path d="M122.524 57.0333C123.101 57.0333 123.568 56.5659 123.568 55.9893C123.568 55.4127 123.101 54.9453 122.524 54.9453C121.948 54.9453 121.48 55.4127 121.48 55.9893C121.48 56.5659 121.948 57.0333 122.524 57.0333Z" fill="#31BC2E"/>
<path d="M127.4 57.0333C127.977 57.0333 128.444 56.5659 128.444 55.9893C128.444 55.4127 127.977 54.9453 127.4 54.9453C126.824 54.9453 126.356 55.4127 126.356 55.9893C126.356 56.5659 126.824 57.0333 127.4 57.0333Z" fill="#31BC2E"/>
<path d="M132.271 57.0333C132.847 57.0333 133.315 56.5659 133.315 55.9893C133.315 55.4127 132.847 54.9453 132.271 54.9453C131.694 54.9453 131.227 55.4127 131.227 55.9893C131.227 56.5659 131.694 57.0333 132.271 57.0333Z" fill="#31BC2E"/>
<path d="M137.14 57.0333C137.716 57.0333 138.184 56.5659 138.184 55.9893C138.184 55.4127 137.716 54.9453 137.14 54.9453C136.563 54.9453 136.096 55.4127 136.096 55.9893C136.096 56.5659 136.563 57.0333 137.14 57.0333Z" fill="#31BC2E"/>
<path d="M142.009 57.0333C142.585 57.0333 143.053 56.5659 143.053 55.9893C143.053 55.4127 142.585 54.9453 142.009 54.9453C141.432 54.9453 140.965 55.4127 140.965 55.9893C140.965 56.5659 141.432 57.0333 142.009 57.0333Z" fill="#31BC2E"/>
<path d="M103.046 62.709C103.622 62.709 104.09 62.2416 104.09 61.6651C104.09 61.0885 103.622 60.6211 103.046 60.6211C102.469 60.6211 102.002 61.0885 102.002 61.6651C102.002 62.2416 102.469 62.709 103.046 62.709Z" fill="#31BC2E"/>
<path d="M107.915 62.709C108.492 62.709 108.959 62.2416 108.959 61.6651C108.959 61.0885 108.492 60.6211 107.915 60.6211C107.339 60.6211 106.871 61.0885 106.871 61.6651C106.871 62.2416 107.339 62.709 107.915 62.709Z" fill="#31BC2E"/>
<path d="M112.785 62.709C113.362 62.709 113.829 62.2416 113.829 61.6651C113.829 61.0885 113.362 60.6211 112.785 60.6211C112.209 60.6211 111.741 61.0885 111.741 61.6651C111.741 62.2416 112.209 62.709 112.785 62.709Z" fill="#31BC2E"/>
<path d="M117.654 62.709C118.231 62.709 118.698 62.2416 118.698 61.6651C118.698 61.0885 118.231 60.6211 117.654 60.6211C117.078 60.6211 116.61 61.0885 116.61 61.6651C116.61 62.2416 117.078 62.709 117.654 62.709Z" fill="#31BC2E"/>
<path d="M122.524 62.709C123.101 62.709 123.568 62.2416 123.568 61.6651C123.568 61.0885 123.101 60.6211 122.524 60.6211C121.948 60.6211 121.48 61.0885 121.48 61.6651C121.48 62.2416 121.948 62.709 122.524 62.709Z" fill="#31BC2E"/>
<path d="M127.4 62.709C127.977 62.709 128.444 62.2416 128.444 61.6651C128.444 61.0885 127.977 60.6211 127.4 60.6211C126.824 60.6211 126.356 61.0885 126.356 61.6651C126.356 62.2416 126.824 62.709 127.4 62.709Z" fill="#31BC2E"/>
<path d="M132.271 62.709C132.847 62.709 133.315 62.2416 133.315 61.6651C133.315 61.0885 132.847 60.6211 132.271 60.6211C131.694 60.6211 131.227 61.0885 131.227 61.6651C131.227 62.2416 131.694 62.709 132.271 62.709Z" fill="#31BC2E"/>
<path d="M137.14 62.709C137.716 62.709 138.184 62.2416 138.184 61.6651C138.184 61.0885 137.716 60.6211 137.14 60.6211C136.563 60.6211 136.096 61.0885 136.096 61.6651C136.096 62.2416 136.563 62.709 137.14 62.709Z" fill="#31BC2E"/>
<path d="M142.009 62.709C142.585 62.709 143.053 62.2416 143.053 61.6651C143.053 61.0885 142.585 60.6211 142.009 60.6211C141.432 60.6211 140.965 61.0885 140.965 61.6651C140.965 62.2416 141.432 62.709 142.009 62.709Z" fill="#31BC2E"/>
<path d="M103.046 68.3946C103.622 68.3946 104.09 67.9272 104.09 67.3506C104.09 66.774 103.622 66.3066 103.046 66.3066C102.469 66.3066 102.002 66.774 102.002 67.3506C102.002 67.9272 102.469 68.3946 103.046 68.3946Z" fill="#31BC2E"/>
<path d="M107.915 68.3946C108.492 68.3946 108.959 67.9272 108.959 67.3506C108.959 66.774 108.492 66.3066 107.915 66.3066C107.339 66.3066 106.871 66.774 106.871 67.3506C106.871 67.9272 107.339 68.3946 107.915 68.3946Z" fill="#31BC2E"/>
<path d="M112.785 68.3946C113.362 68.3946 113.829 67.9272 113.829 67.3506C113.829 66.774 113.362 66.3066 112.785 66.3066C112.209 66.3066 111.741 66.774 111.741 67.3506C111.741 67.9272 112.209 68.3946 112.785 68.3946Z" fill="#31BC2E"/>
<path d="M117.654 68.3946C118.231 68.3946 118.698 67.9272 118.698 67.3506C118.698 66.774 118.231 66.3066 117.654 66.3066C117.078 66.3066 116.61 66.774 116.61 67.3506C116.61 67.9272 117.078 68.3946 117.654 68.3946Z" fill="#31BC2E"/>
<path d="M122.524 68.3946C123.101 68.3946 123.568 67.9272 123.568 67.3506C123.568 66.774 123.101 66.3066 122.524 66.3066C121.948 66.3066 121.48 66.774 121.48 67.3506C121.48 67.9272 121.948 68.3946 122.524 68.3946Z" fill="#31BC2E"/>
<path d="M127.4 68.3946C127.977 68.3946 128.444 67.9272 128.444 67.3506C128.444 66.774 127.977 66.3066 127.4 66.3066C126.824 66.3066 126.356 66.774 126.356 67.3506C126.356 67.9272 126.824 68.3946 127.4 68.3946Z" fill="#31BC2E"/>
<path d="M132.271 68.3946C132.847 68.3946 133.315 67.9272 133.315 67.3506C133.315 66.774 132.847 66.3066 132.271 66.3066C131.694 66.3066 131.227 66.774 131.227 67.3506C131.227 67.9272 131.694 68.3946 132.271 68.3946Z" fill="#31BC2E"/>
<path d="M137.14 68.3946C137.716 68.3946 138.184 67.9272 138.184 67.3506C138.184 66.774 137.716 66.3066 137.14 66.3066C136.563 66.3066 136.096 66.774 136.096 67.3506C136.096 67.9272 136.563 68.3946 137.14 68.3946Z" fill="#31BC2E"/>
<path d="M142.009 68.3946C142.585 68.3946 143.053 67.9272 143.053 67.3506C143.053 66.774 142.585 66.3066 142.009 66.3066C141.432 66.3066 140.965 66.774 140.965 67.3506C140.965 67.9272 141.432 68.3946 142.009 68.3946Z" fill="#31BC2E"/>
<path d="M134.001 110.204H112.256V91.0338C112.258 90.3523 112.53 89.6994 113.012 89.2182C113.495 88.737 114.149 88.4668 114.83 88.4668H130.089C131.127 88.4668 132.121 88.8789 132.855 89.6124C133.588 90.3459 134.001 91.3408 134.001 92.3781V110.204Z" fill="#051616"/>
<path d="M131.233 117.476H117.647C116.943 117.477 116.245 117.34 115.594 117.072C114.943 116.803 114.352 116.409 113.853 115.912C113.355 115.414 112.96 114.823 112.691 114.172C112.421 113.521 112.283 112.824 112.284 112.12V93.0352H131.233V117.476Z" fill="#99492F"/>
<path d="M131.233 116.303V123.41C131.233 127.35 128.309 130.525 124.698 130.525C121.087 130.525 118.162 127.322 118.162 123.41V116.303H131.233Z" fill="#99492F"/>
<path d="M129.46 117.475L118.162 123.796V117.475H129.46Z" fill="#723623"/>
<path d="M132.17 111.713H131.233V104.562H132.17C132.895 104.566 133.588 104.856 134.1 105.369C134.612 105.882 134.9 106.577 134.902 107.301V108.967C134.902 109.693 134.614 110.389 134.102 110.904C133.591 111.418 132.896 111.709 132.17 111.713Z" fill="#99492F"/>
<path d="M117.841 104.398C117.841 104.398 117.347 102.76 115.953 102.624C115.517 102.598 115.08 102.675 114.68 102.85C114.279 103.026 113.927 103.294 113.65 103.633C113.778 104.054 114.02 104.431 114.348 104.724C114.677 105.017 115.079 105.214 115.512 105.293C115.945 105.372 116.391 105.33 116.802 105.172C117.213 105.014 117.572 104.746 117.841 104.398Z" fill="white"/>
<path d="M114.365 103.783C114.319 104.172 114.424 104.565 114.658 104.88C114.892 105.195 115.237 105.409 115.624 105.477C115.815 105.491 116.007 105.466 116.189 105.404C116.37 105.341 116.537 105.243 116.68 105.115C116.823 104.987 116.938 104.832 117.02 104.658C117.101 104.484 117.147 104.296 117.154 104.104C117.198 103.715 117.093 103.323 116.859 103.009C116.626 102.694 116.281 102.48 115.895 102.41C115.704 102.396 115.512 102.421 115.331 102.484C115.149 102.546 114.982 102.644 114.839 102.772C114.696 102.9 114.581 103.055 114.499 103.229C114.418 103.403 114.372 103.591 114.365 103.783Z" fill="black"/>
<path d="M117.841 104.398C117.841 104.398 117.397 102.703 115.953 102.625C115.517 102.603 115.082 102.682 114.683 102.857C114.283 103.032 113.93 103.298 113.65 103.633" stroke="black" stroke-width="0.464782" stroke-linecap="round" stroke-linejoin="round"/>
<path d="M126.643 104.16C126.643 104.16 125.792 102.687 124.398 102.823C123.967 102.889 123.559 103.057 123.207 103.314C122.855 103.57 122.569 103.907 122.374 104.296C122.572 104.715 122.901 105.059 123.311 105.275C123.721 105.492 124.19 105.57 124.648 105.498C126.371 105.34 126.643 104.16 126.643 104.16Z" fill="white"/>
<path d="M123.139 104.298C123.174 104.687 123.359 105.048 123.656 105.303C123.952 105.558 124.336 105.687 124.727 105.664C124.917 105.637 125.1 105.572 125.264 105.473C125.429 105.374 125.572 105.243 125.685 105.087C125.797 104.932 125.878 104.755 125.921 104.568C125.964 104.381 125.969 104.187 125.935 103.997C125.9 103.608 125.715 103.247 125.419 102.992C125.122 102.737 124.738 102.608 124.348 102.632C124.157 102.659 123.975 102.723 123.81 102.822C123.645 102.921 123.502 103.053 123.39 103.208C123.277 103.364 123.197 103.54 123.154 103.727C123.111 103.915 123.106 104.109 123.139 104.298Z" fill="black"/>
<path d="M126.671 104.161C126.671 104.161 125.877 102.603 124.426 102.824C123.999 102.9 123.595 103.073 123.244 103.328C122.894 103.583 122.606 103.914 122.402 104.297" stroke="black" stroke-width="0.464782" stroke-linecap="round" stroke-linejoin="round"/>
<path d="M124.562 98.6765C125.376 98.5707 126.203 98.6167 127 98.8123C127.601 99.0054 127.794 99.6918 127.186 100.042C126.461 100.33 125.697 100.506 124.919 100.564C123.031 100.786 121.995 100.235 121.995 99.7705C121.937 99.1841 123.553 98.748 124.562 98.6765Z" fill="#051616"/>
<path d="M119.699 109.139C120.456 109.065 121.219 109.101 121.966 109.246C122.538 109.411 122.681 109.961 122.13 110.204C121.446 110.414 120.741 110.553 120.028 110.619C118.276 110.784 117.289 110.369 117.289 110.011C117.261 109.525 118.741 109.196 119.699 109.139Z" fill="#051616"/>
<path d="M115.459 98.6758C114.713 98.6022 113.959 98.6775 113.242 98.8974C113.124 98.9419 113.019 99.0171 112.939 99.1152C112.859 99.2133 112.807 99.331 112.787 99.4561C112.767 99.5812 112.781 99.7092 112.827 99.8272C112.873 99.9451 112.95 100.049 113.049 100.127C113.707 100.382 114.398 100.538 115.101 100.592C116.796 100.785 117.783 100.206 117.783 99.7412C117.811 99.1048 116.388 98.7187 115.459 98.6758Z" fill="#051616"/>
<path d="M131.619 104.569V97.6255H129.803V94.9155H112.256V90.7324H131.619V97.6255" fill="#051616"/>
<path d="M122.131 111.355C122.099 111.893 121.864 112.398 121.472 112.767C121.081 113.136 120.563 113.342 120.025 113.342C119.487 113.342 118.969 113.136 118.577 112.767C118.186 112.398 117.95 111.893 117.919 111.355" fill="white"/>
<path d="M120.135 105.828L118.791 107.079C117.675 108.288 119.069 108.452 119.777 108.395L120.214 108.316" fill="#723623"/>
<path d="M114.072 121.801H133.514C134.992 121.801 136.409 122.388 137.453 123.432C138.498 124.477 139.085 125.894 139.085 127.371V133.663H108.523V127.371C108.523 125.897 109.107 124.484 110.147 123.44C111.187 122.396 112.599 121.806 114.072 121.801Z" fill="#F6B744"/>
<path d="M157.254 150.848H88.223C85.901 150.848 84.0186 152.73 84.0186 155.052V160.193C84.0186 162.515 85.901 164.398 88.223 164.398H157.254C159.576 164.398 161.458 162.515 161.458 160.193V155.052C161.458 152.73 159.576 150.848 157.254 150.848Z" fill="#3CB44A"/>
<path d="M119.349 160.092L119.085 159.477H117.154L116.89 160.092H115.853L117.962 155.287H118.284L120.386 160.092H119.349ZM118.742 158.683L118.119 157.096L117.497 158.683H118.742ZM123.471 154.729H124.436V160.092H123.549V159.648C123.292 160.006 122.913 160.178 122.412 160.178C121.912 160.178 121.497 160.006 121.175 159.656C120.854 159.305 120.696 158.862 120.696 158.326C120.696 157.796 120.854 157.353 121.175 157.003C121.497 156.652 121.912 156.474 122.412 156.474C122.863 156.474 123.213 156.617 123.471 156.896V154.729ZM122.591 159.298C122.834 159.298 123.042 159.219 123.22 159.055C123.392 158.891 123.485 158.647 123.485 158.326C123.485 158.011 123.392 157.775 123.22 157.603C123.042 157.432 122.834 157.346 122.591 157.346C122.334 157.346 122.112 157.439 121.94 157.618C121.762 157.796 121.676 158.032 121.676 158.318C121.676 158.619 121.762 158.855 121.933 159.034C122.105 159.212 122.327 159.298 122.591 159.298ZM127.968 154.729H128.933V160.092H128.046V159.648C127.789 160.006 127.41 160.178 126.909 160.178C126.409 160.178 125.994 160.006 125.672 159.656C125.351 159.305 125.193 158.862 125.193 158.326C125.193 157.796 125.351 157.353 125.672 157.003C125.994 156.652 126.409 156.474 126.909 156.474C127.36 156.474 127.71 156.617 127.968 156.896V154.729ZM127.088 159.298C127.331 159.298 127.539 159.219 127.717 159.055C127.889 158.891 127.982 158.647 127.982 158.326C127.982 158.011 127.889 157.775 127.717 157.603C127.539 157.432 127.331 157.346 127.088 157.346C126.831 157.346 126.609 157.439 126.437 157.618C126.259 157.796 126.173 158.032 126.173 158.318C126.173 158.619 126.259 158.855 126.43 159.034C126.602 159.212 126.824 159.298 127.088 159.298Z" fill="white"/>
<path d="M129.682 121.838C131.73 120.753 134.114 120.491 136.349 121.103C138.583 121.716 140.5 123.157 141.709 125.134L179.607 186.85L161.73 198.67L125.956 134.216C125.383 133.159 125.025 132 124.902 130.805C124.779 129.609 124.894 128.401 125.241 127.251C125.587 126.1 126.158 125.029 126.92 124.1C127.682 123.171 128.621 122.402 129.682 121.838Z" fill="#98492F"/>
<path d="M164.462 132.434C165.621 131.808 166.893 131.416 168.204 131.282C169.516 131.148 170.84 131.275 172.103 131.654C173.365 132.033 174.54 132.658 175.56 133.493C176.58 134.327 177.426 135.355 178.048 136.517L200.329 176.975C201.088 178.392 201.562 179.945 201.721 181.544C201.881 183.144 201.724 184.76 201.259 186.299C200.794 187.838 200.031 189.271 199.012 190.515C197.994 191.759 196.74 192.79 195.323 193.55C193.866 194.334 192.264 194.814 190.615 194.962C188.967 195.109 187.305 194.92 185.732 194.407C184.158 193.893 182.705 193.066 181.46 191.975C180.216 190.884 179.206 189.551 178.491 188.058L160.157 145.606C159.037 143.279 158.86 140.609 159.662 138.155C160.464 135.7 162.184 133.651 164.462 132.434Z" fill="#98492F"/>
<path d="M187.35 125.784C188.446 125.13 189.661 124.698 190.924 124.513C192.187 124.328 193.475 124.394 194.712 124.706C195.95 125.019 197.114 125.573 198.138 126.335C199.162 127.098 200.025 128.055 200.679 129.152L223.267 165.705C224.882 168.404 225.359 171.634 224.594 174.684C223.828 177.735 221.882 180.356 219.184 181.973C217.801 182.801 216.264 183.339 214.666 183.554C213.069 183.768 211.444 183.655 209.891 183.221C208.339 182.787 206.891 182.04 205.637 181.028C204.382 180.015 203.347 178.758 202.595 177.332L183.746 138.719C182.569 136.513 182.286 133.939 182.957 131.53C183.628 129.121 185.202 127.063 187.35 125.784Z" fill="#98492F"/>
<path d="M210.732 121.673C211.688 121.063 212.754 120.647 213.871 120.449C214.988 120.251 216.132 120.275 217.239 120.52C218.347 120.765 219.395 121.226 220.323 121.877C221.252 122.528 222.043 123.355 222.652 124.312L248.251 162.696C249.756 165.057 250.262 167.919 249.657 170.653C249.052 173.387 247.386 175.769 245.026 177.276C243.822 178.043 242.475 178.559 241.067 178.791C239.658 179.023 238.217 178.967 236.83 178.626C235.444 178.285 234.141 177.666 233.001 176.808C231.86 175.949 230.906 174.867 230.196 173.629L207.872 133.229C206.774 131.304 206.459 129.03 206.991 126.879C207.524 124.728 208.863 122.864 210.732 121.673Z" fill="#98492F"/>
<path d="M136.954 215.945C150.711 209.695 171.569 217.332 171.569 217.332L147.758 172.57L233.035 150.003C239.642 147.786 246.413 153.922 249.653 161.072L266.099 190.89C269.359 197.025 270.995 203.893 270.851 210.839C270.707 217.786 268.788 224.58 265.276 230.575C267.077 233.699 268.223 237.157 268.645 240.739C269.068 244.32 268.758 247.95 267.734 251.407C266.71 254.865 264.993 258.079 262.689 260.852C260.385 263.626 257.54 265.902 254.329 267.543L244.676 272.434C238.862 275.391 232.164 276.104 225.858 274.437C219.553 272.77 214.082 268.839 210.489 263.396C203.352 264.281 196.108 263.295 189.467 260.535C169.21 252.048 156.038 238.09 141.83 233.471C138.978 232.513 136.608 230.489 135.216 227.822L134.008 225.548C132.191 222.101 133.378 217.539 136.954 215.945Z" fill="#98492F"/>
</svg>
