<svg width="548" height="312" viewBox="0 0 548 312" fill="none" xmlns="http://www.w3.org/2000/svg">
<g clip-path="url(#clip0_2251_79404)">
<g opacity="0.7">
<path d="M291.46 158.75L302.16 164.82L322 135.64C323.289 136.588 324.503 137.634 325.63 138.77C334.3 149.52 343.02 160.24 351.51 171.14C354.66 175.14 354.2 175.95 349.06 177.3V203.3C354.73 204.18 359.41 205.99 361.46 212.3C362.23 214.69 365.38 216.41 367.62 218.23C375.62 224.68 376.02 226.41 371.49 235.38L377.17 236.95L376.86 238.3H190.15V192.19C183.91 190.66 179.08 192.65 174.59 196.65C172.93 198.11 170.47 199.49 168.37 199.5C162.37 199.5 157.71 200.58 154.15 206.5C152.15 209.89 147.52 212.27 143.58 213.88C135.48 217.18 131.21 225.26 133.32 235.51C139.87 236.23 146.49 237.34 151.37 229.51L152.68 236.14H177.17C174.24 239.34 112.87 239.7 108.05 236.43H130.05C130.05 233.75 130.05 231.83 130.05 229.91C130.27 221.27 135.11 215.08 142.92 211.49C146.818 209.662 150.214 206.917 152.82 203.49C156.55 198.49 161.12 196.86 166.97 196.69C169.328 196.577 171.585 195.7 173.4 194.19C178.09 190.01 183.56 188.75 189.84 188.71V171.51C188.02 171.51 186.3 171.85 184.79 171.44C182.28 170.75 178.13 169.95 177.84 168.54C177.24 165.71 177.75 161.37 179.63 159.54C187.43 151.88 195.33 144.07 204.3 137.93C213.27 131.79 223.43 127.24 233.37 122.65C236.545 121.339 240.097 121.271 243.32 122.46C258.863 128.996 273.116 138.251 285.41 149.79C287.93 152.15 289.41 155.64 291.46 158.75ZM210.19 235.69C210.19 223.87 210.35 212.56 210.1 201.26C210.01 197.05 211.49 195.83 215.55 195.89C229.87 196.07 244.21 195.89 258.55 195.97C264.61 195.97 265.13 196.53 265.13 202.52C265.13 213.52 265.13 224.43 265.13 235.62H273.22C272.73 231.62 272.22 227.55 271.73 223.53C271.608 222.897 271.382 222.289 271.06 221.73C267.44 214.53 269.21 207.22 272.42 200.89C274.37 197.06 274.91 193.71 275.42 189.67C276.31 182.12 278.52 174.73 280.25 166.97C288.05 164.72 290.68 158.46 284.25 151.97C283.54 151.26 282.88 150.5 282.12 149.86C270.397 139.712 257.259 131.324 243.12 124.96C240.877 123.949 238.351 123.754 235.98 124.41C215.18 132.05 196.74 143.41 182.18 160.34C180.53 162.27 180.18 165.34 178.92 168.91H192.99V235.69H210.19ZM348.19 173.14L350.4 172.52L322.68 138.7C316.02 148.7 309.89 157.83 303.97 167.06C303.257 168.531 303.016 170.187 303.28 171.8C303.88 177.91 304.71 184 305.65 191.73C308.65 192.3 312.45 193.44 316.34 193.73C321.81 194.1 327.34 193.73 332.82 193.9C334.27 193.95 336.48 194.56 336.97 195.58C338.52 198.74 339.41 202.23 340.66 205.9L334.38 206.9V235.55H346.17V228.86C346.17 212.21 346.11 195.56 346.26 178.91C346.28 177 347.52 175.07 348.2 173.14H348.19ZM305.19 217.38C314.66 204.15 314.08 200.38 302.19 191.63C302.19 187.71 302.34 184.5 302.14 181.3C302 179.05 300.96 176.8 301.07 174.58C301.34 168.8 297.5 162.85 292.87 162.48C288.24 162.11 285.79 165.7 285.08 172.7C284.943 174.293 284.286 175.797 283.21 176.98C278.21 181.73 277.29 187.48 278.14 193.98C278.33 195.44 278.28 197.44 277.45 198.43C271.33 205.66 270.11 213.29 274.73 221.73C274.948 222.477 274.916 223.274 274.64 224C273.16 230 275.45 235 281.28 235.56C288.62 236.31 296.1 235.74 303.17 235.74C303.57 233.34 303.29 231.21 304.22 230.12C309.72 223.59 309.83 223.46 305.21 217.38H305.19ZM331.19 235.66V206.45C326.49 206.45 322.05 206.59 317.63 206.45C315.03 206.34 313.31 207.15 313.13 209.79C312.57 218.42 312.13 227.06 311.69 235.71L331.19 235.66ZM356.63 235.85C359.315 236.006 362.007 235.986 364.69 235.79C368.62 235.26 370.85 232.54 371.31 228.79C371.73 225.37 371.38 222.01 366.9 221.18C366.16 220.938 365.499 220.499 364.99 219.91C363.17 218.17 361.41 216.37 358.59 213.55C357.68 208.38 355.66 206.55 349.14 206.76V235.09L349.74 235.16L351.04 230.05H352.1C352.61 231.48 353.1 232.91 353.56 234.05L355.41 230.53C356 232.93 356.31 234.26 356.68 235.85H356.63ZM213.44 209.68C228.95 209.68 244.2 209.68 259.44 209.58C260.44 209.58 261.49 208.2 262.52 207.47C261.43 206.62 260.35 205.05 259.26 205.04C244.99 204.89 230.72 205.04 216.45 204.93C213.17 204.9 212.25 206.13 213.44 209.68ZM237.14 216.47C244.45 216.47 251.75 216.57 259.05 216.36C260.2 216.36 261.31 214.88 262.44 214.09C261.35 213.43 260.25 212.22 259.15 212.21C244.883 212.09 230.61 212.09 216.33 212.21C215.19 212.21 214.06 213.68 212.93 214.47C214.03 215.12 215.12 216.29 216.23 216.32C223.2 216.54 230.17 216.45 237.14 216.47ZM263.14 200.47L262 199H213.26L212.52 200.41C213.74 201.16 214.95 202.55 216.17 202.56C230.663 202.734 245.15 202.734 259.63 202.56C260.8 202.53 262 201.2 263.12 200.47H263.14ZM213.44 235.7H262.2C263.11 232.8 262.73 231.3 259.2 231.33C244.88 231.437 230.546 231.437 216.2 231.33C213.24 231.32 212.32 232.43 213.42 235.7H213.44ZM237.22 222.7C244.52 222.7 251.83 222.78 259.12 222.62C260.24 222.62 261.33 221.44 262.43 220.81C261.32 220.17 260.21 218.99 259.09 218.98C244.823 218.86 230.553 218.86 216.28 218.98C215.18 218.98 214.09 220.19 213 220.84C214.1 221.46 215.19 222.58 216.31 222.61C223.26 222.75 230.23 222.67 237.2 222.68L237.22 222.7ZM262.03 228.7L262.75 227.12C261.75 226.48 260.85 225.28 259.88 225.27C245.106 225.15 230.336 225.15 215.57 225.27C214.71 225.27 213.86 226.27 213 226.86C213.76 227.48 214.52 228.63 215.29 228.64C230.85 228.72 246.43 228.7 262 228.7H262.03ZM312.37 196.59C313.2 199.4 313.79 201.44 314.37 203.59H338.46C335.97 200.59 334.46 197.1 332.61 196.9C326.12 196.15 319.48 196.59 312.35 196.59H312.37Z" fill="#31BC2E"/>
<path d="M186.46 140.8C158.22 104.1 120.7 82.21 75.5898 70.18C82.3898 67.07 116.29 80.47 137.13 93.1C156.02 104.54 170.79 117.54 186.2 136.23C195.08 128.07 203.68 119.56 212.89 111.78C244.89 84.78 281.09 65.53 320.89 52.9C323.249 52.1579 325.454 50.9959 327.4 49.47C350.69 30.87 375.65 15.12 403.51 4.21C407.58 2.63 411.49 0.73 416 0C390.28 12.05 364.88 24.42 342 41.43C319.292 58.2072 298.737 77.7174 280.8 99.52L279 97.79C285.1 90.91 291 83.79 297.35 77.2C303.9 70.38 310.89 63.99 318.35 56.78C292.56 65.18 268.68 75.64 246.66 90.22C224.64 104.8 203.9 120.78 186.46 140.8Z" fill="#31BC2E"/>
<path d="M193 77.8609C180.11 77.7609 170.82 68.2809 170.9 55.3009C170.879 52.3416 171.446 49.4076 172.57 46.6699C173.693 43.9321 175.35 41.4452 177.444 39.354C179.538 37.2628 182.027 35.6091 184.767 34.4892C187.506 33.3693 190.441 32.8056 193.4 32.8309C199.455 32.9074 205.233 35.3802 209.469 39.7079C213.705 44.0356 216.053 49.8654 216 55.9209C215.65 68.4209 205.65 78.0009 193 77.8609ZM213.2 55.1109C213.09 49.9126 210.943 44.9656 207.221 41.3351C203.498 37.7047 198.499 35.6814 193.3 35.7009C182.3 35.7009 173.1 44.8309 173.24 55.6209C173.39 66.2509 183.01 75.6809 193.56 75.5309C204.3 75.3909 213.27 66.0609 213.15 55.1109H213.2Z" fill="#31BC2E"/>
<path d="M317.35 253.429C308.85 249.169 301.07 252.429 293.13 254.549C291.69 254.939 289.93 253.929 288.31 253.909C282.25 253.829 276.2 253.909 270.14 253.909C269.01 253.909 267.64 254.909 266.8 254.479C257.9 250.379 249.17 253.089 240.4 254.839C239.4 255.029 238.22 255.759 237.51 255.419C229.43 251.569 220.95 254.739 212.72 253.879C209.29 253.519 205.82 253.509 202.37 253.329L202 252.019C203.54 251.579 205.11 250.699 206.63 250.779C216.27 251.289 225.89 252.189 235.53 252.589C238.61 252.709 241.77 251.869 244.83 251.189C251.9 249.619 258.89 248.639 265.93 251.369C267.06 251.809 268.5 251.499 269.79 251.429C274.86 251.169 280.12 249.849 284.94 250.819C290.94 252.019 296.3 250.819 301.99 249.689C305.76 248.929 309.84 249.399 313.75 249.689C315.1 249.789 316.37 250.989 317.68 251.689L317.35 253.429Z" fill="#31BC2E"/>
<path d="M378.85 282.55C366.63 278.5 354.63 283.86 342.07 281.69C330.3 279.69 317.89 281.37 305.76 281.39C293.63 281.41 281.52 281.39 269.4 281.39L269.2 279.95C270.521 279.666 271.856 279.456 273.2 279.32C276.95 279.13 280.71 279.07 284.46 278.94C284.79 278.94 285.12 278.76 285.46 278.77C296.96 279.07 308.46 279.39 319.95 279.67C321.262 279.64 322.571 279.53 323.87 279.34C327.34 279.02 330.98 277.81 334.23 278.5C348.32 281.5 362.54 277.26 376.58 279.69C377.427 279.904 378.256 280.181 379.06 280.52L378.85 282.55Z" fill="#31BC2E"/>
<path d="M167.77 306.249C169.366 304.736 171.384 303.743 173.557 303.401C175.729 303.058 177.955 303.382 179.94 304.329C187.18 308.099 194.33 305.749 201.54 306.199C211.088 306.894 220.673 306.954 230.23 306.379C236.4 305.959 242.47 305.119 248.61 304.559C255.25 303.949 262.05 305.029 268.78 305.439C269.418 305.594 270.005 305.915 270.48 306.369C270.67 306.519 270.66 306.949 270.84 307.659C269.5 307.659 268.18 307.959 267.06 307.609C258.59 304.959 250.31 306.019 242.06 308.609C240.64 309.069 239.01 310.019 237.76 309.689C230.38 307.749 223.32 308.849 216.31 311.309C215.527 311.477 214.71 311.367 214 310.999C206.46 307.359 198.78 308.489 191 310.139C189.77 310.399 188.08 310.699 187.21 310.089C181.6 306.169 175.41 306.089 169.01 306.829C168.64 306.879 168.21 306.469 167.77 306.249Z" fill="#31BC2E"/>
<path d="M229 274.561C225.43 273.353 221.652 272.878 217.894 273.165C214.136 273.452 210.475 274.495 207.13 276.231C206.53 276.531 205.55 276.121 204.76 275.981C200.76 275.271 196.71 274.231 192.64 273.871C187.37 273.421 182.28 274.591 176.78 272.121C172.9 270.371 167.3 272.461 161.51 272.911C162.7 271.831 163.37 270.771 164.3 270.451C169.91 268.531 175.49 267.531 181.17 270.621C182.77 271.491 184.93 271.421 186.85 271.621C192.9 272.221 198.95 272.851 205.02 273.221C206.782 273.229 208.529 272.889 210.16 272.221C216.85 269.871 223.18 269.871 229 274.561Z" fill="#31BC2E"/>
<path d="M179.559 250.73C156.129 251.99 133.249 248.73 110.329 251.73L109.859 250.43C113.429 249.5 117.009 247.73 120.569 247.78C131.259 247.95 141.929 249 152.619 249.34C158.409 249.53 164.229 248.75 170.019 248.9C173.209 249 176.379 250.09 179.559 250.73Z" fill="#31BC2E"/>
<path d="M185.81 227.65L186.36 239.28L184.1 239.39C183.84 235.524 183.583 231.65 183.33 227.77L185.81 227.65Z" fill="#31BC2E"/>
<path d="M324.17 151.189C325.71 154.119 327.22 155.709 327.17 157.189C327.1 158.439 325.17 159.599 324.07 160.799C322.79 159.549 320.6 158.379 320.49 157.029C320.38 155.679 322.23 154.069 324.17 151.189Z" fill="#31BC2E"/>
<path d="M229.229 152.48H244.899V166.07H229.229V152.48Z" fill="#31BC2E"/>
</g>
<path d="M338.36 227H338.69C338.98 226.19 339.31 225.4 339.69 224.63L339.44 224.41C338.62 223.587 338.159 222.472 338.159 221.31C338.159 220.148 338.62 219.033 339.44 218.21L345.44 212.21C347.15 210.5 352.78 210.21 354.5 211.94C354.57 212.02 351.8 212.37 351.87 212.46C352.641 212.082 353.432 211.748 354.24 211.46C354.24 211.35 354.24 211.23 354.24 211.12C354.24 210.544 354.354 209.974 354.575 209.442C354.796 208.91 355.119 208.426 355.527 208.02C355.935 207.613 356.419 207.29 356.951 207.071C357.484 206.851 358.054 206.739 358.63 206.74H367.12C368.283 206.74 369.398 207.201 370.221 208.023C371.044 208.844 371.508 209.958 371.51 211.12C371.51 211.23 371.51 211.35 371.51 211.46C372.319 211.748 373.11 212.082 373.88 212.46C373.948 212.372 374.022 212.289 374.1 212.21C375.82 210.5 380.4 209.58 382.1 211.29L386.29 218.22C387.111 219.043 387.572 220.158 387.572 221.32C387.572 222.482 387.111 223.597 386.29 224.42L386.05 224.64C386.41 225.41 386.74 226.2 387.05 227.01H387.38C388.544 227.013 389.659 227.476 390.482 228.299C391.304 229.122 391.768 230.237 391.77 231.4V239.89C391.77 241.055 391.308 242.171 390.485 242.994C389.661 243.818 388.545 244.28 387.38 244.28H387.05C386.76 245.09 386.43 245.88 386.05 246.65L386.29 246.88C386.698 247.287 387.021 247.77 387.242 248.302C387.463 248.834 387.576 249.404 387.576 249.98C387.576 250.556 387.463 251.126 387.242 251.658C387.021 252.19 386.698 252.673 386.29 253.08L380.29 259.08C379.466 259.902 378.349 260.363 377.185 260.363C376.022 260.363 374.905 259.902 374.08 259.08C374 259 373.93 258.91 373.86 258.83C373.09 259.19 372.3 259.52 371.49 259.83C371.49 259.94 371.49 260.05 371.49 260.16C371.49 261.325 371.028 262.441 370.205 263.264C369.381 264.088 368.265 264.55 367.1 264.55H358.6C358.024 264.552 357.452 264.439 356.919 264.219C356.386 263.999 355.901 263.675 355.493 263.267C355.085 262.859 354.762 262.375 354.542 261.842C354.322 261.309 354.209 260.737 354.21 260.16C354.21 260.05 354.21 259.94 354.21 259.83C353.4 259.54 352.61 259.21 351.84 258.83L351.61 259.08C350.787 259.901 349.673 260.362 348.51 260.362C347.348 260.362 346.233 259.901 345.41 259.08L339.41 253.08C338.59 252.257 338.129 251.142 338.129 249.98C338.129 248.818 338.59 247.703 339.41 246.88L339.66 246.65C339.3 245.88 338.97 245.09 338.66 244.28H338.33C337.166 244.28 336.05 243.818 335.226 242.994C334.403 242.171 333.94 241.055 333.94 239.89V231.4C333.94 230.821 334.055 230.247 334.277 229.712C334.5 229.177 334.826 228.691 335.236 228.282C335.647 227.873 336.134 227.549 336.67 227.329C337.207 227.109 337.781 226.998 338.36 227Z" fill="black"/>
<path d="M340.35 235.599C340.348 230.526 341.85 225.566 344.668 221.346C347.485 217.127 351.49 213.838 356.177 211.895C360.864 209.952 366.021 209.443 370.998 210.431C375.974 211.42 380.545 213.862 384.133 217.449C387.722 221.035 390.165 225.606 391.156 230.582C392.147 235.558 391.639 240.715 389.698 245.403C387.757 250.09 384.469 254.097 380.251 256.916C376.033 259.735 371.073 261.239 366 261.239C362.632 261.241 359.296 260.579 356.185 259.291C353.073 258.003 350.245 256.114 347.863 253.733C345.481 251.352 343.591 248.525 342.302 245.414C341.013 242.302 340.35 238.967 340.35 235.599Z" fill="black"/>
<path d="M349.46 235.6C349.46 232.331 350.429 229.136 352.245 226.418C354.061 223.7 356.642 221.581 359.662 220.33C362.682 219.078 366.005 218.75 369.211 219.387C372.417 220.024 375.363 221.598 377.675 223.908C379.987 226.219 381.562 229.164 382.201 232.369C382.84 235.575 382.514 238.899 381.265 241.919C380.015 244.94 377.898 247.522 375.181 249.34C372.464 251.157 369.269 252.128 366 252.13C361.615 252.13 357.41 250.389 354.308 247.289C351.206 244.19 349.463 239.985 349.46 235.6Z" fill="black"/>
<path d="M358.58 235.6C358.576 234.132 359.008 232.695 359.821 231.472C360.634 230.25 361.791 229.295 363.147 228.731C364.502 228.166 365.995 228.016 367.435 228.3C368.876 228.584 370.2 229.289 371.24 230.326C372.279 231.363 372.988 232.685 373.276 234.125C373.564 235.565 373.418 237.058 372.857 238.415C372.296 239.772 371.345 240.932 370.125 241.748C368.904 242.564 367.469 243 366 243C364.036 243 362.151 242.221 360.76 240.834C359.369 239.447 358.585 237.565 358.58 235.6Z" fill="black"/>
<path d="M357.7 235.599C357.698 233.957 358.184 232.351 359.095 230.984C360.006 229.618 361.302 228.552 362.819 227.923C364.336 227.293 366.006 227.128 367.617 227.448C369.228 227.768 370.708 228.559 371.869 229.72C373.031 230.881 373.821 232.361 374.141 233.972C374.461 235.583 374.296 237.253 373.666 238.77C373.037 240.287 371.972 241.583 370.605 242.494C369.239 243.406 367.633 243.891 365.99 243.889C363.792 243.889 361.683 243.016 360.128 241.461C358.574 239.906 357.7 237.798 357.7 235.599Z" fill="black"/>
<path d="M363.48 223.719C363.48 223.22 363.629 222.733 363.906 222.318C364.183 221.903 364.577 221.581 365.038 221.39C365.499 221.2 366.007 221.15 366.496 221.248C366.985 221.346 367.434 221.587 367.786 221.941C368.138 222.294 368.377 222.744 368.473 223.234C368.569 223.723 368.518 224.23 368.326 224.691C368.133 225.151 367.809 225.544 367.393 225.819C366.978 226.095 366.489 226.241 365.99 226.239C365.66 226.239 365.333 226.174 365.028 226.047C364.722 225.92 364.445 225.735 364.212 225.501C363.979 225.266 363.794 224.988 363.669 224.683C363.543 224.377 363.479 224.05 363.48 223.719Z" fill="black"/>
<path d="M363.48 247.461C363.484 246.963 363.635 246.478 363.914 246.066C364.193 245.655 364.588 245.335 365.049 245.147C365.51 244.959 366.016 244.912 366.503 245.012C366.991 245.111 367.438 245.353 367.789 245.706C368.139 246.059 368.377 246.508 368.473 246.997C368.568 247.485 368.517 247.991 368.326 248.45C368.135 248.909 367.812 249.302 367.398 249.578C366.984 249.854 366.497 250.001 366 250.001C365.667 250.002 365.337 249.937 365.029 249.81C364.721 249.683 364.442 249.495 364.208 249.259C363.973 249.022 363.788 248.742 363.663 248.433C363.538 248.124 363.476 247.794 363.48 247.461Z" fill="black"/>
<path d="M377.87 238.11C377.371 238.11 376.884 237.963 376.47 237.686C376.055 237.409 375.732 237.015 375.541 236.555C375.351 236.094 375.301 235.588 375.398 235.099C375.495 234.61 375.735 234.161 376.088 233.808C376.44 233.456 376.889 233.216 377.378 233.119C377.867 233.022 378.374 233.071 378.834 233.262C379.294 233.453 379.688 233.776 379.965 234.19C380.242 234.605 380.39 235.092 380.39 235.59C380.39 236.259 380.124 236.9 379.652 237.372C379.179 237.845 378.538 238.11 377.87 238.11Z" fill="black"/>
<path d="M357.36 211.11C357.363 212.274 357.826 213.389 358.649 214.212C359.472 215.034 360.587 215.498 361.75 215.5H370.24C371.404 215.498 372.519 215.034 373.342 214.212C374.164 213.389 374.628 212.274 374.63 211.11C374.628 209.948 374.164 208.834 373.341 208.013C372.518 207.192 371.403 206.73 370.24 206.73H361.75C360.588 206.73 359.473 207.192 358.65 208.013C357.827 208.834 357.363 209.948 357.36 211.11Z" fill="black"/>
<path d="M377.2 212.181C376.379 213.004 375.918 214.119 375.918 215.281C375.918 216.443 376.379 217.558 377.2 218.381L383.2 224.381C384.023 225.202 385.137 225.663 386.3 225.663C387.462 225.663 388.577 225.202 389.4 224.381C389.808 223.975 390.133 223.492 390.354 222.96C390.576 222.428 390.689 221.857 390.689 221.281C390.689 220.705 390.576 220.134 390.354 219.602C390.133 219.07 389.808 218.587 389.4 218.181L383.4 212.181C382.575 211.36 381.458 210.898 380.295 210.898C379.131 210.898 378.014 211.36 377.19 212.181H377.2Z" fill="black"/>
<path d="M390.48 227C389.316 227.003 388.201 227.466 387.379 228.289C386.556 229.111 386.092 230.227 386.09 231.39V239.88C386.09 241.044 386.552 242.161 387.376 242.984C388.199 243.807 389.316 244.27 390.48 244.27C391.644 244.27 392.761 243.807 393.584 242.984C394.407 242.161 394.87 241.044 394.87 239.88V231.39C394.867 230.227 394.404 229.111 393.581 228.289C392.758 227.466 391.643 227.003 390.48 227Z" fill="black"/>
<path d="M389.41 246.809C389.004 246.401 388.521 246.076 387.989 245.855C387.456 245.633 386.886 245.52 386.31 245.52C385.733 245.52 385.163 245.633 384.631 245.855C384.099 246.076 383.616 246.401 383.21 246.809L377.21 252.809C376.801 253.216 376.476 253.7 376.254 254.233C376.033 254.766 375.919 255.337 375.919 255.914C375.919 256.492 376.033 257.063 376.254 257.596C376.476 258.129 376.801 258.612 377.21 259.019C378.033 259.84 379.147 260.301 380.31 260.301C381.472 260.301 382.587 259.84 383.41 259.019L389.41 253.019C389.818 252.613 390.143 252.13 390.364 251.598C390.586 251.066 390.7 250.496 390.7 249.919C390.7 249.343 390.586 248.773 390.364 248.241C390.143 247.709 389.818 247.226 389.41 246.819V246.809Z" fill="black"/>
<path d="M374.63 260.079C374.628 258.917 374.164 257.803 373.341 256.981C372.518 256.16 371.403 255.699 370.24 255.699H361.75C360.588 255.699 359.473 256.16 358.65 256.981C357.827 257.803 357.363 258.917 357.36 260.079C357.36 261.244 357.823 262.36 358.646 263.183C359.469 264.007 360.586 264.469 361.75 264.469H370.24C371.405 264.469 372.521 264.007 373.345 263.183C374.168 262.36 374.63 261.244 374.63 260.079Z" fill="black"/>
<path d="M354.79 259C355.611 258.175 356.072 257.059 356.072 255.895C356.072 254.731 355.611 253.615 354.79 252.79L348.79 246.79C348.384 246.381 347.901 246.057 347.369 245.835C346.837 245.614 346.266 245.5 345.69 245.5C345.113 245.5 344.543 245.614 344.011 245.835C343.479 246.057 342.996 246.381 342.59 246.79C342.181 247.196 341.857 247.679 341.635 248.211C341.414 248.743 341.3 249.314 341.3 249.89C341.3 250.466 341.414 251.037 341.635 251.569C341.857 252.101 342.181 252.584 342.59 252.99L348.59 258.99C349.414 259.811 350.531 260.272 351.695 260.272C352.859 260.272 353.975 259.811 354.8 258.99L354.79 259Z" fill="black"/>
<path d="M341.51 244.231C342.674 244.231 343.791 243.768 344.614 242.945C345.438 242.122 345.9 241.005 345.9 239.841V231.351C345.897 230.187 345.434 229.072 344.611 228.25C343.789 227.427 342.674 226.964 341.51 226.961C340.347 226.964 339.232 227.427 338.409 228.25C337.586 229.072 337.123 230.187 337.12 231.351V239.841C337.12 241.005 337.583 242.122 338.406 242.945C339.229 243.768 340.346 244.231 341.51 244.231Z" fill="black"/>
<path d="M342.58 224.391C343.403 225.211 344.518 225.672 345.68 225.672C346.842 225.672 347.957 225.211 348.78 224.391L354.78 218.391C355.601 217.568 356.062 216.453 356.062 215.291C356.062 214.128 355.601 213.014 354.78 212.191C353.956 211.369 352.839 210.908 351.675 210.908C350.511 210.908 349.395 211.369 348.57 212.191L342.57 218.191C342.161 218.597 341.837 219.08 341.616 219.612C341.394 220.144 341.28 220.714 341.28 221.291C341.28 221.867 341.394 222.437 341.616 222.969C341.837 223.502 342.161 223.985 342.57 224.391H342.58Z" fill="black"/>
<path d="M366 259.66C370.762 259.662 375.417 258.251 379.377 255.607C383.337 252.963 386.423 249.204 388.246 244.805C390.069 240.407 390.547 235.566 389.618 230.896C388.69 226.226 386.397 221.936 383.03 218.569C379.664 215.203 375.374 212.91 370.704 211.982C366.034 211.053 361.193 211.531 356.795 213.354C352.396 215.177 348.637 218.263 345.993 222.223C343.349 226.183 341.938 230.838 341.94 235.6C341.948 241.978 344.486 248.093 348.996 252.604C353.507 257.114 359.622 259.652 366 259.66ZM366 212.83C370.504 212.828 374.908 214.161 378.653 216.662C382.399 219.163 385.319 222.718 387.044 226.879C388.769 231.039 389.222 235.618 388.344 240.036C387.467 244.453 385.299 248.511 382.115 251.697C378.931 254.882 374.874 257.052 370.456 257.931C366.039 258.811 361.46 258.36 357.299 256.637C353.138 254.914 349.581 251.996 347.079 248.251C344.576 244.506 343.24 240.103 343.24 235.6C343.248 229.565 345.649 223.779 349.915 219.511C354.181 215.243 359.966 212.84 366 212.83Z" fill="black"/>
<path d="M443.91 190.54C437.6 191.414 431.455 193.228 425.68 195.92H403.23L410.91 119.68C411.052 118.215 411.728 116.853 412.808 115.854C413.889 114.855 415.299 114.287 416.77 114.26H467.64C469.112 114.287 470.522 114.855 471.603 115.854C472.683 116.853 473.358 118.215 473.5 119.68L481.36 192.26C469.067 189.554 456.401 188.972 443.91 190.54Z" fill="#048400"/>
<path d="M410.3 155.999V155.879C410.62 153.539 410.64 151.189 410.75 148.819C410.92 145.139 411.51 141.489 412 137.819C412.49 134.149 412.73 130.599 413.33 127.039C413.73 124.649 414.17 122.259 414.54 119.869H438.54L434.1 163.999H409.1L409.94 157.819C410.1 157.229 410.21 156.599 410.3 155.999Z" fill="#6FF8DC"/>
<path d="M421.52 209.13C421.69 209.13 421.85 209.13 422.01 209.13C422.44 207.94 422.92 206.77 423.46 205.64C423.33 205.538 423.206 205.428 423.09 205.31C421.881 204.099 421.201 202.457 421.201 200.745C421.201 199.033 421.881 197.392 423.09 196.18L431.93 187.34C433.142 186.131 434.783 185.451 436.495 185.451C438.207 185.451 439.849 186.131 441.06 187.34C441.178 187.456 441.288 187.58 441.39 187.71C442.52 187.17 443.69 186.71 444.88 186.26C444.88 186.1 444.88 185.94 444.88 185.77C444.88 184.06 445.56 182.419 446.769 181.209C447.979 180 449.62 179.32 451.33 179.32H463.83C465.542 179.32 467.183 180 468.395 181.209C469.606 182.418 470.288 184.059 470.29 185.77C470.29 185.94 470.29 186.1 470.29 186.26C471.48 186.69 472.65 187.17 473.78 187.71C473.89 187.58 473.99 187.46 474.11 187.34C475.322 186.131 476.963 185.451 478.675 185.451C480.387 185.451 482.029 186.131 483.24 187.34L492.08 196.18C493.29 197.392 493.969 199.033 493.969 200.745C493.969 202.457 493.29 204.099 492.08 205.31C491.964 205.428 491.841 205.538 491.71 205.64C492.25 206.77 492.71 207.94 493.16 209.13C493.32 209.13 493.48 209.13 493.65 209.13C495.362 209.133 497.002 209.815 498.212 211.026C499.421 212.237 500.1 213.879 500.1 215.59V228.09C500.1 229.802 499.421 231.443 498.212 232.655C497.002 233.866 495.362 234.548 493.65 234.55C493.48 234.55 493.32 234.55 493.16 234.55C492.73 235.74 492.25 236.91 491.71 238.04C491.841 238.142 491.964 238.252 492.08 238.37C493.29 239.582 493.969 241.223 493.969 242.935C493.969 244.647 493.29 246.289 492.08 247.5L483.24 256.34C482.029 257.55 480.387 258.229 478.675 258.229C476.963 258.229 475.322 257.55 474.11 256.34C473.99 256.22 473.89 256.1 473.78 255.97C472.65 256.51 471.48 256.97 470.29 257.42C470.29 257.58 470.29 257.74 470.29 257.91C470.288 259.622 469.606 261.262 468.395 262.472C467.183 263.681 465.542 264.36 463.83 264.36H451.33C449.62 264.36 447.979 263.681 446.769 262.471C445.56 261.262 444.88 259.621 444.88 257.91C444.88 257.74 444.88 257.58 444.88 257.42C443.69 256.99 442.52 256.51 441.39 255.97C441.288 256.101 441.178 256.224 441.06 256.34C439.849 257.55 438.207 258.229 436.495 258.229C434.783 258.229 433.142 257.55 431.93 256.34L423.09 247.5C421.881 246.289 421.201 244.647 421.201 242.935C421.201 241.223 421.881 239.582 423.09 238.37C423.206 238.252 423.33 238.142 423.46 238.04C422.919 236.903 422.438 235.738 422.02 234.55C421.85 234.55 421.69 234.55 421.52 234.55C419.809 234.548 418.168 233.866 416.959 232.655C415.75 231.443 415.07 229.802 415.07 228.09V215.59C415.07 213.879 415.75 212.237 416.959 211.026C418.168 209.815 419.809 209.133 421.52 209.13Z" fill="black"/>
<path d="M451.28 221.84C451.28 219.68 451.921 217.569 453.121 215.773C454.321 213.977 456.026 212.578 458.021 211.751C460.017 210.925 462.212 210.708 464.331 211.13C466.449 211.551 468.395 212.591 469.922 214.118C471.449 215.646 472.489 217.591 472.91 219.71C473.332 221.828 473.116 224.023 472.289 226.019C471.463 228.014 470.063 229.72 468.267 230.92C466.471 232.119 464.36 232.76 462.2 232.76C459.304 232.76 456.527 231.609 454.479 229.562C452.431 227.514 451.28 224.736 451.28 221.84Z" fill="black"/>
<path d="M449.49 185.8C449.49 187.513 450.171 189.156 451.382 190.368C452.594 191.579 454.237 192.26 455.95 192.26H468.45C470.164 192.26 471.807 191.579 473.018 190.368C474.23 189.156 474.91 187.513 474.91 185.8C474.908 184.088 474.226 182.447 473.015 181.238C471.803 180.029 470.162 179.35 468.45 179.35H456C454.289 179.35 452.647 180.029 451.436 181.238C450.225 182.447 449.543 184.088 449.54 185.8H449.49Z" fill="black"/>
<path d="M478.7 187.37C477.49 188.581 476.811 190.223 476.811 191.935C476.811 193.647 477.49 195.288 478.7 196.5L487.54 205.34C488.751 206.549 490.393 207.229 492.105 207.229C493.817 207.229 495.458 206.549 496.67 205.34C497.879 204.128 498.559 202.487 498.559 200.775C498.559 199.063 497.879 197.421 496.67 196.21L487.83 187.37C486.618 186.16 484.977 185.48 483.265 185.48C481.553 185.48 479.911 186.16 478.7 187.37Z" fill="black"/>
<path d="M498.24 209.131C496.527 209.131 494.884 209.811 493.672 211.023C492.461 212.234 491.78 213.878 491.78 215.591V228.091C491.78 229.804 492.461 231.447 493.672 232.659C494.884 233.87 496.527 234.551 498.24 234.551C499.952 234.548 501.592 233.866 502.802 232.655C504.011 231.444 504.69 229.802 504.69 228.091V215.591C504.69 213.879 504.011 212.238 502.802 211.026C501.592 209.815 499.952 209.134 498.24 209.131Z" fill="black"/>
<path d="M496.67 238.34C495.458 237.131 493.817 236.451 492.105 236.451C490.393 236.451 488.751 237.131 487.54 238.34L478.7 247.18C477.49 248.392 476.811 250.033 476.811 251.745C476.811 253.457 477.49 255.099 478.7 256.31C479.911 257.52 481.553 258.2 483.265 258.2C484.977 258.2 486.618 257.52 487.83 256.31L496.67 247.47C497.879 246.259 498.559 244.617 498.559 242.905C498.559 241.193 497.879 239.552 496.67 238.34Z" fill="black"/>
<path d="M424.46 221.84C424.46 214.375 426.673 207.079 430.82 200.872C434.967 194.666 440.861 189.829 447.758 186.972C454.654 184.116 462.242 183.369 469.563 184.825C476.884 186.281 483.608 189.875 488.886 195.153C494.164 200.431 497.759 207.156 499.215 214.477C500.671 221.798 499.924 229.386 497.067 236.282C494.211 243.178 489.373 249.072 483.167 253.219C476.961 257.366 469.664 259.58 462.2 259.58C452.191 259.58 442.591 255.603 435.514 248.526C428.436 241.448 424.46 231.849 424.46 221.84Z" fill="black"/>
<path d="M474.91 257.88C474.91 256.167 474.229 254.523 473.018 253.312C471.806 252.101 470.163 251.42 468.45 251.42H456C454.287 251.42 452.644 252.101 451.432 253.312C450.221 254.523 449.54 256.167 449.54 257.88C449.543 259.591 450.224 261.232 451.436 262.441C452.647 263.651 454.288 264.33 456 264.33H468.5C470.212 264.33 471.853 263.651 473.064 262.441C474.276 261.232 474.957 259.591 474.96 257.88H474.91Z" fill="black"/>
<path d="M445.7 256.31C446.91 255.099 447.589 253.457 447.589 251.745C447.589 250.033 446.91 248.392 445.7 247.18L436.86 238.34C435.649 237.131 434.007 236.451 432.295 236.451C430.583 236.451 428.941 237.131 427.73 238.34C426.52 239.552 425.841 241.193 425.841 242.905C425.841 244.617 426.52 246.259 427.73 247.47L436.57 256.31C437.781 257.52 439.423 258.2 441.135 258.2C442.847 258.2 444.489 257.52 445.7 256.31Z" fill="black"/>
<path d="M426.16 234.551C427.873 234.551 429.516 233.87 430.728 232.659C431.939 231.447 432.62 229.804 432.62 228.091V215.591C432.62 213.878 431.939 212.234 430.728 211.023C429.516 209.811 427.873 209.131 426.16 209.131C425.312 209.131 424.473 209.298 423.689 209.623C422.906 209.948 422.195 210.424 421.596 211.024C420.997 211.624 420.522 212.336 420.198 213.119C419.875 213.903 419.709 214.743 419.71 215.591V228.091C419.709 228.939 419.875 229.779 420.198 230.562C420.522 231.346 420.997 232.058 421.596 232.658C422.195 233.258 422.906 233.734 423.689 234.059C424.473 234.384 425.312 234.551 426.16 234.551Z" fill="black"/>
<path d="M427.73 205.34C428.941 206.549 430.583 207.229 432.295 207.229C434.007 207.229 435.649 206.549 436.86 205.34L445.7 196.5C446.91 195.288 447.589 193.647 447.589 191.935C447.589 190.223 446.91 188.581 445.7 187.37C444.489 186.16 442.847 185.48 441.135 185.48C439.423 185.48 437.781 186.16 436.57 187.37L427.73 196.21C426.52 197.421 425.841 199.063 425.841 200.775C425.841 202.487 426.52 204.128 427.73 205.34Z" fill="black"/>
<path d="M370.88 231.15H346.59C342.635 231.15 338.843 229.58 336.047 226.783C333.251 223.987 331.68 220.195 331.68 216.24V183.31C331.68 179.356 333.251 175.564 336.047 172.767C338.843 169.971 342.635 168.4 346.59 168.4H370.88V231.15Z" fill="#048400"/>
<path d="M509.15 232.76L367.7 232.76C366.136 232.76 364.635 232.138 363.528 231.032C362.422 229.925 361.8 228.425 361.8 226.86V171.14C361.8 170.387 362.1 169.664 362.632 169.132C363.165 168.599 363.887 168.3 364.64 168.3H509.15V232.76Z" fill="#31BC2E"/>
<path d="M390.24 153.02H389.34C387.998 153.02 386.91 154.107 386.91 155.45V170.4C386.91 171.742 387.998 172.83 389.34 172.83H390.24C391.582 172.83 392.67 171.742 392.67 170.4V155.45C392.67 154.107 391.582 153.02 390.24 153.02Z" fill="#071918"/>
<path d="M378.38 172.829C379.62 172.829 380.62 171.269 380.62 169.359V128.909C380.62 126.999 379.62 125.439 378.38 125.439C377.15 125.439 376.14 126.999 376.14 128.909V169.359C376.14 171.269 377.15 172.829 378.38 172.829Z" fill="#0F2C2A"/>
<path d="M392.34 163.77H387.24C386.003 163.77 385 164.772 385 166.01V170.59C385 171.827 386.003 172.83 387.24 172.83H392.34C393.577 172.83 394.58 171.827 394.58 170.59V166.01C394.58 164.772 393.577 163.77 392.34 163.77Z" fill="#0F2C2A"/>
<path d="M436.86 167.93L441.29 119.68C441.433 118.213 442.109 116.85 443.192 115.851C444.275 114.851 445.687 114.285 447.16 114.26H498C499.474 114.285 500.886 114.851 501.969 115.851C503.051 116.85 503.728 118.213 503.87 119.68L511.73 192.26L436.86 167.93Z" fill="#F7BB45"/>
<path d="M474.3 190.54C467.986 191.415 461.838 193.228 456.06 195.92H433.62L441.29 119.68C441.432 118.213 442.109 116.85 443.192 115.851C444.274 114.851 445.687 114.285 447.16 114.26H498C499.473 114.285 500.886 114.851 501.968 115.851C503.051 116.85 503.728 118.213 503.87 119.68L511.73 192.26C499.443 189.556 486.784 188.975 474.3 190.54Z" fill="#31BC2E"/>
<path d="M442.3 163.941L446.3 120.081C446.336 119.879 446.436 119.696 446.586 119.557C446.736 119.418 446.927 119.331 447.13 119.311H498C498.198 119.339 498.384 119.427 498.532 119.563C498.68 119.698 498.784 119.875 498.83 120.071V120.151L503.57 163.941H442.3Z" fill="#6FF8DC"/>
<path d="M456.12 212.23H456.66C457.13 210.91 457.66 209.63 458.25 208.37C458.12 208.26 457.98 208.14 457.85 208.01C456.514 206.673 455.764 204.86 455.764 202.97C455.764 201.08 456.514 199.267 457.85 197.93L467.61 188.18C470.4 185.39 479.54 184.95 482.32 187.74C482.45 187.86 477.94 188.44 478.05 188.58C479.305 187.981 480.591 187.447 481.9 186.98C481.9 186.81 481.9 186.63 481.9 186.44C481.9 184.552 482.651 182.741 483.986 181.406C485.321 180.07 487.132 179.32 489.02 179.32H502.82C504.71 179.32 506.522 180.07 507.859 181.405C509.195 182.74 509.948 184.551 509.95 186.44C509.95 186.63 509.95 186.81 509.95 186.98C511.26 187.447 512.545 187.981 513.8 188.58C513.912 188.44 514.033 188.306 514.16 188.18C516.94 185.39 524.4 183.9 527.16 186.69L534 198C535.312 199.334 536.047 201.13 536.047 203C536.047 204.871 535.312 206.667 534 208L533.6 208.37C534.187 209.624 534.717 210.904 535.19 212.21H535.73C537.62 212.21 539.432 212.96 540.769 214.295C542.105 215.63 542.858 217.441 542.86 219.33V233.13C542.86 235.021 542.109 236.835 540.772 238.172C539.435 239.509 537.621 240.26 535.73 240.26H535.19C534.72 241.58 534.19 242.86 533.6 244.11C533.73 244.23 533.87 244.34 534 244.47C535.337 245.807 536.087 247.62 536.087 249.51C536.087 251.4 535.337 253.213 534 254.55L524.24 264.31C522.903 265.646 521.091 266.397 519.2 266.397C517.31 266.397 515.497 265.646 514.16 264.31C514.03 264.18 513.91 264.04 513.8 263.91C512.55 264.5 511.26 265.03 509.95 265.5C509.95 265.68 509.95 265.86 509.95 266.04C509.95 267.931 509.199 269.745 507.862 271.082C506.525 272.419 504.711 273.17 502.82 273.17H489C487.111 273.168 485.3 272.415 483.965 271.078C482.63 269.742 481.88 267.93 481.88 266.04C481.88 265.86 481.88 265.68 481.88 265.5C480.57 265.03 479.28 264.5 478.03 263.91C477.92 264.04 477.8 264.18 477.67 264.31C476.333 265.646 474.521 266.397 472.63 266.397C470.74 266.397 468.927 265.646 467.59 264.31L457.83 254.55C456.494 253.213 455.744 251.4 455.744 249.51C455.744 247.62 456.494 245.807 457.83 244.47L458.23 244.11C457.64 242.86 457.11 241.58 456.64 240.26H456.1C454.211 240.258 452.4 239.505 451.065 238.168C449.73 236.832 448.98 235.02 448.98 233.13V219.36C448.979 218.423 449.163 217.494 449.521 216.628C449.88 215.762 450.406 214.975 451.069 214.312C451.733 213.65 452.521 213.125 453.387 212.767C454.254 212.41 455.183 212.228 456.12 212.23Z" fill="#071918"/>
<path d="M459.36 226.25C459.36 218.009 461.804 209.954 466.383 203.103C470.961 196.251 477.469 190.912 485.082 187.759C492.696 184.607 501.073 183.783 509.155 185.392C517.237 187.001 524.66 190.971 530.486 196.799C536.311 202.627 540.277 210.052 541.882 218.135C543.488 226.217 542.66 234.594 539.503 242.206C536.347 249.818 531.004 256.323 524.151 260.899C517.297 265.474 509.241 267.914 501 267.91C489.955 267.905 479.364 263.513 471.555 255.701C463.747 247.889 459.36 237.295 459.36 226.25Z" fill="#0F2C2A"/>
<path d="M474.16 226.251C474.16 220.937 475.736 215.743 478.688 211.326C481.641 206.908 485.837 203.466 490.746 201.433C495.655 199.401 501.057 198.87 506.268 199.908C511.479 200.946 516.264 203.506 520.02 207.265C523.776 211.023 526.332 215.811 527.366 221.023C528.401 226.234 527.866 231.636 525.83 236.543C523.794 241.451 520.348 245.645 515.928 248.594C511.508 251.543 506.313 253.115 501 253.111C493.88 253.105 487.053 250.273 482.02 245.236C476.987 240.2 474.16 233.371 474.16 226.251Z" fill="#0A211F"/>
<path d="M489 226.251C489.002 223.866 489.712 221.535 491.039 219.554C492.367 217.572 494.252 216.03 496.457 215.121C498.662 214.212 501.087 213.977 503.425 214.447C505.764 214.918 507.91 216.071 509.592 217.762C511.274 219.452 512.417 221.604 512.875 223.944C513.334 226.285 513.087 228.709 512.167 230.909C511.247 233.11 509.695 234.987 507.707 236.305C505.719 237.623 503.385 238.321 501 238.311C497.811 238.298 494.757 237.021 492.508 234.76C490.259 232.5 488.997 229.44 489 226.251Z" fill="#A1A1A1"/>
<path d="M487.55 226.249C487.55 223.584 488.34 220.979 489.821 218.764C491.302 216.548 493.407 214.822 495.87 213.803C498.332 212.784 501.042 212.518 503.655 213.04C506.269 213.561 508.669 214.846 510.552 216.732C512.435 218.617 513.716 221.019 514.233 223.634C514.751 226.248 514.481 228.957 513.459 231.418C512.436 233.879 510.707 235.981 508.489 237.459C506.271 238.937 503.665 239.723 501 239.719C497.431 239.714 494.01 238.293 491.488 235.767C488.966 233.241 487.55 229.818 487.55 226.249Z" fill="#0F2C2A"/>
<path d="M487 186.47C487 188.361 487.751 190.174 489.088 191.511C490.425 192.848 492.239 193.6 494.13 193.6H507.93C509.821 193.6 511.635 192.848 512.972 191.511C514.309 190.174 515.06 188.361 515.06 186.47C515.057 184.58 514.305 182.769 512.968 181.434C511.631 180.099 509.819 179.35 507.93 179.35H494.13C492.241 179.35 490.429 180.099 489.092 181.434C487.755 182.769 487.003 184.58 487 186.47Z" fill="#0F2C2A"/>
<path d="M519.23 188.211C518.569 188.872 518.044 189.657 517.687 190.521C517.329 191.385 517.145 192.311 517.145 193.246C517.145 194.181 517.329 195.107 517.687 195.971C518.044 196.835 518.569 197.62 519.23 198.281L529 208.001C529.662 208.664 530.447 209.189 531.312 209.548C532.177 209.907 533.104 210.092 534.04 210.092C534.977 210.092 535.904 209.907 536.769 209.548C537.633 209.189 538.419 208.664 539.08 208.001C540.416 206.664 541.167 204.851 541.167 202.961C541.167 201.071 540.416 199.258 539.08 197.921L529.32 188.171C528.659 187.508 527.873 186.982 527.009 186.624C526.144 186.265 525.217 186.08 524.28 186.08C523.344 186.08 522.417 186.265 521.552 186.624C520.687 186.982 519.902 187.508 519.24 188.171L519.23 188.211Z" fill="#0F2C2A"/>
<path d="M540.8 212.23C538.911 212.23 537.099 212.98 535.762 214.315C534.425 215.65 533.673 217.461 533.67 219.35V233.15C533.67 235.041 534.421 236.855 535.758 238.192C537.095 239.529 538.909 240.28 540.8 240.28C542.691 240.28 544.504 239.529 545.842 238.192C547.179 236.855 547.93 235.041 547.93 233.15V219.35C547.927 217.461 547.175 215.65 545.838 214.315C544.501 212.98 542.689 212.23 540.8 212.23Z" fill="#0F2C2A"/>
<path d="M539.07 244.46C537.733 243.124 535.92 242.373 534.03 242.373C532.14 242.373 530.327 243.124 528.99 244.46L519.23 254.22C517.894 255.557 517.144 257.37 517.144 259.26C517.144 261.15 517.894 262.963 519.23 264.3C520.567 265.636 522.38 266.386 524.27 266.386C526.16 266.386 527.973 265.636 529.31 264.3L539.07 254.54C540.406 253.203 541.157 251.39 541.157 249.5C541.157 247.61 540.406 245.797 539.07 244.46Z" fill="#0F2C2A"/>
<path d="M515.05 266.001C515.047 264.112 514.295 262.301 512.958 260.966C511.621 259.631 509.809 258.881 507.92 258.881H494.12C492.232 258.884 490.423 259.634 489.088 260.969C487.754 262.304 487.003 264.113 487 266.001C487 267.892 487.751 269.705 489.088 271.043C490.425 272.38 492.239 273.131 494.13 273.131H507.93C509.821 273.131 511.635 272.38 512.972 271.043C514.309 269.705 515.06 267.892 515.06 266.001H515.05Z" fill="#0F2C2A"/>
<path d="M482.81 264.3C484.147 262.963 484.897 261.15 484.897 259.26C484.897 257.37 484.147 255.557 482.81 254.22L473.05 244.46C471.713 243.124 469.901 242.373 468.01 242.373C466.12 242.373 464.307 243.124 462.97 244.46C461.634 245.797 460.884 247.61 460.884 249.5C460.884 251.39 461.634 253.203 462.97 254.54L472.73 264.3C474.067 265.636 475.88 266.386 477.77 266.386C479.661 266.386 481.473 265.636 482.81 264.3Z" fill="#0F2C2A"/>
<path d="M461.24 240.28C463.131 240.28 464.945 239.529 466.282 238.192C467.619 236.855 468.37 235.041 468.37 233.15V219.36C468.37 217.469 467.619 215.656 466.282 214.319C464.945 212.982 463.131 212.23 461.24 212.23C459.349 212.23 457.536 212.982 456.199 214.319C454.862 215.656 454.11 217.469 454.11 219.36V233.15C454.11 235.041 454.862 236.855 456.199 238.192C457.536 239.529 459.349 240.28 461.24 240.28Z" fill="#0F2C2A"/>
<path d="M463 208.001C463.661 208.664 464.447 209.189 465.312 209.548C466.177 209.907 467.104 210.092 468.04 210.092C468.976 210.092 469.904 209.907 470.768 209.548C471.633 209.189 472.419 208.664 473.08 208.001L482.84 198.241C483.501 197.58 484.026 196.795 484.384 195.931C484.742 195.067 484.926 194.141 484.926 193.206C484.926 192.271 484.742 191.345 484.384 190.481C484.026 189.617 483.501 188.832 482.84 188.171C482.179 187.508 481.393 186.982 480.528 186.624C479.664 186.265 478.736 186.08 477.8 186.08C476.864 186.08 475.937 186.265 475.072 186.624C474.207 186.982 473.421 187.508 472.76 188.171L463 198.001C461.688 199.334 460.953 201.13 460.953 203.001C460.953 204.872 461.688 206.667 463 208.001Z" fill="#0F2C2A"/>
<path d="M501 265.35C508.734 265.352 516.294 263.061 522.726 258.766C529.157 254.471 534.17 248.365 537.131 241.22C540.092 234.076 540.868 226.214 539.36 218.629C537.853 211.043 534.129 204.075 528.662 198.606C523.194 193.137 516.227 189.412 508.642 187.902C501.057 186.393 493.195 187.167 486.05 190.126C478.904 193.085 472.797 198.096 468.5 204.527C464.204 210.957 461.91 218.517 461.91 226.25C461.921 236.615 466.042 246.553 473.37 253.883C480.699 261.213 490.635 265.337 501 265.35ZM501 189.27C508.318 189.27 515.472 191.44 521.556 195.506C527.641 199.572 532.383 205.35 535.184 212.111C537.984 218.872 538.717 226.311 537.289 233.489C535.862 240.666 532.338 247.259 527.163 252.433C521.989 257.608 515.396 261.132 508.219 262.559C501.041 263.987 493.602 263.254 486.841 260.454C480.08 257.654 474.301 252.911 470.236 246.827C466.17 240.742 464 233.588 464 226.27C464 221.412 464.957 216.6 466.817 212.111C468.676 207.622 471.401 203.543 474.837 200.107C478.273 196.672 482.352 193.946 486.841 192.087C491.33 190.227 496.141 189.27 501 189.27Z" fill="#31BC2E"/>
<path d="M361.3 231.911H361.67C361.99 231.021 362.35 230.141 362.75 229.291L362.48 229.051C361.573 228.142 361.064 226.91 361.064 225.626C361.064 224.342 361.573 223.11 362.48 222.201L369.11 215.571C371 213.681 377.21 213.381 379.11 215.271C379.2 215.361 376.11 215.751 376.21 215.841C377.06 215.441 377.93 215.081 378.83 214.761C378.83 214.641 378.83 214.521 378.83 214.391C378.83 213.107 379.34 211.876 380.248 210.968C381.155 210.061 382.386 209.551 383.67 209.551H393C394.284 209.551 395.515 210.061 396.422 210.968C397.33 211.876 397.84 213.107 397.84 214.391C397.84 214.521 397.84 214.641 397.84 214.761C398.73 215.081 399.61 215.441 400.46 215.841L400.7 215.571C402.59 213.681 407.7 212.671 409.55 214.571L414.18 222.211C415.087 223.12 415.596 224.352 415.596 225.636C415.596 226.92 415.087 228.152 414.18 229.061L413.91 229.301C414.31 230.151 414.67 231.031 414.99 231.921H415.36C416.644 231.921 417.875 232.431 418.782 233.338C419.69 234.246 420.2 235.477 420.2 236.761V246.141C420.2 247.424 419.69 248.655 418.782 249.563C417.875 250.471 416.644 250.981 415.36 250.981H414.99C414.67 251.871 414.31 252.751 413.91 253.601L414.18 253.841C415.087 254.75 415.596 255.982 415.596 257.266C415.596 258.55 415.087 259.782 414.18 260.691L407.55 267.321C406.641 268.228 405.409 268.737 404.125 268.737C402.841 268.737 401.609 268.228 400.7 267.321L400.46 267.051C399.61 267.451 398.73 267.811 397.84 268.131C397.84 268.251 397.84 268.381 397.84 268.501C397.84 269.784 397.33 271.015 396.422 271.923C395.515 272.831 394.284 273.341 393 273.341H383.62C382.336 273.341 381.105 272.831 380.198 271.923C379.29 271.015 378.78 269.784 378.78 268.501C378.78 268.381 378.78 268.251 378.78 268.131C377.89 267.811 377.01 267.451 376.16 267.051L375.92 267.321C375.011 268.228 373.779 268.737 372.495 268.737C371.211 268.737 369.979 268.228 369.07 267.321L362.44 260.691C361.533 259.782 361.024 258.55 361.024 257.266C361.024 255.982 361.533 254.75 362.44 253.841L362.71 253.601C362.31 252.751 361.95 251.871 361.63 250.981H361.26C359.976 250.981 358.745 250.471 357.838 249.563C356.93 248.655 356.42 247.424 356.42 246.141V236.761C356.419 236.121 356.544 235.487 356.789 234.896C357.034 234.305 357.394 233.769 357.848 233.318C358.302 232.867 358.841 232.51 359.433 232.269C360.026 232.027 360.66 231.905 361.3 231.911Z" fill="#071918"/>
<path d="M363.5 241.439C363.498 235.84 365.157 230.365 368.266 225.708C371.376 221.051 375.796 217.421 380.969 215.277C386.142 213.133 391.835 212.571 397.327 213.662C402.819 214.753 407.864 217.449 411.825 221.407C415.785 225.366 418.482 230.411 419.575 235.902C420.668 241.394 420.108 247.087 417.966 252.261C415.824 257.434 412.195 261.856 407.539 264.967C402.883 268.079 397.41 269.739 391.81 269.739C384.303 269.739 377.104 266.758 371.795 261.451C366.486 256.144 363.503 248.946 363.5 241.439Z" fill="#0F2C2A"/>
<path d="M373.56 241.439C373.56 237.83 374.63 234.302 376.635 231.3C378.641 228.299 381.491 225.96 384.826 224.579C388.16 223.197 391.83 222.836 395.37 223.54C398.91 224.244 402.162 225.982 404.714 228.535C407.267 231.087 409.005 234.339 409.709 237.879C410.413 241.419 410.052 245.089 408.67 248.423C407.289 251.758 404.95 254.608 401.949 256.614C398.948 258.619 395.419 259.689 391.81 259.689C386.969 259.689 382.327 257.767 378.905 254.344C375.482 250.922 373.56 246.28 373.56 241.439Z" fill="#0A211F"/>
<path d="M383.62 241.44C383.62 239.82 384.1 238.237 385 236.89C385.9 235.543 387.179 234.493 388.676 233.873C390.172 233.254 391.819 233.091 393.408 233.407C394.997 233.723 396.456 234.503 397.601 235.649C398.747 236.794 399.527 238.254 399.843 239.842C400.159 241.431 399.997 243.078 399.377 244.574C398.757 246.071 397.707 247.35 396.36 248.25C395.013 249.15 393.43 249.63 391.81 249.63C389.638 249.63 387.555 248.767 386.019 247.231C384.483 245.695 383.62 243.612 383.62 241.44Z" fill="#A1A1A1"/>
<path d="M382.66 241.439C382.66 239.629 383.197 237.86 384.202 236.356C385.208 234.851 386.637 233.678 388.309 232.986C389.981 232.293 391.82 232.112 393.595 232.465C395.37 232.818 397.001 233.689 398.28 234.969C399.56 236.249 400.431 237.879 400.784 239.654C401.137 241.429 400.956 243.269 400.264 244.941C399.571 246.613 398.398 248.042 396.894 249.047C395.389 250.052 393.62 250.589 391.81 250.589C389.383 250.589 387.056 249.625 385.34 247.909C383.624 246.193 382.66 243.866 382.66 241.439Z" fill="#0F2C2A"/>
<path d="M382.28 214.41C382.28 215.694 382.79 216.925 383.698 217.833C384.606 218.74 385.837 219.25 387.12 219.25H396.5C397.784 219.25 399.015 218.74 399.923 217.833C400.83 216.925 401.34 215.694 401.34 214.41C401.34 213.127 400.83 211.896 399.923 210.988C399.015 210.08 397.784 209.57 396.5 209.57H387.12C385.837 209.57 384.606 210.08 383.698 210.988C382.79 211.896 382.28 213.127 382.28 214.41Z" fill="#0F2C2A"/>
<path d="M404.18 215.59C403.273 216.499 402.764 217.731 402.764 219.015C402.764 220.299 403.273 221.531 404.18 222.44L410.81 229.07C411.719 229.977 412.951 230.486 414.235 230.486C415.519 230.486 416.751 229.977 417.66 229.07C418.567 228.161 419.076 226.929 419.076 225.645C419.076 224.361 418.567 223.129 417.66 222.22L411 215.59C410.091 214.683 408.859 214.174 407.575 214.174C406.291 214.174 405.059 214.683 404.15 215.59H404.18Z" fill="#0F2C2A"/>
<path d="M418.84 231.91C417.556 231.91 416.324 232.42 415.414 233.327C414.505 234.235 413.993 235.466 413.99 236.75V246.13C413.993 247.415 414.505 248.646 415.414 249.553C416.324 250.461 417.556 250.97 418.84 250.97C420.124 250.97 421.355 250.46 422.263 249.553C423.17 248.645 423.68 247.414 423.68 246.13V236.75C423.68 235.467 423.17 234.235 422.263 233.328C421.355 232.42 420.124 231.91 418.84 231.91Z" fill="#0F2C2A"/>
<path d="M417.66 253.811C416.751 252.904 415.519 252.395 414.235 252.395C412.951 252.395 411.719 252.904 410.81 253.811L404.18 260.441C403.273 261.35 402.764 262.581 402.764 263.866C402.764 265.15 403.273 266.381 404.18 267.291C405.089 268.197 406.321 268.707 407.605 268.707C408.889 268.707 410.121 268.197 411.03 267.291L417.66 260.661C418.567 259.751 419.076 258.52 419.076 257.236C419.076 255.951 418.567 254.72 417.66 253.811Z" fill="#0F2C2A"/>
<path d="M401.34 268.471C401.34 267.187 400.83 265.956 399.923 265.048C399.015 264.141 397.784 263.631 396.5 263.631H387.12C385.837 263.631 384.606 264.141 383.698 265.048C382.79 265.956 382.28 267.187 382.28 268.471C382.28 269.755 382.79 270.986 383.698 271.893C384.606 272.801 385.837 273.311 387.12 273.311H396.5C397.784 273.311 399.015 272.801 399.923 271.893C400.83 270.986 401.34 269.755 401.34 268.471Z" fill="#0F2C2A"/>
<path d="M379.43 267.29C379.881 266.841 380.24 266.307 380.484 265.72C380.729 265.132 380.854 264.502 380.854 263.865C380.854 263.228 380.729 262.598 380.484 262.01C380.24 261.423 379.881 260.889 379.43 260.44L372.8 253.81C372.351 253.36 371.818 253.003 371.231 252.76C370.645 252.516 370.015 252.391 369.38 252.391C368.745 252.391 368.115 252.516 367.529 252.76C366.942 253.003 366.409 253.36 365.96 253.81C365.053 254.719 364.544 255.951 364.544 257.235C364.544 258.519 365.053 259.751 365.96 260.66L372.59 267.29C373.039 267.74 373.572 268.097 374.159 268.34C374.745 268.584 375.375 268.709 376.01 268.709C376.645 268.709 377.275 268.584 377.861 268.34C378.448 268.097 378.981 267.74 379.43 267.29Z" fill="#0F2C2A"/>
<path d="M364.78 250.999C366.064 250.999 367.295 250.49 368.203 249.582C369.11 248.674 369.62 247.443 369.62 246.159V236.779C369.62 235.496 369.11 234.265 368.203 233.357C367.295 232.449 366.064 231.939 364.78 231.939C363.497 231.939 362.266 232.449 361.358 233.357C360.45 234.265 359.94 235.496 359.94 236.779V246.159C359.94 247.443 360.45 248.674 361.358 249.582C362.266 250.49 363.497 250.999 364.78 250.999Z" fill="#0F2C2A"/>
<path d="M366 229.069C366.449 229.519 366.982 229.876 367.569 230.12C368.155 230.363 368.785 230.489 369.42 230.489C370.055 230.489 370.685 230.363 371.271 230.12C371.858 229.876 372.391 229.519 372.84 229.069L379.47 222.439C380.377 221.53 380.886 220.298 380.886 219.014C380.886 217.73 380.377 216.498 379.47 215.589C379.021 215.139 378.488 214.782 377.901 214.539C377.315 214.295 376.685 214.17 376.05 214.17C375.415 214.17 374.786 214.295 374.199 214.539C373.612 214.782 373.079 215.139 372.63 215.589L366 222.219C365.093 223.128 364.584 224.36 364.584 225.644C364.584 226.928 365.093 228.16 366 229.069Z" fill="#0F2C2A"/>
<path d="M391.81 268.001C397.063 268.001 402.198 266.443 406.566 263.525C410.934 260.606 414.338 256.458 416.348 251.605C418.358 246.752 418.884 241.411 417.86 236.259C416.835 231.107 414.305 226.375 410.591 222.66C406.876 218.946 402.144 216.416 396.992 215.391C391.839 214.366 386.499 214.892 381.646 216.903C376.793 218.913 372.645 222.317 369.726 226.685C366.808 231.053 365.25 236.188 365.25 241.441C365.258 248.483 368.059 255.234 373.038 260.213C378.017 265.192 384.768 267.993 391.81 268.001ZM391.81 216.311C396.78 216.311 401.639 217.785 405.771 220.546C409.904 223.307 413.125 227.232 415.027 231.824C416.929 236.416 417.427 241.469 416.457 246.343C415.487 251.218 413.094 255.696 409.58 259.21C406.065 262.725 401.587 265.118 396.713 266.088C391.838 267.058 386.785 266.56 382.193 264.658C377.601 262.756 373.676 259.535 370.915 255.402C368.154 251.27 366.68 246.411 366.68 241.441C366.688 234.778 369.338 228.391 374.049 223.68C378.76 218.969 385.148 216.319 391.81 216.311Z" fill="#31BC2E"/>
<path d="M408.6 175.16H374.26V178.28H408.6V175.16Z" fill="#071918"/>
<path d="M408.6 180.449H374.26V183.569H408.6V180.449Z" fill="#071918"/>
<path d="M408.6 185.74H374.26V188.86H408.6V185.74Z" fill="#071918"/>
<path d="M408.61 175.16H392.63V178.28H408.61V175.16Z" fill="#1C4A45"/>
<path d="M408.61 180.449H392.63V183.569H408.61V180.449Z" fill="#1C4A45"/>
<path d="M408.61 185.74H392.63V188.86H408.61V185.74Z" fill="#1C4A45"/>
<path d="M349.84 187.861C349.838 188.731 350.094 189.583 350.577 190.308C351.059 191.033 351.745 191.598 352.549 191.933C353.353 192.267 354.238 192.356 355.092 192.187C355.946 192.019 356.731 191.6 357.348 190.986C357.964 190.371 358.384 189.587 358.555 188.733C358.725 187.879 358.639 186.994 358.306 186.189C357.973 185.385 357.409 184.697 356.685 184.213C355.962 183.729 355.111 183.471 354.24 183.471C353.075 183.471 351.957 183.933 351.132 184.756C350.307 185.579 349.843 186.695 349.84 187.861Z" fill="#0F2C2A"/>
<path d="M334.47 187.861C334.468 188.731 334.724 189.583 335.206 190.308C335.689 191.033 336.375 191.598 337.179 191.933C337.983 192.267 338.868 192.356 339.722 192.187C340.576 192.019 341.361 191.6 341.977 190.986C342.594 190.371 343.014 189.587 343.184 188.733C343.355 187.879 343.268 186.994 342.936 186.189C342.603 185.385 342.039 184.697 341.315 184.213C340.591 183.729 339.74 183.471 338.87 183.471C337.705 183.471 336.587 183.933 335.762 184.756C334.937 185.579 334.472 186.695 334.47 187.861Z" fill="#0F2C2A"/>
<path d="M358.19 198.699H335.12V200.259H358.19V198.699Z" fill="#6FF8DC"/>
<path d="M358.19 201.35H335.12V202.91H358.19V201.35Z" fill="#6FF8DC"/>
<path d="M358.19 204H335.12V205.56H358.19V204Z" fill="#6FF8DC"/>
<path d="M447.6 110.59H446.33V114.26H447.6V110.59Z" fill="#31BC2E"/>
<path d="M447.59 106.359H446.17C445.088 106.359 444.21 107.237 444.21 108.319V109.739C444.21 110.822 445.088 111.699 446.17 111.699H447.59C448.672 111.699 449.55 110.822 449.55 109.739V108.319C449.55 107.237 448.672 106.359 447.59 106.359Z" fill="#F6B744"/>
<path d="M275.27 252.15C274.364 248.173 272.134 244.622 268.945 242.078C265.757 239.535 261.799 238.149 257.72 238.149C253.641 238.149 249.683 239.535 246.495 242.078C243.306 244.622 241.076 248.173 240.17 252.15H233.17C234.79 240.61 245.17 231.68 257.68 231.68C270.19 231.68 280.57 240.61 282.19 252.15H275.27Z" fill="#051616"/>
<path d="M241.83 255.799C241.83 252.301 242.868 248.88 244.811 245.971C246.755 243.062 249.518 240.795 252.75 239.456C255.983 238.117 259.54 237.767 262.971 238.449C266.403 239.132 269.555 240.817 272.029 243.291C274.503 245.765 276.188 248.917 276.87 252.348C277.553 255.78 277.202 259.337 275.864 262.569C274.525 265.801 272.257 268.564 269.348 270.508C266.439 272.452 263.019 273.489 259.52 273.489C254.828 273.489 250.329 271.626 247.011 268.308C243.694 264.991 241.83 260.491 241.83 255.799Z" fill="#051616"/>
<path d="M248.12 255.8C248.12 253.546 248.789 251.342 250.041 249.467C251.294 247.592 253.074 246.131 255.158 245.268C257.241 244.405 259.533 244.18 261.744 244.619C263.956 245.059 265.987 246.145 267.581 247.739C269.175 249.334 270.261 251.365 270.701 253.576C271.141 255.788 270.915 258.08 270.052 260.163C269.189 262.246 267.728 264.026 265.854 265.279C263.979 266.532 261.775 267.2 259.52 267.2C256.497 267.2 253.597 265.999 251.459 263.861C249.321 261.724 248.12 258.824 248.12 255.8Z" fill="#030C0B"/>
<path d="M254.4 255.8C254.4 254.787 254.701 253.797 255.263 252.955C255.826 252.113 256.626 251.457 257.561 251.069C258.497 250.682 259.526 250.581 260.519 250.778C261.512 250.976 262.425 251.463 263.141 252.179C263.857 252.895 264.344 253.808 264.542 254.801C264.74 255.794 264.638 256.823 264.251 257.759C263.863 258.695 263.207 259.494 262.365 260.057C261.523 260.619 260.533 260.92 259.52 260.92C258.848 260.921 258.181 260.789 257.56 260.533C256.938 260.276 256.373 259.899 255.897 259.423C255.421 258.947 255.044 258.382 254.787 257.761C254.531 257.139 254.399 256.472 254.4 255.8Z" fill="#051616"/>
<path d="M277.47 252.15C276.564 248.173 274.334 244.622 271.145 242.078C267.957 239.535 263.999 238.149 259.92 238.149C255.841 238.149 251.884 239.535 248.695 242.078C245.507 244.622 243.276 248.173 242.37 252.15H235.37C236.99 240.61 247.37 231.68 259.88 231.68C272.39 231.68 282.77 240.61 284.39 252.15H277.47Z" fill="#0F2C2A"/>
<path d="M111.63 185.23C124.515 185.23 134.96 174.785 134.96 161.9C134.96 149.015 124.515 138.57 111.63 138.57C98.745 138.57 88.2998 149.015 88.2998 161.9C88.2998 174.785 98.745 185.23 111.63 185.23Z" fill="#B36D2D"/>
<path d="M88.3105 194.25C101.195 194.25 111.64 183.805 111.64 170.92C111.64 158.035 101.195 147.59 88.3105 147.59C75.4257 147.59 64.9805 158.035 64.9805 170.92C64.9805 183.805 75.4257 194.25 88.3105 194.25Z" fill="#98492F"/>
<path d="M54.4804 192.551C67.3652 192.551 77.8104 182.105 77.8104 169.221C77.8104 156.336 67.3652 145.891 54.4804 145.891C41.5956 145.891 31.1504 156.336 31.1504 169.221C31.1504 182.105 41.5956 192.551 54.4804 192.551Z" fill="#B36D2D"/>
<path d="M31.1601 205.93C44.0449 205.93 54.4901 195.484 54.4901 182.6C54.4901 169.715 44.0449 159.27 31.1601 159.27C18.2753 159.27 7.83008 169.715 7.83008 182.6C7.83008 195.484 18.2753 205.93 31.1601 205.93Z" fill="#98492F"/>
<path d="M137.67 188.871C147.583 188.871 155.62 180.834 155.62 170.921C155.62 161.007 147.583 152.971 137.67 152.971C127.756 152.971 119.72 161.007 119.72 170.921C119.72 180.834 127.756 188.871 137.67 188.871Z" fill="#98492F"/>
<path d="M192.7 252.999H301.19L300.31 197.839C300.264 194.715 299.615 191.628 298.4 188.749L283.91 154.279C282.329 150.527 279.676 147.325 276.284 145.073C272.892 142.822 268.912 141.62 264.84 141.619H192.7V252.999Z" fill="#0F2C2A" stroke="#0F2C2A" stroke-width="0.65" stroke-miterlimit="10"/>
<path d="M169.18 253.001H253.18V197.941C253.178 194.696 252.533 191.484 251.28 188.491L234.43 148.261C233.667 146.307 232.332 144.628 230.599 143.446C228.867 142.263 226.817 141.63 224.72 141.631H169.18V253.001Z" fill="#1C4A45" stroke="#0F2C2A" stroke-width="0.6" stroke-miterlimit="10"/>
<path d="M256.76 182.6H289L277.98 155.84H244.79L256.76 182.6Z" fill="#6FF8DC"/>
<path d="M175.05 180.66H200.09V153.9H175.05V180.66Z" fill="#6FF8DC"/>
<path d="M205.74 180.66H243.41L230.78 153.9H205.74V180.66Z" fill="#6FF8DC"/>
<path d="M258.82 210.289H298.07V202.869H258.82V210.289Z" fill="#051616"/>
<path d="M258.82 218.52H298.07V216.63H258.82V218.52Z" fill="#051616"/>
<path d="M258.82 223.1H298.07V221.21H258.82V223.1Z" fill="#051616"/>
<path d="M258.82 227.68H298.07V225.79H258.82V227.68Z" fill="#051616"/>
<path d="M290.65 248.539H298.07V241.119H290.65V248.539Z" fill="#051616"/>
<path d="M258.65 248.539H266.07V241.119H258.65V248.539Z" fill="#051616"/>
<path d="M225.17 252.579C224.267 248.598 222.038 245.041 218.848 242.493C215.659 239.945 211.697 238.557 207.615 238.557C203.532 238.557 199.571 239.945 196.381 242.493C193.191 245.041 190.962 248.598 190.06 252.579H183.06C184.69 241.039 195.06 232.109 207.57 232.109C220.08 232.109 230.46 241.039 232.09 252.579H225.17Z" fill="#051616"/>
<path d="M191.73 256.229C191.73 252.73 192.768 249.309 194.712 246.4C196.657 243.491 199.42 241.223 202.653 239.885C205.886 238.546 209.444 238.196 212.875 238.88C216.307 239.563 219.459 241.249 221.933 243.724C224.406 246.199 226.09 249.352 226.772 252.784C227.453 256.216 227.101 259.773 225.761 263.006C224.421 266.238 222.152 269 219.241 270.943C216.331 272.885 212.91 273.921 209.41 273.919C204.721 273.916 200.224 272.051 196.908 268.734C193.593 265.417 191.73 260.919 191.73 256.229Z" fill="#051616"/>
<path d="M198 256.23C198 253.975 198.669 251.771 199.921 249.897C201.174 248.022 202.954 246.561 205.037 245.698C207.12 244.835 209.413 244.609 211.624 245.049C213.835 245.489 215.867 246.575 217.461 248.169C219.055 249.763 220.141 251.795 220.581 254.006C221.021 256.217 220.795 258.51 219.932 260.593C219.069 262.676 217.608 264.456 215.734 265.709C213.859 266.961 211.655 267.63 209.4 267.63C206.377 267.627 203.479 266.426 201.342 264.288C199.205 262.151 198.003 259.253 198 256.23Z" fill="#030C0B"/>
<path d="M204.3 256.229C204.3 255.216 204.6 254.226 205.163 253.384C205.726 252.542 206.527 251.885 207.463 251.498C208.399 251.111 209.429 251.01 210.422 251.208C211.416 251.407 212.328 251.895 213.044 252.613C213.759 253.33 214.246 254.243 214.443 255.237C214.639 256.23 214.536 257.26 214.147 258.196C213.758 259.131 213.1 259.93 212.257 260.491C211.414 261.053 210.423 261.351 209.41 261.349C208.738 261.349 208.073 261.217 207.452 260.959C206.831 260.702 206.268 260.325 205.793 259.849C205.318 259.374 204.942 258.809 204.686 258.188C204.43 257.567 204.298 256.901 204.3 256.229Z" fill="#051616"/>
<path d="M227.37 252.579C226.468 248.598 224.239 245.041 221.049 242.493C217.859 239.945 213.897 238.557 209.815 238.557C205.732 238.557 201.771 239.945 198.581 242.493C195.391 245.041 193.162 248.598 192.26 252.579H185.26C186.89 241.039 197.26 232.109 209.78 232.109C222.3 232.109 232.66 241.039 234.29 252.579H227.37Z" fill="#0F2C2A"/>
<path d="M98.7201 252.579C97.8138 248.603 95.5837 245.052 92.3952 242.508C89.2067 239.964 85.2489 238.579 81.1701 238.579C77.0914 238.579 73.1335 239.964 69.945 242.508C66.7565 245.052 64.5264 248.603 63.6201 252.579H56.6201C58.2401 241.039 68.6201 232.109 81.1301 232.109C93.6401 232.109 104.01 241.039 105.64 252.579H98.7201Z" fill="#051616"/>
<path d="M65.2803 256.229C65.2803 252.732 66.317 249.313 68.2595 246.404C70.202 243.496 72.963 241.228 76.1937 239.889C79.4244 238.549 82.9797 238.197 86.4104 238.877C89.8411 239.557 92.9932 241.239 95.4684 243.71C97.9436 246.181 99.6307 249.33 100.317 252.76C101.003 256.189 100.657 259.745 99.3223 262.978C97.988 266.211 95.7253 268.976 92.8201 270.923C89.915 272.871 86.4977 273.913 83.0003 273.919C80.6747 273.923 78.3711 273.468 76.2214 272.581C74.0717 271.694 72.118 270.391 70.4722 268.748C68.8263 267.105 67.5206 265.154 66.6297 263.006C65.7388 260.857 65.2803 258.555 65.2803 256.229Z" fill="#051616"/>
<path d="M71.5703 256.23C71.5703 253.977 72.2382 251.774 73.4895 249.9C74.7408 248.026 76.5195 246.564 78.6008 245.701C80.6822 244.837 82.9728 244.61 85.1833 245.047C87.3939 245.484 89.4252 246.567 91.0207 248.158C92.6162 249.75 93.7043 251.778 94.1476 253.988C94.5909 256.197 94.3694 258.488 93.5111 260.572C92.6529 262.655 91.1964 264.438 89.3256 265.694C87.4548 266.95 85.2537 267.624 83.0003 267.63C81.5007 267.634 80.0151 267.342 78.6285 266.771C77.2419 266.2 75.9817 265.361 74.9199 264.302C73.8581 263.243 73.0157 261.985 72.4409 260.6C71.8662 259.214 71.5703 257.73 71.5703 256.23Z" fill="#030C0B"/>
<path d="M77.8496 256.229C77.8496 255.218 78.1492 254.229 78.7105 253.388C79.2717 252.547 80.0696 251.89 81.0034 251.502C81.9372 251.114 82.9651 251.01 83.9575 251.206C84.9499 251.401 85.8622 251.885 86.5794 252.598C87.2966 253.311 87.7866 254.221 87.9876 255.212C88.1885 256.203 88.0914 257.232 87.7084 258.168C87.3255 259.104 86.6739 259.906 85.8359 260.472C84.9979 261.038 84.011 261.343 82.9996 261.349C82.3244 261.355 81.6548 261.226 81.0295 260.971C80.4043 260.716 79.8358 260.339 79.3569 259.863C78.878 259.387 78.4982 258.821 78.2395 258.197C77.9808 257.573 77.8483 256.905 77.8496 256.229Z" fill="#051616"/>
<path d="M100.92 252.579C100.014 248.603 97.7839 245.052 94.5954 242.508C91.4069 239.964 87.4491 238.579 83.3703 238.579C79.2916 238.579 75.3337 239.964 72.1452 242.508C68.9567 245.052 66.7266 248.603 65.8203 252.579H58.8203C60.4403 241.039 70.8203 232.109 83.3303 232.109C95.8403 232.109 106.22 241.039 107.84 252.579H100.92Z" fill="#0F2C2A"/>
<path d="M15.6397 253.01L169.18 253.01V187.7H15.6397V253.01Z" fill="#0F2C2A" stroke="#0F2C2A" stroke-width="0.65" stroke-miterlimit="10"/>
<path d="M0.000427246 228.779L163.44 228.779V170.919L0.000427246 170.919V228.779Z" fill="#F6B744"/>
<path d="M0.000427246 186.59L163.44 186.59V179.45L0.000427246 179.45V186.59Z" fill="#F8C556"/>
<path d="M0.290466 204.301L163.73 204.301V197.161L0.290466 197.161V204.301Z" fill="#F8C556"/>
<path d="M0.290466 222L163.73 222V214.86L0.290466 214.86V222Z" fill="#F8C556"/>
<path d="M207.36 189.26H222.15V187.7H207.36V189.26Z" fill="#051616"/>
<path d="M175.45 189.26H190.24V187.7H175.45V189.26Z" fill="#051616"/>
<path d="M72.1898 252.579C71.2835 248.603 69.0534 245.052 65.8649 242.508C62.6764 239.964 58.7186 238.579 54.6398 238.579C50.5611 238.579 46.6032 239.964 43.4147 242.508C40.2263 245.052 37.9962 248.603 37.0898 252.579H30.0898C31.7198 241.039 42.0898 232.109 54.5998 232.109C67.1098 232.109 77.5298 240.999 79.1498 252.579H72.1898Z" fill="#051616"/>
<path d="M38.7598 256.231C38.7617 252.734 39.8003 249.317 41.7442 246.411C43.6882 243.505 46.4501 241.24 49.6809 239.903C52.9116 238.567 56.4662 238.218 59.8951 238.901C63.324 239.585 66.4734 241.269 68.945 243.742C71.4165 246.215 73.0994 249.366 73.7808 252.795C74.4622 256.224 74.1115 259.779 72.773 263.009C71.4346 266.239 69.1685 268.999 66.2612 270.942C63.354 272.884 59.9361 273.921 56.4398 273.921C54.1172 273.921 51.8173 273.463 49.6716 272.574C47.5259 271.685 45.5765 270.381 43.9346 268.739C42.2927 267.096 40.9906 265.146 40.1027 262.999C39.2148 260.853 38.7585 258.553 38.7598 256.231Z" fill="#051616"/>
<path d="M45 256.23C45 253.975 45.6686 251.771 46.9212 249.897C48.1739 248.022 49.9543 246.561 52.0374 245.698C54.1205 244.835 56.4126 244.609 58.624 245.049C60.8354 245.489 62.8667 246.575 64.461 248.169C66.0553 249.763 67.1411 251.795 67.581 254.006C68.0208 256.217 67.7951 258.51 66.9322 260.593C66.0694 262.676 64.6082 264.456 62.7335 265.709C60.8588 266.961 58.6547 267.63 56.4 267.63C53.3765 267.63 50.4769 266.429 48.339 264.291C46.2011 262.153 45 259.254 45 256.23Z" fill="#030C0B"/>
<path d="M51.3203 256.229C51.3203 255.217 51.6206 254.227 52.1832 253.385C52.7458 252.543 53.5454 251.887 54.481 251.499C55.4165 251.112 56.446 251.01 57.4392 251.208C58.4324 251.405 59.3447 251.893 60.0607 252.609C60.7768 253.325 61.2644 254.237 61.4619 255.231C61.6595 256.224 61.5581 257.253 61.1706 258.189C60.7831 259.124 60.1268 259.924 59.2848 260.487C58.4429 261.049 57.453 261.349 56.4403 261.349C55.7676 261.351 55.1012 261.219 54.4794 260.962C53.8576 260.705 53.2927 260.328 52.817 259.853C52.3413 259.377 51.9642 258.812 51.7074 258.19C51.4505 257.568 51.319 256.902 51.3203 256.229Z" fill="#051616"/>
<path d="M74.4 252.579C73.4978 248.598 71.2689 245.041 68.079 242.493C64.889 239.945 60.9277 238.557 56.845 238.557C52.7624 238.557 48.801 239.945 45.6111 242.493C42.4212 245.041 40.1922 248.598 39.29 252.579H32.29C33.92 241.039 44.29 232.109 56.8 232.109C69.31 232.109 79.73 240.999 81.36 252.579H74.4Z" fill="#1C4A45" stroke="#0F2C2A" stroke-width="0.6" stroke-miterlimit="10"/>
</g>
<defs>
<clipPath id="clip0_2251_79404">
<rect width="547.93" height="311.45" fill="white"/>
</clipPath>
</defs>
</svg>
