<svg width="28" height="28" viewBox="0 0 28 28" fill="none" xmlns="http://www.w3.org/2000/svg">
<path d="M15.6423 14.0001L15.9967 13.6462L26.4964 3.16318L15.6423 14.0001ZM15.6423 14.0001L15.9967 14.3539M15.6423 14.0001L15.9967 14.3539M15.9967 14.3539L26.4967 24.8372L26.4979 24.8384C26.6072 24.9469 26.694 25.0759 26.7533 25.2181C26.8125 25.3602 26.843 25.5127 26.843 25.6667C26.843 25.8207 26.8125 25.9732 26.7533 26.1154C26.694 26.2576 26.6072 26.3866 26.4979 26.4951L26.495 26.498C26.3865 26.6073 26.2575 26.6941 26.1153 26.7533C25.9732 26.8126 25.8207 26.8431 25.6666 26.8431C25.5126 26.8431 25.3601 26.8126 25.218 26.7533C25.0758 26.6941 24.9468 26.6073 24.8383 26.498L24.8372 26.4968L14.3538 15.9968L14 15.6424L13.6461 15.9968L3.16281 26.4968L3.16164 26.498C3.05319 26.6073 2.92415 26.6941 2.78199 26.7533C2.63982 26.8126 2.48733 26.8431 2.33331 26.8431C2.1793 26.8431 2.02681 26.8126 1.88464 26.7533C1.74247 26.6941 1.61344 26.6073 1.50498 26.498L1.50208 26.4951C1.39273 26.3866 1.30594 26.2576 1.24671 26.1154C1.18748 25.9732 1.15698 25.8207 1.15698 25.6667C1.15698 25.5127 1.18748 25.3602 1.24671 25.2181C1.30594 25.0759 1.39273 24.9469 1.50208 24.8384L1.50325 24.8372L12.0033 14.3539L12.3576 14.0001L12.0033 13.6462L1.50353 3.16318C1.5035 3.16315 1.50347 3.16312 1.50345 3.16309C1.28343 2.94303 1.15983 2.64459 1.15983 2.3334C1.15983 2.02217 1.28346 1.72369 1.50353 1.50362C1.7236 1.28355 2.02208 1.15991 2.33331 1.15991C2.64448 1.15991 2.94291 1.2835 3.16297 1.5035C3.16301 1.50354 3.16305 1.50358 3.16309 1.50362L13.6461 12.0033L14 12.3577M15.9967 14.3539L14 12.3577M14 12.3577L14.3538 12.0033M14 12.3577L14.3538 12.0033M14.3538 12.0033L24.8369 1.50362C24.8369 1.50358 24.837 1.50354 24.837 1.5035C25.0571 1.2835 25.3555 1.15991 25.6666 1.15991C25.9779 1.15991 26.2764 1.28355 26.4964 1.50362C26.7165 1.72369 26.8401 2.02217 26.8401 2.3334C26.8401 2.64449 26.7166 2.94285 26.4967 3.1629L14.3538 12.0033Z" fill="#367AFE" stroke="#367AFE"/>
</svg>
