<svg width="270" height="270" viewBox="0 0 270 270" fill="none" xmlns="http://www.w3.org/2000/svg">
<rect width="270" height="270" fill="#E6E6E6"/>
<path d="M96.072 140V132.08H98.232V140H96.072ZM95.768 129.2C95.768 128.432 96.376 127.856 97.144 127.856C97.912 127.856 98.536 128.432 98.536 129.2C98.536 129.952 97.912 130.528 97.144 130.528C96.376 130.528 95.768 129.952 95.768 129.2ZM100.369 140V128H102.529V140H100.369ZM104.666 140V128H106.826V140H104.666ZM108.883 136.512V132.08H111.043V136.688C111.043 137.6 111.667 138.208 112.547 138.208C113.379 138.208 114.019 137.6 114.019 136.688V132.08H116.179V136.512C116.179 138.72 114.611 140.192 112.547 140.192C110.435 140.192 108.883 138.72 108.883 136.512ZM117.524 138.656L118.612 137.344C119.3 138.064 120.052 138.416 120.836 138.416C121.412 138.416 121.844 138.192 121.844 137.76C121.844 137.424 121.62 137.296 121.028 137.04L120.18 136.688C118.724 136.096 118.02 135.44 118.02 134.272C118.02 132.784 119.204 131.904 120.932 131.904C122.116 131.904 123.06 132.304 123.78 133.088L122.692 134.416C122.164 133.92 121.572 133.664 120.916 133.664C120.388 133.664 120.068 133.856 120.068 134.224C120.068 134.528 120.276 134.672 120.9 134.928L121.668 135.248C123.204 135.872 123.892 136.496 123.892 137.664C123.892 138.448 123.604 139.072 123.012 139.52C122.436 139.968 121.7 140.192 120.804 140.192C119.412 140.192 118.244 139.616 117.524 138.656ZM130.613 138.192V140C130.101 140.128 129.605 140.192 129.125 140.192C127.125 140.192 125.957 139.2 125.957 137.216V133.904H124.709V132.08H125.957V130.08H128.117V132.08H130.357V133.904H128.117V137.024C128.117 137.92 128.565 138.256 129.589 138.256C129.717 138.256 130.053 138.24 130.613 138.192ZM137.045 132.08V133.984H136.469C135.173 133.984 134.341 134.688 134.341 136.048V140H132.181V132.08H134.165V133.024C134.693 132.368 135.461 131.984 136.341 131.984C136.613 131.984 136.837 132.016 137.045 132.08ZM144.868 135.296V140H142.884V139.232C142.308 139.824 141.476 140.192 140.468 140.192C138.788 140.192 137.732 139.216 137.732 137.824C137.732 136.4 138.884 135.52 140.724 135.52H142.708V135.168C142.708 134.288 142.196 133.776 141.236 133.776C140.42 133.776 139.844 134.112 139.14 134.864L138.02 133.536C138.932 132.448 140.084 131.904 141.476 131.904C143.54 131.904 144.868 133.104 144.868 135.296ZM142.708 137.04V136.944H141.012C140.308 136.944 139.908 137.216 139.908 137.744C139.908 138.272 140.356 138.608 141.044 138.608C141.988 138.608 142.708 137.952 142.708 137.04ZM152.035 138.192V140C151.523 140.128 151.027 140.192 150.547 140.192C148.547 140.192 147.379 139.2 147.379 137.216V133.904H146.131V132.08H147.379V130.08H149.539V132.08H151.779V133.904H149.539V137.024C149.539 137.92 149.987 138.256 151.011 138.256C151.139 138.256 151.475 138.24 152.035 138.192ZM153.603 140V132.08H155.763V140H153.603ZM153.299 129.2C153.299 128.432 153.907 127.856 154.675 127.856C155.443 127.856 156.067 128.432 156.067 129.2C156.067 129.952 155.443 130.528 154.675 130.528C153.907 130.528 153.299 129.952 153.299 129.2ZM157.452 136.032C157.404 133.776 159.372 131.856 161.692 131.904C164.012 131.872 165.996 133.776 165.948 136.032C165.996 138.288 163.996 140.224 161.676 140.176C159.356 140.224 157.404 138.288 157.452 136.032ZM163.74 136.048C163.74 134.816 162.86 133.872 161.692 133.872C160.492 133.872 159.644 134.784 159.644 136.048C159.644 137.28 160.492 138.192 161.692 138.192C162.86 138.192 163.74 137.28 163.74 136.048ZM174.915 135.088V140H172.771V135.376C172.771 134.464 172.179 133.84 171.299 133.84C170.419 133.84 169.795 134.464 169.795 135.376V140H167.635V132.08H169.619V132.8C170.179 132.24 170.995 131.904 171.939 131.904C173.779 131.904 174.915 133.168 174.915 135.088Z" fill="black"/>
</svg>
