<svg width="688" height="569" viewBox="0 0 688 569" fill="none" xmlns="http://www.w3.org/2000/svg">
    <g clip-path="url(#clip0_1529_66452)">
    <rect width="688" height="569" rx="8" fill="white"/>
    <path opacity="0.4" d="M195.416 70V48.88H209.304V52.784H199.736V58.064H207.576V61.968H199.736V70H195.416ZM224.721 60.592V70H220.753V68.464C219.601 69.648 217.937 70.384 215.921 70.384C212.561 70.384 210.449 68.432 210.449 65.648C210.449 62.8 212.753 61.04 216.433 61.04H220.401V60.336C220.401 58.576 219.377 57.552 217.457 57.552C215.825 57.552 214.673 58.224 213.265 59.728L211.025 57.072C212.849 54.896 215.153 53.808 217.937 53.808C222.065 53.808 224.721 56.208 224.721 60.592ZM220.401 64.08V63.888H217.009C215.601 63.888 214.801 64.432 214.801 65.488C214.801 66.544 215.697 67.216 217.073 67.216C218.961 67.216 220.401 65.904 220.401 64.08ZM238.606 54.16V57.968H237.454C234.862 57.968 233.198 59.376 233.198 62.096V70H228.878V54.16H232.846V56.048C233.902 54.736 235.438 53.968 237.198 53.968C237.742 53.968 238.19 54.032 238.606 54.16ZM265.701 60.176V70H261.381V60.784C261.381 58.896 260.261 57.712 258.565 57.712C256.869 57.712 255.653 58.928 255.653 60.688V70H251.333V60.784C251.333 58.896 250.213 57.712 248.517 57.712C246.757 57.712 245.605 58.896 245.605 60.784V70H241.285V54.16H245.253V55.568C246.309 54.448 247.909 53.808 249.733 53.808C251.813 53.808 253.381 54.576 254.437 56.08C255.685 54.672 257.541 53.808 259.717 53.808C263.429 53.808 265.701 56.336 265.701 60.176ZM279.073 70V48.88H287.009C291.425 48.88 294.625 51.632 294.625 55.696C294.625 59.728 291.425 62.544 287.009 62.544H283.393V70H279.073ZM283.393 58.768H287.009C289.025 58.768 290.209 57.52 290.209 55.696C290.209 53.904 288.961 52.688 287.009 52.688H283.393V58.768ZM297.785 70V46H302.105V70H297.785ZM319.658 60.592V70H315.69V68.464C314.538 69.648 312.874 70.384 310.858 70.384C307.498 70.384 305.386 68.432 305.386 65.648C305.386 62.8 307.69 61.04 311.37 61.04H315.338V60.336C315.338 58.576 314.314 57.552 312.394 57.552C310.762 57.552 309.61 58.224 308.202 59.728L305.962 57.072C307.786 54.896 310.09 53.808 312.874 53.808C317.002 53.808 319.658 56.208 319.658 60.592ZM315.338 64.08V63.888H311.946C310.538 63.888 309.738 64.432 309.738 65.488C309.738 66.544 310.634 67.216 312.01 67.216C313.898 67.216 315.338 65.904 315.338 64.08ZM338.376 60.176V70H334.088V60.752C334.088 58.928 332.904 57.68 331.144 57.68C329.384 57.68 328.136 58.928 328.136 60.752V70H323.816V54.16H327.784V55.6C328.904 54.48 330.536 53.808 332.424 53.808C336.104 53.808 338.376 56.336 338.376 60.176ZM351.791 70V48.88H365.999V52.784H356.111V57.072H363.375V60.752H356.111V66.096H366.383V70H351.791ZM368.407 67.312L370.583 64.688C371.959 66.128 373.463 66.832 375.031 66.832C376.183 66.832 377.047 66.384 377.047 65.52C377.047 64.848 376.599 64.592 375.415 64.08L373.719 63.376C370.807 62.192 369.399 60.88 369.399 58.544C369.399 55.568 371.767 53.808 375.223 53.808C377.591 53.808 379.479 54.608 380.919 56.176L378.743 58.832C377.687 57.84 376.503 57.328 375.191 57.328C374.135 57.328 373.495 57.712 373.495 58.448C373.495 59.056 373.911 59.344 375.159 59.856L376.695 60.496C379.767 61.744 381.143 62.992 381.143 65.328C381.143 66.896 380.567 68.144 379.383 69.04C378.231 69.936 376.759 70.384 374.967 70.384C372.183 70.384 369.847 69.232 368.407 67.312ZM394.586 66.384V70C393.562 70.256 392.57 70.384 391.61 70.384C387.61 70.384 385.274 68.4 385.274 64.432V57.808H382.778V54.16H385.274V50.16H389.594V54.16H394.074V57.808H389.594V64.048C389.594 65.84 390.49 66.512 392.538 66.512C392.794 66.512 393.466 66.48 394.586 66.384ZM397.722 70V54.16H402.042V70H397.722ZM397.114 48.4C397.114 46.864 398.33 45.712 399.866 45.712C401.402 45.712 402.65 46.864 402.65 48.4C402.65 49.904 401.402 51.056 399.866 51.056C398.33 51.056 397.114 49.904 397.114 48.4ZM430.732 60.176V70H426.412V60.784C426.412 58.896 425.292 57.712 423.596 57.712C421.9 57.712 420.684 58.928 420.684 60.688V70H416.364V60.784C416.364 58.896 415.244 57.712 413.548 57.712C411.788 57.712 410.636 58.896 410.636 60.784V70H406.316V54.16H410.284V55.568C411.34 54.448 412.94 53.808 414.764 53.808C416.844 53.808 418.412 54.576 419.468 56.08C420.716 54.672 422.572 53.808 424.748 53.808C428.46 53.808 430.732 56.336 430.732 60.176ZM448.127 60.592V70H444.159V68.464C443.007 69.648 441.343 70.384 439.327 70.384C435.967 70.384 433.855 68.432 433.855 65.648C433.855 62.8 436.159 61.04 439.839 61.04H443.807V60.336C443.807 58.576 442.783 57.552 440.863 57.552C439.231 57.552 438.079 58.224 436.671 59.728L434.431 57.072C436.255 54.896 438.559 53.808 441.343 53.808C445.471 53.808 448.127 56.208 448.127 60.592ZM443.807 64.08V63.888H440.415C439.007 63.888 438.207 64.432 438.207 65.488C438.207 66.544 439.103 67.216 440.479 67.216C442.367 67.216 443.807 65.904 443.807 64.08ZM462.461 66.384V70C461.437 70.256 460.445 70.384 459.485 70.384C455.485 70.384 453.149 68.4 453.149 64.432V57.808H450.653V54.16H453.149V50.16H457.469V54.16H461.949V57.808H457.469V64.048C457.469 65.84 458.365 66.512 460.413 66.512C460.669 66.512 461.341 66.48 462.461 66.384ZM464.389 62.064C464.293 57.552 468.229 53.712 472.869 53.808C477.509 53.744 481.477 57.552 481.381 62.064C481.477 66.576 477.477 70.448 472.837 70.352C468.197 70.448 464.293 66.576 464.389 62.064ZM476.965 62.096C476.965 59.632 475.205 57.744 472.869 57.744C470.469 57.744 468.773 59.568 468.773 62.096C468.773 64.56 470.469 66.384 472.869 66.384C475.205 66.384 476.965 64.56 476.965 62.096ZM494.481 54.16V57.968H493.329C490.737 57.968 489.073 59.376 489.073 62.096V70H484.753V54.16H488.721V56.048C489.777 54.736 491.313 53.968 493.073 53.968C493.617 53.968 494.065 54.032 494.481 54.16Z" fill="#1D1D1F"/>
    <g style="mix-blend-mode:luminosity">
    <path d="M40.48 126.856L41.968 125.736C42.656 126.68 43.408 127.272 44.56 127.272C45.504 127.272 46.064 126.824 46.064 126.104C46.064 125.48 45.728 125.256 44.72 124.792L43.584 124.28C41.968 123.56 41.024 122.648 41.024 121.24C41.024 119.432 42.528 118.248 44.528 118.248C46.144 118.248 47.36 119.032 48.016 120.248L46.544 121.384C46 120.568 45.328 120.168 44.528 120.168C43.776 120.168 43.216 120.536 43.216 121.192C43.216 121.752 43.552 122.008 44.448 122.408L45.648 122.936C47.424 123.72 48.256 124.6 48.256 126.024C48.256 127.96 46.672 129.192 44.56 129.192C42.768 129.192 41.296 128.28 40.48 126.856ZM57.2895 125.768H51.7375C51.9935 126.776 52.8095 127.336 53.9615 127.336C54.7455 127.336 55.4815 127.064 56.1695 126.536L57.0655 128.008C56.1215 128.792 55.0655 129.192 53.8975 129.192C51.4495 129.24 49.5135 127.336 49.5615 125.048C49.5135 122.76 51.4175 120.856 53.7055 120.904C55.8975 120.904 57.4335 122.52 57.4335 124.584C57.4335 124.968 57.3855 125.368 57.2895 125.768ZM51.7375 124.248H55.3375C55.3215 123.272 54.5695 122.648 53.6255 122.648C52.7135 122.648 51.9775 123.272 51.7375 124.248ZM59.1189 129V117H61.2789V129H59.1189ZM70.6958 125.768H65.1438C65.3998 126.776 66.2158 127.336 67.3678 127.336C68.1518 127.336 68.8878 127.064 69.5758 126.536L70.4718 128.008C69.5278 128.792 68.4718 129.192 67.3038 129.192C64.8558 129.24 62.9198 127.336 62.9678 125.048C62.9198 122.76 64.8238 120.856 67.1118 120.904C69.3038 120.904 70.8398 122.52 70.8398 124.584C70.8398 124.968 70.7917 125.368 70.6958 125.768ZM65.1438 124.248H68.7438C68.7278 123.272 67.9758 122.648 67.0318 122.648C66.1198 122.648 65.3838 123.272 65.1438 124.248ZM72.0771 125.032C72.0771 122.712 73.9651 120.904 76.3171 120.904C77.8691 120.904 79.0691 121.64 79.7571 122.856L78.2531 124.024C77.7571 123.304 77.1811 122.872 76.3491 122.872C75.1331 122.872 74.2691 123.8 74.2691 125.032C74.2691 126.296 75.1331 127.208 76.3491 127.208C77.1651 127.208 77.7411 126.792 78.2531 126.072L79.7571 127.224C79.0691 128.44 77.8531 129.192 76.3171 129.192C73.9971 129.24 72.0451 127.32 72.0771 125.032ZM86.4413 127.192V129C85.9293 129.128 85.4333 129.192 84.9533 129.192C82.9533 129.192 81.7853 128.2 81.7853 126.216V122.904H80.5373V121.08H81.7853V119.08H83.9453V121.08H86.1853V122.904H83.9453V126.024C83.9453 126.92 84.3932 127.256 85.4173 127.256C85.5453 127.256 85.8813 127.24 86.4413 127.192ZM92.0459 125.032C92.0459 122.712 93.9339 120.904 96.2859 120.904C97.8379 120.904 99.0379 121.64 99.7259 122.856L98.2219 124.024C97.7259 123.304 97.1499 122.872 96.3179 122.872C95.1019 122.872 94.2379 123.8 94.2379 125.032C94.2379 126.296 95.1019 127.208 96.3179 127.208C97.1339 127.208 97.7099 126.792 98.2219 126.072L99.7259 127.224C99.0379 128.44 97.8219 129.192 96.2859 129.192C93.9659 129.24 92.0139 127.32 92.0459 125.032ZM106.186 121.08V122.984H105.61C104.314 122.984 103.482 123.688 103.482 125.048V129H101.322V121.08H103.306V122.024C103.834 121.368 104.602 120.984 105.482 120.984C105.754 120.984 105.978 121.016 106.186 121.08ZM106.921 125.032C106.873 122.776 108.841 120.856 111.161 120.904C113.481 120.872 115.465 122.776 115.417 125.032C115.465 127.288 113.465 129.224 111.145 129.176C108.825 129.224 106.873 127.288 106.921 125.032ZM113.209 125.048C113.209 123.816 112.329 122.872 111.161 122.872C109.961 122.872 109.113 123.784 109.113 125.048C109.113 126.28 109.961 127.192 111.161 127.192C112.329 127.192 113.209 126.28 113.209 125.048ZM125.471 125.032C125.471 127.4 123.839 129.192 121.631 129.192C120.671 129.192 119.839 128.856 119.263 128.232V131.88H117.103V121.08H119.087V122.072C119.615 121.32 120.543 120.904 121.631 120.904C123.839 120.904 125.471 122.664 125.471 125.032ZM123.279 125.048C123.279 123.72 122.399 122.856 121.231 122.856C120.143 122.856 119.231 123.608 119.231 125.032C119.231 126.44 120.127 127.224 121.231 127.224C122.383 127.224 123.279 126.344 123.279 125.048ZM136.738 127.192V129C136.226 129.128 135.73 129.192 135.25 129.192C133.25 129.192 132.082 128.2 132.082 126.216V122.904H130.834V121.08H132.082V119.08H134.242V121.08H136.482V122.904H134.242V126.024C134.242 126.92 134.69 127.256 135.714 127.256C135.842 127.256 136.178 127.24 136.738 127.192ZM137.702 125.032C137.654 122.776 139.622 120.856 141.942 120.904C144.262 120.872 146.246 122.776 146.198 125.032C146.246 127.288 144.246 129.224 141.926 129.176C139.606 129.224 137.654 127.288 137.702 125.032ZM143.99 125.048C143.99 123.816 143.11 122.872 141.942 122.872C140.742 122.872 139.894 123.784 139.894 125.048C139.894 126.28 140.742 127.192 141.942 127.192C143.11 127.192 143.99 126.28 143.99 125.048ZM154.897 119.976V121.08H156.641V122.904H154.897V129H152.737V122.904H151.617V121.08H152.737V119.784C152.737 117.8 153.889 116.808 155.793 116.808C156.209 116.808 156.609 116.872 156.977 116.984V118.792C156.737 118.76 156.529 118.744 156.337 118.744C155.361 118.744 154.897 119.08 154.897 119.976ZM164.478 124.296V129H162.494V128.232C161.918 128.824 161.086 129.192 160.078 129.192C158.398 129.192 157.342 128.216 157.342 126.824C157.342 125.4 158.494 124.52 160.334 124.52H162.318V124.168C162.318 123.288 161.806 122.776 160.846 122.776C160.03 122.776 159.454 123.112 158.75 123.864L157.63 122.536C158.542 121.448 159.694 120.904 161.086 120.904C163.15 120.904 164.478 122.104 164.478 124.296ZM162.318 126.04V125.944H160.622C159.918 125.944 159.518 126.216 159.518 126.744C159.518 127.272 159.966 127.608 160.654 127.608C161.598 127.608 162.318 126.952 162.318 126.04ZM171.42 121.08V122.984H170.844C169.548 122.984 168.716 123.688 168.716 125.048V129H166.556V121.08H168.54V122.024C169.068 121.368 169.836 120.984 170.716 120.984C170.988 120.984 171.212 121.016 171.42 121.08ZM184.968 124.088V129H182.808V124.392C182.808 123.448 182.248 122.856 181.4 122.856C180.552 122.856 179.944 123.464 179.944 124.344V129H177.784V124.392C177.784 123.448 177.224 122.856 176.376 122.856C175.496 122.856 174.92 123.448 174.92 124.392V129H172.76V121.08H174.744V121.784C175.272 121.224 176.072 120.904 176.984 120.904C178.024 120.904 178.808 121.288 179.336 122.04C179.96 121.336 180.888 120.904 181.976 120.904C183.832 120.904 184.968 122.168 184.968 124.088Z" fill="#6C6C6C"/>
    <rect x="40" y="140" width="608" height="56" rx="8" fill="#EFEFEF"/>
    <path d="M56.656 170.904L57.584 170.216C58.368 171.416 59.36 172.024 60.528 172.024C61.792 172.024 62.656 171.336 62.656 170.264C62.656 169.304 62.08 168.984 60.896 168.408L59.712 167.848C58.256 167.16 57.328 166.424 57.328 165.016C57.328 163.368 58.784 162.264 60.512 162.264C61.92 162.264 63.136 162.984 63.824 164.056L62.912 164.744C62.336 163.896 61.456 163.416 60.496 163.416C59.456 163.416 58.624 163.976 58.624 164.952C58.624 165.256 58.688 165.512 58.832 165.72C59.104 166.12 59.488 166.328 60.32 166.728L61.488 167.288C63.152 168.104 63.952 168.872 63.952 170.232C63.952 171.976 62.512 173.176 60.544 173.176C58.896 173.176 57.488 172.312 56.656 170.904ZM73.1619 169.48H67.0019C67.1459 171.016 68.3299 172.04 69.8659 172.04C70.7459 172.04 71.5459 171.688 72.2499 170.984L72.9699 171.816C72.1539 172.664 71.0819 173.176 69.8499 173.176C67.5299 173.176 65.7219 171.4 65.7219 169.112C65.7219 166.856 67.4819 165.032 69.7059 165.032C71.7219 165.032 73.2579 166.488 73.2579 168.552C73.2579 168.856 73.2259 169.16 73.1619 169.48ZM67.0499 168.392H71.9939C71.9779 167 70.9699 166.152 69.6739 166.152C68.3779 166.152 67.3219 167.048 67.0499 168.392ZM75.4225 173V161H76.6545V173H75.4225ZM86.24 169.48H80.08C80.224 171.016 81.408 172.04 82.944 172.04C83.824 172.04 84.624 171.688 85.328 170.984L86.048 171.816C85.232 172.664 84.16 173.176 82.928 173.176C80.608 173.176 78.8 171.4 78.8 169.112C78.8 166.856 80.56 165.032 82.784 165.032C84.8 165.032 86.336 166.488 86.336 168.552C86.336 168.856 86.304 169.16 86.24 169.48ZM80.128 168.392H85.072C85.056 167 84.048 166.152 82.752 166.152C81.456 166.152 80.4 167.048 80.128 168.392ZM87.9406 169.096C87.8926 166.872 89.7966 165 92.0206 165.032C93.3806 165.032 94.5326 165.688 95.2366 166.728L94.3566 167.432C93.7326 166.584 92.9486 166.168 92.0366 166.168C90.4206 166.168 89.2046 167.48 89.2046 169.096C89.2046 170.728 90.4206 172.04 92.0366 172.04C92.9486 172.04 93.7166 171.624 94.3406 170.792L95.2206 171.48C94.5166 172.52 93.3806 173.176 92.0206 173.176C89.7646 173.176 87.9406 171.352 87.9406 169.096ZM101.569 171.96V173C101.073 173.112 100.641 173.176 100.273 173.176C98.6571 173.176 97.6491 172.36 97.6491 170.648V166.312H96.3371V165.208H97.6491V163.08H98.8811V165.208H101.313V166.312H98.8811V170.568C98.8811 171.672 99.4571 172.056 100.529 172.056C100.833 172.056 101.169 172.024 101.569 171.96ZM113.731 168.2V173H112.579V171.992C112.003 172.76 111.091 173.176 109.955 173.176C108.355 173.176 107.235 172.328 107.235 170.984C107.235 169.656 108.355 168.808 110.035 168.808H112.499V168.136C112.499 166.856 111.779 166.168 110.611 166.168C109.667 166.168 108.979 166.584 108.339 167.416L107.523 166.744C108.227 165.592 109.395 165.032 110.691 165.032C112.531 165.032 113.731 166.152 113.731 168.2ZM112.499 170.008V169.816H110.179C109.091 169.816 108.499 170.2 108.499 170.92C108.499 171.704 109.203 172.152 110.115 172.152C111.395 172.152 112.499 171.208 112.499 170.008ZM120.269 169.096C120.221 166.872 122.125 165 124.349 165.032C125.709 165.032 126.861 165.688 127.565 166.728L126.685 167.432C126.061 166.584 125.277 166.168 124.365 166.168C122.749 166.168 121.533 167.48 121.533 169.096C121.533 170.728 122.749 172.04 124.365 172.04C125.277 172.04 126.045 171.624 126.669 170.792L127.549 171.48C126.845 172.52 125.709 173.176 124.349 173.176C122.093 173.176 120.269 171.352 120.269 169.096ZM133.785 165.208V166.296H133.321C132.009 166.296 130.873 167.144 130.873 168.584V173H129.641V165.208H130.793V166.312C131.353 165.56 132.265 165.144 133.209 165.144C133.385 165.144 133.577 165.16 133.785 165.208ZM134.722 169.096C134.674 166.872 136.578 164.984 138.802 165.032C141.026 165 142.93 166.872 142.882 169.096C142.93 171.288 141.01 173.208 138.786 173.16C136.562 173.208 134.69 171.288 134.722 169.096ZM141.618 169.112C141.618 167.432 140.386 166.168 138.802 166.168C137.202 166.168 135.986 167.432 135.986 169.112C135.986 170.744 137.202 172.024 138.786 172.024C140.37 172.024 141.618 170.744 141.618 169.112ZM153 169.096C153 171.384 151.336 173.176 149.144 173.176C147.992 173.176 146.92 172.696 146.28 171.88V175.88H145.048V165.208H146.2V166.456C146.792 165.56 147.928 165.032 149.144 165.032C151.368 165.032 153 166.808 153 169.096ZM151.736 169.112C151.736 167.432 150.552 166.168 148.968 166.168C147.576 166.168 146.264 167.128 146.264 169.096C146.264 171.08 147.528 172.04 148.968 172.04C150.552 172.04 151.736 170.792 151.736 169.112Z" fill="#1D1D1F"/>
    <path fill-rule="evenodd" clip-rule="evenodd" d="M617.293 164.293C617.683 163.902 618.317 163.902 618.707 164.293L624 169.586L629.293 164.293C629.683 163.902 630.317 163.902 630.707 164.293C631.098 164.683 631.098 165.317 630.707 165.707L624.707 171.707C624.317 172.098 623.683 172.098 623.293 171.707L617.293 165.707C616.902 165.317 616.902 164.683 617.293 164.293Z" fill="#6C6C6C"/>
    <path d="M41.216 237V226.44H48.32V228.392H43.376V230.536H47.008V232.376H43.376V235.048H48.512V237H41.216ZM57.5239 232.088V237H55.3799V232.376C55.3799 231.464 54.7879 230.84 53.9079 230.84C53.0279 230.84 52.4039 231.464 52.4039 232.376V237H50.2439V229.08H52.2279V229.8C52.7879 229.24 53.6039 228.904 54.5479 228.904C56.3879 228.904 57.5239 230.168 57.5239 232.088ZM64.6913 235.192V237C64.1793 237.128 63.6833 237.192 63.2033 237.192C61.2033 237.192 60.0353 236.2 60.0353 234.216V230.904H58.7873V229.08H60.0353V227.08H62.1953V229.08H64.4353V230.904H62.1953V234.024C62.1953 234.92 62.6432 235.256 63.6673 235.256C63.7953 235.256 64.1313 235.24 64.6913 235.192ZM73.3833 233.768H67.8313C68.0873 234.776 68.9033 235.336 70.0553 235.336C70.8393 235.336 71.5753 235.064 72.2633 234.536L73.1593 236.008C72.2153 236.792 71.1593 237.192 69.9913 237.192C67.5433 237.24 65.6073 235.336 65.6553 233.048C65.6073 230.76 67.5113 228.856 69.7993 228.904C71.9913 228.904 73.5273 230.52 73.5273 232.584C73.5273 232.968 73.4792 233.368 73.3833 233.768ZM67.8313 232.248H71.4313C71.4153 231.272 70.6633 230.648 69.7193 230.648C68.8073 230.648 68.0713 231.272 67.8313 232.248ZM80.0766 229.08V230.984H79.5006C78.2046 230.984 77.3726 231.688 77.3726 233.048V237H75.2126V229.08H77.1966V230.024C77.7246 229.368 78.4926 228.984 79.3726 228.984C79.6446 228.984 79.8686 229.016 80.0766 229.08ZM85.9001 237V225H88.0601V237H85.9001ZM96.837 232.296V237H94.853V236.232C94.277 236.824 93.445 237.192 92.437 237.192C90.757 237.192 89.701 236.216 89.701 234.824C89.701 233.4 90.853 232.52 92.693 232.52H94.677V232.168C94.677 231.288 94.165 230.776 93.205 230.776C92.389 230.776 91.813 231.112 91.109 231.864L89.989 230.536C90.901 229.448 92.053 228.904 93.445 228.904C95.509 228.904 96.837 230.104 96.837 232.296ZM94.677 234.04V233.944H92.981C92.277 233.944 91.877 234.216 91.877 234.744C91.877 235.272 92.325 235.608 93.013 235.608C93.957 235.608 94.677 234.952 94.677 234.04ZM106.196 232.088V237H104.052V232.376C104.052 231.464 103.46 230.84 102.58 230.84C101.7 230.84 101.076 231.464 101.076 232.376V237H98.9158V229.08H100.9V229.8C101.46 229.24 102.276 228.904 103.22 228.904C105.06 228.904 106.196 230.168 106.196 232.088ZM114.035 225H116.195V237H114.211V236.024C113.683 236.776 112.755 237.192 111.667 237.192C109.459 237.192 107.827 235.432 107.827 233.048C107.827 230.664 109.459 228.904 111.667 228.904C112.675 228.904 113.459 229.224 114.035 229.848V225ZM114.067 233.048C114.067 231.64 113.155 230.856 112.067 230.856C110.915 230.856 110.019 231.736 110.019 233.032C110.019 234.36 110.899 235.224 112.067 235.224C113.155 235.224 114.067 234.472 114.067 233.048ZM122.102 235.656L123.19 234.344C123.878 235.064 124.63 235.416 125.414 235.416C125.99 235.416 126.422 235.192 126.422 234.76C126.422 234.424 126.198 234.296 125.606 234.04L124.758 233.688C123.302 233.096 122.598 232.44 122.598 231.272C122.598 229.784 123.782 228.904 125.51 228.904C126.694 228.904 127.638 229.304 128.358 230.088L127.27 231.416C126.742 230.92 126.15 230.664 125.494 230.664C124.966 230.664 124.646 230.856 124.646 231.224C124.646 231.528 124.854 231.672 125.478 231.928L126.246 232.248C127.782 232.872 128.47 233.496 128.47 234.664C128.47 235.448 128.182 236.072 127.59 236.52C127.014 236.968 126.278 237.192 125.382 237.192C123.99 237.192 122.822 236.616 122.102 235.656ZM130.103 237V229.08H132.263V237H130.103ZM129.799 226.2C129.799 225.432 130.407 224.856 131.175 224.856C131.943 224.856 132.567 225.432 132.567 226.2C132.567 226.952 131.943 227.528 131.175 227.528C130.407 227.528 129.799 226.952 129.799 226.2ZM136.768 235.176H140.56V237H133.6V236.424L137.392 230.904H133.968V229.08H140.528V229.656L136.768 235.176ZM149.165 233.768H143.613C143.869 234.776 144.685 235.336 145.837 235.336C146.621 235.336 147.357 235.064 148.045 234.536L148.941 236.008C147.997 236.792 146.941 237.192 145.773 237.192C143.325 237.24 141.389 235.336 141.437 233.048C141.389 230.76 143.293 228.856 145.581 228.904C147.773 228.904 149.309 230.52 149.309 232.584C149.309 232.968 149.26 233.368 149.165 233.768ZM143.613 232.248H147.213C147.197 231.272 146.445 230.648 145.501 230.648C144.589 230.648 143.853 231.272 143.613 232.248ZM155.494 232.152C155.494 228.392 156.934 226.088 158.982 225.176L159.83 226.472C158.358 227.448 157.382 229.128 157.382 232.152C157.382 235.16 158.358 236.84 159.83 237.816L158.982 239.112C156.934 238.2 155.494 235.88 155.494 232.152ZM167.806 232.296V237H165.822V236.232C165.246 236.824 164.414 237.192 163.406 237.192C161.726 237.192 160.67 236.216 160.67 234.824C160.67 233.4 161.822 232.52 163.662 232.52H165.646V232.168C165.646 231.288 165.134 230.776 164.174 230.776C163.358 230.776 162.782 231.112 162.078 231.864L160.958 230.536C161.87 229.448 163.022 228.904 164.414 228.904C166.478 228.904 167.806 230.104 167.806 232.296ZM165.646 234.04V233.944H163.95C163.246 233.944 162.846 234.216 162.846 234.744C162.846 235.272 163.294 235.608 163.982 235.608C164.926 235.608 165.646 234.952 165.646 234.04ZM169.437 233.032C169.437 230.712 171.325 228.904 173.677 228.904C175.229 228.904 176.429 229.64 177.117 230.856L175.613 232.024C175.117 231.304 174.541 230.872 173.709 230.872C172.493 230.872 171.629 231.8 171.629 233.032C171.629 234.296 172.493 235.208 173.709 235.208C174.525 235.208 175.101 234.792 175.613 234.072L177.117 235.224C176.429 236.44 175.213 237.192 173.677 237.192C171.357 237.24 169.405 235.32 169.437 233.032ZM183.577 229.08V230.984H183.001C181.705 230.984 180.873 231.688 180.873 233.048V237H178.713V229.08H180.697V230.024C181.225 229.368 181.993 228.984 182.873 228.984C183.145 228.984 183.369 229.016 183.577 229.08ZM192.04 233.768H186.488C186.744 234.776 187.56 235.336 188.712 235.336C189.496 235.336 190.232 235.064 190.92 234.536L191.816 236.008C190.872 236.792 189.816 237.192 188.648 237.192C186.2 237.24 184.264 235.336 184.312 233.048C184.264 230.76 186.168 228.856 188.456 228.904C190.648 228.904 192.184 230.52 192.184 232.584C192.184 232.968 192.135 233.368 192.04 233.768ZM186.488 232.248H190.088C190.072 231.272 189.32 230.648 188.376 230.648C187.464 230.648 186.728 231.272 186.488 232.248ZM193.149 235.656L194.237 234.344C194.925 235.064 195.677 235.416 196.461 235.416C197.037 235.416 197.469 235.192 197.469 234.76C197.469 234.424 197.245 234.296 196.653 234.04L195.805 233.688C194.349 233.096 193.645 232.44 193.645 231.272C193.645 229.784 194.829 228.904 196.557 228.904C197.741 228.904 198.685 229.304 199.405 230.088L198.317 231.416C197.789 230.92 197.197 230.664 196.541 230.664C196.013 230.664 195.693 230.856 195.693 231.224C195.693 231.528 195.901 231.672 196.525 231.928L197.293 232.248C198.829 232.872 199.517 233.496 199.517 234.664C199.517 235.448 199.229 236.072 198.637 236.52C198.061 236.968 197.325 237.192 196.429 237.192C195.037 237.192 193.869 236.616 193.149 235.656ZM201.202 239.112L200.338 237.816C201.81 236.84 202.802 235.16 202.802 232.152C202.802 229.128 201.826 227.448 200.338 226.472L201.202 225.176C202.21 225.64 203.042 226.44 203.698 227.608C204.354 228.76 204.674 230.28 204.674 232.152C204.674 234.024 204.354 235.528 203.698 236.696C203.042 237.848 202.21 238.648 201.202 239.112Z" fill="#6C6C6C"/>
    <rect x="40" y="248" width="608" height="56" rx="8" fill="#EFEFEF"/>
    <path d="M57.456 281V270.44H64.224V271.56H58.704V274.792H62.928V275.912H58.704V279.88H64.416V281H57.456ZM72.5863 273.208H73.7543V280.248C73.7543 282.616 72.2663 284.056 69.9623 284.056C68.4423 284.056 67.1783 283.432 66.2983 282.552L67.0182 281.688C67.8983 282.456 68.7623 282.92 69.9303 282.92C71.5463 282.92 72.5223 281.992 72.5223 280.312V279.624C71.8983 280.44 70.7943 280.92 69.6263 280.92C67.4343 280.92 65.8023 279.24 65.8023 276.984C65.8023 274.744 67.4343 273.032 69.6263 273.032C70.8583 273.032 71.9943 273.56 72.5863 274.456V273.208ZM72.5383 276.984C72.5383 275.112 71.2263 274.2 69.8183 274.2C68.2343 274.2 67.0503 275.368 67.0503 277C67.0503 278.648 68.2343 279.784 69.8183 279.784C71.2423 279.784 72.5383 278.872 72.5383 276.984ZM76.3258 280.168C76.3258 279.592 76.7738 279.16 77.3338 279.16C77.8938 279.16 78.3418 279.592 78.3418 280.168C78.3418 280.744 77.8938 281.176 77.3338 281.176C76.7738 281.176 76.3258 280.744 76.3258 280.168ZM87.9345 270.44H88.3985V281H87.1505V271.912L84.8465 272.632L84.5425 271.56L87.9345 270.44ZM91.181 275.624C91.181 274.008 91.501 272.712 92.157 271.736C92.813 270.76 93.773 270.264 95.053 270.264C96.333 270.264 97.293 270.76 97.933 271.736C98.589 272.712 98.909 274.008 98.909 275.624C98.909 277.24 98.589 278.584 97.949 279.624C97.309 280.664 96.349 281.176 95.053 281.176C93.757 281.176 92.797 280.664 92.141 279.624C91.501 278.584 91.181 277.24 91.181 275.624ZM97.613 275.64C97.613 273 96.845 271.416 95.053 271.416C93.261 271.416 92.477 273 92.477 275.64C92.477 278.328 93.277 280.024 95.053 280.024C96.829 280.024 97.613 278.328 97.613 275.64Z" fill="#6C6C6C"/>
    <path d="M40.48 342.856L41.968 341.736C42.656 342.68 43.408 343.272 44.56 343.272C45.504 343.272 46.064 342.824 46.064 342.104C46.064 341.48 45.728 341.256 44.72 340.792L43.584 340.28C41.968 339.56 41.024 338.648 41.024 337.24C41.024 335.432 42.528 334.248 44.528 334.248C46.144 334.248 47.36 335.032 48.016 336.248L46.544 337.384C46 336.568 45.328 336.168 44.528 336.168C43.776 336.168 43.216 336.536 43.216 337.192C43.216 337.752 43.552 338.008 44.448 338.408L45.648 338.936C47.424 339.72 48.256 340.6 48.256 342.024C48.256 343.96 46.672 345.192 44.56 345.192C42.768 345.192 41.296 344.28 40.48 342.856ZM57.2895 341.768H51.7375C51.9935 342.776 52.8095 343.336 53.9615 343.336C54.7455 343.336 55.4815 343.064 56.1695 342.536L57.0655 344.008C56.1215 344.792 55.0655 345.192 53.8975 345.192C51.4495 345.24 49.5135 343.336 49.5615 341.048C49.5135 338.76 51.4175 336.856 53.7055 336.904C55.8975 336.904 57.4335 338.52 57.4335 340.584C57.4335 340.968 57.3855 341.368 57.2895 341.768ZM51.7375 340.248H55.3375C55.3215 339.272 54.5695 338.648 53.6255 338.648C52.7135 338.648 51.9775 339.272 51.7375 340.248ZM59.1189 345V333H61.2789V345H59.1189ZM70.6958 341.768H65.1438C65.3998 342.776 66.2158 343.336 67.3678 343.336C68.1518 343.336 68.8878 343.064 69.5758 342.536L70.4718 344.008C69.5278 344.792 68.4718 345.192 67.3038 345.192C64.8558 345.24 62.9198 343.336 62.9678 341.048C62.9198 338.76 64.8238 336.856 67.1118 336.904C69.3038 336.904 70.8398 338.52 70.8398 340.584C70.8398 340.968 70.7917 341.368 70.6958 341.768ZM65.1438 340.248H68.7438C68.7278 339.272 67.9758 338.648 67.0318 338.648C66.1198 338.648 65.3838 339.272 65.1438 340.248ZM72.0771 341.032C72.0771 338.712 73.9651 336.904 76.3171 336.904C77.8691 336.904 79.0691 337.64 79.7571 338.856L78.2531 340.024C77.7571 339.304 77.1811 338.872 76.3491 338.872C75.1331 338.872 74.2691 339.8 74.2691 341.032C74.2691 342.296 75.1331 343.208 76.3491 343.208C77.1651 343.208 77.7411 342.792 78.2531 342.072L79.7571 343.224C79.0691 344.44 77.8531 345.192 76.3171 345.192C73.9971 345.24 72.0451 343.32 72.0771 341.032ZM86.4413 343.192V345C85.9293 345.128 85.4333 345.192 84.9533 345.192C82.9533 345.192 81.7853 344.2 81.7853 342.216V338.904H80.5373V337.08H81.7853V335.08H83.9453V337.08H86.1853V338.904H83.9453V342.024C83.9453 342.92 84.3932 343.256 85.4173 343.256C85.5453 343.256 85.8813 343.24 86.4413 343.192ZM98.2539 333H100.414V345H98.4299V344.024C97.9019 344.776 96.9739 345.192 95.8859 345.192C93.6779 345.192 92.0459 343.432 92.0459 341.048C92.0459 338.664 93.6779 336.904 95.8859 336.904C96.8939 336.904 97.6779 337.224 98.2539 337.848V333ZM98.2859 341.048C98.2859 339.64 97.3739 338.856 96.2859 338.856C95.1339 338.856 94.2379 339.736 94.2379 341.032C94.2379 342.36 95.1179 343.224 96.2859 343.224C97.3739 343.224 98.2859 342.472 98.2859 341.048ZM102.476 341.512V337.08H104.636V341.688C104.636 342.6 105.26 343.208 106.14 343.208C106.972 343.208 107.612 342.6 107.612 341.688V337.08H109.772V341.512C109.772 343.72 108.204 345.192 106.14 345.192C104.028 345.192 102.476 343.72 102.476 341.512ZM116.702 337.08V338.984H116.126C114.83 338.984 113.998 339.688 113.998 341.048V345H111.838V337.08H113.822V338.024C114.35 337.368 115.118 336.984 115.998 336.984C116.27 336.984 116.494 337.016 116.702 337.08ZM124.525 340.296V345H122.541V344.232C121.965 344.824 121.133 345.192 120.125 345.192C118.445 345.192 117.389 344.216 117.389 342.824C117.389 341.4 118.541 340.52 120.381 340.52H122.365V340.168C122.365 339.288 121.853 338.776 120.893 338.776C120.077 338.776 119.501 339.112 118.797 339.864L117.677 338.536C118.589 337.448 119.741 336.904 121.133 336.904C123.197 336.904 124.525 338.104 124.525 340.296ZM122.365 342.04V341.944H120.669C119.965 341.944 119.565 342.216 119.565 342.744C119.565 343.272 120.013 343.608 120.701 343.608C121.645 343.608 122.365 342.952 122.365 342.04ZM131.691 343.192V345C131.179 345.128 130.683 345.192 130.203 345.192C128.203 345.192 127.035 344.2 127.035 342.216V338.904H125.787V337.08H127.035V335.08H129.195V337.08H131.435V338.904H129.195V342.024C129.195 342.92 129.643 343.256 130.667 343.256C130.795 343.256 131.131 343.24 131.691 343.192ZM133.26 345V337.08H135.42V345H133.26ZM132.956 334.2C132.956 333.432 133.564 332.856 134.332 332.856C135.1 332.856 135.724 333.432 135.724 334.2C135.724 334.952 135.1 335.528 134.332 335.528C133.564 335.528 132.956 334.952 132.956 334.2ZM137.108 341.032C137.06 338.776 139.028 336.856 141.348 336.904C143.668 336.872 145.652 338.776 145.604 341.032C145.652 343.288 143.652 345.224 141.332 345.176C139.012 345.224 137.06 343.288 137.108 341.032ZM143.396 341.048C143.396 339.816 142.516 338.872 141.348 338.872C140.148 338.872 139.3 339.784 139.3 341.048C139.3 342.28 140.148 343.192 141.348 343.192C142.516 343.192 143.396 342.28 143.396 341.048ZM154.571 340.088V345H152.427V340.376C152.427 339.464 151.835 338.84 150.955 338.84C150.075 338.84 149.451 339.464 149.451 340.376V345H147.291V337.08H149.275V337.8C149.835 337.24 150.651 336.904 151.595 336.904C153.435 336.904 154.571 338.168 154.571 340.088Z" fill="#6C6C6C"/>
    <rect x="40" y="356" width="608" height="56" rx="8" fill="#EFEFEF"/>
    <path d="M56.656 386.904L57.584 386.216C58.368 387.416 59.36 388.024 60.528 388.024C61.792 388.024 62.656 387.336 62.656 386.264C62.656 385.304 62.08 384.984 60.896 384.408L59.712 383.848C58.256 383.16 57.328 382.424 57.328 381.016C57.328 379.368 58.784 378.264 60.512 378.264C61.92 378.264 63.136 378.984 63.824 380.056L62.912 380.744C62.336 379.896 61.456 379.416 60.496 379.416C59.456 379.416 58.624 379.976 58.624 380.952C58.624 381.256 58.688 381.512 58.832 381.72C59.104 382.12 59.488 382.328 60.32 382.728L61.488 383.288C63.152 384.104 63.952 384.872 63.952 386.232C63.952 387.976 62.512 389.176 60.544 389.176C58.896 389.176 57.488 388.312 56.656 386.904ZM73.1619 385.48H67.0019C67.1459 387.016 68.3299 388.04 69.8659 388.04C70.7459 388.04 71.5459 387.688 72.2499 386.984L72.9699 387.816C72.1539 388.664 71.0819 389.176 69.8499 389.176C67.5299 389.176 65.7219 387.4 65.7219 385.112C65.7219 382.856 67.4819 381.032 69.7059 381.032C71.7219 381.032 73.2579 382.488 73.2579 384.552C73.2579 384.856 73.2259 385.16 73.1619 385.48ZM67.0499 384.392H71.9939C71.9779 383 70.9699 382.152 69.6739 382.152C68.3779 382.152 67.3219 383.048 67.0499 384.392ZM75.4225 389V377H76.6545V389H75.4225ZM86.24 385.48H80.08C80.224 387.016 81.408 388.04 82.944 388.04C83.824 388.04 84.624 387.688 85.328 386.984L86.048 387.816C85.232 388.664 84.16 389.176 82.928 389.176C80.608 389.176 78.8 387.4 78.8 385.112C78.8 382.856 80.56 381.032 82.784 381.032C84.8 381.032 86.336 382.488 86.336 384.552C86.336 384.856 86.304 385.16 86.24 385.48ZM80.128 384.392H85.072C85.056 383 84.048 382.152 82.752 382.152C81.456 382.152 80.4 383.048 80.128 384.392ZM87.9406 385.096C87.8926 382.872 89.7966 381 92.0206 381.032C93.3806 381.032 94.5326 381.688 95.2366 382.728L94.3566 383.432C93.7326 382.584 92.9486 382.168 92.0366 382.168C90.4206 382.168 89.2046 383.48 89.2046 385.096C89.2046 386.728 90.4206 388.04 92.0366 388.04C92.9486 388.04 93.7166 387.624 94.3406 386.792L95.2206 387.48C94.5166 388.52 93.3806 389.176 92.0206 389.176C89.7646 389.176 87.9406 387.352 87.9406 385.096ZM101.569 387.96V389C101.073 389.112 100.641 389.176 100.273 389.176C98.6571 389.176 97.6491 388.36 97.6491 386.648V382.312H96.3371V381.208H97.6491V379.08H98.8811V381.208H101.313V382.312H98.8811V386.568C98.8811 387.672 99.4571 388.056 100.529 388.056C100.833 388.056 101.169 388.024 101.569 387.96ZM114.067 377H115.299V389H114.131V387.768C113.539 388.648 112.403 389.176 111.187 389.176C108.995 389.176 107.331 387.4 107.331 385.112C107.331 382.824 108.995 381.032 111.187 381.032C112.355 381.032 113.443 381.528 114.067 382.36V377ZM114.083 385.112C114.083 383.128 112.771 382.168 111.363 382.168C109.779 382.168 108.595 383.416 108.595 385.096C108.595 386.776 109.779 388.04 111.363 388.04C112.771 388.04 114.083 387.08 114.083 385.112ZM117.905 385.896V381.208H119.121V385.976C119.121 387.24 119.985 388.04 121.137 388.04C122.273 388.04 123.121 387.208 123.121 385.976V381.208H124.353V385.896C124.353 387.864 122.945 389.176 121.137 389.176C119.313 389.176 117.905 387.864 117.905 385.896ZM131.098 381.208V382.296H130.634C129.322 382.296 128.186 383.144 128.186 384.584V389H126.954V381.208H128.106V382.312C128.666 381.56 129.578 381.144 130.522 381.144C130.698 381.144 130.89 381.16 131.098 381.208ZM138.434 384.2V389H137.282V387.992C136.706 388.76 135.794 389.176 134.658 389.176C133.058 389.176 131.938 388.328 131.938 386.984C131.938 385.656 133.058 384.808 134.738 384.808H137.202V384.136C137.202 382.856 136.482 382.168 135.314 382.168C134.37 382.168 133.682 382.584 133.042 383.416L132.226 382.744C132.93 381.592 134.098 381.032 135.394 381.032C137.234 381.032 138.434 382.152 138.434 384.2ZM137.202 386.008V385.816H134.882C133.794 385.816 133.202 386.2 133.202 386.92C133.202 387.704 133.906 388.152 134.818 388.152C136.098 388.152 137.202 387.208 137.202 386.008ZM145.304 387.96V389C144.808 389.112 144.376 389.176 144.008 389.176C142.392 389.176 141.384 388.36 141.384 386.648V382.312H140.072V381.208H141.384V379.08H142.616V381.208H145.048V382.312H142.616V386.568C142.616 387.672 143.192 388.056 144.264 388.056C144.568 388.056 144.904 388.024 145.304 387.96ZM147.141 389V381.208H148.373V389H147.141ZM146.837 378.232C146.837 377.736 147.253 377.336 147.765 377.336C148.261 377.336 148.677 377.736 148.677 378.232C148.677 378.744 148.277 379.128 147.765 379.128C147.253 379.128 146.837 378.744 146.837 378.232ZM150.519 385.096C150.471 382.872 152.375 380.984 154.599 381.032C156.823 381 158.727 382.872 158.679 385.096C158.727 387.288 156.807 389.208 154.583 389.16C152.359 389.208 150.487 387.288 150.519 385.096ZM157.415 385.112C157.415 383.432 156.183 382.168 154.599 382.168C152.999 382.168 151.783 383.432 151.783 385.112C151.783 386.744 152.999 388.024 154.583 388.024C156.167 388.024 157.415 386.744 157.415 385.112ZM167.292 384.104V389H166.06V384.248C166.06 383.016 165.324 382.168 164.124 382.168C162.924 382.168 162.076 383.032 162.076 384.248V389H160.844V381.208H161.996V382.04C162.572 381.4 163.42 381.032 164.396 381.032C166.204 381.032 167.292 382.264 167.292 384.104Z" fill="#1D1D1F"/>
    <path fill-rule="evenodd" clip-rule="evenodd" d="M617.293 380.293C617.683 379.902 618.317 379.902 618.707 380.293L624 385.586L629.293 380.293C629.683 379.902 630.317 379.902 630.707 380.293C631.098 380.683 631.098 381.317 630.707 381.707L624.707 387.707C624.317 388.098 623.683 388.098 623.293 387.707L617.293 381.707C616.902 381.317 616.902 380.683 617.293 380.293Z" fill="#6C6C6C"/>
    <g opacity="0.9">
    <rect x="40" y="460" width="608" height="56" rx="28" fill="#ADE4AB"/>
    <path d="M261.391 487.4C261.311 483.6 264.551 480.5 268.451 480.56C270.771 480.56 272.731 481.6 274.011 483.42L272.091 485C271.151 483.7 269.931 483.06 268.411 483.06C265.891 483.06 264.171 484.88 264.171 487.4C264.171 489.96 265.951 491.82 268.571 491.82C270.091 491.82 271.311 491.2 272.051 490.18V489.1H268.411V486.76H274.751V490.66C274.151 491.72 273.291 492.6 272.171 493.26C271.071 493.92 269.831 494.24 268.451 494.24C264.571 494.32 261.331 491.18 261.391 487.4ZM286.012 489.96H279.072C279.392 491.22 280.412 491.92 281.852 491.92C282.832 491.92 283.752 491.58 284.612 490.92L285.732 492.76C284.552 493.74 283.232 494.24 281.772 494.24C278.712 494.3 276.292 491.92 276.352 489.06C276.292 486.2 278.672 483.82 281.532 483.88C284.272 483.88 286.192 485.9 286.192 488.48C286.192 488.96 286.132 489.46 286.012 489.96ZM279.072 488.06H283.572C283.552 486.84 282.612 486.06 281.432 486.06C280.292 486.06 279.372 486.84 279.072 488.06ZM294.659 491.74V494C294.019 494.16 293.399 494.24 292.799 494.24C290.299 494.24 288.839 493 288.839 490.52V486.38H287.279V484.1H288.839V481.6H291.539V484.1H294.339V486.38H291.539V490.28C291.539 491.4 292.099 491.82 293.379 491.82C293.539 491.82 293.959 491.8 294.659 491.74ZM308.585 491.74V494C307.945 494.16 307.325 494.24 306.725 494.24C304.225 494.24 302.765 493 302.765 490.52V486.38H301.205V484.1H302.765V481.6H305.465V484.1H308.265V486.38H305.465V490.28C305.465 491.4 306.025 491.82 307.305 491.82C307.465 491.82 307.885 491.8 308.585 491.74ZM319.645 487.86V494H316.965V488.24C316.965 487.1 316.225 486.32 315.125 486.32C314.025 486.32 313.245 487.1 313.245 488.24V494H310.545V479H313.245V484.94C313.905 484.28 314.865 483.88 315.965 483.88C318.205 483.88 319.645 485.46 319.645 487.86ZM331.344 489.96H324.404C324.724 491.22 325.744 491.92 327.184 491.92C328.164 491.92 329.084 491.58 329.944 490.92L331.064 492.76C329.884 493.74 328.564 494.24 327.104 494.24C324.044 494.3 321.624 491.92 321.684 489.06C321.624 486.2 324.004 483.82 326.864 483.88C329.604 483.88 331.524 485.9 331.524 488.48C331.524 488.96 331.464 489.46 331.344 489.96ZM324.404 488.06H328.904C328.884 486.84 327.944 486.06 326.764 486.06C325.624 486.06 324.704 486.84 324.404 488.06ZM342.396 482.72V484.1H344.576V486.38H342.396V494H339.696V486.38H338.296V484.1H339.696V482.48C339.696 480 341.136 478.76 343.516 478.76C344.036 478.76 344.536 478.84 344.996 478.98V481.24C344.696 481.2 344.436 481.18 344.196 481.18C342.976 481.18 342.396 481.6 342.396 482.72ZM354.372 488.12V494H351.892V493.04C351.172 493.78 350.132 494.24 348.872 494.24C346.772 494.24 345.452 493.02 345.452 491.28C345.452 489.5 346.892 488.4 349.192 488.4H351.672V487.96C351.672 486.86 351.032 486.22 349.832 486.22C348.812 486.22 348.092 486.64 347.212 487.58L345.812 485.92C346.952 484.56 348.392 483.88 350.132 483.88C352.712 483.88 354.372 485.38 354.372 488.12ZM351.672 490.3V490.18H349.552C348.672 490.18 348.172 490.52 348.172 491.18C348.172 491.84 348.732 492.26 349.592 492.26C350.772 492.26 351.672 491.44 351.672 490.3ZM363.051 484.1V486.48H362.331C360.711 486.48 359.671 487.36 359.671 489.06V494H356.971V484.1H359.451V485.28C360.111 484.46 361.071 483.98 362.171 483.98C362.511 483.98 362.791 484.02 363.051 484.1ZM379.985 487.86V494H377.285V488.24C377.285 487.06 376.585 486.32 375.525 486.32C374.465 486.32 373.705 487.08 373.705 488.18V494H371.005V488.24C371.005 487.06 370.305 486.32 369.245 486.32C368.145 486.32 367.425 487.06 367.425 488.24V494H364.725V484.1H367.205V484.98C367.865 484.28 368.865 483.88 370.005 483.88C371.305 483.88 372.285 484.36 372.945 485.3C373.725 484.42 374.885 483.88 376.245 483.88C378.565 483.88 379.985 485.46 379.985 487.86ZM398.622 489.04C398.622 492 396.582 494.24 393.822 494.24C392.622 494.24 391.582 493.82 390.862 493.04V497.6H388.162V484.1H390.642V485.34C391.302 484.4 392.462 483.88 393.822 483.88C396.582 483.88 398.622 486.08 398.622 489.04ZM395.882 489.06C395.882 487.4 394.782 486.32 393.322 486.32C391.962 486.32 390.822 487.26 390.822 489.04C390.822 490.8 391.942 491.78 393.322 491.78C394.762 491.78 395.882 490.68 395.882 489.06ZM400.74 494V479H403.44V494H400.74ZM414.411 488.12V494H411.931V493.04C411.211 493.78 410.171 494.24 408.911 494.24C406.811 494.24 405.491 493.02 405.491 491.28C405.491 489.5 406.931 488.4 409.231 488.4H411.711V487.96C411.711 486.86 411.071 486.22 409.871 486.22C408.851 486.22 408.131 486.64 407.251 487.58L405.851 485.92C406.991 484.56 408.431 483.88 410.171 483.88C412.751 483.88 414.411 485.38 414.411 488.12ZM411.711 490.3V490.18H409.591C408.711 490.18 408.211 490.52 408.211 491.18C408.211 491.84 408.771 492.26 409.631 492.26C410.811 492.26 411.711 491.44 411.711 490.3ZM426.11 487.86V494H423.43V488.22C423.43 487.08 422.69 486.3 421.59 486.3C420.49 486.3 419.71 487.08 419.71 488.22V494H417.01V484.1H419.49V485C420.19 484.3 421.21 483.88 422.39 483.88C424.69 483.88 426.11 485.46 426.11 487.86Z" fill="white"/>
    </g>
    </g>
    <g filter="url(#filter0_b_1529_66452)">
    <rect width="688" height="569" fill="black" fill-opacity="0.2"/>
    </g>
    <g clip-path="url(#clip1_1529_66452)">
    <rect width="688" height="337" transform="translate(0 116)" fill="#E58C00"/>
    <rect x="42.1416" y="83.3496" width="27.2093" height="500" transform="rotate(40 42.1416 83.3496)" fill="#1D1D1F"/>
    <rect x="100.686" y="83.3496" width="27.2093" height="500" transform="rotate(40 100.686 83.3496)" fill="#1D1D1F"/>
    <rect x="156.42" y="83.3496" width="27.2093" height="500" transform="rotate(40 156.42 83.3496)" fill="#1D1D1F"/>
    <rect x="214.92" y="83.3496" width="27.2093" height="500" transform="rotate(40 214.92 83.3496)" fill="#1D1D1F"/>
    <rect x="274.781" y="83.3496" width="27.2093" height="500" transform="rotate(40 274.781 83.3496)" fill="#1D1D1F"/>
    <rect x="331.92" y="83.3496" width="27.2093" height="500" transform="rotate(40 331.92 83.3496)" fill="#1D1D1F"/>
    <rect x="387.699" y="83.3496" width="27.2093" height="500" transform="rotate(40 387.699 83.3496)" fill="#1D1D1F"/>
    <rect x="444.839" y="83.3496" width="27.2093" height="500" transform="rotate(40 444.839 83.3496)" fill="#1D1D1F"/>
    <rect x="497.896" y="83.3496" width="27.2093" height="500" transform="rotate(40 497.896 83.3496)" fill="#1D1D1F"/>
    <rect x="546.873" y="83.3496" width="27.2093" height="500" transform="rotate(40 546.873 83.3496)" fill="#1D1D1F"/>
    <rect x="604.013" y="83.3496" width="27.2093" height="500" transform="rotate(40 604.013 83.3496)" fill="#1D1D1F"/>
    <rect x="767.071" y="83.3496" width="27.2093" height="500" transform="rotate(40 767.071 83.3496)" fill="#1D1D1F"/>
    <rect x="657.071" y="83.3496" width="27.2093" height="500" transform="rotate(40 657.071 83.3496)" fill="#1D1D1F"/>
    <rect x="820.13" y="83.3496" width="27.2093" height="500" transform="rotate(40 820.13 83.3496)" fill="#1D1D1F"/>
    <rect x="712.851" y="83.3496" width="27.2093" height="500" transform="rotate(40 712.851 83.3496)" fill="#1D1D1F"/>
    <rect x="870.909" y="83.3496" width="27.2093" height="500" transform="rotate(40 870.909 83.3496)" fill="#1D1D1F"/>
    <rect x="923.071" y="83.3496" width="27.2093" height="500" transform="rotate(40 923.071 83.3496)" fill="#1D1D1F"/>
    <rect x="978.394" y="83.3496" width="27.2093" height="500" transform="rotate(40 978.394 83.3496)" fill="#1D1D1F"/>
    <rect width="688" height="300" transform="translate(0 135)" fill="#E58C00"/>
    <path d="M344.309 265.279C343.86 265.279 343.422 265.412 343.049 265.661C342.676 265.91 342.386 266.264 342.214 266.678C342.042 267.093 341.997 267.549 342.085 267.989C342.172 268.428 342.388 268.832 342.705 269.149C343.023 269.467 343.427 269.683 343.866 269.77C344.306 269.858 344.762 269.813 345.177 269.641C345.591 269.469 345.945 269.179 346.194 268.806C346.443 268.433 346.576 267.995 346.576 267.546C346.576 266.945 346.337 266.368 345.912 265.943C345.487 265.518 344.91 265.279 344.309 265.279ZM368.502 268.612L350.25 236.868C349.66 235.81 348.798 234.929 347.753 234.316C346.709 233.702 345.52 233.379 344.309 233.379C343.098 233.379 341.908 233.702 340.864 234.316C339.82 234.929 338.958 235.81 338.368 236.868L320.229 268.612C319.618 269.641 319.29 270.814 319.278 272.01C319.265 273.207 319.569 274.386 320.158 275.428C320.746 276.47 321.6 277.338 322.631 277.945C323.663 278.551 324.836 278.875 326.033 278.883H362.584C363.791 278.895 364.979 278.586 366.026 277.988C367.074 277.389 367.943 276.523 368.545 275.477C369.148 274.432 369.461 273.245 369.454 272.039C369.446 270.832 369.118 269.65 368.502 268.612ZM364.58 273.147C364.381 273.5 364.091 273.794 363.74 273.998C363.389 274.201 362.99 274.306 362.584 274.303H326.033C325.628 274.306 325.229 274.201 324.878 273.998C324.527 273.794 324.237 273.5 324.038 273.147C323.839 272.802 323.734 272.411 323.734 272.013C323.734 271.615 323.839 271.224 324.038 270.879L342.177 239.135C342.368 238.764 342.657 238.452 343.013 238.234C343.369 238.017 343.778 237.902 344.195 237.902C344.613 237.902 345.022 238.017 345.378 238.234C345.734 238.452 346.023 238.764 346.213 239.135L364.466 270.879C364.691 271.219 364.821 271.613 364.841 272.02C364.86 272.427 364.77 272.832 364.58 273.192V273.147ZM344.309 247.139C343.707 247.139 343.131 247.378 342.705 247.803C342.28 248.229 342.041 248.805 342.041 249.407V258.476C342.041 259.078 342.28 259.654 342.705 260.08C343.131 260.505 343.707 260.744 344.309 260.744C344.91 260.744 345.487 260.505 345.912 260.08C346.337 259.654 346.576 259.078 346.576 258.476V249.407C346.576 248.805 346.337 248.229 345.912 247.803C345.487 247.378 344.91 247.139 344.309 247.139Z" fill="#1D1D1F"/>
    <path d="M244.165 320.545C244.069 314.497 249.285 309.473 255.429 309.601C259.429 309.601 262.853 311.553 264.741 314.849L261.477 317.153C259.973 314.785 257.957 313.601 255.429 313.601C251.493 313.601 248.613 316.545 248.613 320.577C248.613 324.609 251.493 327.489 255.429 327.489C257.957 327.489 259.973 326.305 261.477 323.937L264.741 326.241C262.917 329.537 259.461 331.489 255.397 331.489C249.221 331.617 244.037 326.593 244.165 320.545ZM266.916 323.169C266.82 318.657 270.756 314.817 275.396 314.913C280.036 314.849 284.004 318.657 283.908 323.169C284.004 327.681 280.004 331.553 275.364 331.457C270.724 331.553 266.82 327.681 266.916 323.169ZM279.492 323.201C279.492 320.737 277.732 318.849 275.396 318.849C272.996 318.849 271.3 320.673 271.3 323.201C271.3 325.665 272.996 327.489 275.396 327.489C277.732 327.489 279.492 325.665 279.492 323.201ZM311.697 321.281V331.105H307.377V321.889C307.377 320.001 306.257 318.817 304.561 318.817C302.865 318.817 301.649 320.033 301.649 321.793V331.105H297.329V321.889C297.329 320.001 296.209 318.817 294.513 318.817C292.753 318.817 291.601 320.001 291.601 321.889V331.105H287.281V315.265H291.249V316.673C292.305 315.553 293.905 314.913 295.729 314.913C297.809 314.913 299.377 315.681 300.433 317.185C301.681 315.777 303.537 314.913 305.713 314.913C309.425 314.913 311.697 317.441 311.697 321.281ZM315.812 331.105V315.265H320.132V331.105H315.812ZM315.204 309.505C315.204 307.969 316.42 306.817 317.956 306.817C319.492 306.817 320.74 307.969 320.74 309.505C320.74 311.009 319.492 312.161 317.956 312.161C316.42 312.161 315.204 311.009 315.204 309.505ZM338.966 321.281V331.105H334.678V321.857C334.678 320.033 333.494 318.785 331.734 318.785C329.974 318.785 328.726 320.033 328.726 321.857V331.105H324.406V315.265H328.374V316.705C329.494 315.585 331.126 314.913 333.014 314.913C336.694 314.913 338.966 317.441 338.966 321.281ZM355.06 315.265H359.028V329.345C359.028 334.497 355.796 337.249 350.836 337.249C347.86 337.249 345.268 336.257 343.06 334.305L345.332 331.297C347.092 332.609 348.564 333.345 350.484 333.345C353.044 333.345 354.708 332.065 354.708 329.601V328.737C353.556 329.985 351.892 330.625 349.876 330.625C345.492 330.625 342.292 327.393 342.292 322.753C342.292 318.049 345.556 314.913 349.876 314.913C352.148 314.913 353.94 315.745 355.06 317.249V315.265ZM354.772 322.689C354.772 319.969 352.98 318.593 350.772 318.593C348.436 318.593 346.676 320.161 346.676 322.721C346.676 325.281 348.468 326.977 350.772 326.977C352.948 326.977 354.772 325.409 354.772 322.689ZM371.097 326.817L374.073 324.577C375.449 326.465 376.953 327.649 379.257 327.649C381.145 327.649 382.265 326.753 382.265 325.313C382.265 324.065 381.593 323.617 379.577 322.689L377.305 321.665C374.073 320.225 372.185 318.401 372.185 315.585C372.185 311.969 375.193 309.601 379.193 309.601C382.425 309.601 384.857 311.169 386.169 313.601L383.225 315.873C382.137 314.241 380.793 313.441 379.193 313.441C377.689 313.441 376.569 314.177 376.569 315.489C376.569 316.609 377.241 317.121 379.033 317.921L381.433 318.977C384.985 320.545 386.649 322.305 386.649 325.153C386.649 329.025 383.481 331.489 379.257 331.489C375.673 331.489 372.729 329.665 371.097 326.817ZM389.26 323.169C389.164 318.657 393.1 314.817 397.74 314.913C402.38 314.849 406.348 318.657 406.252 323.169C406.348 327.681 402.348 331.553 397.708 331.457C393.068 331.553 389.164 327.681 389.26 323.169ZM401.836 323.201C401.836 320.737 400.076 318.849 397.74 318.849C395.34 318.849 393.644 320.673 393.644 323.201C393.644 325.665 395.34 327.489 397.74 327.489C400.076 327.489 401.836 325.665 401.836 323.201ZM408.728 323.169C408.632 318.657 412.568 314.817 417.208 314.913C421.848 314.849 425.816 318.657 425.72 323.169C425.816 327.681 421.816 331.553 417.176 331.457C412.536 331.553 408.632 327.681 408.728 323.169ZM421.304 323.201C421.304 320.737 419.544 318.849 417.208 318.849C414.808 318.849 413.112 320.673 413.112 323.201C413.112 325.665 414.808 327.489 417.208 327.489C419.544 327.489 421.304 325.665 421.304 323.201ZM443.653 321.281V331.105H439.365V321.857C439.365 320.033 438.181 318.785 436.421 318.785C434.661 318.785 433.413 320.033 433.413 321.857V331.105H429.093V315.265H433.061V316.705C434.181 315.585 435.813 314.913 437.701 314.913C441.381 314.913 443.653 317.441 443.653 321.281Z" fill="#1D1D1F"/>
    </g>
    </g>
    <defs>
    <filter id="filter0_b_1529_66452" x="-4" y="-4" width="696" height="577" filterUnits="userSpaceOnUse" color-interpolation-filters="sRGB">
    <feFlood flood-opacity="0" result="BackgroundImageFix"/>
    <feGaussianBlur in="BackgroundImageFix" stdDeviation="2"/>
    <feComposite in2="SourceAlpha" operator="in" result="effect1_backgroundBlur_1529_66452"/>
    <feBlend mode="normal" in="SourceGraphic" in2="effect1_backgroundBlur_1529_66452" result="shape"/>
    </filter>
    <clipPath id="clip0_1529_66452">
    <rect width="688" height="569" rx="8" fill="white"/>
    </clipPath>
    <clipPath id="clip1_1529_66452">
    <rect width="688" height="337" fill="white" transform="translate(0 116)"/>
    </clipPath>
    </defs>
    </svg>
    