<svg xmlns="http://www.w3.org/2000/svg" width="198" height="56" viewBox="0 0 198 56" fill="none">
  <g clip-path="url(#clip0_174_3450)">
    <path d="M24.526 35.2433H27.8584C28.8107 35.2443 29.754 35.0576 30.6341 34.6938C31.5143 34.33 32.3142 33.7963 32.9879 33.1233C33.6617 32.4502 34.1962 31.6509 34.5609 30.7711C34.9256 29.8913 35.1133 28.9482 35.1133 27.9959H31.781C30.8286 27.9949 29.8853 28.1816 29.0052 28.5454C28.125 28.9092 27.3252 29.4429 26.6514 30.116C25.9776 30.789 25.4431 31.5883 25.0784 32.4681C24.7137 33.3479 24.526 34.291 24.526 35.2433Z" fill="white"/>
    <path d="M43.3357 47.6389C41.7499 46.0603 39.7219 45.0006 37.5203 44.6004C35.3188 44.2001 33.0476 44.478 31.0075 45.3974C28.2889 46.6054 25.28 47.0048 22.3404 46.5481V22.0187C20.4163 22.0187 18.5709 22.783 17.2104 24.1436C15.8498 25.5042 15.0854 27.3495 15.0854 29.2736V43.3353C12.5935 41.3413 10.7824 38.6226 9.90221 35.5549C9.02202 32.4872 9.11625 29.2219 10.1719 26.21C11.2275 23.1982 13.1924 20.5885 15.7951 18.7415C18.3979 16.8945 21.51 15.9014 24.7015 15.8994C26.8615 15.8946 28.9981 16.3479 30.9702 17.2293C33.0102 18.1487 35.2814 18.4267 37.483 18.0264C39.6845 17.6261 41.7125 16.5665 43.2984 14.9878L42.1702 13.8596C37.879 9.55697 32.1502 6.9905 26.0829 6.65266C20.0156 6.31482 14.0372 8.22942 9.29491 12.0291C6.39784 14.3366 4.05785 17.2672 2.44873 20.6031C0.839615 23.9391 0.00271259 27.5947 0.000183913 31.2984C-0.0123956 34.5476 0.620463 37.7669 1.86203 40.7695C3.1036 43.7721 4.92915 46.4982 7.23274 48.7896C7.88262 49.4352 8.56597 50.0462 9.27997 50.6201C14.0275 54.4072 20.0032 56.3137 26.0668 55.9761C32.1304 55.6385 37.8574 53.0803 42.1552 48.7896L43.3357 47.6389Z" fill="white"/>
    <path d="M67.9145 9.39508C69.1533 10.1257 70.1726 11.176 70.8658 12.436L67.6755 14.9465C66.5921 13.3102 65.2397 12.4958 63.6333 12.4958C63.0417 12.4777 62.453 12.5848 61.9058 12.8101C61.3585 13.0355 60.8651 13.3739 60.4578 13.8034C60.0454 14.2416 59.7236 14.7569 59.5108 15.3198C59.2979 15.8826 59.1983 16.482 59.2175 17.0834C59.1964 17.6896 59.295 18.294 59.5079 18.862C59.7207 19.43 60.0435 19.9504 60.4578 20.3933C60.8669 20.8185 61.3613 21.1522 61.9087 21.3724C62.456 21.5926 63.0438 21.6944 63.6333 21.671C65.1974 21.671 66.5447 20.8666 67.6755 19.2577L70.8658 21.7084C70.1595 22.9749 69.1277 24.0299 67.8772 24.7643C66.5618 25.5258 65.0633 25.9134 63.5436 25.885C62.3625 25.9092 61.1886 25.6961 60.0913 25.2585C58.994 24.8209 57.9957 24.1675 57.1554 23.3372C56.3069 22.5289 55.6362 21.5527 55.186 20.4708C54.7357 19.3889 54.5158 18.2251 54.5403 17.0535C54.5176 15.8899 54.7385 14.7345 55.1889 13.6613C55.6393 12.5882 56.3091 11.6211 57.1554 10.8222C57.9976 9.99554 58.9967 9.34563 60.0937 8.91065C61.1908 8.47568 62.3637 8.26441 63.5436 8.28928C65.0744 8.25067 66.5863 8.63318 67.9145 9.39508Z" fill="white"/>
    <path d="M87.3413 10.8216C88.1959 11.6155 88.8733 12.581 89.3291 13.6548C89.7849 14.7287 90.0088 15.8866 89.9862 17.0529C90.0081 18.2214 89.7839 19.3813 89.3283 20.4575C88.8726 21.5336 88.1956 22.5018 87.3413 23.2992C86.4947 24.1294 85.491 24.7824 84.3889 25.2199C83.2869 25.6574 82.1086 25.8706 80.9231 25.8471C79.7459 25.8739 78.5752 25.6642 77.4805 25.2304C76.3857 24.7966 75.3892 24.1475 74.5498 23.3216C73.7069 22.5134 73.0412 21.5388 72.5949 20.4597C72.1486 19.3805 71.9314 18.2204 71.9571 17.0529C71.9326 15.8891 72.1527 14.7331 72.6032 13.6596C73.0536 12.5862 73.7244 11.6194 74.5722 10.8216C75.4126 9.99448 76.4102 9.3442 77.5062 8.90916C78.6021 8.47412 79.7741 8.26314 80.953 8.28869C82.1324 8.26717 83.3044 8.47997 84.401 8.91476C85.4976 9.34955 86.497 9.99768 87.3413 10.8216ZM77.8298 13.7729C77.0041 14.6734 76.5642 15.8617 76.6045 17.0828C76.582 17.6834 76.6787 18.2825 76.889 18.8454C77.0993 19.4084 77.4191 19.9242 77.8298 20.3629C78.6574 21.1869 79.7777 21.6495 80.9455 21.6495C82.1134 21.6495 83.2336 21.1869 84.0612 20.3629C84.4759 19.9293 84.7994 19.4169 85.0124 18.8561C85.2255 18.2952 85.3238 17.6973 85.3015 17.0978C85.3375 15.8813 84.8917 14.6998 84.0612 13.8102C83.6695 13.3777 83.189 13.0349 82.6525 12.8054C82.116 12.5758 81.5363 12.4649 80.953 12.4803C80.3705 12.462 79.7908 12.5678 79.2524 12.7906C78.7139 13.0135 78.229 13.3483 77.8298 13.7729Z" fill="white"/>
    <path d="M116.748 10.138C117.925 11.494 118.533 13.253 118.444 15.0469V25.5072H113.864V15.6895C113.906 14.8224 113.615 13.9721 113.049 13.3135C112.771 13.0189 112.433 12.7877 112.058 12.6355C111.683 12.4834 111.279 12.4139 110.875 12.4318C110.461 12.4152 110.047 12.4851 109.661 12.6368C109.275 12.7886 108.925 13.0191 108.633 13.3135C108.348 13.6111 108.124 13.9625 107.975 14.3473C107.826 14.7321 107.756 15.1426 107.767 15.555V25.4699H103.179V15.6895C103.223 14.821 102.928 13.9694 102.357 13.3135C102.08 13.0181 101.742 12.7863 101.367 12.6341C100.991 12.4819 100.588 12.4129 100.183 12.4318C99.7686 12.4152 99.3553 12.4851 98.9694 12.6368C98.5835 12.7886 98.2334 13.0191 97.9414 13.3135C97.3683 13.9677 97.0758 14.8212 97.127 15.6895V25.4699H92.5394V8.65865H96.7534V10.153C97.3704 9.52601 98.1122 9.03574 98.9309 8.71394C99.7495 8.39215 100.627 8.24603 101.505 8.28506C103.767 8.28506 105.431 9.08951 106.496 10.6984C107.189 9.90019 108.052 9.26857 109.022 8.85069C109.993 8.43281 111.045 8.23946 112.1 8.28506C112.963 8.23982 113.825 8.38203 114.627 8.70191C115.429 9.0218 116.153 9.51175 116.748 10.138Z" fill="white"/>
    <path d="M137.288 10.7615C138.838 12.4791 139.658 14.733 139.574 17.0451C139.653 19.3653 138.834 21.6265 137.288 23.3587C136.553 24.1802 135.647 24.8312 134.634 25.2661C133.621 25.7011 132.525 25.9094 131.423 25.8766C130.488 25.9198 129.555 25.7599 128.688 25.4077C127.822 25.0556 127.041 24.5196 126.402 23.8368V31.5775H121.792V8.65445H126.006V10.7615C127.201 9.10773 128.999 8.28087 131.4 8.28087C132.503 8.24513 133.599 8.44832 134.616 8.87651C135.632 9.30469 136.544 9.94772 137.288 10.7615ZM133.672 20.4223C134.096 19.9778 134.426 19.4521 134.641 18.8769C134.857 18.3016 134.954 17.6887 134.927 17.075C134.954 16.458 134.858 15.8419 134.645 15.2622C134.432 14.6825 134.106 14.1508 133.687 13.6978C132.878 12.9008 131.793 12.446 130.658 12.428C129.522 12.4099 128.424 12.8299 127.59 13.6007C127.15 14.0539 126.81 14.5951 126.594 15.1887C126.378 15.7823 126.289 16.4149 126.335 17.0451C126.292 17.6738 126.381 18.3043 126.594 18.8971C126.808 19.4899 127.142 20.0321 127.575 20.4895C127.966 20.8817 128.433 21.191 128.946 21.3989C129.459 21.6069 130.01 21.7093 130.564 21.7C131.142 21.7129 131.716 21.6061 132.251 21.3863C132.786 21.1664 133.27 20.8382 133.672 20.4223Z" fill="white"/>
    <path d="M146.738 25.4708H142.157V0H146.738V25.4708Z" fill="white"/>
    <path d="M165.718 18.609H153.912C154.16 19.6056 154.756 20.4805 155.594 21.0746C156.503 21.6737 157.576 21.9741 158.664 21.9339C160.373 21.9164 162.025 21.3183 163.349 20.2378L165.254 23.3609C163.394 24.9906 161.003 25.8859 158.53 25.8789C157.318 25.9182 156.11 25.7143 154.979 25.2793C153.847 24.8443 152.814 24.1869 151.94 23.346C151.091 22.5414 150.419 21.568 149.969 20.4884C149.519 19.4087 149.299 18.2468 149.325 17.0773C149.309 15.918 149.525 14.7672 149.962 13.693C150.398 12.6188 151.045 11.6429 151.865 10.823C152.685 10.0032 153.66 9.35604 154.735 8.91979C155.809 8.48354 156.96 8.26706 158.119 8.28315C159.161 8.24072 160.201 8.4131 161.174 8.78957C162.146 9.16604 163.031 9.73855 163.773 10.4715C164.516 11.2045 165.099 12.0823 165.487 13.0503C165.876 14.0183 166.061 15.0559 166.031 16.0985C166.028 16.9449 165.922 17.7877 165.718 18.609ZM155.407 12.9006C154.66 13.5493 154.137 14.4175 153.912 15.3812H161.586C161.595 14.9134 161.502 14.4492 161.313 14.0209C161.125 13.5926 160.846 13.2103 160.495 12.9006C159.789 12.2891 158.881 11.9639 157.947 11.9891C157.018 11.9756 156.115 12.2994 155.407 12.9006Z" fill="white"/>
    <path d="M179.378 21.6695V25.5025C178.346 25.7701 177.284 25.9082 176.218 25.9134C174.424 26.0234 172.654 25.4584 171.256 24.3294C170.081 23.2734 169.493 21.6944 169.493 19.5924V12.5317H166.841V8.66138H169.493V4.41748H174.088V8.66138H178.848V12.5317H174.088V19.159C174.051 19.53 174.099 19.9045 174.228 20.2541C174.358 20.6037 174.565 20.9191 174.835 21.1764C175.543 21.6313 176.38 21.8413 177.219 21.7741C177.478 21.7741 178.197 21.7393 179.378 21.6695Z" fill="white"/>
    <path d="M196.798 18.609H184.977C185.231 19.6029 185.826 20.4759 186.658 21.0746C187.57 21.6752 188.646 21.9757 189.737 21.9339C191.446 21.9164 193.098 21.3183 194.422 20.2378L196.327 23.3609C194.466 24.9906 192.076 25.8859 189.602 25.8789C188.39 25.9182 187.183 25.7143 186.051 25.2793C184.919 24.8443 183.886 24.1869 183.012 23.346C182.162 22.5425 181.489 21.5693 181.039 20.4894C180.588 19.4095 180.37 18.2471 180.397 17.0773C180.38 15.9177 180.596 14.7665 181.032 13.6918C181.468 12.6171 182.115 11.6408 182.935 10.8207C183.755 10.0007 184.731 9.35357 185.806 8.91768C186.881 8.4818 188.032 8.26603 189.191 8.28315C190.234 8.24072 191.273 8.4131 192.246 8.78957C193.219 9.16604 194.104 9.73855 194.846 10.4715C195.588 11.2045 196.171 12.0823 196.56 13.0503C196.948 14.0183 197.133 15.0559 197.104 16.0985C197.103 16.9446 197 17.7874 196.798 18.609ZM186.472 12.9006C185.727 13.5512 185.204 14.4186 184.977 15.3812H192.658C192.667 14.9134 192.574 14.4492 192.386 14.0209C192.197 13.5926 191.918 13.2103 191.567 12.9006C190.866 12.2926 189.963 11.9676 189.034 11.9891C188.098 11.9722 187.187 12.2961 186.472 12.9006Z" fill="white"/>
    <path d="M61.6327 33.3495C61.3616 33.6058 61.1532 33.9211 61.0236 34.2709C60.894 34.6208 60.8468 34.9958 60.8856 35.3669V37.713H64.6214V41.5833H60.8856V54.5391H56.298V41.5833H53.922V37.713H56.298V34.9634C56.298 32.8564 56.8808 31.2799 58.0314 30.2264C59.3503 29.1183 61.0407 28.5522 62.761 28.6424C63.6144 28.6385 64.4634 28.7645 65.2789 29.016V32.8713C64.8284 32.8064 64.3742 32.7715 63.9191 32.7667C63.114 32.7089 62.3119 32.9134 61.6327 33.3495Z" fill="white"/>
    <path d="M78.2586 39.1929C79.5586 40.4282 80.2087 42.2114 80.2087 44.5426V54.5397H76.0021V52.8959C75.3397 53.5799 74.5396 54.1155 73.6547 54.4671C72.7698 54.8188 71.8204 54.9785 70.8691 54.9357C69.3266 55.0203 67.8095 54.5155 66.6252 53.5235C66.1168 53.0712 65.7136 52.5131 65.4438 51.8884C65.174 51.2637 65.0443 50.5874 65.0637 49.9072C65.0365 49.2155 65.178 48.5275 65.4761 47.9027C65.7742 47.2779 66.2199 46.735 66.7747 46.3208C68.1344 45.3843 69.7659 44.9245 71.4146 45.0133H75.6286V44.2661C75.651 43.8683 75.5917 43.4701 75.4542 43.0962C75.3167 42.7222 75.1039 42.3804 74.8291 42.0919C74.1811 41.545 73.3431 41.2764 72.4979 41.3447C71.0036 41.3447 69.5093 42.1143 68.015 43.6535L65.6763 40.8068C66.5542 39.709 67.6721 38.827 68.944 38.2286C70.2159 37.6302 71.608 37.3313 73.0135 37.3549C74.9356 37.2536 76.8201 37.914 78.2586 39.1929ZM74.6049 50.6395C74.9387 50.3374 75.203 49.9665 75.3797 49.5525C75.5564 49.1385 75.6413 48.691 75.6286 48.2411V48.0393H72.0272C70.4657 48.0393 69.6811 48.6072 69.6811 49.7354C69.6729 49.997 69.7292 50.2565 69.8452 50.4911C69.9612 50.7257 70.1332 50.9281 70.3461 51.0803C70.8596 51.4307 71.4735 51.6038 72.0945 51.5734C73.0204 51.5972 73.9197 51.2626 74.6049 50.6395Z" fill="white"/>
    <path d="M93.9321 37.7157V41.7579H92.7067C91.5077 41.6934 90.3292 42.0889 89.4117 42.8637C88.9792 43.2863 88.6437 43.7978 88.4283 44.3628C88.2128 44.9279 88.1226 45.533 88.164 46.1362V54.5418H83.6063V37.7157H87.8128V39.7555C88.346 39.0367 89.045 38.4576 89.8503 38.0673C90.6556 37.677 91.5433 37.4872 92.4378 37.514C92.9431 37.5062 93.4469 37.5742 93.9321 37.7157Z" fill="white"/>
    <path d="M119.982 39.1988C121.151 40.551 121.757 42.2995 121.678 44.0852V54.5455H117.097V44.7502C117.141 43.8817 116.846 43.0301 116.276 42.3742C116 42.079 115.663 41.8473 115.289 41.695C114.915 41.5428 114.512 41.4737 114.109 41.4926C113.694 41.476 113.281 41.5458 112.895 41.6976C112.509 41.8494 112.159 42.0798 111.867 42.3742C111.582 42.6718 111.358 43.0232 111.209 43.408C111.06 43.7928 110.989 44.2033 111.001 44.6157V54.5455H106.413V44.7502C106.459 43.8827 106.167 43.0313 105.599 42.3742C105.321 42.0796 104.983 41.8484 104.608 41.6962C104.232 41.5441 103.829 41.4746 103.424 41.4926C103.01 41.476 102.597 41.5458 102.211 41.6976C101.825 41.8494 101.475 42.0798 101.183 42.3742C100.891 42.6944 100.665 43.0692 100.519 43.477C100.373 43.8848 100.309 44.3175 100.331 44.7502V54.5455H95.751V37.7194H99.9575V39.2137C100.576 38.5873 101.32 38.0975 102.139 37.7757C102.959 37.454 103.837 37.3076 104.717 37.3458C106.978 37.3458 108.642 38.1502 109.708 39.7591C110.4 38.9609 111.263 38.3293 112.234 37.9114C113.204 37.4935 114.256 37.3002 115.312 37.3458C116.178 37.2972 117.044 37.4379 117.851 37.7578C118.657 38.0778 119.384 38.5695 119.982 39.1988Z" fill="white"/>
    <path d="M140.463 47.666H128.666C128.917 48.6588 129.513 49.5301 130.347 50.1242C131.257 50.7274 132.334 51.0305 133.425 50.9909C135.132 50.9776 136.784 50.3849 138.11 49.3098L140.015 52.433C138.155 54.0626 135.764 54.9579 133.291 54.9509C132.079 54.9902 130.871 54.7864 129.739 54.3513C128.607 53.9163 127.574 53.2589 126.701 52.418C125.85 51.6145 125.178 50.6413 124.727 49.5614C124.277 48.4816 124.058 47.3191 124.086 46.1493C124.068 44.9897 124.284 43.8385 124.72 42.7638C125.156 41.6891 125.803 40.7128 126.623 39.8928C127.443 39.0727 128.419 38.4256 129.494 37.9897C130.569 37.5538 131.72 37.3381 132.88 37.3552C133.922 37.3127 134.962 37.4851 135.934 37.8616C136.907 38.2381 137.792 38.8106 138.534 39.5435C139.276 40.2765 139.86 41.1543 140.248 42.1223C140.636 43.0903 140.822 44.1279 140.792 45.1705C140.779 46.0122 140.668 46.8496 140.463 47.666ZM130.138 41.9577C129.393 42.6083 128.87 43.4757 128.643 44.4383H136.324C136.333 43.9705 136.24 43.5063 136.052 43.078C135.863 42.6496 135.584 42.2674 135.233 41.9577C134.528 41.3461 133.619 41.0209 132.685 41.0462C131.761 41.0349 130.864 41.3587 130.16 41.9577H130.138Z" fill="white"/>
    <path d="M153.666 37.7157V41.7579H152.418C151.219 41.6934 150.041 42.0889 149.123 42.8637C148.701 43.2916 148.377 43.8055 148.172 44.3703C147.967 44.935 147.886 45.5374 147.935 46.1362V54.5418H143.355V37.7157H147.562V39.7555C148.095 39.0367 148.794 38.4576 149.599 38.0673C150.404 37.677 151.292 37.4872 152.187 37.514C152.687 37.5071 153.186 37.5751 153.666 37.7157Z" fill="white"/>
    <path d="M158.03 49.5347C158.597 50.1433 158.912 50.9443 158.912 51.7762C158.912 52.6081 158.597 53.4091 158.03 54.0177C157.74 54.3162 157.39 54.5507 157.004 54.7064C156.618 54.8621 156.204 54.9355 155.788 54.9218C155.367 54.933 154.948 54.8587 154.556 54.7033C154.164 54.5479 153.808 54.3147 153.509 54.0177C152.929 53.416 152.604 52.6124 152.604 51.7762C152.604 50.94 152.929 50.1364 153.509 49.5347C153.806 49.2343 154.162 48.9979 154.554 48.8398C154.946 48.6818 155.366 48.6055 155.788 48.6157C156.205 48.6039 156.62 48.6796 157.006 48.8379C157.392 48.9962 157.741 49.2335 158.03 49.5347Z" fill="white"/>
  </g>
  <defs>
    <clipPath id="clip0_174_3450">
      <rect width="197.102" height="56" fill="white"/>
    </clipPath>
  </defs>
</svg>