<svg width="594" height="416" viewBox="0 0 594 416" fill="none" xmlns="http://www.w3.org/2000/svg">
    <g clip-path="url(#clip0_2739_44258)">
    <g opacity="0.47">
    <path opacity="0.47" d="M594 0H0V414H594V0Z" fill="#6FF8DC"/>
    </g>
    <path d="M526.16 413.701H80.6101C80.3301 413.701 80.1001 413.271 80.1001 412.701C80.1001 412.131 80.3301 411.701 80.6101 411.701H526.16C526.44 411.701 526.67 412.141 526.67 412.701C526.67 413.261 526.44 413.701 526.16 413.701Z" fill="#47332A"/>
    <path d="M356.47 59.8809H177.71C165.853 59.8809 156.24 69.4933 156.24 81.3509V394.391C156.24 406.248 165.853 415.861 177.71 415.861H356.47C368.328 415.861 377.94 406.248 377.94 394.391V81.3509C377.94 69.4933 368.328 59.8809 356.47 59.8809Z" fill="#040B0A"/>
    <path d="M352.53 66.6816H181.63C171.153 66.6816 162.66 75.1748 162.66 85.6516V389.532C162.66 400.008 171.153 408.502 181.63 408.502H352.53C363.007 408.502 371.5 400.008 371.5 389.532V85.6516C371.5 75.1748 363.007 66.6816 352.53 66.6816Z" fill="white"/>
    <path d="M342.44 108.66H192.36C188.035 108.66 184.53 112.166 184.53 116.49C184.53 120.815 188.035 124.32 192.36 124.32H342.44C346.764 124.32 350.27 120.815 350.27 116.49C350.27 112.166 346.764 108.66 342.44 108.66Z" fill="#C5FCF1"/>
    <path d="M260.99 138.211H195.19C192.086 138.211 189.57 140.727 189.57 143.831V171.111C189.57 174.215 192.086 176.731 195.19 176.731H260.99C264.094 176.731 266.61 174.215 266.61 171.111V143.831C266.61 140.727 264.094 138.211 260.99 138.211Z" fill="#DCFDF7"/>
    <path d="M344.01 138.211H278.21C275.106 138.211 272.59 140.727 272.59 143.831V171.111C272.59 174.215 275.106 176.731 278.21 176.731H344.01C347.114 176.731 349.63 174.215 349.63 171.111V143.831C349.63 140.727 347.114 138.211 344.01 138.211Z" fill="#DCFDF7"/>
    <path d="M347.25 192.971H198.75C194.299 192.971 190.69 196.579 190.69 201.031V222.021C190.69 226.472 194.299 230.081 198.75 230.081H347.25C351.701 230.081 355.31 226.472 355.31 222.021V201.031C355.31 196.579 351.701 192.971 347.25 192.971Z" fill="#DCFDF7"/>
    <path d="M347.57 244.65H199.07C194.618 244.65 191.01 248.259 191.01 252.71V273.7C191.01 278.152 194.618 281.76 199.07 281.76H347.57C352.021 281.76 355.63 278.152 355.63 273.7V252.71C355.63 248.259 352.021 244.65 347.57 244.65Z" fill="#DCFDF7"/>
    <path d="M347.57 295.82H199.07C194.618 295.82 191.01 299.429 191.01 303.88V324.87C191.01 329.322 194.618 332.93 199.07 332.93H347.57C352.021 332.93 355.63 329.322 355.63 324.87V303.88C355.63 299.429 352.021 295.82 347.57 295.82Z" fill="#DCFDF7"/>
    <path d="M345.07 346.99H196.57C192.118 346.99 188.51 350.599 188.51 355.05V376.04C188.51 380.492 192.118 384.1 196.57 384.1H345.07C349.521 384.1 353.13 380.492 353.13 376.04V355.05C353.13 350.599 349.521 346.99 345.07 346.99Z" fill="#3A7EE4"/>
    <path d="M222.11 64.75H314.47V69.56C314.47 72.1299 313.449 74.5946 311.632 76.4119C309.814 78.2291 307.35 79.25 304.78 79.25H231.78C229.21 79.25 226.745 78.2291 224.928 76.4119C223.111 74.5946 222.09 72.1299 222.09 69.56V64.75H222.11Z" fill="#040B0A"/>
    <path d="M253.867 357.967C255.413 357.967 256.681 358.404 257.658 359.279C258.62 360.154 259.116 361.32 259.116 362.749C259.116 364.178 258.62 365.33 257.643 366.234C256.667 367.138 255.413 367.59 253.867 367.59H250.718V357.967H253.867ZM253.853 359.746H252.686V365.811H253.853C254.815 365.811 255.602 365.534 256.2 364.98C256.783 364.426 257.089 363.682 257.089 362.749C257.089 361.816 256.783 361.087 256.2 360.548C255.617 360.023 254.83 359.746 253.853 359.746ZM264.109 360.212C265.173 360.212 266.092 360.577 266.85 361.306C267.608 362.035 267.987 362.924 267.987 363.974C267.987 365.038 267.608 365.928 266.85 366.657C266.092 367.386 265.173 367.75 264.094 367.75C263.015 367.75 262.097 367.4 261.353 366.671C260.609 365.942 260.245 365.053 260.245 363.974C260.245 362.924 260.609 362.035 261.368 361.306C262.111 360.577 263.03 360.212 264.109 360.212ZM264.109 362.006C263.555 362.006 263.117 362.195 262.767 362.574C262.417 362.953 262.242 363.42 262.242 363.989C262.242 364.572 262.417 365.038 262.767 365.403C263.117 365.767 263.555 365.942 264.109 365.942C264.634 365.942 265.086 365.767 265.435 365.388C265.785 365.024 265.975 364.557 265.975 363.989C265.975 363.435 265.785 362.953 265.435 362.574C265.086 362.195 264.634 362.006 264.109 362.006ZM273.446 360.212C274.277 360.212 274.933 360.489 275.429 361.014C275.91 361.539 276.158 362.239 276.158 363.114V367.59H274.204V363.376C274.204 362.968 274.073 362.633 273.825 362.37C273.577 362.108 273.256 361.977 272.862 361.977C272.454 361.977 272.133 362.108 271.871 362.37C271.609 362.633 271.492 362.968 271.492 363.376V367.59H269.524V360.373H271.332V361.029C271.871 360.489 272.571 360.212 273.446 360.212ZM284.817 363.566C284.817 363.916 284.774 364.28 284.686 364.645H279.612C279.729 365.111 279.977 365.461 280.327 365.709C280.677 365.957 281.129 366.074 281.654 366.074C282.353 366.074 283.024 365.84 283.666 365.345L284.482 366.686C283.622 367.415 282.66 367.765 281.595 367.765C280.458 367.765 279.51 367.415 278.767 366.686C278.009 365.957 277.644 365.068 277.644 363.989C277.644 362.939 277.994 362.035 278.723 361.306C279.452 360.577 280.341 360.212 281.42 360.212C282.412 360.212 283.228 360.533 283.87 361.175C284.497 361.816 284.817 362.618 284.817 363.566ZM281.347 361.802C280.925 361.802 280.56 361.933 280.254 362.195C279.933 362.458 279.729 362.822 279.612 363.26H282.908C282.893 362.822 282.733 362.458 282.441 362.195C282.135 361.933 281.77 361.802 281.347 361.802Z" fill="white"/>
    <mask id="mask0_2739_44258" style="mask-type:luminance" maskUnits="userSpaceOnUse" x="266" y="98" width="278" height="315">
    <path d="M543.31 98.3301H266.09V412.01H543.31V98.3301Z" fill="white"/>
    </mask>
    <g mask="url(#mask0_2739_44258)">
    <path d="M390.24 249.09L304.39 227.09L298.1 245.18C298.1 245.18 351.62 261.04 385.02 270.18C390.32 271.64 397.12 266.86 398.15 261.46C399.1 256.42 395.3 250.05 390.24 249.09Z" fill="#98492F"/>
    <path d="M397.22 265L408 211.68L387 207.93L375.86 258.87C375.365 261.175 375.796 263.583 377.058 265.574C378.32 267.566 380.314 268.983 382.61 269.52C387.28 270.58 395.91 269.61 397.22 265Z" fill="#98492F"/>
    <path d="M406.54 264.811L376.96 548.701L410.6 551.931L448.55 270.261L406.54 264.811Z" fill="#0F2C2A"/>
    <path d="M481.41 262.01L487.75 551.29L453.96 551.58L439.96 329.14L426 266.5L481.41 262.01Z" fill="#1C4A45"/>
    <path d="M421.29 106.6H451.07C453.099 106.6 455.044 107.406 456.479 108.84C457.914 110.275 458.72 112.221 458.72 114.25V149.07H416.25V111.64C416.244 110.976 416.371 110.319 416.622 109.705C416.874 109.091 417.245 108.533 417.714 108.064C418.183 107.595 418.741 107.224 419.355 106.973C419.969 106.721 420.626 106.594 421.29 106.6Z" fill="#051616"/>
    <path d="M453.3 161V174.91C453.3 182.59 447.59 188.82 440.54 188.82C433.49 188.82 427.78 182.59 427.78 174.91V161H453.3Z" fill="#98492F"/>
    <path d="M449.84 163.27L427.78 175.63V163.27H449.84Z" fill="#733623"/>
    <path d="M414.23 237.8L379.49 229.43L388.83 190.64C389.379 188.359 390.373 186.207 391.753 184.309C393.134 182.412 394.876 180.804 396.878 179.58C398.88 178.355 401.103 177.536 403.422 177.171C405.74 176.806 408.108 176.901 410.39 177.45C414.994 178.562 418.969 181.457 421.44 185.497C423.912 189.538 424.678 194.395 423.57 199L414.23 237.8Z" fill="#3A7EE4"/>
    <path d="M482.31 240.871L492.94 328.871L512.07 328.171C512.07 328.171 507.46 272.551 503.88 238.101C503.32 232.611 496.4 228.001 491 229.001C485.94 230.001 481.37 235.811 482.31 240.871Z" fill="#98492F"/>
    <path d="M416.25 115.539H453.3V163.279H426.74C423.958 163.279 421.29 162.174 419.322 160.207C417.355 158.239 416.25 155.571 416.25 152.789V115.539Z" fill="#98492F"/>
    <path d="M453.3 138.049H455.12C456.539 138.049 457.9 138.612 458.903 139.616C459.906 140.619 460.47 141.98 460.47 143.399V146.639C460.47 148.058 459.906 149.419 458.903 150.422C457.9 151.425 456.539 151.989 455.12 151.989H453.3V138.049Z" fill="#98492F"/>
    <path d="M435.47 137.729C435.47 137.729 436.54 134.539 439.54 134.239C440.457 134.181 441.377 134.33 442.228 134.676C443.08 135.023 443.843 135.557 444.46 136.239C444.207 137.162 443.662 137.978 442.907 138.566C442.152 139.154 441.227 139.481 440.27 139.499C436.63 139.859 435.47 137.729 435.47 137.729Z" fill="white"/>
    <mask id="mask1_2739_44258" style="mask-type:luminance" maskUnits="userSpaceOnUse" x="435" y="134" width="10" height="6">
    <path d="M435.47 137.729C435.47 137.729 436.54 134.539 439.54 134.239C440.457 134.181 441.377 134.33 442.228 134.676C443.08 135.023 443.843 135.557 444.46 136.239C444.207 137.162 443.662 137.978 442.907 138.566C442.152 139.154 441.227 139.481 440.27 139.499C436.63 139.859 435.47 137.729 435.47 137.729Z" fill="white"/>
    </mask>
    <g mask="url(#mask1_2739_44258)">
    <path d="M443 136.489C443.058 137.079 442.94 137.673 442.661 138.196C442.382 138.719 441.954 139.148 441.431 139.428C440.908 139.708 440.314 139.826 439.724 139.769C439.134 139.712 438.574 139.481 438.115 139.106C437.656 138.73 437.319 138.227 437.145 137.66C436.972 137.093 436.97 136.488 437.141 135.92C437.312 135.352 437.647 134.848 438.104 134.47C438.561 134.092 439.12 133.859 439.71 133.799C440.102 133.759 440.499 133.796 440.877 133.91C441.255 134.024 441.607 134.211 441.913 134.461C442.219 134.711 442.472 135.018 442.659 135.366C442.845 135.714 442.961 136.096 443 136.489Z" fill="black"/>
    </g>
    <path d="M435.47 137.729C435.47 137.729 436.47 134.439 439.54 134.239C440.456 134.191 441.372 134.345 442.223 134.691C443.073 135.036 443.837 135.565 444.46 136.239" stroke="black" stroke-width="0.5" stroke-linecap="round" stroke-linejoin="round"/>
    <path d="M427.15 137.73C427.15 137.73 426.15 134.54 423.46 134.24C422.611 134.194 421.763 134.351 420.987 134.699C420.211 135.047 419.53 135.575 419 136.24C419.2 137.12 419.677 137.911 420.361 138.499C421.045 139.086 421.901 139.437 422.8 139.5C426.1 139.86 427.15 137.73 427.15 137.73Z" fill="white"/>
    <mask id="mask2_2739_44258" style="mask-type:luminance" maskUnits="userSpaceOnUse" x="419" y="134" width="9" height="6">
    <path d="M427.15 137.73C427.15 137.73 426.15 134.54 423.46 134.24C422.611 134.194 421.763 134.351 420.987 134.699C420.211 135.047 419.53 135.575 419 136.24C419.2 137.12 419.677 137.911 420.361 138.499C421.045 139.086 421.901 139.437 422.8 139.5C426.1 139.86 427.15 137.73 427.15 137.73Z" fill="white"/>
    </mask>
    <g mask="url(#mask2_2739_44258)">
    <path d="M420.35 136.491C420.264 137.246 420.468 138.006 420.921 138.617C421.374 139.228 422.042 139.644 422.79 139.781C423.164 139.805 423.54 139.754 423.895 139.632C424.249 139.509 424.576 139.317 424.855 139.066C425.135 138.816 425.361 138.512 425.522 138.173C425.682 137.834 425.773 137.466 425.79 137.091C425.876 136.335 425.672 135.575 425.219 134.965C424.766 134.354 424.098 133.938 423.35 133.801C422.975 133.777 422.6 133.827 422.245 133.95C421.89 134.073 421.564 134.265 421.284 134.515C421.005 134.766 420.778 135.07 420.618 135.409C420.457 135.748 420.366 136.116 420.35 136.491Z" fill="black"/>
    </g>
    <path d="M427.15 137.729C427.15 137.729 426.28 134.439 423.46 134.239C422.612 134.203 421.768 134.365 420.994 134.712C420.22 135.06 419.537 135.582 419 136.239" stroke="black" stroke-width="0.47" stroke-linecap="round" stroke-linejoin="round"/>
    <path d="M440.25 126.58C441.838 126.389 443.448 126.49 445 126.88C446.18 127.28 446.53 128.61 445.37 129.29C443.949 129.825 442.462 130.161 440.95 130.29C437.28 130.73 435.22 129.66 435.22 128.75C435.21 127.51 438.29 126.69 440.25 126.58Z" fill="#051616"/>
    <path d="M422.5 126.579C421.048 126.422 419.578 126.558 418.18 126.979C417.928 127.045 417.7 127.184 417.526 127.378C417.352 127.572 417.239 127.813 417.201 128.07C417.162 128.328 417.2 128.592 417.31 128.828C417.421 129.064 417.598 129.263 417.82 129.399C419.101 129.901 420.449 130.211 421.82 130.319C425.16 130.669 427.04 129.559 427.05 128.649C427.09 127.379 424.28 126.639 422.5 126.579Z" fill="#051616"/>
    <path d="M454.08 138.049V124.489H450.55V119.199H416.25V111.029H454.08V124.489" fill="#051616"/>
    <path d="M505.47 248.09L498.19 194.15L477.19 197.47L483.34 249.25C483.629 251.589 484.823 253.722 486.667 255.189C488.51 256.657 490.856 257.343 493.2 257.1C497.9 256.59 505.73 252.84 505.47 248.09Z" fill="#98492F"/>
    <path d="M437.48 149C437.48 150.607 436.841 152.149 435.705 153.285C434.568 154.422 433.027 155.06 431.42 155.06C429.813 155.06 428.271 154.422 427.135 153.285C425.998 152.149 425.36 150.607 425.36 149" fill="white"/>
    <path d="M431.63 140.439L429 142.899C426.81 145.229 429.53 145.549 430.9 145.459L431.74 145.309" fill="#733623"/>
    <path d="M409.43 177H481.43V281.39C481.43 282.272 481.256 283.146 480.918 283.962C480.58 284.777 480.085 285.518 479.461 286.142C478.837 286.766 478.097 287.261 477.281 287.598C476.466 287.936 475.592 288.11 474.71 288.11H410.71C409.827 288.11 408.953 287.936 408.138 287.598C407.323 287.261 406.582 286.766 405.958 286.142C405.334 285.518 404.839 284.777 404.501 283.962C404.164 283.146 403.99 282.272 403.99 281.39V182.46C404 181.019 404.576 179.639 405.593 178.618C406.611 177.597 407.988 177.016 409.43 177Z" fill="#3A7EE4"/>
    <path d="M472.36 237.109L507.58 231.109L500.87 191.769C500.073 187.099 497.454 182.937 493.589 180.198C489.725 177.458 484.93 176.365 480.26 177.159C475.588 177.956 471.424 180.576 468.685 184.443C465.945 188.31 464.853 193.107 465.65 197.779L472.36 237.109Z" fill="#3A7EE4"/>
    <path d="M310.63 233.66C310.562 232.158 310.111 230.699 309.32 229.42C306.77 225.36 305.27 222.51 303.75 219.64C303.443 219.061 302.923 218.624 302.3 218.42L301.77 218.24C301.578 218.174 301.374 218.147 301.171 218.162C300.968 218.177 300.771 218.233 300.59 218.326C300.41 218.42 300.25 218.549 300.121 218.706C299.992 218.863 299.896 219.045 299.84 219.24C299.336 221.825 299.191 224.466 299.41 227.09L289 223.64L287.78 245L297.24 248.12C298.662 248.59 300.18 248.688 301.651 248.404C303.121 248.12 304.494 247.465 305.64 246.5C306.369 246.769 307.145 246.886 307.92 246.845C308.696 246.805 309.455 246.607 310.152 246.263C310.849 245.92 311.469 245.439 311.974 244.849C312.479 244.258 312.858 243.572 313.09 242.83L313.78 240.6C314.202 239.259 314.113 237.808 313.532 236.528C312.951 235.247 311.917 234.226 310.63 233.66Z" fill="#98492F"/>
    <path d="M290 253.07C292.272 253.994 294.714 254.426 297.166 254.337C299.617 254.247 302.021 253.638 304.22 252.55C302.633 236.616 301.047 220.686 299.46 204.76L288.09 205.76C288.757 221.533 289.393 237.303 290 253.07Z" fill="#1C4A45"/>
    <path d="M299.85 227.23C299.759 226.337 299.33 225.513 298.652 224.925C297.973 224.338 297.096 224.032 296.2 224.07L279.66 224.53C279.089 224.547 278.529 224.682 278.013 224.926C277.497 225.17 277.037 225.518 276.661 225.948C276.286 226.378 276.003 226.88 275.831 227.424C275.659 227.968 275.6 228.542 275.66 229.11C275.771 230.199 276.309 231.201 277.155 231.896C278.002 232.591 279.089 232.923 280.18 232.82L296.63 231.09C297.096 231.052 297.551 230.922 297.966 230.706C298.382 230.491 298.75 230.195 299.05 229.836C299.35 229.476 299.575 229.061 299.713 228.613C299.85 228.166 299.896 227.695 299.85 227.23Z" fill="#98492F"/>
    <path d="M299.11 233.66C299.009 232.799 298.583 232.009 297.92 231.451C297.256 230.894 296.405 230.611 295.54 230.66L281.72 231.33C281.17 231.355 280.632 231.493 280.138 231.735C279.644 231.978 279.206 232.319 278.85 232.739C278.495 233.158 278.229 233.647 278.071 234.173C277.913 234.7 277.864 235.254 277.93 235.8C277.986 236.324 278.145 236.831 278.397 237.293C278.65 237.755 278.991 238.163 279.402 238.493C279.813 238.823 280.285 239.068 280.79 239.215C281.296 239.362 281.826 239.408 282.35 239.35L296.08 237.45C296.529 237.404 296.965 237.269 297.361 237.053C297.758 236.836 298.108 236.543 298.39 236.19C298.672 235.838 298.881 235.432 299.004 234.998C299.128 234.563 299.164 234.108 299.11 233.66Z" fill="#98492F"/>
    <path d="M299.56 239.689C299.452 238.864 299.032 238.112 298.387 237.587C297.741 237.063 296.919 236.806 296.09 236.869L285.25 237.609C284.722 237.627 284.204 237.753 283.728 237.978C283.251 238.204 282.825 238.525 282.477 238.921C282.128 239.317 281.864 239.78 281.702 240.282C281.539 240.784 281.48 241.314 281.53 241.839C281.667 242.847 282.196 243.761 283.004 244.381C283.811 245.001 284.83 245.277 285.84 245.149L296.59 243.259C297.019 243.22 297.437 243.097 297.819 242.896C298.201 242.695 298.539 242.422 298.815 242.09C299.091 241.758 299.299 241.376 299.427 240.964C299.554 240.551 299.6 240.118 299.56 239.689Z" fill="#98492F"/>
    <path d="M300.57 244.26C300.477 243.451 300.078 242.707 299.456 242.181C298.833 241.655 298.034 241.387 297.22 241.43L288.51 242.79C287.999 242.825 287.5 242.963 287.044 243.196C286.587 243.428 286.183 243.751 285.855 244.145C285.527 244.538 285.282 244.994 285.135 245.485C284.988 245.976 284.942 246.491 285 247C285.113 247.992 285.614 248.899 286.393 249.523C287.173 250.147 288.167 250.437 289.16 250.33L297.78 247.82C298.622 247.718 299.389 247.285 299.912 246.618C300.435 245.95 300.672 245.102 300.57 244.26Z" fill="#98492F"/>
    <path d="M488.65 334.78C490.53 330.16 492.95 328.63 492.95 328.63C492.72 327.621 492.699 326.576 492.887 325.559C493.074 324.542 493.468 323.574 494.042 322.714C494.617 321.854 495.361 321.12 496.229 320.557C497.097 319.994 498.07 319.614 499.09 319.44L502.09 318.91C504.008 318.582 505.978 319 507.598 320.078C509.217 321.157 510.363 322.814 510.8 324.71V324.94C514.597 332.456 516.954 340.617 517.75 349C519.37 367 510.19 365.88 504.58 366C499.28 366.07 497.84 355.22 496.64 347.41L493.34 355.34C493.132 355.852 492.76 356.28 492.283 356.557C491.805 356.835 491.249 356.946 490.702 356.872C490.154 356.799 489.647 356.546 489.259 356.153C488.871 355.759 488.625 355.248 488.56 354.7L487.4 345.47C486.898 341.858 487.328 338.178 488.65 334.78Z" fill="#98492F"/>
    </g>
    <path d="M104.87 294.89L241.31 293.5C241.31 293.5 246.31 253.45 222.13 206.42C201.61 166.42 204.89 128.15 204.89 128.15L68.4501 129.54C68.4501 129.54 66.2401 177.31 87.3301 215.25C109.77 255.62 104.87 294.89 104.87 294.89Z" fill="#3A7EE4"/>
    <path d="M221.06 274.11C221.604 274.17 222.153 274.056 222.627 273.784C223.102 273.511 223.477 273.095 223.7 272.596C223.922 272.096 223.98 271.538 223.865 271.004C223.75 270.469 223.468 269.984 223.06 269.62L211.5 259.4C210.984 258.97 210.32 258.759 209.651 258.81C208.981 258.862 208.357 259.173 207.913 259.677C207.469 260.181 207.239 260.839 207.272 261.51C207.305 262.181 207.599 262.812 208.09 263.27L219.67 273.48C220.059 273.827 220.544 274.046 221.06 274.11Z" fill="white"/>
    <path d="M210.16 274.79C210.576 274.842 210.998 274.791 211.39 274.643C211.782 274.495 212.132 274.254 212.41 273.94L222.62 262.35C223.071 261.838 223.3 261.168 223.257 260.487C223.214 259.807 222.902 259.171 222.39 258.72C221.878 258.269 221.208 258.04 220.527 258.083C219.847 258.126 219.211 258.438 218.76 258.95L208.54 270.53C208.228 270.881 208.018 271.311 207.933 271.773C207.848 272.235 207.891 272.712 208.058 273.151C208.225 273.59 208.51 273.975 208.88 274.264C209.251 274.553 209.693 274.735 210.16 274.79Z" fill="white"/>
    <path d="M214.37 246.87C214.139 247.002 213.889 247.099 213.63 247.16C213.198 247.253 212.749 247.233 212.327 247.101C211.905 246.97 211.523 246.732 211.22 246.41L204.44 239.21C204.208 238.964 204.027 238.676 203.907 238.36C203.787 238.045 203.73 237.708 203.74 237.371C203.75 237.033 203.826 236.701 203.964 236.393C204.102 236.085 204.3 235.807 204.545 235.575C204.791 235.343 205.08 235.162 205.395 235.042C205.711 234.922 206.047 234.865 206.384 234.875C206.722 234.884 207.054 234.961 207.362 235.099C207.671 235.237 207.948 235.434 208.18 235.68L212.05 239.79L216.34 227.48C216.44 227.146 216.606 226.836 216.829 226.568C217.051 226.3 217.326 226.08 217.636 225.921C217.946 225.762 218.285 225.667 218.633 225.643C218.98 225.619 219.329 225.665 219.659 225.779C219.988 225.894 220.29 226.073 220.548 226.308C220.806 226.542 221.014 226.826 221.159 227.143C221.304 227.46 221.383 227.803 221.392 228.151C221.401 228.5 221.339 228.846 221.21 229.17L215.52 245.49C215.315 246.073 214.907 246.563 214.37 246.87Z" fill="white"/>
    <path d="M206 218.832C205.779 218.984 205.536 219.102 205.28 219.182C204.857 219.314 204.408 219.335 203.975 219.243C203.542 219.15 203.14 218.946 202.81 218.652L195.4 212.122C195.146 211.898 194.939 211.627 194.791 211.324C194.642 211.021 194.554 210.691 194.533 210.354C194.512 210.017 194.557 209.679 194.666 209.36C194.775 209.04 194.947 208.745 195.17 208.492C195.393 208.238 195.664 208.031 195.967 207.882C196.27 207.734 196.6 207.646 196.937 207.625C197.274 207.604 197.612 207.649 197.932 207.758C198.251 207.867 198.546 208.038 198.8 208.262L203.03 211.992L206.17 199.332C206.365 198.703 206.793 198.172 207.367 197.848C207.94 197.525 208.616 197.433 209.255 197.591C209.894 197.75 210.449 198.147 210.805 198.701C211.161 199.255 211.291 199.924 211.17 200.572L207 217.342C206.857 217.943 206.502 218.472 206 218.832Z" fill="white"/>
    <path d="M197 190.69C196.77 190.822 196.52 190.917 196.26 190.97C195.825 191.059 195.375 191.034 194.952 190.897C194.53 190.761 194.15 190.517 193.85 190.19L187.14 182.94C186.721 182.432 186.512 181.782 186.556 181.125C186.6 180.468 186.894 179.853 187.377 179.405C187.861 178.958 188.497 178.712 189.156 178.718C189.814 178.725 190.446 178.983 190.92 179.44L194.75 183.59L199.16 171.32C199.261 170.984 199.428 170.673 199.653 170.404C199.878 170.135 200.156 169.915 200.469 169.757C200.781 169.599 201.123 169.507 201.473 169.485C201.822 169.464 202.173 169.514 202.503 169.632C202.832 169.75 203.135 169.935 203.391 170.174C203.647 170.413 203.852 170.701 203.993 171.022C204.134 171.343 204.208 171.689 204.211 172.039C204.214 172.389 204.146 172.737 204.01 173.06L198.17 189.32C197.957 189.902 197.541 190.388 197 190.69Z" fill="white"/>
    <path d="M189.53 160.001C189.3 160.134 189.05 160.229 188.79 160.281C188.355 160.37 187.905 160.344 187.483 160.207C187.06 160.071 186.681 159.828 186.38 159.501L179.67 152.241C179.251 151.732 179.042 151.082 179.088 150.424C179.133 149.766 179.429 149.15 179.914 148.703C180.399 148.257 181.037 148.013 181.696 148.021C182.356 148.03 182.987 148.292 183.46 148.751L187.29 152.891L191.7 140.631C191.931 139.99 192.407 139.466 193.024 139.175C193.641 138.884 194.348 138.851 194.99 139.081C195.632 139.312 196.156 139.788 196.446 140.405C196.737 141.022 196.771 141.729 196.54 142.371L190.7 158.631C190.483 159.211 190.069 159.697 189.53 160.001Z" fill="white"/>
    <path d="M88.6398 163.461C88.7663 163.471 88.8934 163.471 89.0198 163.461L173.29 161.351C173.946 161.297 174.558 160.994 174.998 160.504C175.438 160.013 175.674 159.373 175.657 158.715C175.641 158.056 175.373 157.429 174.908 156.961C174.444 156.494 173.818 156.222 173.16 156.201L88.8898 158.311C88.2492 158.342 87.643 158.61 87.1893 159.063C86.7356 159.516 86.4669 160.122 86.4357 160.763C86.4045 161.403 86.6129 162.032 87.0204 162.528C87.4279 163.023 88.0052 163.349 88.6398 163.441V163.461Z" fill="white"/>
    <path d="M96.5598 193.84H96.9298L181.2 191.73C181.856 191.677 182.467 191.375 182.908 190.885C183.349 190.396 183.586 189.757 183.57 189.098C183.555 188.44 183.288 187.813 182.825 187.344C182.362 186.876 181.738 186.603 181.08 186.58L96.7998 188.69C96.1365 188.686 95.4976 188.939 95.0166 189.396C94.5355 189.853 94.2496 190.477 94.2186 191.14C94.1876 191.802 94.414 192.451 94.8503 192.951C95.2866 193.45 95.8991 193.762 96.5598 193.82V193.84Z" fill="white"/>
    <path d="M108.49 222.561C108.616 222.571 108.744 222.571 108.87 222.561L190.5 220.131C190.838 220.121 191.17 220.045 191.478 219.907C191.786 219.769 192.064 219.571 192.295 219.326C192.527 219.08 192.708 218.791 192.828 218.476C192.948 218.16 193.005 217.824 192.995 217.486C192.985 217.149 192.909 216.817 192.771 216.509C192.632 216.201 192.435 215.923 192.189 215.691C191.944 215.459 191.655 215.278 191.339 215.158C191.024 215.038 190.688 214.981 190.35 214.991L108.72 217.421C108.058 217.42 107.421 217.675 106.942 218.133C106.463 218.59 106.179 219.215 106.149 219.876C106.119 220.538 106.346 221.185 106.782 221.684C107.219 222.182 107.83 222.493 108.49 222.551V222.561Z" fill="white"/>
    <path d="M118.77 249.442H119.14L199.9 247.442C200.238 247.433 200.57 247.358 200.879 247.221C201.187 247.084 201.466 246.888 201.698 246.643C201.931 246.398 202.113 246.11 202.234 245.795C202.356 245.48 202.414 245.144 202.405 244.807C202.397 244.469 202.322 244.137 202.185 243.828C202.048 243.52 201.851 243.241 201.606 243.008C201.362 242.776 201.074 242.594 200.759 242.472C200.444 242.351 200.108 242.293 199.77 242.302L119.01 244.302C118.347 244.298 117.708 244.551 117.227 245.008C116.746 245.464 116.46 246.089 116.429 246.751C116.398 247.414 116.624 248.063 117.061 248.562C117.497 249.062 118.11 249.373 118.77 249.432V249.442Z" fill="white"/>
    <path d="M123.32 272.74H123.7L202.11 270.74C202.792 270.723 203.438 270.436 203.908 269.942C204.378 269.448 204.632 268.787 204.615 268.105C204.598 267.424 204.31 266.777 203.816 266.307C203.322 265.837 202.662 265.583 201.98 265.6L123.57 267.6C122.929 267.631 122.323 267.899 121.869 268.352C121.416 268.805 121.147 269.411 121.116 270.052C121.085 270.692 121.293 271.322 121.701 271.817C122.108 272.312 122.685 272.638 123.32 272.73V272.74Z" fill="white"/>
    </g>
    <defs>
    <clipPath id="clip0_2739_44258">
    <rect width="594" height="416.001" fill="white"/>
    </clipPath>
    </defs>
    </svg>
    