<svg width="583" height="423" viewBox="0 0 583 423" fill="none" xmlns="http://www.w3.org/2000/svg">
    <g clip-path="url(#clip0_2739_44227)">
    <g opacity="0.47">
    <path opacity="0.47" d="M583 0H0V380H583V0Z" fill="#6FF8DC"/>
    </g>
    <path d="M456 294.159C459.46 294.159 459.46 288.789 456 288.789C452.54 288.789 452.54 294.159 456 294.159Z" fill="#1F2C31"/>
    <path d="M482.7 324.24H255.59V366.54H482.7V324.24Z" fill="#A9CAFF"/>
    <path d="M428.89 281.939H262.89V324.239H428.89V281.939Z" fill="#005BCF"/>
    <path d="M428.9 289.551H270.78V316.611H428.9V289.551Z" fill="#EAEAE8"/>
    <path d="M456.04 366.551H228.93V408.851H456.04V366.551Z" fill="#007DFF"/>
    <path d="M262.89 369.609H239.72V405.789H262.89V369.609Z" fill="#A9CAFF"/>
    <path d="M445.24 369.609H422.07V405.789H445.24V369.609Z" fill="#A9CAFF"/>
    <path opacity="0.5" d="M475.39 329.35H262.89V361.43H475.39V329.35Z" fill="#007DFF"/>
    <path d="M339.94 294.159C343.39 294.159 343.4 288.789 339.94 288.789C336.48 288.789 336.48 294.159 339.94 294.159Z" fill="#1F2C31"/>
    <path d="M366.61 324.24H139.5V366.54H366.61V324.24Z" fill="#A9CAFF"/>
    <path d="M312.8 281.939H146.8V324.239H312.8V281.939Z" fill="#005BCF"/>
    <path d="M312.81 289.551H154.69V316.611H312.81V289.551Z" fill="#EAEAE8"/>
    <path d="M339.94 366.551H112.83V408.851H339.94V366.551Z" fill="#007DFF"/>
    <path d="M146.8 369.609H123.63V405.789H146.8V369.609Z" fill="#A9CAFF"/>
    <path d="M329.15 369.609H305.98V405.789H329.15V369.609Z" fill="#A9CAFF"/>
    <path opacity="0.5" d="M359.3 329.35H146.8V361.43H359.3V329.35Z" fill="#007DFF"/>
    <path d="M375.58 87.8301H207.64C196.5 87.8301 187.47 96.8605 187.47 108V402.09C187.47 413.23 196.5 422.26 207.64 422.26H375.58C386.72 422.26 395.75 413.23 395.75 402.09V108C395.75 96.8605 386.72 87.8301 375.58 87.8301Z" fill="#040B0A"/>
    <path d="M371.89 94.2305H211.33C201.488 94.2305 193.51 102.209 193.51 112.05V397.54C193.51 407.382 201.488 415.36 211.33 415.36H371.89C381.732 415.36 389.71 407.382 389.71 397.54V112.05C389.71 102.209 381.732 94.2305 371.89 94.2305Z" fill="white"/>
    <path d="M249.35 92.4102H336.12V96.9302C336.112 99.3419 335.147 101.652 333.437 103.353C331.727 105.053 329.412 106.005 327 106H258.46C256.047 106 253.732 105.041 252.025 103.335C250.319 101.628 249.36 99.3136 249.36 96.9002V92.4102H249.35Z" fill="#040B0A"/>
    <path d="M249.74 348.951L242.19 327.371L219.31 327.221L269.08 257.551L299.51 279.291L249.74 348.951Z" fill="#007DFF"/>
    <path d="M336.98 348.951L344.54 327.371L367.41 327.221L317.64 257.551L287.21 279.291L336.98 348.951Z" fill="#007DFF"/>
    <path d="M361.15 247.249C361.15 254.139 352.37 259.549 350.36 265.759C348.26 272.209 352.1 281.759 348.21 287.089C344.32 292.419 334 291.789 328.57 295.719C323.14 299.649 320.76 309.639 314.32 311.719C308.1 313.719 300.25 307.149 293.32 307.149C286.39 307.149 278.58 313.729 272.37 311.719C265.93 309.629 263.47 299.609 258.11 295.719C252.75 291.829 242.42 292.499 238.48 287.089C234.54 281.679 238.48 272.209 236.33 265.759C234.33 259.549 225.54 254.139 225.54 247.249C225.54 240.359 234.31 234.949 236.33 228.729C238.43 222.289 234.58 212.729 238.48 207.399C242.38 202.069 252.7 202.719 258.11 198.779C263.52 194.839 265.93 184.859 272.37 182.779C278.58 180.779 286.43 187.349 293.32 187.349C300.21 187.349 308.06 180.759 314.32 182.779C320.76 184.869 323.22 194.879 328.57 198.779C333.92 202.679 344.26 201.989 348.21 207.399C352.16 212.809 348.26 222.289 350.36 228.729C352.37 234.999 361.15 240.359 361.15 247.249Z" fill="#005BCF"/>
    <path d="M336.54 247.25C336.54 255.791 334.007 264.139 329.263 271.24C324.518 278.341 317.774 283.875 309.884 287.143C301.994 290.412 293.312 291.267 284.936 289.601C276.56 287.935 268.866 283.822 262.827 277.783C256.788 271.744 252.676 264.05 251.01 255.674C249.344 247.298 250.199 238.616 253.467 230.726C256.735 222.836 262.27 216.092 269.37 211.347C276.471 206.603 284.82 204.07 293.36 204.07C299.031 204.069 304.646 205.185 309.886 207.355C315.125 209.524 319.886 212.705 323.896 216.715C327.906 220.724 331.086 225.485 333.256 230.724C335.425 235.964 336.541 241.579 336.54 247.25Z" fill="#007DFF"/>
    <path d="M294.73 251.51H298.35C299.382 251.51 300.404 251.307 301.358 250.912C302.311 250.517 303.178 249.938 303.908 249.208C304.638 248.478 305.217 247.612 305.612 246.658C306.007 245.705 306.21 244.683 306.21 243.65H302.6C300.514 243.65 298.514 244.478 297.039 245.952C295.563 247.426 294.733 249.425 294.73 251.51Z" fill="white"/>
    <path d="M315.09 264.999C313.368 263.29 311.169 262.143 308.782 261.709C306.395 261.275 303.933 261.575 301.72 262.569C298.786 263.882 295.535 264.316 292.36 263.819V237.219C290.273 237.219 288.271 238.048 286.795 239.524C285.319 241 284.49 243.002 284.49 245.089V260.359C281.294 257.828 279.133 254.217 278.413 250.204C277.693 246.192 278.464 242.054 280.581 238.57C282.698 235.086 286.014 232.495 289.907 231.285C293.8 230.075 298.001 230.329 301.72 231.999C303.933 232.993 306.395 233.293 308.782 232.859C311.169 232.425 313.368 231.278 315.09 229.569L313.86 228.349C309.204 223.682 302.989 220.897 296.407 220.528C289.825 220.159 283.339 222.232 278.19 226.349C277.418 226.975 276.68 227.643 275.98 228.349C273.478 230.838 271.495 233.799 270.148 237.061C268.8 240.323 268.114 243.82 268.13 247.349C268.135 250.855 268.833 254.325 270.183 257.56C271.534 260.795 273.511 263.731 276 266.199C276.698 266.908 277.436 267.575 278.21 268.199C283.361 272.31 289.847 274.379 296.427 274.01C303.007 273.641 309.22 270.86 313.88 266.199L315.11 264.969L315.09 264.999Z" fill="white"/>
    </g>
    <defs>
    <clipPath id="clip0_2739_44227">
    <rect width="583" height="423" fill="white"/>
    </clipPath>
    </defs>
    </svg>
    