<svg width="423" height="397" viewBox="0 0 423 397" fill="none" xmlns="http://www.w3.org/2000/svg">
    <g clip-path="url(#clip0_3134_25270)">
        <path d="M225.2 188.828H158.47V263.998H225.2V188.828Z" fill="#58595B" />
        <path d="M225.77 264.582H157.89V188.262H225.77V264.582ZM159 263.432H224.58V189.432H159V263.432Z"
            fill="#58595B" />
        <path d="M225.2 188.828H158.47V220.868H225.2V188.828Z" fill="#929497" />
        <path
            d="M329.63 1.67969H54.0296C50.7767 1.67969 48.1396 4.31673 48.1396 7.56969V203.45C48.1396 206.703 50.7767 209.34 54.0296 209.34H329.63C332.883 209.34 335.52 206.703 335.52 203.45V7.56969C335.52 4.31673 332.883 1.67969 329.63 1.67969Z"
            fill="#929497" stroke="#404041" stroke-miterlimit="10" />
        <path
            d="M329.13 209.91H54.54C52.6835 209.91 50.9031 209.173 49.5903 207.86C48.2775 206.547 47.54 204.767 47.54 202.91V8.07031C47.54 6.2138 48.2775 4.43332 49.5903 3.12056C50.9031 1.80781 52.6835 1.07031 54.54 1.07031H329.13C330.987 1.07031 332.767 1.80781 334.08 3.12056C335.393 4.43332 336.13 6.2138 336.13 8.07031V203C336.106 204.841 335.358 206.599 334.048 207.892C332.738 209.185 330.971 209.91 329.13 209.91ZM54.54 2.25031C52.9973 2.25296 51.5185 2.86698 50.4276 3.95787C49.3367 5.04876 48.7227 6.52756 48.72 8.07031V203C48.7227 204.542 49.337 206.02 50.4282 207.109C51.5194 208.198 52.9982 208.81 54.54 208.81H329.13C330.67 208.808 332.146 208.195 333.235 207.106C334.324 206.017 334.937 204.54 334.94 203V8.07031C334.94 6.52848 334.328 5.04966 333.239 3.95848C332.15 2.86731 330.672 2.25296 329.13 2.25031H54.54Z"
            fill="#929497" stroke="#404041" stroke-miterlimit="10" />
        <path d="M330.3 12.3281H53.3604V182.868H330.3V12.3281Z" fill="white" />
        <path d="M330.88 183.442H52.79V11.7617H330.88V183.442ZM53.94 182.292H329.73V12.9117H53.94V182.292Z"
            fill="white" />
        <path
            d="M255.35 20.1289H130.88C127.295 20.1289 124.39 23.0346 124.39 26.6189V26.6289C124.39 30.2132 127.295 33.1189 130.88 33.1189H255.35C258.934 33.1189 261.84 30.2132 261.84 26.6289V26.6189C261.84 23.0346 258.934 20.1289 255.35 20.1289Z"
            fill="#DCFDF7" />
        <path
            d="M187.79 44.6406H133.22C130.646 44.6406 128.56 46.727 128.56 49.3006V71.9306C128.56 74.5043 130.646 76.5906 133.22 76.5906H187.79C190.363 76.5906 192.45 74.5043 192.45 71.9306V49.3006C192.45 46.727 190.363 44.6406 187.79 44.6406Z"
            fill="#DCFDF7" />
        <path
            d="M256.65 44.6406H202.08C199.506 44.6406 197.42 46.727 197.42 49.3006V71.9306C197.42 74.5043 199.506 76.5906 202.08 76.5906H256.65C259.224 76.5906 261.31 74.5043 261.31 71.9306V49.3006C261.31 46.727 259.224 44.6406 256.65 44.6406Z"
            fill="#DCFDF7" />
        <path
            d="M259.33 90.0508H136.17C132.481 90.0508 129.49 93.0415 129.49 96.7308V114.151C129.49 117.84 132.481 120.831 136.17 120.831H259.33C263.019 120.831 266.01 117.84 266.01 114.151V96.7308C266.01 93.0415 263.019 90.0508 259.33 90.0508Z"
            fill="#DCFDF7" />
        <path
            d="M259.6 132.91H136.44C132.75 132.91 129.76 135.901 129.76 139.59V157.01C129.76 160.699 132.75 163.69 136.44 163.69H259.6C263.289 163.69 266.28 160.699 266.28 157.01V139.59C266.28 135.901 263.289 132.91 259.6 132.91Z"
            fill="#DCFDF7" />
        <path d="M346.29 264.469H50.7197V265.179H346.29V264.469Z" fill="#102048" />
        <path
            d="M210.2 243.541L346.65 242.151C346.65 242.151 351.65 202.151 327.46 155.071C306.94 115.071 310.23 76.8008 310.23 76.8008L173.78 78.1908C173.78 78.1908 171.57 126.001 192.66 163.901C215.11 204.271 210.2 243.541 210.2 243.541Z"
            fill="#F4D556" />
        <path
            d="M326.4 219.758C326.946 219.825 327.5 219.715 327.979 219.444C328.458 219.173 328.837 218.756 329.061 218.253C329.285 217.75 329.342 217.189 329.223 216.652C329.104 216.114 328.816 215.629 328.4 215.268L316.82 205.058C316.571 204.81 316.274 204.615 315.946 204.485C315.619 204.356 315.269 204.295 314.917 204.306C314.565 204.317 314.219 204.4 313.901 204.55C313.582 204.699 313.297 204.913 313.064 205.177C312.831 205.44 312.655 205.749 312.545 206.084C312.436 206.418 312.397 206.772 312.429 207.122C312.461 207.473 312.565 207.813 312.734 208.122C312.903 208.431 313.133 208.702 313.41 208.918L325 219.138C325.396 219.478 325.883 219.694 326.4 219.758Z"
            fill="#CC5A44" />
        <path
            d="M315.5 220.44C315.914 220.492 316.335 220.442 316.726 220.293C317.116 220.145 317.464 219.904 317.74 219.59L328 208C328.405 207.481 328.597 206.827 328.536 206.171C328.474 205.516 328.164 204.908 327.67 204.474C327.175 204.039 326.533 203.81 325.875 203.834C325.217 203.857 324.593 204.131 324.13 204.6L313.92 216.19C313.607 216.54 313.396 216.97 313.311 217.431C313.226 217.893 313.269 218.369 313.436 218.808C313.604 219.247 313.888 219.631 314.259 219.919C314.63 220.207 315.074 220.387 315.54 220.44H315.5Z"
            fill="#CC5A44" />
        <path
            d="M319.7 195.52C319.472 195.659 319.222 195.757 318.96 195.81C318.528 195.902 318.079 195.881 317.657 195.75C317.235 195.619 316.854 195.381 316.55 195.06L309.77 187.86C309.351 187.355 309.139 186.709 309.18 186.054C309.22 185.398 309.508 184.783 309.986 184.333C310.465 183.883 311.096 183.632 311.753 183.631C312.409 183.631 313.041 183.881 313.52 184.33L317.39 188.44L321.68 176.13C321.791 175.811 321.964 175.517 322.189 175.264C322.413 175.012 322.685 174.806 322.99 174.659C323.294 174.512 323.624 174.426 323.961 174.407C324.298 174.387 324.636 174.434 324.955 174.545C325.274 174.656 325.569 174.829 325.821 175.053C326.073 175.278 326.279 175.55 326.426 175.854C326.573 176.158 326.659 176.489 326.679 176.826C326.698 177.163 326.651 177.501 326.54 177.82L320.86 194.14C320.651 194.724 320.24 195.214 319.7 195.52Z"
            fill="#2A2C5E" />
        <path
            d="M311.35 167.48C311.131 167.63 310.892 167.748 310.64 167.83C310.217 167.962 309.768 167.983 309.335 167.891C308.902 167.798 308.501 167.594 308.17 167.3L300.75 160.77C300.496 160.546 300.289 160.275 300.141 159.972C299.992 159.669 299.904 159.339 299.883 159.002C299.862 158.665 299.907 158.327 300.016 158.008C300.125 157.688 300.297 157.393 300.52 157.14C300.743 156.886 301.014 156.679 301.317 156.53C301.621 156.382 301.95 156.294 302.287 156.273C302.624 156.251 302.962 156.297 303.282 156.406C303.601 156.515 303.896 156.686 304.15 156.91L308.39 160.64L311.52 148C311.715 147.371 312.143 146.84 312.717 146.516C313.29 146.193 313.966 146.101 314.605 146.259C315.244 146.418 315.799 146.815 316.155 147.369C316.511 147.923 316.641 148.592 316.52 149.24L312.37 166C312.218 166.599 311.856 167.125 311.35 167.48Z"
            fill="#2A2C5E" />
        <path
            d="M302.35 139.339C302.117 139.473 301.864 139.568 301.6 139.619C301.168 139.707 300.72 139.683 300.299 139.548C299.879 139.413 299.5 139.172 299.2 138.849L292.49 131.589C292.071 131.08 291.862 130.431 291.906 129.774C291.95 129.117 292.244 128.501 292.728 128.054C293.211 127.606 293.847 127.361 294.506 127.367C295.164 127.374 295.796 127.632 296.27 128.089L300.1 132.239L304.5 119.999C304.756 119.39 305.235 118.902 305.84 118.636C306.445 118.37 307.128 118.346 307.75 118.57C308.372 118.793 308.884 119.246 309.182 119.835C309.479 120.425 309.54 121.106 309.35 121.739L303.51 137.999C303.295 138.569 302.883 139.044 302.35 139.339Z"
            fill="#2A2C5E" />
        <path
            d="M294.86 108.662C294.63 108.794 294.38 108.889 294.12 108.942C293.685 109.031 293.234 109.006 292.812 108.869C292.39 108.732 292.01 108.489 291.71 108.162L285 100.902C284.537 100.4 284.292 99.7358 284.319 99.0541C284.347 98.3724 284.643 97.7294 285.145 97.2666C285.646 96.8038 286.311 96.5591 286.992 96.5863C287.674 96.6135 288.317 96.9104 288.78 97.4116L292.61 101.562L297 89.2916C297.256 88.6827 297.735 88.1951 298.34 87.9292C298.944 87.6633 299.628 87.6395 300.25 87.8625C300.871 88.0855 301.384 88.5385 301.681 89.1281C301.979 89.7177 302.039 90.399 301.85 91.0316L296 107.292C295.797 107.871 295.392 108.357 294.86 108.662Z"
            fill="#2A2C5E" />
        <path
            d="M194 112.112C194.123 112.121 194.247 112.121 194.37 112.112L278.62 110.002C279.276 109.948 279.887 109.646 280.328 109.157C280.768 108.667 281.005 108.028 280.99 107.37C280.975 106.712 280.708 106.084 280.245 105.616C279.782 105.148 279.158 104.874 278.5 104.852L194.22 107.002C193.556 106.998 192.918 107.251 192.436 107.707C191.955 108.164 191.67 108.789 191.639 109.451C191.608 110.114 191.834 110.763 192.27 111.262C192.706 111.762 193.319 112.073 193.98 112.132L194 112.112Z"
            fill="#151947" />
        <path
            d="M201.89 142.49C202.016 142.501 202.143 142.501 202.27 142.49L286.54 140.38C287.196 140.326 287.807 140.023 288.248 139.533C288.688 139.043 288.924 138.403 288.907 137.744C288.891 137.085 288.623 136.458 288.158 135.991C287.694 135.523 287.068 135.251 286.41 135.23L202.14 137.34C201.499 137.371 200.893 137.639 200.439 138.092C199.986 138.545 199.717 139.151 199.686 139.792C199.654 140.433 199.863 141.062 200.27 141.557C200.678 142.052 201.255 142.378 201.89 142.47V142.49Z"
            fill="#151947" />
        <path
            d="M213.82 171.21H214.21L295.83 168.78C296.18 168.789 296.529 168.727 296.855 168.597C297.181 168.466 297.476 168.271 297.724 168.023C297.972 167.774 298.166 167.478 298.295 167.152C298.424 166.826 298.486 166.477 298.476 166.126C298.465 165.775 298.384 165.431 298.236 165.112C298.088 164.794 297.876 164.51 297.615 164.276C297.353 164.043 297.047 163.865 296.714 163.754C296.381 163.643 296.029 163.601 295.68 163.63L214.05 166.06C213.41 166.094 212.806 166.365 212.355 166.82C211.904 167.275 211.639 167.881 211.61 168.521C211.581 169.161 211.792 169.788 212.2 170.282C212.609 170.775 213.186 171.099 213.82 171.19V171.21Z"
            fill="#151947" />
        <path
            d="M224.1 198.091C224.226 198.102 224.353 198.102 224.48 198.091L305.23 196.091C305.886 196.038 306.497 195.736 306.938 195.247C307.379 194.757 307.616 194.118 307.6 193.46C307.585 192.801 307.318 192.174 306.855 191.706C306.392 191.238 305.768 190.964 305.11 190.941L224.35 192.941C223.709 192.972 223.103 193.24 222.649 193.693C222.196 194.146 221.927 194.752 221.896 195.393C221.864 196.033 222.073 196.663 222.48 197.158C222.888 197.653 223.465 197.979 224.1 198.071V198.091Z"
            fill="#151947" />
        <path
            d="M228.65 221.391C228.776 221.401 228.903 221.401 229.03 221.391L307.44 219.391C307.777 219.382 308.11 219.307 308.418 219.17C308.727 219.033 309.005 218.837 309.238 218.592C309.47 218.347 309.653 218.059 309.774 217.744C309.895 217.429 309.953 217.093 309.945 216.756C309.936 216.418 309.861 216.086 309.724 215.777C309.587 215.469 309.391 215.19 309.146 214.958C308.901 214.725 308.613 214.543 308.298 214.422C307.983 214.3 307.647 214.242 307.31 214.251L228.9 216.251C228.259 216.281 227.653 216.549 227.199 217.003C226.745 217.456 226.477 218.062 226.445 218.702C226.414 219.343 226.623 219.972 227.03 220.467C227.438 220.962 228.015 221.288 228.65 221.381V221.391Z"
            fill="#151947" />
        <path d="M142.63 114.449H8.01953V305.169H142.63V114.449Z" fill="#95F9E5" />
        <path d="M26.4302 322.93L20.0602 312.54L10.7002 320.35L20.3302 261.73L36.0502 264.32L26.4302 322.93Z"
            fill="#CC5A44" />
        <path d="M30.9404 269.62L40.7004 328.21L47.0404 317.81L56.4104 325.6L46.6504 267L30.9404 269.62Z"
            fill="#CC5A44" />
        <path
            d="M66.2499 267.438C66.2499 270.828 63.2499 273.698 62.2499 276.748C61.2499 279.798 61.9199 283.988 59.9999 286.628C58.0799 289.268 53.9999 289.878 51.2999 291.818C48.5999 293.758 46.8399 297.468 43.6799 298.488C40.5199 299.508 36.9699 297.568 33.5899 297.568C30.2099 297.568 26.5899 299.488 23.4899 298.488C20.3899 297.488 18.4899 293.738 15.8699 291.818C13.2499 289.898 9.10992 289.288 7.16992 286.628C5.22992 283.968 5.94992 279.918 4.91992 276.748C3.88992 273.578 0.919922 270.828 0.919922 267.438C0.919922 264.048 3.91992 261.178 4.91992 258.118C5.91992 255.058 5.25992 250.878 7.16992 248.248C9.07992 245.618 13.1699 244.988 15.8699 243.058C18.5699 241.128 20.3299 237.408 23.4899 236.378C26.6499 235.348 30.1999 237.298 33.5899 237.298C36.9799 237.298 40.5899 235.388 43.6799 236.378C46.7699 237.368 48.6799 241.138 51.2999 243.058C53.9199 244.978 58.0599 245.588 59.9999 248.248C61.9399 250.908 61.2199 254.958 62.2499 258.118C63.2799 261.278 66.2499 264.048 66.2499 267.438Z"
            fill="#F4D556" />
        <path
            d="M59.1898 267.439C59.1918 272.501 57.6923 277.45 54.8812 281.66C52.0701 285.87 48.0736 289.151 43.3973 291.09C38.7209 293.028 33.5748 293.535 28.6099 292.548C23.645 291.561 19.0843 289.124 15.5049 285.544C11.9255 281.965 9.48807 277.404 8.50099 272.439C7.51392 267.474 8.02153 262.328 9.95961 257.652C11.8977 252.976 15.1792 248.979 19.389 246.168C23.5988 243.357 28.5477 241.857 33.6098 241.859C40.394 241.859 46.9004 244.554 51.6976 249.352C56.4947 254.149 59.1898 260.655 59.1898 267.439Z"
            fill="#E2BE27" />
        <path
            d="M33.38 241.86C27.9127 241.908 22.6046 243.706 18.234 246.991C13.8635 250.276 10.6605 254.875 9.09477 260.113C7.52903 265.352 7.68296 270.954 9.53396 276.099C11.385 281.244 14.8356 285.66 19.38 288.7C33.47 285.09 43.68 274.43 43.68 261.84C43.68 254.03 39.75 246.96 33.39 241.84"
            fill="#F4D556" />
        <path
            d="M127 168.281H20.3799C19.9821 168.281 19.6005 168.123 19.3192 167.842C19.0379 167.561 18.8799 167.179 18.8799 166.781C18.8799 166.383 19.0379 166.002 19.3192 165.721C19.6005 165.439 19.9821 165.281 20.3799 165.281H127C127.398 165.281 127.779 165.439 128.061 165.721C128.342 166.002 128.5 166.383 128.5 166.781C128.5 167.179 128.342 167.561 128.061 167.842C127.779 168.123 127.398 168.281 127 168.281Z"
            fill="#2B388F" />
        <path
            d="M127 184.859H20.3799C19.9821 184.859 19.6005 184.701 19.3192 184.42C19.0379 184.139 18.8799 183.757 18.8799 183.359C18.8799 182.962 19.0379 182.58 19.3192 182.299C19.6005 182.017 19.9821 181.859 20.3799 181.859H127C127.398 181.859 127.779 182.017 128.061 182.299C128.342 182.58 128.5 182.962 128.5 183.359C128.5 183.757 128.342 184.139 128.061 184.42C127.779 184.701 127.398 184.859 127 184.859Z"
            fill="#2B388F" />
        <path
            d="M127 201.441H20.3799C19.9821 201.441 19.6005 201.283 19.3192 201.002C19.0379 200.721 18.8799 200.339 18.8799 199.941C18.8799 199.544 19.0379 199.162 19.3192 198.881C19.6005 198.599 19.9821 198.441 20.3799 198.441H127C127.398 198.441 127.779 198.599 128.061 198.881C128.342 199.162 128.5 199.544 128.5 199.941C128.5 200.339 128.342 200.721 128.061 201.002C127.779 201.283 127.398 201.441 127 201.441Z"
            fill="#2B388F" />
        <path
            d="M127 218H20.3799C19.9821 218 19.6005 217.842 19.3192 217.561C19.0379 217.279 18.8799 216.898 18.8799 216.5C18.8799 216.102 19.0379 215.721 19.3192 215.439C19.6005 215.158 19.9821 215 20.3799 215H127C127.398 215 127.779 215.158 128.061 215.439C128.342 215.721 128.5 216.102 128.5 216.5C128.5 216.898 128.342 217.279 128.061 217.561C127.779 217.842 127.398 218 127 218Z"
            fill="#2B388F" />
        <path
            d="M126.79 263.23H73.4502C73.0524 263.23 72.6708 263.072 72.3895 262.791C72.1082 262.51 71.9502 262.128 71.9502 261.73C71.9502 261.333 72.1082 260.951 72.3895 260.67C72.6708 260.388 73.0524 260.23 73.4502 260.23H126.79C127.188 260.23 127.57 260.388 127.851 260.67C128.132 260.951 128.29 261.333 128.29 261.73C128.29 262.128 128.132 262.51 127.851 262.791C127.57 263.072 127.188 263.23 126.79 263.23Z"
            fill="#2B388F" />
        <path
            d="M126.79 279H73.4502C73.0524 279 72.6708 278.842 72.3895 278.561C72.1082 278.279 71.9502 277.898 71.9502 277.5C71.9502 277.102 72.1082 276.721 72.3895 276.439C72.6708 276.158 73.0524 276 73.4502 276H126.79C127.188 276 127.57 276.158 127.851 276.439C128.132 276.721 128.29 277.102 128.29 277.5C128.29 277.898 128.132 278.279 127.851 278.561C127.57 278.842 127.188 279 126.79 279Z"
            fill="#2B388F" />
        <path
            d="M87.3598 237.399C84.4298 246.009 84.0998 255.449 87.9998 263.819C88.9998 265.989 91.8998 271.129 94.9998 268.979C99.2698 265.979 96.7298 257.649 96.2698 253.499C96.1198 252.249 96.0696 250.988 96.1198 249.729C96.2698 246.999 98.3298 247.459 99.5798 249.319C101.44 252.119 102.27 255.889 102.9 259.149C102.95 259.389 103.99 259.149 103.98 258.859C103.91 256.929 103.54 255.049 103.98 253.139C105.26 248.039 109.34 256.699 109.61 257.309C109.72 257.549 110.61 257.309 110.69 257.069C111.09 254.939 111.4 252.489 114.33 252.239C114.62 252.239 115.51 251.739 114.8 251.799C111.37 252.079 110.25 253.899 109.62 257.259L110.7 257.019C109.7 254.799 108.63 250.639 105.33 251.479C101.72 252.389 102.77 256.239 102.87 259.149L103.95 258.859C103.38 255.909 101.78 246.169 97.2398 246.969C93.2398 247.669 95.2998 255.089 95.6098 257.529C96.0098 260.649 96.6098 264.099 95.5498 267.139C94.0898 271.459 90.7498 266.569 89.7198 264.839C84.8298 256.629 85.4098 245.919 88.3798 237.219C88.4498 236.999 87.3798 237.119 87.3098 237.399H87.3598Z"
            fill="#2B388F" />
        <path
            d="M87.3701 140.34C87.3701 142.713 86.6663 145.033 85.3478 147.007C84.0292 148.98 82.155 150.518 79.9623 151.426C77.7696 152.335 75.3568 152.572 73.0291 152.109C70.7013 151.646 68.5631 150.503 66.8848 148.825C65.2066 147.147 64.0637 145.009 63.6007 142.681C63.1377 140.353 63.3753 137.94 64.2836 135.748C65.1918 133.555 66.7299 131.681 68.7033 130.362C70.6767 129.044 72.9967 128.34 75.3701 128.34C78.5527 128.34 81.605 129.604 83.8554 131.855C86.1058 134.105 87.3701 137.157 87.3701 140.34Z"
            fill="#2B388F" />
        <path
            d="M269.49 230.001C271.708 228.82 274.294 228.53 276.719 229.19C279.144 229.85 281.226 231.409 282.54 233.551L323.7 300.551L304.32 313.381L265.44 243.441C264.817 242.294 264.428 241.035 264.295 239.737C264.162 238.439 264.287 237.127 264.663 235.877C265.04 234.627 265.66 233.465 266.489 232.456C267.317 231.448 268.337 230.613 269.49 230.001Z"
            fill="#98492F" />
        <path
            d="M307.24 241.451C308.499 240.77 309.88 240.344 311.304 240.198C312.728 240.051 314.166 240.187 315.537 240.598C316.909 241.009 318.185 241.686 319.294 242.59C320.403 243.495 321.323 244.61 322 245.871L346.19 289.791C347.017 291.328 347.533 293.013 347.708 294.749C347.884 296.486 347.716 298.24 347.213 299.911C346.711 301.583 345.884 303.139 344.781 304.491C343.677 305.843 342.317 306.964 340.78 307.791C339.195 308.644 337.452 309.166 335.659 309.325C333.866 309.483 332.059 309.276 330.348 308.715C328.637 308.154 327.059 307.25 325.708 306.06C324.357 304.87 323.262 303.417 322.49 301.791L302.59 255.711C301.388 253.191 301.2 250.306 302.065 247.651C302.931 244.997 304.784 242.777 307.24 241.451Z"
            fill="#98492F" />
        <path
            d="M332.091 234.231C333.28 233.521 334.598 233.051 335.969 232.85C337.341 232.649 338.738 232.72 340.082 233.059C341.425 233.398 342.689 233.998 343.801 234.826C344.912 235.653 345.85 236.691 346.56 237.881L371.08 277.561C371.947 279.015 372.518 280.624 372.762 282.298C373.007 283.972 372.919 285.677 372.504 287.317C372.088 288.957 371.354 290.499 370.343 291.856C369.332 293.212 368.064 294.356 366.61 295.221C365.112 296.122 363.446 296.708 361.714 296.944C359.982 297.179 358.22 297.059 356.536 296.591C354.851 296.123 353.28 295.317 351.917 294.222C350.555 293.127 349.43 291.766 348.61 290.221L328.14 248.221C326.882 245.827 326.59 243.042 327.325 240.439C328.06 237.836 329.766 235.614 332.091 234.231Z"
            fill="#98492F" />
        <path
            d="M357.47 229.761C358.508 229.1 359.666 228.649 360.878 228.435C362.091 228.222 363.333 228.249 364.535 228.515C365.736 228.782 366.874 229.282 367.882 229.989C368.89 230.695 369.749 231.593 370.41 232.631L398.19 274.291C399 275.56 399.552 276.976 399.815 278.459C400.077 279.942 400.045 281.461 399.72 282.931C399.395 284.401 398.783 285.793 397.92 287.027C397.057 288.26 395.96 289.312 394.69 290.121C393.381 290.953 391.916 291.51 390.385 291.758C388.854 292.007 387.289 291.943 385.783 291.569C384.278 291.195 382.864 290.519 381.628 289.583C380.392 288.646 379.358 287.469 378.59 286.121L354.36 242.271C353.182 240.183 352.847 237.724 353.426 235.397C354.004 233.071 355.451 231.054 357.47 229.761Z"
            fill="#98492F" />
        <path
            d="M277.37 332.059C292.3 325.269 314.94 333.559 314.94 333.559L289.09 284.999L381.66 260.509C388.84 258.099 396.19 264.759 399.66 272.509L417.5 304.879C421.039 311.538 422.814 318.992 422.657 326.531C422.499 334.07 420.414 341.443 416.6 347.949C418.555 351.34 419.8 355.094 420.259 358.981C420.719 362.869 420.382 366.809 419.271 370.563C418.16 374.316 416.297 377.805 413.796 380.816C411.294 383.827 408.206 386.298 404.72 388.079L394.27 393.419C387.962 396.631 380.691 397.406 373.847 395.596C367.003 393.787 361.066 389.519 357.17 383.609C349.421 384.566 341.557 383.491 334.35 380.489C312.35 371.269 298.06 356.129 282.64 351.109C279.561 350.07 277.002 347.881 275.5 344.999L274.19 342.529C272.21 338.779 273.47 333.829 277.37 332.059Z"
            fill="#98492F" />
    </g>
    <defs>
        <clipPath id="clip0_3134_25270">
            <rect width="423" height="397" fill="white" />
        </clipPath>
    </defs>
</svg>