<svg width="375" height="500" viewBox="0 0 375 500" fill="none" xmlns="http://www.w3.org/2000/svg">
<g clip-path="url(#clip0_1294_57920)">
<rect width="375" height="500" fill="#FFF3E0"/>
<g opacity="0.08" clip-path="url(#clip1_1294_57920)">
<path d="M183.783 449.328V471.761C183.783 498.999 161.9 521.094 134.79 521.489V499.056C134.79 471.85 156.641 449.723 183.783 449.328Z" stroke="#E58C00" stroke-width="1.47678"/>
<path d="M126.739 497.658V520.092C99.6287 519.696 77.7461 497.568 77.7461 470.364V447.93C104.856 448.325 126.739 470.421 126.739 497.658Z" stroke="#E58C00" stroke-width="1.47678"/>
<path d="M-18.7941 499.055C-18.8265 471.851 3.05535 449.723 30.1986 449.328V471.761C30.1986 498.999 8.31625 521.094 -18.7941 521.489L-18.7941 499.056L-18.7941 499.055Z" stroke="#E58C00" stroke-width="1.47678"/>
<path d="M288.373 499.055C288.341 471.851 310.223 449.723 337.366 449.328V471.761C337.366 498.999 315.484 521.094 288.373 521.489L288.373 499.056L288.373 499.055Z" stroke="#E58C00" stroke-width="1.47678"/>
<path d="M231.33 470.365V470.364V447.93C258.44 448.325 280.322 470.421 280.322 497.658V520.092C253.179 519.697 231.297 497.568 231.33 470.365Z" stroke="#E58C00" stroke-width="1.47678"/>
<path d="M183.783 151.28V173.713C183.783 200.951 161.9 223.047 134.79 223.441V201.008C134.79 173.803 156.641 151.675 183.783 151.28Z" stroke="#E58C00" stroke-width="1.47678"/>
<path d="M170.974 281.088H95.7674H77.7789V232.093H124.821H141.92H156.298C183.502 232.093 205.628 253.945 206.023 281.088H170.974Z" stroke="#E58C00" stroke-width="1.47678"/>
<path d="M126.739 199.61V222.044C99.6287 221.649 77.7461 199.521 77.7461 172.316V149.882C104.856 150.277 126.739 172.373 126.739 199.61Z" stroke="#E58C00" stroke-width="1.47678"/>
<path d="M-18.7941 201.007C-18.8265 173.803 3.05535 151.675 30.1986 151.28V173.713C30.1986 200.951 8.31625 223.047 -18.7941 223.441L-18.7941 201.008L-18.7941 201.007Z" stroke="#E58C00" stroke-width="1.47678"/>
<path d="M17.3895 281.088H-57.8166H-75.7719V232.093H-28.7303H-11.6636H2.71354C29.9176 232.093 52.0444 253.945 52.4393 281.088H17.3895Z" stroke="#E58C00" stroke-width="1.47678"/>
<path d="M288.373 201.007C288.341 173.803 310.223 151.675 337.366 151.28V173.713C337.366 200.951 315.484 223.047 288.373 223.441L288.373 201.008L288.373 201.007Z" stroke="#E58C00" stroke-width="1.47678"/>
<path d="M324.557 281.088H249.351H231.396V232.093H278.437H295.504H309.881C337.085 232.093 359.212 253.945 359.607 281.088H324.557Z" stroke="#E58C00" stroke-width="1.47678"/>
<path d="M231.33 172.317V172.316V149.882C258.44 150.277 280.322 172.373 280.322 199.61V222.044C253.179 221.649 231.297 199.521 231.33 172.317Z" stroke="#E58C00" stroke-width="1.47678"/>
<path d="M95.8751 300.303V322.737C95.8751 349.974 73.9928 372.07 46.8824 372.465V350.031C46.8824 322.826 68.7332 300.698 95.8751 300.303Z" stroke="#E58C00" stroke-width="1.47678"/>
<path d="M83.0664 430.111H7.86026H-10.1282V381.116H36.9134H54.0133H68.3904C95.5945 381.116 117.721 402.968 118.116 430.111H83.0664Z" stroke="#E58C00" stroke-width="1.47678"/>
<path d="M38.8311 348.634V371.067C11.7211 370.672 -10.1616 348.544 -10.1616 321.339V298.906C16.9488 299.301 38.8311 321.397 38.8311 348.634Z" stroke="#E58C00" stroke-width="1.47678"/>
<path d="M403.043 300.303V322.737C403.043 349.974 381.16 372.07 354.05 372.465V350.031C354.05 322.826 375.901 300.698 403.043 300.303Z" stroke="#E58C00" stroke-width="1.47678"/>
<path d="M390.234 430.111H315.028H297.04V381.116H344.081H361.181H375.558C402.762 381.116 424.889 402.968 425.284 430.111H390.234Z" stroke="#E58C00" stroke-width="1.47678"/>
<path d="M345.999 348.634V371.067C318.889 370.672 297.006 348.544 297.006 321.339V298.906C324.117 299.301 345.999 321.397 345.999 348.634Z" stroke="#E58C00" stroke-width="1.47678"/>
<path d="M200.466 350.03C200.433 322.827 222.315 300.698 249.459 300.303V322.737C249.459 349.974 227.576 372.07 200.466 372.465L200.466 350.031L200.466 350.03Z" stroke="#E58C00" stroke-width="1.47678"/>
<path d="M236.65 430.111H161.444H143.489V381.116H190.53H207.597H221.974C249.178 381.116 271.305 402.968 271.7 430.111H236.65Z" stroke="#E58C00" stroke-width="1.47678"/>
<path d="M143.423 321.34V321.339V298.906C170.533 299.301 192.415 321.397 192.415 348.634V371.067C165.272 370.672 143.39 348.544 143.423 321.34Z" stroke="#E58C00" stroke-width="1.47678"/>
<path d="M95.8746 2.25548V24.6889C95.8746 51.9262 73.9922 74.0222 46.8819 74.4169V51.9835C46.8819 24.7781 68.7327 2.65031 95.8746 2.25548Z" stroke="#E58C00" stroke-width="1.47678"/>
<path d="M83.0659 132.062H7.85971H-10.1287V83.0675H36.9129H54.0127H68.3899C95.5939 83.0675 117.721 104.919 118.116 132.062H83.0659Z" stroke="#E58C00" stroke-width="1.47678"/>
<path d="M38.8306 50.586V73.0194C11.7205 72.6241 -10.1621 50.4962 -10.1621 23.2914V0.858019C16.9482 1.25274 38.8306 23.3487 38.8306 50.586Z" stroke="#E58C00" stroke-width="1.47678"/>
<path d="M403.042 2.25548V24.6889C403.042 51.9262 381.16 74.0222 354.049 74.4169V51.9835C354.049 24.7781 375.9 2.65031 403.042 2.25548Z" stroke="#E58C00" stroke-width="1.47678"/>
<path d="M390.234 132.062H315.028H297.039V83.0675H344.081H361.181H375.558C402.762 83.0675 424.889 104.919 425.284 132.062H390.234Z" stroke="#E58C00" stroke-width="1.47678"/>
<path d="M345.999 50.586V73.0194C318.888 72.6241 297.006 50.4962 297.006 23.2914V0.858019C324.116 1.25274 345.999 23.3487 345.999 50.586Z" stroke="#E58C00" stroke-width="1.47678"/>
<path d="M200.465 51.9826C200.433 24.7787 222.315 2.65031 249.458 2.25547V24.6889C249.458 51.9262 227.576 74.0222 200.465 74.4169L200.465 51.9835L200.465 51.9826Z" stroke="#E58C00" stroke-width="1.47678"/>
<path d="M236.65 132.062H161.443H143.488V83.0675H190.53H207.596H221.974C249.178 83.0675 271.305 104.919 271.699 132.062H236.65Z" stroke="#E58C00" stroke-width="1.47678"/>
<path d="M143.422 23.2923V23.2914V0.858019C170.533 1.25274 192.415 23.3487 192.415 50.586V73.0195C165.272 72.6246 143.39 50.4962 143.422 23.2923Z" stroke="#E58C00" stroke-width="1.47678"/>
</g>
</g>
<defs>
<clipPath id="clip0_1294_57920">
<rect width="375" height="500" fill="white"/>
</clipPath>
<clipPath id="clip1_1294_57920">
<rect width="375" height="500" fill="white"/>
</clipPath>
</defs>
</svg>
