<svg width="1440" height="480" viewBox="0 0 1440 480" fill="none" xmlns="http://www.w3.org/2000/svg">
<g clip-path="url(#clip0_873_46214)">
<rect width="1440" height="480" fill="#00194C"/>
<g opacity="0.03">
<path d="M785.139 -278.484L900.435 -153.752C1039.19 -3.64552 1029.07 231.074 878.215 370.542L762.919 245.811C624.332 95.8829 634.107 -138.849 785.139 -278.484Z" fill="url(#paint0_linear_873_46214)"/>
<path d="M835.667 395.942L720.371 271.21C581.619 121.104 346.852 112.793 196 252.262L311.296 376.993C449.883 526.921 684.815 535.411 835.667 395.942Z" fill="url(#paint1_linear_873_46214)"/>
<path d="M946.19 -161.68L1053.65 -45.4265C1182.97 94.4773 1173.54 313.242 1032.94 443.231L925.48 326.978C796.313 187.241 805.424 -31.536 946.19 -161.68Z" fill="url(#paint2_linear_873_46214)"/>
<path d="M993.284 466.904L885.824 350.651C756.503 210.747 537.694 203.001 397.095 332.99L504.555 449.244C633.722 588.981 852.685 596.893 993.284 466.904Z" fill="url(#paint3_linear_873_46214)"/>
<path d="M1139.35 -2.97512L1230.39 95.5134C1339.94 214.038 1331.95 399.373 1212.84 509.499L1121.8 411.01C1012.37 292.626 1020.09 107.281 1139.35 -2.97512Z" fill="url(#paint4_linear_873_46214)"/>
<path d="M1179.24 529.554L1088.21 431.065C978.646 312.541 793.274 305.978 674.16 416.104L765.199 514.592C874.628 632.976 1060.13 639.679 1179.24 529.554Z" fill="url(#paint5_linear_873_46214)"/>
<path d="M1331.54 107.818L1408.16 190.703C1500.36 290.451 1493.64 446.424 1393.39 539.103L1316.78 456.217C1224.68 356.589 1231.18 200.607 1331.54 107.818Z" fill="url(#paint6_linear_873_46214)"/>
<path d="M1365.12 555.981L1288.5 473.095C1196.3 373.348 1040.3 367.825 940.053 460.504L1016.67 543.389C1108.76 643.018 1264.88 648.659 1365.12 555.981Z" fill="url(#paint7_linear_873_46214)"/>
</g>
<path d="M133.984 404.424C133.984 406.936 132.288 408.424 129.888 408.424H129.504V407.384C129.008 408.152 128.096 408.6 127.072 408.6C125.248 408.6 123.888 407.112 123.888 405.192C123.888 403.288 125.232 401.8 127.088 401.8C128.048 401.8 128.912 402.2 129.408 402.856V401.928H130.56V407.336C131.968 407.224 132.864 406.2 132.864 404.424C132.912 401.688 130.656 399.496 127.6 399.544C124.384 399.512 121.872 401.912 121.92 405.048C121.872 408.2 124.432 410.616 127.504 410.568C128.24 410.568 128.928 410.456 129.584 410.216L129.808 411.176C129.072 411.464 128.272 411.608 127.392 411.608C123.776 411.688 120.704 408.696 120.768 405.064C120.688 401.368 123.856 398.424 127.568 398.488C131.152 398.424 134.048 401.224 133.984 404.424ZM129.344 405.176C129.344 403.704 128.416 402.904 127.28 402.904C126.064 402.904 125.152 403.848 125.152 405.192C125.152 405.848 125.36 406.392 125.76 406.824C126.16 407.256 126.672 407.464 127.28 407.464C128.384 407.464 129.344 406.664 129.344 405.176ZM137.87 407.88H142.846V409H135.502V408.68L139.262 404.68C140.542 403.336 141.118 402.536 141.118 401.528C141.118 400.36 140.318 399.416 139.086 399.416C138.446 399.416 137.934 399.624 137.55 400.056C137.166 400.488 136.974 401 136.974 401.592C136.974 401.896 137.006 402.184 137.07 402.472H135.79C135.71 402.184 135.678 401.88 135.678 401.544C135.678 399.864 137.022 398.264 139.086 398.264C141.022 398.264 142.414 399.672 142.414 401.464C142.414 401.96 142.318 402.424 142.11 402.872C141.71 403.768 141.166 404.408 140.206 405.416L137.87 407.88ZM144.759 403.624C144.759 402.008 145.079 400.712 145.735 399.736C146.391 398.76 147.351 398.264 148.631 398.264C149.911 398.264 150.871 398.76 151.511 399.736C152.167 400.712 152.487 402.008 152.487 403.624C152.487 405.24 152.167 406.584 151.527 407.624C150.887 408.664 149.927 409.176 148.631 409.176C147.335 409.176 146.375 408.664 145.719 407.624C145.079 406.584 144.759 405.24 144.759 403.624ZM151.191 403.64C151.191 401 150.423 399.416 148.631 399.416C146.839 399.416 146.055 401 146.055 403.64C146.055 406.328 146.855 408.024 148.631 408.024C150.407 408.024 151.191 406.328 151.191 403.64ZM156.667 407.88H161.643V409H154.299V408.68L158.059 404.68C159.339 403.336 159.915 402.536 159.915 401.528C159.915 400.36 159.115 399.416 157.883 399.416C157.243 399.416 156.731 399.624 156.347 400.056C155.963 400.488 155.771 401 155.771 401.592C155.771 401.896 155.803 402.184 155.867 402.472H154.587C154.507 402.184 154.475 401.88 154.475 401.544C154.475 399.864 155.819 398.264 157.883 398.264C159.819 398.264 161.211 399.672 161.211 401.464C161.211 401.96 161.115 402.424 160.907 402.872C160.507 403.768 159.963 404.408 159.003 405.416L156.667 407.88ZM170.244 405.656C170.244 407.784 168.5 409.176 166.5 409.176C164.884 409.176 163.62 408.264 162.916 406.984L163.796 406.36C164.484 407.368 165.284 408.024 166.484 408.024C167.94 408.024 168.948 407.08 168.948 405.672C168.948 404.312 167.988 403.496 166.276 403.496H165.236V403.128L168.004 399.592H163.636V398.44H169.972V398.808L167.172 402.408C168.772 402.568 170.244 403.688 170.244 405.656ZM176.362 403.72C176.298 400.696 178.858 398.216 181.85 398.264C183.722 398.264 185.338 399.144 186.234 400.536L185.306 401.272C184.49 400.104 183.322 399.416 181.866 399.416C179.482 399.416 177.658 401.272 177.658 403.72C177.658 406.168 179.482 408.024 181.866 408.024C183.322 408.024 184.49 407.336 185.306 406.168L186.234 406.904C185.354 408.296 183.722 409.176 181.85 409.176C178.858 409.224 176.298 406.744 176.362 403.72ZM187.675 405.096C187.627 402.872 189.531 400.984 191.755 401.032C193.979 401 195.883 402.872 195.835 405.096C195.883 407.288 193.963 409.208 191.739 409.16C189.515 409.208 187.643 407.288 187.675 405.096ZM194.571 405.112C194.571 403.432 193.339 402.168 191.755 402.168C190.155 402.168 188.939 403.432 188.939 405.112C188.939 406.744 190.155 408.024 191.739 408.024C193.323 408.024 194.571 406.744 194.571 405.112ZM209.377 404.104V409H208.145V404.264C208.145 403 207.457 402.168 206.305 402.168C205.137 402.168 204.305 403.048 204.305 404.152V409H203.073V404.264C203.073 403 202.353 402.168 201.217 402.168C200.049 402.168 199.233 403.032 199.233 404.264V409H198.001V401.208H199.153V402.024C199.713 401.384 200.513 401.032 201.473 401.032C202.609 401.032 203.425 401.528 203.873 402.376C204.449 401.56 205.393 401.032 206.545 401.032C208.337 401.032 209.377 402.248 209.377 404.104ZM219.937 405.096C219.937 407.384 218.273 409.176 216.081 409.176C214.929 409.176 213.857 408.696 213.217 407.88V411.88H211.985V401.208H213.137V402.456C213.729 401.56 214.865 401.032 216.081 401.032C218.305 401.032 219.937 402.808 219.937 405.096ZM218.673 405.112C218.673 403.432 217.489 402.168 215.905 402.168C214.513 402.168 213.201 403.128 213.201 405.096C213.201 407.08 214.465 408.04 215.905 408.04C217.489 408.04 218.673 406.792 218.673 405.112ZM222.094 409V397H223.326V409H222.094ZM232.912 405.48H226.752C226.896 407.016 228.08 408.04 229.616 408.04C230.496 408.04 231.296 407.688 232 406.984L232.72 407.816C231.904 408.664 230.832 409.176 229.6 409.176C227.28 409.176 225.472 407.4 225.472 405.112C225.472 402.856 227.232 401.032 229.456 401.032C231.472 401.032 233.008 402.488 233.008 404.552C233.008 404.856 232.976 405.16 232.912 405.48ZM226.8 404.392H231.744C231.728 403 230.72 402.152 229.424 402.152C228.128 402.152 227.072 403.048 226.8 404.392ZM239.429 407.96V409C238.933 409.112 238.501 409.176 238.133 409.176C236.517 409.176 235.509 408.36 235.509 406.648V402.312H234.197V401.208H235.509V399.08H236.741V401.208H239.173V402.312H236.741V406.568C236.741 407.672 237.317 408.056 238.389 408.056C238.693 408.056 239.029 408.024 239.429 407.96ZM247.99 405.48H241.83C241.974 407.016 243.158 408.04 244.694 408.04C245.574 408.04 246.374 407.688 247.078 406.984L247.798 407.816C246.982 408.664 245.91 409.176 244.678 409.176C242.358 409.176 240.55 407.4 240.55 405.112C240.55 402.856 242.31 401.032 244.534 401.032C246.55 401.032 248.086 402.488 248.086 404.552C248.086 404.856 248.054 405.16 247.99 405.48ZM241.878 404.392H246.822C246.806 403 245.798 402.152 244.502 402.152C243.206 402.152 242.15 403.048 241.878 404.392ZM254.831 409V398.44H261.439V399.56H256.079V403.192H260.527V404.328H256.079V409H254.831ZM268.544 404.2V409H267.392V407.992C266.816 408.76 265.904 409.176 264.768 409.176C263.168 409.176 262.048 408.328 262.048 406.984C262.048 405.656 263.168 404.808 264.848 404.808H267.312V404.136C267.312 402.856 266.592 402.168 265.424 402.168C264.48 402.168 263.792 402.584 263.152 403.416L262.336 402.744C263.04 401.592 264.208 401.032 265.504 401.032C267.344 401.032 268.544 402.152 268.544 404.2ZM267.312 406.008V405.816H264.992C263.904 405.816 263.312 406.2 263.312 406.92C263.312 407.704 264.016 408.152 264.928 408.152C266.208 408.152 267.312 407.208 267.312 406.008ZM275.301 401.208V402.296H274.837C273.525 402.296 272.389 403.144 272.389 404.584V409H271.157V401.208H272.309V402.312C272.869 401.56 273.781 401.144 274.725 401.144C274.901 401.144 275.093 401.16 275.301 401.208ZM288.33 404.104V409H287.098V404.264C287.098 403 286.41 402.168 285.258 402.168C284.09 402.168 283.258 403.048 283.258 404.152V409H282.026V404.264C282.026 403 281.306 402.168 280.17 402.168C279.002 402.168 278.186 403.032 278.186 404.264V409H276.954V401.208H278.106V402.024C278.666 401.384 279.466 401.032 280.426 401.032C281.562 401.032 282.378 401.528 282.826 402.376C283.402 401.56 284.346 401.032 285.498 401.032C287.29 401.032 288.33 402.248 288.33 404.104ZM297.818 405.48H291.658C291.802 407.016 292.986 408.04 294.522 408.04C295.402 408.04 296.202 407.688 296.906 406.984L297.626 407.816C296.81 408.664 295.738 409.176 294.506 409.176C292.186 409.176 290.378 407.4 290.378 405.112C290.378 402.856 292.138 401.032 294.362 401.032C296.378 401.032 297.914 402.488 297.914 404.552C297.914 404.856 297.882 405.16 297.818 405.48ZM291.706 404.392H296.65C296.634 403 295.626 402.152 294.33 402.152C293.034 402.152 291.978 403.048 291.706 404.392ZM304.223 401.208V402.296H303.759C302.447 402.296 301.311 403.144 301.311 404.584V409H300.079V401.208H301.231V402.312C301.791 401.56 302.703 401.144 303.647 401.144C303.823 401.144 304.015 401.16 304.223 401.208ZM310.456 409V398.44H311.704V407.88H316.712V409H310.456ZM318.454 409V401.208H319.686V409H318.454ZM318.15 398.232C318.15 397.736 318.566 397.336 319.078 397.336C319.574 397.336 319.99 397.736 319.99 398.232C319.99 398.744 319.59 399.128 319.078 399.128C318.566 399.128 318.15 398.744 318.15 398.232ZM333.767 404.104V409H332.535V404.264C332.535 403 331.847 402.168 330.695 402.168C329.527 402.168 328.695 403.048 328.695 404.152V409H327.463V404.264C327.463 403 326.743 402.168 325.607 402.168C324.439 402.168 323.623 403.032 323.623 404.264V409H322.391V401.208H323.543V402.024C324.103 401.384 324.903 401.032 325.863 401.032C326.999 401.032 327.815 401.528 328.263 402.376C328.839 401.56 329.783 401.032 330.935 401.032C332.727 401.032 333.767 402.248 333.767 404.104ZM336.376 409V401.208H337.608V409H336.376ZM336.072 398.232C336.072 397.736 336.488 397.336 337 397.336C337.496 397.336 337.912 397.736 337.912 398.232C337.912 398.744 337.512 399.128 337 399.128C336.488 399.128 336.072 398.744 336.072 398.232ZM344.569 407.96V409C344.073 409.112 343.641 409.176 343.273 409.176C341.657 409.176 340.649 408.36 340.649 406.648V402.312H339.337V401.208H340.649V399.08H341.881V401.208H344.313V402.312H341.881V406.568C341.881 407.672 342.457 408.056 343.529 408.056C343.833 408.056 344.169 408.024 344.569 407.96ZM353.131 405.48H346.971C347.115 407.016 348.299 408.04 349.835 408.04C350.715 408.04 351.515 407.688 352.219 406.984L352.939 407.816C352.123 408.664 351.051 409.176 349.819 409.176C347.499 409.176 345.691 407.4 345.691 405.112C345.691 402.856 347.451 401.032 349.675 401.032C351.691 401.032 353.227 402.488 353.227 404.552C353.227 404.856 353.195 405.16 353.131 405.48ZM347.019 404.392H351.963C351.947 403 350.939 402.152 349.643 402.152C348.347 402.152 347.291 403.048 347.019 404.392ZM361.567 397H362.799V409H361.631V407.768C361.039 408.648 359.903 409.176 358.687 409.176C356.495 409.176 354.831 407.4 354.831 405.112C354.831 402.824 356.495 401.032 358.687 401.032C359.855 401.032 360.943 401.528 361.567 402.36V397ZM361.583 405.112C361.583 403.128 360.271 402.168 358.863 402.168C357.279 402.168 356.095 403.416 356.095 405.096C356.095 406.776 357.279 408.04 358.863 408.04C360.271 408.04 361.583 407.08 361.583 405.112ZM365.373 408.168C365.373 407.592 365.821 407.16 366.381 407.16C366.941 407.16 367.389 407.592 367.389 408.168C367.389 408.744 366.941 409.176 366.381 409.176C365.821 409.176 365.373 408.744 365.373 408.168ZM381.097 409L380.201 406.856H375.017L374.121 409H372.809L377.385 398.264H377.849L382.425 409H381.097ZM379.721 405.736L377.609 400.536L375.497 405.736H379.721ZM384.282 409V397H385.514V409H384.282ZM388.219 409V397H389.451V409H388.219ZM400.785 401.208V402.296H400.321C399.009 402.296 397.873 403.144 397.873 404.584V409H396.641V401.208H397.793V402.312C398.353 401.56 399.265 401.144 400.209 401.144C400.385 401.144 400.577 401.16 400.785 401.208ZM402.438 409V401.208H403.67V409H402.438ZM402.134 398.232C402.134 397.736 402.55 397.336 403.062 397.336C403.558 397.336 403.974 397.736 403.974 398.232C403.974 398.744 403.574 399.128 403.062 399.128C402.55 399.128 402.134 398.744 402.134 398.232ZM412.696 401.208H413.864V408.248C413.864 410.616 412.376 412.056 410.072 412.056C408.552 412.056 407.288 411.432 406.408 410.552L407.128 409.688C408.008 410.456 408.872 410.92 410.04 410.92C411.656 410.92 412.632 409.992 412.632 408.312V407.624C412.008 408.44 410.904 408.92 409.736 408.92C407.544 408.92 405.912 407.24 405.912 404.984C405.912 402.744 407.544 401.032 409.736 401.032C410.968 401.032 412.104 401.56 412.696 402.456V401.208ZM412.648 404.984C412.648 403.112 411.336 402.2 409.928 402.2C408.344 402.2 407.16 403.368 407.16 405C407.16 406.648 408.344 407.784 409.928 407.784C411.352 407.784 412.648 406.872 412.648 404.984ZM423.011 404.104V409H421.779V404.264C421.779 403 421.043 402.168 419.843 402.168C418.643 402.168 417.795 403.048 417.795 404.264V409H416.563V397H417.795V402.088C418.323 401.432 419.155 401.032 420.131 401.032C421.923 401.032 423.011 402.264 423.011 404.104ZM429.882 407.96V409C429.386 409.112 428.954 409.176 428.586 409.176C426.97 409.176 425.962 408.36 425.962 406.648V402.312H424.65V401.208H425.962V399.08H427.194V401.208H429.626V402.312H427.194V406.568C427.194 407.672 427.77 408.056 428.842 408.056C429.146 408.056 429.482 408.024 429.882 407.96ZM430.983 407.656L431.767 406.84C432.519 407.608 433.127 408.04 434.007 408.04C434.855 408.04 435.495 407.624 435.495 406.936C435.495 406.312 435.095 406.072 434.135 405.688L433.383 405.368C432.087 404.84 431.447 404.248 431.447 403.208C431.447 401.848 432.583 401.032 434.071 401.032C435.159 401.032 436.039 401.496 436.679 402.264L435.927 403.032C435.399 402.504 434.727 402.168 434.007 402.168C433.239 402.168 432.711 402.52 432.711 403.144C432.711 403.64 433.031 403.88 433.975 404.28L434.695 404.584C436.151 405.208 436.759 405.816 436.759 406.888C436.759 407.608 436.487 408.184 435.959 408.584C435.431 408.984 434.791 409.176 434.023 409.176C432.727 409.176 431.671 408.552 430.983 407.656ZM447.613 401.208V402.296H447.149C445.837 402.296 444.701 403.144 444.701 404.584V409H443.469V401.208H444.621V402.312C445.181 401.56 446.093 401.144 447.037 401.144C447.213 401.144 447.405 401.16 447.613 401.208ZM455.99 405.48H449.83C449.974 407.016 451.158 408.04 452.694 408.04C453.574 408.04 454.374 407.688 455.078 406.984L455.798 407.816C454.982 408.664 453.91 409.176 452.678 409.176C450.358 409.176 448.55 407.4 448.55 405.112C448.55 402.856 450.31 401.032 452.534 401.032C454.55 401.032 456.086 402.488 456.086 404.552C456.086 404.856 456.054 405.16 455.99 405.48ZM449.878 404.392H454.822C454.806 403 453.798 402.152 452.502 402.152C451.206 402.152 450.15 403.048 449.878 404.392ZM457.515 407.656L458.299 406.84C459.051 407.608 459.659 408.04 460.539 408.04C461.387 408.04 462.027 407.624 462.027 406.936C462.027 406.312 461.627 406.072 460.667 405.688L459.915 405.368C458.619 404.84 457.979 404.248 457.979 403.208C457.979 401.848 459.115 401.032 460.603 401.032C461.691 401.032 462.571 401.496 463.211 402.264L462.459 403.032C461.931 402.504 461.259 402.168 460.539 402.168C459.771 402.168 459.243 402.52 459.243 403.144C459.243 403.64 459.563 403.88 460.507 404.28L461.227 404.584C462.683 405.208 463.291 405.816 463.291 406.888C463.291 407.608 463.019 408.184 462.491 408.584C461.963 408.984 461.323 409.176 460.555 409.176C459.259 409.176 458.203 408.552 457.515 407.656ZM472.396 405.48H466.236C466.38 407.016 467.564 408.04 469.1 408.04C469.98 408.04 470.78 407.688 471.484 406.984L472.204 407.816C471.388 408.664 470.316 409.176 469.084 409.176C466.764 409.176 464.956 407.4 464.956 405.112C464.956 402.856 466.716 401.032 468.94 401.032C470.956 401.032 472.492 402.488 472.492 404.552C472.492 404.856 472.46 405.16 472.396 405.48ZM466.284 404.392H471.228C471.212 403 470.204 402.152 468.908 402.152C467.612 402.152 466.556 403.048 466.284 404.392ZM478.801 401.208V402.296H478.337C477.025 402.296 475.889 403.144 475.889 404.584V409H474.657V401.208H475.809V402.312C476.369 401.56 477.281 401.144 478.225 401.144C478.401 401.144 478.593 401.16 478.801 401.208ZM485.99 401.208H487.302L483.638 409.176H483.19L479.51 401.208H480.822L483.414 407.08L485.99 401.208ZM495.646 405.48H489.486C489.63 407.016 490.814 408.04 492.35 408.04C493.23 408.04 494.03 407.688 494.734 406.984L495.454 407.816C494.638 408.664 493.566 409.176 492.334 409.176C490.014 409.176 488.206 407.4 488.206 405.112C488.206 402.856 489.966 401.032 492.19 401.032C494.206 401.032 495.742 402.488 495.742 404.552C495.742 404.856 495.71 405.16 495.646 405.48ZM489.534 404.392H494.478C494.462 403 493.454 402.152 492.158 402.152C490.862 402.152 489.806 403.048 489.534 404.392ZM504.083 397H505.315V409H504.147V407.768C503.555 408.648 502.419 409.176 501.203 409.176C499.011 409.176 497.347 407.4 497.347 405.112C497.347 402.824 499.011 401.032 501.203 401.032C502.371 401.032 503.459 401.528 504.083 402.36V397ZM504.099 405.112C504.099 403.128 502.787 402.168 501.379 402.168C499.795 402.168 498.611 403.416 498.611 405.096C498.611 406.776 499.795 408.04 501.379 408.04C502.787 408.04 504.099 407.08 504.099 405.112ZM507.888 408.168C507.888 407.592 508.336 407.16 508.896 407.16C509.456 407.16 509.904 407.592 509.904 408.168C509.904 408.744 509.456 409.176 508.896 409.176C508.336 409.176 507.888 408.744 507.888 408.168Z" fill="white"/>
<path d="M1030.02 409V399.56H1026.3V398.44H1034.99V399.56H1031.26V409H1030.02ZM1042.33 405.48H1036.17C1036.32 407.016 1037.5 408.04 1039.04 408.04C1039.92 408.04 1040.72 407.688 1041.42 406.984L1042.14 407.816C1041.33 408.664 1040.25 409.176 1039.02 409.176C1036.7 409.176 1034.89 407.4 1034.89 405.112C1034.89 402.856 1036.65 401.032 1038.88 401.032C1040.89 401.032 1042.43 402.488 1042.43 404.552C1042.43 404.856 1042.4 405.16 1042.33 405.48ZM1036.22 404.392H1041.17C1041.15 403 1040.14 402.152 1038.85 402.152C1037.55 402.152 1036.49 403.048 1036.22 404.392ZM1048.74 401.208V402.296H1048.27C1046.96 402.296 1045.83 403.144 1045.83 404.584V409H1044.59V401.208H1045.75V402.312C1046.31 401.56 1047.22 401.144 1048.16 401.144C1048.34 401.144 1048.53 401.16 1048.74 401.208ZM1061.77 404.104V409H1060.54V404.264C1060.54 403 1059.85 402.168 1058.7 402.168C1057.53 402.168 1056.7 403.048 1056.7 404.152V409H1055.46V404.264C1055.46 403 1054.74 402.168 1053.61 402.168C1052.44 402.168 1051.62 403.032 1051.62 404.264V409H1050.39V401.208H1051.54V402.024C1052.1 401.384 1052.9 401.032 1053.86 401.032C1055 401.032 1055.82 401.528 1056.26 402.376C1056.84 401.56 1057.78 401.032 1058.94 401.032C1060.73 401.032 1061.77 402.248 1061.77 404.104ZM1063.64 407.656L1064.42 406.84C1065.18 407.608 1065.78 408.04 1066.66 408.04C1067.51 408.04 1068.15 407.624 1068.15 406.936C1068.15 406.312 1067.75 406.072 1066.79 405.688L1066.04 405.368C1064.74 404.84 1064.1 404.248 1064.1 403.208C1064.1 401.848 1065.24 401.032 1066.73 401.032C1067.82 401.032 1068.7 401.496 1069.34 402.264L1068.58 403.032C1068.06 402.504 1067.38 402.168 1066.66 402.168C1065.9 402.168 1065.37 402.52 1065.37 403.144C1065.37 403.64 1065.69 403.88 1066.63 404.28L1067.35 404.584C1068.81 405.208 1069.42 405.816 1069.42 406.888C1069.42 407.608 1069.14 408.184 1068.62 408.584C1068.09 408.984 1067.45 409.176 1066.68 409.176C1065.38 409.176 1064.33 408.552 1063.64 407.656ZM1084.4 404.328L1084.22 404.6C1083.53 405.656 1082.99 406.424 1082.62 406.92L1084.37 409H1082.86L1081.85 407.8C1080.96 408.696 1080.01 409.176 1078.8 409.176C1076.93 409.176 1075.57 408.008 1075.57 406.424C1075.57 405.864 1075.74 405.336 1076.09 404.84C1076.46 404.344 1077.07 403.784 1077.95 403.128C1077.17 402.12 1076.81 401.432 1076.81 400.584C1076.81 399.192 1077.76 398.264 1079.17 398.264C1079.84 398.264 1080.4 398.472 1080.83 398.888C1081.26 399.288 1081.49 399.816 1081.49 400.44C1081.49 401.4 1080.89 402.264 1079.6 403.272L1081.84 405.96C1082.08 405.624 1082.43 405.112 1082.88 404.408L1083.37 403.656L1084.4 404.328ZM1078.03 400.584C1078.03 401.16 1078.29 401.672 1078.93 402.456C1079.89 401.672 1080.27 401.144 1080.27 400.488C1080.27 399.8 1079.85 399.4 1079.17 399.4C1078.41 399.4 1078.03 399.816 1078.03 400.584ZM1081.09 406.872L1078.67 403.976C1077.17 405.144 1076.88 405.528 1076.88 406.312C1076.88 407.32 1077.69 408.024 1078.83 408.024C1079.63 408.024 1080.38 407.64 1081.09 406.872ZM1090.02 403.72C1089.95 400.696 1092.51 398.216 1095.51 398.264C1097.38 398.264 1098.99 399.144 1099.89 400.536L1098.96 401.272C1098.15 400.104 1096.98 399.416 1095.52 399.416C1093.14 399.416 1091.31 401.272 1091.31 403.72C1091.31 406.168 1093.14 408.024 1095.52 408.024C1096.98 408.024 1098.15 407.336 1098.96 406.168L1099.89 406.904C1099.01 408.296 1097.38 409.176 1095.51 409.176C1092.51 409.224 1089.95 406.744 1090.02 403.72ZM1101.33 405.096C1101.28 402.872 1103.19 400.984 1105.41 401.032C1107.64 401 1109.54 402.872 1109.49 405.096C1109.54 407.288 1107.62 409.208 1105.4 409.16C1103.17 409.208 1101.3 407.288 1101.33 405.096ZM1108.23 405.112C1108.23 403.432 1107 402.168 1105.41 402.168C1103.81 402.168 1102.6 403.432 1102.6 405.112C1102.6 406.744 1103.81 408.024 1105.4 408.024C1106.98 408.024 1108.23 406.744 1108.23 405.112ZM1118.1 404.104V409H1116.87V404.248C1116.87 403.016 1116.14 402.168 1114.94 402.168C1113.74 402.168 1112.89 403.032 1112.89 404.248V409H1111.66V401.208H1112.81V402.04C1113.38 401.4 1114.23 401.032 1115.21 401.032C1117.02 401.032 1118.1 402.264 1118.1 404.104ZM1126.9 397H1128.13V409H1126.96V407.768C1126.37 408.648 1125.23 409.176 1124.02 409.176C1121.82 409.176 1120.16 407.4 1120.16 405.112C1120.16 402.824 1121.82 401.032 1124.02 401.032C1125.18 401.032 1126.27 401.528 1126.9 402.36V397ZM1126.91 405.112C1126.91 403.128 1125.6 402.168 1124.19 402.168C1122.61 402.168 1121.42 403.416 1121.42 405.096C1121.42 406.776 1122.61 408.04 1124.19 408.04C1125.6 408.04 1126.91 407.08 1126.91 405.112ZM1130.83 409V401.208H1132.06V409H1130.83ZM1130.52 398.232C1130.52 397.736 1130.94 397.336 1131.45 397.336C1131.95 397.336 1132.36 397.736 1132.36 398.232C1132.36 398.744 1131.96 399.128 1131.45 399.128C1130.94 399.128 1130.52 398.744 1130.52 398.232ZM1139.02 407.96V409C1138.53 409.112 1138.09 409.176 1137.73 409.176C1136.11 409.176 1135.1 408.36 1135.1 406.648V402.312H1133.79V401.208H1135.1V399.08H1136.33V401.208H1138.77V402.312H1136.33V406.568C1136.33 407.672 1136.91 408.056 1137.98 408.056C1138.29 408.056 1138.62 408.024 1139.02 407.96ZM1140.86 409V401.208H1142.09V409H1140.86ZM1140.56 398.232C1140.56 397.736 1140.97 397.336 1141.48 397.336C1141.98 397.336 1142.4 397.736 1142.4 398.232C1142.4 398.744 1142 399.128 1141.48 399.128C1140.97 399.128 1140.56 398.744 1140.56 398.232ZM1144.24 405.096C1144.19 402.872 1146.09 400.984 1148.32 401.032C1150.54 401 1152.45 402.872 1152.4 405.096C1152.45 407.288 1150.53 409.208 1148.3 409.16C1146.08 409.208 1144.21 407.288 1144.24 405.096ZM1151.13 405.112C1151.13 403.432 1149.9 402.168 1148.32 402.168C1146.72 402.168 1145.5 403.432 1145.5 405.112C1145.5 406.744 1146.72 408.024 1148.3 408.024C1149.89 408.024 1151.13 406.744 1151.13 405.112ZM1161.01 404.104V409H1159.78V404.248C1159.78 403.016 1159.04 402.168 1157.84 402.168C1156.64 402.168 1155.8 403.032 1155.8 404.248V409H1154.56V401.208H1155.72V402.04C1156.29 401.4 1157.14 401.032 1158.12 401.032C1159.92 401.032 1161.01 402.264 1161.01 404.104ZM1162.89 407.656L1163.67 406.84C1164.43 407.608 1165.03 408.04 1165.91 408.04C1166.76 408.04 1167.4 407.624 1167.4 406.936C1167.4 406.312 1167 406.072 1166.04 405.688L1165.29 405.368C1163.99 404.84 1163.35 404.248 1163.35 403.208C1163.35 401.848 1164.49 401.032 1165.98 401.032C1167.07 401.032 1167.95 401.496 1168.59 402.264L1167.83 403.032C1167.31 402.504 1166.63 402.168 1165.91 402.168C1165.15 402.168 1164.62 402.52 1164.62 403.144C1164.62 403.64 1164.94 403.88 1165.88 404.28L1166.6 404.584C1168.06 405.208 1168.67 405.816 1168.67 406.888C1168.67 407.608 1168.39 408.184 1167.87 408.584C1167.34 408.984 1166.7 409.176 1165.93 409.176C1164.63 409.176 1163.58 408.552 1162.89 407.656Z" fill="white"/>
<path d="M1193 392V416H1195V392H1193Z" fill="#253A66" mask="url(#path-6-inside-1_873_46214)"/>
<path d="M1219.46 409V398.44H1223.17C1225.22 398.44 1226.54 399.72 1226.54 401.496C1226.54 403.304 1225.22 404.584 1223.17 404.584H1220.7V409H1219.46ZM1220.7 403.464H1223.14C1224.48 403.464 1225.25 402.68 1225.25 401.512C1225.25 400.36 1224.48 399.56 1223.14 399.56H1220.7V403.464ZM1232.66 401.208V402.296H1232.2C1230.88 402.296 1229.75 403.144 1229.75 404.584V409H1228.52V401.208H1229.67V402.312C1230.23 401.56 1231.14 401.144 1232.08 401.144C1232.26 401.144 1232.45 401.16 1232.66 401.208ZM1234.31 409V401.208H1235.55V409H1234.31ZM1234.01 398.232C1234.01 397.736 1234.43 397.336 1234.94 397.336C1235.43 397.336 1235.85 397.736 1235.85 398.232C1235.85 398.744 1235.45 399.128 1234.94 399.128C1234.43 399.128 1234.01 398.744 1234.01 398.232ZM1243.79 401.208H1245.1L1241.43 409.176H1240.99L1237.31 401.208H1238.62L1241.21 407.08L1243.79 401.208ZM1252.4 404.2V409H1251.25V407.992C1250.68 408.76 1249.76 409.176 1248.63 409.176C1247.03 409.176 1245.91 408.328 1245.91 406.984C1245.91 405.656 1247.03 404.808 1248.71 404.808H1251.17V404.136C1251.17 402.856 1250.45 402.168 1249.28 402.168C1248.34 402.168 1247.65 402.584 1247.01 403.416L1246.2 402.744C1246.9 401.592 1248.07 401.032 1249.36 401.032C1251.2 401.032 1252.4 402.152 1252.4 404.2ZM1251.17 406.008V405.816H1248.85C1247.76 405.816 1247.17 406.2 1247.17 406.92C1247.17 407.704 1247.88 408.152 1248.79 408.152C1250.07 408.152 1251.17 407.208 1251.17 406.008ZM1254.46 405.096C1254.41 402.872 1256.31 401 1258.54 401.032C1259.9 401.032 1261.05 401.688 1261.75 402.728L1260.87 403.432C1260.25 402.584 1259.46 402.168 1258.55 402.168C1256.94 402.168 1255.72 403.48 1255.72 405.096C1255.72 406.728 1256.94 408.04 1258.55 408.04C1259.46 408.04 1260.23 407.624 1260.86 406.792L1261.74 407.48C1261.03 408.52 1259.9 409.176 1258.54 409.176C1256.28 409.176 1254.46 407.352 1254.46 405.096ZM1269.36 401.208H1270.68L1266.84 410.088C1266.24 411.448 1265.4 412.056 1264.2 412.056C1263.8 412.056 1263.4 412.008 1263 411.896V410.856C1263.4 410.904 1263.72 410.936 1263.94 410.936C1264.76 410.936 1265.3 410.632 1265.7 409.688L1266.12 408.76L1262.88 401.208H1264.21L1266.79 407.416L1269.36 401.208ZM1277.03 409V398.44H1280.75C1282.79 398.44 1284.12 399.72 1284.12 401.496C1284.12 403.304 1282.79 404.584 1280.75 404.584H1278.28V409H1277.03ZM1278.28 403.464H1280.71C1282.06 403.464 1282.83 402.68 1282.83 401.512C1282.83 400.36 1282.06 399.56 1280.71 399.56H1278.28V403.464ZM1285.32 405.096C1285.27 402.872 1287.17 400.984 1289.4 401.032C1291.62 401 1293.52 402.872 1293.48 405.096C1293.52 407.288 1291.6 409.208 1289.38 409.16C1287.16 409.208 1285.28 407.288 1285.32 405.096ZM1292.21 405.112C1292.21 403.432 1290.98 402.168 1289.4 402.168C1287.8 402.168 1286.58 403.432 1286.58 405.112C1286.58 406.744 1287.8 408.024 1289.38 408.024C1290.96 408.024 1292.21 406.744 1292.21 405.112ZM1295.64 409V397H1296.87V409H1295.64ZM1299.58 409V401.208H1300.81V409H1299.58ZM1299.27 398.232C1299.27 397.736 1299.69 397.336 1300.2 397.336C1300.7 397.336 1301.11 397.736 1301.11 398.232C1301.11 398.744 1300.71 399.128 1300.2 399.128C1299.69 399.128 1299.27 398.744 1299.27 398.232ZM1302.96 405.096C1302.91 402.872 1304.81 401 1307.04 401.032C1308.4 401.032 1309.55 401.688 1310.25 402.728L1309.37 403.432C1308.75 402.584 1307.96 402.168 1307.05 402.168C1305.44 402.168 1304.22 403.48 1304.22 405.096C1304.22 406.728 1305.44 408.04 1307.05 408.04C1307.96 408.04 1308.73 407.624 1309.36 406.792L1310.24 407.48C1309.53 408.52 1308.4 409.176 1307.04 409.176C1304.78 409.176 1302.96 407.352 1302.96 405.096ZM1317.86 401.208H1319.18L1315.34 410.088C1314.74 411.448 1313.9 412.056 1312.7 412.056C1312.3 412.056 1311.9 412.008 1311.5 411.896V410.856C1311.9 410.904 1312.22 410.936 1312.44 410.936C1313.26 410.936 1313.8 410.632 1314.2 409.688L1314.62 408.76L1311.38 401.208H1312.71L1315.29 407.416L1317.86 401.208Z" fill="white"/>
<path d="M1137.52 106V92.8H1146.2V95.24H1140.22V98.54H1145.12V100.98H1140.22V106H1137.52ZM1146.99 101.04C1146.93 98.22 1149.39 95.82 1152.29 95.88C1155.19 95.84 1157.67 98.22 1157.61 101.04C1157.67 103.86 1155.17 106.28 1152.27 106.22C1149.37 106.28 1146.93 103.86 1146.99 101.04ZM1154.85 101.06C1154.85 99.52 1153.75 98.34 1152.29 98.34C1150.79 98.34 1149.73 99.48 1149.73 101.06C1149.73 102.6 1150.79 103.74 1152.29 103.74C1153.75 103.74 1154.85 102.6 1154.85 101.06ZM1159.72 106V91H1162.42V106H1159.72ZM1165.09 106V91H1167.79V106H1165.09ZM1169.91 101.04C1169.85 98.22 1172.31 95.82 1175.21 95.88C1178.11 95.84 1180.59 98.22 1180.53 101.04C1180.59 103.86 1178.09 106.28 1175.19 106.22C1172.29 106.28 1169.85 103.86 1169.91 101.04ZM1177.77 101.06C1177.77 99.52 1176.67 98.34 1175.21 98.34C1173.71 98.34 1172.65 99.48 1172.65 101.06C1172.65 102.6 1173.71 103.74 1175.21 103.74C1176.67 103.74 1177.77 102.6 1177.77 101.06ZM1194.96 96.1H1197.8L1193.2 106.24H1192.32L1189.48 100.48L1186.62 106.24H1185.74L1181.14 96.1H1183.98L1186.32 101.74L1189.02 95.88H1189.92L1192.66 101.62L1194.96 96.1ZM1204.9 101.64V96.1H1207.6V101.86C1207.6 103 1208.38 103.76 1209.48 103.76C1210.52 103.76 1211.32 103 1211.32 101.86V96.1H1214.02V101.64C1214.02 104.4 1212.06 106.24 1209.48 106.24C1206.84 106.24 1204.9 104.4 1204.9 101.64ZM1215.7 104.32L1217.06 102.68C1217.92 103.58 1218.86 104.02 1219.84 104.02C1220.56 104.02 1221.1 103.74 1221.1 103.2C1221.1 102.78 1220.82 102.62 1220.08 102.3L1219.02 101.86C1217.2 101.12 1216.32 100.3 1216.32 98.84C1216.32 96.98 1217.8 95.88 1219.96 95.88C1221.44 95.88 1222.62 96.38 1223.52 97.36L1222.16 99.02C1221.5 98.4 1220.76 98.08 1219.94 98.08C1219.28 98.08 1218.88 98.32 1218.88 98.78C1218.88 99.16 1219.14 99.34 1219.92 99.66L1220.88 100.06C1222.8 100.84 1223.66 101.62 1223.66 103.08C1223.66 104.06 1223.3 104.84 1222.56 105.4C1221.84 105.96 1220.92 106.24 1219.8 106.24C1218.06 106.24 1216.6 105.52 1215.7 104.32Z" fill="white"/>
<g clip-path="url(#clip1_873_46214)">
<rect x="1136" y="136" width="40" height="40" rx="20" fill="white" fill-opacity="0.1"/>
<path d="M1163 147C1163.53 147 1164.04 147.211 1164.41 147.586C1164.79 147.961 1165 148.47 1165 149V163C1165 163.53 1164.79 164.039 1164.41 164.414C1164.04 164.789 1163.53 165 1163 165H1149C1148.47 165 1147.96 164.789 1147.59 164.414C1147.21 164.039 1147 163.53 1147 163V149C1147 148.47 1147.21 147.961 1147.59 147.586C1147.96 147.211 1148.47 147 1149 147H1163ZM1162.5 162.5V157.2C1162.5 156.335 1162.16 155.506 1161.55 154.895C1160.93 154.283 1160.1 153.94 1159.24 153.94C1158.39 153.94 1157.4 154.46 1156.92 155.24V154.13H1154.13V162.5H1156.92V157.57C1156.92 156.8 1157.54 156.17 1158.31 156.17C1158.68 156.17 1159.04 156.317 1159.3 156.58C1159.56 156.843 1159.71 157.199 1159.71 157.57V162.5H1162.5ZM1150.88 152.56C1151.33 152.56 1151.75 152.383 1152.07 152.068C1152.38 151.753 1152.56 151.326 1152.56 150.88C1152.56 149.95 1151.81 149.19 1150.88 149.19C1150.43 149.19 1150 149.368 1149.68 149.685C1149.37 150.002 1149.19 150.432 1149.19 150.88C1149.19 151.81 1149.95 152.56 1150.88 152.56ZM1152.27 162.5V154.13H1149.5V162.5H1152.27Z" fill="white"/>
<rect x="1184" y="136" width="40" height="40" rx="20" fill="white" fill-opacity="0.1"/>
<path d="M1214 156C1214 150.48 1209.52 146 1204 146C1198.48 146 1194 150.48 1194 156C1194 160.84 1197.44 164.87 1202 165.8V159H1200V156H1202V153.5C1202 151.57 1203.57 150 1205.5 150H1208V153H1206C1205.45 153 1205 153.45 1205 154V156H1208V159H1205V165.95C1210.05 165.45 1214 161.19 1214 156Z" fill="white"/>
<rect x="1232" y="136" width="40" height="40" rx="20" fill="white" fill-opacity="0.1"/>
<path d="M1252 151.377C1250.77 151.377 1249.6 151.864 1248.73 152.731C1247.86 153.598 1247.38 154.775 1247.38 156.001C1247.38 157.227 1247.86 158.403 1248.73 159.271C1249.6 160.138 1250.77 160.625 1252 160.625C1253.23 160.625 1254.4 160.138 1255.27 159.271C1256.14 158.403 1256.62 157.227 1256.62 156.001C1256.62 154.775 1256.14 153.598 1255.27 152.731C1254.4 151.864 1253.23 151.377 1252 151.377ZM1252 159.004C1251.2 159.004 1250.44 158.687 1249.87 158.124C1249.31 157.561 1248.99 156.797 1248.99 156C1248.99 155.203 1249.31 154.439 1249.87 153.876C1250.44 153.312 1251.2 152.996 1252 152.996C1252.8 152.996 1253.56 153.312 1254.12 153.876C1254.69 154.439 1255 155.203 1255 156C1255 156.797 1254.69 157.561 1254.12 158.124C1253.56 158.687 1252.8 159.004 1252 159.004Z" fill="white"/>
<path d="M1256.81 152.285C1257.4 152.285 1257.88 151.802 1257.88 151.207C1257.88 150.612 1257.4 150.129 1256.81 150.129C1256.21 150.129 1255.73 150.612 1255.73 151.207C1255.73 151.802 1256.21 152.285 1256.81 152.285Z" fill="white"/>
<path d="M1260.53 150.111C1260.3 149.513 1259.95 148.97 1259.49 148.517C1259.04 148.064 1258.5 147.71 1257.9 147.479C1257.2 147.216 1256.46 147.074 1255.71 147.059C1254.75 147.017 1254.45 147.005 1252 147.005C1249.56 147.005 1249.25 147.005 1248.29 147.059C1247.55 147.073 1246.81 147.215 1246.11 147.479C1245.51 147.71 1244.97 148.063 1244.52 148.517C1244.06 148.97 1243.71 149.513 1243.48 150.111C1243.21 150.81 1243.07 151.55 1243.06 152.297C1243.02 153.259 1243 153.564 1243 156.007C1243 158.449 1243 158.76 1243.06 159.717C1243.07 160.465 1243.21 161.203 1243.48 161.904C1243.71 162.502 1244.06 163.044 1244.52 163.498C1244.97 163.951 1245.51 164.304 1246.11 164.536C1246.81 164.809 1247.55 164.961 1248.3 164.986C1249.26 165.028 1249.56 165.041 1252.01 165.041C1254.45 165.041 1254.76 165.041 1255.72 164.986C1256.46 164.971 1257.2 164.829 1257.9 164.567C1258.5 164.335 1259.04 163.981 1259.5 163.528C1259.95 163.075 1260.3 162.532 1260.54 161.934C1260.8 161.234 1260.94 160.496 1260.95 159.748C1261 158.786 1261.01 158.481 1261.01 156.038C1261.01 153.595 1261.01 153.285 1260.95 152.328C1260.94 151.57 1260.8 150.82 1260.53 150.111ZM1259.32 159.643C1259.31 160.219 1259.2 160.79 1259 161.331C1258.85 161.72 1258.62 162.073 1258.33 162.368C1258.03 162.662 1257.68 162.892 1257.29 163.042C1256.76 163.24 1256.19 163.346 1255.62 163.353C1254.67 163.397 1254.4 163.408 1251.97 163.408C1249.53 163.408 1249.28 163.408 1248.31 163.353C1247.74 163.346 1247.18 163.241 1246.64 163.042C1246.25 162.893 1245.9 162.664 1245.6 162.369C1245.31 162.074 1245.08 161.72 1244.93 161.331C1244.73 160.796 1244.62 160.232 1244.61 159.662C1244.57 158.712 1244.56 158.444 1244.56 156.008C1244.56 153.571 1244.56 153.322 1244.61 152.353C1244.62 151.777 1244.73 151.206 1244.93 150.666C1245.23 149.877 1245.86 149.256 1246.64 148.954C1247.18 148.756 1247.74 148.651 1248.31 148.643C1249.26 148.6 1249.53 148.588 1251.97 148.588C1254.41 148.588 1254.66 148.588 1255.62 148.643C1256.19 148.65 1256.76 148.755 1257.29 148.954C1257.68 149.104 1258.03 149.334 1258.33 149.629C1258.62 149.924 1258.85 150.277 1259 150.666C1259.2 151.201 1259.31 151.765 1259.32 152.335C1259.36 153.286 1259.37 153.553 1259.37 155.99C1259.37 158.426 1259.37 158.688 1259.33 159.644H1259.32V159.643Z" fill="white"/>
<rect x="1280" y="136" width="40" height="40" rx="20" fill="#367AFE"/>
<path d="M1310.46 150C1309.69 150.35 1308.86 150.58 1308 150.69C1308.88 150.16 1309.56 149.32 1309.88 148.31C1309.05 148.81 1308.13 149.16 1307.16 149.36C1306.37 148.5 1305.26 148 1304 148C1301.65 148 1299.73 149.92 1299.73 152.29C1299.73 152.63 1299.77 152.96 1299.84 153.27C1296.28 153.09 1293.11 151.38 1291 148.79C1290.63 149.42 1290.42 150.16 1290.42 150.94C1290.42 152.43 1291.17 153.75 1292.33 154.5C1291.62 154.5 1290.96 154.3 1290.38 154V154.03C1290.38 156.11 1291.86 157.85 1293.82 158.24C1293.19 158.412 1292.53 158.436 1291.89 158.31C1292.16 159.162 1292.69 159.908 1293.41 160.443C1294.13 160.977 1295 161.274 1295.89 161.29C1294.37 162.49 1292.49 163.139 1290.56 163.13C1290.22 163.13 1289.88 163.11 1289.54 163.07C1291.44 164.29 1293.7 165 1296.12 165C1304 165 1308.33 158.46 1308.33 152.79C1308.33 152.6 1308.33 152.42 1308.32 152.23C1309.16 151.63 1309.88 150.87 1310.46 150Z" fill="white"/>
</g>
<g clip-path="url(#clip2_873_46214)">
<g filter="url(#filter0_d_873_46214)">
<path d="M1305.03 178.707C1304.65 178.227 1304.19 177.253 1303.37 176.04C1302.91 175.373 1301.76 174.107 1301.41 173.453C1301.16 173.056 1301.09 172.573 1301.21 172.12C1301.42 171.259 1302.24 170.688 1303.12 170.787C1303.8 170.924 1304.43 171.257 1304.92 171.747C1305.26 172.071 1305.58 172.423 1305.87 172.8C1306.08 173.067 1306.13 173.173 1306.37 173.48C1306.61 173.787 1306.77 174.093 1306.65 173.64C1306.56 172.973 1306.4 171.853 1306.17 170.853C1306 170.093 1305.96 169.973 1305.8 169.4C1305.64 168.827 1305.55 168.347 1305.37 167.693C1305.21 167.051 1305.09 166.402 1305 165.747C1304.83 164.909 1304.95 164.039 1305.35 163.28C1305.81 162.842 1306.5 162.726 1307.08 162.987C1307.67 163.421 1308.11 164.026 1308.33 164.72C1308.68 165.574 1308.92 166.471 1309.03 167.387C1309.24 168.72 1309.65 170.667 1309.67 171.067C1309.67 170.573 1309.57 169.533 1309.67 169.067C1309.76 168.58 1310.1 168.176 1310.56 168C1310.96 167.878 1311.38 167.851 1311.79 167.92C1312.2 168.006 1312.57 168.244 1312.81 168.587C1313.12 169.365 1313.29 170.19 1313.32 171.027C1313.36 170.294 1313.48 169.569 1313.69 168.867C1313.92 168.553 1314.24 168.326 1314.61 168.227C1315.05 168.146 1315.51 168.146 1315.95 168.227C1316.31 168.348 1316.62 168.575 1316.85 168.88C1317.14 169.587 1317.31 170.334 1317.36 171.093C1317.36 171.28 1317.45 170.573 1317.75 170.107C1317.9 169.654 1318.28 169.317 1318.75 169.223C1319.22 169.129 1319.7 169.291 1320.02 169.65C1320.33 170.008 1320.43 170.508 1320.28 170.96C1320.28 171.827 1320.28 171.787 1320.28 172.373C1320.28 172.96 1320.28 173.48 1320.28 173.973C1320.23 174.754 1320.12 175.529 1319.96 176.293C1319.73 176.97 1319.41 177.611 1319 178.2C1318.35 178.92 1317.82 179.734 1317.41 180.613C1317.31 181.05 1317.27 181.498 1317.28 181.947C1317.28 182.361 1317.33 182.773 1317.44 183.173C1316.89 183.231 1316.35 183.231 1315.8 183.173C1315.28 183.093 1314.64 182.053 1314.47 181.733C1314.38 181.562 1314.21 181.453 1314.01 181.453C1313.82 181.453 1313.65 181.562 1313.56 181.733C1313.27 182.24 1312.61 183.16 1312.16 183.213C1311.27 183.32 1309.43 183.213 1307.97 183.213C1307.97 183.213 1308.21 181.88 1307.67 181.4C1307.12 180.92 1306.56 180.36 1306.15 179.987L1305.03 178.707Z" fill="white"/>
<path fill-rule="evenodd" clip-rule="evenodd" d="M1305.03 178.707C1304.65 178.227 1304.19 177.253 1303.37 176.04C1302.91 175.373 1301.76 174.107 1301.41 173.453C1301.16 173.056 1301.09 172.573 1301.21 172.12C1301.42 171.259 1302.24 170.688 1303.12 170.787C1303.8 170.924 1304.43 171.257 1304.92 171.747C1305.26 172.071 1305.58 172.423 1305.87 172.8C1306.08 173.067 1306.13 173.173 1306.37 173.48C1306.61 173.787 1306.77 174.093 1306.65 173.64C1306.56 172.973 1306.4 171.853 1306.17 170.853C1306 170.093 1305.96 169.973 1305.8 169.4C1305.64 168.827 1305.55 168.347 1305.37 167.693C1305.21 167.051 1305.09 166.402 1305 165.747C1304.83 164.909 1304.95 164.039 1305.35 163.28C1305.81 162.842 1306.5 162.726 1307.08 162.987C1307.67 163.421 1308.11 164.026 1308.33 164.72C1308.68 165.574 1308.92 166.471 1309.03 167.387C1309.24 168.72 1309.65 170.667 1309.67 171.067C1309.67 170.573 1309.57 169.533 1309.67 169.067C1309.76 168.58 1310.1 168.176 1310.56 168C1310.96 167.878 1311.38 167.851 1311.79 167.92C1312.2 168.006 1312.57 168.244 1312.81 168.587C1313.12 169.365 1313.29 170.19 1313.32 171.027C1313.36 170.294 1313.48 169.569 1313.69 168.867C1313.92 168.553 1314.24 168.326 1314.61 168.227C1315.05 168.146 1315.51 168.146 1315.95 168.227C1316.31 168.348 1316.62 168.575 1316.85 168.88C1317.14 169.587 1317.31 170.334 1317.36 171.093C1317.36 171.28 1317.45 170.573 1317.75 170.107C1317.9 169.654 1318.28 169.317 1318.75 169.223C1319.22 169.129 1319.7 169.291 1320.02 169.65C1320.33 170.008 1320.43 170.508 1320.28 170.96C1320.28 171.827 1320.28 171.787 1320.28 172.373C1320.28 172.96 1320.28 173.48 1320.28 173.973C1320.23 174.754 1320.12 175.529 1319.96 176.293C1319.73 176.97 1319.41 177.611 1319 178.2C1318.35 178.92 1317.82 179.734 1317.41 180.613C1317.31 181.05 1317.27 181.498 1317.28 181.947C1317.28 182.361 1317.33 182.773 1317.44 183.173C1316.89 183.231 1316.35 183.231 1315.8 183.173C1315.28 183.093 1314.64 182.053 1314.47 181.733C1314.38 181.562 1314.21 181.453 1314.01 181.453C1313.82 181.453 1313.65 181.562 1313.56 181.733C1313.27 182.24 1312.61 183.16 1312.16 183.213C1311.27 183.32 1309.43 183.213 1307.97 183.213C1307.97 183.213 1308.21 181.88 1307.67 181.4C1307.12 180.92 1306.56 180.36 1306.15 179.987L1305.03 178.707Z" stroke="black" stroke-linecap="round" stroke-linejoin="round"/>
<path d="M1316.33 179.435V174.832C1316.33 174.557 1316.11 174.333 1315.83 174.333C1315.56 174.333 1315.33 174.557 1315.33 174.832V179.435C1315.33 179.71 1315.56 179.933 1315.83 179.933C1316.11 179.933 1316.33 179.71 1316.33 179.435Z" fill="black"/>
<path d="M1313.69 179.433L1313.67 174.828C1313.67 174.553 1313.44 174.332 1313.16 174.334C1312.89 174.335 1312.67 174.559 1312.67 174.834L1312.69 179.439C1312.69 179.714 1312.92 179.935 1313.2 179.933C1313.47 179.932 1313.69 179.708 1313.69 179.433Z" fill="black"/>
<path d="M1310 174.839L1310.03 179.434C1310.03 179.711 1310.25 179.935 1310.53 179.933C1310.81 179.932 1311.03 179.706 1311.03 179.428L1311 174.833C1311 174.556 1310.77 174.332 1310.5 174.334C1310.22 174.335 1310 174.561 1310 174.839Z" fill="black"/>
</g>
</g>
<g clip-path="url(#clip3_873_46214)">
<path d="M144.526 123.243H147.858C148.811 123.244 149.754 123.058 150.634 122.694C151.514 122.33 152.314 121.796 152.988 121.123C153.662 120.45 154.196 119.651 154.561 118.771C154.926 117.891 155.113 116.948 155.113 115.996H151.781C150.829 115.995 149.885 116.182 149.005 116.545C148.125 116.909 147.325 117.443 146.651 118.116C145.978 118.789 145.443 119.588 145.078 120.468C144.714 121.348 144.526 122.291 144.526 123.243Z" fill="white"/>
<path d="M163.336 135.639C161.75 134.06 159.722 133.001 157.52 132.6C155.319 132.2 153.048 132.478 151.008 133.397C148.289 134.605 145.28 135.005 142.34 134.548V110.019C140.416 110.019 138.571 110.783 137.21 112.144C135.85 113.504 135.085 115.349 135.085 117.274V131.335C132.594 129.341 130.782 126.623 129.902 123.555C129.022 120.487 129.116 117.222 130.172 114.21C131.227 111.198 133.192 108.588 135.795 106.741C138.398 104.895 141.51 103.901 144.701 103.899C146.862 103.895 148.998 104.348 150.97 105.229C153.01 106.149 155.281 106.427 157.483 106.026C159.685 105.626 161.713 104.566 163.298 102.988L162.17 101.86C157.879 97.557 152.15 94.9905 146.083 94.6527C140.016 94.3148 134.037 96.2294 129.295 100.029C126.398 102.337 124.058 105.267 122.449 108.603C120.84 111.939 120.003 115.595 120 119.298C119.988 122.548 120.62 125.767 121.862 128.769C123.104 131.772 124.929 134.498 127.233 136.79C127.883 137.435 128.566 138.046 129.28 138.62C134.028 142.407 140.003 144.314 146.067 143.976C152.13 143.638 157.857 141.08 162.155 136.79L163.336 135.639Z" fill="white"/>
<path d="M187.915 97.3951C189.153 98.1257 190.173 99.176 190.866 100.436L187.675 102.947C186.592 101.31 185.24 100.496 183.633 100.496C183.042 100.478 182.453 100.585 181.906 100.81C181.359 101.035 180.865 101.374 180.458 101.803C180.045 102.242 179.724 102.757 179.511 103.32C179.298 103.883 179.198 104.482 179.218 105.083C179.196 105.69 179.295 106.294 179.508 106.862C179.721 107.43 180.044 107.95 180.458 108.393C180.867 108.819 181.361 109.152 181.909 109.372C182.456 109.593 183.044 109.694 183.633 109.671C185.197 109.671 186.545 108.867 187.675 107.258L190.866 109.708C190.159 110.975 189.128 112.03 187.877 112.764C186.562 113.526 185.063 113.913 183.544 113.885C182.363 113.909 181.189 113.696 180.091 113.259C178.994 112.821 177.996 112.168 177.155 111.337C176.307 110.529 175.636 109.553 175.186 108.471C174.736 107.389 174.516 106.225 174.54 105.054C174.518 103.89 174.739 102.734 175.189 101.661C175.639 100.588 176.309 99.6211 177.155 98.8222C177.998 97.9955 178.997 97.3456 180.094 96.9107C181.191 96.4757 182.364 96.2644 183.544 96.2893C185.074 96.2507 186.586 96.6332 187.915 97.3951Z" fill="white"/>
<path d="M207.341 98.8216C208.196 99.6155 208.873 100.581 209.329 101.655C209.785 102.729 210.009 103.887 209.986 105.053C210.008 106.221 209.784 107.381 209.328 108.457C208.873 109.534 208.196 110.502 207.341 111.299C206.495 112.129 205.491 112.782 204.389 113.22C203.287 113.657 202.109 113.871 200.923 113.847C199.746 113.874 198.575 113.664 197.48 113.23C196.386 112.797 195.389 112.148 194.55 111.322C193.707 110.513 193.041 109.539 192.595 108.46C192.149 107.381 191.931 106.22 191.957 105.053C191.933 103.889 192.153 102.733 192.603 101.66C193.054 100.586 193.724 99.6194 194.572 98.8216C195.413 97.9945 196.41 97.3442 197.506 96.9092C198.602 96.4741 199.774 96.2631 200.953 96.2887C202.132 96.2672 203.304 96.48 204.401 96.9148C205.498 97.3495 206.497 97.9977 207.341 98.8216ZM197.83 101.773C197.004 102.673 196.564 103.862 196.604 105.083C196.582 105.683 196.679 106.282 196.889 106.845C197.099 107.408 197.419 107.924 197.83 108.363C198.657 109.187 199.778 109.65 200.946 109.65C202.113 109.65 203.234 109.187 204.061 108.363C204.476 107.929 204.799 107.417 205.012 106.856C205.225 106.295 205.324 105.697 205.301 105.098C205.337 103.881 204.892 102.7 204.061 101.81C203.67 101.378 203.189 101.035 202.653 100.805C202.116 100.576 201.536 100.465 200.953 100.48C200.371 100.462 199.791 100.568 199.252 100.791C198.714 101.013 198.229 101.348 197.83 101.773Z" fill="white"/>
<path d="M236.748 98.138C237.925 99.494 238.533 101.253 238.444 103.047V113.507H233.864V103.689C233.906 102.822 233.615 101.972 233.049 101.313C232.771 101.019 232.433 100.788 232.058 100.636C231.683 100.483 231.279 100.414 230.875 100.432C230.461 100.415 230.047 100.485 229.661 100.637C229.275 100.789 228.925 101.019 228.633 101.313C228.348 101.611 228.124 101.963 227.975 102.347C227.826 102.732 227.756 103.143 227.767 103.555V113.47H223.179V103.689C223.223 102.821 222.928 101.969 222.357 101.313C222.08 101.018 221.742 100.786 221.367 100.634C220.991 100.482 220.588 100.413 220.183 100.432C219.769 100.415 219.355 100.485 218.969 100.637C218.584 100.789 218.233 101.019 217.941 101.313C217.368 101.968 217.076 102.821 217.127 103.689V113.47H212.539V96.6586H216.753V98.153C217.37 97.526 218.112 97.0357 218.931 96.7139C219.75 96.3922 220.627 96.246 221.505 96.2851C223.767 96.2851 225.431 97.0895 226.496 98.6984C227.189 97.9002 228.052 97.2686 229.022 96.8507C229.993 96.4328 231.045 96.2395 232.1 96.2851C232.963 96.2398 233.825 96.382 234.627 96.7019C235.429 97.0218 236.153 97.5117 236.748 98.138Z" fill="white"/>
<path d="M257.288 98.7615C258.838 100.479 259.658 102.733 259.574 105.045C259.653 107.365 258.834 109.626 257.288 111.359C256.553 112.18 255.647 112.831 254.634 113.266C253.621 113.701 252.525 113.909 251.423 113.877C250.488 113.92 249.555 113.76 248.688 113.408C247.822 113.056 247.041 112.52 246.402 111.837V119.577H241.792V96.6545H246.006V98.7615C247.201 97.1077 248.999 96.2809 251.4 96.2809C252.503 96.2451 253.599 96.4483 254.616 96.8765C255.632 97.3047 256.544 97.9477 257.288 98.7615ZM253.672 108.422C254.096 107.978 254.426 107.452 254.641 106.877C254.857 106.302 254.954 105.689 254.927 105.075C254.954 104.458 254.858 103.842 254.645 103.262C254.432 102.682 254.106 102.151 253.687 101.698C252.878 100.901 251.793 100.446 250.658 100.428C249.522 100.41 248.424 100.83 247.59 101.601C247.15 102.054 246.81 102.595 246.594 103.189C246.378 103.782 246.289 104.415 246.335 105.045C246.292 105.674 246.381 106.304 246.594 106.897C246.808 107.49 247.142 108.032 247.575 108.49C247.966 108.882 248.433 109.191 248.946 109.399C249.459 109.607 250.01 109.709 250.564 109.7C251.142 109.713 251.716 109.606 252.251 109.386C252.786 109.166 253.27 108.838 253.672 108.422Z" fill="white"/>
<path d="M266.738 113.471H262.157V88H266.738V113.471Z" fill="white"/>
<path d="M285.718 106.609H273.912C274.16 107.606 274.756 108.48 275.594 109.075C276.503 109.674 277.576 109.974 278.664 109.934C280.373 109.916 282.025 109.318 283.349 108.238L285.254 111.361C283.394 112.991 281.003 113.886 278.53 113.879C277.318 113.918 276.11 113.714 274.979 113.279C273.847 112.844 272.814 112.187 271.94 111.346C271.091 110.541 270.419 109.568 269.969 108.488C269.519 107.409 269.299 106.247 269.325 105.077C269.309 103.918 269.525 102.767 269.962 101.693C270.398 100.619 271.045 99.6429 271.865 98.823C272.685 98.0032 273.66 97.356 274.735 96.9198C275.809 96.4835 276.96 96.2671 278.119 96.2832C279.161 96.2407 280.201 96.4131 281.174 96.7896C282.146 97.166 283.031 97.7386 283.773 98.4715C284.516 99.2045 285.099 100.082 285.487 101.05C285.876 102.018 286.061 103.056 286.031 104.098C286.028 104.945 285.922 105.788 285.718 106.609ZM275.407 100.901C274.66 101.549 274.137 102.417 273.912 103.381H281.586C281.595 102.913 281.502 102.449 281.313 102.021C281.125 101.593 280.846 101.21 280.495 100.901C279.789 100.289 278.881 99.9639 277.947 99.9891C277.018 99.9756 276.115 100.299 275.407 100.901Z" fill="white"/>
<path d="M299.378 109.67V113.502C298.346 113.77 297.284 113.908 296.218 113.913C294.424 114.023 292.654 113.458 291.256 112.329C290.081 111.273 289.493 109.694 289.493 107.592V100.532H286.841V96.6614H289.493V92.4175H294.088V96.6614H298.848V100.532H294.088V107.159C294.051 107.53 294.099 107.904 294.228 108.254C294.358 108.604 294.565 108.919 294.835 109.176C295.543 109.631 296.38 109.841 297.219 109.774C297.478 109.774 298.197 109.739 299.378 109.67Z" fill="white"/>
<path d="M316.798 106.609H304.977C305.231 107.603 305.826 108.476 306.658 109.075C307.57 109.675 308.646 109.976 309.737 109.934C311.446 109.916 313.098 109.318 314.422 108.238L316.327 111.361C314.466 112.991 312.076 113.886 309.602 113.879C308.39 113.918 307.183 113.714 306.051 113.279C304.919 112.844 303.886 112.187 303.012 111.346C302.162 110.543 301.489 109.569 301.039 108.489C300.588 107.41 300.37 106.247 300.397 105.077C300.38 103.918 300.596 102.766 301.032 101.692C301.468 100.617 302.115 99.6408 302.935 98.8207C303.755 98.0007 304.731 97.3536 305.806 96.9177C306.881 96.4818 308.032 96.266 309.191 96.2832C310.234 96.2407 311.273 96.4131 312.246 96.7896C313.219 97.166 314.104 97.7386 314.846 98.4715C315.588 99.2045 316.171 100.082 316.56 101.05C316.948 102.018 317.133 103.056 317.104 104.098C317.103 104.945 317 105.787 316.798 106.609ZM306.472 100.901C305.727 101.551 305.204 102.419 304.977 103.381H312.658C312.667 102.913 312.574 102.449 312.386 102.021C312.197 101.593 311.918 101.21 311.567 100.901C310.866 100.293 309.963 99.9676 309.034 99.9891C308.098 99.9722 307.187 100.296 306.472 100.901Z" fill="white"/>
<path d="M181.633 121.35C181.362 121.606 181.153 121.921 181.024 122.271C180.894 122.621 180.847 122.996 180.886 123.367V125.713H184.621V129.583H180.886V142.539H176.298V129.583H173.922V125.713H176.298V122.963C176.298 120.856 176.881 119.28 178.031 118.226C179.35 117.118 181.041 116.552 182.761 116.642C183.614 116.638 184.463 116.764 185.279 117.016V120.871C184.828 120.806 184.374 120.771 183.919 120.767C183.114 120.709 182.312 120.913 181.633 121.35Z" fill="white"/>
<path d="M198.259 127.193C199.559 128.428 200.209 130.211 200.209 132.543V142.54H196.002V140.896C195.34 141.58 194.54 142.115 193.655 142.467C192.77 142.819 191.82 142.978 190.869 142.936C189.327 143.02 187.81 142.516 186.625 141.524C186.117 141.071 185.714 140.513 185.444 139.888C185.174 139.264 185.044 138.587 185.064 137.907C185.036 137.215 185.178 136.527 185.476 135.903C185.774 135.278 186.22 134.735 186.775 134.321C188.134 133.384 189.766 132.925 191.415 133.013H195.629V132.266C195.651 131.868 195.592 131.47 195.454 131.096C195.317 130.722 195.104 130.38 194.829 130.092C194.181 129.545 193.343 129.276 192.498 129.345C191.004 129.345 189.509 130.114 188.015 131.653L185.676 128.807C186.554 127.709 187.672 126.827 188.944 126.229C190.216 125.63 191.608 125.331 193.013 125.355C194.936 125.254 196.82 125.914 198.259 127.193ZM194.605 138.639C194.939 138.337 195.203 137.967 195.38 137.552C195.556 137.138 195.641 136.691 195.629 136.241V136.039H192.027C190.466 136.039 189.681 136.607 189.681 137.735C189.673 137.997 189.729 138.257 189.845 138.491C189.961 138.726 190.133 138.928 190.346 139.08C190.86 139.431 191.474 139.604 192.094 139.573C193.02 139.597 193.92 139.263 194.605 138.639Z" fill="white"/>
<path d="M213.932 125.716V129.758H212.707C211.508 129.693 210.329 130.089 209.412 130.864C208.979 131.286 208.644 131.798 208.428 132.363C208.213 132.928 208.123 133.533 208.164 134.136V142.542H203.606V125.716H207.813V127.755C208.346 127.037 209.045 126.458 209.85 126.067C210.656 125.677 211.543 125.487 212.438 125.514C212.943 125.506 213.447 125.574 213.932 125.716Z" fill="white"/>
<path d="M239.982 127.199C241.151 128.551 241.757 130.299 241.678 132.085V142.546H237.097V132.75C237.141 131.882 236.846 131.03 236.276 130.374C236 130.079 235.663 129.847 235.289 129.695C234.915 129.543 234.512 129.474 234.109 129.493C233.694 129.476 233.281 129.546 232.895 129.698C232.509 129.849 232.159 130.08 231.867 130.374C231.582 130.672 231.358 131.023 231.209 131.408C231.06 131.793 230.989 132.203 231.001 132.616V142.546H226.413V132.75C226.459 131.883 226.167 131.031 225.599 130.374C225.321 130.08 224.983 129.848 224.608 129.696C224.232 129.544 223.829 129.475 223.424 129.493C223.01 129.476 222.597 129.546 222.211 129.698C221.825 129.849 221.475 130.08 221.183 130.374C220.891 130.694 220.665 131.069 220.519 131.477C220.373 131.885 220.309 132.318 220.331 132.75V142.546H215.751V125.719H219.958V127.214C220.576 126.587 221.32 126.097 222.139 125.776C222.959 125.454 223.837 125.308 224.717 125.346C226.978 125.346 228.642 126.15 229.708 127.759C230.4 126.961 231.263 126.329 232.234 125.911C233.204 125.494 234.256 125.3 235.312 125.346C236.178 125.297 237.044 125.438 237.851 125.758C238.657 126.078 239.384 126.57 239.982 127.199Z" fill="white"/>
<path d="M260.463 135.666H248.666C248.917 136.659 249.513 137.53 250.347 138.124C251.257 138.727 252.334 139.031 253.425 138.991C255.132 138.978 256.784 138.385 258.11 137.31L260.015 140.433C258.155 142.063 255.764 142.958 253.291 142.951C252.079 142.99 250.871 142.786 249.739 142.351C248.607 141.916 247.574 141.259 246.701 140.418C245.85 139.615 245.178 138.641 244.727 137.561C244.277 136.482 244.058 135.319 244.086 134.149C244.068 132.99 244.284 131.838 244.72 130.764C245.156 129.689 245.803 128.713 246.623 127.893C247.443 127.073 248.419 126.426 249.494 125.99C250.569 125.554 251.72 125.338 252.88 125.355C253.922 125.313 254.962 125.485 255.934 125.862C256.907 126.238 257.792 126.811 258.534 127.544C259.276 128.277 259.86 129.154 260.248 130.122C260.636 131.09 260.822 132.128 260.792 133.171C260.779 134.012 260.668 134.85 260.463 135.666ZM250.138 129.958C249.393 130.608 248.87 131.476 248.643 132.438H256.324C256.333 131.97 256.24 131.506 256.052 131.078C255.863 130.65 255.584 130.267 255.233 129.958C254.528 129.346 253.619 129.021 252.685 129.046C251.761 129.035 250.864 129.359 250.16 129.958H250.138Z" fill="white"/>
<path d="M273.666 125.716V129.758H272.418C271.219 129.693 270.041 130.089 269.123 130.864C268.701 131.292 268.377 131.805 268.172 132.37C267.967 132.935 267.886 133.537 267.935 134.136V142.542H263.355V125.716H267.562V127.755C268.095 127.037 268.794 126.458 269.599 126.067C270.404 125.677 271.292 125.487 272.187 125.514C272.687 125.507 273.186 125.575 273.666 125.716Z" fill="white"/>
<path d="M278.03 137.535C278.597 138.143 278.912 138.944 278.912 139.776C278.912 140.608 278.597 141.409 278.03 142.018C277.74 142.316 277.39 142.551 277.004 142.706C276.618 142.862 276.204 142.935 275.788 142.922C275.367 142.933 274.948 142.859 274.556 142.703C274.164 142.548 273.808 142.315 273.509 142.018C272.929 141.416 272.604 140.612 272.604 139.776C272.604 138.94 272.929 138.136 273.509 137.535C273.806 137.234 274.162 136.998 274.554 136.84C274.946 136.682 275.366 136.606 275.788 136.616C276.205 136.604 276.62 136.68 277.006 136.838C277.392 136.996 277.741 137.234 278.03 137.535Z" fill="white"/>
</g>
<path d="M945.6 103.32L947.46 101.92C948.32 103.1 949.26 103.84 950.7 103.84C951.88 103.84 952.58 103.28 952.58 102.38C952.58 101.6 952.16 101.32 950.9 100.74L949.48 100.1C947.46 99.2 946.28 98.06 946.28 96.3C946.28 94.04 948.16 92.56 950.66 92.56C952.68 92.56 954.2 93.54 955.02 95.06L953.18 96.48C952.5 95.46 951.66 94.96 950.66 94.96C949.72 94.96 949.02 95.42 949.02 96.24C949.02 96.94 949.44 97.26 950.56 97.76L952.06 98.42C954.28 99.4 955.32 100.5 955.32 102.28C955.32 104.7 953.34 106.24 950.7 106.24C948.46 106.24 946.62 105.1 945.6 103.32ZM957.572 100.54V92.8H960.272V100.74C960.272 102.66 961.472 103.74 963.172 103.74C964.912 103.74 966.072 102.66 966.072 100.74V92.8H968.772V100.54C968.772 104.04 966.372 106.24 963.172 106.24C959.932 106.24 957.572 104.04 957.572 100.54ZM971.696 106V92.8H976.656C979.416 92.8 981.416 94.52 981.416 97.06C981.416 99.58 979.416 101.34 976.656 101.34H974.396V106H971.696ZM974.396 98.98H976.656C977.916 98.98 978.656 98.2 978.656 97.06C978.656 95.94 977.876 95.18 976.656 95.18H974.396V98.98ZM983.571 106V92.8H988.531C991.291 92.8 993.291 94.52 993.291 97.06C993.291 99.58 991.291 101.34 988.531 101.34H986.271V106H983.571ZM986.271 98.98H988.531C989.791 98.98 990.531 98.2 990.531 97.06C990.531 95.94 989.751 95.18 988.531 95.18H986.271V98.98ZM994.686 99.4C994.626 95.62 997.886 92.48 1001.69 92.56C1005.49 92.48 1008.79 95.62 1008.73 99.4C1008.79 103.18 1005.49 106.32 1001.69 106.24C997.886 106.32 994.626 103.18 994.686 99.4ZM1005.95 99.4C1005.95 96.9 1004.13 95.06 1001.71 95.06C999.266 95.06 997.466 96.86 997.466 99.4C997.466 101.94 999.266 103.74 1001.71 103.74C1004.13 103.74 1005.95 101.94 1005.95 99.4ZM1022.15 106H1019.11L1015.69 101.34H1013.71V106H1011.01V92.8H1015.97C1018.73 92.8 1020.73 94.52 1020.73 97.06C1020.73 98.74 1019.85 100.1 1018.41 100.82L1022.15 106ZM1013.71 95.18V98.96H1015.97C1017.23 98.96 1017.97 98.2 1017.97 97.06C1017.97 95.94 1017.19 95.18 1015.97 95.18H1013.71ZM1026.28 106V95.24H1022.06V92.8H1033.22V95.24H1028.98V106H1026.28Z" fill="white"/>
<path d="M945.768 147.72C945.704 144.696 948.264 142.216 951.256 142.264C953.128 142.264 954.744 143.144 955.64 144.536L954.712 145.272C953.896 144.104 952.728 143.416 951.272 143.416C948.888 143.416 947.064 145.272 947.064 147.72C947.064 150.168 948.888 152.024 951.272 152.024C952.728 152.024 953.896 151.336 954.712 150.168L955.64 150.904C954.76 152.296 953.128 153.176 951.256 153.176C948.264 153.224 945.704 150.744 945.768 147.72ZM957.081 149.096C957.033 146.872 958.937 144.984 961.161 145.032C963.385 145 965.289 146.872 965.241 149.096C965.289 151.288 963.369 153.208 961.145 153.16C958.921 153.208 957.049 151.288 957.081 149.096ZM963.977 149.112C963.977 147.432 962.745 146.168 961.161 146.168C959.561 146.168 958.345 147.432 958.345 149.112C958.345 150.744 959.561 152.024 961.145 152.024C962.729 152.024 963.977 150.744 963.977 149.112ZM973.855 148.104V153H972.623V148.248C972.623 147.016 971.887 146.168 970.687 146.168C969.487 146.168 968.639 147.032 968.639 148.248V153H967.407V145.208H968.559V146.04C969.135 145.4 969.983 145.032 970.959 145.032C972.767 145.032 973.855 146.264 973.855 148.104ZM980.725 151.96V153C980.229 153.112 979.797 153.176 979.429 153.176C977.813 153.176 976.805 152.36 976.805 150.648V146.312H975.493V145.208H976.805V143.08H978.037V145.208H980.469V146.312H978.037V150.568C978.037 151.672 978.613 152.056 979.685 152.056C979.989 152.056 980.325 152.024 980.725 151.96ZM988.403 148.2V153H987.251V151.992C986.675 152.76 985.763 153.176 984.627 153.176C983.027 153.176 981.907 152.328 981.907 150.984C981.907 149.656 983.027 148.808 984.707 148.808H987.171V148.136C987.171 146.856 986.451 146.168 985.283 146.168C984.339 146.168 983.651 146.584 983.011 147.416L982.195 146.744C982.899 145.592 984.067 145.032 985.363 145.032C987.203 145.032 988.403 146.152 988.403 148.2ZM987.171 150.008V149.816H984.851C983.763 149.816 983.171 150.2 983.171 150.92C983.171 151.704 983.875 152.152 984.787 152.152C986.067 152.152 987.171 151.208 987.171 150.008ZM990.456 149.096C990.408 146.872 992.312 145 994.536 145.032C995.896 145.032 997.048 145.688 997.752 146.728L996.872 147.432C996.248 146.584 995.464 146.168 994.552 146.168C992.936 146.168 991.72 147.48 991.72 149.096C991.72 150.728 992.936 152.04 994.552 152.04C995.464 152.04 996.232 151.624 996.856 150.792L997.736 151.48C997.032 152.52 995.896 153.176 994.536 153.176C992.28 153.176 990.456 151.352 990.456 149.096ZM1004.08 151.96V153C1003.59 153.112 1003.16 153.176 1002.79 153.176C1001.17 153.176 1000.16 152.36 1000.16 150.648V146.312H998.853V145.208H1000.16V143.08H1001.4V145.208H1003.83V146.312H1001.4V150.568C1001.4 151.672 1001.97 152.056 1003.04 152.056C1003.35 152.056 1003.68 152.024 1004.08 151.96ZM1010.31 149.896V145.208H1011.53V149.976C1011.53 151.24 1012.39 152.04 1013.54 152.04C1014.68 152.04 1015.53 151.208 1015.53 149.976V145.208H1016.76V149.896C1016.76 151.864 1015.35 153.176 1013.54 153.176C1011.72 153.176 1010.31 151.864 1010.31 149.896ZM1018.62 151.656L1019.41 150.84C1020.16 151.608 1020.77 152.04 1021.65 152.04C1022.5 152.04 1023.14 151.624 1023.14 150.936C1023.14 150.312 1022.74 150.072 1021.78 149.688L1021.02 149.368C1019.73 148.84 1019.09 148.248 1019.09 147.208C1019.09 145.848 1020.22 145.032 1021.71 145.032C1022.8 145.032 1023.68 145.496 1024.32 146.264L1023.57 147.032C1023.04 146.504 1022.37 146.168 1021.65 146.168C1020.88 146.168 1020.35 146.52 1020.35 147.144C1020.35 147.64 1020.67 147.88 1021.62 148.28L1022.34 148.584C1023.79 149.208 1024.4 149.816 1024.4 150.888C1024.4 151.608 1024.13 152.184 1023.6 152.584C1023.07 152.984 1022.43 153.176 1021.66 153.176C1020.37 153.176 1019.31 152.552 1018.62 151.656Z" fill="white"/>
<path d="M539.52 106V92.8H544.48C547.24 92.8 549.24 94.52 549.24 97.06C549.24 99.58 547.24 101.34 544.48 101.34H542.22V106H539.52ZM542.22 98.98H544.48C545.74 98.98 546.48 98.2 546.48 97.06C546.48 95.94 545.7 95.18 544.48 95.18H542.22V98.98ZM562.535 106H559.495L556.075 101.34H554.095V106H551.395V92.8H556.355C559.115 92.8 561.115 94.52 561.115 97.06C561.115 98.74 560.235 100.1 558.795 100.82L562.535 106ZM554.095 95.18V98.96H556.355C557.615 98.96 558.355 98.2 558.355 97.06C558.355 95.94 557.575 95.18 556.355 95.18H554.095ZM563.135 99.4C563.075 95.62 566.335 92.48 570.135 92.56C573.935 92.48 577.235 95.62 577.175 99.4C577.235 103.18 573.935 106.32 570.135 106.24C566.335 106.32 563.075 103.18 563.135 99.4ZM574.395 99.4C574.395 96.9 572.575 95.06 570.155 95.06C567.715 95.06 565.915 96.86 565.915 99.4C565.915 101.94 567.715 103.74 570.155 103.74C572.575 103.74 574.395 101.94 574.395 99.4ZM579.461 106V92.8H583.781C587.961 92.76 591.041 95.46 590.981 99.36C591.041 103.18 587.961 106.06 583.781 106H579.461ZM582.161 103.56H583.761C586.421 103.56 588.201 101.9 588.201 99.36C588.201 96.8 586.461 95.24 583.761 95.24H582.161V103.56ZM593.15 100.54V92.8H595.85V100.74C595.85 102.66 597.05 103.74 598.75 103.74C600.49 103.74 601.65 102.66 601.65 100.74V92.8H604.35V100.54C604.35 104.04 601.95 106.24 598.75 106.24C595.51 106.24 593.15 104.04 593.15 100.54ZM606.514 99.4C606.454 95.62 609.714 92.48 613.554 92.56C616.054 92.56 618.194 93.78 619.374 95.84L617.334 97.28C616.394 95.8 615.134 95.06 613.554 95.06C611.094 95.06 609.294 96.9 609.294 99.42C609.294 101.94 611.094 103.74 613.554 103.74C615.134 103.74 616.394 103 617.334 101.52L619.374 102.96C618.234 105.02 616.074 106.24 613.534 106.24C609.674 106.32 606.434 103.18 606.514 99.4ZM624.648 106V95.24H620.428V92.8H631.588V95.24H627.348V106H624.648ZM632.448 103.32L634.308 101.92C635.168 103.1 636.108 103.84 637.548 103.84C638.728 103.84 639.428 103.28 639.428 102.38C639.428 101.6 639.008 101.32 637.748 100.74L636.328 100.1C634.308 99.2 633.128 98.06 633.128 96.3C633.128 94.04 635.008 92.56 637.508 92.56C639.528 92.56 641.048 93.54 641.868 95.06L640.028 96.48C639.348 95.46 638.508 94.96 637.508 94.96C636.568 94.96 635.868 95.42 635.868 96.24C635.868 96.94 636.288 97.26 637.408 97.76L638.908 98.42C641.128 99.4 642.168 100.5 642.168 102.28C642.168 104.7 640.188 106.24 637.548 106.24C635.308 106.24 633.468 105.1 632.448 103.32Z" fill="white"/>
<path d="M538.768 147.72C538.72 144.696 541.232 142.216 544.256 142.264C546.048 142.264 547.584 143.064 548.56 144.424L547.616 145.16C546.8 144.056 545.664 143.416 544.256 143.416C541.856 143.368 540.016 145.32 540.064 147.704C540.016 150.12 541.888 152.104 544.32 152.056C545.856 152.056 547.12 151.32 547.84 150.168V148.744H544.24V147.624H549.088V150.44C548.624 151.272 547.952 151.944 547.088 152.44C546.24 152.936 545.296 153.176 544.256 153.176C541.232 153.224 538.72 150.744 538.768 147.72ZM555.442 145.208V146.296H554.978C553.666 146.296 552.53 147.144 552.53 148.584V153H551.298V145.208H552.45V146.312C553.01 145.56 553.922 145.144 554.866 145.144C555.042 145.144 555.234 145.16 555.442 145.208ZM556.378 149.096C556.33 146.872 558.234 144.984 560.458 145.032C562.682 145 564.586 146.872 564.538 149.096C564.586 151.288 562.666 153.208 560.442 153.16C558.218 153.208 556.346 151.288 556.378 149.096ZM563.274 149.112C563.274 147.432 562.042 146.168 560.458 146.168C558.858 146.168 557.642 147.432 557.642 149.112C557.642 150.744 558.858 152.024 560.442 152.024C562.026 152.024 563.274 150.744 563.274 149.112ZM576.903 145.208H578.215L574.935 153.176H574.487L571.831 147.288L569.191 153.176H568.759L565.447 145.208H566.759L569.015 150.984L571.607 145.032H572.071L574.695 150.936L576.903 145.208ZM586.568 149.48H580.408C580.552 151.016 581.736 152.04 583.272 152.04C584.152 152.04 584.952 151.688 585.656 150.984L586.376 151.816C585.56 152.664 584.488 153.176 583.256 153.176C580.936 153.176 579.128 151.4 579.128 149.112C579.128 146.856 580.888 145.032 583.112 145.032C585.128 145.032 586.664 146.488 586.664 148.552C586.664 148.856 586.632 149.16 586.568 149.48ZM580.456 148.392H585.4C585.384 147 584.376 146.152 583.08 146.152C581.784 146.152 580.728 147.048 580.456 148.392ZM592.973 145.208V146.296H592.509C591.197 146.296 590.061 147.144 590.061 148.584V153H588.829V145.208H589.981V146.312C590.541 145.56 591.453 145.144 592.397 145.144C592.573 145.144 592.765 145.16 592.973 145.208Z" fill="white"/>
<path d="M547.152 181.96C547.152 183.72 545.872 185 543.808 185H539.456V174.44H543.088C544 174.44 544.736 174.696 545.28 175.192C545.824 175.688 546.096 176.328 546.096 177.112C546.096 177.992 545.728 178.696 545.088 179.192C546.384 179.576 547.152 180.6 547.152 181.96ZM542.96 175.56H540.704V178.84H542.96C544.16 178.84 544.816 178.2 544.816 177.192C544.816 176.184 544.176 175.56 542.96 175.56ZM545.872 181.928C545.872 180.76 545.072 179.976 543.68 179.976H540.704V183.88H543.68C545.072 183.88 545.872 183.096 545.872 181.928ZM549.123 181.896V177.208H550.339V181.976C550.339 183.24 551.203 184.04 552.355 184.04C553.491 184.04 554.339 183.208 554.339 181.976V177.208H555.571V181.896C555.571 183.864 554.163 185.176 552.355 185.176C550.531 185.176 549.123 183.864 549.123 181.896ZM563.709 177.208H565.021L561.181 186.088C560.589 187.448 559.741 188.056 558.541 188.056C558.141 188.056 557.741 188.008 557.34 187.896V186.856C557.741 186.904 558.061 186.936 558.285 186.936C559.101 186.936 559.645 186.632 560.045 185.688L560.461 184.76L557.229 177.208H558.557L561.133 183.416L563.709 177.208ZM573.365 181.48H567.205C567.349 183.016 568.533 184.04 570.069 184.04C570.949 184.04 571.749 183.688 572.453 182.984L573.173 183.816C572.357 184.664 571.285 185.176 570.053 185.176C567.733 185.176 565.925 183.4 565.925 181.112C565.925 178.856 567.685 177.032 569.909 177.032C571.925 177.032 573.461 178.488 573.461 180.552C573.461 180.856 573.429 181.16 573.365 181.48ZM567.253 180.392H572.197C572.181 179 571.173 178.152 569.877 178.152C568.581 178.152 567.525 179.048 567.253 180.392ZM579.77 177.208V178.296H579.306C577.994 178.296 576.858 179.144 576.858 180.584V185H575.626V177.208H576.778V178.312C577.338 177.56 578.25 177.144 579.194 177.144C579.37 177.144 579.562 177.16 579.77 177.208Z" fill="white"/>
<path d="M746.76 99.4C746.7 95.62 749.96 92.48 753.8 92.56C756.3 92.56 758.44 93.78 759.62 95.84L757.58 97.28C756.64 95.8 755.38 95.06 753.8 95.06C751.34 95.06 749.54 96.9 749.54 99.42C749.54 101.94 751.34 103.74 753.8 103.74C755.38 103.74 756.64 103 757.58 101.52L759.62 102.96C758.48 105.02 756.32 106.24 753.78 106.24C749.92 106.32 746.68 103.18 746.76 99.4ZM761.057 99.4C760.997 95.62 764.257 92.48 768.057 92.56C771.857 92.48 775.157 95.62 775.097 99.4C775.157 103.18 771.857 106.32 768.057 106.24C764.257 106.32 760.997 103.18 761.057 99.4ZM772.317 99.4C772.317 96.9 770.497 95.06 768.077 95.06C765.637 95.06 763.837 96.86 763.837 99.4C763.837 101.94 765.637 103.74 768.077 103.74C770.497 103.74 772.317 101.94 772.317 99.4ZM789.423 92.56H790.303V106H787.603V98.96L784.283 103.12H783.403L780.083 98.96V106H777.383V92.56H778.263L783.843 99.7L789.423 92.56ZM793.34 106V92.8H798.3C801.06 92.8 803.06 94.52 803.06 97.06C803.06 99.58 801.06 101.34 798.3 101.34H796.04V106H793.34ZM796.04 98.98H798.3C799.56 98.98 800.3 98.2 800.3 97.06C800.3 95.94 799.52 95.18 798.3 95.18H796.04V98.98ZM812.134 106L811.394 104.28H805.994L805.254 106H802.354L808.254 92.56H809.154L815.034 106H812.134ZM810.454 102.06L808.694 97.6L806.934 102.06H810.454ZM825.376 92.8H828.076V106.24H827.176L819.536 98.08V106H816.836V92.56H817.716L825.376 100.68V92.8ZM841.714 92.8L837.174 100.8V106H834.474V100.82L829.914 92.8H832.914L835.834 98.04L838.734 92.8H841.714Z" fill="white"/>
<path d="M754.784 153L753.888 150.856H748.704L747.808 153H746.496L751.072 142.264H751.536L756.112 153H754.784ZM753.408 149.736L751.296 144.536L749.184 149.736H753.408ZM765.921 149.112C765.921 151.4 764.273 153.176 762.081 153.176C760.865 153.176 759.713 152.648 759.121 151.768V153H757.969V141H759.201V146.344C759.825 145.528 760.897 145.032 762.065 145.032C764.257 145.032 765.921 146.824 765.921 149.112ZM764.657 149.096C764.657 147.416 763.473 146.168 761.889 146.168C760.449 146.168 759.185 147.128 759.185 149.112C759.185 151.08 760.497 152.04 761.889 152.04C763.473 152.04 764.657 150.776 764.657 149.096ZM767.519 149.096C767.471 146.872 769.375 144.984 771.599 145.032C773.823 145 775.727 146.872 775.679 149.096C775.727 151.288 773.807 153.208 771.583 153.16C769.359 153.208 767.487 151.288 767.519 149.096ZM774.415 149.112C774.415 147.432 773.183 146.168 771.599 146.168C769.999 146.168 768.783 147.432 768.783 149.112C768.783 150.744 769.999 152.024 771.583 152.024C773.167 152.024 774.415 150.744 774.415 149.112ZM777.748 149.896V145.208H778.964V149.976C778.964 151.24 779.828 152.04 780.98 152.04C782.116 152.04 782.964 151.208 782.964 149.976V145.208H784.196V149.896C784.196 151.864 782.788 153.176 780.98 153.176C779.156 153.176 777.748 151.864 777.748 149.896ZM791.054 151.96V153C790.558 153.112 790.126 153.176 789.758 153.176C788.142 153.176 787.134 152.36 787.134 150.648V146.312H785.822V145.208H787.134V143.08H788.366V145.208H790.798V146.312H788.366V150.568C788.366 151.672 788.942 152.056 790.014 152.056C790.318 152.056 790.654 152.024 791.054 151.96ZM797.28 149.896V145.208H798.496V149.976C798.496 151.24 799.36 152.04 800.512 152.04C801.648 152.04 802.496 151.208 802.496 149.976V145.208H803.728V149.896C803.728 151.864 802.32 153.176 800.512 153.176C798.688 153.176 797.28 151.864 797.28 149.896ZM805.593 151.656L806.377 150.84C807.129 151.608 807.737 152.04 808.617 152.04C809.465 152.04 810.105 151.624 810.105 150.936C810.105 150.312 809.705 150.072 808.745 149.688L807.993 149.368C806.697 148.84 806.057 148.248 806.057 147.208C806.057 145.848 807.193 145.032 808.681 145.032C809.769 145.032 810.649 145.496 811.289 146.264L810.537 147.032C810.009 146.504 809.337 146.168 808.617 146.168C807.849 146.168 807.321 146.52 807.321 147.144C807.321 147.64 807.641 147.88 808.585 148.28L809.305 148.584C810.761 149.208 811.369 149.816 811.369 150.888C811.369 151.608 811.097 152.184 810.569 152.584C810.041 152.984 809.401 153.176 808.633 153.176C807.337 153.176 806.281 152.552 805.593 151.656Z" fill="white"/>
<path d="M746.768 179.72C746.704 176.696 749.264 174.216 752.256 174.264C754.128 174.264 755.744 175.144 756.64 176.536L755.712 177.272C754.896 176.104 753.728 175.416 752.272 175.416C749.888 175.416 748.064 177.272 748.064 179.72C748.064 182.168 749.888 184.024 752.272 184.024C753.728 184.024 754.896 183.336 755.712 182.168L756.64 182.904C755.76 184.296 754.128 185.176 752.256 185.176C749.264 185.224 746.704 182.744 746.768 179.72ZM764.559 180.2V185H763.407V183.992C762.831 184.76 761.919 185.176 760.783 185.176C759.183 185.176 758.063 184.328 758.063 182.984C758.063 181.656 759.183 180.808 760.863 180.808H763.327V180.136C763.327 178.856 762.607 178.168 761.439 178.168C760.495 178.168 759.807 178.584 759.167 179.416L758.351 178.744C759.055 177.592 760.223 177.032 761.519 177.032C763.359 177.032 764.559 178.152 764.559 180.2ZM763.327 182.008V181.816H761.007C759.919 181.816 759.327 182.2 759.327 182.92C759.327 183.704 760.031 184.152 760.943 184.152C762.223 184.152 763.327 183.208 763.327 182.008ZM771.317 177.208V178.296H770.853C769.541 178.296 768.405 179.144 768.405 180.584V185H767.173V177.208H768.325V178.312C768.885 177.56 769.797 177.144 770.741 177.144C770.917 177.144 771.109 177.16 771.317 177.208ZM779.693 181.48H773.533C773.677 183.016 774.861 184.04 776.397 184.04C777.277 184.04 778.077 183.688 778.781 182.984L779.501 183.816C778.685 184.664 777.613 185.176 776.381 185.176C774.061 185.176 772.253 183.4 772.253 181.112C772.253 178.856 774.013 177.032 776.237 177.032C778.253 177.032 779.789 178.488 779.789 180.552C779.789 180.856 779.757 181.16 779.693 181.48ZM773.581 180.392H778.525C778.509 179 777.501 178.152 776.205 178.152C774.909 178.152 773.853 179.048 773.581 180.392ZM788.834 181.48H782.674C782.818 183.016 784.002 184.04 785.538 184.04C786.418 184.04 787.218 183.688 787.922 182.984L788.642 183.816C787.826 184.664 786.754 185.176 785.522 185.176C783.202 185.176 781.394 183.4 781.394 181.112C781.394 178.856 783.154 177.032 785.378 177.032C787.394 177.032 788.93 178.488 788.93 180.552C788.93 180.856 788.898 181.16 788.834 181.48ZM782.722 180.392H787.666C787.65 179 786.642 178.152 785.346 178.152C784.05 178.152 782.994 179.048 782.722 180.392ZM795.238 177.208V178.296H794.774C793.462 178.296 792.326 179.144 792.326 180.584V185H791.094V177.208H792.246V178.312C792.806 177.56 793.718 177.144 794.662 177.144C794.838 177.144 795.03 177.16 795.238 177.208Z" fill="white"/>
<rect x="804" y="168" width="82" height="24" rx="6" fill="#367AFE" fill-opacity="0.2"/>
<path d="M820.32 176.08H822.12L818.952 184.144H818.424L816.216 179.176L813.996 184.144H813.468L810.3 176.08H812.1L813.864 180.76L815.94 175.936H816.48L818.556 180.736L820.32 176.08ZM827.971 181.576H823.807C823.999 182.332 824.611 182.752 825.475 182.752C826.063 182.752 826.615 182.548 827.131 182.152L827.803 183.256C827.095 183.844 826.303 184.144 825.427 184.144C823.591 184.18 822.139 182.752 822.175 181.036C822.139 179.32 823.567 177.892 825.283 177.928C826.927 177.928 828.079 179.14 828.079 180.688C828.079 180.976 828.043 181.276 827.971 181.576ZM823.807 180.436H826.507C826.495 179.704 825.931 179.236 825.223 179.236C824.539 179.236 823.987 179.704 823.807 180.436ZM829.418 179.416L829.478 176.08H831.326L830.654 179.416H829.418ZM836.483 178.06V179.488H836.051C835.079 179.488 834.455 180.016 834.455 181.036V184H832.835V178.06H834.323V178.768C834.719 178.276 835.295 177.988 835.955 177.988C836.159 177.988 836.327 178.012 836.483 178.06ZM842.83 181.576H838.666C838.858 182.332 839.47 182.752 840.334 182.752C840.922 182.752 841.474 182.548 841.99 182.152L842.662 183.256C841.954 183.844 841.162 184.144 840.286 184.144C838.45 184.18 836.998 182.752 837.034 181.036C836.998 179.32 838.426 177.892 840.142 177.928C841.786 177.928 842.938 179.14 842.938 180.688C842.938 180.976 842.902 181.276 842.83 181.576ZM838.666 180.436H841.366C841.354 179.704 840.79 179.236 840.082 179.236C839.398 179.236 838.846 179.704 838.666 180.436ZM853.026 180.316V184H851.418V180.544C851.418 179.86 850.974 179.392 850.314 179.392C849.654 179.392 849.186 179.86 849.186 180.544V184H847.566V175H849.186V178.564C849.582 178.168 850.158 177.928 850.818 177.928C852.162 177.928 853.026 178.876 853.026 180.316ZM854.585 184V178.06H856.205V184H854.585ZM854.357 175.9C854.357 175.324 854.813 174.892 855.389 174.892C855.965 174.892 856.433 175.324 856.433 175.9C856.433 176.464 855.965 176.896 855.389 176.896C854.813 176.896 854.357 176.464 854.357 175.9ZM861.456 178.06V179.488H861.024C860.052 179.488 859.428 180.016 859.428 181.036V184H857.808V178.06H859.296V178.768C859.692 178.276 860.268 177.988 860.928 177.988C861.132 177.988 861.3 178.012 861.456 178.06ZM862.46 184V178.06H864.08V184H862.46ZM862.232 175.9C862.232 175.324 862.688 174.892 863.264 174.892C863.84 174.892 864.308 175.324 864.308 175.9C864.308 176.464 863.84 176.896 863.264 176.896C862.688 176.896 862.232 176.464 862.232 175.9ZM871.143 180.316V184H869.535V180.532C869.535 179.848 869.091 179.38 868.431 179.38C867.771 179.38 867.303 179.848 867.303 180.532V184H865.683V178.06H867.171V178.6C867.591 178.18 868.203 177.928 868.911 177.928C870.291 177.928 871.143 178.876 871.143 180.316ZM877.178 178.06H878.666V183.34C878.666 185.272 877.454 186.304 875.594 186.304C874.478 186.304 873.506 185.932 872.678 185.2L873.53 184.072C874.19 184.564 874.742 184.84 875.462 184.84C876.422 184.84 877.046 184.36 877.046 183.436V183.112C876.614 183.58 875.99 183.82 875.234 183.82C873.59 183.82 872.39 182.608 872.39 180.868C872.39 179.104 873.614 177.928 875.234 177.928C876.086 177.928 876.758 178.24 877.178 178.804V178.06ZM877.07 180.844C877.07 179.824 876.398 179.308 875.57 179.308C874.694 179.308 874.034 179.896 874.034 180.856C874.034 181.816 874.706 182.452 875.57 182.452C876.386 182.452 877.07 181.864 877.07 180.844Z" fill="#367AFE"/>
<path d="M747.456 217V206.44H748.704V217H747.456ZM757.871 212.104V217H756.639V212.248C756.639 211.016 755.903 210.168 754.703 210.168C753.503 210.168 752.655 211.032 752.655 212.248V217H751.423V209.208H752.575V210.04C753.151 209.4 753.999 209.032 754.975 209.032C756.783 209.032 757.871 210.264 757.871 212.104ZM765.709 209.208H767.021L763.357 217.176H762.909L759.229 209.208H760.541L763.133 215.08L765.709 209.208ZM775.365 213.48H769.205C769.349 215.016 770.533 216.04 772.069 216.04C772.949 216.04 773.749 215.688 774.453 214.984L775.173 215.816C774.357 216.664 773.285 217.176 772.053 217.176C769.733 217.176 767.925 215.4 767.925 213.112C767.925 210.856 769.685 209.032 771.909 209.032C773.925 209.032 775.461 210.488 775.461 212.552C775.461 212.856 775.429 213.16 775.365 213.48ZM769.253 212.392H774.197C774.181 211 773.173 210.152 771.877 210.152C770.581 210.152 769.525 211.048 769.253 212.392ZM776.89 215.656L777.674 214.84C778.426 215.608 779.034 216.04 779.914 216.04C780.762 216.04 781.402 215.624 781.402 214.936C781.402 214.312 781.002 214.072 780.042 213.688L779.29 213.368C777.994 212.84 777.354 212.248 777.354 211.208C777.354 209.848 778.49 209.032 779.978 209.032C781.066 209.032 781.946 209.496 782.586 210.264L781.834 211.032C781.306 210.504 780.634 210.168 779.914 210.168C779.146 210.168 778.618 210.52 778.618 211.144C778.618 211.64 778.938 211.88 779.882 212.28L780.602 212.584C782.058 213.208 782.666 213.816 782.666 214.888C782.666 215.608 782.394 216.184 781.866 216.584C781.338 216.984 780.698 217.176 779.93 217.176C778.634 217.176 777.578 216.552 776.89 215.656ZM789.147 215.96V217C788.651 217.112 788.219 217.176 787.851 217.176C786.235 217.176 785.227 216.36 785.227 214.648V210.312H783.915V209.208H785.227V207.08H786.459V209.208H788.891V210.312H786.459V214.568C786.459 215.672 787.035 216.056 788.107 216.056C788.411 216.056 788.747 216.024 789.147 215.96ZM790.269 213.096C790.221 210.872 792.125 208.984 794.349 209.032C796.573 209 798.477 210.872 798.429 213.096C798.477 215.288 796.557 217.208 794.333 217.16C792.109 217.208 790.237 215.288 790.269 213.096ZM797.165 213.112C797.165 211.432 795.933 210.168 794.349 210.168C792.749 210.168 791.533 211.432 791.533 213.112C791.533 214.744 792.749 216.024 794.333 216.024C795.917 216.024 797.165 214.744 797.165 213.112ZM804.738 209.208V210.296H804.274C802.962 210.296 801.826 211.144 801.826 212.584V217H800.594V209.208H801.746V210.312C802.306 209.56 803.218 209.144 804.162 209.144C804.338 209.144 804.53 209.16 804.738 209.208ZM819.212 217H817.756L814.476 212.568H812.22V217H810.972V206.44H814.684C816.732 206.44 818.06 207.72 818.06 209.496C818.06 210.92 817.228 212.024 815.836 212.424L819.212 217ZM812.22 207.56V211.448H814.636C815.996 211.448 816.764 210.68 816.764 209.512C816.764 208.36 815.98 207.56 814.636 207.56H812.22ZM827.474 213.48H821.314C821.458 215.016 822.642 216.04 824.178 216.04C825.058 216.04 825.858 215.688 826.562 214.984L827.282 215.816C826.466 216.664 825.394 217.176 824.162 217.176C821.842 217.176 820.034 215.4 820.034 213.112C820.034 210.856 821.794 209.032 824.018 209.032C826.034 209.032 827.57 210.488 827.57 212.552C827.57 212.856 827.538 213.16 827.474 213.48ZM821.362 212.392H826.306C826.29 211 825.282 210.152 823.986 210.152C822.69 210.152 821.634 211.048 821.362 212.392ZM829.735 217V205H830.967V217H829.735ZM839.513 212.2V217H838.361V215.992C837.785 216.76 836.873 217.176 835.737 217.176C834.137 217.176 833.017 216.328 833.017 214.984C833.017 213.656 834.137 212.808 835.817 212.808H838.281V212.136C838.281 210.856 837.561 210.168 836.393 210.168C835.449 210.168 834.761 210.584 834.121 211.416L833.305 210.744C834.009 209.592 835.177 209.032 836.473 209.032C838.313 209.032 839.513 210.152 839.513 212.2ZM838.281 214.008V213.816H835.961C834.873 213.816 834.281 214.2 834.281 214.92C834.281 215.704 834.985 216.152 835.897 216.152C837.177 216.152 838.281 215.208 838.281 214.008ZM846.382 215.96V217C845.886 217.112 845.454 217.176 845.086 217.176C843.47 217.176 842.462 216.36 842.462 214.648V210.312H841.15V209.208H842.462V207.08H843.694V209.208H846.126V210.312H843.694V214.568C843.694 215.672 844.27 216.056 845.342 216.056C845.646 216.056 845.982 216.024 846.382 215.96ZM848.219 217V209.208H849.451V217H848.219ZM847.915 206.232C847.915 205.736 848.331 205.336 848.843 205.336C849.339 205.336 849.755 205.736 849.755 206.232C849.755 206.744 849.355 207.128 848.843 207.128C848.331 207.128 847.915 206.744 847.915 206.232ZM851.597 213.096C851.549 210.872 853.453 208.984 855.677 209.032C857.901 209 859.805 210.872 859.757 213.096C859.805 215.288 857.885 217.208 855.661 217.16C853.437 217.208 851.565 215.288 851.597 213.096ZM858.493 213.112C858.493 211.432 857.261 210.168 855.677 210.168C854.077 210.168 852.861 211.432 852.861 213.112C852.861 214.744 854.077 216.024 855.661 216.024C857.245 216.024 858.493 214.744 858.493 213.112ZM868.371 212.104V217H867.139V212.248C867.139 211.016 866.403 210.168 865.203 210.168C864.003 210.168 863.155 211.032 863.155 212.248V217H861.923V209.208H863.075V210.04C863.651 209.4 864.499 209.032 865.475 209.032C867.283 209.032 868.371 210.264 868.371 212.104ZM870.249 215.656L871.033 214.84C871.785 215.608 872.393 216.04 873.273 216.04C874.121 216.04 874.761 215.624 874.761 214.936C874.761 214.312 874.361 214.072 873.401 213.688L872.649 213.368C871.353 212.84 870.713 212.248 870.713 211.208C870.713 209.848 871.849 209.032 873.337 209.032C874.425 209.032 875.305 209.496 875.945 210.264L875.193 211.032C874.665 210.504 873.993 210.168 873.273 210.168C872.505 210.168 871.977 210.52 871.977 211.144C871.977 211.64 872.297 211.88 873.241 212.28L873.961 212.584C875.417 213.208 876.025 213.816 876.025 214.888C876.025 215.608 875.753 216.184 875.225 216.584C874.697 216.984 874.057 217.176 873.289 217.176C871.993 217.176 870.937 216.552 870.249 215.656Z" fill="white"/>
<path d="M755.696 249H754.24L750.96 244.568H748.704V249H747.456V238.44H751.168C753.216 238.44 754.544 239.72 754.544 241.496C754.544 242.92 753.712 244.024 752.32 244.424L755.696 249ZM748.704 239.56V243.448H751.12C752.48 243.448 753.248 242.68 753.248 241.512C753.248 240.36 752.464 239.56 751.12 239.56H748.704ZM763.959 245.48H757.799C757.943 247.016 759.127 248.04 760.663 248.04C761.543 248.04 762.343 247.688 763.047 246.984L763.767 247.816C762.951 248.664 761.879 249.176 760.647 249.176C758.327 249.176 756.519 247.4 756.519 245.112C756.519 242.856 758.279 241.032 760.503 241.032C762.519 241.032 764.055 242.488 764.055 244.552C764.055 244.856 764.023 245.16 763.959 245.48ZM757.847 244.392H762.791C762.775 243 761.767 242.152 760.471 242.152C759.175 242.152 758.119 243.048 757.847 244.392ZM765.483 247.656L766.267 246.84C767.019 247.608 767.627 248.04 768.507 248.04C769.355 248.04 769.995 247.624 769.995 246.936C769.995 246.312 769.595 246.072 768.635 245.688L767.883 245.368C766.587 244.84 765.947 244.248 765.947 243.208C765.947 241.848 767.083 241.032 768.571 241.032C769.659 241.032 770.539 241.496 771.179 242.264L770.427 243.032C769.899 242.504 769.227 242.168 768.507 242.168C767.739 242.168 767.211 242.52 767.211 243.144C767.211 243.64 767.531 243.88 768.475 244.28L769.195 244.584C770.651 245.208 771.259 245.816 771.259 246.888C771.259 247.608 770.987 248.184 770.459 248.584C769.931 248.984 769.291 249.176 768.523 249.176C767.227 249.176 766.171 248.552 765.483 247.656ZM772.925 245.096C772.877 242.872 774.781 240.984 777.005 241.032C779.229 241 781.133 242.872 781.085 245.096C781.133 247.288 779.213 249.208 776.989 249.16C774.765 249.208 772.893 247.288 772.925 245.096ZM779.821 245.112C779.821 243.432 778.589 242.168 777.005 242.168C775.405 242.168 774.189 243.432 774.189 245.112C774.189 246.744 775.405 248.024 776.989 248.024C778.573 248.024 779.821 246.744 779.821 245.112ZM783.155 245.896V241.208H784.371V245.976C784.371 247.24 785.235 248.04 786.387 248.04C787.523 248.04 788.371 247.208 788.371 245.976V241.208H789.603V245.896C789.603 247.864 788.195 249.176 786.387 249.176C784.563 249.176 783.155 247.864 783.155 245.896ZM796.348 241.208V242.296H795.884C794.572 242.296 793.436 243.144 793.436 244.584V249H792.204V241.208H793.356V242.312C793.916 241.56 794.828 241.144 795.772 241.144C795.948 241.144 796.14 241.16 796.348 241.208ZM797.284 245.096C797.236 242.872 799.14 241 801.364 241.032C802.724 241.032 803.876 241.688 804.58 242.728L803.7 243.432C803.076 242.584 802.292 242.168 801.38 242.168C799.764 242.168 798.548 243.48 798.548 245.096C798.548 246.728 799.764 248.04 801.38 248.04C802.292 248.04 803.06 247.624 803.684 246.792L804.564 247.48C803.86 248.52 802.724 249.176 801.364 249.176C799.108 249.176 797.284 247.352 797.284 245.096ZM813.381 245.48H807.221C807.365 247.016 808.549 248.04 810.085 248.04C810.965 248.04 811.765 247.688 812.469 246.984L813.189 247.816C812.373 248.664 811.301 249.176 810.069 249.176C807.749 249.176 805.941 247.4 805.941 245.112C805.941 242.856 807.701 241.032 809.925 241.032C811.941 241.032 813.477 242.488 813.477 244.552C813.477 244.856 813.445 245.16 813.381 245.48ZM807.269 244.392H812.213C812.197 243 811.189 242.152 809.893 242.152C808.597 242.152 807.541 243.048 807.269 244.392ZM814.905 247.656L815.689 246.84C816.441 247.608 817.049 248.04 817.929 248.04C818.777 248.04 819.417 247.624 819.417 246.936C819.417 246.312 819.017 246.072 818.057 245.688L817.305 245.368C816.009 244.84 815.369 244.248 815.369 243.208C815.369 241.848 816.505 241.032 817.993 241.032C819.081 241.032 819.961 241.496 820.601 242.264L819.849 243.032C819.321 242.504 818.649 242.168 817.929 242.168C817.161 242.168 816.633 242.52 816.633 243.144C816.633 243.64 816.953 243.88 817.897 244.28L818.617 244.584C820.073 245.208 820.681 245.816 820.681 246.888C820.681 247.608 820.409 248.184 819.881 248.584C819.353 248.984 818.713 249.176 817.945 249.176C816.649 249.176 815.593 248.552 814.905 247.656Z" fill="white"/>
<path d="M754.624 270.44H755.872V281.176H755.424L748.704 273.08V281H747.456V270.264H747.904L754.624 278.376V270.44ZM765.49 277.48H759.33C759.474 279.016 760.658 280.04 762.194 280.04C763.074 280.04 763.874 279.688 764.578 278.984L765.298 279.816C764.482 280.664 763.41 281.176 762.178 281.176C759.858 281.176 758.05 279.4 758.05 277.112C758.05 274.856 759.81 273.032 762.034 273.032C764.05 273.032 765.586 274.488 765.586 276.552C765.586 276.856 765.554 277.16 765.49 277.48ZM759.378 276.392H764.322C764.306 275 763.298 274.152 762.002 274.152C760.706 274.152 759.65 275.048 759.378 276.392ZM777.95 273.208H779.262L775.982 281.176H775.534L772.878 275.288L770.238 281.176H769.806L766.494 273.208H767.806L770.062 278.984L772.654 273.032H773.118L775.742 278.936L777.95 273.208ZM780.077 279.656L780.861 278.84C781.613 279.608 782.221 280.04 783.101 280.04C783.949 280.04 784.589 279.624 784.589 278.936C784.589 278.312 784.189 278.072 783.229 277.688L782.477 277.368C781.181 276.84 780.541 276.248 780.541 275.208C780.541 273.848 781.677 273.032 783.165 273.032C784.253 273.032 785.133 273.496 785.773 274.264L785.021 275.032C784.493 274.504 783.821 274.168 783.101 274.168C782.333 274.168 781.805 274.52 781.805 275.144C781.805 275.64 782.125 275.88 783.069 276.28L783.789 276.584C785.245 277.208 785.853 277.816 785.853 278.888C785.853 279.608 785.581 280.184 785.053 280.584C784.525 280.984 783.885 281.176 783.117 281.176C781.821 281.176 780.765 280.552 780.077 279.656ZM792.223 273.208V274.296H791.759C790.447 274.296 789.311 275.144 789.311 276.584V281H788.079V273.208H789.231V274.312C789.791 273.56 790.703 273.144 791.647 273.144C791.823 273.144 792.015 273.16 792.223 273.208ZM793.159 277.096C793.111 274.872 795.015 272.984 797.239 273.032C799.463 273 801.367 274.872 801.319 277.096C801.367 279.288 799.447 281.208 797.223 281.16C794.999 281.208 793.127 279.288 793.159 277.096ZM800.055 277.112C800.055 275.432 798.823 274.168 797.239 274.168C795.639 274.168 794.423 275.432 794.423 277.112C794.423 278.744 795.639 280.024 797.223 280.024C798.807 280.024 800.055 278.744 800.055 277.112ZM802.925 277.096C802.877 274.872 804.781 272.984 807.005 273.032C809.229 273 811.133 274.872 811.085 277.096C811.133 279.288 809.213 281.208 806.989 281.16C804.765 281.208 802.893 279.288 802.925 277.096ZM809.821 277.112C809.821 275.432 808.589 274.168 807.005 274.168C805.405 274.168 804.189 275.432 804.189 277.112C804.189 278.744 805.405 280.024 806.989 280.024C808.573 280.024 809.821 278.744 809.821 277.112ZM824.627 276.104V281H823.395V276.264C823.395 275 822.707 274.168 821.555 274.168C820.387 274.168 819.555 275.048 819.555 276.152V281H818.323V276.264C818.323 275 817.603 274.168 816.467 274.168C815.299 274.168 814.483 275.032 814.483 276.264V281H813.251V273.208H814.403V274.024C814.963 273.384 815.763 273.032 816.723 273.032C817.859 273.032 818.675 273.528 819.123 274.376C819.699 273.56 820.643 273.032 821.795 273.032C823.587 273.032 824.627 274.248 824.627 276.104Z" fill="white"/>
<path d="M755.152 309.96C755.152 311.72 753.872 313 751.808 313H747.456V302.44H751.088C752 302.44 752.736 302.696 753.28 303.192C753.824 303.688 754.096 304.328 754.096 305.112C754.096 305.992 753.728 306.696 753.088 307.192C754.384 307.576 755.152 308.6 755.152 309.96ZM750.96 303.56H748.704V306.84H750.96C752.16 306.84 752.816 306.2 752.816 305.192C752.816 304.184 752.176 303.56 750.96 303.56ZM753.872 309.928C753.872 308.76 753.072 307.976 751.68 307.976H748.704V311.88H751.68C753.072 311.88 753.872 311.096 753.872 309.928ZM757.219 313V301H758.451V313H757.219ZM760.597 309.096C760.549 306.872 762.453 304.984 764.677 305.032C766.901 305 768.805 306.872 768.757 309.096C768.805 311.288 766.885 313.208 764.661 313.16C762.437 313.208 760.565 311.288 760.597 309.096ZM767.493 309.112C767.493 307.432 766.261 306.168 764.677 306.168C763.077 306.168 761.861 307.432 761.861 309.112C761.861 310.744 763.077 312.024 764.661 312.024C766.245 312.024 767.493 310.744 767.493 309.112ZM777.243 305.208H778.411V312.248C778.411 314.616 776.923 316.056 774.619 316.056C773.099 316.056 771.835 315.432 770.955 314.552L771.674 313.688C772.555 314.456 773.419 314.92 774.587 314.92C776.203 314.92 777.179 313.992 777.179 312.312V311.624C776.555 312.44 775.451 312.92 774.283 312.92C772.091 312.92 770.459 311.24 770.459 308.984C770.459 306.744 772.091 305.032 774.283 305.032C775.515 305.032 776.651 305.56 777.243 306.456V305.208ZM777.195 308.984C777.195 307.112 775.883 306.2 774.475 306.2C772.891 306.2 771.707 307.368 771.707 309C771.707 310.648 772.891 311.784 774.475 311.784C775.899 311.784 777.195 310.872 777.195 308.984Z" fill="white"/>
<path d="M747.456 345V334.44H754.224V335.56H748.704V338.792H752.928V339.912H748.704V343.88H754.416V345H747.456ZM761.474 337.208H762.786L759.122 345.176H758.674L754.994 337.208H756.306L758.898 343.08L761.474 337.208ZM771.131 341.48H764.971C765.115 343.016 766.299 344.04 767.835 344.04C768.715 344.04 769.515 343.688 770.219 342.984L770.939 343.816C770.123 344.664 769.051 345.176 767.819 345.176C765.499 345.176 763.691 343.4 763.691 341.112C763.691 338.856 765.451 337.032 767.675 337.032C769.691 337.032 771.227 338.488 771.227 340.552C771.227 340.856 771.195 341.16 771.131 341.48ZM765.019 340.392H769.963C769.947 339 768.939 338.152 767.643 338.152C766.347 338.152 765.291 339.048 765.019 340.392ZM779.839 340.104V345H778.607V340.248C778.607 339.016 777.871 338.168 776.671 338.168C775.471 338.168 774.623 339.032 774.623 340.248V345H773.391V337.208H774.543V338.04C775.119 337.4 775.967 337.032 776.943 337.032C778.751 337.032 779.839 338.264 779.839 340.104ZM786.71 343.96V345C786.214 345.112 785.782 345.176 785.414 345.176C783.798 345.176 782.79 344.36 782.79 342.648V338.312H781.478V337.208H782.79V335.08H784.022V337.208H786.454V338.312H784.022V342.568C784.022 343.672 784.598 344.056 785.67 344.056C785.974 344.056 786.31 344.024 786.71 343.96ZM787.812 343.656L788.596 342.84C789.348 343.608 789.956 344.04 790.836 344.04C791.684 344.04 792.324 343.624 792.324 342.936C792.324 342.312 791.924 342.072 790.964 341.688L790.212 341.368C788.916 340.84 788.276 340.248 788.276 339.208C788.276 337.848 789.412 337.032 790.9 337.032C791.988 337.032 792.868 337.496 793.508 338.264L792.756 339.032C792.228 338.504 791.556 338.168 790.836 338.168C790.068 338.168 789.539 338.52 789.539 339.144C789.539 339.64 789.86 339.88 790.804 340.28L791.524 340.584C792.98 341.208 793.588 341.816 793.588 342.888C793.588 343.608 793.316 344.184 792.788 344.584C792.26 344.984 791.62 345.176 790.852 345.176C789.556 345.176 788.5 344.552 787.812 343.656Z" fill="white"/>
<path d="M1320 367H120V369H1320V367Z" fill="#253A66" mask="url(#path-10-inside-2_873_46214)"/>
</g>
<defs>
<filter id="filter0_d_873_46214" x="1299.59" y="162.349" width="22.3282" height="23.8116" filterUnits="userSpaceOnUse" color-interpolation-filters="sRGB">
<feFlood flood-opacity="0" result="BackgroundImageFix"/>
<feColorMatrix in="SourceAlpha" type="matrix" values="0 0 0 0 0 0 0 0 0 0 0 0 0 0 0 0 0 0 127 0" result="hardAlpha"/>
<feOffset dy="1.33333"/>
<feGaussianBlur stdDeviation="0.533333"/>
<feColorMatrix type="matrix" values="0 0 0 0 0 0 0 0 0 0 0 0 0 0 0 0 0 0 0.5 0"/>
<feBlend mode="normal" in2="BackgroundImageFix" result="effect1_dropShadow_873_46214"/>
<feBlend mode="normal" in="SourceGraphic" in2="effect1_dropShadow_873_46214" result="shape"/>
</filter>
<linearGradient id="paint0_linear_873_46214" x1="715.458" y1="-77.6722" x2="941.215" y2="250.212" gradientUnits="userSpaceOnUse">
<stop stop-color="white"/>
<stop offset="1" stop-color="white" stop-opacity="0"/>
</linearGradient>
<linearGradient id="paint1_linear_873_46214" x1="715.458" y1="-77.6722" x2="941.215" y2="250.212" gradientUnits="userSpaceOnUse">
<stop stop-color="white"/>
<stop offset="1" stop-color="white" stop-opacity="0"/>
</linearGradient>
<linearGradient id="paint2_linear_873_46214" x1="881.245" y1="25.4823" x2="1091.66" y2="331.08" gradientUnits="userSpaceOnUse">
<stop stop-color="white"/>
<stop offset="1" stop-color="white" stop-opacity="0"/>
</linearGradient>
<linearGradient id="paint3_linear_873_46214" x1="881.245" y1="25.4823" x2="1091.66" y2="331.08" gradientUnits="userSpaceOnUse">
<stop stop-color="white"/>
<stop offset="1" stop-color="white" stop-opacity="0"/>
</linearGradient>
<linearGradient id="paint4_linear_873_46214" x1="1084.33" y1="155.586" x2="1262.59" y2="414.485" gradientUnits="userSpaceOnUse">
<stop stop-color="white"/>
<stop offset="1" stop-color="white" stop-opacity="0"/>
</linearGradient>
<linearGradient id="paint5_linear_873_46214" x1="1084.33" y1="155.586" x2="1262.59" y2="414.485" gradientUnits="userSpaceOnUse">
<stop stop-color="white"/>
<stop offset="1" stop-color="white" stop-opacity="0"/>
</linearGradient>
<linearGradient id="paint6_linear_873_46214" x1="1285.24" y1="241.259" x2="1435.26" y2="459.142" gradientUnits="userSpaceOnUse">
<stop stop-color="white"/>
<stop offset="1" stop-color="white" stop-opacity="0"/>
</linearGradient>
<linearGradient id="paint7_linear_873_46214" x1="1285.24" y1="241.259" x2="1435.26" y2="459.142" gradientUnits="userSpaceOnUse">
<stop stop-color="white"/>
<stop offset="1" stop-color="white" stop-opacity="0"/>
</linearGradient>
<clipPath id="clip0_873_46214">
<rect width="1440" height="480" fill="white"/>
</clipPath>
<clipPath id="clip1_873_46214">
<rect width="184" height="40" fill="white" transform="translate(1136 136)"/>
</clipPath>
<clipPath id="clip2_873_46214">
<rect width="24" height="24" fill="white" transform="translate(1298 161)"/>
</clipPath>
<clipPath id="clip3_873_46214">
<rect width="197.102" height="56" fill="white" transform="translate(120 88)"/>
</clipPath>
</defs>
</svg>
