<svg width="1440" height="400" viewBox="0 0 1440 400" fill="none" xmlns="http://www.w3.org/2000/svg">
    <g opacity="0.4" clip-path="url(#clip0_582_35185)">
    <path d="M103.996 117.937V146.223C103.996 180.931 76.3913 209.154 41.9805 210.21V181.925C41.9805 147.256 69.5461 118.994 103.996 117.937Z" stroke="#E58C00" stroke-width="4"/>
    <path d="M88.276 285.636H-10.0956H-32.5908V223.617H27.9066H50.2737H69.0794C103.746 223.617 132.008 251.184 133.064 285.636H88.276Z" stroke="#E58C00" stroke-width="4"/>
    <path d="M29.3806 180.097V208.382C-5.02943 207.324 -32.6348 179.061 -32.6348 144.394V116.109C1.77611 117.165 29.3806 145.388 29.3806 180.097Z" stroke="#E58C00" stroke-width="4"/>
    <path d="M304.887 117.935V146.221C304.887 180.929 277.283 209.152 242.872 210.208V181.923C242.872 147.254 270.438 118.992 304.887 117.935Z" stroke="#E58C00" stroke-width="4"/>
    <path d="M289.167 285.636H190.795H168.3V223.617H228.797H251.164H269.97C304.637 223.617 332.898 251.184 333.955 285.636H289.167Z" stroke="#E58C00" stroke-width="4"/>
    <path d="M230.272 180.097V208.382C195.862 207.324 168.257 179.061 168.257 144.394V116.109C202.668 117.165 230.272 145.388 230.272 180.097Z" stroke="#E58C00" stroke-width="4"/>
    <path d="M490.059 285.636H391.688H369.192V223.617H429.69H452.057H470.863C505.529 223.617 533.791 251.184 534.847 285.636H490.059Z" stroke="#E58C00" stroke-width="4"/>
    <path d="M431.164 180.097V208.382C396.754 207.324 369.148 179.061 369.148 144.394V116.109C403.559 117.165 431.164 145.388 431.164 180.097Z" stroke="#E58C00" stroke-width="4"/>
    <path d="M189.904 312.863V341.148C189.904 375.857 162.3 404.08 127.889 405.136V376.85C127.889 342.182 155.454 313.919 189.904 312.863Z" stroke="#E58C00" stroke-width="4"/>
    <path d="M115.288 375.022V403.308C80.8778 402.25 53.2725 373.987 53.2725 339.32V311.035C87.6833 312.091 115.288 340.314 115.288 375.022Z" stroke="#E58C00" stroke-width="4"/>
    <path d="M390.795 312.863V341.148C390.795 375.857 363.19 404.08 328.779 405.136V376.85C328.779 342.182 356.345 313.919 390.795 312.863Z" stroke="#E58C00" stroke-width="4"/>
    <path d="M316.179 375.022V403.308C281.769 402.25 254.164 373.987 254.164 339.32V311.035C288.575 312.091 316.179 340.314 316.179 375.022Z" stroke="#E58C00" stroke-width="4"/>
    <path d="M-26.7094 90.7078H-125.081H-147.576V28.6895H-87.0787H-64.7117H-45.9059C-11.2393 28.6895 17.0222 56.2562 18.0788 90.7078H-26.7094Z" stroke="#E58C00" stroke-width="4"/>
    <path d="M189.904 -76.9928V-48.7071C189.904 -13.9985 162.3 14.2243 127.889 15.2807V-13.005C127.889 -47.6735 155.454 -75.9361 189.904 -76.9928Z" stroke="#E58C00" stroke-width="4"/>
    <path d="M174.182 90.7078H75.8106H53.3154V28.6895H113.813H136.18H154.986C189.652 28.6895 217.914 56.2562 218.97 90.7078H174.182Z" stroke="#E58C00" stroke-width="4"/>
    <path d="M115.287 -14.8312V13.4544C80.8768 12.3965 53.2715 -15.8665 53.2715 -50.5333V-78.8189C87.6824 -77.7625 115.287 -49.5398 115.287 -14.8312Z" stroke="#E58C00" stroke-width="4"/>
    <path d="M390.795 -76.9928V-48.7071C390.795 -13.9985 363.19 14.2243 328.779 15.2807V-13.005C328.779 -47.6735 356.345 -75.9361 390.795 -76.9928Z" stroke="#E58C00" stroke-width="4"/>
    <path d="M375.074 90.7078H276.702H254.207V28.6895H314.704H337.072H355.877C390.544 28.6895 418.805 56.2562 419.862 90.7078H375.074Z" stroke="#E58C00" stroke-width="4"/>
    <path d="M316.179 -14.8312V13.4544C281.769 12.3965 254.164 -15.8665 254.164 -50.5333V-78.8189C288.575 -77.7625 316.179 -49.5398 316.179 -14.8312Z" stroke="#E58C00" stroke-width="4"/>
    </g>
    <rect width="553" height="398" fill="url(#paint0_linear_582_35185)"/>
    <g opacity="0.4" clip-path="url(#clip1_582_35185)">
    <path d="M1336.01 117.937V146.223C1336.01 180.931 1363.61 209.154 1398.02 210.21V181.925C1398.02 147.256 1370.45 118.994 1336.01 117.937Z" stroke="#E58C00" stroke-width="4"/>
    <path d="M1351.73 285.636H1450.1H1472.59V223.617H1412.09H1389.73H1370.92C1336.25 223.617 1307.99 251.184 1306.94 285.636H1351.73Z" stroke="#E58C00" stroke-width="4"/>
    <path d="M1410.62 180.097V208.382C1445.03 207.324 1472.64 179.061 1472.64 144.394V116.109C1438.22 117.165 1410.62 145.388 1410.62 180.097Z" stroke="#E58C00" stroke-width="4"/>
    <path d="M1135.11 117.935V146.221C1135.11 180.929 1162.72 209.152 1197.13 210.208V181.923C1197.13 147.254 1169.56 118.992 1135.11 117.935Z" stroke="#E58C00" stroke-width="4"/>
    <path d="M1150.83 285.636H1249.21H1271.7V223.617H1211.2H1188.84H1170.03C1135.36 223.617 1107.1 251.184 1106.05 285.636H1150.83Z" stroke="#E58C00" stroke-width="4"/>
    <path d="M1209.73 180.097V208.382C1244.14 207.324 1271.74 179.061 1271.74 144.394V116.109C1237.33 117.165 1209.73 145.388 1209.73 180.097Z" stroke="#E58C00" stroke-width="4"/>
    <path d="M949.942 285.636H1048.31H1070.81V223.617H1010.31H987.944H969.138C934.472 223.617 906.21 251.184 905.154 285.636H949.942Z" stroke="#E58C00" stroke-width="4"/>
    <path d="M1008.84 180.097V208.382C1043.25 207.324 1070.85 179.061 1070.85 144.394V116.109C1036.44 117.165 1008.84 145.388 1008.84 180.097Z" stroke="#E58C00" stroke-width="4"/>
    <path d="M1250.1 312.863V341.148C1250.1 375.857 1277.7 404.08 1312.11 405.136V376.85C1312.11 342.182 1284.55 313.919 1250.1 312.863Z" stroke="#E58C00" stroke-width="4"/>
    <path d="M1324.71 375.022V403.308C1359.12 402.25 1386.73 373.987 1386.73 339.32V311.035C1352.32 312.091 1324.71 340.314 1324.71 375.022Z" stroke="#E58C00" stroke-width="4"/>
    <path d="M1049.21 312.863V341.148C1049.21 375.857 1076.81 404.08 1111.22 405.136V376.85C1111.22 342.182 1083.66 313.919 1049.21 312.863Z" stroke="#E58C00" stroke-width="4"/>
    <path d="M1123.82 375.022V403.308C1158.23 402.25 1185.84 373.987 1185.84 339.32V311.035C1151.43 312.091 1123.82 340.314 1123.82 375.022Z" stroke="#E58C00" stroke-width="4"/>
    <path d="M1466.71 90.7078H1565.08H1587.58V28.6895H1527.08H1504.71H1485.91C1451.24 28.6895 1422.98 56.2562 1421.92 90.7078H1466.71Z" stroke="#E58C00" stroke-width="4"/>
    <path d="M1250.1 -76.9928V-48.7071C1250.1 -13.9985 1277.7 14.2243 1312.11 15.2807V-13.005C1312.11 -47.6735 1284.55 -75.9361 1250.1 -76.9928Z" stroke="#E58C00" stroke-width="4"/>
    <path d="M1265.82 90.7078H1364.19H1386.68V28.6895H1326.19H1303.82H1285.01C1250.35 28.6895 1222.09 56.2562 1221.03 90.7078H1265.82Z" stroke="#E58C00" stroke-width="4"/>
    <path d="M1324.71 -14.8312V13.4544C1359.12 12.3965 1386.73 -15.8665 1386.73 -50.5333V-78.8189C1352.32 -77.7625 1324.71 -49.5398 1324.71 -14.8312Z" stroke="#E58C00" stroke-width="4"/>
    <path d="M1049.21 -76.9928V-48.7071C1049.21 -13.9985 1076.81 14.2243 1111.22 15.2807V-13.005C1111.22 -47.6735 1083.66 -75.9361 1049.21 -76.9928Z" stroke="#E58C00" stroke-width="4"/>
    <path d="M1064.93 90.7078H1163.3H1185.79V28.6895H1125.3H1102.93H1084.12C1049.46 28.6895 1021.19 56.2562 1020.14 90.7078H1064.93Z" stroke="#E58C00" stroke-width="4"/>
    <path d="M1123.82 -14.8312V13.4544C1158.23 12.3965 1185.84 -15.8665 1185.84 -50.5333V-78.8189C1151.43 -77.7625 1123.82 -49.5398 1123.82 -14.8312Z" stroke="#E58C00" stroke-width="4"/>
    </g>
    <rect width="553" height="400" transform="matrix(-1 0 0 1 1440 0)" fill="url(#paint1_linear_582_35185)"/>
    <defs>
    <linearGradient id="paint0_linear_582_35185" x1="553" y1="199" x2="-4.5485e-06" y2="199" gradientUnits="userSpaceOnUse">
    <stop offset="0.604171" stop-color="#FFF3E0"/>
    <stop offset="1" stop-color="#FFF3E0" stop-opacity="0"/>
    </linearGradient>
    <linearGradient id="paint1_linear_582_35185" x1="553" y1="200" x2="-4.5485e-06" y2="200" gradientUnits="userSpaceOnUse">
    <stop offset="0.604171" stop-color="#FFF3E0"/>
    <stop offset="1" stop-color="#FFF3E0" stop-opacity="0"/>
    </linearGradient>
    <clipPath id="clip0_582_35185">
    <rect width="380" height="398" fill="white"/>
    </clipPath>
    <clipPath id="clip1_582_35185">
    <rect width="380" height="400" fill="white" transform="matrix(-1 0 0 1 1440 0)"/>
    </clipPath>
    </defs>
    </svg>
    