<svg width="1440" height="960" viewBox="0 0 1440 960" fill="none" xmlns="http://www.w3.org/2000/svg">
    <g clip-path="url(#clip0_319_21704)">
        <rect width="1440" height="960" fill="#022D2B" />
        <g opacity="0.025" clip-path="url(#clip1_319_21704)">
            <path
                d="M-317.006 814.322H-99.7016H3.72208C3.72208 733.729 -61.6133 668.487 -142.107 668.487H-183.649H-233.059H-371.117V814.322H-317.006Z"
                fill="white" />
            <path
                d="M826.991 434.966V501.935C826.991 582.529 761.656 647.771 681.162 647.771V580.802C681.162 500.304 746.401 434.966 826.991 434.966Z"
                fill="white" />
            <path
                d="M570.541 814.323H787.846H891.269C891.269 733.73 825.934 668.487 745.44 668.487H703.898H654.489H516.431V814.323H570.541Z"
                fill="white" />
            <path
                d="M662.165 643.736V576.767C662.165 496.173 596.83 430.931 516.336 430.931V497.9C516.336 578.398 581.671 643.736 662.165 643.736Z"
                fill="white" />
            <path
                d="M1458.09 814.323H1675.39H1778.82C1778.82 733.73 1713.48 668.487 1632.99 668.487H1591.45H1542.04H1403.98V814.323H1458.09Z"
                fill="white" />
            <path
                d="M1549.71 643.736V576.767C1549.71 496.173 1484.38 430.931 1403.88 430.931V497.9C1403.88 578.398 1469.22 643.736 1549.71 643.736Z"
                fill="white" />
            <path
                d="M383.217 434.966V501.935C383.217 582.529 317.881 647.771 237.387 647.771V580.802C237.291 500.304 302.627 434.966 383.217 434.966Z"
                fill="white" />
            <path
                d="M126.767 814.323H344.072H447.496C447.496 733.73 382.16 668.488 301.666 668.488H260.124H210.811H72.7529V814.323H126.767Z"
                fill="white" />
            <path
                d="M218.391 643.736V576.767C218.391 496.173 153.056 430.931 72.5621 430.931V497.9C72.4662 578.398 137.801 643.736 218.391 643.736Z"
                fill="white" />
            <path
                d="M1270.76 434.966V501.935C1270.76 582.529 1205.43 647.771 1124.93 647.771V580.802C1124.84 500.304 1190.17 434.966 1270.76 434.966Z"
                fill="white" />
            <path
                d="M1014.31 814.323H1231.62H1335.04C1335.04 733.73 1269.71 668.487 1189.21 668.487H1147.67H1098.36H960.299V814.323H1014.31Z"
                fill="white" />
            <path
                d="M1105.94 643.736V576.767C1105.94 496.173 1040.6 430.931 960.108 430.931V497.9C960.012 578.398 1025.35 643.736 1105.94 643.736Z"
                fill="white" />
            <path
                d="M572.986 865.565V932.534C572.986 1013.13 507.65 1078.37 427.156 1078.37V1011.4C427.156 930.903 492.396 865.565 572.986 865.565Z"
                fill="white" />
            <path
                d="M408.16 1074.33V1007.37C408.16 926.772 342.824 861.53 262.331 861.53V928.499C262.331 1009 327.666 1074.33 408.16 1074.33Z"
                fill="white" />
            <path
                d="M1460.53 865.565V932.534C1460.53 1013.13 1395.2 1078.37 1314.7 1078.37V1011.4C1314.7 930.903 1379.94 865.565 1460.53 865.565Z"
                fill="white" />
            <path
                d="M1295.71 1074.33V1007.37C1295.71 926.772 1230.37 861.53 1149.88 861.53V928.499C1149.88 1009 1215.21 1074.33 1295.71 1074.33Z"
                fill="white" />
            <path
                d="M129.213 865.565V932.534C129.213 1013.13 63.8774 1078.37 -16.6165 1078.37V1011.4C-16.7124 930.903 48.6229 865.565 129.213 865.565Z"
                fill="white" />
            <path
                d="M1016.76 865.565V932.534C1016.76 1013.13 951.422 1078.37 870.929 1078.37V1011.4C870.833 930.903 936.168 865.565 1016.76 865.565Z"
                fill="white" />
            <path
                d="M851.934 1074.33V1007.37C851.934 926.772 786.598 861.53 706.105 861.53V928.499C706.009 1009 771.344 1074.33 851.934 1074.33Z"
                fill="white" />
            <path
                d="M572.984 4.36694V71.3363C572.984 151.93 507.649 217.172 427.155 217.172V150.203C427.155 69.7053 492.395 4.36694 572.984 4.36694Z"
                fill="white" />
            <path
                d="M316.536 383.724H533.841H637.264C637.264 303.131 571.929 237.888 491.435 237.888H449.893H400.484H262.426V383.724H316.536Z"
                fill="white" />
            <path
                d="M408.158 213.137V146.168C408.158 65.5742 342.823 0.331787 262.329 0.331787V67.3011C262.329 147.799 327.665 213.137 408.158 213.137Z"
                fill="white" />
            <path
                d="M1460.53 4.36694V71.3363C1460.53 151.93 1395.2 217.172 1314.7 217.172V150.203C1314.7 69.7053 1379.94 4.36694 1460.53 4.36694Z"
                fill="white" />
            <path
                d="M1204.08 383.724H1421.39H1524.81C1524.81 303.131 1459.48 237.888 1378.98 237.888H1337.44H1288.03H1149.97V383.724H1204.08Z"
                fill="white" />
            <path
                d="M1295.71 213.137V146.168C1295.71 65.5742 1230.37 0.331787 1149.88 0.331787V67.3011C1149.88 147.799 1215.21 213.137 1295.71 213.137Z"
                fill="white" />
            <path
                d="M129.213 4.36694V71.3363C129.213 151.93 63.8774 217.172 -16.6165 217.172V150.203C-16.7124 69.7053 48.6229 4.36694 129.213 4.36694Z"
                fill="white" />
            <path
                d="M-127.238 383.724H90.0666H193.49C193.49 303.131 128.155 237.888 47.661 237.888H6.11885H-43.1944H-181.252V383.724H-127.238Z"
                fill="white" />
            <path
                d="M1016.76 4.36694V71.3363C1016.76 151.93 951.422 217.172 870.928 217.172V150.203C870.832 69.7053 936.167 4.36694 1016.76 4.36694Z"
                fill="white" />
            <path
                d="M760.309 383.724H977.614H1081.04C1081.04 303.131 1015.7 237.888 935.208 237.888H893.666H844.353H706.295V383.724H760.309Z"
                fill="white" />
            <path
                d="M851.933 213.137V146.168C851.933 65.5742 786.598 0.331787 706.104 0.331787V67.3011C706.008 147.799 771.343 213.137 851.933 213.137Z"
                fill="white" />
        </g>
    </g>
    <defs>
        <clipPath id="clip0_319_21704">
            <rect width="1440" height="960" fill="white" />
        </clipPath>
        <clipPath id="clip1_319_21704">
            <rect width="1441" height="960" fill="white" transform="translate(-1)" />
        </clipPath>
    </defs>
</svg>