<svg width="1440" height="1026" viewBox="0 0 1440 1026" fill="none" xmlns="http://www.w3.org/2000/svg">
<g clip-path="url(#clip0_873_45801)">
<rect width="1440" height="1026" fill="#00194C"/>
<g opacity="0.08" clip-path="url(#clip1_873_45801)">
<path d="M-99.7016 812.322H-317.006H-369.117V670.487H-233.059H-183.649H-142.107C-63.384 670.487 0.638367 733.758 1.70847 812.322H-99.7016Z" stroke="#367AFE" stroke-width="4"/>
<path d="M824.991 436.979V501.935C824.991 580.755 761.631 644.688 683.162 645.758V580.802C683.162 502.075 746.43 438.05 824.991 436.979Z" stroke="#367AFE" stroke-width="4"/>
<path d="M787.846 812.323H570.541H518.431V670.487H654.489H703.898H745.44C824.163 670.487 888.186 733.758 889.256 812.323H787.846Z" stroke="#367AFE" stroke-width="4"/>
<path d="M660.165 576.767V641.722C581.696 640.651 518.336 576.625 518.336 497.9V432.944C596.805 434.014 660.165 497.947 660.165 576.767Z" stroke="#367AFE" stroke-width="4"/>
<path d="M1675.39 812.323H1458.09H1405.98V670.487H1542.04H1591.45H1632.99C1711.71 670.487 1775.73 733.758 1776.8 812.323H1675.39Z" stroke="#367AFE" stroke-width="4"/>
<path d="M1547.71 576.767V641.722C1469.24 640.651 1405.88 576.625 1405.88 497.9V432.944C1484.35 434.014 1547.71 497.947 1547.71 576.767Z" stroke="#367AFE" stroke-width="4"/>
<path d="M239.387 580.8C239.294 502.077 302.652 438.05 381.217 436.98V501.935C381.217 580.755 317.857 644.688 239.387 645.758L239.387 580.802L239.387 580.8Z" stroke="#367AFE" stroke-width="4"/>
<path d="M344.072 812.323H126.767H74.7529V670.487H210.811H260.124H301.666C380.39 670.487 444.412 733.759 445.482 812.323H344.072Z" stroke="#367AFE" stroke-width="4"/>
<path d="M74.5621 497.903V497.9V432.945C153.032 434.014 216.391 497.947 216.391 576.767V641.723C137.827 640.652 74.4683 576.626 74.5621 497.903Z" stroke="#367AFE" stroke-width="4"/>
<path d="M1126.93 580.799C1126.84 502.076 1190.2 438.05 1268.76 436.979V501.935C1268.76 580.755 1205.4 644.688 1126.93 645.758L1126.93 580.802L1126.93 580.799Z" stroke="#367AFE" stroke-width="4"/>
<path d="M1231.62 812.323H1014.31H962.299V670.487H1098.36H1147.67H1189.21C1267.94 670.487 1331.96 733.758 1333.03 812.323H1231.62Z" stroke="#367AFE" stroke-width="4"/>
<path d="M962.108 497.902V497.9V432.944C1040.58 434.014 1103.94 497.947 1103.94 576.767V641.722C1025.37 640.652 962.015 576.625 962.108 497.902Z" stroke="#367AFE" stroke-width="4"/>
<path d="M570.986 867.578V932.534C570.986 1011.35 507.626 1075.29 429.156 1076.36V1011.4C429.156 932.674 492.425 868.649 570.986 867.578Z" stroke="#367AFE" stroke-width="4"/>
<path d="M406.16 1007.37V1072.32C327.691 1071.25 264.331 1007.22 264.331 928.499V863.543C342.8 864.613 406.16 928.546 406.16 1007.37Z" stroke="#367AFE" stroke-width="4"/>
<path d="M1458.53 867.578V932.534C1458.53 1011.35 1395.17 1075.29 1316.7 1076.36V1011.4C1316.7 932.674 1379.97 868.649 1458.53 867.578Z" stroke="#367AFE" stroke-width="4"/>
<path d="M1293.71 1007.37V1072.32C1215.24 1071.25 1151.88 1007.22 1151.88 928.499V863.543C1230.35 864.613 1293.71 928.546 1293.71 1007.37Z" stroke="#367AFE" stroke-width="4"/>
<path d="M-14.6165 1011.4C-14.7103 932.675 48.6482 868.649 127.213 867.578V932.534C127.213 1011.35 63.853 1075.29 -14.6165 1076.36L-14.6165 1011.4L-14.6165 1011.4Z" stroke="#367AFE" stroke-width="4"/>
<path d="M872.929 1011.4C872.835 932.675 936.193 868.648 1014.76 867.578V932.534C1014.76 1011.35 951.398 1075.29 872.929 1076.36L872.929 1011.4L872.929 1011.4Z" stroke="#367AFE" stroke-width="4"/>
<path d="M708.105 928.501V928.499V863.543C786.574 864.613 849.934 928.546 849.934 1007.37V1072.32C771.369 1071.25 708.011 1007.22 708.105 928.501Z" stroke="#367AFE" stroke-width="4"/>
<path d="M570.984 6.38041V71.3362C570.984 150.156 507.625 214.089 429.155 215.158V150.203C429.155 71.4757 492.423 7.4506 570.984 6.38041Z" stroke="#367AFE" stroke-width="4"/>
<path d="M533.841 381.724H316.536H264.426V239.888H400.484H449.893H491.435C570.158 239.888 634.181 303.159 635.251 381.724H533.841Z" stroke="#367AFE" stroke-width="4"/>
<path d="M406.158 146.168V211.123C327.69 210.052 264.329 146.026 264.329 67.3011V2.34534C342.799 3.41521 406.158 67.348 406.158 146.168Z" stroke="#367AFE" stroke-width="4"/>
<path d="M1458.53 6.38041V71.3362C1458.53 150.156 1395.17 214.089 1316.7 215.158V150.203C1316.7 71.4757 1379.97 7.4506 1458.53 6.38041Z" stroke="#367AFE" stroke-width="4"/>
<path d="M1421.39 381.724H1204.08H1151.97V239.888H1288.03H1337.44H1378.98C1457.71 239.888 1521.73 303.159 1522.8 381.724H1421.39Z" stroke="#367AFE" stroke-width="4"/>
<path d="M1293.71 146.168V211.123C1215.24 210.052 1151.88 146.026 1151.88 67.3011V2.34534C1230.35 3.41521 1293.71 67.348 1293.71 146.168Z" stroke="#367AFE" stroke-width="4"/>
<path d="M-14.6165 150.2C-14.7103 71.4775 48.6482 7.45077 127.213 6.38059V71.3363C127.213 150.156 63.853 214.089 -14.6165 215.159L-14.6165 150.203L-14.6165 150.2Z" stroke="#367AFE" stroke-width="4"/>
<path d="M90.0666 381.724H-127.238H-179.252V239.888H-43.1944H6.11885H47.661C126.384 239.888 190.407 303.16 191.477 381.724H90.0666Z" stroke="#367AFE" stroke-width="4"/>
<path d="M872.928 150.201C872.834 71.4777 936.192 7.45093 1014.76 6.38075V71.3365C1014.76 150.156 951.397 214.089 872.928 215.159L872.928 150.203L872.928 150.201Z" stroke="#367AFE" stroke-width="4"/>
<path d="M977.614 381.724H760.309H708.295V239.889H844.353H893.666H935.208C1013.93 239.889 1077.95 303.16 1079.02 381.724H977.614Z" stroke="#367AFE" stroke-width="4"/>
<path d="M708.104 67.3036V67.3012V2.34551C786.573 3.41538 849.933 67.3481 849.933 146.168V211.124C771.369 210.053 708.01 146.027 708.104 67.3036Z" stroke="#367AFE" stroke-width="4"/>
</g>
</g>
<defs>
<clipPath id="clip0_873_45801">
<rect width="1440" height="1026" fill="white"/>
</clipPath>
<clipPath id="clip1_873_45801">
<rect width="1441" height="1134" fill="white" transform="translate(-1)"/>
</clipPath>
</defs>
</svg>
