<svg width="1440" height="1134" viewBox="0 0 1440 1134" fill="none" xmlns="http://www.w3.org/2000/svg">
<g opacity="0.08">
<g clip-path="url(#clip0_505_37797)">
<path d="M-98.7016 812.322H-316.006H-368.117V670.487H-232.059H-182.649H-141.107C-62.384 670.487 1.63837 733.758 2.70847 812.322H-98.7016Z" stroke="#31BC2E" stroke-width="4"/>
<path d="M825.991 436.98V501.935C825.991 580.755 762.631 644.688 684.162 645.758V580.802C684.162 502.075 747.43 438.05 825.991 436.98Z" stroke="#31BC2E" stroke-width="4"/>
<path d="M788.846 812.323H571.541H519.431V670.487H655.489H704.898H746.44C825.163 670.487 889.186 733.758 890.256 812.323H788.846Z" stroke="#31BC2E" stroke-width="4"/>
<path d="M661.165 576.767V641.722C582.696 640.651 519.336 576.625 519.336 497.9V432.944C597.805 434.014 661.165 497.947 661.165 576.767Z" stroke="#31BC2E" stroke-width="4"/>
<path d="M1676.39 812.323H1459.09H1406.98V670.487H1543.04H1592.45H1633.99C1712.71 670.487 1776.73 733.758 1777.8 812.323H1676.39Z" stroke="#31BC2E" stroke-width="4"/>
<path d="M1548.71 576.767V641.722C1470.24 640.651 1406.88 576.625 1406.88 497.9V432.944C1485.35 434.014 1548.71 497.947 1548.71 576.767Z" stroke="#31BC2E" stroke-width="4"/>
<path d="M240.387 580.8C240.294 502.077 303.652 438.05 382.217 436.98V501.935C382.217 580.755 318.857 644.688 240.387 645.758L240.387 580.802L240.387 580.8Z" stroke="#31BC2E" stroke-width="4"/>
<path d="M345.072 812.323H127.767H75.7529V670.487H211.811H261.124H302.666C381.39 670.487 445.412 733.759 446.482 812.323H345.072Z" stroke="#31BC2E" stroke-width="4"/>
<path d="M75.5621 497.903V497.9V432.944C154.032 434.014 217.391 497.947 217.391 576.767V641.722C138.827 640.652 75.4683 576.626 75.5621 497.903Z" stroke="#31BC2E" stroke-width="4"/>
<path d="M1127.93 580.799C1127.84 502.076 1191.2 438.05 1269.76 436.98V501.935C1269.76 580.755 1206.4 644.688 1127.93 645.758L1127.93 580.802L1127.93 580.799Z" stroke="#31BC2E" stroke-width="4"/>
<path d="M1232.62 812.323H1015.31H963.299V670.487H1099.36H1148.67H1190.21C1268.94 670.487 1332.96 733.758 1334.03 812.323H1232.62Z" stroke="#31BC2E" stroke-width="4"/>
<path d="M963.108 497.902V497.9V432.944C1041.58 434.014 1104.94 497.947 1104.94 576.767V641.722C1026.37 640.652 963.015 576.625 963.108 497.902Z" stroke="#31BC2E" stroke-width="4"/>
<path d="M571.986 867.578V932.534C571.986 1011.35 508.626 1075.29 430.156 1076.36V1011.4C430.156 932.674 493.425 868.649 571.986 867.578Z" stroke="#31BC2E" stroke-width="4"/>
<path d="M534.842 1242.92H317.537H265.427V1101.09H401.485H450.894H492.436C571.16 1101.09 635.182 1164.36 636.252 1242.92H534.842Z" stroke="#31BC2E" stroke-width="4"/>
<path d="M407.16 1007.37V1072.32C328.691 1071.25 265.331 1007.22 265.331 928.499V863.543C343.8 864.613 407.16 928.546 407.16 1007.37Z" stroke="#31BC2E" stroke-width="4"/>
<path d="M1459.53 867.578V932.534C1459.53 1011.35 1396.17 1075.29 1317.7 1076.36V1011.4C1317.7 932.674 1380.97 868.649 1459.53 867.578Z" stroke="#31BC2E" stroke-width="4"/>
<path d="M1422.39 1242.92H1205.08H1152.97V1101.09H1289.03H1338.44H1379.98C1458.71 1101.09 1522.73 1164.36 1523.8 1242.92H1422.39Z" stroke="#31BC2E" stroke-width="4"/>
<path d="M1294.71 1007.37V1072.32C1216.24 1071.25 1152.88 1007.22 1152.88 928.499V863.543C1231.35 864.613 1294.71 928.546 1294.71 1007.37Z" stroke="#31BC2E" stroke-width="4"/>
<path d="M-13.6165 1011.4C-13.7103 932.675 49.6482 868.648 128.213 867.578V932.534C128.213 1011.35 64.853 1075.29 -13.6165 1076.36L-13.6165 1011.4L-13.6165 1011.4Z" stroke="#31BC2E" stroke-width="4"/>
<path d="M91.0666 1242.92H-126.238H-178.252V1101.09H-42.1944H7.11885H48.661C127.384 1101.09 191.407 1164.36 192.477 1242.92H91.0666Z" stroke="#31BC2E" stroke-width="4"/>
<path d="M873.929 1011.4C873.835 932.675 937.193 868.648 1015.76 867.578V932.534C1015.76 1011.35 952.398 1075.29 873.929 1076.36L873.929 1011.4L873.929 1011.4Z" stroke="#31BC2E" stroke-width="4"/>
<path d="M978.614 1242.92H761.31H709.295V1101.09H845.353H894.667H936.209C1014.93 1101.09 1078.95 1164.36 1080.02 1242.92H978.614Z" stroke="#31BC2E" stroke-width="4"/>
<path d="M709.105 928.501V928.499V863.543C787.574 864.613 850.934 928.546 850.934 1007.37V1072.32C772.369 1071.25 709.011 1007.22 709.105 928.501Z" stroke="#31BC2E" stroke-width="4"/>
<path d="M571.984 6.38044V71.3362C571.984 150.156 508.625 214.089 430.155 215.159V150.203C430.155 71.4757 493.423 7.45063 571.984 6.38044Z" stroke="#31BC2E" stroke-width="4"/>
<path d="M534.841 381.724H317.536H265.426V239.888H401.484H450.893H492.435C571.158 239.888 635.181 303.159 636.251 381.724H534.841Z" stroke="#31BC2E" stroke-width="4"/>
<path d="M407.158 146.168V211.123C328.69 210.052 265.329 146.026 265.329 67.3011V2.34535C343.799 3.41523 407.158 67.348 407.158 146.168Z" stroke="#31BC2E" stroke-width="4"/>
<path d="M1459.53 6.38044V71.3362C1459.53 150.156 1396.17 214.089 1317.7 215.159V150.203C1317.7 71.4757 1380.97 7.45063 1459.53 6.38044Z" stroke="#31BC2E" stroke-width="4"/>
<path d="M1422.39 381.724H1205.08H1152.97V239.888H1289.03H1338.44H1379.98C1458.71 239.888 1522.73 303.159 1523.8 381.724H1422.39Z" stroke="#31BC2E" stroke-width="4"/>
<path d="M1294.71 146.168V211.123C1216.24 210.052 1152.88 146.026 1152.88 67.3011V2.34535C1231.35 3.41523 1294.71 67.348 1294.71 146.168Z" stroke="#31BC2E" stroke-width="4"/>
<path d="M-13.6165 150.2C-13.7103 71.4775 49.6482 7.45077 128.213 6.38059V71.3363C128.213 150.156 64.853 214.089 -13.6165 215.159L-13.6165 150.203L-13.6165 150.2Z" stroke="#31BC2E" stroke-width="4"/>
<path d="M91.0666 381.724H-126.238H-178.252V239.888H-42.1944H7.11885H48.661C127.384 239.888 191.407 303.16 192.477 381.724H91.0666Z" stroke="#31BC2E" stroke-width="4"/>
<path d="M873.928 150.201C873.834 71.4776 937.192 7.45092 1015.76 6.38074V71.3365C1015.76 150.156 952.397 214.089 873.928 215.159L873.928 150.203L873.928 150.201Z" stroke="#31BC2E" stroke-width="4"/>
<path d="M978.614 381.724H761.309H709.295V239.889H845.353H894.666H936.208C1014.93 239.889 1078.95 303.16 1080.02 381.724H978.614Z" stroke="#31BC2E" stroke-width="4"/>
<path d="M709.104 67.3036V67.3012V2.34551C787.573 3.41538 850.933 67.3481 850.933 146.168V211.124C772.369 210.053 709.01 146.027 709.104 67.3036Z" stroke="#31BC2E" stroke-width="4"/>
</g>
<rect x="1" y="1" width="1439" height="1132" stroke="white" stroke-width="2"/>
</g>
<defs>
<clipPath id="clip0_505_37797">
<rect width="1441" height="1134" fill="white"/>
</clipPath>
</defs>
</svg>
