<svg width="1440" height="960" viewBox="0 0 1440 960" fill="none" xmlns="http://www.w3.org/2000/svg">
    <g opacity="0.08" clip-path="url(#clip0_319_28489)">
        <path
            d="M502.546 409.755V470.518C502.546 544.294 443.276 604.143 369.844 605.212V544.449C369.844 470.76 429.03 410.825 502.546 409.755Z"
            stroke="#E58C00" stroke-width="4" />
        <path
            d="M467.854 761.354H264.15H215.427V628.646H342.844H389.16H428.102C501.787 628.646 561.72 687.834 562.789 761.354H467.854Z"
            stroke="#E58C00" stroke-width="4" />
        <path
            d="M348.037 540.666V601.429C274.607 600.358 215.336 540.423 215.336 466.736V405.973C288.767 407.042 348.037 466.891 348.037 540.666Z"
            stroke="#E58C00" stroke-width="4" />
        <path
            d="M918.544 409.755V470.518C918.544 544.294 859.274 604.143 785.843 605.212V544.449C785.843 470.76 845.028 410.825 918.544 409.755Z"
            stroke="#E58C00" stroke-width="4" />
        <path
            d="M883.85 761.354H680.146H631.423V628.646H758.84H805.156H844.098C917.783 628.646 977.716 687.834 978.785 761.354H883.85Z"
            stroke="#E58C00" stroke-width="4" />
        <path
            d="M764.035 540.666V601.429C690.605 600.358 631.333 540.423 631.333 466.736V405.973C704.764 407.042 764.035 466.891 764.035 540.666Z"
            stroke="#E58C00" stroke-width="4" />
        <path
            d="M1334.54 409.755V470.518C1334.54 544.294 1275.27 604.143 1201.84 605.212V544.449C1201.84 470.76 1261.03 410.825 1334.54 409.755Z"
            stroke="#E58C00" stroke-width="4" />
        <path
            d="M1299.85 761.354H1096.14H1047.42V628.646H1174.84H1221.15H1260.1C1333.78 628.646 1393.71 687.834 1394.78 761.354H1299.85Z"
            stroke="#E58C00" stroke-width="4" />
        <path
            d="M1180.03 540.666V601.429C1106.6 600.358 1047.33 540.423 1047.33 466.736V405.973C1120.76 407.042 1180.03 466.891 1180.03 540.666Z"
            stroke="#E58C00" stroke-width="4" />
        <path
            d="M-46.1525 544.446C-46.2403 470.762 13.0289 410.825 86.5491 409.755V470.518C86.5491 544.294 27.2786 604.143 -46.1525 605.212L-46.1525 544.449L-46.1525 544.446Z"
            stroke="#E58C00" stroke-width="4" />
        <path
            d="M51.8546 761.354H-151.849H-200.482V628.646H-73.0654H-26.8388H12.1033C85.7882 628.646 145.721 687.834 146.79 761.354H51.8546Z"
            stroke="#E58C00" stroke-width="4" />
        <path
            d="M264.441 813.403V874.166C264.441 947.941 205.171 1007.79 131.74 1008.86V948.097C131.74 874.408 190.925 814.473 264.441 813.403Z"
            stroke="#E58C00" stroke-width="4" />
        <path
            d="M109.932 944.314V1005.08C36.5021 1004.01 -22.7693 944.07 -22.7693 870.384V809.621C50.6619 810.69 109.932 870.539 109.932 944.314Z"
            stroke="#E58C00" stroke-width="4" />
        <path
            d="M680.443 813.402V874.165C680.443 947.941 621.172 1007.79 547.741 1008.86V948.096C547.741 874.407 606.926 814.472 680.443 813.402Z"
            stroke="#E58C00" stroke-width="4" />
        <path
            d="M525.931 944.313V1005.08C452.501 1004.01 393.229 944.069 393.229 870.383V809.62C466.66 810.689 525.931 870.538 525.931 944.313Z"
            stroke="#E58C00" stroke-width="4" />
        <path
            d="M1096.44 813.402V874.165C1096.44 947.941 1037.17 1007.79 963.737 1008.86V948.096C963.737 874.407 1022.92 814.472 1096.44 813.402Z"
            stroke="#E58C00" stroke-width="4" />
        <path
            d="M941.929 944.313V1005.08C868.499 1004.01 809.227 944.069 809.227 870.383V809.62C882.658 810.689 941.929 870.538 941.929 944.313Z"
            stroke="#E58C00" stroke-width="4" />
        <path
            d="M1512.44 813.403V874.166C1512.44 947.941 1453.17 1007.79 1379.74 1008.86V948.097C1379.74 874.408 1438.92 814.473 1512.44 813.403Z"
            stroke="#E58C00" stroke-width="4" />
        <path
            d="M1357.93 944.313V1005.08C1284.5 1004.01 1225.23 944.069 1225.23 870.383V809.62C1298.66 810.689 1357.93 870.538 1357.93 944.313Z"
            stroke="#E58C00" stroke-width="4" />
        <path
            d="M264.439 6.1078V66.8709C264.439 140.646 205.169 200.495 131.738 201.564V140.801C131.738 67.1127 190.923 7.17726 264.439 6.1078Z"
            stroke="#E58C00" stroke-width="4" />
        <path
            d="M229.747 357.706H26.0433H-22.6802V224.999H104.737H151.053H189.995C263.68 224.999 323.613 284.186 324.682 357.706H229.747Z"
            stroke="#E58C00" stroke-width="4" />
        <path
            d="M109.931 137.019V197.782C36.5009 196.711 -22.7705 136.776 -22.7705 63.0887V2.32559C50.6606 3.39473 109.931 63.2438 109.931 137.019Z"
            stroke="#E58C00" stroke-width="4" />
        <path
            d="M680.441 6.1078V66.8709C680.441 140.646 621.171 200.495 547.74 201.564V140.801C547.74 67.1127 606.925 7.17726 680.441 6.1078Z"
            stroke="#E58C00" stroke-width="4" />
        <path
            d="M645.745 357.706H442.041H393.318V224.999H520.735H567.051H605.993C679.678 224.999 739.611 284.186 740.68 357.706H645.745Z"
            stroke="#E58C00" stroke-width="4" />
        <path
            d="M525.93 137.019V197.782C452.499 196.711 393.228 136.776 393.228 63.0887V2.32559C466.659 3.39473 525.93 63.2438 525.93 137.019Z"
            stroke="#E58C00" stroke-width="4" />
        <path
            d="M1096.44 6.1078V66.8709C1096.44 140.646 1037.17 200.495 963.735 201.564V140.801C963.735 67.1127 1022.92 7.17726 1096.44 6.1078Z"
            stroke="#E58C00" stroke-width="4" />
        <path
            d="M1061.74 357.706H858.039H809.316V224.999H936.733H983.049H1021.99C1095.68 224.999 1155.61 284.186 1156.68 357.706H1061.74Z"
            stroke="#E58C00" stroke-width="4" />
        <path
            d="M941.928 137.019V197.782C868.497 196.711 809.226 136.776 809.226 63.0887V2.32559C882.657 3.39473 941.928 63.2438 941.928 137.019Z"
            stroke="#E58C00" stroke-width="4" />
        <path
            d="M1512.44 6.1078V66.8709C1512.44 140.646 1453.16 200.495 1379.73 201.564V140.801C1379.73 67.1127 1438.92 7.17726 1512.44 6.1078Z"
            stroke="#E58C00" stroke-width="4" />
        <path
            d="M1477.74 357.706H1274.04H1225.31V224.999H1352.73H1399.05H1437.99C1511.68 224.999 1571.61 284.186 1572.68 357.706H1477.74Z"
            stroke="#E58C00" stroke-width="4" />
        <path
            d="M1357.93 137.019V197.782C1284.5 196.711 1225.22 136.776 1225.22 63.0887V2.32559C1298.66 3.39473 1357.93 63.2438 1357.93 137.019Z"
            stroke="#E58C00" stroke-width="4" />
    </g>
    <defs>
        <clipPath id="clip0_319_28489">
            <rect width="1440" height="960" fill="white" />
        </clipPath>
    </defs>
</svg>