<svg width="768" height="824" viewBox="0 0 768 824" fill="none" xmlns="http://www.w3.org/2000/svg">
<g clip-path="url(#clip0_484_45769)">
<rect width="768" height="824" fill="#F0F0F5"/>
<g opacity="0.03" clip-path="url(#clip1_484_45769)">
<path d="M516.507 795.679V836.789C516.507 886.264 476.399 926.314 426.986 926.314V885.203C426.986 835.788 467.035 795.679 516.507 795.679Z" fill="#1D1D1F"/>
<path d="M415.325 923.837V882.726C415.325 833.252 375.217 793.201 325.804 793.201V834.312C325.804 883.727 365.912 923.837 415.325 923.837Z" fill="#1D1D1F"/>
<path d="M244.086 795.679V836.789C244.086 886.264 203.978 926.314 154.565 926.314V885.203C154.506 835.788 194.614 795.679 244.086 795.679Z" fill="#1D1D1F"/>
<path d="M142.904 923.837V882.726C142.904 833.252 102.797 793.201 53.3836 793.201V834.312C53.3247 883.727 93.4323 923.837 142.904 923.837Z" fill="#1D1D1F"/>
<path d="M788.926 795.679V836.789C788.926 886.264 748.819 926.314 699.406 926.314V885.203C699.347 835.788 739.454 795.679 788.926 795.679Z" fill="#1D1D1F"/>
<path d="M687.745 923.837V882.726C687.745 833.252 647.637 793.201 598.224 793.201V834.312C598.165 883.727 638.273 923.837 687.745 923.837Z" fill="#1D1D1F"/>
<path d="M-185.762 499.89H-52.3645H11.1244C11.1244 450.416 -28.9832 410.365 -78.3962 410.365H-103.898H-134.229H-218.979V499.89H-185.762Z" fill="#1D1D1F"/>
<path d="M516.507 267.013V308.123C516.507 357.598 476.399 397.648 426.986 397.648V356.537C426.986 307.122 467.035 267.013 516.507 267.013Z" fill="#1D1D1F"/>
<path d="M359.079 499.891H492.477H555.966C555.966 450.417 515.858 410.366 466.445 410.366H440.943H410.612H325.862V499.891H359.079Z" fill="#1D1D1F"/>
<path d="M415.325 395.171V354.061C415.325 304.587 375.217 264.536 325.804 264.536V305.647C325.804 355.062 365.912 395.171 415.325 395.171Z" fill="#1D1D1F"/>
<path d="M244.086 267.013V308.123C244.086 357.598 203.978 397.648 154.565 397.648V356.537C154.506 307.122 194.614 267.013 244.086 267.013Z" fill="#1D1D1F"/>
<path d="M86.6586 499.891H220.056H283.545C283.545 450.417 243.437 410.366 194.024 410.366H168.523H138.251H53.5007V499.891H86.6586Z" fill="#1D1D1F"/>
<path d="M142.904 395.171V354.061C142.904 304.587 102.797 264.536 53.3836 264.536V305.647C53.3247 355.062 93.4323 395.171 142.904 395.171Z" fill="#1D1D1F"/>
<path d="M788.926 267.013V308.123C788.926 357.598 748.819 397.648 699.406 397.648V356.537C699.347 307.122 739.454 267.013 788.926 267.013Z" fill="#1D1D1F"/>
<path d="M631.499 499.89H764.897H828.385C828.385 450.416 788.278 410.365 738.865 410.365H713.363H683.091H598.341V499.89H631.499Z" fill="#1D1D1F"/>
<path d="M687.745 395.171V354.061C687.745 304.587 647.637 264.536 598.224 264.536V305.647C598.165 355.062 638.273 395.171 687.745 395.171Z" fill="#1D1D1F"/>
<path d="M360.58 531.347V572.457C360.58 621.932 320.473 661.982 271.06 661.982V620.871C271.06 571.456 311.108 531.347 360.58 531.347Z" fill="#1D1D1F"/>
<path d="M203.153 764.225H336.551H400.04C400.04 714.751 359.932 674.7 310.519 674.7H285.018H254.687H169.937V764.225H203.153Z" fill="#1D1D1F"/>
<path d="M259.398 659.505V618.395C259.398 568.921 219.29 528.87 169.877 528.87V569.981C169.877 619.396 209.985 659.505 259.398 659.505Z" fill="#1D1D1F"/>
<path d="M747.995 764.224H881.392H944.881C944.881 714.75 904.773 674.699 855.36 674.699H829.859H799.528H714.778V764.224H747.995Z" fill="#1D1D1F"/>
<path d="M804.239 659.505V618.395C804.239 568.921 764.132 528.87 714.719 528.87V569.981C714.719 619.396 754.826 659.505 804.239 659.505Z" fill="#1D1D1F"/>
<path d="M88.1599 531.347V572.457C88.1599 621.932 48.0523 661.982 -1.36065 661.982V620.871C-1.41955 571.456 38.688 531.347 88.1599 531.347Z" fill="#1D1D1F"/>
<path d="M-69.2682 764.224H64.1293H127.618C127.618 714.75 87.5107 674.699 38.0976 674.699H12.596H-17.676H-102.426V764.224H-69.2682Z" fill="#1D1D1F"/>
<path d="M633 531.347V572.457C633 621.932 592.892 661.982 543.479 661.982V620.871C543.42 571.456 583.528 531.347 633 531.347Z" fill="#1D1D1F"/>
<path d="M475.573 764.224H608.971H672.459C672.459 714.75 632.352 674.699 582.939 674.699H557.437H527.165H442.415V764.224H475.573Z" fill="#1D1D1F"/>
<path d="M531.819 659.505V618.395C531.819 568.921 491.711 528.87 442.298 528.87V569.981C442.239 619.396 482.347 659.505 531.819 659.505Z" fill="#1D1D1F"/>
<path d="M360.579 2.67969V43.7904C360.579 93.2645 320.472 133.315 271.059 133.315V92.2044C271.059 42.7891 311.107 2.67969 360.579 2.67969Z" fill="#1D1D1F"/>
<path d="M203.152 235.558H336.55H400.039C400.039 186.084 359.931 146.033 310.518 146.033H285.017H254.686H169.936V235.558H203.152Z" fill="#1D1D1F"/>
<path d="M259.397 130.838V89.7278C259.397 40.2536 219.289 0.203125 169.876 0.203125V41.3138C169.876 90.7291 209.984 130.838 259.397 130.838Z" fill="#1D1D1F"/>
<path d="M747.994 235.558H881.391H944.88C944.88 186.084 904.772 146.033 855.359 146.033H829.858H799.527H714.777V235.558H747.994Z" fill="#1D1D1F"/>
<path d="M804.238 130.838V89.7278C804.238 40.2536 764.131 0.203125 714.718 0.203125V41.3138C714.718 90.7291 754.825 130.838 804.238 130.838Z" fill="#1D1D1F"/>
<path d="M88.1598 2.67969V43.7904C88.1598 93.2645 48.0522 133.315 -1.36078 133.315V92.2044C-1.41967 42.7891 38.6879 2.67969 88.1598 2.67969Z" fill="#1D1D1F"/>
<path d="M-69.2682 235.557H64.1292H127.618C127.618 186.083 87.5106 146.032 38.0976 146.032H12.596H-17.6761H-102.426V235.557H-69.2682Z" fill="#1D1D1F"/>
<path d="M632.999 2.67969V43.7904C632.999 93.2645 592.891 133.315 543.478 133.315V92.2044C543.419 42.7891 583.527 2.67969 632.999 2.67969Z" fill="#1D1D1F"/>
<path d="M475.573 235.557H608.97H672.459C672.459 186.083 632.351 146.032 582.938 146.032H557.437H527.165H442.415V235.557H475.573Z" fill="#1D1D1F"/>
<path d="M531.818 130.838V89.7278C531.818 40.2536 491.711 0.203125 442.298 0.203125V41.3138C442.239 90.7291 482.346 130.838 531.818 130.838Z" fill="#1D1D1F"/>
</g>
</g>
<defs>
<clipPath id="clip0_484_45769">
<rect width="768" height="824" fill="white"/>
</clipPath>
<clipPath id="clip1_484_45769">
<rect width="768" height="1024" fill="white"/>
</clipPath>
</defs>
</svg>
