<svg width="72" height="72" viewBox="0 0 72 72" fill="none" xmlns="http://www.w3.org/2000/svg">
<rect width="72" height="72" rx="36" fill="#367AFE"/>
<path d="M26.7543 40.7886V45.8971C26.7543 47.12 26.3429 47.5314 25.1657 47.5314C23.4857 47.5314 21.8171 47.5314 20.1371 47.5314C18.9943 47.5314 18.5714 47.0971 18.5714 45.9543V35.6686C18.5714 34.5828 18.9943 34.16 20.08 34.1486H25.28C26.3314 34.1486 26.7429 34.5714 26.7429 35.6228C26.7543 37.3257 26.7543 39.0628 26.7543 40.7886ZM19.3257 40.7886C19.3257 42.4686 19.3257 44.1371 19.3257 45.8171C19.3257 46.5143 19.5086 46.8343 20.2629 46.8114C21.8857 46.8114 23.5086 46.8114 25.12 46.8114C25.8171 46.8114 26.0571 46.5257 26.0571 45.8628C26.0571 42.4952 26.0571 39.1238 26.0571 35.7486C26.0571 35.0743 25.7829 34.8 25.0971 34.8114C23.5086 34.8114 21.9086 34.8114 20.32 34.8114C19.5314 34.8114 19.3029 35.12 19.3257 35.8514C19.3486 37.4857 19.3257 39.1314 19.3257 40.7771V40.7886Z" fill="white" stroke="white" stroke-width="0.4" stroke-miterlimit="10"/>
<path d="M23.2229 32.5829H22.5258C22.5175 32.4688 22.5175 32.3542 22.5258 32.24C22.5258 30.5372 22.5258 28.8115 22.5258 27.12C22.5011 26.7469 22.5557 26.3727 22.6859 26.0221C22.8161 25.6715 23.0191 25.3525 23.2813 25.0859C23.5436 24.8193 23.8593 24.6112 24.2077 24.4752C24.5561 24.3393 24.9294 24.2786 25.3029 24.2972C32.16 24.2972 39.0591 24.2972 46 24.2972C46.4321 24.2737 46.8636 24.3519 47.2599 24.5254C47.6562 24.699 48.0062 24.9632 48.2819 25.2966C48.5575 25.6301 48.7511 26.0236 48.8471 26.4455C48.943 26.8674 48.9387 27.3059 48.8343 27.7257C48.8343 27.92 48.5029 28.0686 48.16 28.4C48.16 27.8629 48.1029 27.6457 48.1029 27.4286C48.1029 25.68 47.4743 25.1429 45.6915 25.1429C40.4115 25.1429 35.1429 25.1429 29.8629 25.1429C28.32 25.1429 26.7886 25.1429 25.2915 25.1429C25.0225 25.1086 24.7492 25.1343 24.4913 25.218C24.2334 25.3017 23.9971 25.4413 23.7994 25.627C23.6018 25.8126 23.4476 26.0397 23.3479 26.2918C23.2483 26.544 23.2056 26.8151 23.2229 27.0857C23.2115 28.8915 23.2229 30.7086 23.2229 32.5829Z" fill="white" stroke="white" stroke-width="0.4" stroke-miterlimit="10"/>
<path d="M28.2172 41.8744H45.5886C47.52 41.8744 48.0686 41.3372 48.0914 39.4058C48.0914 39.2686 48.0914 39.1315 48.0914 38.9258H48.7772C49.04 41.4744 48.0114 42.6286 45.52 42.6286H28.9486C28.4914 42.6286 27.9772 42.7086 28.2172 41.8744Z" fill="white" stroke="white" stroke-width="0.4" stroke-miterlimit="10"/>
<path d="M35.6457 45.8742C34.0914 45.8742 32.5257 45.8742 30.96 45.8742C30.7314 45.8742 30.5028 45.6456 30.2743 45.5199C30.4914 45.4171 30.72 45.2228 30.9486 45.2228C34.1028 45.2228 37.2457 45.2228 40.4 45.2228C40.6171 45.2228 40.8343 45.4399 41.0514 45.5428C40.8457 45.6685 40.6286 45.8742 40.4228 45.8742C38.8571 45.8856 37.2457 45.8742 35.6457 45.8742Z" fill="white" stroke="white" stroke-width="0.4" stroke-miterlimit="10"/>
<path d="M47.8857 31.1086C46.32 31.1086 44.7543 31.1086 43.2 31.1086C42.96 31.1086 42.7314 30.88 42.5029 30.7543C42.7314 30.6514 42.9486 30.4572 43.1771 30.4572C46.3314 30.4572 49.4857 30.4572 52.64 30.4572C52.8571 30.4572 53.0629 30.6743 53.28 30.7886C53.0743 30.9029 52.8686 31.1086 52.6514 31.1086C51.0629 31.12 49.4743 31.1086 47.8857 31.1086Z" fill="white" stroke="white" stroke-width="0.4" stroke-miterlimit="10"/>
<path d="M47.8857 32.9257C46.32 32.9257 44.7543 32.9257 43.2 32.9257C42.96 32.9257 42.7314 32.6971 42.5029 32.5714C42.7314 32.4685 42.9486 32.2628 43.1771 32.2628H52.64C52.8571 32.2628 53.0629 32.48 53.28 32.5942C53.0743 32.7085 52.8686 32.9142 52.6514 32.9257C51.0629 32.9371 49.4743 32.9257 47.8857 32.9257Z" fill="white" stroke="white" stroke-width="0.4" stroke-miterlimit="10"/>
<path d="M47.6686 34.7429C46.1029 34.7429 44.5371 34.7429 42.9829 34.7429C42.7429 34.7429 42.5143 34.5143 42.2857 34.3886C42.5143 34.2857 42.7314 34.0914 42.96 34.0914C46.1143 34.0914 49.2686 34.0914 52.4229 34.0914C52.64 34.0914 52.8457 34.2971 53.0629 34.4114C52.8571 34.5257 52.6514 34.7429 52.4343 34.7429C50.8457 34.7657 49.2571 34.7429 47.6686 34.7429Z" fill="white" stroke="white" stroke-width="0.4" stroke-miterlimit="10"/>
<path d="M47.6686 36.6514C46.1029 36.6514 44.5371 36.6514 42.9829 36.6514C42.7429 36.6514 42.5143 36.4229 42.2857 36.2971C42.5143 36.1943 42.7314 36 42.96 36C46.1143 36 49.2686 36 52.4229 36C52.64 36 52.8457 36.2171 53.0629 36.32C52.8571 36.4457 52.6514 36.6514 52.4343 36.6514C50.8457 36.6629 49.2571 36.6514 47.6686 36.6514Z" fill="white" stroke="white" stroke-width="0.4" stroke-miterlimit="10"/>
<path d="M22.6285 36.9829C22.4649 36.9944 22.3007 36.9944 22.1371 36.9829C22.0833 36.9799 22.0307 36.9651 21.9833 36.9394C21.9359 36.9137 21.8947 36.8778 21.8628 36.8344C21.826 36.7191 21.826 36.5953 21.8628 36.4801C22.3137 36.415 22.7676 36.3731 23.2228 36.3544C23.3257 36.3544 23.4285 36.5601 23.52 36.6744C23.3987 36.7968 23.26 36.9008 23.1085 36.9829C22.946 37.0118 22.7796 37.0118 22.6171 36.9829H22.6285Z" fill="white" stroke="white" stroke-width="0.4" stroke-miterlimit="10"/>
</svg>
