<svg width="72" height="72" viewBox="0 0 72 72" fill="none" xmlns="http://www.w3.org/2000/svg">
<rect width="72" height="72" rx="36" fill="#367AFE"/>
<path d="M25.3419 48.4516C23.729 48.4516 22.3097 48.4516 20.8903 48.4516C20.6889 48.4451 20.4918 48.3916 20.3148 48.2952C20.1377 48.1989 19.9858 48.0624 19.871 47.8967C19.6774 47.2774 20.1549 47.0709 20.7226 47.0709C22.2065 47.0709 23.6903 47.0709 25.1613 47.0709C25.4386 47.1168 25.7231 47.0594 25.9609 46.9096C26.1987 46.7598 26.3733 46.528 26.4516 46.258C26.671 45.7161 26.9807 45.2 27.329 44.529H21.471C21.1462 44.5811 20.8151 44.5811 20.4903 44.529C20.2323 44.3871 19.871 44.1161 19.871 43.8967C19.871 43.6774 20.1936 43.3806 20.4387 43.2516C20.7071 43.1987 20.9832 43.1987 21.2516 43.2516H35.4452V41.1226C34.1549 41.1226 32.7742 41.2 31.471 41.1226C30.1883 41.1017 28.941 40.699 27.8884 39.9658C26.8357 39.2327 26.0255 38.2023 25.5613 37.0064C25.0057 35.4781 24.5742 33.9074 24.271 32.3097C24.1419 31.7935 24.4258 31.4451 24.9549 31.3161C26.9924 30.7021 29.1563 30.6398 31.2258 31.1355C32.9434 31.6108 34.4153 32.7228 35.3419 34.2451C35.3419 32.9548 35.729 31.6645 34.5032 30.3742C30.8774 26.6709 32.0129 22.9935 35.6387 20.0516C35.8059 19.9566 35.9948 19.9066 36.1871 19.9066C36.3794 19.9066 36.5683 19.9566 36.7355 20.0516C38.1242 21.0891 39.1711 22.518 39.7419 24.1548C39.9606 24.7702 40.0527 25.4234 40.0128 26.0753C39.9728 26.7271 39.8017 27.3642 39.5097 27.9484C39.1899 28.7635 38.7018 29.5022 38.0774 30.1161C36.5807 31.2516 36.7871 32.6968 36.8903 34.3484C36.9902 34.2878 37.0813 34.214 37.1613 34.129C37.769 33.1074 38.6382 32.2663 39.6793 31.6924C40.7203 31.1186 41.8956 30.8328 43.0839 30.8645C44.4993 30.8919 45.9084 31.0605 47.2903 31.3677C47.4785 31.4431 47.6439 31.5659 47.7706 31.7242C47.8972 31.8825 47.9807 32.0708 48.0129 32.2709C47.963 34.4284 47.3007 36.5272 46.1032 38.3226C45.3487 39.3539 44.3327 40.1654 43.1602 40.6734C41.9876 41.1815 40.7008 41.3677 39.4323 41.2129C38.6194 41.2129 37.8065 41.058 36.929 40.9677V43.2516H51.0839C51.3032 43.2516 51.5097 43.2516 51.729 43.2516C52.2323 43.2516 52.7355 43.3677 52.6194 43.9613C52.5331 44.1258 52.4082 44.2669 52.2553 44.3725C52.1025 44.4782 51.9263 44.5451 51.7419 44.5677C49.6903 44.5677 47.6258 44.5677 45.5742 44.5677H44.3871C44.8387 45.4064 45.1871 46.1677 45.6774 46.8645C45.7807 47.0193 46.1419 47.0838 46.3871 47.0838C48.1075 47.0838 49.8624 47.0838 51.6516 47.0838C52.1549 47.0838 52.6968 47.0838 52.6968 47.7677C52.6968 48.4516 52.1549 48.4645 51.6516 48.4645H46.4903L47.4581 50.3613C47.6903 50.8129 47.7807 51.3161 47.2129 51.4709C47.0247 51.4717 46.8392 51.4262 46.6727 51.3385C46.5062 51.2507 46.3638 51.1234 46.2581 50.9677C45.2 49.0709 44.1936 47.0967 43.2129 45.2C43.1749 45.0581 43.1033 44.9274 43.0043 44.819C42.9052 44.7106 42.7815 44.6276 42.6436 44.577C42.5057 44.5264 42.3577 44.5097 42.212 44.5283C42.0663 44.5469 41.9272 44.6002 41.8065 44.6838C42.4129 46.4258 43.0323 48.1548 43.6129 49.8451C43.7936 50.3871 44.3355 51.1355 43.4194 51.4451C42.5032 51.7548 42.529 50.8258 42.3484 50.3097C41.7419 48.658 41.1742 47.0064 40.5936 45.3548C40.271 44.4387 40.271 44.4387 39.1742 44.6193C39.4968 46.4516 39.8065 48.2838 40.129 50.129V50.2967C40.2452 50.8 40.2968 51.3548 39.6645 51.4709C39.0323 51.5871 38.8516 51.0193 38.7613 50.5032C38.4645 48.8 38.1032 47.1097 37.8968 45.3419C37.7807 44.4645 37.4065 44.2838 36.6065 44.5419V50.4C36.6065 50.9161 36.5419 51.4451 35.8968 51.4322C35.2516 51.4193 35.2129 50.8774 35.2129 50.3613V44.658C34.3742 44.4129 33.9226 44.5548 33.8581 45.4838C33.6387 47.1871 33.2903 48.8774 32.9807 50.5806C32.9032 51.0709 32.7871 51.6258 32.1419 51.5355C31.4968 51.4451 31.4839 50.8387 31.6129 50.3226C31.9355 48.4516 32.271 46.5806 32.6065 44.6709C31.871 44.4129 31.4323 44.5161 31.1742 45.3419C30.6065 47.1484 29.8839 48.9419 29.3161 50.7355C29.1613 51.1871 28.9807 51.7419 28.3355 51.5097C27.6903 51.2774 27.8452 50.7742 28.0129 50.2838C28.5678 48.7226 29.1226 47.1613 29.6645 45.5871C29.7678 45.2903 29.8581 44.9806 29.9613 44.6709C29.8392 44.5983 29.702 44.5547 29.5603 44.5434C29.4187 44.5321 29.2763 44.5534 29.1442 44.6058C29.0121 44.6581 28.8938 44.74 28.7983 44.8453C28.7029 44.9506 28.6328 45.0763 28.5936 45.2129C27.6129 47.0838 26.671 48.9161 25.6903 50.7484C25.4581 51.1871 25.2516 51.8193 24.5807 51.4709C23.9097 51.1226 24.2581 50.5548 24.5032 50.0903C24.7484 49.6258 25.0323 49.1355 25.3419 48.4516ZM35.3549 38.4516C34.7742 33.2903 29.9097 30.4774 25.8452 32.6709C26.4 38.129 30.2968 41.2645 34.4387 39.5097L33.6387 38.9032C32.1161 37.8193 30.5678 36.7613 29.0839 35.6258C28.9469 35.4973 28.8435 35.3372 28.7828 35.1595C28.722 34.9818 28.7058 34.7919 28.7355 34.6064C28.9678 34.0645 29.4581 34.2322 29.871 34.5419C30.0774 34.7097 30.3097 34.8516 30.529 35.0193L35.3549 38.4516ZM46.7355 32.5935C41.5742 31.3032 38.0129 33.0967 37.2516 38.4L37.9355 37.9355L42.5807 34.6322C42.9678 34.3484 43.3936 34.1032 43.7549 34.6322C44.1161 35.1613 43.7549 35.4968 43.3549 35.8064L38.5678 39.2129C38.3769 39.36 38.1959 39.5195 38.0258 39.6903C43.2774 40.5806 46.142 38.0516 46.6968 32.5935H46.7355ZM35.5355 29.3935V28.6838C35.5355 27.5871 35.5355 26.5032 35.5355 25.4193C35.5355 25.1097 35.9484 24.8258 36.1807 24.529C36.4415 24.7927 36.6632 25.0926 36.8387 25.4193C36.8972 25.7783 36.8972 26.1443 36.8387 26.5032C36.8387 27.4064 36.8387 28.3226 36.8387 29.4064C39.4194 26.8258 39.1484 23.6387 36.2452 21.3935C33.329 23.6 32.9678 26.7097 35.5355 29.3935Z" fill="white"/>
</svg>
