<svg width="80" height="80" viewBox="0 0 80 80" fill="none" xmlns="http://www.w3.org/2000/svg">
<rect x="0.5" y="0.5" width="79" height="79" rx="39.5" fill="white"/>
<path d="M61.4665 33.7333C59.7065 36.4 57.9865 39.0666 56.1332 41.7333C55.7274 42.1392 55.1862 42.3813 54.6132 42.4133C53.5832 42.4576 52.5727 42.7096 51.6425 43.1541C50.7122 43.5986 49.8814 44.2264 49.1998 45C48.9467 45.2435 48.6444 45.4301 48.3133 45.5474C47.9822 45.6647 47.6298 45.7099 47.2798 45.68C43.2798 44.9066 39.2798 43.9866 35.1998 43.1333C34.9892 43.1107 34.7854 43.0454 34.6008 42.9414C34.4162 42.8374 34.2548 42.6969 34.1263 42.5285C33.9978 42.3601 33.9049 42.1672 33.8534 41.9617C33.8018 41.7562 33.7927 41.5424 33.8265 41.3333C33.8932 39.0933 33.8265 36.8533 33.8265 34.6666C33.8265 33.56 34.2665 33.2533 35.3332 33.16C36.2135 33.066 37.0567 32.7545 37.7865 32.2533C40.711 30.3066 43.5865 28.28 46.4132 26.1733C46.7327 25.8574 47.1639 25.6802 47.6132 25.6802C48.0625 25.6802 48.4937 25.8574 48.8132 26.1733C50.2932 27.32 51.7998 28.4533 53.3465 29.4933C55.7998 31.1333 57.7065 33.8533 61.3465 33.2L61.4665 33.7333ZM34.6665 34.1066C34.6665 36.5333 34.5865 38.7733 34.6665 41C34.7483 41.3026 34.901 41.5814 35.112 41.8133C35.323 42.0451 35.5862 42.2234 35.8798 42.3333C39.6398 43.2222 43.4132 44.0622 47.1998 44.8533C47.6932 44.9466 48.3332 44.4666 48.8532 44.1733C50.1865 43.4266 51.4398 42.1733 52.8532 41.9733C53.7623 41.8579 54.6264 41.5102 55.3621 40.9637C56.0977 40.4172 56.6801 39.6904 57.0532 38.8533C57.6932 37.6933 58.5065 36.6266 59.1998 35.4933C59.4133 35.064 59.5917 34.6181 59.7332 34.16L34.6665 34.1066ZM55.9998 33.04L56.1732 32.68C54.6665 31.52 53.1732 30.36 51.6398 29.2266C47.6398 26.3066 47.6398 26.3066 43.6398 29.1466C41.9732 30.2933 40.3598 31.4933 38.6665 32.6666L38.8665 33.04H55.9998Z" fill="#367AFE" stroke="#367AFE" stroke-width="0.666667" stroke-miterlimit="10"/>
<path d="M19.173 41.4401C20.5063 41.7067 21.9463 41.9601 23.3197 42.2534C26.5863 42.9334 29.8263 43.6667 33.093 44.3067C33.33 44.3223 33.5612 44.3872 33.7718 44.4972C33.9823 44.6073 34.1675 44.76 34.3156 44.9458C34.4637 45.1315 34.5714 45.3462 34.6318 45.5759C34.6922 45.8057 34.7039 46.0455 34.6663 46.2801C34.5863 47.7946 34.5863 49.3122 34.6663 50.8267C34.6663 51.3867 35.2263 51.9067 35.5197 52.4401C36.053 52.1334 36.7463 51.9334 37.0797 51.4801C38.0575 50.1525 38.9483 48.7629 39.7463 47.3201C39.949 46.8471 40.3306 46.4736 40.8078 46.2812C41.285 46.0889 41.819 46.0932 42.293 46.2934C44.173 46.7601 46.093 47.0401 47.9597 47.5467C48.4328 47.7309 48.9588 47.7255 49.4281 47.5318C49.8975 47.3381 50.2741 46.971 50.4797 46.5067C51.0846 45.5135 52.0097 44.7558 53.1027 44.3584C54.1956 43.9609 55.3913 43.9474 56.493 44.3201C57.5591 44.6677 58.4922 45.3356 59.165 46.2327C59.8378 47.1298 60.2178 48.2126 60.253 49.3334C60.2317 50.6784 59.72 51.9693 58.814 52.9637C57.9081 53.958 56.6702 54.5873 55.333 54.7334C53.9863 54.8392 52.6497 54.4301 51.5929 53.5887C50.5362 52.7473 49.8381 51.5362 49.6397 50.2001C49.6434 49.6964 49.4505 49.2111 49.1018 48.8475C48.7532 48.4839 48.2764 48.2708 47.773 48.2534C45.933 47.8934 44.093 47.5201 42.2797 47.0934C41.8799 46.9513 41.4403 46.9724 41.056 47.1521C40.6717 47.3317 40.3736 47.6556 40.2263 48.0534C39.5179 49.4681 38.6692 50.8082 37.693 52.0534C37.4035 52.3918 37.0402 52.6592 36.631 52.8349C36.2218 53.0106 35.7777 53.0899 35.333 53.0667C34.955 52.8291 34.6322 52.5135 34.3862 52.1409C34.1401 51.7684 33.9765 51.3476 33.9063 50.9067C33.7595 49.5774 33.7595 48.236 33.9063 46.9067C33.9577 46.6734 33.9566 46.4316 33.9032 46.1988C33.8497 45.966 33.7452 45.7479 33.5972 45.5604C33.4492 45.3729 33.2615 45.2205 33.0474 45.1144C32.8334 45.0083 32.5985 44.951 32.3597 44.9467C28.4397 44.1867 24.533 43.3067 20.6397 42.4534C20.1197 42.3334 19.613 42.1601 19.1063 42.0134L19.173 41.4401ZM59.373 49.3334C59.3787 48.7449 59.2653 48.1614 59.0394 47.6179C58.8136 47.0745 58.4801 46.5824 58.059 46.1712C57.6379 45.7601 57.138 45.4385 56.5893 45.2258C56.0406 45.013 55.4545 44.9136 54.8663 44.9334C54.2766 44.9244 53.6912 45.0338 53.1445 45.2549C52.5978 45.476 52.1009 45.8045 51.6833 46.2209C51.2657 46.6373 50.9357 47.1331 50.7129 47.6792C50.4902 48.2252 50.3791 48.8104 50.3863 49.4001C50.3861 50.5864 50.8509 51.7255 51.6809 52.5731C52.511 53.4206 53.6403 53.909 54.8263 53.9334C55.431 53.9445 56.0316 53.8327 56.5918 53.6048C57.1519 53.3768 57.66 53.0375 58.0851 52.6074C58.5102 52.1773 58.8436 51.6653 59.065 51.1026C59.2864 50.5398 59.3911 49.9379 59.373 49.3334Z" fill="#367AFE" stroke="#367AFE" stroke-width="0.666667" stroke-miterlimit="10"/>
<path d="M23.1332 38.4001L31.2665 40.0001L31.1199 40.7601L22.9465 39.1735L23.1332 38.4001Z" fill="#367AFE" stroke="#367AFE" stroke-width="0.666667" stroke-miterlimit="10"/>
<rect x="0.5" y="0.5" width="79" height="79" rx="39.5" stroke="#ADC5FF"/>
</svg>
