<svg width="80" height="80" viewBox="0 0 80 80" fill="none" xmlns="http://www.w3.org/2000/svg">
<rect x="0.5" y="0.5" width="79" height="79" rx="39.5" fill="white"/>
<path d="M29.1519 49.8881C25.0726 47.7987 21.3658 45.051 18.1805 41.7555C17.0559 40.5761 17.0422 40.2195 18.1805 39.0126C23.0491 34.1166 28.5211 30.2355 35.4193 28.7406C39.4773 27.8706 43.7034 28.2483 47.5428 29.8241C47.8647 29.9932 48.2374 30.0392 48.5908 29.9533C48.9442 29.8675 49.2542 29.6558 49.4628 29.3578C50.2856 28.3429 51.3142 27.3966 52.3016 26.4229C52.8228 25.9018 53.3851 25.1338 54.1531 25.9703C54.9211 26.8069 54.1531 27.3418 53.6045 27.8355C52.5622 28.8229 51.4925 29.7966 50.2993 30.8938L51.7531 31.7578C55.267 33.7137 58.4701 36.1819 61.2571 39.0812C62.3542 40.2195 62.3679 40.5898 61.2571 41.6869C56.2239 46.7886 50.5325 50.7795 43.3188 52.1646C39.4868 52.8509 35.5393 52.4519 31.9222 51.0126C31.6217 50.8282 31.2616 50.7666 30.9168 50.8406C30.5721 50.9147 30.2691 51.1187 30.0708 51.4103C29.0833 52.5373 28.0202 53.5957 26.8891 54.5783C26.6656 54.7489 26.4036 54.8618 26.1262 54.9073C25.8487 54.9527 25.5644 54.9292 25.2982 54.8389C24.6399 54.4001 25.0102 53.7418 25.5176 53.2618L29.1519 49.8881ZM46.4731 35.0903C47.6911 36.7122 48.3078 38.7068 48.2177 40.7331C48.1277 42.7594 47.3364 44.6915 45.9793 46.1989C43.0308 49.3669 39.4376 49.7098 34.4456 47.2961L32.5668 49.0652C40.9188 53.0149 51.7668 48.8869 59.7211 40.3566C57.4613 37.9122 54.8498 35.8183 51.9725 34.1441C48.2696 32.0458 49.6273 31.8675 46.4731 35.0903ZM32.8959 45.7326C30.4411 41.0286 30.6331 37.4081 33.6365 34.4183C35.0642 32.9341 36.9799 32.0154 39.0311 31.8315C41.0823 31.6475 43.1309 32.2106 44.7999 33.4172L46.9942 31.7852C37.9428 27.7532 27.1771 32.3338 19.7028 40.4938C21.9825 42.9128 24.5909 44.9995 27.4513 46.6926C31.1405 48.7909 29.8239 48.8183 32.8411 45.8561C32.8685 45.8286 32.8685 45.7738 32.8959 45.7326ZM35.9268 45.7326C37.2266 46.7089 38.8484 47.1557 40.4648 46.9826C42.0812 46.8095 43.5717 46.0295 44.6353 44.8001C46.7473 42.4275 46.8845 38.6561 44.9919 36.7223L35.9268 45.7326ZM34.2673 43.9635L43.4285 35.0355C42.1751 34.1003 40.6186 33.6652 39.062 33.8148C37.5054 33.9643 36.0602 34.6879 35.0079 35.8446C32.7039 38.1898 32.4571 41.9338 34.2673 43.9498V43.9635Z" fill="#367AFE"/>
<rect x="0.5" y="0.5" width="79" height="79" rx="39.5" stroke="#ADC5FF"/>
</svg>
