<svg width="80" height="80" viewBox="0 0 80 80" fill="none" xmlns="http://www.w3.org/2000/svg">
<rect x="0.5" y="0.5" width="79" height="79" rx="39.5" fill="white"/>
<path d="M27.143 46.0344C27.0975 46.5154 26.9699 46.985 26.7659 47.4229C25.6173 49.1372 24.383 50.6287 23.183 52.2401C22.6257 51.7567 22.2479 51.0992 22.111 50.3742C21.9741 49.6492 22.0861 48.8992 22.4288 48.2458C23.0803 47.296 23.4639 46.1882 23.5393 45.0389C23.6147 43.8896 23.3792 42.7412 22.8573 41.7144C20.423 42.6058 20.423 42.6058 19.2402 45.4515C18.8073 45.1491 18.4501 44.7507 18.1965 44.2874C17.9429 43.8242 17.7997 43.3087 17.7781 42.781C17.7566 42.2533 17.8572 41.7278 18.0721 41.2455C18.2871 40.7631 18.6106 40.3369 19.0173 40.0001C19.7071 39.4765 20.2892 38.8246 20.7316 38.0801C21.1104 37.0895 21.8556 36.2825 22.8129 35.8261C23.7703 35.3698 24.8664 35.2991 25.8745 35.6287C26.3477 35.7302 26.8397 35.7006 27.2973 35.5429C32.0288 33.3487 35.9545 34.5829 38.5773 39.1258C38.7145 39.3487 38.8516 39.5715 38.9888 39.8458C42.0402 35.0972 45.3488 33.6572 49.8745 35.0458C50.2514 35.1335 50.6147 35.272 50.9545 35.4572C51.5955 36.0323 52.3748 36.4311 53.2163 36.6144C54.0577 36.7977 54.9323 36.7593 55.7545 36.5029C57.2288 36.0058 58.3259 37.2401 58.7716 38.9029C58.9868 39.7037 59.413 40.4319 60.0059 41.0115C60.3679 41.4091 60.644 41.8771 60.8169 42.3862C60.9898 42.8953 61.0557 43.4347 61.0107 43.9705C60.9656 44.5063 60.8105 45.027 60.555 45.5001C60.2996 45.9732 59.9492 46.3885 59.5259 46.7201C59.0288 45.3144 59.663 43.2058 57.0059 42.8972C57.2086 43.8992 57.519 44.8763 57.9316 45.8115C58.3645 46.4239 58.5582 47.1735 58.4761 47.9189C58.3939 48.6643 58.0417 49.3538 57.4859 49.8572C56.6332 51.1621 55.9315 52.5596 55.3945 54.0229C54.6713 53.5247 54.1519 52.7825 53.9315 51.9324C53.7111 51.0823 53.8044 50.1812 54.1945 49.3944C54.6392 48.676 54.8749 47.8478 54.8749 47.0029C54.8749 46.158 54.6392 45.3299 54.1945 44.6115C53.9616 43.9927 53.9616 43.3103 54.1945 42.6915C54.8288 40.5487 54.7088 40.0001 52.4802 38.3201C52.6105 39.2232 52.8228 40.1126 53.1145 40.9772C53.4364 41.5922 53.5338 42.3001 53.3898 42.9792C53.2459 43.6582 52.8696 44.2658 52.3259 44.6972C51.297 45.9485 50.3847 47.2913 49.6002 48.7087C49.0505 48.2172 48.6592 47.5735 48.4761 46.8593C48.293 46.1451 48.3262 45.3925 48.5716 44.6972C48.7154 44.1559 48.9661 43.6488 49.3088 43.2058C49.6319 42.8011 49.8393 42.3164 49.9087 41.8032C49.9781 41.2899 49.9071 40.7675 49.703 40.2915C49.5555 38.9355 49.5555 37.5675 49.703 36.2115C44.5602 34.0172 39.6745 37.4629 39.5888 43.8401H48.3145C48.143 45.2972 48.0059 46.5829 47.8002 47.8687C47.1659 51.9315 46.463 55.9944 45.863 60.0744C45.7088 61.1372 45.3488 61.6001 44.1488 61.5829C40.7202 61.4972 37.463 61.5829 34.1202 61.5829C33.023 61.5829 32.5602 61.3087 32.4059 60.1601C31.823 56.0115 31.1202 51.8972 30.4516 47.7829C30.3488 47.1829 30.2116 46.5829 30.023 45.6229L28.7716 48.5715C28.103 47.5429 27.6059 46.8572 27.0573 46.0172C27.6745 44.5429 28.3259 43.0858 28.8916 41.5944C28.9948 41.172 28.9948 40.731 28.8916 40.3087C28.6859 38.9372 28.4288 37.5829 28.1545 36.0229C27.4859 36.7087 26.6459 37.4801 25.943 38.3372C25.629 38.7607 25.4881 39.2878 25.5488 39.8115C26.0802 41.9201 26.6288 43.9772 27.143 46.0344ZM46.583 48.0915H31.4288L33.4516 60.4001H44.6288L46.583 48.0915ZM38.2859 43.7887C38.9545 39.5372 35.1145 35.2172 31.3259 35.5772L32.5945 43.7887H38.2859ZM30.5888 45.0229C31.2402 45.8287 31.6688 46.8229 32.1316 46.8401C37.0002 46.9429 41.8688 46.8401 46.8059 46.8401L47.1488 44.8001H32.2688C31.8916 44.8687 31.5145 44.9372 30.5373 45.0229H30.5888ZM55.6002 42.4515L54.9316 42.5372C54.9969 43.4837 55.1636 44.4205 55.4288 45.3315C55.7456 45.8472 55.9134 46.4406 55.9134 47.0458C55.9134 47.651 55.7456 48.2444 55.4288 48.7601C55.0798 49.5097 54.8209 50.2981 54.6573 51.1087C55.5518 50.3683 56.3469 49.5155 57.023 48.5715C57.2459 48.2801 57.5202 47.8172 57.4173 47.5429C56.8516 45.8801 56.183 44.1658 55.5488 42.4515H55.6002ZM51.0916 37.3087H50.6288C50.482 38.1998 50.482 39.1089 50.6288 40.0001C50.9232 40.5787 51.0473 41.2291 50.9866 41.8755C50.9259 42.5219 50.6829 43.1378 50.2859 43.6515C49.9405 44.179 49.6802 44.7575 49.5145 45.3658C50.1488 44.8858 51.0573 44.2515 51.8802 43.5144C52.0462 43.3762 52.1799 43.2033 52.2718 43.0078C52.3636 42.8123 52.4113 42.5989 52.4116 42.3829C52.0002 40.7029 51.4859 38.9715 51.0402 37.2572L51.0916 37.3087ZM28.463 45.1429L28.343 44.8344C29.2472 44.3244 30.0874 43.7087 30.8459 43.0001C31.2114 42.3807 31.3451 41.6517 31.223 40.9429C31.0967 39.9253 30.9019 38.9173 30.6402 37.9258C30.5373 37.4458 30.4002 36.9658 30.263 36.4858L29.5945 36.5715C29.5013 37.4754 29.5418 38.388 29.7145 39.2801C30.0092 39.8765 30.1286 40.5442 30.0588 41.2058C29.989 41.8673 29.7329 42.4955 29.3202 43.0172C28.9393 43.6836 28.6509 44.3987 28.463 45.1429ZM23.3202 48.9315C23.8345 48.5372 24.5202 47.9887 25.2402 47.4915C25.4555 47.3687 25.6432 47.2028 25.7915 47.0041C25.9397 46.8054 26.0453 46.5782 26.1016 46.3368C26.1579 46.0954 26.1638 45.8449 26.1188 45.6011C26.0738 45.3574 25.979 45.1255 25.8402 44.9201C25.5582 44.0469 25.3798 43.1435 25.3088 42.2287C25.2059 41.7144 25.0859 41.2001 24.983 40.7029H24.4345C24.4345 41.4401 23.9545 42.3315 24.2288 42.8972C24.655 43.674 24.8311 44.5634 24.7329 45.444C24.6347 46.3246 24.2671 47.1534 23.6802 47.8172C23.4713 48.1538 23.3477 48.5363 23.3202 48.9315ZM19.0002 41.9029L19.1373 42.1772C20.2679 41.741 21.3126 41.1084 22.223 40.3087C22.8794 39.2011 23.3594 37.9981 23.6459 36.7429L23.4745 36.5715L19.0002 41.9029ZM59.8173 42.8801C59.6802 42.6229 59.6116 42.1944 59.3888 42.0915C58.8128 41.7673 58.3351 41.2935 58.0061 40.7201C57.6772 40.1468 57.5093 39.4953 57.5202 38.8344C57.507 38.63 57.4503 38.4309 57.354 38.2502C57.2577 38.0695 57.124 37.9114 56.9617 37.7865C56.7995 37.6615 56.6125 37.5727 56.4132 37.5257C56.2139 37.4788 56.0068 37.4749 55.8059 37.5144C56.3545 39.8458 56.783 42.3315 59.8173 42.8801Z" fill="#367AFE"/>
<path d="M44.9371 17.8C46.6514 18.76 47.0971 20.2172 45.88 21.6572C44.6628 23.0972 44.5428 24.0915 45.88 25.4972C47.2171 26.9029 46.4971 28.4286 44.7314 29.3886C44.7314 29.2686 44.4571 29.0458 44.4914 29.0115C44.7494 28.7133 44.9461 28.3672 45.0703 27.9929C45.1944 27.6187 45.2435 27.2236 45.2149 26.8304C45.1862 26.4371 45.0803 26.0533 44.9032 25.701C44.7261 25.3487 44.4813 25.0348 44.1828 24.7772C44.001 24.3169 43.9326 23.8196 43.9833 23.3273C44.034 22.835 44.2024 22.3622 44.4742 21.9486C45.2971 20.7143 45.88 19.7029 44.7828 18.4C44.7142 18.3315 44.8514 18.1086 44.9371 17.8Z" fill="#367AFE"/>
<path d="M34.3257 32.0115C32.7828 31.7715 32.1999 30.9487 32.4742 29.8001C32.617 29.2602 32.8742 28.7574 33.2285 28.3258C33.4182 28.1431 33.5676 27.9227 33.6669 27.6788C33.7663 27.4349 33.8134 27.1729 33.8053 26.9096C33.7973 26.6464 33.7341 26.3878 33.62 26.1504C33.5059 25.913 33.3433 25.7022 33.1428 25.5315C31.7885 24.0058 31.9085 22.8915 33.4514 21.7772C33.4514 22.0515 33.7257 22.3601 33.6399 22.5144C33.3669 22.9427 33.2698 23.46 33.3688 23.9582C33.4678 24.4564 33.7553 24.8972 34.1714 25.1887C34.5683 25.5283 34.8288 26.0003 34.9044 26.5172C34.9801 27.0341 34.8658 27.5609 34.5828 28.0001C33.7771 29.2858 32.8514 30.4172 34.3257 32.0115Z" fill="#367AFE"/>
<path d="M39.7429 25.7201C39.401 25.6505 39.0807 25.5005 38.8084 25.2824C38.5362 25.0642 38.3198 24.7844 38.1774 24.4659C38.0349 24.1475 37.9704 23.7997 37.9893 23.4513C38.0081 23.103 38.1098 22.7641 38.2857 22.4629C39.4515 20.0115 39.4515 20.0115 39.1429 17.9886C39.3791 17.9987 39.6107 18.0576 39.8231 18.1615C40.0355 18.2654 40.2241 18.4121 40.3771 18.5925C40.53 18.7728 40.644 18.9828 40.7119 19.2093C40.7798 19.4358 40.8 19.6739 40.7715 19.9086C40.7449 20.4059 40.6104 20.8915 40.3772 21.3315C39.1257 23.5772 39.1086 23.5601 39.7429 25.7201Z" fill="#367AFE"/>
<path d="M40.6 26.4399C40.6 27.0228 40.6 27.7257 40.3086 28.1542C39.4686 29.3371 38.7658 30.4685 39.9829 31.9428C37.5829 31.7028 37.7029 30.1085 40.6 26.4399Z" fill="#367AFE"/>
<path d="M34.24 20.8172L33.1428 18.0744L33.6057 17.7144C34.0971 18.1507 34.5191 18.6594 34.8571 19.2229C34.979 19.7879 34.979 20.3723 34.8571 20.9372L34.24 20.8172Z" fill="#367AFE"/>
<rect x="0.5" y="0.5" width="79" height="79" rx="39.5" stroke="#ADC5FF"/>
</svg>
