<svg width="72" height="72" viewBox="0 0 72 72" fill="none" xmlns="http://www.w3.org/2000/svg">
<rect width="72" height="72" rx="36" fill="#367AFE"/>
<path d="M53.08 49.6799C52.3867 50.4133 51.7467 51.1599 50.9733 51.8799C50.8245 52.0121 50.6324 52.0851 50.4333 52.0851C50.2343 52.0851 50.0422 52.0121 49.8933 51.8799C49.6933 51.7066 49.5067 51.5066 49.32 51.3199L45.32 47.3199C45.1767 47.2031 45.0676 47.0498 45.0043 46.8761C44.9409 46.7025 44.9256 46.5149 44.96 46.3333C44.9736 46.3017 44.9806 46.2677 44.9806 46.2333C44.9806 46.1989 44.9736 46.1649 44.96 46.1333L43.7733 44.9199C43.7733 45.1333 43.7733 45.2533 43.7733 45.3733V50.1333C43.7733 50.9466 43.4667 51.2533 42.6667 51.2533H28.4C28.2926 51.2379 28.1938 51.1855 28.1208 51.1052C28.0478 51.0249 28.0051 50.9217 28 50.8133C27.9761 50.7002 27.9977 50.5823 28.0601 50.485C28.1225 50.3876 28.2206 50.3188 28.3333 50.2933C28.4877 50.2658 28.6456 50.2658 28.8 50.2933H42.6667V45.3333L41.7733 45.7199V48.1999C41.7733 48.9866 41.4533 49.3066 40.6667 49.3066H21.64V50.2133H25.8933C26.0259 50.1932 26.1608 50.1932 26.2933 50.2133C26.4019 50.2445 26.4948 50.3151 26.554 50.4113C26.6132 50.5075 26.6343 50.6223 26.6133 50.7333C26.6105 50.841 26.5682 50.944 26.4945 51.0227C26.4207 51.1013 26.3207 51.1502 26.2133 51.1599H21.5733C21.4406 51.1752 21.3062 51.1601 21.1803 51.1157C21.0543 51.0713 20.9401 50.9988 20.8463 50.9037C20.7525 50.8086 20.6816 50.6934 20.6389 50.5669C20.5962 50.4403 20.5829 50.3057 20.6 50.1733V49.3333H19.6667C19.5312 49.3507 19.3935 49.3368 19.2643 49.2927C19.135 49.2486 19.0176 49.1755 18.921 49.0789C18.8244 48.9823 18.7513 48.8649 18.7072 48.7356C18.6631 48.6064 18.6492 48.4687 18.6667 48.3333V19.6666C18.6492 19.5311 18.6631 19.3935 18.7072 19.2642C18.7513 19.135 18.8244 19.0175 18.921 18.921C19.0176 18.8244 19.135 18.7512 19.2643 18.7071C19.3935 18.663 19.5312 18.6492 19.6667 18.6666H41C41.2275 18.6701 41.4446 18.763 41.6042 18.9251C41.7639 19.0873 41.8534 19.3057 41.8533 19.5333C41.8533 19.8666 41.8533 20.1999 41.8533 20.5733H42.6C43.4933 20.5733 43.7867 20.8799 43.7867 21.7733V29.5599C44.2667 29.6266 44.3867 30.0133 44.52 30.3999C44.6352 30.8137 44.8553 31.1906 45.1589 31.4943C45.4626 31.798 45.8396 32.0181 46.2533 32.1333L46.56 32.2399C46.6981 32.2885 46.8176 32.3787 46.9022 32.4981C46.9868 32.6175 47.0323 32.7603 47.0323 32.9066C47.0323 33.053 46.9868 33.1957 46.9022 33.3151C46.8176 33.4345 46.6981 33.5247 46.56 33.5733L46.2533 33.6799C47.0233 35.0699 47.3912 36.6467 47.3158 38.2338C47.2405 39.821 46.7248 41.3559 45.8267 42.6666L47.0933 43.9199C47.1785 43.9806 47.2825 44.009 47.3867 43.9999C47.5346 43.9661 47.6888 43.9717 47.8338 44.0162C47.9789 44.0606 48.1098 44.1424 48.2133 44.2533L49.8267 45.8666C49.8812 45.9104 49.9264 45.9649 49.9594 46.0266C49.9925 46.0883 50.0127 46.156 50.0189 46.2257C50.0252 46.2955 50.0172 46.3657 49.9957 46.4323C49.9741 46.4989 49.9393 46.5605 49.8933 46.6133C49.8471 46.6716 49.7884 46.7187 49.7214 46.751C49.6544 46.7834 49.581 46.8002 49.5067 46.8002C49.4323 46.8002 49.3589 46.7834 49.2919 46.751C49.225 46.7187 49.1662 46.6716 49.12 46.6133L47.6267 45.1199L46.0933 46.6666L50.44 51.0133L52 49.3333L50.8667 48.2266C50.8208 48.1936 50.782 48.1518 50.7525 48.1036C50.723 48.0555 50.7033 48.0019 50.6946 47.9461C50.6859 47.8903 50.6884 47.8333 50.7019 47.7785C50.7154 47.7236 50.7397 47.672 50.7733 47.6266C50.9277 47.5024 51.1113 47.4197 51.3067 47.3866C51.3733 47.3866 51.48 47.3866 51.5333 47.4933C51.9867 47.9466 52.44 48.3866 52.8667 48.8266C52.9411 48.9329 53.0079 49.0443 53.0667 49.1599L53.08 49.6799ZM35.16 30.2133H34.08C34.0009 30.2178 33.9219 30.2028 33.8501 30.1694C33.7783 30.1361 33.7158 30.0854 33.6683 30.0221C33.6207 29.9587 33.5896 29.8846 33.5777 29.8063C33.5658 29.7279 33.5735 29.6479 33.6 29.5733C33.6395 29.4536 33.7201 29.3519 33.8275 29.286C33.9349 29.2201 34.0621 29.1943 34.1867 29.2133H36.8533C37.3067 29.2133 37.8 29.0666 38.1867 29.4533C38.1867 29.4533 38.1867 29.4533 38.28 29.4533L40.8133 29.5599V29.3333C40.8133 28.4666 40.8133 27.5999 40.8133 26.7466C40.8133 26.2933 41.2267 26.0133 41.5467 26.2666C41.6235 26.3331 41.6858 26.4148 41.7294 26.5066C41.773 26.5985 41.797 26.6983 41.8 26.7999C41.8 27.7866 41.8 28.7733 41.8 29.7599C41.8 29.8533 41.8 30.0133 41.8933 30.0399C41.9867 30.0666 42.4133 30.2799 42.6933 30.3999V21.6133H41.8V24.2799C41.8086 24.3666 41.7947 24.4541 41.7596 24.5338C41.7245 24.6136 41.6695 24.683 41.5998 24.7352C41.5301 24.7875 41.4481 24.8209 41.3617 24.8323C41.2753 24.8436 41.1875 24.8325 41.1067 24.7999C40.8533 24.7066 40.7867 24.4933 40.7867 24.2266C40.7867 22.8933 40.7867 21.4933 40.7867 20.1333V19.6933H19.6933V48.2933H40.76V46.0666H40.5867C39.4443 46.3132 38.2624 46.3132 37.12 46.0666C36.5551 45.8967 35.9743 45.785 35.3867 45.7333C31.28 45.7333 27.1733 45.7333 23.0533 45.7333C22.9427 45.7472 22.8307 45.7472 22.72 45.7333C22.6586 45.7282 22.5989 45.7111 22.5441 45.6829C22.4894 45.6546 22.4408 45.6159 22.4012 45.5688C22.3615 45.5217 22.3316 45.4672 22.3131 45.4085C22.2946 45.3497 22.2878 45.2879 22.2933 45.2266C22.2779 45.1102 22.3081 44.9924 22.3777 44.8979C22.4474 44.8034 22.5509 44.7396 22.6667 44.7199C22.7773 44.706 22.8893 44.706 23 44.7199H33.8667C33.4133 44.3066 33 43.9199 32.6 43.5199C32.5352 43.4385 32.4516 43.3741 32.3564 43.3323C32.2611 43.2905 32.1571 43.2725 32.0533 43.2799C31.5333 43.2799 31.0267 43.2799 30.5067 43.2799C30.4342 43.2918 30.3599 43.2878 30.2892 43.2681C30.2184 43.2485 30.1527 43.2136 30.0967 43.1661C30.0407 43.1185 29.9957 43.0593 29.9649 42.9927C29.9341 42.926 29.9181 42.8534 29.9181 42.7799C29.9181 42.7065 29.9341 42.6339 29.9649 42.5672C29.9957 42.5005 30.0407 42.4414 30.0967 42.3938C30.1527 42.3462 30.2184 42.3114 30.2892 42.2917C30.3599 42.2721 30.4342 42.2681 30.5067 42.2799H31.6267C31.4354 41.9354 31.2662 41.5792 31.12 41.2133C31.0133 40.8799 30.8267 40.8266 30.5067 40.8266C28 40.8266 25.5067 40.8266 23.0133 40.8266C22.9023 40.8333 22.791 40.8333 22.68 40.8266C22.5492 40.8284 22.423 40.7781 22.3292 40.6868C22.2354 40.5956 22.1818 40.4708 22.18 40.3399C22.1782 40.2091 22.2285 40.0829 22.3198 39.9891C22.411 39.8954 22.5358 39.8417 22.6667 39.8399C22.7858 39.8195 22.9075 39.8195 23.0267 39.8399H30.6667L30.44 38.4133H23.0533C22.8933 38.4133 22.6933 38.4133 22.6 38.4133C22.5067 38.4133 22.2933 38.0799 22.32 37.9199C22.3467 37.7599 22.5467 37.6133 22.7067 37.4933C22.8667 37.3733 22.92 37.4933 23.0267 37.4933H30.4533L30.6667 35.9199H22.76C22.6976 35.92 22.6358 35.9075 22.5783 35.8832C22.5208 35.8589 22.4687 35.8233 22.4252 35.7786C22.3817 35.7338 22.3476 35.6808 22.325 35.6226C22.3023 35.5645 22.2915 35.5023 22.2933 35.4399C22.2807 35.3225 22.3118 35.2046 22.3807 35.1086C22.4495 35.0127 22.5514 34.9455 22.6667 34.9199H23.04C25.4267 34.9199 27.8133 34.9199 30.2 34.9199C30.4257 34.9651 30.6601 34.9227 30.8557 34.8014C31.0513 34.68 31.1935 34.4889 31.2533 34.2666C31.5043 33.7127 31.8032 33.1818 32.1467 32.6799H23.04C22.9204 32.6937 22.7996 32.6937 22.68 32.6799C22.6202 32.6718 22.5626 32.6518 22.5106 32.6211C22.4587 32.5904 22.4133 32.5497 22.3773 32.5012C22.3413 32.4528 22.3153 32.3977 22.3009 32.3391C22.2865 32.2805 22.2839 32.2196 22.2933 32.1599C22.2931 32.0407 22.3386 31.9258 22.4205 31.839C22.5023 31.7522 22.6142 31.7001 22.7333 31.6933H32.8533C32.9859 31.7059 33.1194 31.6829 33.24 31.6266C33.88 31.1599 34.5067 30.6666 35.16 30.2133ZM40.3467 32.6533C39.2287 32.3163 38.031 32.3556 36.9375 32.7651C35.844 33.1746 34.9151 33.9316 34.2933 34.9199C33.618 35.9789 33.3299 37.2389 33.4779 38.4861C33.6259 39.7334 34.201 40.891 35.1054 41.7624C36.0099 42.6339 37.188 43.1656 38.4398 43.2672C39.6917 43.3688 40.9402 43.0341 41.9733 42.3199C42.9355 41.66 43.6547 40.7028 44.0208 39.595C44.3869 38.4872 44.3796 37.2899 44 36.1866C43.3333 36.3199 43.1067 36.1866 42.9067 35.5466C42.7847 35.0848 42.5409 34.6642 42.2008 34.3288C41.8608 33.9934 41.4368 33.7555 40.9733 33.6399C40.4 33.4533 40.28 33.2266 40.3467 32.6533ZM45.24 34.1599L44.7867 34.7066C44.7351 34.7835 44.7075 34.874 44.7075 34.9666C44.7075 35.0592 44.7351 35.1497 44.7867 35.2266C45.2612 36.2707 45.4389 37.4254 45.3001 38.5638C45.1613 39.7023 44.7115 40.7804 44 41.6799C43.3446 42.6212 42.4395 43.3608 41.3865 43.8154C40.3335 44.2701 39.1745 44.4217 38.04 44.2533C37.1293 44.1419 36.2528 43.8377 35.4689 43.3608C34.6851 42.8839 34.0119 42.2454 33.4944 41.4878C32.9769 40.7301 32.6268 39.8709 32.4676 38.9673C32.3085 38.0637 32.3438 37.1366 32.5712 36.2477C32.7987 35.3588 33.2131 34.5287 33.7868 33.8126C34.3605 33.0966 35.0802 32.5111 35.8981 32.0953C36.7159 31.6794 37.613 31.4427 38.5296 31.401C39.4462 31.3592 40.3611 31.5134 41.2133 31.8533C41.3339 31.8971 41.4661 31.8971 41.5867 31.8533C41.8491 31.6937 42.1028 31.5201 42.3467 31.3333C40.7788 30.4798 38.9548 30.2231 37.2122 30.6104C35.4697 30.9978 33.9263 32.0032 32.8677 33.4405C31.809 34.8778 31.3067 36.6499 31.4536 38.429C31.6005 40.2081 32.3867 41.8738 33.6668 43.118C34.9469 44.3622 36.6343 45.1007 38.4168 45.197C40.1994 45.2933 41.9564 44.7408 43.3631 43.6417C44.7698 42.5426 45.7308 40.9713 46.0685 39.2184C46.4062 37.4655 46.0977 35.6496 45.2 34.1066L45.24 34.1599ZM43.6533 31.1199C43.3154 31.9255 42.6804 32.57 41.88 32.9199C42.6793 33.2441 43.3171 33.8723 43.6533 34.6666C43.9952 33.8669 44.6295 33.2278 45.4267 32.8799C44.6289 32.5466 43.9927 31.9151 43.6533 31.1199ZM46.32 44.6666L45.1867 43.5333L44.4533 44.1999L45.6533 45.3999L46.32 44.6666Z" fill="#F2F2F2"/>
<path d="M47.5867 30.0266C47.5867 30.4266 47.6667 30.9066 47.08 30.9732C46.7467 30.9732 46.64 30.7999 46.5333 30.0266C46.16 30.0266 45.6 30.1333 45.6 29.4666C45.6 29.1333 45.8 29.0399 46.5467 28.9733C46.5467 28.5866 46.44 28.0533 47.0933 28.0399C47.4267 28.0399 47.52 28.2266 47.6 28.9733C47.9733 28.9733 48.5067 28.8799 48.52 29.5332C48.5333 29.8666 48.3467 29.9466 47.5867 30.0266Z" fill="#F2F2F2"/>
<path d="M27.5333 30.2266H23.0667C22.9337 30.2403 22.7996 30.2403 22.6667 30.2266C22.5595 30.2103 22.4622 30.155 22.3933 30.0713C22.3244 29.9877 22.2888 29.8815 22.2933 29.7732C22.2819 29.7136 22.2825 29.6523 22.2951 29.5929C22.3078 29.5335 22.3323 29.4773 22.3671 29.4276C22.4019 29.3778 22.4464 29.3356 22.4978 29.3033C22.5493 29.2711 22.6067 29.2495 22.6667 29.2399C22.7996 29.2262 22.9337 29.2262 23.0667 29.2399H32C32.52 29.2399 32.76 29.3999 32.76 29.7332C32.76 30.0666 32.52 30.2532 32.0133 30.2532L27.5333 30.2266Z" fill="#F2F2F2"/>
<path d="M30.2267 22.9067C31.6801 22.9067 33.1201 22.9067 34.5601 22.9067C34.7382 22.9018 34.9141 22.9481 35.0667 23.04C35.132 23.0984 35.1806 23.1732 35.2074 23.2566C35.2343 23.3401 35.2384 23.4291 35.2194 23.5147C35.2004 23.6002 35.1589 23.6791 35.0993 23.7433C35.0396 23.8076 34.964 23.8547 34.8801 23.88C34.7471 23.8933 34.6131 23.8933 34.4801 23.88H25.7867C25.4401 23.88 25.2267 23.68 25.2267 23.3867C25.2267 23.0933 25.4267 22.88 25.8001 22.88L30.2267 22.9067Z" fill="#F2F2F2"/>
<path d="M33.1466 27.7732H28.6533C28.5347 27.7538 28.4269 27.6928 28.3491 27.6012C28.2713 27.5096 28.2285 27.3934 28.2285 27.2732C28.2285 27.153 28.2713 27.0368 28.3491 26.9452C28.4269 26.8536 28.5347 26.7926 28.6533 26.7732H37.68C37.7986 26.7926 37.9064 26.8536 37.9842 26.9452C38.062 27.0368 38.1047 27.153 38.1047 27.2732C38.1047 27.3934 38.062 27.5096 37.9842 27.6012C37.9064 27.6928 37.7986 27.7538 37.68 27.7732H33.1466Z" fill="#F2F2F2"/>
<path d="M25.8134 42.2667H28.9334C29.0464 42.2858 29.1488 42.3446 29.2222 42.4327C29.2956 42.5207 29.335 42.6321 29.3334 42.7467C29.3417 42.8587 29.3081 42.9699 29.2392 43.0586C29.1702 43.1472 29.0707 43.2072 28.9601 43.2267C28.8493 43.2398 28.7375 43.2398 28.6267 43.2267H22.6667C22.6047 43.2235 22.544 43.2075 22.4884 43.1799C22.4328 43.1522 22.3834 43.1135 22.3434 43.066C22.3034 43.0184 22.2736 42.9632 22.2558 42.9037C22.238 42.8442 22.2327 42.7817 22.2401 42.72C22.2364 42.66 22.2451 42.5999 22.2656 42.5434C22.2861 42.4869 22.3179 42.4352 22.3591 42.3915C22.4003 42.3478 22.4501 42.313 22.5053 42.2892C22.5605 42.2654 22.62 42.2532 22.6801 42.2533C22.8665 42.2403 23.0536 42.2403 23.2401 42.2533L25.8134 42.2667Z" fill="#F2F2F2"/>
<path d="M24.8533 27.7732H22.88C22.5066 27.7732 22.2933 27.5866 22.2933 27.2799C22.2933 26.9732 22.5066 26.7599 22.8933 26.7599H26.8933C27.2666 26.7599 27.5066 26.9599 27.5066 27.2799C27.5066 27.5999 27.2666 27.7732 26.88 27.7732H24.8533Z" fill="#F2F2F2"/>
<path d="M38.8667 36.6265H41.7601C42.1601 36.6265 42.3867 36.7998 42.4001 37.1065C42.4134 37.4131 42.1734 37.6398 41.7601 37.6398H36.0001C35.6001 37.6398 35.3734 37.4398 35.3734 37.1331C35.3734 36.8265 35.5867 36.6265 36.0001 36.6265H38.8667Z" fill="#F2F2F2"/>
<path d="M38.88 38.5066H41.8C41.9158 38.4891 42.034 38.5112 42.1356 38.5693C42.2373 38.6273 42.3163 38.718 42.36 38.8266C42.3874 38.8882 42.401 38.9551 42.4 39.0225C42.399 39.09 42.3834 39.1564 42.3542 39.2172C42.3251 39.2781 42.2831 39.3319 42.2311 39.3749C42.1792 39.4179 42.1186 39.4492 42.0534 39.4666C41.9208 39.4867 41.7859 39.4867 41.6534 39.4666H35.88C35.5334 39.4666 35.3334 39.2532 35.3334 38.9599C35.3327 38.8891 35.3473 38.819 35.3762 38.7543C35.405 38.6897 35.4474 38.632 35.5006 38.5852C35.5537 38.5384 35.6163 38.5036 35.684 38.4831C35.7518 38.4626 35.8232 38.457 35.8934 38.4666L38.88 38.5066Z" fill="#F2F2F2"/>
<path d="M38.9067 34.7466H41.1467C41.5333 34.7466 41.7467 34.9332 41.7467 35.2399C41.7467 35.5466 41.5333 35.7599 41.1467 35.7599H36.5733C36.4979 35.7694 36.4213 35.7627 36.3487 35.7402C36.2761 35.7177 36.2092 35.6799 36.1523 35.6294C36.0955 35.5789 36.0502 35.5168 36.0193 35.4473C35.9884 35.3779 35.9727 35.3026 35.9733 35.2266C35.9733 34.9332 36.2 34.7599 36.5867 34.7466H38.9067Z" fill="#F2F2F2"/>
<path d="M38.8934 40.3866H40.3067C40.68 40.3866 40.9067 40.5866 40.9067 40.8799C40.9067 41.1733 40.68 41.3866 40.3067 41.3866H37.4267C37.0534 41.3866 36.8267 41.1733 36.8267 40.8799C36.8267 40.5866 37.0534 40.3866 37.4267 40.3866H38.8934Z" fill="#F2F2F2"/>
</svg>
