<svg width="1440" height="480" viewBox="0 0 1440 480" fill="none" xmlns="http://www.w3.org/2000/svg">
<g opacity="0.02">
<path d="M785.139 -278.484L900.435 -153.752C1039.19 -3.64552 1029.07 231.074 878.215 370.542L762.919 245.811C624.332 95.8829 634.107 -138.849 785.139 -278.484Z" fill="url(#paint0_linear_1047_4325)"/>
<path d="M835.667 395.942L720.371 271.21C581.619 121.104 346.852 112.793 196 252.262L311.296 376.993C449.883 526.921 684.815 535.411 835.667 395.942Z" fill="url(#paint1_linear_1047_4325)"/>
<path d="M946.19 -161.68L1053.65 -45.4265C1182.97 94.4773 1173.54 313.242 1032.94 443.231L925.48 326.978C796.313 187.241 805.424 -31.536 946.19 -161.68Z" fill="url(#paint2_linear_1047_4325)"/>
<path d="M993.284 466.904L885.824 350.651C756.503 210.747 537.694 203.001 397.095 332.99L504.555 449.244C633.722 588.981 852.685 596.893 993.284 466.904Z" fill="url(#paint3_linear_1047_4325)"/>
<path d="M1139.35 -2.97512L1230.39 95.5134C1339.94 214.038 1331.95 399.373 1212.84 509.499L1121.8 411.01C1012.37 292.626 1020.09 107.281 1139.35 -2.97512Z" fill="url(#paint4_linear_1047_4325)"/>
<path d="M1179.24 529.554L1088.21 431.065C978.646 312.541 793.274 305.978 674.16 416.104L765.199 514.592C874.628 632.976 1060.13 639.679 1179.24 529.554Z" fill="url(#paint5_linear_1047_4325)"/>
<path d="M1331.54 107.818L1408.16 190.703C1500.36 290.451 1493.64 446.424 1393.39 539.103L1316.78 456.217C1224.68 356.589 1231.18 200.607 1331.54 107.818Z" fill="url(#paint6_linear_1047_4325)"/>
<path d="M1365.12 555.981L1288.5 473.095C1196.3 373.348 1040.3 367.825 940.053 460.504L1016.67 543.389C1108.76 643.018 1264.88 648.659 1365.12 555.981Z" fill="url(#paint7_linear_1047_4325)"/>
</g>
<defs>
<linearGradient id="paint0_linear_1047_4325" x1="715.458" y1="-77.6722" x2="941.215" y2="250.212" gradientUnits="userSpaceOnUse">
<stop stop-color="white"/>
<stop offset="1" stop-color="white" stop-opacity="0"/>
</linearGradient>
<linearGradient id="paint1_linear_1047_4325" x1="715.458" y1="-77.6722" x2="941.215" y2="250.212" gradientUnits="userSpaceOnUse">
<stop stop-color="white"/>
<stop offset="1" stop-color="white" stop-opacity="0"/>
</linearGradient>
<linearGradient id="paint2_linear_1047_4325" x1="881.245" y1="25.4823" x2="1091.66" y2="331.08" gradientUnits="userSpaceOnUse">
<stop stop-color="white"/>
<stop offset="1" stop-color="white" stop-opacity="0"/>
</linearGradient>
<linearGradient id="paint3_linear_1047_4325" x1="881.245" y1="25.4823" x2="1091.66" y2="331.08" gradientUnits="userSpaceOnUse">
<stop stop-color="white"/>
<stop offset="1" stop-color="white" stop-opacity="0"/>
</linearGradient>
<linearGradient id="paint4_linear_1047_4325" x1="1084.33" y1="155.586" x2="1262.59" y2="414.485" gradientUnits="userSpaceOnUse">
<stop stop-color="white"/>
<stop offset="1" stop-color="white" stop-opacity="0"/>
</linearGradient>
<linearGradient id="paint5_linear_1047_4325" x1="1084.33" y1="155.586" x2="1262.59" y2="414.485" gradientUnits="userSpaceOnUse">
<stop stop-color="white"/>
<stop offset="1" stop-color="white" stop-opacity="0"/>
</linearGradient>
<linearGradient id="paint6_linear_1047_4325" x1="1285.24" y1="241.259" x2="1435.26" y2="459.142" gradientUnits="userSpaceOnUse">
<stop stop-color="white"/>
<stop offset="1" stop-color="white" stop-opacity="0"/>
</linearGradient>
<linearGradient id="paint7_linear_1047_4325" x1="1285.24" y1="241.259" x2="1435.26" y2="459.142" gradientUnits="userSpaceOnUse">
<stop stop-color="white"/>
<stop offset="1" stop-color="white" stop-opacity="0"/>
</linearGradient>
</defs>
</svg>
