<svg width="1440" height="692" viewBox="0 0 1440 692" fill="none" xmlns="http://www.w3.org/2000/svg">
  <g opacity="0.15" clip-path="url(#clip0_1186_51828)">
  <path d="M160.727 450.027V547.029C160.727 663.765 66.0924 758.265 -50.499 758.265V661.263C-50.499 544.667 43.997 450.027 160.727 450.027Z" fill="#022D2B"/>
  <path d="M1446.3 450.027V547.029C1446.3 663.765 1351.66 758.265 1235.07 758.265V661.263C1235.07 544.667 1329.57 450.027 1446.3 450.027Z" fill="#022D2B"/>
  <path d="M1207.55 752.419V655.418C1207.55 538.682 1112.92 444.182 996.328 444.182V541.183C996.328 657.78 1090.96 752.419 1207.55 752.419Z" fill="#022D2B"/>
  <path d="M803.512 450.027V547.029C803.512 663.765 708.877 758.265 592.285 758.265V661.263C592.146 544.667 686.781 450.027 803.512 450.027Z" fill="#022D2B"/>
  <path d="M564.77 752.419V655.418C564.77 538.682 470.135 444.182 353.544 444.182V541.183C353.405 657.78 448.04 752.419 564.77 752.419Z" fill="#022D2B"/>
  <path d="M1078.38 -173.676V-76.674C1078.38 40.0617 983.746 134.562 867.154 134.562V37.5602C867.154 -79.0365 961.65 -173.676 1078.38 -173.676Z" fill="#022D2B"/>
  <path d="M706.928 375.806H1021.68H1171.49C1171.49 259.071 1076.85 164.57 960.261 164.57H900.089H828.522H628.552V375.806H706.928Z" fill="#022D2B"/>
  <path d="M839.639 128.718V31.7165C839.639 -85.0192 745.004 -179.52 628.412 -179.52V-82.5178C628.412 34.079 723.047 128.718 839.639 128.718Z" fill="#022D2B"/>
  <path d="M435.6 -173.676V-76.674C435.6 40.0617 340.965 134.562 224.373 134.562V37.5602C224.234 -79.0365 318.869 -173.676 435.6 -173.676Z" fill="#022D2B"/>
  <path d="M64.1433 375.806H378.898H528.702C528.702 259.071 434.067 164.57 317.476 164.57H257.304H185.876H-14.0938V375.806H64.1433Z" fill="#022D2B"/>
  <path d="M196.856 128.718V31.7165C196.856 -85.0192 102.221 -179.52 -14.37 -179.52V-82.5178C-14.5089 34.079 80.126 128.718 196.856 128.718Z" fill="#022D2B"/>
  <path d="M1349.71 375.806H1664.47H1814.27C1814.27 259.071 1719.63 164.57 1603.04 164.57H1542.87H1471.44H1271.47V375.806H1349.71Z" fill="#022D2B"/>
  <path d="M1482.42 128.718V31.7165C1482.42 -85.0192 1387.79 -179.52 1271.2 -179.52V-82.5178C1271.06 34.079 1365.69 128.718 1482.42 128.718Z" fill="#022D2B"/>
  </g>
  <defs>
  <clipPath id="clip0_1186_51828">
  <rect width="1440" height="811" fill="white"/>
  </clipPath>
  </defs>
  </svg>
  