<svg width="1440" height="400" viewBox="0 0 1440 400" fill="none" xmlns="http://www.w3.org/2000/svg">
    <g opacity="0.4">
        <path d="M1171.65 323.985H1145.7V338.522H1171.65V323.985Z" fill="#258B23" />
        <path d="M1171.65 323.985H1155.59V338.522H1171.65V323.985Z" fill="#31B92E" />
        <path fill-rule="evenodd" clip-rule="evenodd"
            d="M1160.24 324.746H1162.1V337.79H1160.24V324.746ZM1157.14 324.746H1159V337.79H1157.14V324.746ZM1163.08 324.746H1164.97V337.79H1163.08V324.746ZM1165.96 324.746H1167.73V337.79H1165.96V324.746ZM1168.72 324.746H1170.58V337.79H1168.72V324.746Z"
            fill="#5AC758" />
        <path d="M1150.63 323.985H1150.29V338.522H1150.63V323.985Z" fill="#31B92E" />
        <path d="M1151.25 323.985H1125.3V338.522H1151.25V323.985Z" fill="#FFC833" />
        <path d="M1151.28 323.985H1135.22V338.522H1151.28V323.985Z" fill="#FFBA00" />
        <path fill-rule="evenodd" clip-rule="evenodd"
            d="M1139.84 324.746H1141.7V337.79H1139.84V324.746ZM1136.74 324.746H1138.6V337.79H1136.74V324.746ZM1142.69 324.746H1144.58V337.79H1142.69V324.746ZM1145.56 324.746H1147.34V337.79H1145.56V324.746ZM1148.32 324.746H1150.18V337.79H1148.32V324.746Z"
            fill="#FFC833" />
        <path d="M1130.26 323.985H1129.92V338.522H1130.26V323.985Z" fill="#FFE399" />
        <path d="M1118.35 336.663H1092.4V351.201H1118.35V336.663Z" fill="#258B23" />
        <path d="M1118.34 336.663H1102.29V351.201H1118.34V336.663Z" fill="#31B92E" />
        <path fill-rule="evenodd" clip-rule="evenodd"
            d="M1106.94 337.396H1108.79V350.44H1106.94V337.396ZM1103.81 337.396H1105.67V350.44H1103.81V337.396ZM1109.78 337.396H1111.67V350.44H1109.78V337.396ZM1112.63 337.396H1114.4V350.44H1112.63V337.396ZM1115.42 337.396H1117.27V350.44H1115.42V337.396Z"
            fill="#5AC758" />
        <path d="M1097.33 336.663H1096.99V351.201H1097.33V336.663Z" fill="#31B92E" />
        <path d="M1049.12 320.942H1038.72V344.467H1049.12V320.942Z" fill="#258B23" />
        <path d="M1038.72 320.942H1023.48V344.467H1038.72V320.942Z" fill="#35C731" />
        <path d="M1053.8 328.041H1040.58V351.567H1053.8V328.041Z" fill="#258B23" />
        <path d="M1041.04 328.041H1018.78V351.567H1041.04V328.041Z" fill="#36CC33" />
        <path d="M1036.81 331.254H1022.1V331.733H1036.81V331.254Z" fill="#258B23" />
        <path d="M1022.58 345.961V331.254H1022.1V345.961H1022.58Z" fill="#258B23" />
        <path
            d="M1180.75 338.325V343.143C1180.75 348.045 1179.26 352.694 1176.67 356.582C1174.07 360.47 1170.33 363.626 1165.79 365.485C1162.75 366.753 1160.8 369.373 1160.27 372.275C1160.16 372.839 1160.13 373.402 1160.13 373.966C1160.13 376.022 1160.8 378.079 1162.27 379.826H1033.77C1026.81 379.826 1020.52 376.924 1016.04 372.275C1011.79 367.88 1009.2 361.907 1009.2 355.314V351.088L1108.15 351.285C1115.08 351.285 1120.71 345.679 1120.71 338.748V338.297L1180.75 338.325Z"
            fill="#004C46" />
        <path d="M1042.89 340.917H1009.2V354.835H1042.89V340.917Z" fill="#004C46" />
        <path d="M1027.74 323.309H1025.12V325.929H1027.74V323.309Z" fill="#00FFDE" />
        <path d="M1031.96 323.309H1029.34V325.929H1031.96V323.309Z" fill="#00FFDE" />
        <path d="M1036.16 323.309H1033.54V325.929H1036.16V323.309Z" fill="#00FFDE" />
        <path d="M1042.75 323.309H1040.13V325.929H1042.75V323.309Z" fill="#00FFDE" />
        <path d="M1046.95 323.309H1044.33V325.929H1046.95V323.309Z" fill="#00FFDE" />
        <path d="M1033.54 315.589H1032.92V320.942H1033.54V315.589Z" fill="#004C46" />
        <path d="M1033.88 315.589H1033.26V320.942H1033.88V315.589Z" fill="#022D2B" />
        <path
            d="M1033.4 316.293C1033.96 316.293 1034.44 315.842 1034.44 315.251C1034.44 314.687 1033.99 314.208 1033.4 314.208C1032.84 314.208 1032.36 314.659 1032.36 315.251C1032.36 315.842 1032.81 316.293 1033.4 316.293Z"
            fill="#FFBA00" />
        <path d="M1096.28 336.663H1070.34V351.201H1096.28V336.663Z" fill="#FFC833" />
        <path d="M1096.31 336.663H1080.25V351.201H1096.31V336.663Z" fill="#FFBA00" />
        <path fill-rule="evenodd" clip-rule="evenodd"
            d="M1084.87 337.396H1086.73V350.44H1084.87V337.396ZM1081.78 337.396H1083.63V350.44H1081.78V337.396ZM1087.72 337.396H1089.61V350.44H1087.72V337.396ZM1090.59 337.396H1092.37V350.44H1090.59V337.396ZM1093.35 337.396H1095.21V350.44H1093.35V337.396Z"
            fill="#FFC833" />
        <path d="M1075.27 336.663H1074.93V351.201H1075.27V336.663Z" fill="#FFE399" />
        <path d="M1107.24 322.125H1081.3V336.663H1107.24V322.125Z" fill="#022D2B" />
        <path d="M1107.24 322.125H1091.18V336.663H1107.24V322.125Z" fill="#004C46" />
        <path fill-rule="evenodd" clip-rule="evenodd"
            d="M1095.83 322.886H1097.69V335.931H1095.83V322.886ZM1092.74 322.886H1094.59V335.931H1092.74V322.886ZM1098.68 322.886H1100.57V335.931H1098.68V322.886ZM1101.55 322.886H1103.33V335.931H1101.55V322.886ZM1104.31 322.886H1106.17V335.931H1104.31V322.886Z"
            fill="#022D2B" />
        <path d="M1086.23 322.125H1085.89V336.663H1086.23V322.125Z" fill="#004C46" />
        <path d="M1087.61 329.084H1086.79V329.225H1087.61V329.084Z" fill="#004C46" />
        <path fill-rule="evenodd" clip-rule="evenodd"
            d="M1162.24 379.882H1033.74C1026.78 379.882 1020.5 376.98 1016.02 372.331H1160.27C1160.15 372.895 1160.13 373.458 1160.13 374.022C1160.13 376.05 1160.8 378.135 1162.24 379.882Z"
            fill="#022D2B" />
        <path
            d="M1177.21 387.613H1098.83C1100.8 386.965 1102.39 385.051 1103.69 383.284C1105.28 381.076 1107.22 378.632 1109.93 378.515C1111.75 378.426 1113.43 379.427 1114.82 380.635C1116.2 381.842 1117.44 383.196 1119 384.138C1121.68 385.699 1125.21 385.699 1127.83 384.079C1130.57 382.431 1132.39 379.221 1135.51 378.426C1137.96 377.808 1140.55 378.927 1142.61 380.399C1145.05 382.136 1147.44 384.521 1150.44 384.433C1152.89 384.374 1154.92 382.607 1156.86 381.047C1158.74 379.486 1161.04 377.926 1163.49 378.338C1165.78 378.721 1167.4 380.723 1169.11 382.372C1171.32 384.492 1173.97 386.111 1176.85 387.112C1176.94 387.465 1177.15 387.259 1177.21 387.613Z"
            fill="#00FFDE" />
        <path
            d="M1162.71 382.495H1084.33C1086.3 381.847 1087.89 379.934 1089.19 378.167C1090.78 375.959 1092.72 373.515 1095.43 373.397C1097.25 373.309 1098.93 374.31 1100.32 375.517C1101.7 376.724 1102.94 378.079 1104.5 379.021C1107.18 380.581 1110.71 380.581 1113.33 378.962C1116.07 377.313 1117.89 374.104 1121.01 373.309C1123.46 372.691 1126.05 373.809 1128.11 375.282C1130.55 377.019 1132.94 379.404 1135.94 379.315C1138.39 379.256 1140.42 377.49 1142.36 375.929C1144.25 374.369 1146.54 372.808 1148.99 373.22C1151.28 373.603 1152.9 375.605 1154.61 377.254C1156.82 379.374 1159.47 380.994 1162.35 381.995C1162.44 382.348 1162.65 382.142 1162.71 382.495Z"
            fill="#00FFDE" />
        <path
            d="M1059.3 388.682H993.528C995.206 388.123 996.531 386.533 997.591 385.031C998.945 383.206 1000.56 381.115 1002.83 381.027C1004.36 380.938 1005.78 381.792 1006.92 382.793C1008.1 383.765 1009.13 384.972 1010.43 385.738C1012.67 387.063 1015.64 387.033 1017.85 385.708C1020.14 384.324 1021.68 381.645 1024.3 380.997C1026.36 380.497 1028.51 381.41 1030.24 382.646C1032.3 384.089 1034.31 386.121 1036.81 386.062C1038.87 386.003 1040.58 384.56 1042.17 383.235C1043.76 381.94 1045.67 380.615 1047.73 380.939C1049.68 381.262 1051.03 382.941 1052.44 384.324C1054.3 386.091 1056.54 387.475 1058.95 388.299C1059.04 388.564 1059.25 388.417 1059.3 388.682Z"
            fill="#00FFDE" />
        <path
            d="M1021.78 383.442H956C957.678 382.882 959.003 381.292 960.063 379.791C961.418 377.965 963.037 375.875 965.304 375.787C966.835 375.698 968.248 376.552 969.397 377.553C970.574 378.525 971.605 379.732 972.9 380.497C975.138 381.822 978.112 381.793 980.32 380.468C982.617 379.084 984.148 376.405 986.768 375.757C988.829 375.257 990.978 376.169 992.716 377.406C994.777 378.849 996.779 380.88 999.281 380.821C1001.34 380.762 1003.05 379.32 1004.64 377.995C1006.23 376.699 1008.14 375.374 1010.2 375.698C1012.15 376.022 1013.5 377.7 1014.92 379.084C1016.77 380.851 1019.01 382.235 1021.42 383.059C1021.51 383.324 1021.72 383.177 1021.78 383.442Z"
            fill="#00FFDE" />
        <path
            d="M1077.62 380.982H1011.84C1013.52 380.422 1014.84 378.833 1015.9 377.331C1017.26 375.505 1018.88 373.415 1021.14 373.327C1022.67 373.238 1024.09 374.092 1025.24 375.093C1026.41 376.065 1027.44 377.272 1028.74 378.038C1030.98 379.362 1033.95 379.333 1036.16 378.008C1038.46 376.624 1039.99 373.945 1042.61 373.297C1044.67 372.797 1046.82 373.709 1048.56 374.946C1050.62 376.389 1052.62 378.42 1055.12 378.361C1057.18 378.303 1058.89 376.86 1060.48 375.535C1062.07 374.239 1063.98 372.914 1066.04 373.238C1067.99 373.562 1069.34 375.24 1070.76 376.624C1072.61 378.391 1074.85 379.775 1077.26 380.599C1077.35 380.864 1077.56 380.717 1077.62 380.982Z"
            fill="#00FFDE" />
        <path
            d="M1096.34 385.145H1030.57C1032.25 384.585 1033.57 382.995 1034.63 381.494C1035.98 379.668 1037.6 377.578 1039.87 377.489C1041.4 377.401 1042.82 378.255 1043.96 379.256C1045.14 380.228 1046.17 381.435 1047.47 382.2C1049.7 383.525 1052.68 383.496 1054.89 382.171C1057.18 380.787 1058.71 378.108 1061.34 377.46C1063.4 376.96 1065.55 377.872 1067.28 379.109C1069.34 380.552 1071.35 382.583 1073.85 382.524C1075.91 382.465 1077.62 381.023 1079.21 379.698C1080.8 378.402 1082.71 377.077 1084.77 377.401C1086.72 377.725 1088.07 379.403 1089.48 380.787C1091.34 382.554 1093.58 383.938 1095.99 384.762C1096.08 385.027 1096.28 384.88 1096.34 385.145Z"
            fill="#00FFDE" />
        <path d="M1204.74 340.245H1478.11V386.385H1226.37L1204.74 396.514V340.245Z" fill="#000E0D" />
        <path d="M1378.25 312.697H1467.46V362.754H1378.25V312.697Z" fill="#022D2B" />
        <path d="M1378.25 312.697H1422.85V362.754H1378.25V312.697Z" fill="#004C46" />
        <path fill-rule="evenodd" clip-rule="evenodd"
            d="M1417.52 312.697H1411.08V362.754H1417.52V312.697ZM1407.74 312.697H1401.21V362.754H1407.74V312.697ZM1397.86 312.697H1391.71V362.754H1397.86V312.697ZM1388.37 312.697H1382.05V362.754H1388.37V312.697Z"
            fill="#003935" />
        <path fill-rule="evenodd" clip-rule="evenodd"
            d="M1462.58 312.697H1456.14V362.754H1462.58V312.697ZM1452.79 312.697H1446.31V362.754H1452.79V312.697ZM1442.92 312.697H1436.77V362.754H1442.92V312.697ZM1433.47 312.697H1427.15V362.754H1433.47V312.697Z"
            fill="#001D1B" />
        <path d="M1312 318.438H1401.21V368.495H1312V318.438Z" fill="#258B23" />
        <path d="M1312 318.438H1356.6V368.495H1312V318.438Z" fill="#36CC33" />
        <path fill-rule="evenodd" clip-rule="evenodd"
            d="M1351.19 318.438H1344.75V368.495H1351.19V318.438ZM1341.41 318.438H1334.88V368.495H1341.41V318.438ZM1331.62 318.438H1325.46V368.495H1331.62V318.438ZM1322.08 318.438H1315.76V368.495H1322.08V318.438Z"
            fill="#195D17" />
        <path fill-rule="evenodd" clip-rule="evenodd"
            d="M1396.34 318.438H1389.89V368.495H1396.34V318.438ZM1386.55 318.438H1380.02V368.495H1386.55V318.438ZM1376.68 318.438H1370.52V368.495H1376.68V318.438ZM1367.18 318.438H1360.86V368.495H1367.18V318.438Z"
            fill="#5AC758" />
        <path fill-rule="evenodd" clip-rule="evenodd"
            d="M1305.27 254.297L1218.74 222.165L1218.37 222L1218.04 222.207L1155.39 255.454L1156.25 257.106L1218.53 224.065L1304.61 256.073L1305.27 254.297Z"
            fill="#022D2B" />
        <path d="M1181.57 257.105H1183.18V312.49H1181.57V257.105Z" fill="#022D2B" />
        <path d="M1159.39 257.105H1161V312.49H1159.39V257.105Z" fill="#022D2B" />
        <path d="M1242.57 260.947H1247.28V351.934H1242.57V260.947Z" fill="#022D2B" />
        <path fill-rule="evenodd" clip-rule="evenodd"
            d="M1267.85 353.131V260.947H1266.15V352.223H1252.61V260.947H1250.91V353.131V354.04H1251.78H1266.98H1267.85V353.131Z"
            fill="#022D2B" />
        <path fill-rule="evenodd" clip-rule="evenodd"
            d="M1260.17 278.665L1267.44 260.947H1265.58L1259.38 276.022L1253.19 260.947H1251.33L1258.6 278.665L1259.38 280.524L1260.17 278.665Z"
            fill="#022D2B" />
        <path fill-rule="evenodd" clip-rule="evenodd"
            d="M1260.17 315.588L1267.77 297.168L1267.93 296.796L1267.77 296.425L1260.12 277.963L1259.34 276.104L1258.56 277.963L1250.91 296.425L1250.75 296.796L1250.91 297.168L1258.56 315.63L1259.34 317.488L1260.17 315.588ZM1266.07 296.755L1259.38 312.986L1252.69 296.755L1259.38 280.524L1266.07 296.755Z"
            fill="#022D2B" />
        <path fill-rule="evenodd" clip-rule="evenodd"
            d="M1260.17 352.511L1267.77 334.05L1267.93 333.678L1267.77 333.306L1260.12 314.845L1259.34 312.986L1258.56 314.845L1250.91 333.306L1250.75 333.678L1250.91 334.05L1258.6 352.511L1259.38 354.37L1260.17 352.511ZM1266.07 333.678L1259.38 349.909L1252.69 333.678L1259.38 317.488L1266.07 333.678Z"
            fill="#022D2B" />
        <path d="M1251.78 295.847H1266.98V297.705H1251.78V295.847Z" fill="#022D2B" />
        <path d="M1251.78 332.77H1266.98V334.628H1251.78V332.77Z" fill="#022D2B" />
        <path d="M1251.78 276.89H1266.98V278.748H1251.78V276.89Z" fill="#022D2B" />
        <path d="M1251.78 315.01H1266.98V316.868H1251.78V315.01Z" fill="#022D2B" />
        <path fill-rule="evenodd" clip-rule="evenodd"
            d="M1250.91 260.947V353.131V354.039H1251.78H1259.42V352.181H1252.61V260.905H1250.91V260.947Z"
            fill="#022D2B" />
        <path fill-rule="evenodd" clip-rule="evenodd"
            d="M1251.37 260.947L1258.64 278.665L1259.42 280.524V276.063L1253.23 260.989H1251.37V260.947Z"
            fill="#022D2B" />
        <path fill-rule="evenodd" clip-rule="evenodd"
            d="M1259.42 276.022L1258.64 277.881L1251 296.343L1250.83 296.714L1251 297.086L1258.64 315.506L1259.42 317.406V312.904L1252.73 296.714L1259.42 280.483V276.022Z"
            fill="#022D2B" />
        <path fill-rule="evenodd" clip-rule="evenodd"
            d="M1259.42 312.945L1258.64 314.845L1251 333.265L1250.83 333.637L1251 334.009L1258.64 352.512L1259.42 354.37V349.91L1252.73 333.678L1259.42 317.488V312.945Z"
            fill="#022D2B" />
        <path d="M1251.78 295.847H1259.42V297.705H1251.78V295.847Z" fill="#022D2B" />
        <path d="M1251.78 332.77H1259.42V334.628H1251.78V332.77Z" fill="#022D2B" />
        <path d="M1251.78 276.89H1259.42V278.748H1251.78V276.89Z" fill="#022D2B" />
        <path d="M1251.78 315.01H1259.42V316.868H1251.78V315.01Z" fill="#022D2B" />
        <path d="M1147.21 254.091H1306.05V263.383H1147.21V254.091Z" fill="#004C46" />
        <path d="M1214.98 223.28H1222.71V354.164H1214.98V223.28Z" fill="#022D2B" />
        <path fill-rule="evenodd" clip-rule="evenodd"
            d="M1275.53 351.975H1236.83C1235.84 351.975 1234.97 352.842 1234.97 353.833V359.739C1234.97 360.73 1235.84 361.598 1236.83 361.598H1275.53C1276.52 361.598 1277.39 360.73 1277.39 359.739V353.833C1277.39 352.801 1276.6 351.975 1275.53 351.975Z"
            fill="#004C46" />
        <path fill-rule="evenodd" clip-rule="evenodd"
            d="M1227.75 351.975H1211.72C1210.73 351.975 1209.86 352.842 1209.86 353.833V359.739C1209.86 360.73 1210.73 361.598 1211.72 361.598H1227.75C1228.74 361.598 1229.6 360.73 1229.6 359.739V353.833C1229.6 352.801 1228.74 351.975 1227.75 351.975Z"
            fill="#004C46" />
        <path d="M1145.35 304.106H1196.4V332.769H1145.35V304.106Z" fill="#258B23" />
        <path d="M1145.31 304.106H1170.83V332.769H1145.31V304.106Z" fill="#36CC33" />
        <path fill-rule="evenodd" clip-rule="evenodd"
            d="M1167.78 304.106H1164.06V332.769H1167.78V304.106ZM1162.2 304.106H1158.48V332.769H1162.2V304.106ZM1156.54 304.106H1153.03V332.769H1156.54V304.106ZM1151.09 304.106H1147.46V332.769H1151.09V304.106Z"
            fill="#195D17" />
        <path fill-rule="evenodd" clip-rule="evenodd"
            d="M1193.59 304.106H1189.87V332.769H1193.59V304.106ZM1187.97 304.106H1184.25V332.769H1187.97V304.106ZM1182.35 304.106H1178.84V332.769H1182.35V304.106ZM1176.9 304.106H1173.27V332.769H1176.9V304.106Z"
            fill="#5AC758" />
        <path
            d="M1327.01 382.287H1474.96C1471.24 381.048 1468.22 377.455 1465.79 374.109C1462.77 369.938 1459.14 365.354 1454.02 365.064C1450.59 364.899 1447.41 366.799 1444.76 369.029C1442.16 371.26 1439.85 373.903 1436.88 375.638C1431.84 378.611 1425.15 378.57 1420.19 375.514C1415.03 372.375 1411.56 366.345 1405.69 364.858C1401.07 363.701 1396.24 365.767 1392.31 368.575C1387.69 371.838 1383.18 376.381 1377.53 376.216C1372.9 376.092 1369.06 372.788 1365.42 369.855C1361.83 366.882 1357.54 363.949 1352.95 364.734C1348.61 365.477 1345.56 369.236 1342.34 372.333C1338.17 376.34 1333.17 379.396 1327.72 381.296C1327.59 381.998 1327.14 381.626 1327.01 382.287Z"
            fill="#00FFDE" />
        <path
            d="M1212.72 389.11H1360.67C1356.95 387.871 1353.93 384.278 1351.5 380.933C1348.48 376.761 1344.85 372.177 1339.73 371.888C1336.3 371.722 1333.12 373.622 1330.47 375.853C1327.87 378.083 1325.56 380.726 1322.59 382.461C1317.55 385.434 1310.86 385.393 1305.9 382.337C1300.74 379.198 1297.27 373.168 1291.4 371.681C1286.78 370.525 1281.95 372.59 1278.02 375.398C1273.4 378.661 1268.89 383.204 1263.24 383.039C1258.61 382.915 1254.77 379.611 1251.14 376.679C1247.54 373.705 1243.25 370.773 1238.66 371.557C1234.33 372.301 1231.27 376.059 1228.05 379.157C1223.88 383.163 1218.88 386.219 1213.43 388.119C1213.3 388.821 1212.85 388.449 1212.72 389.11Z"
            fill="#00FFDE" />
        <path
            d="M1341.51 389.11H1489.45C1485.74 387.871 1482.72 384.278 1480.29 380.933C1477.27 376.761 1473.64 372.177 1468.51 371.888C1465.09 371.722 1461.91 373.622 1459.26 375.853C1456.66 378.083 1454.35 380.726 1451.37 382.461C1446.34 385.434 1439.65 385.393 1434.69 382.337C1429.53 379.198 1426.06 373.168 1420.19 371.681C1415.57 370.525 1410.73 372.59 1406.81 375.398C1402.19 378.661 1397.68 383.204 1392.03 383.039C1387.4 382.915 1383.56 379.611 1379.92 376.679C1376.33 373.705 1372.04 370.773 1367.45 371.557C1363.11 372.301 1360.06 376.059 1356.84 379.157C1352.67 383.163 1347.67 386.219 1342.22 388.119C1342.09 388.821 1341.64 388.449 1341.51 389.11Z"
            fill="#00FFDE" />
        <path
            d="M1098.44 395.933H1246.38C1242.66 394.694 1239.64 391.101 1237.21 387.756C1234.19 383.584 1230.56 379 1225.44 378.711C1222.01 378.546 1218.83 380.446 1216.18 382.676C1213.58 384.906 1211.27 387.549 1208.3 389.284C1203.26 392.258 1196.57 392.216 1191.61 389.16C1186.45 386.021 1182.98 379.991 1177.11 378.504C1172.49 377.348 1167.66 379.413 1163.73 382.222C1159.11 385.484 1154.6 390.027 1148.95 389.862C1144.32 389.738 1140.48 386.434 1136.85 383.502C1133.25 380.528 1128.96 377.596 1124.37 378.38C1120.04 379.124 1116.98 382.882 1113.76 385.98C1109.59 389.986 1104.59 393.042 1099.14 394.942C1099.01 395.644 1098.56 395.273 1098.44 395.933Z"
            fill="#00FFDE" />
        <path
            d="M1148.76 400.198H1296.7C1292.98 398.959 1289.97 395.366 1287.53 392.02C1284.51 387.849 1280.88 383.264 1275.76 382.975C1272.33 382.81 1269.15 384.71 1266.51 386.94C1263.9 389.17 1261.59 391.814 1258.62 393.548C1253.58 396.522 1246.89 396.481 1241.93 393.425C1236.77 390.286 1233.3 384.256 1227.44 382.769C1222.81 381.612 1217.98 383.677 1214.05 386.486C1209.43 389.749 1204.93 394.292 1199.27 394.127C1194.64 394.003 1190.8 390.699 1187.17 387.766C1183.57 384.793 1179.28 381.86 1174.69 382.645C1170.36 383.388 1167.3 387.147 1164.08 390.244C1159.91 394.251 1154.91 397.307 1149.46 399.207C1149.34 399.95 1148.92 399.537 1148.76 400.198Z"
            fill="#00FFDE" />
        <path
            d="M1234.9 400.198H1382.84C1379.12 398.959 1376.11 395.366 1373.67 392.02C1370.66 387.849 1367.02 383.264 1361.9 382.975C1358.47 382.81 1355.29 384.71 1352.65 386.94C1350.05 389.17 1347.74 391.814 1344.76 393.548C1339.72 396.522 1333.03 396.481 1328.08 393.425C1322.91 390.286 1319.44 384.256 1313.58 382.769C1308.95 381.612 1304.12 383.677 1300.2 386.486C1295.57 389.749 1291.07 394.292 1285.41 394.127C1280.79 394.003 1276.95 390.699 1273.31 387.766C1269.72 384.793 1265.42 381.86 1260.84 382.645C1256.5 383.388 1253.44 387.147 1250.22 390.244C1246.05 394.251 1241.05 397.307 1235.6 399.207C1235.48 399.95 1235.07 399.537 1234.9 400.198Z"
            fill="#00FFDE" />
        <path
            d="M1334.69 395.933H1482.63C1478.91 394.694 1475.9 391.101 1473.46 387.756C1470.45 383.584 1466.81 379 1461.69 378.711C1458.26 378.546 1455.08 380.446 1452.44 382.676C1449.84 384.906 1447.53 387.549 1444.55 389.284C1439.51 392.258 1432.82 392.216 1427.87 389.16C1422.7 386.021 1419.23 379.991 1413.37 378.504C1408.74 377.348 1403.91 379.413 1399.99 382.222C1395.36 385.484 1390.86 390.027 1385.2 389.862C1380.58 389.738 1376.74 386.434 1373.1 383.502C1369.51 380.528 1365.21 377.596 1360.63 378.381C1356.29 379.124 1353.23 382.882 1350.01 385.98C1345.84 389.986 1340.84 393.042 1335.39 394.942C1335.27 395.686 1334.86 395.273 1334.69 395.933Z"
            fill="#00FFDE" />
        <path d="M27.835 288.607H4.97217V300.244H27.835V288.607Z" fill="#31B92E" />
        <path d="M27.8357 288.607H16.4043V300.244H27.7844V288.607H27.8357Z" fill="#31B92E" />
        <path
            d="M455 404.768H283.632L295.73 375.139C300.651 363.041 314.696 354.89 330.485 354.89H401.483C416.554 354.89 430.241 361.913 436.546 372.935L455 404.768Z"
            fill="#BD6B06" />
        <path
            d="M447.209 404.767H290.604L299.472 381.905C304.188 369.807 317.516 361.656 332.587 361.656H400.099C414.452 361.656 427.422 368.679 433.47 379.7L447.209 404.767Z"
            fill="#8E5005" />
        <path
            d="M439.673 404.768H296.192L301.574 390.312C306.085 378.214 319.003 370.063 333.51 370.063H398.613C412.402 370.063 424.961 377.086 430.805 388.108L439.673 404.768Z"
            fill="#BD6B06" />
        <path
            d="M430.908 404.767H302.087L304.445 398.155C308.751 386.057 320.848 377.906 334.587 377.906H396.101C409.121 377.906 421.014 384.929 426.499 395.95L430.908 404.767Z"
            fill="#8E5005" />
        <path
            d="M230.832 221.763C233.703 221.763 236.061 219.405 236.061 216.534C236.061 213.664 233.703 211.306 230.832 211.306C227.961 211.306 225.603 213.664 225.603 216.534C225.603 219.405 227.91 221.763 230.832 221.763Z"
            fill="#00FFDE" />
        <path
            d="M225.604 211.356C227.347 211.356 228.782 209.921 228.782 208.178C228.782 206.435 227.347 205 225.604 205C223.861 205 222.426 206.435 222.426 208.178C222.426 209.921 223.861 211.356 225.604 211.356Z"
            fill="#00FFDE" />
        <path d="M186.799 272.666V323.415H140.15V402.256H271.38V323.415V272.666H186.799Z"
            fill="#008E62" />
        <path d="M229.089 272.666V323.415H205.765V402.256H271.38V323.415V272.666H229.089Z"
            fill="#FFBA00" />
        <path d="M245.852 291.12H236.061V305.012H245.852V291.12Z" fill="#022D2B" />
        <path d="M264.461 291.12H254.67V305.012H264.461V291.12Z" fill="#022D2B" />
        <path d="M196.59 338.384H149.634V352.276H196.59V338.384Z" fill="#304860" />
        <path d="M196.59 362.784H149.634V376.676H196.59V362.784Z" fill="#304860" />
        <path d="M276.814 262.003H181.416V272.614H276.814V262.003Z" fill="#022D2B" />
        <path d="M221.246 359.913H225.45C233.703 359.913 240.418 369.448 240.418 381.033V402.204"
            stroke="#022D2B" stroke-width="15.8426" stroke-miterlimit="10" />
        <path d="M247.697 359.913H251.9C260.154 359.913 266.869 369.448 266.869 381.033V402.204"
            stroke="#022D2B" stroke-width="15.8426" stroke-miterlimit="10" />
        <path d="M242.417 262.004H217.299L222.271 216.534H237.496L242.417 262.004Z" fill="#022220" />
        <path d="M34.1403 299.63H0V402H34.0891V299.63H34.1403Z" stroke="#022D2B"
            stroke-width="1.79575" stroke-miterlimit="10" stroke-linecap="round"
            stroke-linejoin="round" />
        <path d="M34.1403 299.63L17.0702 316.7L0 299.63" stroke="#022D2B" stroke-width="1.70968"
            stroke-miterlimit="10" stroke-linecap="round" stroke-linejoin="round" />
        <path d="M34.1403 333.719L17.0702 316.648L0 333.719L17.0702 350.789L34.1403 333.719Z"
            stroke="#022D2B" stroke-width="1.70968" stroke-miterlimit="10" stroke-linecap="round"
            stroke-linejoin="round" />
        <path d="M34.1403 367.859L17.0702 350.789L0 367.859L17.0702 384.929L34.1403 367.859Z"
            stroke="#022D2B" stroke-width="1.70968" stroke-miterlimit="10" stroke-linecap="round"
            stroke-linejoin="round" />
        <path d="M0.205688 401.948L17.2758 384.878L34.346 401.948" stroke="#022D2B"
            stroke-width="1.70968" stroke-miterlimit="10" stroke-linecap="round"
            stroke-linejoin="round" />
        <path d="M0 333.462H34.0891" stroke="#022D2B" stroke-width="1.70968" stroke-miterlimit="10"
            stroke-linecap="round" stroke-linejoin="round" />
        <path d="M0 367.603H34.0891" stroke="#022D2B" stroke-width="1.70968" stroke-miterlimit="10"
            stroke-linecap="round" stroke-linejoin="round" />
        <path d="M207.252 300.296V402.614H111.802V321.877L207.252 300.296Z" fill="#31B92E" />
        <path d="M111.854 321.877H16.4044V402.614H111.854V321.877Z" fill="#008E62" />
        <path
            d="M44.393 357.863H31.5775C31.2187 357.863 30.8599 357.555 30.8599 357.145V344.33C30.8599 343.971 31.1674 343.612 31.5775 343.612H44.393C44.7518 343.612 45.1107 343.92 45.1107 344.33V357.145C45.1107 357.555 44.7518 357.863 44.393 357.863Z"
            fill="#022D2B" />
        <path
            d="M71.3049 357.863H58.4894C58.1306 357.863 57.7717 357.555 57.7717 357.145V344.33C57.7717 343.971 58.0793 343.612 58.4894 343.612H71.3049C71.6637 343.612 72.0225 343.92 72.0225 344.33V357.145C72.0225 357.555 71.715 357.863 71.3049 357.863Z"
            fill="#022D2B" />
        <path
            d="M98.2175 357.863H85.402C85.0432 357.863 84.6843 357.555 84.6843 357.145V344.33C84.6843 343.971 84.9919 343.612 85.402 343.612H98.2175C98.5763 343.612 98.9351 343.92 98.9351 344.33V357.145C98.9351 357.555 98.6788 357.863 98.2175 357.863Z"
            fill="#022D2B" />
        <path
            d="M44.393 379.495H31.5775C31.2187 379.495 30.8599 379.187 30.8599 378.777V365.962C30.8599 365.603 31.1674 365.244 31.5775 365.244H44.393C44.7518 365.244 45.1107 365.552 45.1107 365.962V378.777C45.1107 379.136 44.7518 379.495 44.393 379.495Z"
            fill="#022D2B" />
        <path
            d="M71.3049 379.495H58.4894C58.1306 379.495 57.7717 379.187 57.7717 378.777V365.962C57.7717 365.603 58.0793 365.244 58.4894 365.244H71.3049C71.6637 365.244 72.0225 365.552 72.0225 365.962V378.777C72.0225 379.136 71.715 379.495 71.3049 379.495Z"
            fill="#022D2B" />
        <path
            d="M98.2175 379.495H85.402C85.0432 379.495 84.6843 379.187 84.6843 378.777V365.962C84.6843 365.603 84.9919 365.244 85.402 365.244H98.2175C98.5763 365.244 98.9351 365.552 98.9351 365.962V378.777C98.9351 379.136 98.6788 379.495 98.2175 379.495Z"
            fill="#022D2B" />
        <path
            d="M188.183 402.614H132V350.942C132 349.968 132.769 349.199 133.743 349.199H186.44C187.414 349.199 188.183 349.968 188.183 350.942V402.614Z"
            fill="#022220" />
        <path d="M207.252 300.296L111.802 321.877H16.4043L111.444 300.296H207.252Z" fill="#FFBA00" />
        <path d="M162.038 349.199H160.039V402.614H162.038V349.199Z" fill="#022D2B" />
        <path
            d="M389.693 403.127H330.588L330.793 401.999C339.559 358.068 342.276 313.214 338.892 268.514H381.388C377.954 313.163 380.671 358.068 389.488 401.999L389.693 403.127Z"
            fill="#00FFE0" />
        <path d="M347.862 268.514H346.376V403.076H347.862V268.514Z" fill="#004C46" />
        <path d="M350.528 272.358H343.761V273.742H350.528V272.358Z" fill="#004C46" />
        <path d="M350.528 279.792H343.761V281.176H350.528V279.792Z" fill="#004C46" />
        <path d="M350.528 287.326H343.761V288.71H350.528V287.326Z" fill="#004C46" />
        <path d="M350.528 294.759H343.761V296.143H350.528V294.759Z" fill="#004C46" />
        <path d="M350.528 302.244H343.761V303.628H350.528V302.244Z" fill="#004C46" />
        <path d="M350.528 309.729H343.761V311.113H350.528V309.729Z" fill="#004C46" />
        <path d="M350.528 317.212H343.761V318.596H350.528V317.212Z" fill="#004C46" />
        <path d="M350.528 324.645H343.761V326.029H350.528V324.645Z" fill="#004C46" />
        <path d="M350.528 332.129H343.761V333.513H350.528V332.129Z" fill="#004C46" />
        <path d="M350.528 339.614H343.761V340.998H350.528V339.614Z" fill="#004C46" />
        <path d="M350.528 347.097H343.761V348.481H350.528V347.097Z" fill="#004C46" />
        <path d="M350.528 354.53H343.761V355.914H350.528V354.53Z" fill="#004C46" />
        <path d="M350.528 362.015H343.761V363.399H350.528V362.015Z" fill="#004C46" />
        <path d="M350.528 369.499H343.761V370.883H350.528V369.499Z" fill="#004C46" />
        <path d="M350.528 376.983H343.761V378.367H350.528V376.983Z" fill="#004C46" />
        <path d="M350.528 384.417H343.761V385.801H350.528V384.417Z" fill="#004C46" />
        <path d="M350.528 391.9H343.761V393.284H350.528V391.9Z" fill="#004C46" />
        <path
            d="M428.344 406.818H382.669L382.823 405.947C389.59 372.012 391.691 337.359 389.077 302.859H421.885C419.27 337.359 421.372 372.012 428.139 405.947L428.344 406.818Z"
            fill="#FFBA00" />
        <path opacity="0.5"
            d="M597.178 50.7647C597.178 50.7647 591.209 44.9499 598.559 39.5993C605.908 34.2486 609.143 43.3182 609.143 43.3182C609.143 43.3182 610.846 26.8079 624.789 31.2244C637.556 35.2674 629.851 46.8211 629.851 46.8211C629.851 46.8211 645.96 40.7727 645.735 53.3335L656.55 54.5012H587.744L597.178 50.7647Z"
            fill="white" />
        <path opacity="0.5"
            d="M863.615 65.2474C863.615 65.2474 868.899 60.1208 862.396 55.4019C855.893 50.6831 853.051 58.6844 853.051 58.6844C853.051 58.6844 851.56 44.1219 839.234 48.0178C827.961 51.582 834.765 61.7611 834.765 61.7611C834.765 61.7611 820.542 56.4287 820.746 67.5067L811.199 68.5317H871.95L863.615 65.2474Z"
            fill="white" />
        <g clip-path="url(#clip0_704_2875)">
            <path
                d="M595.126 78.1887L744.01 35.4967L744.079 35.26C744.655 32.9814 745.818 30.8937 747.453 29.2051C749.088 27.5165 751.137 26.286 753.396 25.6363L796.265 13.3437C797.959 12.8579 799.731 12.7106 801.482 12.9103C803.233 13.11 804.927 13.6528 806.467 14.5077C806.717 14.6317 806.957 14.7725 807.187 14.929L811.289 17.5412L811.426 17.6381L811.862 17.9219L812.164 17.8354C813.788 17.3696 815.488 17.2287 817.166 17.4209C818.844 17.6131 820.468 18.1345 821.945 18.9554C824.333 20.2552 826.237 22.2915 827.374 24.7612C828.159 26.4473 828.569 28.2832 828.576 30.1429C828.584 32.0025 828.188 33.8417 827.417 35.534C826.646 37.2263 825.518 38.7316 824.11 39.9462C822.702 41.1609 821.047 42.0562 819.26 42.5706L661.579 87.7851L596.628 83.4276L595.126 78.1887Z"
                fill="white" />
            <path
                d="M667.542 69.8115L670.904 68.8475C670.928 68.8406 670.951 68.829 670.97 68.8134C670.99 68.7978 671.006 68.7785 671.018 68.7566C671.03 68.7347 671.037 68.7106 671.04 68.6858C671.043 68.6609 671.04 68.6358 671.033 68.6118L670.069 65.2498C670.056 65.2016 670.023 65.1608 669.979 65.1365C669.935 65.1121 669.883 65.1062 669.835 65.1201L666.473 66.0841C666.425 66.098 666.384 66.1304 666.359 66.1743C666.335 66.2183 666.328 66.2701 666.342 66.3187L667.306 69.6807C667.32 69.7293 667.353 69.7705 667.397 69.795C667.441 69.8195 667.493 69.8255 667.542 69.8115Z"
                fill="#032D2B" />
            <path d="M579.007 46.5021L568 49.6582L595.133 78.2136L631.102 67.8995L579.007 46.5021Z"
                fill="white" />
            <path
                d="M646.173 72.5492C646.055 72.1425 645.781 71.799 645.41 71.5936C645.04 71.3883 644.603 71.3379 644.196 71.4534L642.174 72.0331C641.768 72.1514 641.425 72.4256 641.219 72.7959C641.014 73.1662 640.963 73.6026 641.079 74.01L642.487 78.9208C642.605 79.3273 642.879 79.6706 643.25 79.8759C643.62 80.0811 644.056 80.1317 644.464 80.0167L646.485 79.437C646.892 79.319 647.235 79.0449 647.441 78.6745C647.646 78.3041 647.697 77.8675 647.581 77.4601L646.173 72.5492Z"
                fill="#032D2B" />
            <path
                d="M774.179 35.8435C774.061 35.4367 773.787 35.0932 773.417 34.8879C773.047 34.6825 772.61 34.6321 772.202 34.7476L770.181 35.3273C769.978 35.3838 769.789 35.4801 769.624 35.6104C769.459 35.7407 769.321 35.9026 769.219 36.0865C769.117 36.2705 769.053 36.4728 769.03 36.6819C769.007 36.8909 769.026 37.1025 769.085 37.3042L770.493 42.2151C770.611 42.6218 770.885 42.9654 771.256 43.1707C771.626 43.376 772.063 43.4264 772.47 43.3109L774.492 42.7312C774.898 42.6133 775.242 42.3392 775.447 41.9687C775.653 41.5983 775.703 41.1617 775.588 40.7543L774.179 35.8435Z"
                fill="#032D2B" />
            <path
                d="M806.444 14.5152C806.694 14.6391 806.935 14.7797 807.165 14.9361L811.267 17.5483L798.598 21.181L797.428 17.1006L806.444 14.5152Z"
                fill="#032D2B" />
            <path
                d="M802.364 15.6831L801.18 16.0225L802.35 20.1029L803.534 19.7636L802.364 15.6831Z"
                fill="#70C9C2" />
            <path
                d="M612.703 72.2768L586.835 79.6944C585.92 79.9568 585.146 80.572 584.685 81.4047C584.223 82.2374 584.111 83.2193 584.374 84.1345C584.636 85.0496 585.251 85.8231 586.084 86.2846C586.917 86.7462 587.899 86.8581 588.814 86.5957L614.657 79.1852C615.573 78.9261 616.349 78.3137 616.813 77.4827C617.278 76.6516 617.393 75.6701 617.134 74.754C616.875 73.8379 616.263 73.0622 615.432 72.5977C614.601 72.1331 613.619 72.0177 612.703 72.2768Z"
                fill="#0C2A27" />
            <path
                d="M653.445 70.6249C653.298 70.1106 652.952 69.676 652.484 69.4166C652.016 69.1572 651.465 69.0943 650.95 69.2418C650.436 69.3893 650.001 69.735 649.742 70.203C649.483 70.6709 649.42 71.2227 649.567 71.737L650.05 73.4196C650.197 73.9338 650.543 74.3685 651.011 74.6279C651.479 74.8873 652.031 74.9501 652.545 74.8027C653.059 74.6552 653.494 74.3094 653.753 73.8415C654.013 73.3736 654.075 72.8218 653.928 72.3075L653.445 70.6249Z"
                fill="#31BC2E" />
            <path
                d="M669.364 66.0614C669.217 65.5471 668.871 65.1125 668.403 64.8531C667.935 64.5937 667.383 64.5309 666.869 64.6783C666.355 64.8258 665.92 65.1715 665.661 65.6395C665.401 66.1074 665.339 66.6592 665.486 67.1735L665.969 68.8561C666.116 69.3704 666.462 69.805 666.93 70.0644C667.398 70.3238 667.949 70.3866 668.464 70.2392C668.978 70.0917 669.413 69.746 669.672 69.278C669.931 68.8101 669.994 68.2583 669.847 67.744L669.364 66.0614Z"
                fill="#262229" />
            <path
                d="M677.325 63.7784C677.258 63.5169 677.139 63.2715 676.975 63.0567C676.812 62.842 676.607 62.6622 676.373 62.528C676.138 62.3938 675.88 62.3079 675.612 62.2755C675.344 62.243 675.072 62.2646 674.813 62.339C674.553 62.4134 674.311 62.5391 674.101 62.7086C673.891 62.8782 673.717 63.0881 673.59 63.326C673.462 63.5639 673.384 63.825 673.359 64.0938C673.334 64.3626 673.363 64.6336 673.445 64.8909L673.927 66.5735C674.086 67.0744 674.435 67.4935 674.898 67.7417C675.361 67.99 675.903 68.0478 676.408 67.903C676.913 67.7581 677.342 67.422 677.603 66.9659C677.864 66.5099 677.938 65.97 677.807 65.4609L677.325 63.7784Z"
                fill="#262229" />
            <path
                d="M685.283 61.4963C685.136 60.9808 684.789 60.5451 684.32 60.2851C683.851 60.0251 683.298 59.962 682.782 60.1099C682.267 60.2577 681.831 60.6042 681.571 61.0733C681.311 61.5424 681.248 62.0955 681.396 62.611L681.878 64.2936C682.026 64.8091 682.373 65.2448 682.842 65.5048C683.311 65.7648 683.864 65.8279 684.379 65.68C684.895 65.5322 685.331 65.1856 685.591 64.7166C685.851 64.2475 685.914 63.6944 685.766 63.1788L685.283 61.4963Z"
                fill="#262229" />
            <path
                d="M693.242 59.2148C693.095 58.7005 692.749 58.2658 692.281 58.0064C691.813 57.7471 691.261 57.6842 690.747 57.8317C690.233 57.9791 689.798 58.3249 689.539 58.7928C689.279 59.2607 689.216 59.8125 689.364 60.3268L689.846 62.0094C689.994 62.5237 690.34 62.9583 690.808 63.2177C691.275 63.4771 691.827 63.54 692.342 63.3925C692.856 63.245 693.29 62.8993 693.55 62.4314C693.809 61.9634 693.872 61.4116 693.725 60.8973L693.242 59.2148Z"
                fill="#31BC2E" />
            <path
                d="M661.406 68.3437C661.258 67.8282 660.911 67.3925 660.442 67.1325C659.973 66.8725 659.42 66.8094 658.904 66.9573C658.389 67.1051 657.953 67.4517 657.693 67.9207C657.433 68.3898 657.37 68.9429 657.518 69.4585L658 71.141C658.148 71.6565 658.495 72.0922 658.964 72.3522C659.433 72.6122 659.986 72.6753 660.502 72.5274C661.017 72.3796 661.453 72.0331 661.713 71.564C661.973 71.0949 662.036 70.5418 661.888 70.0263L661.406 68.3437Z"
                fill="#31BC2E" />
            <path
                d="M701.202 56.9326C701.055 56.417 700.708 55.9813 700.239 55.7213C699.77 55.4613 699.217 55.3983 698.701 55.5461C698.186 55.694 697.75 56.0405 697.49 56.5096C697.23 56.9787 697.167 57.5318 697.315 58.0473L697.797 59.7299C697.945 60.2454 698.292 60.6811 698.761 60.9411C699.23 61.2011 699.783 61.2641 700.298 61.1163C700.814 60.9685 701.25 60.6219 701.51 60.1529C701.77 59.6838 701.833 59.1307 701.685 58.6151L701.202 56.9326Z"
                fill="#31BC2E" />
            <path
                d="M709.161 54.6493C709.014 54.135 708.668 53.7004 708.2 53.441C707.732 53.1816 707.18 53.1188 706.666 53.2662C706.152 53.4137 705.717 53.7594 705.458 54.2274C705.198 54.6953 705.135 55.2471 705.283 55.7614L705.765 57.444C705.913 57.9583 706.258 58.3929 706.726 58.6523C707.194 58.9117 707.746 58.9745 708.26 58.8271C708.775 58.6796 709.209 58.3339 709.469 57.8659C709.728 57.398 709.791 56.8462 709.643 56.3319L709.161 54.6493Z"
                fill="#31BC2E" />
            <path
                d="M717.122 52.3671C716.974 51.8516 716.627 51.4159 716.158 51.1559C715.689 50.8959 715.136 50.8329 714.62 50.9807C714.105 51.1285 713.669 51.4751 713.409 51.9442C713.149 52.4132 713.086 52.9664 713.234 53.4819L713.716 55.1644C713.864 55.68 714.211 56.1157 714.68 56.3757C715.149 56.6357 715.702 56.6987 716.218 56.5509C716.733 56.4031 717.169 56.0565 717.429 55.5874C717.689 55.1184 717.752 54.5652 717.604 54.0497L717.122 52.3671Z"
                fill="#31BC2E" />
            <path
                d="M733.04 47.8017C732.893 47.2862 732.546 46.8505 732.077 46.5905C731.608 46.3305 731.055 46.2675 730.539 46.4153C730.024 46.5631 729.588 46.9097 729.328 47.3787C729.068 47.8478 729.005 48.4009 729.153 48.9165L729.635 50.599C729.783 51.1145 730.13 51.5502 730.599 51.8102C731.068 52.0703 731.621 52.1333 732.136 51.9854C732.652 51.8376 733.088 51.4911 733.348 51.022C733.608 50.5529 733.671 49.9998 733.523 49.4843L733.04 47.8017Z"
                fill="#31BC2E" />
            <path
                d="M740.994 45.5224C740.847 45.0081 740.501 44.5734 740.033 44.3141C739.565 44.0547 739.013 43.9918 738.499 44.1393C737.985 44.2867 737.55 44.6325 737.291 45.1004C737.032 45.5683 736.969 46.1202 737.116 46.6345L737.599 48.317C737.746 48.8313 738.092 49.2659 738.56 49.5253C739.028 49.7847 739.579 49.8476 740.094 49.7001C740.608 49.5526 741.043 49.2069 741.302 48.739C741.561 48.271 741.624 47.7192 741.477 47.2049L740.994 45.5224Z"
                fill="#31BC2E" />
            <path
                d="M748.959 43.2382C748.812 42.7227 748.465 42.287 747.996 42.027C747.527 41.767 746.974 41.704 746.458 41.8518C745.943 41.9996 745.507 42.3462 745.247 42.8153C744.987 43.2843 744.924 43.8375 745.072 44.353L745.554 46.0355C745.702 46.5511 746.049 46.9868 746.518 47.2468C746.987 47.5068 747.54 47.5698 748.055 47.422C748.571 47.2741 749.007 46.9276 749.267 46.4585C749.527 45.9895 749.59 45.4363 749.442 44.9208L748.959 43.2382Z"
                fill="#31BC2E" />
            <path
                d="M756.918 40.9567C756.771 40.4424 756.425 40.0078 755.957 39.7484C755.489 39.489 754.937 39.4261 754.423 39.5736C753.909 39.7211 753.474 40.0668 753.215 40.5347C752.955 41.0027 752.892 41.5545 753.04 42.0688L753.522 43.7513C753.67 44.2656 754.016 44.7003 754.484 44.9597C754.951 45.219 755.503 45.2819 756.018 45.1344C756.532 44.987 756.967 44.6412 757.226 44.1733C757.485 43.7054 757.548 43.1535 757.401 42.6393L756.918 40.9567Z"
                fill="#31BC2E" />
            <path
                d="M764.878 38.6729C764.811 38.4114 764.692 38.1661 764.529 37.9513C764.365 37.7365 764.16 37.5567 763.926 37.4225C763.692 37.2883 763.433 37.2024 763.165 37.17C762.897 37.1375 762.626 37.1592 762.366 37.2336C762.107 37.308 761.865 37.4336 761.655 37.6032C761.445 37.7727 761.271 37.9826 761.143 38.2206C761.016 38.4585 760.937 38.7195 760.912 38.9883C760.887 39.2571 760.917 39.5282 760.998 39.7854L761.481 41.468C761.64 41.9689 761.988 42.388 762.451 42.6363C762.915 42.8845 763.456 42.9424 763.962 42.7975C764.467 42.6526 764.896 42.3165 765.157 41.8605C765.418 41.4045 765.491 40.8646 765.361 40.3555L764.878 38.6729Z"
                fill="#31BC2E" />
            <path
                d="M780.804 34.1064C780.656 33.5909 780.309 33.1552 779.84 32.8952C779.371 32.6352 778.818 32.5721 778.302 32.72C777.787 32.8678 777.351 33.2144 777.091 33.6834C776.831 34.1525 776.768 34.7056 776.916 35.2211L777.398 36.9037C777.546 37.4192 777.893 37.8549 778.362 38.1149C778.831 38.3749 779.384 38.438 779.9 38.2901C780.415 38.1423 780.851 37.7957 781.111 37.3267C781.371 36.8576 781.434 36.3045 781.286 35.789L780.804 34.1064Z"
                fill="#31BC2E" />
            <path
                d="M788.756 31.8258C788.609 31.3115 788.263 30.8769 787.795 30.6175C787.327 30.3581 786.775 30.2953 786.261 30.4427C785.747 30.5902 785.312 30.9359 785.053 31.4039C784.793 31.8718 784.73 32.4236 784.878 32.9379L785.36 34.6205C785.508 35.1348 785.853 35.5694 786.321 35.8288C786.789 36.0882 787.341 36.151 787.855 36.0036C788.37 35.8561 788.804 35.5104 789.064 35.0424C789.323 34.5745 789.386 34.0227 789.239 33.5084L788.756 31.8258Z"
                fill="#31BC2E" />
            <path
                d="M796.716 29.544C796.649 29.2825 796.531 29.0371 796.367 28.8224C796.204 28.6076 795.999 28.4278 795.764 28.2936C795.53 28.1594 795.272 28.0735 795.004 28.0411C794.736 28.0086 794.464 28.0302 794.204 28.1046C793.945 28.1791 793.703 28.3047 793.493 28.4743C793.283 28.6438 793.109 28.8537 792.981 29.0917C792.854 29.3296 792.775 29.5906 792.75 29.8594C792.726 30.1282 792.755 30.3993 792.837 30.6565L793.319 32.3391C793.478 32.84 793.826 33.2591 794.29 33.5073C794.753 33.7556 795.295 33.8135 795.8 33.6686C796.305 33.5237 796.734 33.1876 796.995 32.7316C797.256 32.2756 797.329 31.7357 797.199 31.2266L796.716 29.544Z"
                fill="#31BC2E" />
            <path
                d="M804.675 27.2616C804.528 26.7473 804.182 26.3127 803.714 26.0533C803.246 25.7939 802.694 25.7311 802.18 25.8785C801.666 26.026 801.231 26.3717 800.972 26.8397C800.712 27.3076 800.649 27.8594 800.797 28.3737L801.279 30.0563C801.427 30.5706 801.772 31.0052 802.24 31.2646C802.708 31.524 803.26 31.5868 803.774 31.4394C804.289 31.2919 804.723 30.9462 804.983 30.4782C805.242 30.0103 805.305 29.4585 805.158 28.9442L804.675 27.2616Z"
                fill="#31BC2E" />
            <path
                d="M812.635 24.9794C812.487 24.4639 812.141 24.0282 811.672 23.7682C811.203 23.5082 810.65 23.4452 810.134 23.593C809.619 23.7408 809.183 24.0874 808.923 24.5565C808.663 25.0255 808.6 25.5787 808.748 26.0942L809.23 27.7768C809.378 28.2923 809.725 28.728 810.194 28.988C810.663 29.248 811.216 29.311 811.731 29.1632C812.247 29.0154 812.683 28.6688 812.943 28.1997C813.203 27.7307 813.266 27.1775 813.118 26.662L812.635 24.9794Z"
                fill="#31BC2E" />
            <path
                d="M719.134 64.9017L672.63 71.939L640.341 68.0862L663.64 61.4052L737.383 52.9625L719.134 64.9017Z"
                fill="#0C2A27" />
            <path
                d="M702.994 59.4714L706.23 70.7548L688.244 75.9121L681.686 74.5227L680.184 69.2837L685.009 64.6287L702.994 59.4714Z"
                fill="#004C47" />
            <path
                d="M702.994 59.4697L698.435 60.7771L701.671 72.0621L706.23 70.7547L702.994 59.4697Z"
                fill="#032D2B" />
            <path
                d="M737.383 52.9636L740.611 64.2237L722.626 69.381L716.068 67.99L714.565 62.7511L719.397 58.1209L737.383 52.9636Z"
                fill="#004C47" />
            <path
                d="M737.383 52.9624L732.823 54.2698L736.059 65.5547L740.619 64.2473L737.383 52.9624Z"
                fill="#032D2B" />
        </g>
    </g>
    <defs>
        <clipPath id="clip0_704_2875">
            <rect width="256.346" height="73.2645" fill="white"
                transform="translate(568 49.6582) rotate(-16)" />
        </clipPath>
    </defs>
</svg>
    