<svg width="768" height="350" viewBox="0 0 768 350" fill="none" xmlns="http://www.w3.org/2000/svg">
    <g opacity="0.4" clip-path="url(#clip0_1470_86514)">
    <path d="M103.996 92.9369V121.223C103.996 155.931 76.3913 184.154 41.9805 185.21V156.925C41.9805 122.256 69.5461 93.9936 103.996 92.9369Z" stroke="#E58C00" stroke-width="4"/>
    <path d="M88.276 260.636H-10.0956H-32.5908V198.617H27.9066H50.2737H69.0794C103.746 198.617 132.008 226.184 133.064 260.636H88.276Z" stroke="#E58C00" stroke-width="4"/>
    <path d="M29.3806 155.097V183.382C-5.02943 182.324 -32.6348 154.061 -32.6348 119.394V91.1088C1.77611 92.1652 29.3806 120.388 29.3806 155.097Z" stroke="#E58C00" stroke-width="4"/>
    <path d="M304.887 92.9349V121.221C304.887 155.929 277.283 184.152 242.872 185.208V156.923C242.872 122.254 270.438 93.9917 304.887 92.9349Z" stroke="#E58C00" stroke-width="4"/>
    <path d="M289.167 260.636H190.795H168.3V198.617H228.797H251.164H269.97C304.637 198.617 332.898 226.184 333.955 260.636H289.167Z" stroke="#E58C00" stroke-width="4"/>
    <path d="M230.272 155.097V183.382C195.862 182.324 168.257 154.061 168.257 119.394V91.1088C202.668 92.1652 230.272 120.388 230.272 155.097Z" stroke="#E58C00" stroke-width="4"/>
    <path d="M505.779 92.9349V121.221C505.779 155.929 478.175 184.152 443.764 185.208V156.923C443.764 122.254 471.329 93.9917 505.779 92.9349Z" stroke="#E58C00" stroke-width="4"/>
    <path d="M490.059 260.636H391.688H369.192V198.617H429.69H452.057H470.863C505.529 198.617 533.791 226.184 534.847 260.636H490.059Z" stroke="#E58C00" stroke-width="4"/>
    <path d="M431.164 155.097V183.382C396.754 182.324 369.148 154.061 369.148 119.394V91.1088C403.559 92.1652 431.164 120.388 431.164 155.097Z" stroke="#E58C00" stroke-width="4"/>
    <path d="M706.673 92.935V121.221C706.673 155.929 679.068 184.152 644.657 185.208V156.923C644.657 122.254 672.223 93.9917 706.673 92.935Z" stroke="#E58C00" stroke-width="4"/>
    <path d="M690.952 260.636H592.58H570.085V198.617H630.582H652.949H671.755C706.422 198.617 734.683 226.184 735.74 260.636H690.952Z" stroke="#E58C00" stroke-width="4"/>
    <path d="M632.057 155.097V183.382C597.647 182.324 570.042 154.061 570.042 119.394V91.1088C604.453 92.1652 632.057 120.388 632.057 155.097Z" stroke="#E58C00" stroke-width="4"/>
    <path d="M189.904 287.863V316.148C189.904 350.857 162.3 379.08 127.889 380.136V351.851C127.889 317.182 155.454 288.919 189.904 287.863Z" stroke="#E58C00" stroke-width="4"/>
    <path d="M115.288 350.022V378.308C80.8778 377.25 53.2725 348.987 53.2725 314.32V286.035C87.6833 287.091 115.288 315.314 115.288 350.022Z" stroke="#E58C00" stroke-width="4"/>
    <path d="M390.795 287.863V316.148C390.795 350.857 363.19 379.08 328.779 380.136V351.85C328.779 317.182 356.345 288.919 390.795 287.863Z" stroke="#E58C00" stroke-width="4"/>
    <path d="M316.179 350.022V378.308C281.769 377.25 254.164 348.987 254.164 314.32V286.035C288.575 287.091 316.179 315.314 316.179 350.022Z" stroke="#E58C00" stroke-width="4"/>
    <path d="M792.579 287.863V316.148C792.579 350.857 764.974 379.08 730.563 380.136V351.85C730.563 317.182 758.129 288.919 792.579 287.863Z" stroke="#E58C00" stroke-width="4"/>
    <path d="M717.964 350.022V378.308C683.554 377.25 655.948 348.987 655.948 314.32V286.035C690.359 287.091 717.964 315.314 717.964 350.022Z" stroke="#E58C00" stroke-width="4"/>
    <path d="M591.688 287.863V316.148C591.688 350.857 564.084 379.08 529.673 380.136V351.85C529.673 317.182 557.238 288.919 591.688 287.863Z" stroke="#E58C00" stroke-width="4"/>
    <path d="M517.073 350.022V378.308C482.663 377.25 455.058 348.987 455.058 314.32V286.035C489.468 287.091 517.073 315.314 517.073 350.022Z" stroke="#E58C00" stroke-width="4"/>
    <path d="M-26.7094 65.7079H-125.081H-147.576V3.68951H-87.0787H-64.7117H-45.9059C-11.2393 3.68951 17.0222 31.2563 18.0788 65.7079H-26.7094Z" stroke="#E58C00" stroke-width="4"/>
    <path d="M174.182 65.7082H75.8106H53.3154V3.68976H113.813H136.18H154.986C189.652 3.68976 217.914 31.2565 218.97 65.7082H174.182Z" stroke="#E58C00" stroke-width="4"/>
    <path d="M375.074 65.7082H276.702H254.207V3.68976H314.704H337.072H355.877C390.544 3.68976 418.805 31.2565 419.862 65.7082H375.074Z" stroke="#E58C00" stroke-width="4"/>
    <path d="M776.858 65.7082H678.486H655.991V3.68976H716.489H738.856H757.661C792.328 3.68976 820.59 31.2565 821.646 65.7082H776.858Z" stroke="#E58C00" stroke-width="4"/>
    <path d="M575.967 65.708H477.596H455.101V3.68958H515.598H537.965H556.771C591.437 3.68958 619.699 31.2564 620.756 65.708H575.967Z" stroke="#E58C00" stroke-width="4"/>
    </g>
    <rect width="769" height="398" fill="url(#paint0_linear_1470_86514)"/>
    <defs>
    <linearGradient id="paint0_linear_1470_86514" x1="769" y1="199" x2="-6.32512e-06" y2="199" gradientUnits="userSpaceOnUse">
    <stop stop-color="#FFF3E0" stop-opacity="0"/>
    <stop offset="0.151027" stop-color="#FFF3E0"/>
    <stop offset="0.880224" stop-color="#FFF3E0"/>
    <stop offset="1" stop-color="#FFF3E0" stop-opacity="0"/>
    </linearGradient>
    <clipPath id="clip0_1470_86514">
    <rect width="768" height="398" fill="white" transform="translate(0 -25)"/>
    </clipPath>
    </defs>
    </svg>
    