<svg width="768" height="300" viewBox="0 0 768 300" fill="none" xmlns="http://www.w3.org/2000/svg">
    <g opacity="0.4" clip-path="url(#clip0_1533_67163)">
    <path d="M125.572 169.652V184.047C125.572 201.711 111.524 216.075 94.011 216.612V202.217C94.011 184.573 108.04 170.189 125.572 169.652Z" stroke="#31BC2E" stroke-width="2.03571"/>
    <path d="M117.571 254.999H67.5073H56.0589V223.436H86.8478H98.231H107.802C125.445 223.436 139.828 237.465 140.365 254.999H117.571Z" stroke="#31BC2E" stroke-width="2.03571"/>
    <path d="M87.5988 201.287V215.682C70.0865 215.144 56.0374 200.76 56.0374 183.117V168.722C73.5501 169.26 87.5988 183.623 87.5988 201.287Z" stroke="#31BC2E" stroke-width="2.03571"/>
    <path d="M330.052 169.652V184.047C330.052 201.711 316.003 216.075 298.491 216.612V202.217C298.491 184.573 312.519 170.189 330.052 169.652Z" stroke="#31BC2E" stroke-width="2.03571"/>
    <path d="M322.052 254.999H271.988H260.539V223.436H291.328H302.711H312.282C329.925 223.436 344.308 237.465 344.846 254.999H322.052Z" stroke="#31BC2E" stroke-width="2.03571"/>
    <path d="M292.078 201.287V215.682C274.566 215.144 260.517 200.76 260.517 183.117V168.722C278.03 169.26 292.078 183.623 292.078 201.287Z" stroke="#31BC2E" stroke-width="2.03571"/>
    <path d="M432.291 169.652V184.047C432.291 201.711 418.242 216.075 400.73 216.612V202.217C400.73 184.573 414.759 170.189 432.291 169.652Z" stroke="#31BC2E" stroke-width="2.03571"/>
    <path d="M424.29 254.999H374.226H362.778V223.436H393.567H404.95H414.521C432.163 223.436 446.546 237.465 447.084 254.999H424.29Z" stroke="#31BC2E" stroke-width="2.03571"/>
    <path d="M394.318 201.287V215.682C376.805 215.144 362.756 200.76 362.756 183.117V168.722C380.269 169.26 394.318 183.623 394.318 201.287Z" stroke="#31BC2E" stroke-width="2.03571"/>
    <path d="M534.531 169.652V184.047C534.531 201.711 520.483 216.075 502.97 216.612V202.217C502.97 184.573 516.999 170.189 534.531 169.652Z" stroke="#31BC2E" stroke-width="2.03571"/>
    <path d="M526.531 254.999H476.467H465.019V223.436H495.808H507.191H516.762C534.405 223.436 548.788 237.465 549.325 254.999H526.531Z" stroke="#31BC2E" stroke-width="2.03571"/>
    <path d="M496.558 201.287V215.682C479.046 215.144 464.996 200.76 464.996 183.117V168.722C482.509 169.26 496.558 183.623 496.558 201.287Z" stroke="#31BC2E" stroke-width="2.03571"/>
    <path d="M739.011 169.652V184.047C739.011 201.711 724.962 216.075 707.449 216.612V202.217C707.449 184.573 721.478 170.189 739.011 169.652Z" stroke="#31BC2E" stroke-width="2.03571"/>
    <path d="M731.011 254.999H680.947H669.498V223.436H700.287H711.67H721.241C738.884 223.436 753.267 237.465 753.805 254.999H731.011Z" stroke="#31BC2E" stroke-width="2.03571"/>
    <path d="M701.037 201.287V215.682C683.525 215.144 669.476 200.76 669.476 183.117V168.722C686.989 169.26 701.037 183.623 701.037 201.287Z" stroke="#31BC2E" stroke-width="2.03571"/>
    <path d="M636.773 169.652V184.047C636.773 201.711 622.724 216.075 605.211 216.612V202.217C605.211 184.573 619.24 170.189 636.773 169.652Z" stroke="#31BC2E" stroke-width="2.03571"/>
    <path d="M628.772 254.999H578.708H567.259V223.436H598.048H609.431H619.002C636.645 223.436 651.028 237.465 651.566 254.999H628.772Z" stroke="#31BC2E" stroke-width="2.03571"/>
    <path d="M598.799 201.287V215.682C581.287 215.144 567.238 200.76 567.238 183.117V168.722C584.75 169.26 598.799 183.623 598.799 201.287Z" stroke="#31BC2E" stroke-width="2.03571"/>
    <path d="M-8.22919 202.216C-8.25022 184.574 5.79791 170.189 23.3322 169.652V184.047C23.3322 201.711 9.28348 216.075 -8.22919 216.612L-8.22919 202.217L-8.22919 202.216Z" stroke="#31BC2E" stroke-width="2.03571"/>
    <path d="M15.3316 254.999H-34.7326H-46.1589V223.436H-15.37H-4.0089H5.56187C23.2047 223.436 37.5878 237.465 38.1255 254.999H15.3316Z" stroke="#31BC2E" stroke-width="2.03571"/>
    <path d="M196.251 202.216C196.23 184.574 210.278 170.189 227.813 169.652V184.047C227.813 201.711 213.764 216.075 196.251 216.612L196.251 202.217L196.251 202.216Z" stroke="#31BC2E" stroke-width="2.03571"/>
    <path d="M219.812 254.999H169.748H158.322V223.436H189.11H200.472H210.042C227.685 223.436 242.068 237.465 242.606 254.999H219.812Z" stroke="#31BC2E" stroke-width="2.03571"/>
    <path d="M158.278 183.119V183.117V168.722C175.79 169.26 189.839 183.623 189.839 201.287V215.683C172.305 215.145 158.257 200.76 158.278 183.119Z" stroke="#31BC2E" stroke-width="2.03571"/>
    <path d="M125.572 -28.7556V-14.3602C125.572 3.30399 111.524 17.6674 94.011 18.205V3.8096C94.011 -13.8342 108.04 -28.2178 125.572 -28.7556Z" stroke="#31BC2E" stroke-width="2.03571"/>
    <path d="M117.571 56.5915H67.5073H56.0589V25.0286H86.8478H98.231H107.802C125.445 25.0286 139.828 39.0581 140.365 56.5915H117.571Z" stroke="#31BC2E" stroke-width="2.03571"/>
    <path d="M87.5988 2.87991V17.2753C70.0865 16.7368 56.0374 2.35303 56.0374 -15.2899V-29.6853C73.5501 -29.1477 87.5988 -14.7843 87.5988 2.87991Z" stroke="#31BC2E" stroke-width="2.03571"/>
    <path d="M330.053 -28.7556V-14.3602C330.053 3.30399 316.004 17.6674 298.491 18.205V3.8096C298.491 -13.8342 312.52 -28.2178 330.053 -28.7556Z" stroke="#31BC2E" stroke-width="2.03571"/>
    <path d="M322.053 56.5915H271.989H260.54V25.0286H291.329H302.712H312.283C329.926 25.0286 344.309 39.0581 344.847 56.5915H322.053Z" stroke="#31BC2E" stroke-width="2.03571"/>
    <path d="M292.079 2.87991V17.2753C274.567 16.7368 260.518 2.35303 260.518 -15.2899V-29.6853C278.031 -29.1477 292.079 -14.7843 292.079 2.87991Z" stroke="#31BC2E" stroke-width="2.03571"/>
    <path d="M432.291 -28.7556V-14.3602C432.291 3.30399 418.242 17.6674 400.73 18.205V3.8096C400.73 -13.8342 414.759 -28.2178 432.291 -28.7556Z" stroke="#31BC2E" stroke-width="2.03571"/>
    <path d="M424.29 56.5915H374.226H362.778V25.0286H393.567H404.95H414.521C432.163 25.0286 446.546 39.0581 447.084 56.5915H424.29Z" stroke="#31BC2E" stroke-width="2.03571"/>
    <path d="M394.318 2.87991V17.2753C376.805 16.7368 362.756 2.35303 362.756 -15.2899V-29.6853C380.269 -29.1477 394.318 -14.7843 394.318 2.87991Z" stroke="#31BC2E" stroke-width="2.03571"/>
    <path d="M534.531 -28.7556V-14.3602C534.531 3.30399 520.483 17.6674 502.97 18.205V3.8096C502.97 -13.8342 516.999 -28.2178 534.531 -28.7556Z" stroke="#31BC2E" stroke-width="2.03571"/>
    <path d="M526.531 56.5915H476.467H465.019V25.0286H495.808H507.191H516.762C534.405 25.0286 548.788 39.0581 549.325 56.5915H526.531Z" stroke="#31BC2E" stroke-width="2.03571"/>
    <path d="M496.558 2.87991V17.2753C479.046 16.7368 464.996 2.35303 464.996 -15.2899V-29.6853C482.509 -29.1477 496.558 -14.7843 496.558 2.87991Z" stroke="#31BC2E" stroke-width="2.03571"/>
    <path d="M739.012 -28.7556V-14.3602C739.012 3.30399 724.963 17.6674 707.45 18.205V3.8096C707.45 -13.8342 721.479 -28.2178 739.012 -28.7556Z" stroke="#31BC2E" stroke-width="2.03571"/>
    <path d="M731.012 56.5915H680.948H669.499V25.0286H700.288H711.671H721.242C738.885 25.0286 753.268 39.0581 753.806 56.5915H731.012Z" stroke="#31BC2E" stroke-width="2.03571"/>
    <path d="M701.038 2.87991V17.2753C683.526 16.7368 669.477 2.35303 669.477 -15.2899V-29.6853C686.99 -29.1477 701.038 -14.7843 701.038 2.87991Z" stroke="#31BC2E" stroke-width="2.03571"/>
    <path d="M636.773 -28.7556V-14.3602C636.773 3.30399 622.724 17.6674 605.211 18.205V3.8096C605.211 -13.8342 619.24 -28.2178 636.773 -28.7556Z" stroke="#31BC2E" stroke-width="2.03571"/>
    <path d="M628.772 56.5915H578.708H567.259V25.0286H598.048H609.431H619.002C636.645 25.0286 651.028 39.0581 651.566 56.5915H628.772Z" stroke="#31BC2E" stroke-width="2.03571"/>
    <path d="M598.799 2.87991V17.2753C581.287 16.7368 567.238 2.35303 567.238 -15.2899V-29.6853C584.75 -29.1477 598.799 -14.7843 598.799 2.87991Z" stroke="#31BC2E" stroke-width="2.03571"/>
    <path d="M-8.22821 3.80838C-8.24924 -13.8334 5.79889 -28.2178 23.3332 -28.7556V-14.3602C23.3332 3.30399 9.28445 17.6674 -8.22821 18.205L-8.22821 3.8096L-8.22821 3.80838Z" stroke="#31BC2E" stroke-width="2.03571"/>
    <path d="M15.3325 56.5915H-34.7316H-46.1579V25.0286H-15.369H-4.00792H5.56285C23.2057 25.0286 37.5888 39.0581 38.1265 56.5915H15.3325Z" stroke="#31BC2E" stroke-width="2.03571"/>
    <path d="M196.251 3.80838C196.23 -13.8334 210.278 -28.2178 227.813 -28.7556V-14.3602C227.813 3.30399 213.764 17.6674 196.251 18.205L196.251 3.8096L196.251 3.80838Z" stroke="#31BC2E" stroke-width="2.03571"/>
    <path d="M219.812 56.5915H169.748H158.322V25.0286H189.11H200.472H210.042C227.685 25.0286 242.068 39.0581 242.606 56.5915H219.812Z" stroke="#31BC2E" stroke-width="2.03571"/>
    <path d="M158.278 -15.2887V-15.2899V-29.6853C175.79 -29.1477 189.839 -14.7843 189.839 2.87991V17.2753C172.305 16.7375 158.257 2.35308 158.278 -15.2887Z" stroke="#31BC2E" stroke-width="2.03571"/>
    <path d="M67.0539 268.857V283.252C67.0539 300.916 53.0051 315.28 35.4925 315.817V301.422C35.4925 283.778 49.5214 269.394 67.0539 268.857Z" stroke="#31BC2E" stroke-width="2.03571"/>
    <path d="M29.0802 300.492V314.888C11.568 314.349 -2.48117 299.965 -2.48117 282.322V267.927C15.0315 268.465 29.0802 282.828 29.0802 300.492Z" stroke="#31BC2E" stroke-width="2.03571"/>
    <path d="M271.533 268.857V283.252C271.533 300.916 257.485 315.28 239.972 315.817V301.422C239.972 283.778 254.001 269.394 271.533 268.857Z" stroke="#31BC2E" stroke-width="2.03571"/>
    <path d="M233.56 300.492V314.888C216.047 314.349 201.998 299.965 201.998 282.322V267.927C219.511 268.465 233.56 282.828 233.56 300.492Z" stroke="#31BC2E" stroke-width="2.03571"/>
    <path d="M373.774 268.857V283.252C373.774 300.916 359.725 315.28 342.212 315.817V301.422C342.212 283.778 356.241 269.394 373.774 268.857Z" stroke="#31BC2E" stroke-width="2.03571"/>
    <path d="M335.799 300.492V314.888C318.287 314.349 304.238 299.965 304.238 282.322V267.927C321.75 268.465 335.799 282.828 335.799 300.492Z" stroke="#31BC2E" stroke-width="2.03571"/>
    <path d="M476.013 268.857V283.252C476.013 300.916 461.964 315.28 444.451 315.817V301.422C444.451 283.778 458.48 269.394 476.013 268.857Z" stroke="#31BC2E" stroke-width="2.03571"/>
    <path d="M438.039 300.492V314.888C420.527 314.349 406.478 299.965 406.478 282.322V267.927C423.99 268.465 438.039 282.828 438.039 300.492Z" stroke="#31BC2E" stroke-width="2.03571"/>
    <path d="M680.491 268.857V283.252C680.491 300.916 666.443 315.28 648.93 315.817V301.422C648.93 283.778 662.959 269.394 680.491 268.857Z" stroke="#31BC2E" stroke-width="2.03571"/>
    <path d="M642.518 300.492V314.888C625.005 314.349 610.956 299.965 610.956 282.322V267.927C628.469 268.465 642.518 282.828 642.518 300.492Z" stroke="#31BC2E" stroke-width="2.03571"/>
    <path d="M578.252 268.857V283.252C578.252 300.916 564.203 315.28 546.691 315.817V301.422C546.691 283.778 560.72 269.394 578.252 268.857Z" stroke="#31BC2E" stroke-width="2.03571"/>
    <path d="M540.278 300.492V314.888C522.766 314.349 508.717 299.965 508.717 282.322V267.927C526.23 268.465 540.278 282.828 540.278 300.492Z" stroke="#31BC2E" stroke-width="2.03571"/>
    <path d="M782.732 268.857V283.252C782.732 300.916 768.683 315.28 751.17 315.817V301.422C751.17 283.778 765.199 269.394 782.732 268.857Z" stroke="#31BC2E" stroke-width="2.03571"/>
    <path d="M744.758 300.492V314.888C727.246 314.349 713.197 299.965 713.197 282.322V267.927C730.709 268.465 744.758 282.828 744.758 300.492Z" stroke="#31BC2E" stroke-width="2.03571"/>
    <path d="M137.731 301.421C137.71 283.779 151.758 269.394 169.292 268.857V283.252C169.292 300.916 155.243 315.28 137.731 315.817L137.731 301.422L137.731 301.421Z" stroke="#31BC2E" stroke-width="2.03571"/>
    <path d="M99.7571 282.324V282.322V267.927C117.27 268.465 131.319 282.828 131.319 300.492V314.888C113.784 314.35 99.7361 299.965 99.7571 282.324Z" stroke="#31BC2E" stroke-width="2.03571"/>
    <path d="M67.0539 70.4475V84.8429C67.0539 102.507 53.0051 116.87 35.4925 117.408V103.013C35.4925 85.369 49.5214 70.9853 67.0539 70.4475Z" stroke="#31BC2E" stroke-width="2.03571"/>
    <path d="M59.0529 155.795H8.98876H-2.45968V124.232H28.3292H39.7124H49.2832C66.9261 124.232 81.3091 138.261 81.8469 155.795H59.0529Z" stroke="#31BC2E" stroke-width="2.03571"/>
    <path d="M29.0802 102.083V116.478C11.568 115.94 -2.48117 101.556 -2.48117 83.9132V69.5178C15.0315 70.0555 29.0802 84.4188 29.0802 102.083Z" stroke="#31BC2E" stroke-width="2.03571"/>
    <path d="M271.533 70.4475V84.8429C271.533 102.507 257.485 116.87 239.972 117.408V103.013C239.972 85.369 254.001 70.9853 271.533 70.4475Z" stroke="#31BC2E" stroke-width="2.03571"/>
    <path d="M263.533 155.795H213.469H202.021V124.232H232.81H244.193H253.764C271.407 124.232 285.79 138.261 286.327 155.795H263.533Z" stroke="#31BC2E" stroke-width="2.03571"/>
    <path d="M233.56 102.083V116.478C216.047 115.94 201.998 101.556 201.998 83.9132V69.5178C219.511 70.0555 233.56 84.4188 233.56 102.083Z" stroke="#31BC2E" stroke-width="2.03571"/>
    <path d="M373.774 70.4475V84.8429C373.774 102.507 359.725 116.87 342.212 117.408V103.013C342.212 85.369 356.241 70.9853 373.774 70.4475Z" stroke="#31BC2E" stroke-width="2.03571"/>
    <path d="M365.772 155.795H315.708H304.259V124.232H335.048H346.431H356.002C373.645 124.232 388.028 138.261 388.566 155.795H365.772Z" stroke="#31BC2E" stroke-width="2.03571"/>
    <path d="M335.799 102.083V116.478C318.287 115.94 304.238 101.556 304.238 83.9132V69.5178C321.75 70.0555 335.799 84.4188 335.799 102.083Z" stroke="#31BC2E" stroke-width="2.03571"/>
    <path d="M476.013 70.4475V84.8429C476.013 102.507 461.964 116.87 444.451 117.408V103.013C444.451 85.369 458.48 70.9853 476.013 70.4475Z" stroke="#31BC2E" stroke-width="2.03571"/>
    <path d="M468.012 155.795H417.948H406.499V124.232H437.288H448.671H458.242C475.885 124.232 490.268 138.261 490.806 155.795H468.012Z" stroke="#31BC2E" stroke-width="2.03571"/>
    <path d="M438.039 102.083V116.478C420.527 115.94 406.478 101.556 406.478 83.9132V69.5178C423.99 70.0555 438.039 84.4188 438.039 102.083Z" stroke="#31BC2E" stroke-width="2.03571"/>
    <path d="M680.491 70.4475V84.8429C680.491 102.507 666.443 116.87 648.93 117.408V103.013C648.93 85.369 662.959 70.9853 680.491 70.4475Z" stroke="#31BC2E" stroke-width="2.03571"/>
    <path d="M672.49 155.795H622.426H610.978V124.232H641.767H653.15H662.721C680.364 124.232 694.747 138.261 695.284 155.795H672.49Z" stroke="#31BC2E" stroke-width="2.03571"/>
    <path d="M642.518 102.083V116.478C625.005 115.94 610.956 101.556 610.956 83.9132V69.5178C628.469 70.0555 642.518 84.4188 642.518 102.083Z" stroke="#31BC2E" stroke-width="2.03571"/>
    <path d="M578.252 70.4475V84.8429C578.252 102.507 564.203 116.87 546.691 117.408V103.013C546.691 85.369 560.72 70.9853 578.252 70.4475Z" stroke="#31BC2E" stroke-width="2.03571"/>
    <path d="M570.252 155.795H520.188H508.74V124.232H539.528H550.912H560.482C578.125 124.232 592.508 138.261 593.046 155.795H570.252Z" stroke="#31BC2E" stroke-width="2.03571"/>
    <path d="M540.278 102.083V116.478C522.766 115.94 508.717 101.556 508.717 83.9132V69.5178C526.23 70.0555 540.278 84.4188 540.278 102.083Z" stroke="#31BC2E" stroke-width="2.03571"/>
    <path d="M782.732 70.4475V84.8429C782.732 102.507 768.683 116.87 751.17 117.408V103.013C751.17 85.369 765.199 70.9853 782.732 70.4475Z" stroke="#31BC2E" stroke-width="2.03571"/>
    <path d="M774.733 155.795H724.668H713.22V124.232H744.009H755.392H764.963C782.606 124.232 796.989 138.261 797.527 155.795H774.733Z" stroke="#31BC2E" stroke-width="2.03571"/>
    <path d="M744.758 102.083V116.478C727.246 115.94 713.197 101.556 713.197 83.9132V69.5178C730.709 70.0555 744.758 84.4188 744.758 102.083Z" stroke="#31BC2E" stroke-width="2.03571"/>
    <path d="M137.731 103.012C137.71 85.3697 151.758 70.9853 169.292 70.4475V84.8429C169.292 102.507 155.243 116.87 137.731 117.408L137.731 103.013L137.731 103.012Z" stroke="#31BC2E" stroke-width="2.03571"/>
    <path d="M161.292 155.795H111.227H99.8011V124.232H130.59H141.951H151.522C169.165 124.232 183.548 138.261 184.086 155.795H161.292Z" stroke="#31BC2E" stroke-width="2.03571"/>
    <path d="M99.7571 83.9144V83.9132V69.5178C117.27 70.0555 131.319 84.4188 131.319 102.083V116.478C113.784 115.941 99.7361 101.556 99.7571 83.9144Z" stroke="#31BC2E" stroke-width="2.03571"/>
    </g>
    <rect y="-10" width="768" height="320" fill="url(#paint0_linear_1533_67163)"/>
    <defs>
    <linearGradient id="paint0_linear_1533_67163" x1="823.248" y1="150" x2="-2.5774e-06" y2="150" gradientUnits="userSpaceOnUse">
    <stop stop-color="#004C46" stop-opacity="0"/>
    <stop offset="0.166653" stop-color="#004C46"/>
    <stop offset="0.906267" stop-color="#004C46"/>
    <stop offset="1" stop-color="#004C46" stop-opacity="0"/>
    </linearGradient>
    <clipPath id="clip0_1533_67163">
    <rect width="768" height="320" fill="white" transform="translate(0 -10)"/>
    </clipPath>
    </defs>
    </svg>
    