<svg width="375" height="573" viewBox="0 0 375 573" fill="none" xmlns="http://www.w3.org/2000/svg">
    <g opacity="0.4" clip-path="url(#clip0_1596_88197)">
    <path d="M179.652 437.948H194.047C211.711 437.948 226.075 451.997 226.612 469.509H212.217C194.573 469.509 180.189 455.481 179.652 437.948Z" stroke="#E58C00" stroke-width="2.03571"/>
    <path d="M264.999 445.946V496.01V507.459H233.436V476.67V465.287V455.716C233.436 438.073 247.465 423.69 264.999 423.152V445.946Z" stroke="#E58C00" stroke-width="2.03571"/>
    <path d="M211.287 475.921H225.682C225.144 493.433 210.76 507.482 193.117 507.482H178.722C179.26 489.969 193.623 475.921 211.287 475.921Z" stroke="#E58C00" stroke-width="2.03571"/>
    <path d="M179.652 335.708H194.047C211.711 335.708 226.075 349.757 226.612 367.269H212.217C194.573 367.269 180.19 353.24 179.652 335.708Z" stroke="#E58C00" stroke-width="2.03571"/>
    <path d="M264.999 343.71V393.774V405.222H233.436V374.433V363.05V353.479C233.436 335.837 247.465 321.454 264.999 320.916V343.71Z" stroke="#E58C00" stroke-width="2.03571"/>
    <path d="M211.287 373.682H225.682C225.144 391.195 210.76 405.244 193.117 405.244H178.722C179.26 387.731 193.623 373.682 211.287 373.682Z" stroke="#E58C00" stroke-width="2.03571"/>
    <path d="M179.652 233.468H194.047C211.711 233.468 226.075 247.516 226.612 265.029H212.217C194.573 265.029 180.19 251 179.652 233.468Z" stroke="#E58C00" stroke-width="2.03571"/>
    <path d="M264.999 241.47V291.534V302.982H233.436V272.193V260.81V251.239C233.436 233.596 247.466 219.213 264.999 218.676V241.47Z" stroke="#E58C00" stroke-width="2.03571"/>
    <path d="M211.287 271.442H225.682C225.144 288.954 210.76 303.004 193.117 303.004H178.722C179.26 285.491 193.623 271.442 211.287 271.442Z" stroke="#E58C00" stroke-width="2.03571"/>
    <path d="M179.652 28.9911H194.047C211.711 28.9911 226.075 43.0398 226.612 60.5525H212.217C194.573 60.5525 180.189 46.5235 179.652 28.9911Z" stroke="#E58C00" stroke-width="2.03571"/>
    <path d="M264.999 36.9891V87.0532V98.5017H233.436V67.7128V56.3296V46.7588C233.436 29.1159 247.465 14.7329 264.999 14.1951V36.9891Z" stroke="#E58C00" stroke-width="2.03571"/>
    <path d="M211.287 66.9637H225.682C225.144 84.476 210.76 98.5251 193.117 98.5251H178.722C179.26 81.0124 193.623 66.9637 211.287 66.9637Z" stroke="#E58C00" stroke-width="2.03571"/>
    <path d="M179.652 131.227H194.047C211.711 131.227 226.075 145.276 226.612 162.789H212.217C194.573 162.789 180.19 148.76 179.652 131.227Z" stroke="#E58C00" stroke-width="2.03571"/>
    <path d="M264.999 139.229V189.293V200.742H233.436V169.953V158.57V148.999C233.436 131.356 247.465 116.973 264.999 116.435V139.229Z" stroke="#E58C00" stroke-width="2.03571"/>
    <path d="M211.287 169.202H225.682C225.144 186.714 210.76 200.763 193.117 200.763H178.722C179.26 183.251 193.623 169.202 211.287 169.202Z" stroke="#E58C00" stroke-width="2.03571"/>
    <path d="M212.216 571.748C194.574 571.769 180.19 557.721 179.652 540.186H194.047C211.711 540.186 226.075 554.235 226.612 571.748L212.217 571.748L212.216 571.748Z" stroke="#E58C00" stroke-width="2.03571"/>
    <path d="M264.999 548.187V598.251V609.677H233.436V578.889V567.527V557.957C233.436 540.314 247.465 525.931 264.999 525.393V548.187Z" stroke="#E58C00" stroke-width="2.03571"/>
    <path d="M-18.7554 437.946H-4.36001C13.3042 437.946 27.6676 451.995 28.2052 469.508H13.8098C-3.83396 469.508 -18.2176 455.479 -18.7554 437.946Z" stroke="#E58C00" stroke-width="2.03571"/>
    <path d="M66.5917 445.948V496.012V507.461H35.0288V476.672V465.289V455.718C35.0288 438.075 49.0583 423.692 66.5917 423.154V445.948Z" stroke="#E58C00" stroke-width="2.03571"/>
    <path d="M12.8799 475.921H27.2753C26.7368 493.433 12.353 507.482 -5.2899 507.482H-19.6853C-19.1477 489.969 -4.78429 475.921 12.8799 475.921Z" stroke="#E58C00" stroke-width="2.03571"/>
    <path d="M-18.7556 335.71H-4.36021C13.304 335.71 27.6674 349.759 28.205 367.271H13.8096C-3.83416 367.271 -18.2178 353.242 -18.7556 335.71Z" stroke="#E58C00" stroke-width="2.03571"/>
    <path d="M66.5915 343.71V393.774V405.222H35.0286V374.433V363.05V353.479C35.0286 335.837 49.0581 321.454 66.5915 320.916V343.71Z" stroke="#E58C00" stroke-width="2.03571"/>
    <path d="M12.8799 373.682H27.2753C26.7368 391.195 12.353 405.244 -5.2899 405.244H-19.6853C-19.1477 387.731 -4.78429 373.682 12.8799 373.682Z" stroke="#E58C00" stroke-width="2.03571"/>
    <path d="M-18.7556 233.468H-4.36021C13.304 233.468 27.6674 247.516 28.205 265.029H13.8096C-3.83416 265.029 -18.2178 251 -18.7556 233.468Z" stroke="#E58C00" stroke-width="2.03571"/>
    <path d="M66.5917 241.47V291.534V302.982H35.0288V272.193V260.81V251.239C35.0288 233.596 49.0583 219.213 66.5917 218.676V241.47Z" stroke="#E58C00" stroke-width="2.03571"/>
    <path d="M12.8799 271.442H27.2753C26.7368 288.954 12.353 303.004 -5.2899 303.004H-19.6853C-19.1477 285.491 -4.78429 271.442 12.8799 271.442Z" stroke="#E58C00" stroke-width="2.03571"/>
    <path d="M-18.7556 28.9871H-4.36021C13.304 28.9871 27.6674 43.0359 28.205 60.5485H13.8096C-3.83416 60.5485 -18.2178 46.5196 -18.7556 28.9871Z" stroke="#E58C00" stroke-width="2.03571"/>
    <path d="M66.5917 36.9891V87.0532V98.5017H35.0288V67.7128V56.3296V46.7588C35.0288 29.1159 49.0583 14.7329 66.5917 14.1951V36.9891Z" stroke="#E58C00" stroke-width="2.03571"/>
    <path d="M12.8799 66.9617H27.2753C26.7368 84.474 12.353 98.5232 -5.2899 98.5232H-19.6853C-19.1477 81.0105 -4.78429 66.9617 12.8799 66.9617Z" stroke="#E58C00" stroke-width="2.03571"/>
    <path d="M-18.7556 131.225H-4.36021C13.304 131.225 27.6674 145.274 28.205 162.787H13.8096C-3.83416 162.787 -18.2178 148.758 -18.7556 131.225Z" stroke="#E58C00" stroke-width="2.03571"/>
    <path d="M66.5915 139.227V189.292V200.74H35.0286V169.951V158.568V148.997C35.0286 131.354 49.0581 116.971 66.5915 116.433V139.227Z" stroke="#E58C00" stroke-width="2.03571"/>
    <path d="M12.8799 169.2H27.2753C26.7368 186.712 12.353 200.761 -5.2899 200.761H-19.6853C-19.1477 183.249 -4.78429 169.2 12.8799 169.2Z" stroke="#E58C00" stroke-width="2.03571"/>
    <path d="M13.8084 571.748C-3.83338 571.769 -18.2178 557.721 -18.7556 540.186H-4.36021C13.304 540.186 27.6674 554.235 28.205 571.748L13.8096 571.748L13.8084 571.748Z" stroke="#E58C00" stroke-width="2.03571"/>
    <path d="M66.5915 548.187V598.251V609.677H35.0286V578.889V567.527V557.957C35.0286 540.314 49.0581 525.931 66.5915 525.393V548.187Z" stroke="#E58C00" stroke-width="2.03571"/>
    <path d="M278.857 496.466H293.252C310.916 496.466 325.28 510.514 325.818 528.027H311.422C293.778 528.027 279.395 513.998 278.857 496.466Z" stroke="#E58C00" stroke-width="2.03571"/>
    <path d="M364.204 504.468V554.532V565.98H332.641V535.191V523.808V514.237C332.641 496.594 346.671 482.211 364.204 481.674V504.468Z" stroke="#E58C00" stroke-width="2.03571"/>
    <path d="M310.492 534.44H324.888C324.349 551.953 309.965 566.002 292.322 566.002H277.927C278.465 548.489 292.828 534.44 310.492 534.44Z" stroke="#E58C00" stroke-width="2.03571"/>
    <path d="M278.857 394.227H293.252C310.916 394.227 325.28 408.276 325.818 425.789H311.422C293.778 425.789 279.395 411.76 278.857 394.227Z" stroke="#E58C00" stroke-width="2.03571"/>
    <path d="M364.204 402.229V452.293V463.742H332.641V432.953V421.57V411.999C332.641 394.356 346.67 379.973 364.204 379.435V402.229Z" stroke="#E58C00" stroke-width="2.03571"/>
    <path d="M310.492 432.202H324.888C324.349 449.714 309.965 463.763 292.322 463.763H277.927C278.465 446.251 292.828 432.202 310.492 432.202Z" stroke="#E58C00" stroke-width="2.03571"/>
    <path d="M278.857 291.985H293.252C310.916 291.985 325.28 306.034 325.818 323.547H311.422C293.778 323.547 279.395 309.518 278.857 291.985Z" stroke="#E58C00" stroke-width="2.03571"/>
    <path d="M364.204 299.987V350.051V361.5H332.641V330.711V319.328V309.757C332.641 292.114 346.67 277.731 364.204 277.193V299.987Z" stroke="#E58C00" stroke-width="2.03571"/>
    <path d="M310.492 329.96H324.888C324.349 347.472 309.965 361.521 292.322 361.521H277.927C278.465 344.009 292.828 329.96 310.492 329.96Z" stroke="#E58C00" stroke-width="2.03571"/>
    <path d="M278.857 87.5086H293.252C310.916 87.5086 325.28 101.557 325.818 119.07H311.422C293.778 119.07 279.395 105.041 278.857 87.5086Z" stroke="#E58C00" stroke-width="2.03571"/>
    <path d="M364.204 95.5106V145.575V157.023H332.641V126.234V114.851V105.28C332.641 87.6374 346.67 73.2544 364.204 72.7166V95.5106Z" stroke="#E58C00" stroke-width="2.03571"/>
    <path d="M310.492 125.483H324.888C324.349 142.995 309.965 157.045 292.322 157.045H277.927C278.465 139.532 292.828 125.483 310.492 125.483Z" stroke="#E58C00" stroke-width="2.03571"/>
    <path d="M278.857 189.747H293.252C310.916 189.747 325.28 203.796 325.818 221.308H311.422C293.778 221.308 279.395 207.279 278.857 189.747Z" stroke="#E58C00" stroke-width="2.03571"/>
    <path d="M364.204 197.749V247.813V259.261H332.641V228.473V217.089V207.519C332.641 189.876 346.671 175.493 364.204 174.955V197.749Z" stroke="#E58C00" stroke-width="2.03571"/>
    <path d="M310.492 227.722H324.888C324.349 245.234 309.965 259.283 292.322 259.283H277.927C278.465 241.77 292.828 227.722 310.492 227.722Z" stroke="#E58C00" stroke-width="2.03571"/>
    <path d="M278.857 -14.7316H293.252C310.916 -14.7316 325.28 -0.682871 325.817 16.8298H311.422C293.778 16.8298 279.394 2.80088 278.857 -14.7316Z" stroke="#E58C00" stroke-width="2.03571"/>
    <path d="M364.204 -6.73354V43.3306V54.779H332.641V23.9901V12.6069V3.03613C332.641 -14.6067 346.67 -28.9898 364.204 -29.5275V-6.73354Z" stroke="#E58C00" stroke-width="2.03571"/>
    <path d="M310.492 23.241H324.888C324.349 40.7533 309.965 54.8025 292.322 54.8025H277.927C278.465 37.2898 292.828 23.241 310.492 23.241Z" stroke="#E58C00" stroke-width="2.03571"/>
    <path d="M80.4477 496.466H94.8431C112.507 496.466 126.871 510.514 127.408 528.027H113.013C95.3692 528.027 80.9855 513.998 80.4477 496.466Z" stroke="#E58C00" stroke-width="2.03571"/>
    <path d="M165.795 504.468V554.532V565.98H134.232V535.191V523.808V514.237C134.232 496.594 148.261 482.211 165.795 481.674V504.468Z" stroke="#E58C00" stroke-width="2.03571"/>
    <path d="M112.083 534.44H126.478C125.94 551.953 111.556 566.002 93.9132 566.002H79.5178C80.0555 548.489 94.4188 534.44 112.083 534.44Z" stroke="#E58C00" stroke-width="2.03571"/>
    <path d="M80.4477 394.227H94.8431C112.507 394.227 126.871 408.276 127.408 425.789H113.013C95.3692 425.789 80.9855 411.76 80.4477 394.227Z" stroke="#E58C00" stroke-width="2.03571"/>
    <path d="M165.795 402.229V452.293V463.742H134.232V432.953V421.57V411.999C134.232 394.356 148.261 379.973 165.795 379.435V402.229Z" stroke="#E58C00" stroke-width="2.03571"/>
    <path d="M112.083 432.202H126.478C125.94 449.714 111.556 463.763 93.9132 463.763H79.5178C80.0555 446.251 94.4188 432.202 112.083 432.202Z" stroke="#E58C00" stroke-width="2.03571"/>
    <path d="M80.4477 291.985H94.8431C112.507 291.985 126.871 306.034 127.408 323.547H113.013C95.3692 323.547 80.9855 309.518 80.4477 291.985Z" stroke="#E58C00" stroke-width="2.03571"/>
    <path d="M165.795 299.987V350.051V361.5H134.232V330.711V319.328V309.757C134.232 292.114 148.261 277.731 165.795 277.193V299.987Z" stroke="#E58C00" stroke-width="2.03571"/>
    <path d="M112.083 329.96H126.478C125.94 347.472 111.556 361.521 93.9132 361.521H79.5178C80.0555 344.009 94.4188 329.96 112.083 329.96Z" stroke="#E58C00" stroke-width="2.03571"/>
    <path d="M80.4477 87.5086H94.8431C112.507 87.5086 126.871 101.557 127.408 119.07H113.013C95.3692 119.07 80.9855 105.041 80.4477 87.5086Z" stroke="#E58C00" stroke-width="2.03571"/>
    <path d="M165.795 95.5106V145.575V157.023H134.232V126.234V114.851V105.28C134.232 87.6374 148.261 73.2544 165.795 72.7166V95.5106Z" stroke="#E58C00" stroke-width="2.03571"/>
    <path d="M112.083 125.483H126.478C125.94 142.995 111.556 157.045 93.9132 157.045H79.5178C80.0555 139.532 94.4188 125.483 112.083 125.483Z" stroke="#E58C00" stroke-width="2.03571"/>
    <path d="M80.4477 189.747H94.8431C112.507 189.747 126.871 203.796 127.408 221.308H113.013C95.3692 221.308 80.9855 207.279 80.4477 189.747Z" stroke="#E58C00" stroke-width="2.03571"/>
    <path d="M165.795 197.749V247.813V259.261H134.232V228.473V217.089V207.519C134.232 189.876 148.261 175.493 165.795 174.955V197.749Z" stroke="#E58C00" stroke-width="2.03571"/>
    <path d="M112.083 227.722H126.478C125.94 245.234 111.556 259.283 93.9132 259.283H79.5178C80.0555 241.77 94.4188 227.722 112.083 227.722Z" stroke="#E58C00" stroke-width="2.03571"/>
    <path d="M80.4475 -14.7316H94.8429C112.507 -14.7316 126.87 -0.682871 127.408 16.8298H113.013C95.369 16.8298 80.9853 2.80088 80.4475 -14.7316Z" stroke="#E58C00" stroke-width="2.03571"/>
    <path d="M165.795 -6.73354V43.3306V54.779H134.232V23.9901V12.6069V3.03613C134.232 -14.6067 148.261 -28.9898 165.795 -29.5275V-6.73354Z" stroke="#E58C00" stroke-width="2.03571"/>
    <path d="M112.083 23.241H126.478C125.94 40.7533 111.556 54.8025 93.9132 54.8025H79.5178C80.0555 37.2898 94.4188 23.241 112.083 23.241Z" stroke="#E58C00" stroke-width="2.03571"/>
    </g>
    <rect y="573" width="572" height="375" transform="rotate(-90 0 573)" fill="url(#paint0_linear_1596_88197)"/>
    <defs>
    <linearGradient id="paint0_linear_1596_88197" x1="613.148" y1="760.5" x2="-1.91963e-06" y2="760.5" gradientUnits="userSpaceOnUse">
    <stop stop-color="#FFF3E0" stop-opacity="0"/>
    <stop offset="0.166653" stop-color="#FFF3E0"/>
    <stop offset="0.906267" stop-color="#FFF3E0"/>
    <stop offset="1" stop-color="#FFF3E0" stop-opacity="0"/>
    </linearGradient>
    <clipPath id="clip0_1596_88197">
    <rect width="573" height="375" fill="white" transform="matrix(0 -1 1 0 0 573)"/>
    </clipPath>
    </defs>
    </svg>
    