  <svg
        width="1440"
        height="652"
        viewBox="0 0 1440 652"
        fill="none"
        xmlns="http://www.w3.org/2000/svg"
        className="w-[1440px] h-[652px] relative"
        preserveAspectRatio="none"
      >
        <g clip-path="url(#clip0_342_21059)">
          <rect width="1440" height="652" fill="#F0F0F5" />
          <g opacity="0.06" clip-path="url(#clip1_342_21059)">
            <path
              d="M861.844 448.586V515.33C861.844 596.3 796.741 661.974 716.123 663.044V596.301C716.123 515.426 781.133 449.657 861.844 448.586Z"
              stroke="#004C46"
              stroke-width="4"
            />
            <path
              d="M692.62 592.158V658.902C612.003 657.83 546.899 592.061 546.899 511.187V444.444C627.516 445.514 692.62 511.188 692.62 592.158Z"
              stroke="#004C46"
              stroke-width="4"
            />
            <path
              d="M260.507 596.301L260.507 596.299C260.41 515.427 325.512 449.657 406.227 448.586V515.33C406.227 596.3 341.124 661.974 260.507 663.044L260.507 596.301Z"
              stroke="#004C46"
              stroke-width="4"
            />
            <path
              d="M91.2827 511.19V511.187V444.444C171.9 445.514 237.003 511.188 237.003 592.158V658.902C156.288 657.831 91.1863 592.061 91.2827 511.19Z"
              stroke="#004C46"
              stroke-width="4"
            />
            <path
              d="M1171.74 596.301L1171.74 596.299C1171.64 515.427 1236.74 449.657 1317.46 448.586V515.33C1317.46 596.3 1252.36 661.974 1171.74 663.044L1171.74 596.301Z"
              stroke="#004C46"
              stroke-width="4"
            />
            <path
              d="M1002.51 511.19V511.187V444.444C1083.13 445.514 1148.23 511.188 1148.23 592.158V658.902C1067.52 657.831 1002.42 592.061 1002.51 511.19Z"
              stroke="#004C46"
              stroke-width="4"
            />
            <path
              d="M601.059 6.49665V73.2399C601.059 154.21 535.956 219.884 455.338 220.954V154.211C455.338 73.3359 520.348 7.56713 601.059 6.49665Z"
              stroke="#004C46"
              stroke-width="4"
            />
            <path
              d="M562.871 391.965H339.767H286.213V246.237H425.955H476.683H519.334C600.205 246.237 665.971 311.249 667.041 391.965H562.871Z"
              stroke="#004C46"
              stroke-width="4"
            />
            <path
              d="M431.835 150.068V216.812C351.218 215.74 286.114 149.971 286.114 69.0973V2.35409C366.731 3.42425 431.835 69.0981 431.835 150.068Z"
              stroke="#004C46"
              stroke-width="4"
            />
            <path
              d="M1512.29 6.49665V73.2399C1512.29 154.21 1447.19 219.884 1366.57 220.954V154.211C1366.57 73.3359 1431.58 7.56713 1512.29 6.49665Z"
              stroke="#004C46"
              stroke-width="4"
            />
            <path
              d="M1474.1 391.965H1251H1197.45V246.237H1337.19H1387.92H1430.57C1511.44 246.237 1577.2 311.249 1578.27 391.965H1474.1Z"
              stroke="#004C46"
              stroke-width="4"
            />
            <path
              d="M1343.07 150.068V216.812C1262.45 215.74 1197.35 149.971 1197.35 69.0973V2.35409C1277.96 3.42425 1343.07 69.0981 1343.07 150.068Z"
              stroke="#004C46"
              stroke-width="4"
            />
            <path
              d="M-0.275891 154.211L-0.275894 154.209C-0.37228 73.3375 64.7296 7.56712 145.445 6.49665V73.2399C145.445 154.21 80.3417 219.884 -0.275893 220.954L-0.275891 154.211Z"
              stroke="#004C46"
              stroke-width="4"
            />
            <path
              d="M107.254 391.964H-115.849H-169.305V246.236H-29.5629H21.0663H63.7171C144.588 246.236 210.354 311.248 211.425 391.964H107.254Z"
              stroke="#004C46"
              stroke-width="4"
            />
            <path
              d="M910.953 154.211L910.953 154.209C910.857 73.3375 975.959 7.56712 1056.67 6.49665V73.2399C1056.67 154.21 991.571 219.884 910.953 220.954L910.953 154.211Z"
              stroke="#004C46"
              stroke-width="4"
            />
            <path
              d="M1018.49 391.964H795.383H741.927V246.236H881.669H932.298H974.949C1055.82 246.236 1121.59 311.248 1122.66 391.964H1018.49Z"
              stroke="#004C46"
              stroke-width="4"
            />
            <path
              d="M741.731 69.0997V69.0973V2.35409C822.349 3.42425 887.452 69.0981 887.452 150.068V216.812C806.737 215.741 741.635 149.971 741.731 69.0997Z"
              stroke="#004C46"
              stroke-width="4"
            />
          </g>
        </g>
        <defs>
          <clippath id="clip0_342_21059">
            <rect width="1440" height="652" fill="white" />
          </clippath>
          <clippath id="clip1_342_21059">
            <rect width="1440" height="652" fill="white" />
          </clippath>
        </defs>
      </svg>