<svg width="1440" height="722" viewBox="0 0 1440 722" fill="none" xmlns="http://www.w3.org/2000/svg">
    <g clip-path="url(#clip0_328_34182)">
        <rect width="1440" height="722" fill="#FFF7EB" />
        <g opacity="0.08" clip-path="url(#clip1_328_34182)">
            <path
                d="M502.546 409.756V470.519C502.546 544.294 443.276 604.143 369.845 605.212V544.449C369.845 470.76 429.03 410.825 502.546 409.756Z"
                stroke="#E58C00" stroke-width="4" />
            <path
                d="M467.854 761.354H264.15H215.427V628.646H342.844H389.16H428.102C501.787 628.646 561.72 687.834 562.789 761.354H467.854Z"
                stroke="#E58C00" stroke-width="4" />
            <path
                d="M348.038 540.666V601.429C274.607 600.359 215.336 540.423 215.336 466.736V405.973C288.767 407.042 348.038 466.891 348.038 540.666Z"
                stroke="#E58C00" stroke-width="4" />
            <path
                d="M918.543 409.756V470.519C918.543 544.294 859.273 604.143 785.842 605.212V544.449C785.842 470.76 845.027 410.825 918.543 409.756Z"
                stroke="#E58C00" stroke-width="4" />
            <path
                d="M883.85 761.354H680.146H631.423V628.646H758.84H805.156H844.098C917.783 628.646 977.716 687.834 978.785 761.354H883.85Z"
                stroke="#E58C00" stroke-width="4" />
            <path
                d="M764.035 540.666V601.429C690.604 600.359 631.333 540.423 631.333 466.736V405.973C704.764 407.042 764.035 466.891 764.035 540.666Z"
                stroke="#E58C00" stroke-width="4" />
            <path
                d="M1334.54 409.756V470.519C1334.54 544.294 1275.27 604.143 1201.84 605.212V544.449C1201.84 470.76 1261.02 410.825 1334.54 409.756Z"
                stroke="#E58C00" stroke-width="4" />
            <path
                d="M1299.85 761.354H1096.14H1047.42V628.646H1174.84H1221.15H1260.1C1333.78 628.646 1393.71 687.834 1394.78 761.354H1299.85Z"
                stroke="#E58C00" stroke-width="4" />
            <path
                d="M1180.03 540.666V601.429C1106.6 600.359 1047.33 540.423 1047.33 466.736V405.973C1120.76 407.042 1180.03 466.891 1180.03 540.666Z"
                stroke="#E58C00" stroke-width="4" />
            <path
                d="M-46.1522 544.446C-46.2401 470.762 13.0292 410.825 86.5494 409.756V470.519C86.5494 544.294 27.2789 604.143 -46.1522 605.212L-46.1522 544.449L-46.1522 544.446Z"
                stroke="#E58C00" stroke-width="4" />
            <path
                d="M51.8545 761.354H-151.849H-200.482V628.646H-73.0655H-26.8389H12.1031C85.7881 628.646 145.721 687.834 146.79 761.354H51.8545Z"
                stroke="#E58C00" stroke-width="4" />
            <path
                d="M264.439 6.1078V66.8709C264.439 140.646 205.168 200.495 131.737 201.564V140.801C131.737 67.1127 190.922 7.17726 264.439 6.1078Z"
                stroke="#E58C00" stroke-width="4" />
            <path
                d="M229.747 357.706H26.0438H-22.6797V224.998H104.737H151.054H189.996C263.681 224.998 323.614 284.186 324.683 357.706H229.747Z"
                stroke="#E58C00" stroke-width="4" />
            <path
                d="M109.931 137.019V197.782C36.5009 196.711 -22.7705 136.775 -22.7705 63.0885V2.32534C50.6606 3.39448 109.931 63.2435 109.931 137.019Z"
                stroke="#E58C00" stroke-width="4" />
            <path
                d="M680.442 6.1078V66.8709C680.442 140.646 621.171 200.495 547.74 201.564V140.801C547.74 67.1127 606.925 7.17726 680.442 6.1078Z"
                stroke="#E58C00" stroke-width="4" />
            <path
                d="M645.745 357.706H442.042H393.318V224.998H520.735H567.052H605.994C679.679 224.998 739.612 284.186 740.681 357.706H645.745Z"
                stroke="#E58C00" stroke-width="4" />
            <path
                d="M525.93 137.019V197.782C452.5 196.711 393.229 136.775 393.229 63.0885V2.32534C466.66 3.39448 525.93 63.2435 525.93 137.019Z"
                stroke="#E58C00" stroke-width="4" />
            <path
                d="M1096.44 6.1078V66.8709C1096.44 140.646 1037.17 200.495 963.735 201.564V140.801C963.735 67.1127 1022.92 7.17726 1096.44 6.1078Z"
                stroke="#E58C00" stroke-width="4" />
            <path
                d="M1061.74 357.706H858.04H809.316V224.998H936.733H983.05H1021.99C1095.68 224.998 1155.61 284.186 1156.68 357.706H1061.74Z"
                stroke="#E58C00" stroke-width="4" />
            <path
                d="M941.928 137.019V197.782C868.498 196.711 809.227 136.775 809.227 63.0885V2.32534C882.658 3.39448 941.928 63.2435 941.928 137.019Z"
                stroke="#E58C00" stroke-width="4" />
            <path
                d="M1512.44 6.1078V66.8709C1512.44 140.646 1453.17 200.495 1379.73 201.564V140.801C1379.73 67.1127 1438.92 7.17726 1512.44 6.1078Z"
                stroke="#E58C00" stroke-width="4" />
            <path
                d="M1477.74 357.706H1274.04H1225.32V224.998H1352.73H1399.05H1437.99C1511.68 224.998 1571.61 284.186 1572.68 357.706H1477.74Z"
                stroke="#E58C00" stroke-width="4" />
            <path
                d="M1357.93 137.019V197.782C1284.5 196.711 1225.22 136.775 1225.22 63.0885V2.32534C1298.66 3.39448 1357.93 63.2435 1357.93 137.019Z"
                stroke="#E58C00" stroke-width="4" />
        </g>
    </g>
    <defs>
        <clipPath id="clip0_328_34182">
            <rect width="1440" height="722" fill="white" />
        </clipPath>
        <clipPath id="clip1_328_34182">
            <rect width="1440" height="722" fill="white" />
        </clipPath>
    </defs>
</svg>
    