<svg width="600" height="224" viewBox="0 0 600 224" fill="none" xmlns="http://www.w3.org/2000/svg">
<path d="M4.5 18V7.24H0.28V4.8H11.44V7.24H7.2V18H4.5ZM20.2353 18L19.4953 16.28H14.0953L13.3553 18H10.4553L16.3553 4.56H17.2553L23.1353 18H20.2353ZM18.5553 14.06L16.7953 9.6L15.0353 14.06H18.5553ZM36.078 18H33.038L29.618 13.34H27.638V18H24.938V4.8H29.898C32.658 4.8 34.658 6.52 34.658 9.06C34.658 10.74 33.778 12.1 32.338 12.82L36.078 18ZM27.638 7.18V10.96H29.898C31.158 10.96 31.898 10.2 31.898 9.06C31.898 7.94 31.118 7.18 29.898 7.18H27.638ZM36.678 11.4C36.598 7.6 39.838 4.5 43.738 4.56C46.058 4.56 48.018 5.6 49.298 7.42L47.378 9C46.438 7.7 45.218 7.06 43.698 7.06C41.178 7.06 39.458 8.88 39.458 11.4C39.458 13.96 41.238 15.82 43.858 15.82C45.378 15.82 46.598 15.2 47.338 14.18V13.1H43.698V10.76H50.038V14.66C49.438 15.72 48.578 16.6 47.458 17.26C46.358 17.92 45.118 18.24 43.738 18.24C39.858 18.32 36.618 15.18 36.678 11.4ZM52.3794 18V4.8H61.2594V7.24H55.0794V9.92H59.6194V12.22H55.0794V15.56H61.4994V18H52.3794ZM66.8242 18V7.24H62.6042V4.8H73.7642V7.24H69.5242V18H66.8242ZM74.6234 15.32L76.4834 13.92C77.3434 15.1 78.2834 15.84 79.7234 15.84C80.9034 15.84 81.6034 15.28 81.6034 14.38C81.6034 13.6 81.1834 13.32 79.9234 12.74L78.5034 12.1C76.4834 11.2 75.3034 10.06 75.3034 8.3C75.3034 6.04 77.1834 4.56 79.6834 4.56C81.7034 4.56 83.2234 5.54 84.0434 7.06L82.2034 8.48C81.5234 7.46 80.6834 6.96 79.6834 6.96C78.7434 6.96 78.0434 7.42 78.0434 8.24C78.0434 8.94 78.4634 9.26 79.5834 9.76L81.0834 10.42C83.3034 11.4 84.3434 12.5 84.3434 14.28C84.3434 16.7 82.3634 18.24 79.7234 18.24C77.4834 18.24 75.6434 17.1 74.6234 15.32Z" fill="#31BC2E"/>
<path d="M18.8039 47.328C18.8039 44.448 21.1719 42.24 24.0199 42.24C26.8999 42.24 29.2039 44.448 29.2039 47.328C29.2039 50.208 26.8999 52.384 24.0199 52.384C21.1719 52.384 18.8039 50.144 18.8039 47.328Z" fill="#31BC2E"/>
<path d="M48.656 48.904L49.584 48.216C50.368 49.416 51.36 50.024 52.528 50.024C53.792 50.024 54.656 49.336 54.656 48.264C54.656 47.304 54.08 46.984 52.896 46.408L51.712 45.848C50.256 45.16 49.328 44.424 49.328 43.016C49.328 41.368 50.784 40.264 52.512 40.264C53.92 40.264 55.136 40.984 55.824 42.056L54.912 42.744C54.336 41.896 53.456 41.416 52.496 41.416C51.456 41.416 50.624 41.976 50.624 42.952C50.624 43.256 50.688 43.512 50.832 43.72C51.104 44.12 51.488 44.328 52.32 44.728L53.488 45.288C55.152 46.104 55.952 46.872 55.952 48.232C55.952 49.976 54.512 51.176 52.544 51.176C50.896 51.176 49.488 50.312 48.656 48.904ZM62.4598 49.96V51C61.9638 51.112 61.5318 51.176 61.1638 51.176C59.5478 51.176 58.5398 50.36 58.5398 48.648V44.312H57.2278V43.208H58.5398V41.08H59.7718V43.208H62.2038V44.312H59.7718V48.568C59.7718 49.672 60.3478 50.056 61.4198 50.056C61.7238 50.056 62.0598 50.024 62.4598 49.96ZM68.4415 43.208V44.296H67.9775C66.6655 44.296 65.5295 45.144 65.5295 46.584V51H64.2975V43.208H65.4495V44.312C66.0095 43.56 66.9215 43.144 67.8655 43.144C68.0415 43.144 68.2335 43.16 68.4415 43.208ZM76.8181 47.48H70.6581C70.8021 49.016 71.9861 50.04 73.5221 50.04C74.4021 50.04 75.2021 49.688 75.9061 48.984L76.6261 49.816C75.8101 50.664 74.7381 51.176 73.5061 51.176C71.1861 51.176 69.3781 49.4 69.3781 47.112C69.3781 44.856 71.1381 43.032 73.3621 43.032C75.3781 43.032 76.9141 44.488 76.9141 46.552C76.9141 46.856 76.8821 47.16 76.8181 47.48ZM70.7061 46.392H75.6501C75.6341 45 74.6261 44.152 73.3301 44.152C72.0341 44.152 70.9781 45.048 70.7061 46.392ZM85.5268 46.104V51H84.2948V46.248C84.2948 45.016 83.5588 44.168 82.3588 44.168C81.1588 44.168 80.3108 45.032 80.3108 46.248V51H79.0788V43.208H80.2308V44.04C80.8068 43.4 81.6548 43.032 82.6308 43.032C84.4388 43.032 85.5268 44.264 85.5268 46.104ZM94.4613 43.208H95.6293V50.248C95.6293 52.616 94.1413 54.056 91.8373 54.056C90.3173 54.056 89.0533 53.432 88.1733 52.552L88.8932 51.688C89.7733 52.456 90.6373 52.92 91.8053 52.92C93.4213 52.92 94.3973 51.992 94.3973 50.312V49.624C93.7733 50.44 92.6693 50.92 91.5013 50.92C89.3093 50.92 87.6773 49.24 87.6773 46.984C87.6773 44.744 89.3093 43.032 91.5013 43.032C92.7333 43.032 93.8693 43.56 94.4613 44.456V43.208ZM94.4133 46.984C94.4133 45.112 93.1013 44.2 91.6933 44.2C90.1093 44.2 88.9253 45.368 88.9253 47C88.9253 48.648 90.1093 49.784 91.6933 49.784C93.1173 49.784 94.4133 48.872 94.4133 46.984ZM102.585 49.96V51C102.089 51.112 101.657 51.176 101.289 51.176C99.6728 51.176 98.6648 50.36 98.6648 48.648V44.312H97.3528V43.208H98.6648V41.08H99.8968V43.208H102.329V44.312H99.8968V48.568C99.8968 49.672 100.473 50.056 101.545 50.056C101.849 50.056 102.185 50.024 102.585 49.96ZM110.871 46.104V51H109.639V46.264C109.639 45 108.903 44.168 107.703 44.168C106.503 44.168 105.655 45.048 105.655 46.264V51H104.423V39H105.655V44.088C106.183 43.432 107.015 43.032 107.991 43.032C109.783 43.032 110.871 44.264 110.871 46.104ZM120.365 47.48H114.205C114.349 49.016 115.533 50.04 117.069 50.04C117.949 50.04 118.749 49.688 119.453 48.984L120.173 49.816C119.357 50.664 118.285 51.176 117.053 51.176C114.733 51.176 112.925 49.4 112.925 47.112C112.925 44.856 114.685 43.032 116.909 43.032C118.925 43.032 120.461 44.488 120.461 46.552C120.461 46.856 120.429 47.16 120.365 47.48ZM114.253 46.392H119.197C119.181 45 118.173 44.152 116.877 44.152C115.581 44.152 114.525 45.048 114.253 46.392ZM129.074 46.104V51H127.842V46.248C127.842 45.016 127.106 44.168 125.906 44.168C124.706 44.168 123.858 45.032 123.858 46.248V51H122.626V43.208H123.778V44.04C124.354 43.4 125.202 43.032 126.178 43.032C127.986 43.032 129.074 44.264 129.074 46.104ZM142.013 46.2V51H140.861V49.992C140.285 50.76 139.373 51.176 138.237 51.176C136.637 51.176 135.517 50.328 135.517 48.984C135.517 47.656 136.637 46.808 138.317 46.808H140.781V46.136C140.781 44.856 140.061 44.168 138.893 44.168C137.949 44.168 137.261 44.584 136.621 45.416L135.805 44.744C136.509 43.592 137.677 43.032 138.973 43.032C140.813 43.032 142.013 44.152 142.013 46.2ZM140.781 48.008V47.816H138.461C137.373 47.816 136.781 48.2 136.781 48.92C136.781 49.704 137.485 50.152 138.397 50.152C139.677 50.152 140.781 49.208 140.781 48.008ZM151.074 46.104V51H149.842V46.248C149.842 45.016 149.106 44.168 147.906 44.168C146.706 44.168 145.858 45.032 145.858 46.248V51H144.626V43.208H145.778V44.04C146.354 43.4 147.202 43.032 148.178 43.032C149.986 43.032 151.074 44.264 151.074 46.104ZM159.864 39H161.096V51H159.928V49.768C159.336 50.648 158.2 51.176 156.984 51.176C154.792 51.176 153.128 49.4 153.128 47.112C153.128 44.824 154.792 43.032 156.984 43.032C158.152 43.032 159.24 43.528 159.864 44.36V39ZM159.88 47.112C159.88 45.128 158.568 44.168 157.16 44.168C155.576 44.168 154.392 45.416 154.392 47.096C154.392 48.776 155.576 50.04 157.16 50.04C158.568 50.04 159.88 49.08 159.88 47.112ZM168.282 51V43.208H169.514V51H168.282ZM167.978 40.232C167.978 39.736 168.394 39.336 168.906 39.336C169.402 39.336 169.818 39.736 169.818 40.232C169.818 40.744 169.418 41.128 168.906 41.128C168.394 41.128 167.978 40.744 167.978 40.232ZM183.595 46.104V51H182.363V46.264C182.363 45 181.675 44.168 180.523 44.168C179.355 44.168 178.523 45.048 178.523 46.152V51H177.291V46.264C177.291 45 176.571 44.168 175.435 44.168C174.267 44.168 173.451 45.032 173.451 46.264V51H172.219V43.208H173.371V44.024C173.931 43.384 174.731 43.032 175.691 43.032C176.827 43.032 177.643 43.528 178.091 44.376C178.667 43.56 179.611 43.032 180.763 43.032C182.555 43.032 183.595 44.248 183.595 46.104ZM194.156 47.096C194.156 49.384 192.492 51.176 190.3 51.176C189.148 51.176 188.076 50.696 187.436 49.88V53.88H186.204V43.208H187.356V44.456C187.948 43.56 189.084 43.032 190.3 43.032C192.524 43.032 194.156 44.808 194.156 47.096ZM192.892 47.112C192.892 45.432 191.708 44.168 190.124 44.168C188.732 44.168 187.42 45.128 187.42 47.096C187.42 49.08 188.684 50.04 190.124 50.04C191.708 50.04 192.892 48.792 192.892 47.112ZM200.457 43.208V44.296H199.993C198.681 44.296 197.545 45.144 197.545 46.584V51H196.313V43.208H197.465V44.312C198.025 43.56 198.937 43.144 199.881 43.144C200.057 43.144 200.249 43.16 200.457 43.208ZM201.394 47.096C201.346 44.872 203.25 42.984 205.474 43.032C207.698 43 209.602 44.872 209.554 47.096C209.602 49.288 207.682 51.208 205.458 51.16C203.234 51.208 201.362 49.288 201.394 47.096ZM208.29 47.112C208.29 45.432 207.058 44.168 205.474 44.168C203.874 44.168 202.658 45.432 202.658 47.112C202.658 48.744 203.874 50.024 205.458 50.024C207.042 50.024 208.29 48.744 208.29 47.112ZM216.943 43.208H218.255L214.591 51.176H214.143L210.463 43.208H211.775L214.367 49.08L216.943 43.208ZM226.599 47.48H220.439C220.583 49.016 221.767 50.04 223.303 50.04C224.183 50.04 224.983 49.688 225.687 48.984L226.407 49.816C225.591 50.664 224.519 51.176 223.287 51.176C220.967 51.176 219.159 49.4 219.159 47.112C219.159 44.856 220.919 43.032 223.143 43.032C225.159 43.032 226.695 44.488 226.695 46.552C226.695 46.856 226.663 47.16 226.599 47.48ZM220.487 46.392H225.431C225.415 45 224.407 44.152 223.111 44.152C221.815 44.152 220.759 45.048 220.487 46.392ZM237.488 43.208V44.296H237.024C235.712 44.296 234.576 45.144 234.576 46.584V51H233.344V43.208H234.496V44.312C235.056 43.56 235.968 43.144 236.912 43.144C237.088 43.144 237.28 43.16 237.488 43.208ZM245.865 47.48H239.705C239.849 49.016 241.033 50.04 242.569 50.04C243.449 50.04 244.249 49.688 244.953 48.984L245.673 49.816C244.857 50.664 243.785 51.176 242.553 51.176C240.233 51.176 238.425 49.4 238.425 47.112C238.425 44.856 240.185 43.032 242.409 43.032C244.425 43.032 245.961 44.488 245.961 46.552C245.961 46.856 245.929 47.16 245.865 47.48ZM239.753 46.392H244.697C244.681 45 243.673 44.152 242.377 44.152C241.081 44.152 240.025 45.048 239.753 46.392ZM248.126 51V39H249.358V51H248.126ZM257.903 46.2V51H256.751V49.992C256.175 50.76 255.263 51.176 254.127 51.176C252.527 51.176 251.407 50.328 251.407 48.984C251.407 47.656 252.527 46.808 254.207 46.808H256.671V46.136C256.671 44.856 255.951 44.168 254.783 44.168C253.839 44.168 253.151 44.584 252.511 45.416L251.695 44.744C252.399 43.592 253.567 43.032 254.863 43.032C256.703 43.032 257.903 44.152 257.903 46.2ZM256.671 48.008V47.816H254.351C253.263 47.816 252.671 48.2 252.671 48.92C252.671 49.704 253.375 50.152 254.287 50.152C255.567 50.152 256.671 49.208 256.671 48.008ZM264.772 49.96V51C264.276 51.112 263.844 51.176 263.476 51.176C261.86 51.176 260.852 50.36 260.852 48.648V44.312H259.54V43.208H260.852V41.08H262.084V43.208H264.516V44.312H262.084V48.568C262.084 49.672 262.66 50.056 263.732 50.056C264.036 50.056 264.372 50.024 264.772 49.96ZM266.61 51V43.208H267.842V51H266.61ZM266.306 40.232C266.306 39.736 266.722 39.336 267.234 39.336C267.73 39.336 268.146 39.736 268.146 40.232C268.146 40.744 267.746 41.128 267.234 41.128C266.722 41.128 266.306 40.744 266.306 40.232ZM269.988 47.096C269.94 44.872 271.844 42.984 274.068 43.032C276.292 43 278.196 44.872 278.148 47.096C278.196 49.288 276.276 51.208 274.052 51.16C271.828 51.208 269.956 49.288 269.988 47.096ZM276.884 47.112C276.884 45.432 275.652 44.168 274.068 44.168C272.468 44.168 271.252 45.432 271.252 47.112C271.252 48.744 272.468 50.024 274.052 50.024C275.636 50.024 276.884 48.744 276.884 47.112ZM286.761 46.104V51H285.529V46.248C285.529 45.016 284.793 44.168 283.593 44.168C282.393 44.168 281.545 45.032 281.545 46.248V51H280.313V43.208H281.465V44.04C282.041 43.4 282.889 43.032 283.865 43.032C285.673 43.032 286.761 44.264 286.761 46.104ZM288.64 49.656L289.424 48.84C290.176 49.608 290.784 50.04 291.664 50.04C292.512 50.04 293.152 49.624 293.152 48.936C293.152 48.312 292.752 48.072 291.792 47.688L291.04 47.368C289.744 46.84 289.104 46.248 289.104 45.208C289.104 43.848 290.24 43.032 291.728 43.032C292.816 43.032 293.696 43.496 294.336 44.264L293.584 45.032C293.056 44.504 292.384 44.168 291.664 44.168C290.896 44.168 290.368 44.52 290.368 45.144C290.368 45.64 290.688 45.88 291.632 46.28L292.352 46.584C293.808 47.208 294.416 47.816 294.416 48.888C294.416 49.608 294.144 50.184 293.616 50.584C293.088 50.984 292.448 51.176 291.68 51.176C290.384 51.176 289.328 50.552 288.64 49.656ZM303.089 46.104V51H301.857V46.264C301.857 45 301.121 44.168 299.921 44.168C298.721 44.168 297.873 45.048 297.873 46.264V51H296.641V39H297.873V44.088C298.401 43.432 299.233 43.032 300.209 43.032C302.001 43.032 303.089 44.264 303.089 46.104ZM305.704 51V43.208H306.936V51H305.704ZM305.4 40.232C305.4 39.736 305.816 39.336 306.328 39.336C306.824 39.336 307.24 39.736 307.24 40.232C307.24 40.744 306.84 41.128 306.328 41.128C305.816 41.128 305.4 40.744 305.4 40.232ZM317.593 47.096C317.593 49.384 315.929 51.176 313.737 51.176C312.585 51.176 311.513 50.696 310.873 49.88V53.88H309.641V43.208H310.793V44.456C311.385 43.56 312.521 43.032 313.737 43.032C315.961 43.032 317.593 44.808 317.593 47.096ZM316.329 47.112C316.329 45.432 315.145 44.168 313.561 44.168C312.169 44.168 310.857 45.128 310.857 47.096C310.857 49.08 312.121 50.04 313.561 50.04C315.145 50.04 316.329 48.792 316.329 47.112ZM319.015 49.656L319.799 48.84C320.551 49.608 321.159 50.04 322.039 50.04C322.887 50.04 323.527 49.624 323.527 48.936C323.527 48.312 323.127 48.072 322.167 47.688L321.415 47.368C320.119 46.84 319.479 46.248 319.479 45.208C319.479 43.848 320.615 43.032 322.103 43.032C323.191 43.032 324.071 43.496 324.711 44.264L323.959 45.032C323.431 44.504 322.759 44.168 322.039 44.168C321.271 44.168 320.743 44.52 320.743 45.144C320.743 45.64 321.063 45.88 322.007 46.28L322.727 46.584C324.183 47.208 324.791 47.816 324.791 48.888C324.791 49.608 324.519 50.184 323.991 50.584C323.463 50.984 322.823 51.176 322.055 51.176C320.759 51.176 319.703 50.552 319.015 49.656ZM341.528 43.208H342.84L339.56 51.176H339.112L336.456 45.288L333.816 51.176H333.384L330.072 43.208H331.384L333.64 48.984L336.232 43.032H336.696L339.32 48.936L341.528 43.208ZM344.626 51V43.208H345.858V51H344.626ZM344.322 40.232C344.322 39.736 344.738 39.336 345.25 39.336C345.746 39.336 346.162 39.736 346.162 40.232C346.162 40.744 345.762 41.128 345.25 41.128C344.738 41.128 344.322 40.744 344.322 40.232ZM352.819 49.96V51C352.323 51.112 351.891 51.176 351.523 51.176C349.907 51.176 348.899 50.36 348.899 48.648V44.312H347.587V43.208H348.899V41.08H350.131V43.208H352.563V44.312H350.131V48.568C350.131 49.672 350.707 50.056 351.779 50.056C352.083 50.056 352.419 50.024 352.819 49.96ZM361.105 46.104V51H359.873V46.264C359.873 45 359.137 44.168 357.937 44.168C356.737 44.168 355.889 45.048 355.889 46.264V51H354.657V39H355.889V44.088C356.417 43.432 357.249 43.032 358.225 43.032C360.017 43.032 361.105 44.264 361.105 46.104ZM368.204 51V39H369.436V51H368.204ZM371.052 46.632L374.732 51H373.148L369.564 46.616L372.812 43.208H374.428L371.052 46.632ZM382.865 47.48H376.705C376.849 49.016 378.033 50.04 379.569 50.04C380.449 50.04 381.249 49.688 381.953 48.984L382.673 49.816C381.857 50.664 380.785 51.176 379.553 51.176C377.233 51.176 375.425 49.4 375.425 47.112C375.425 44.856 377.185 43.032 379.409 43.032C381.425 43.032 382.961 44.488 382.961 46.552C382.961 46.856 382.929 47.16 382.865 47.48ZM376.753 46.392H381.697C381.681 45 380.673 44.152 379.377 44.152C378.081 44.152 377.025 45.048 376.753 46.392ZM390.568 43.208H391.88L388.04 52.088C387.448 53.448 386.6 54.056 385.4 54.056C385 54.056 384.6 54.008 384.2 53.896V52.856C384.6 52.904 384.92 52.936 385.144 52.936C385.96 52.936 386.504 52.632 386.904 51.688L387.32 50.76L384.088 43.208H385.416L387.992 49.416L390.568 43.208ZM397.405 49.656L398.189 48.84C398.941 49.608 399.549 50.04 400.429 50.04C401.277 50.04 401.917 49.624 401.917 48.936C401.917 48.312 401.517 48.072 400.557 47.688L399.805 47.368C398.509 46.84 397.869 46.248 397.869 45.208C397.869 43.848 399.005 43.032 400.493 43.032C401.581 43.032 402.461 43.496 403.101 44.264L402.349 45.032C401.821 44.504 401.149 44.168 400.429 44.168C399.661 44.168 399.133 44.52 399.133 45.144C399.133 45.64 399.453 45.88 400.397 46.28L401.117 46.584C402.573 47.208 403.181 47.816 403.181 48.888C403.181 49.608 402.909 50.184 402.381 50.584C401.853 50.984 401.213 51.176 400.445 51.176C399.149 51.176 398.093 50.552 397.405 49.656ZM409.663 49.96V51C409.167 51.112 408.735 51.176 408.367 51.176C406.751 51.176 405.743 50.36 405.743 48.648V44.312H404.431V43.208H405.743V41.08H406.975V43.208H409.407V44.312H406.975V48.568C406.975 49.672 407.551 50.056 408.623 50.056C408.927 50.056 409.263 50.024 409.663 49.96ZM417.341 46.2V51H416.189V49.992C415.613 50.76 414.701 51.176 413.565 51.176C411.965 51.176 410.845 50.328 410.845 48.984C410.845 47.656 411.965 46.808 413.645 46.808H416.109V46.136C416.109 44.856 415.389 44.168 414.221 44.168C413.277 44.168 412.589 44.584 411.949 45.416L411.133 44.744C411.837 43.592 413.005 43.032 414.301 43.032C416.141 43.032 417.341 44.152 417.341 46.2ZM416.109 48.008V47.816H413.789C412.701 47.816 412.109 48.2 412.109 48.92C412.109 49.704 412.813 50.152 413.725 50.152C415.005 50.152 416.109 49.208 416.109 48.008ZM419.954 51V39H421.186V51H419.954ZM422.802 46.632L426.482 51H424.898L421.314 46.616L424.562 43.208H426.178L422.802 46.632ZM434.615 47.48H428.455C428.599 49.016 429.783 50.04 431.319 50.04C432.199 50.04 432.999 49.688 433.703 48.984L434.423 49.816C433.607 50.664 432.535 51.176 431.303 51.176C428.983 51.176 427.175 49.4 427.175 47.112C427.175 44.856 428.935 43.032 431.159 43.032C433.175 43.032 434.711 44.488 434.711 46.552C434.711 46.856 434.679 47.16 434.615 47.48ZM428.503 46.392H433.447C433.431 45 432.423 44.152 431.127 44.152C429.831 44.152 428.775 45.048 428.503 46.392ZM443.324 46.104V51H442.092V46.264C442.092 45 441.356 44.168 440.156 44.168C438.956 44.168 438.108 45.048 438.108 46.264V51H436.876V39H438.108V44.088C438.636 43.432 439.468 43.032 440.444 43.032C442.236 43.032 443.324 44.264 443.324 46.104ZM445.378 47.096C445.33 44.872 447.234 42.984 449.458 43.032C451.682 43 453.586 44.872 453.538 47.096C453.586 49.288 451.666 51.208 449.442 51.16C447.218 51.208 445.346 49.288 445.378 47.096ZM452.274 47.112C452.274 45.432 451.042 44.168 449.458 44.168C447.858 44.168 446.642 45.432 446.642 47.112C446.642 48.744 447.858 50.024 449.442 50.024C451.026 50.024 452.274 48.744 452.274 47.112ZM455.704 51V39H456.936V51H455.704ZM465.817 39H467.049V51H465.881V49.768C465.289 50.648 464.153 51.176 462.937 51.176C460.745 51.176 459.081 49.4 459.081 47.112C459.081 44.824 460.745 43.032 462.937 43.032C464.105 43.032 465.193 43.528 465.817 44.36V39ZM465.833 47.112C465.833 45.128 464.521 44.168 463.113 44.168C461.529 44.168 460.345 45.416 460.345 47.096C460.345 48.776 461.529 50.04 463.113 50.04C464.521 50.04 465.833 49.08 465.833 47.112ZM476.631 47.48H470.471C470.615 49.016 471.799 50.04 473.335 50.04C474.215 50.04 475.015 49.688 475.719 48.984L476.439 49.816C475.623 50.664 474.551 51.176 473.319 51.176C470.999 51.176 469.191 49.4 469.191 47.112C469.191 44.856 470.951 43.032 473.175 43.032C475.191 43.032 476.727 44.488 476.727 46.552C476.727 46.856 476.695 47.16 476.631 47.48ZM470.519 46.392H475.463C475.447 45 474.439 44.152 473.143 44.152C471.847 44.152 470.791 45.048 470.519 46.392ZM483.035 43.208V44.296H482.571C481.259 44.296 480.123 45.144 480.123 46.584V51H478.891V43.208H480.043V44.312C480.603 43.56 481.515 43.144 482.459 43.144C482.635 43.144 482.827 43.16 483.035 43.208ZM483.952 49.656L484.736 48.84C485.488 49.608 486.096 50.04 486.976 50.04C487.824 50.04 488.464 49.624 488.464 48.936C488.464 48.312 488.064 48.072 487.104 47.688L486.352 47.368C485.056 46.84 484.416 46.248 484.416 45.208C484.416 43.848 485.552 43.032 487.04 43.032C488.128 43.032 489.008 43.496 489.648 44.264L488.896 45.032C488.368 44.504 487.696 44.168 486.976 44.168C486.208 44.168 485.68 44.52 485.68 45.144C485.68 45.64 486 45.88 486.944 46.28L487.664 46.584C489.12 47.208 489.728 47.816 489.728 48.888C489.728 49.608 489.456 50.184 488.928 50.584C488.4 50.984 487.76 51.176 486.992 51.176C485.696 51.176 484.64 50.552 483.952 49.656Z" fill="#1D1D1F"/>
<path d="M18.8039 103.328C18.8039 100.448 21.1719 98.24 24.0199 98.24C26.8999 98.24 29.2039 100.448 29.2039 103.328C29.2039 106.208 26.8999 108.384 24.0199 108.384C21.1719 108.384 18.8039 106.144 18.8039 103.328Z" fill="#31BC2E"/>
<path d="M57.152 91.96C57.152 93.72 55.872 95 53.808 95H49.456V84.44H53.088C54 84.44 54.736 84.696 55.28 85.192C55.824 85.688 56.096 86.328 56.096 87.112C56.096 87.992 55.728 88.696 55.088 89.192C56.384 89.576 57.152 90.6 57.152 91.96ZM52.96 85.56H50.704V88.84H52.96C54.16 88.84 54.816 88.2 54.816 87.192C54.816 86.184 54.176 85.56 52.96 85.56ZM55.872 91.928C55.872 90.76 55.072 89.976 53.68 89.976H50.704V93.88H53.68C55.072 93.88 55.872 93.096 55.872 91.928ZM66.0994 91.48H59.9394C60.0834 93.016 61.2674 94.04 62.8034 94.04C63.6834 94.04 64.4834 93.688 65.1874 92.984L65.9074 93.816C65.0914 94.664 64.0194 95.176 62.7874 95.176C60.4674 95.176 58.6594 93.4 58.6594 91.112C58.6594 88.856 60.4194 87.032 62.6434 87.032C64.6594 87.032 66.1954 88.488 66.1954 90.552C66.1954 90.856 66.1634 91.16 66.0994 91.48ZM59.9874 90.392H64.9314C64.9154 89 63.9074 88.152 62.6114 88.152C61.3154 88.152 60.2594 89.048 59.9874 90.392ZM79.0204 83H80.2524V95H79.0844V93.768C78.4924 94.648 77.3564 95.176 76.1404 95.176C73.9484 95.176 72.2844 93.4 72.2844 91.112C72.2844 88.824 73.9484 87.032 76.1404 87.032C77.3084 87.032 78.3964 87.528 79.0204 88.36V83ZM79.0364 91.112C79.0364 89.128 77.7244 88.168 76.3164 88.168C74.7324 88.168 73.5484 89.416 73.5484 91.096C73.5484 92.776 74.7324 94.04 76.3164 94.04C77.7244 94.04 79.0364 93.08 79.0364 91.112ZM88.7938 90.2V95H87.6418V93.992C87.0658 94.76 86.1538 95.176 85.0178 95.176C83.4178 95.176 82.2978 94.328 82.2978 92.984C82.2978 91.656 83.4178 90.808 85.0978 90.808H87.5618V90.136C87.5618 88.856 86.8418 88.168 85.6738 88.168C84.7298 88.168 84.0418 88.584 83.4018 89.416L82.5858 88.744C83.2898 87.592 84.4578 87.032 85.7538 87.032C87.5938 87.032 88.7938 88.152 88.7938 90.2ZM87.5618 92.008V91.816H85.2418C84.1538 91.816 83.5618 92.2 83.5618 92.92C83.5618 93.704 84.2658 94.152 85.1778 94.152C86.4578 94.152 87.5618 93.208 87.5618 92.008ZM95.6629 93.96V95C95.1669 95.112 94.7349 95.176 94.3669 95.176C92.7509 95.176 91.7429 94.36 91.7429 92.648V88.312H90.4309V87.208H91.7429V85.08H92.9749V87.208H95.4069V88.312H92.9749V92.568C92.9749 93.672 93.5509 94.056 94.6229 94.056C94.9269 94.056 95.2629 94.024 95.6629 93.96ZM103.341 90.2V95H102.189V93.992C101.613 94.76 100.701 95.176 99.5646 95.176C97.9646 95.176 96.8446 94.328 96.8446 92.984C96.8446 91.656 97.9646 90.808 99.6446 90.808H102.109V90.136C102.109 88.856 101.389 88.168 100.221 88.168C99.2766 88.168 98.5886 88.584 97.9486 89.416L97.1326 88.744C97.8366 87.592 99.0046 87.032 100.301 87.032C102.141 87.032 103.341 88.152 103.341 90.2ZM102.109 92.008V91.816H99.7886C98.7006 91.816 98.1086 92.2 98.1086 92.92C98.1086 93.704 98.8126 94.152 99.7246 94.152C101.005 94.152 102.109 93.208 102.109 92.008ZM105.442 90.488V89.448H109.266V90.488H105.442ZM117.661 83H118.893V95H117.725V93.768C117.133 94.648 115.997 95.176 114.781 95.176C112.589 95.176 110.925 93.4 110.925 91.112C110.925 88.824 112.589 87.032 114.781 87.032C115.949 87.032 117.037 87.528 117.661 88.36V83ZM117.677 91.112C117.677 89.128 116.365 88.168 114.957 88.168C113.373 88.168 112.189 89.416 112.189 91.096C112.189 92.776 113.373 94.04 114.957 94.04C116.365 94.04 117.677 93.08 117.677 91.112ZM125.738 87.208V88.296H125.274C123.962 88.296 122.826 89.144 122.826 90.584V95H121.594V87.208H122.746V88.312C123.306 87.56 124.218 87.144 125.162 87.144C125.338 87.144 125.53 87.16 125.738 87.208ZM127.391 95V87.208H128.623V95H127.391ZM127.087 84.232C127.087 83.736 127.503 83.336 128.015 83.336C128.511 83.336 128.927 83.736 128.927 84.232C128.927 84.744 128.527 85.128 128.015 85.128C127.503 85.128 127.087 84.744 127.087 84.232ZM136.865 87.208H138.177L134.513 95.176H134.065L130.385 87.208H131.697L134.289 93.08L136.865 87.208ZM146.521 91.48H140.361C140.505 93.016 141.689 94.04 143.225 94.04C144.105 94.04 144.905 93.688 145.609 92.984L146.329 93.816C145.513 94.664 144.441 95.176 143.209 95.176C140.889 95.176 139.081 93.4 139.081 91.112C139.081 88.856 140.841 87.032 143.065 87.032C145.081 87.032 146.617 88.488 146.617 90.552C146.617 90.856 146.585 91.16 146.521 91.48ZM140.409 90.392H145.353C145.337 89 144.329 88.152 143.033 88.152C141.737 88.152 140.681 89.048 140.409 90.392ZM155.23 90.104V95H153.998V90.248C153.998 89.016 153.262 88.168 152.062 88.168C150.862 88.168 150.014 89.032 150.014 90.248V95H148.782V87.208H149.934V88.04C150.51 87.4 151.358 87.032 152.334 87.032C154.142 87.032 155.23 88.264 155.23 90.104ZM166.585 93.96V95C166.089 95.112 165.657 95.176 165.289 95.176C163.673 95.176 162.665 94.36 162.665 92.648V88.312H161.353V87.208H162.665V85.08H163.897V87.208H166.329V88.312H163.897V92.568C163.897 93.672 164.473 94.056 165.545 94.056C165.849 94.056 166.185 94.024 166.585 93.96ZM174.871 90.104V95H173.639V90.264C173.639 89 172.903 88.168 171.703 88.168C170.503 88.168 169.655 89.048 169.655 90.264V95H168.423V83H169.655V88.088C170.183 87.432 171.015 87.032 171.991 87.032C173.783 87.032 174.871 88.264 174.871 90.104ZM181.629 87.208V88.296H181.165C179.853 88.296 178.717 89.144 178.717 90.584V95H177.485V87.208H178.637V88.312C179.197 87.56 180.109 87.144 181.053 87.144C181.229 87.144 181.421 87.16 181.629 87.208ZM182.566 91.096C182.518 88.872 184.422 86.984 186.646 87.032C188.87 87 190.774 88.872 190.726 91.096C190.774 93.288 188.854 95.208 186.63 95.16C184.406 95.208 182.534 93.288 182.566 91.096ZM189.462 91.112C189.462 89.432 188.23 88.168 186.646 88.168C185.046 88.168 183.83 89.432 183.83 91.112C183.83 92.744 185.046 94.024 186.63 94.024C188.214 94.024 189.462 92.744 189.462 91.112ZM192.795 91.896V87.208H194.011V91.976C194.011 93.24 194.875 94.04 196.027 94.04C197.163 94.04 198.011 93.208 198.011 91.976V87.208H199.243V91.896C199.243 93.864 197.835 95.176 196.027 95.176C194.203 95.176 192.795 93.864 192.795 91.896ZM208.164 87.208H209.332V94.248C209.332 96.616 207.844 98.056 205.54 98.056C204.02 98.056 202.756 97.432 201.876 96.552L202.596 95.688C203.476 96.456 204.34 96.92 205.508 96.92C207.124 96.92 208.1 95.992 208.1 94.312V93.624C207.476 94.44 206.372 94.92 205.204 94.92C203.012 94.92 201.38 93.24 201.38 90.984C201.38 88.744 203.012 87.032 205.204 87.032C206.436 87.032 207.572 87.56 208.164 88.456V87.208ZM208.116 90.984C208.116 89.112 206.804 88.2 205.396 88.2C203.812 88.2 202.628 89.368 202.628 91C202.628 92.648 203.812 93.784 205.396 93.784C206.82 93.784 208.116 92.872 208.116 90.984ZM218.48 90.104V95H217.248V90.264C217.248 89 216.512 88.168 215.312 88.168C214.112 88.168 213.264 89.048 213.264 90.264V95H212.032V83H213.264V88.088C213.792 87.432 214.624 87.032 215.6 87.032C217.392 87.032 218.48 88.264 218.48 90.104ZM225.019 91.096C224.971 88.872 226.875 87 229.099 87.032C230.459 87.032 231.611 87.688 232.315 88.728L231.435 89.432C230.811 88.584 230.027 88.168 229.115 88.168C227.499 88.168 226.283 89.48 226.283 91.096C226.283 92.728 227.499 94.04 229.115 94.04C230.027 94.04 230.795 93.624 231.419 92.792L232.299 93.48C231.595 94.52 230.459 95.176 229.099 95.176C226.843 95.176 225.019 93.352 225.019 91.096ZM240.839 90.104V95H239.607V90.264C239.607 89 238.871 88.168 237.671 88.168C236.471 88.168 235.623 89.048 235.623 90.264V95H234.391V83H235.623V88.088C236.151 87.432 236.983 87.032 237.959 87.032C239.751 87.032 240.839 88.264 240.839 90.104ZM249.294 90.2V95H248.142V93.992C247.566 94.76 246.654 95.176 245.518 95.176C243.918 95.176 242.798 94.328 242.798 92.984C242.798 91.656 243.918 90.808 245.598 90.808H248.062V90.136C248.062 88.856 247.342 88.168 246.174 88.168C245.23 88.168 244.542 88.584 243.902 89.416L243.086 88.744C243.79 87.592 244.958 87.032 246.254 87.032C248.094 87.032 249.294 88.152 249.294 90.2ZM248.062 92.008V91.816H245.742C244.654 91.816 244.062 92.2 244.062 92.92C244.062 93.704 244.766 94.152 245.678 94.152C246.958 94.152 248.062 93.208 248.062 92.008ZM258.355 90.104V95H257.123V90.248C257.123 89.016 256.387 88.168 255.187 88.168C253.987 88.168 253.139 89.032 253.139 90.248V95H251.907V87.208H253.059V88.04C253.635 87.4 254.483 87.032 255.459 87.032C257.267 87.032 258.355 88.264 258.355 90.104ZM267.417 90.104V95H266.185V90.248C266.185 89.016 265.449 88.168 264.249 88.168C263.049 88.168 262.201 89.032 262.201 90.248V95H260.969V87.208H262.121V88.04C262.697 87.4 263.545 87.032 264.521 87.032C266.329 87.032 267.417 88.264 267.417 90.104ZM276.912 91.48H270.752C270.896 93.016 272.08 94.04 273.616 94.04C274.496 94.04 275.296 93.688 276 92.984L276.72 93.816C275.904 94.664 274.832 95.176 273.6 95.176C271.28 95.176 269.472 93.4 269.472 91.112C269.472 88.856 271.232 87.032 273.456 87.032C275.472 87.032 277.008 88.488 277.008 90.552C277.008 90.856 276.976 91.16 276.912 91.48ZM270.8 90.392H275.744C275.728 89 274.72 88.152 273.424 88.152C272.128 88.152 271.072 89.048 270.8 90.392ZM279.173 95V83H280.405V95H279.173ZM293.434 90.2V95H292.282V93.992C291.706 94.76 290.794 95.176 289.658 95.176C288.058 95.176 286.938 94.328 286.938 92.984C286.938 91.656 288.058 90.808 289.738 90.808H292.202V90.136C292.202 88.856 291.482 88.168 290.314 88.168C289.37 88.168 288.682 88.584 288.042 89.416L287.226 88.744C287.93 87.592 289.098 87.032 290.394 87.032C292.234 87.032 293.434 88.152 293.434 90.2ZM292.202 92.008V91.816H289.882C288.794 91.816 288.202 92.2 288.202 92.92C288.202 93.704 288.906 94.152 289.818 94.152C291.098 94.152 292.202 93.208 292.202 92.008ZM302.496 90.104V95H301.264V90.248C301.264 89.016 300.528 88.168 299.328 88.168C298.128 88.168 297.28 89.032 297.28 90.248V95H296.048V87.208H297.2V88.04C297.776 87.4 298.624 87.032 299.6 87.032C301.408 87.032 302.496 88.264 302.496 90.104ZM311.286 83H312.518V95H311.35V93.768C310.758 94.648 309.622 95.176 308.406 95.176C306.214 95.176 304.55 93.4 304.55 91.112C304.55 88.824 306.214 87.032 308.406 87.032C309.574 87.032 310.662 87.528 311.286 88.36V83ZM311.302 91.112C311.302 89.128 309.99 88.168 308.582 88.168C306.998 88.168 305.814 89.416 305.814 91.096C305.814 92.776 306.998 94.04 308.582 94.04C309.99 94.04 311.302 93.08 311.302 91.112ZM327.656 91.096C327.656 93.384 325.992 95.176 323.8 95.176C322.648 95.176 321.576 94.696 320.936 93.88V97.88H319.704V87.208H320.856V88.456C321.448 87.56 322.584 87.032 323.8 87.032C326.024 87.032 327.656 88.808 327.656 91.096ZM326.392 91.112C326.392 89.432 325.208 88.168 323.624 88.168C322.232 88.168 320.92 89.128 320.92 91.096C320.92 93.08 322.184 94.04 323.624 94.04C325.208 94.04 326.392 92.792 326.392 91.112ZM333.957 87.208V88.296H333.493C332.181 88.296 331.045 89.144 331.045 90.584V95H329.813V87.208H330.965V88.312C331.525 87.56 332.437 87.144 333.381 87.144C333.557 87.144 333.749 87.16 333.957 87.208ZM334.894 91.096C334.846 88.872 336.75 86.984 338.974 87.032C341.198 87 343.102 88.872 343.054 91.096C343.102 93.288 341.182 95.208 338.958 95.16C336.734 95.208 334.862 93.288 334.894 91.096ZM341.79 91.112C341.79 89.432 340.558 88.168 338.974 88.168C337.374 88.168 336.158 89.432 336.158 91.112C336.158 92.744 337.374 94.024 338.958 94.024C340.542 94.024 341.79 92.744 341.79 91.112ZM344.659 91.096C344.611 88.872 346.515 87 348.739 87.032C350.099 87.032 351.251 87.688 351.955 88.728L351.075 89.432C350.451 88.584 349.667 88.168 348.755 88.168C347.139 88.168 345.923 89.48 345.923 91.096C345.923 92.728 347.139 94.04 348.755 94.04C349.667 94.04 350.435 93.624 351.059 92.792L351.939 93.48C351.235 94.52 350.099 95.176 348.739 95.176C346.483 95.176 344.659 93.352 344.659 91.096ZM360.756 91.48H354.596C354.74 93.016 355.924 94.04 357.46 94.04C358.34 94.04 359.14 93.688 359.844 92.984L360.564 93.816C359.748 94.664 358.676 95.176 357.444 95.176C355.124 95.176 353.316 93.4 353.316 91.112C353.316 88.856 355.076 87.032 357.3 87.032C359.316 87.032 360.852 88.488 360.852 90.552C360.852 90.856 360.82 91.16 360.756 91.48ZM354.644 90.392H359.588C359.572 89 358.564 88.152 357.268 88.152C355.972 88.152 354.916 89.048 354.644 90.392ZM362.28 93.656L363.064 92.84C363.816 93.608 364.424 94.04 365.304 94.04C366.152 94.04 366.792 93.624 366.792 92.936C366.792 92.312 366.392 92.072 365.432 91.688L364.68 91.368C363.384 90.84 362.744 90.248 362.744 89.208C362.744 87.848 363.88 87.032 365.368 87.032C366.456 87.032 367.336 87.496 367.976 88.264L367.224 89.032C366.696 88.504 366.024 88.168 365.304 88.168C364.536 88.168 364.008 88.52 364.008 89.144C364.008 89.64 364.328 89.88 365.272 90.28L365.992 90.584C367.448 91.208 368.056 91.816 368.056 92.888C368.056 93.608 367.784 94.184 367.256 94.584C366.728 94.984 366.088 95.176 365.32 95.176C364.024 95.176 362.968 94.552 362.28 93.656ZM369.546 93.656L370.33 92.84C371.082 93.608 371.69 94.04 372.57 94.04C373.418 94.04 374.058 93.624 374.058 92.936C374.058 92.312 373.658 92.072 372.698 91.688L371.946 91.368C370.65 90.84 370.01 90.248 370.01 89.208C370.01 87.848 371.146 87.032 372.634 87.032C373.722 87.032 374.602 87.496 375.242 88.264L374.49 89.032C373.962 88.504 373.29 88.168 372.57 88.168C371.802 88.168 371.274 88.52 371.274 89.144C371.274 89.64 371.594 89.88 372.538 90.28L373.258 90.584C374.714 91.208 375.322 91.816 375.322 92.888C375.322 93.608 375.05 94.184 374.522 94.584C373.994 94.984 373.354 95.176 372.586 95.176C371.29 95.176 370.234 94.552 369.546 93.656ZM382.032 95V87.208H383.264V95H382.032ZM381.728 84.232C381.728 83.736 382.144 83.336 382.656 83.336C383.152 83.336 383.568 83.736 383.568 84.232C383.568 84.744 383.168 85.128 382.656 85.128C382.144 85.128 381.728 84.744 381.728 84.232ZM392.417 90.104V95H391.185V90.248C391.185 89.016 390.449 88.168 389.249 88.168C388.049 88.168 387.201 89.032 387.201 90.248V95H385.969V87.208H387.121V88.04C387.697 87.4 388.545 87.032 389.521 87.032C391.329 87.032 392.417 88.264 392.417 90.104ZM399.288 93.96V95C398.792 95.112 398.36 95.176 397.992 95.176C396.376 95.176 395.368 94.36 395.368 92.648V88.312H394.056V87.208H395.368V85.08H396.6V87.208H399.032V88.312H396.6V92.568C396.6 93.672 397.176 94.056 398.248 94.056C398.552 94.056 398.888 94.024 399.288 93.96ZM407.849 91.48H401.689C401.833 93.016 403.017 94.04 404.553 94.04C405.433 94.04 406.233 93.688 406.937 92.984L407.657 93.816C406.841 94.664 405.769 95.176 404.537 95.176C402.217 95.176 400.409 93.4 400.409 91.112C400.409 88.856 402.169 87.032 404.393 87.032C406.409 87.032 407.945 88.488 407.945 90.552C407.945 90.856 407.913 91.16 407.849 91.48ZM401.737 90.392H406.681C406.665 89 405.657 88.152 404.361 88.152C403.065 88.152 402.009 89.048 401.737 90.392ZM416.43 87.208H417.598V94.248C417.598 96.616 416.11 98.056 413.806 98.056C412.286 98.056 411.022 97.432 410.142 96.552L410.862 95.688C411.742 96.456 412.606 96.92 413.774 96.92C415.39 96.92 416.366 95.992 416.366 94.312V93.624C415.742 94.44 414.638 94.92 413.47 94.92C411.278 94.92 409.646 93.24 409.646 90.984C409.646 88.744 411.278 87.032 413.47 87.032C414.702 87.032 415.838 87.56 416.43 88.456V87.208ZM416.382 90.984C416.382 89.112 415.07 88.2 413.662 88.2C412.078 88.2 410.894 89.368 410.894 91C410.894 92.648 412.078 93.784 413.662 93.784C415.086 93.784 416.382 92.872 416.382 90.984ZM424.442 87.208V88.296H423.978C422.666 88.296 421.53 89.144 421.53 90.584V95H420.298V87.208H421.45V88.312C422.01 87.56 422.922 87.144 423.866 87.144C424.042 87.144 424.234 87.16 424.442 87.208ZM431.778 90.2V95H430.626V93.992C430.05 94.76 429.138 95.176 428.002 95.176C426.402 95.176 425.282 94.328 425.282 92.984C425.282 91.656 426.402 90.808 428.082 90.808H430.546V90.136C430.546 88.856 429.826 88.168 428.658 88.168C427.714 88.168 427.026 88.584 426.386 89.416L425.57 88.744C426.274 87.592 427.442 87.032 428.738 87.032C430.578 87.032 431.778 88.152 431.778 90.2ZM430.546 92.008V91.816H428.226C427.138 91.816 426.546 92.2 426.546 92.92C426.546 93.704 427.25 94.152 428.162 94.152C429.442 94.152 430.546 93.208 430.546 92.008ZM438.647 93.96V95C438.151 95.112 437.719 95.176 437.351 95.176C435.735 95.176 434.727 94.36 434.727 92.648V88.312H433.415V87.208H434.727V85.08H435.959V87.208H438.391V88.312H435.959V92.568C435.959 93.672 436.535 94.056 437.607 94.056C437.911 94.056 438.247 94.024 438.647 93.96ZM440.485 95V87.208H441.717V95H440.485ZM440.181 84.232C440.181 83.736 440.597 83.336 441.109 83.336C441.605 83.336 442.021 83.736 442.021 84.232C442.021 84.744 441.621 85.128 441.109 85.128C440.597 85.128 440.181 84.744 440.181 84.232ZM443.863 91.096C443.815 88.872 445.719 86.984 447.943 87.032C450.167 87 452.071 88.872 452.023 91.096C452.071 93.288 450.151 95.208 447.927 95.16C445.703 95.208 443.831 93.288 443.863 91.096ZM450.759 91.112C450.759 89.432 449.527 88.168 447.943 88.168C446.343 88.168 445.127 89.432 445.127 91.112C445.127 92.744 446.343 94.024 447.927 94.024C449.511 94.024 450.759 92.744 450.759 91.112ZM460.636 90.104V95H459.404V90.248C459.404 89.016 458.668 88.168 457.468 88.168C456.268 88.168 455.42 89.032 455.42 90.248V95H454.188V87.208H455.34V88.04C455.916 87.4 456.764 87.032 457.74 87.032C459.548 87.032 460.636 88.264 460.636 90.104ZM471.991 93.96V95C471.495 95.112 471.063 95.176 470.695 95.176C469.079 95.176 468.071 94.36 468.071 92.648V88.312H466.759V87.208H468.071V85.08H469.303V87.208H471.735V88.312H469.303V92.568C469.303 93.672 469.879 94.056 470.951 94.056C471.255 94.056 471.591 94.024 471.991 93.96ZM473.113 91.096C473.065 88.872 474.969 86.984 477.193 87.032C479.417 87 481.321 88.872 481.273 91.096C481.321 93.288 479.401 95.208 477.177 95.16C474.953 95.208 473.081 93.288 473.113 91.096ZM480.009 91.112C480.009 89.432 478.777 88.168 477.193 88.168C475.593 88.168 474.377 89.432 474.377 91.112C474.377 92.744 475.593 94.024 477.177 94.024C478.761 94.024 480.009 92.744 480.009 91.112ZM494.803 91.48H488.643C488.787 93.016 489.971 94.04 491.507 94.04C492.387 94.04 493.187 93.688 493.891 92.984L494.611 93.816C493.795 94.664 492.723 95.176 491.491 95.176C489.171 95.176 487.363 93.4 487.363 91.112C487.363 88.856 489.123 87.032 491.347 87.032C493.363 87.032 494.899 88.488 494.899 90.552C494.899 90.856 494.867 91.16 494.803 91.48ZM488.691 90.392H493.635C493.619 89 492.611 88.152 491.315 88.152C490.019 88.152 488.963 89.048 488.691 90.392ZM503.511 90.104V95H502.279V90.248C502.279 89.016 501.543 88.168 500.343 88.168C499.143 88.168 498.295 89.032 498.295 90.248V95H497.063V87.208H498.215V88.04C498.791 87.4 499.639 87.032 500.615 87.032C502.423 87.032 503.511 88.264 503.511 90.104ZM512.574 90.104V95H511.342V90.264C511.342 89 510.606 88.168 509.406 88.168C508.206 88.168 507.358 89.048 507.358 90.264V95H506.126V83H507.358V88.088C507.886 87.432 508.718 87.032 509.694 87.032C511.486 87.032 512.574 88.264 512.574 90.104ZM521.028 90.2V95H519.876V93.992C519.3 94.76 518.388 95.176 517.252 95.176C515.652 95.176 514.532 94.328 514.532 92.984C514.532 91.656 515.652 90.808 517.332 90.808H519.796V90.136C519.796 88.856 519.076 88.168 517.908 88.168C516.964 88.168 516.276 88.584 515.636 89.416L514.82 88.744C515.524 87.592 516.692 87.032 517.988 87.032C519.828 87.032 521.028 88.152 521.028 90.2ZM519.796 92.008V91.816H517.476C516.388 91.816 515.796 92.2 515.796 92.92C515.796 93.704 516.5 94.152 517.412 94.152C518.692 94.152 519.796 93.208 519.796 92.008ZM530.089 90.104V95H528.857V90.248C528.857 89.016 528.121 88.168 526.921 88.168C525.721 88.168 524.873 89.032 524.873 90.248V95H523.641V87.208H524.793V88.04C525.369 87.4 526.217 87.032 527.193 87.032C529.001 87.032 530.089 88.264 530.089 90.104ZM532.144 91.096C532.096 88.872 534 87 536.224 87.032C537.584 87.032 538.736 87.688 539.44 88.728L538.56 89.432C537.936 88.584 537.152 88.168 536.24 88.168C534.624 88.168 533.408 89.48 533.408 91.096C533.408 92.728 534.624 94.04 536.24 94.04C537.152 94.04 537.92 93.624 538.544 92.792L539.424 93.48C538.72 94.52 537.584 95.176 536.224 95.176C533.968 95.176 532.144 93.352 532.144 91.096ZM548.24 91.48H542.08C542.224 93.016 543.408 94.04 544.944 94.04C545.824 94.04 546.624 93.688 547.328 92.984L548.048 93.816C547.232 94.664 546.16 95.176 544.928 95.176C542.608 95.176 540.8 93.4 540.8 91.112C540.8 88.856 542.56 87.032 544.784 87.032C546.8 87.032 548.336 88.488 548.336 90.552C548.336 90.856 548.304 91.16 548.24 91.48ZM542.128 90.392H547.072C547.056 89 546.048 88.152 544.752 88.152C543.456 88.152 542.4 89.048 542.128 90.392ZM554.985 95V83H556.217V95H554.985ZM557.833 90.632L561.513 95H559.929L556.345 90.616L559.593 87.208H561.209L557.833 90.632ZM569.646 91.48H563.486C563.63 93.016 564.814 94.04 566.35 94.04C567.23 94.04 568.03 93.688 568.734 92.984L569.454 93.816C568.638 94.664 567.566 95.176 566.334 95.176C564.014 95.176 562.206 93.4 562.206 91.112C562.206 88.856 563.966 87.032 566.19 87.032C568.206 87.032 569.742 88.488 569.742 90.552C569.742 90.856 569.71 91.16 569.646 91.48ZM563.534 90.392H568.478C568.462 89 567.454 88.152 566.158 88.152C564.862 88.152 563.806 89.048 563.534 90.392ZM577.349 87.208H578.661L574.821 96.088C574.229 97.448 573.381 98.056 572.181 98.056C571.781 98.056 571.381 98.008 570.981 97.896V96.856C571.381 96.904 571.701 96.936 571.925 96.936C572.741 96.936 573.285 96.632 573.685 95.688L574.101 94.76L570.869 87.208H572.197L574.773 93.416L577.349 87.208ZM55.2 114.2V119H54.048V117.992C53.472 118.76 52.56 119.176 51.424 119.176C49.824 119.176 48.704 118.328 48.704 116.984C48.704 115.656 49.824 114.808 51.504 114.808H53.968V114.136C53.968 112.856 53.248 112.168 52.08 112.168C51.136 112.168 50.448 112.584 49.808 113.416L48.992 112.744C49.696 111.592 50.864 111.032 52.16 111.032C54 111.032 55.2 112.152 55.2 114.2ZM53.968 116.008V115.816H51.648C50.56 115.816 49.968 116.2 49.968 116.92C49.968 117.704 50.672 118.152 51.584 118.152C52.864 118.152 53.968 117.208 53.968 116.008ZM57.2531 115.096C57.2051 112.872 59.1091 111 61.3331 111.032C62.6931 111.032 63.8451 111.688 64.5491 112.728L63.6691 113.432C63.0451 112.584 62.2611 112.168 61.3491 112.168C59.7331 112.168 58.5171 113.48 58.5171 115.096C58.5171 116.728 59.7331 118.04 61.3491 118.04C62.2611 118.04 63.0291 117.624 63.6531 116.792L64.5331 117.48C63.8291 118.52 62.6931 119.176 61.3331 119.176C59.0771 119.176 57.2531 117.352 57.2531 115.096ZM70.8816 117.96V119C70.3856 119.112 69.9536 119.176 69.5856 119.176C67.9696 119.176 66.9616 118.36 66.9616 116.648V112.312H65.6496V111.208H66.9616V109.08H68.1936V111.208H70.6256V112.312H68.1936V116.568C68.1936 117.672 68.7696 118.056 69.8416 118.056C70.1456 118.056 70.4816 118.024 70.8816 117.96ZM72.7194 119V111.208H73.9514V119H72.7194ZM72.4154 108.232C72.4154 107.736 72.8314 107.336 73.3434 107.336C73.8394 107.336 74.2554 107.736 74.2554 108.232C74.2554 108.744 73.8554 109.128 73.3434 109.128C72.8314 109.128 72.4154 108.744 72.4154 108.232ZM82.1929 111.208H83.5049L79.8409 119.176H79.3929L75.7129 111.208H77.0249L79.6169 117.08L82.1929 111.208ZM85.2819 119V111.208H86.5139V119H85.2819ZM84.9779 108.232C84.9779 107.736 85.3939 107.336 85.9059 107.336C86.4019 107.336 86.8179 107.736 86.8179 108.232C86.8179 108.744 86.4179 109.128 85.9059 109.128C85.3939 109.128 84.9779 108.744 84.9779 108.232ZM93.4754 117.96V119C92.9794 119.112 92.5474 119.176 92.1794 119.176C90.5634 119.176 89.5554 118.36 89.5554 116.648V112.312H88.2434V111.208H89.5554V109.08H90.7874V111.208H93.2194V112.312H90.7874V116.568C90.7874 117.672 91.3634 118.056 92.4354 118.056C92.7394 118.056 93.0754 118.024 93.4754 117.96ZM95.3131 119V111.208H96.5451V119H95.3131ZM95.0091 108.232C95.0091 107.736 95.4251 107.336 95.9371 107.336C96.4331 107.336 96.8491 107.736 96.8491 108.232C96.8491 108.744 96.4491 109.128 95.9371 109.128C95.4251 109.128 95.0091 108.744 95.0091 108.232ZM106.131 115.48H99.9706C100.115 117.016 101.299 118.04 102.835 118.04C103.715 118.04 104.515 117.688 105.219 116.984L105.939 117.816C105.123 118.664 104.051 119.176 102.819 119.176C100.499 119.176 98.6906 117.4 98.6906 115.112C98.6906 112.856 100.451 111.032 102.675 111.032C104.691 111.032 106.227 112.488 106.227 114.552C106.227 114.856 106.195 115.16 106.131 115.48ZM100.019 114.392H104.963C104.947 113 103.939 112.152 102.643 112.152C101.347 112.152 100.291 113.048 100.019 114.392ZM107.655 117.656L108.439 116.84C109.191 117.608 109.799 118.04 110.679 118.04C111.527 118.04 112.167 117.624 112.167 116.936C112.167 116.312 111.767 116.072 110.807 115.688L110.055 115.368C108.759 114.84 108.119 114.248 108.119 113.208C108.119 111.848 109.255 111.032 110.743 111.032C111.831 111.032 112.711 111.496 113.351 112.264L112.599 113.032C112.071 112.504 111.399 112.168 110.679 112.168C109.911 112.168 109.383 112.52 109.383 113.144C109.383 113.64 109.703 113.88 110.647 114.28L111.367 114.584C112.823 115.208 113.431 115.816 113.431 116.888C113.431 117.608 113.159 118.184 112.631 118.584C112.103 118.984 111.463 119.176 110.695 119.176C109.399 119.176 108.343 118.552 107.655 117.656ZM125.981 114.2V119H124.829V117.992C124.253 118.76 123.341 119.176 122.205 119.176C120.605 119.176 119.485 118.328 119.485 116.984C119.485 115.656 120.605 114.808 122.285 114.808H124.749V114.136C124.749 112.856 124.029 112.168 122.861 112.168C121.917 112.168 121.229 112.584 120.589 113.416L119.773 112.744C120.477 111.592 121.645 111.032 122.941 111.032C124.781 111.032 125.981 112.152 125.981 114.2ZM124.749 116.008V115.816H122.429C121.341 115.816 120.749 116.2 120.749 116.92C120.749 117.704 121.453 118.152 122.365 118.152C123.645 118.152 124.749 117.208 124.749 116.008ZM135.042 114.104V119H133.81V114.248C133.81 113.016 133.074 112.168 131.874 112.168C130.674 112.168 129.826 113.032 129.826 114.248V119H128.594V111.208H129.746V112.04C130.322 111.4 131.17 111.032 132.146 111.032C133.954 111.032 135.042 112.264 135.042 114.104ZM143.833 107H145.065V119H143.897V117.768C143.305 118.648 142.169 119.176 140.953 119.176C138.761 119.176 137.097 117.4 137.097 115.112C137.097 112.824 138.761 111.032 140.953 111.032C142.121 111.032 143.209 111.528 143.833 112.36V107ZM143.849 115.112C143.849 113.128 142.537 112.168 141.129 112.168C139.545 112.168 138.361 113.416 138.361 115.096C138.361 116.776 139.545 118.04 141.129 118.04C142.537 118.04 143.849 117.08 143.849 115.112ZM162.278 111.208H163.59L160.31 119.176H159.862L157.206 113.288L154.566 119.176H154.134L150.822 111.208H152.134L154.39 116.984L156.982 111.032H157.446L160.07 116.936L162.278 111.208ZM164.503 115.096C164.455 112.872 166.359 110.984 168.583 111.032C170.807 111 172.711 112.872 172.663 115.096C172.711 117.288 170.791 119.208 168.567 119.16C166.343 119.208 164.471 117.288 164.503 115.096ZM171.399 115.112C171.399 113.432 170.167 112.168 168.583 112.168C166.983 112.168 165.767 113.432 165.767 115.112C165.767 116.744 166.983 118.024 168.567 118.024C170.151 118.024 171.399 116.744 171.399 115.112ZM178.973 111.208V112.296H178.509C177.197 112.296 176.061 113.144 176.061 114.584V119H174.829V111.208H175.981V112.312C176.541 111.56 177.453 111.144 178.397 111.144C178.573 111.144 178.765 111.16 178.973 111.208ZM180.626 119V107H181.858V119H180.626ZM183.474 114.632L187.154 119H185.57L181.986 114.616L185.234 111.208H186.85L183.474 114.632ZM199.38 107H200.612V119H199.444V117.768C198.852 118.648 197.716 119.176 196.5 119.176C194.308 119.176 192.644 117.4 192.644 115.112C192.644 112.824 194.308 111.032 196.5 111.032C197.668 111.032 198.756 111.528 199.38 112.36V107ZM199.396 115.112C199.396 113.128 198.084 112.168 196.676 112.168C195.092 112.168 193.908 113.416 193.908 115.096C193.908 116.776 195.092 118.04 196.676 118.04C198.084 118.04 199.396 117.08 199.396 115.112ZM210.193 115.48H204.033C204.177 117.016 205.361 118.04 206.897 118.04C207.777 118.04 208.577 117.688 209.281 116.984L210.001 117.816C209.185 118.664 208.113 119.176 206.881 119.176C204.561 119.176 202.753 117.4 202.753 115.112C202.753 112.856 204.513 111.032 206.737 111.032C208.753 111.032 210.289 112.488 210.289 114.552C210.289 114.856 210.257 115.16 210.193 115.48ZM204.081 114.392H209.025C209.009 113 208.001 112.152 206.705 112.152C205.409 112.152 204.353 113.048 204.081 114.392ZM212.454 119V107H213.686V119H212.454ZM216.391 119V111.208H217.623V119H216.391ZM216.087 108.232C216.087 107.736 216.503 107.336 217.015 107.336C217.511 107.336 217.927 107.736 217.927 108.232C217.927 108.744 217.527 109.128 217.015 109.128C216.503 109.128 216.087 108.744 216.087 108.232ZM225.865 111.208H227.177L223.513 119.176H223.065L219.385 111.208H220.697L223.289 117.08L225.865 111.208ZM235.521 115.48H229.361C229.505 117.016 230.689 118.04 232.225 118.04C233.105 118.04 233.905 117.688 234.609 116.984L235.329 117.816C234.513 118.664 233.441 119.176 232.209 119.176C229.889 119.176 228.081 117.4 228.081 115.112C228.081 112.856 229.841 111.032 232.065 111.032C234.081 111.032 235.617 112.488 235.617 114.552C235.617 114.856 235.585 115.16 235.521 115.48ZM229.409 114.392H234.353C234.337 113 233.329 112.152 232.033 112.152C230.737 112.152 229.681 113.048 229.409 114.392ZM241.926 111.208V112.296H241.462C240.15 112.296 239.014 113.144 239.014 114.584V119H237.782V111.208H238.934V112.312C239.494 111.56 240.406 111.144 241.35 111.144C241.526 111.144 241.718 111.16 241.926 111.208ZM249.115 111.208H250.427L246.587 120.088C245.995 121.448 245.147 122.056 243.947 122.056C243.547 122.056 243.147 122.008 242.747 121.896V120.856C243.147 120.904 243.467 120.936 243.691 120.936C244.507 120.936 245.051 120.632 245.451 119.688L245.867 118.76L242.635 111.208H243.963L246.539 117.416L249.115 111.208Z" fill="#1D1D1F"/>
<path d="M18.8039 159.328C18.8039 156.448 21.1719 154.24 24.0199 154.24C26.8999 154.24 29.2039 156.448 29.2039 159.328C29.2039 162.208 26.8999 164.384 24.0199 164.384C21.1719 164.384 18.8039 162.144 18.8039 159.328Z" fill="#31BC2E"/>
<path d="M48.768 157.72C48.704 154.696 51.248 152.216 54.24 152.264C57.2 152.216 59.792 154.696 59.728 157.72C59.792 160.744 57.2 163.224 54.24 163.176C51.248 163.24 48.704 160.712 48.768 157.72ZM58.432 157.704C58.48 155.32 56.576 153.368 54.256 153.416C51.872 153.416 50.064 155.256 50.064 157.704C50.064 160.152 51.872 162.024 54.256 162.024C56.576 162.056 58.48 160.12 58.432 157.704ZM69.812 159.096C69.812 161.384 68.148 163.176 65.956 163.176C64.804 163.176 63.732 162.696 63.092 161.88V165.88H61.86V155.208H63.012V156.456C63.604 155.56 64.74 155.032 65.956 155.032C68.18 155.032 69.812 156.808 69.812 159.096ZM68.548 159.112C68.548 157.432 67.364 156.168 65.78 156.168C64.388 156.168 63.076 157.128 63.076 159.096C63.076 161.08 64.34 162.04 65.78 162.04C67.364 162.04 68.548 160.792 68.548 159.112ZM76.2254 161.96V163C75.7294 163.112 75.2974 163.176 74.9294 163.176C73.3134 163.176 72.3054 162.36 72.3054 160.648V156.312H70.9934V155.208H72.3054V153.08H73.5374V155.208H75.9694V156.312H73.5374V160.568C73.5374 161.672 74.1134 162.056 75.1854 162.056C75.4894 162.056 75.8254 162.024 76.2254 161.96ZM78.0631 163V155.208H79.2951V163H78.0631ZM77.7591 152.232C77.7591 151.736 78.1751 151.336 78.6871 151.336C79.1831 151.336 79.5991 151.736 79.5991 152.232C79.5991 152.744 79.1991 153.128 78.6871 153.128C78.1751 153.128 77.7591 152.744 77.7591 152.232ZM93.3766 158.104V163H92.1446V158.264C92.1446 157 91.4566 156.168 90.3046 156.168C89.1366 156.168 88.3046 157.048 88.3046 158.152V163H87.0726V158.264C87.0726 157 86.3526 156.168 85.2166 156.168C84.0486 156.168 83.2326 157.032 83.2326 158.264V163H82.0006V155.208H83.1526V156.024C83.7126 155.384 84.5126 155.032 85.4726 155.032C86.6086 155.032 87.4246 155.528 87.8726 156.376C88.4486 155.56 89.3926 155.032 90.5446 155.032C92.3366 155.032 93.3766 156.248 93.3766 158.104ZM95.985 163V155.208H97.217V163H95.985ZM95.681 152.232C95.681 151.736 96.097 151.336 96.609 151.336C97.105 151.336 97.521 151.736 97.521 152.232C97.521 152.744 97.121 153.128 96.609 153.128C96.097 153.128 95.681 152.744 95.681 152.232ZM100.883 161.912H105.395V163H98.9945V162.632L103.443 156.312H99.3625V155.208H105.347V155.576L100.883 161.912ZM114.068 159.48H107.908C108.052 161.016 109.236 162.04 110.772 162.04C111.652 162.04 112.452 161.688 113.156 160.984L113.876 161.816C113.06 162.664 111.988 163.176 110.756 163.176C108.436 163.176 106.628 161.4 106.628 159.112C106.628 156.856 108.388 155.032 110.612 155.032C112.628 155.032 114.164 156.488 114.164 158.552C114.164 158.856 114.132 159.16 114.068 159.48ZM107.956 158.392H112.9C112.884 157 111.876 156.152 110.58 156.152C109.284 156.152 108.228 157.048 107.956 158.392ZM120.813 163V151H122.045V163H120.813ZM123.661 158.632L127.341 163H125.757L122.173 158.616L125.421 155.208H127.037L123.661 158.632ZM135.474 159.48H129.314C129.458 161.016 130.642 162.04 132.178 162.04C133.058 162.04 133.858 161.688 134.562 160.984L135.282 161.816C134.466 162.664 133.394 163.176 132.162 163.176C129.842 163.176 128.034 161.4 128.034 159.112C128.034 156.856 129.794 155.032 132.018 155.032C134.034 155.032 135.57 156.488 135.57 158.552C135.57 158.856 135.538 159.16 135.474 159.48ZM129.362 158.392H134.306C134.29 157 133.282 156.152 131.986 156.152C130.69 156.152 129.634 157.048 129.362 158.392ZM143.177 155.208H144.489L140.649 164.088C140.057 165.448 139.209 166.056 138.009 166.056C137.609 166.056 137.209 166.008 136.809 165.896V164.856C137.209 164.904 137.529 164.936 137.753 164.936C138.569 164.936 139.113 164.632 139.513 163.688L139.929 162.76L136.697 155.208H138.025L140.601 161.416L143.177 155.208ZM154.895 155.208V156.296H154.431C153.119 156.296 151.983 157.144 151.983 158.584V163H150.751V155.208H151.903V156.312C152.463 155.56 153.375 155.144 154.319 155.144C154.495 155.144 154.687 155.16 154.895 155.208ZM163.271 159.48H157.111C157.255 161.016 158.439 162.04 159.975 162.04C160.855 162.04 161.655 161.688 162.359 160.984L163.079 161.816C162.263 162.664 161.191 163.176 159.959 163.176C157.639 163.176 155.831 161.4 155.831 159.112C155.831 156.856 157.591 155.032 159.815 155.032C161.831 155.032 163.367 156.488 163.367 158.552C163.367 158.856 163.335 159.16 163.271 159.48ZM157.159 158.392H162.103C162.087 157 161.079 156.152 159.783 156.152C158.487 156.152 157.431 157.048 157.159 158.392ZM164.796 161.656L165.58 160.84C166.332 161.608 166.94 162.04 167.82 162.04C168.668 162.04 169.308 161.624 169.308 160.936C169.308 160.312 168.908 160.072 167.948 159.688L167.196 159.368C165.9 158.84 165.26 158.248 165.26 157.208C165.26 155.848 166.396 155.032 167.884 155.032C168.972 155.032 169.852 155.496 170.492 156.264L169.74 157.032C169.212 156.504 168.54 156.168 167.82 156.168C167.052 156.168 166.524 156.52 166.524 157.144C166.524 157.64 166.844 157.88 167.788 158.28L168.508 158.584C169.964 159.208 170.572 159.816 170.572 160.888C170.572 161.608 170.3 162.184 169.772 162.584C169.244 162.984 168.604 163.176 167.836 163.176C166.54 163.176 165.484 162.552 164.796 161.656ZM172.238 159.096C172.19 156.872 174.094 154.984 176.318 155.032C178.542 155 180.446 156.872 180.398 159.096C180.446 161.288 178.526 163.208 176.302 163.16C174.078 163.208 172.206 161.288 172.238 159.096ZM179.134 159.112C179.134 157.432 177.902 156.168 176.318 156.168C174.718 156.168 173.502 157.432 173.502 159.112C173.502 160.744 174.718 162.024 176.302 162.024C177.886 162.024 179.134 160.744 179.134 159.112ZM182.467 159.896V155.208H183.683V159.976C183.683 161.24 184.547 162.04 185.699 162.04C186.835 162.04 187.683 161.208 187.683 159.976V155.208H188.915V159.896C188.915 161.864 187.507 163.176 185.699 163.176C183.875 163.176 182.467 161.864 182.467 159.896ZM195.66 155.208V156.296H195.196C193.884 156.296 192.748 157.144 192.748 158.584V163H191.516V155.208H192.668V156.312C193.228 155.56 194.14 155.144 195.084 155.144C195.26 155.144 195.452 155.16 195.66 155.208ZM196.597 159.096C196.549 156.872 198.453 155 200.677 155.032C202.037 155.032 203.189 155.688 203.893 156.728L203.013 157.432C202.389 156.584 201.605 156.168 200.693 156.168C199.077 156.168 197.861 157.48 197.861 159.096C197.861 160.728 199.077 162.04 200.693 162.04C201.605 162.04 202.373 161.624 202.997 160.792L203.877 161.48C203.173 162.52 202.037 163.176 200.677 163.176C198.421 163.176 196.597 161.352 196.597 159.096ZM212.693 159.48H206.533C206.677 161.016 207.861 162.04 209.397 162.04C210.277 162.04 211.077 161.688 211.781 160.984L212.501 161.816C211.685 162.664 210.613 163.176 209.381 163.176C207.061 163.176 205.253 161.4 205.253 159.112C205.253 156.856 207.013 155.032 209.237 155.032C211.253 155.032 212.789 156.488 212.789 158.552C212.789 158.856 212.757 159.16 212.693 159.48ZM206.581 158.392H211.525C211.509 157 210.501 156.152 209.205 156.152C207.909 156.152 206.853 157.048 206.581 158.392ZM225.278 158.2V163H224.126V161.992C223.55 162.76 222.638 163.176 221.502 163.176C219.902 163.176 218.782 162.328 218.782 160.984C218.782 159.656 219.902 158.808 221.582 158.808H224.046V158.136C224.046 156.856 223.326 156.168 222.158 156.168C221.214 156.168 220.526 156.584 219.886 157.416L219.07 156.744C219.774 155.592 220.942 155.032 222.238 155.032C224.078 155.032 225.278 156.152 225.278 158.2ZM224.046 160.008V159.816H221.726C220.638 159.816 220.046 160.2 220.046 160.92C220.046 161.704 220.75 162.152 221.662 162.152C222.942 162.152 224.046 161.208 224.046 160.008ZM227.891 163V151H229.123V163H227.891ZM231.829 163V151H233.061V163H231.829ZM235.206 159.096C235.158 156.872 237.062 154.984 239.286 155.032C241.51 155 243.414 156.872 243.366 159.096C243.414 161.288 241.494 163.208 239.27 163.16C237.046 163.208 235.174 161.288 235.206 159.096ZM242.102 159.112C242.102 157.432 240.87 156.168 239.286 156.168C237.686 156.168 236.47 157.432 236.47 159.112C236.47 160.744 237.686 162.024 239.27 162.024C240.854 162.024 242.102 160.744 242.102 159.112ZM244.972 159.096C244.924 156.872 246.828 155 249.052 155.032C250.412 155.032 251.564 155.688 252.268 156.728L251.388 157.432C250.764 156.584 249.98 156.168 249.068 156.168C247.452 156.168 246.236 157.48 246.236 159.096C246.236 160.728 247.452 162.04 249.068 162.04C249.98 162.04 250.748 161.624 251.372 160.792L252.252 161.48C251.548 162.52 250.412 163.176 249.052 163.176C246.796 163.176 244.972 161.352 244.972 159.096ZM260.184 158.2V163H259.032V161.992C258.456 162.76 257.544 163.176 256.408 163.176C254.808 163.176 253.688 162.328 253.688 160.984C253.688 159.656 254.808 158.808 256.488 158.808H258.952V158.136C258.952 156.856 258.232 156.168 257.064 156.168C256.12 156.168 255.432 156.584 254.792 157.416L253.976 156.744C254.68 155.592 255.848 155.032 257.144 155.032C258.984 155.032 260.184 156.152 260.184 158.2ZM258.952 160.008V159.816H256.632C255.544 159.816 254.952 160.2 254.952 160.92C254.952 161.704 255.656 162.152 256.568 162.152C257.848 162.152 258.952 161.208 258.952 160.008ZM267.054 161.96V163C266.558 163.112 266.126 163.176 265.758 163.176C264.142 163.176 263.134 162.36 263.134 160.648V156.312H261.822V155.208H263.134V153.08H264.366V155.208H266.798V156.312H264.366V160.568C264.366 161.672 264.942 162.056 266.014 162.056C266.318 162.056 266.654 162.024 267.054 161.96ZM268.891 163V155.208H270.123V163H268.891ZM268.587 152.232C268.587 151.736 269.003 151.336 269.515 151.336C270.011 151.336 270.427 151.736 270.427 152.232C270.427 152.744 270.027 153.128 269.515 153.128C269.003 153.128 268.587 152.744 268.587 152.232ZM272.269 159.096C272.221 156.872 274.125 154.984 276.349 155.032C278.573 155 280.477 156.872 280.429 159.096C280.477 161.288 278.557 163.208 276.333 163.16C274.109 163.208 272.237 161.288 272.269 159.096ZM279.165 159.112C279.165 157.432 277.933 156.168 276.349 156.168C274.749 156.168 273.533 157.432 273.533 159.112C273.533 160.744 274.749 162.024 276.333 162.024C277.917 162.024 279.165 160.744 279.165 159.112ZM289.042 158.104V163H287.81V158.248C287.81 157.016 287.074 156.168 285.874 156.168C284.674 156.168 283.826 157.032 283.826 158.248V163H282.594V155.208H283.746V156.04C284.322 155.4 285.17 155.032 286.146 155.032C287.954 155.032 289.042 156.264 289.042 158.104ZM290.409 164.936L298.777 150.52H300.233L291.865 164.936H290.409ZM312.364 151H313.596V163H312.428V161.768C311.836 162.648 310.7 163.176 309.484 163.176C307.292 163.176 305.628 161.4 305.628 159.112C305.628 156.824 307.292 155.032 309.484 155.032C310.652 155.032 311.74 155.528 312.364 156.36V151ZM312.38 159.112C312.38 157.128 311.068 156.168 309.66 156.168C308.076 156.168 306.892 157.416 306.892 159.096C306.892 160.776 308.076 162.04 309.66 162.04C311.068 162.04 312.38 161.08 312.38 159.112ZM323.178 159.48H317.018C317.162 161.016 318.346 162.04 319.882 162.04C320.762 162.04 321.562 161.688 322.266 160.984L322.986 161.816C322.17 162.664 321.098 163.176 319.866 163.176C317.546 163.176 315.738 161.4 315.738 159.112C315.738 156.856 317.498 155.032 319.722 155.032C321.738 155.032 323.274 156.488 323.274 158.552C323.274 158.856 323.242 159.16 323.178 159.48ZM317.066 158.392H322.01C321.994 157 320.986 156.152 319.69 156.152C318.394 156.152 317.338 157.048 317.066 158.392ZM333.39 159.096C333.39 161.384 331.726 163.176 329.534 163.176C328.382 163.176 327.31 162.696 326.67 161.88V165.88H325.438V155.208H326.59V156.456C327.182 155.56 328.318 155.032 329.534 155.032C331.758 155.032 333.39 156.808 333.39 159.096ZM332.126 159.112C332.126 157.432 330.942 156.168 329.358 156.168C327.966 156.168 326.654 157.128 326.654 159.096C326.654 161.08 327.918 162.04 329.358 162.04C330.942 162.04 332.126 160.792 332.126 159.112ZM335.548 163V151H336.78V163H335.548ZM338.925 159.096C338.877 156.872 340.781 154.984 343.005 155.032C345.229 155 347.133 156.872 347.085 159.096C347.133 161.288 345.213 163.208 342.989 163.16C340.765 163.208 338.893 161.288 338.925 159.096ZM345.821 159.112C345.821 157.432 344.589 156.168 343.005 156.168C341.405 156.168 340.189 157.432 340.189 159.112C340.189 160.744 341.405 162.024 342.989 162.024C344.573 162.024 345.821 160.744 345.821 159.112ZM354.615 155.208H355.927L352.087 164.088C351.495 165.448 350.647 166.056 349.447 166.056C349.047 166.056 348.647 166.008 348.247 165.896V164.856C348.647 164.904 348.967 164.936 349.191 164.936C350.007 164.936 350.551 164.632 350.951 163.688L351.367 162.76L348.135 155.208H349.463L352.039 161.416L354.615 155.208ZM369.08 158.104V163H367.848V158.264C367.848 157 367.16 156.168 366.008 156.168C364.84 156.168 364.008 157.048 364.008 158.152V163H362.776V158.264C362.776 157 362.056 156.168 360.92 156.168C359.752 156.168 358.936 157.032 358.936 158.264V163H357.704V155.208H358.856V156.024C359.416 155.384 360.216 155.032 361.176 155.032C362.312 155.032 363.128 155.528 363.576 156.376C364.152 155.56 365.096 155.032 366.248 155.032C368.04 155.032 369.08 156.248 369.08 158.104ZM378.568 159.48H372.408C372.552 161.016 373.736 162.04 375.272 162.04C376.152 162.04 376.952 161.688 377.656 160.984L378.376 161.816C377.56 162.664 376.488 163.176 375.256 163.176C372.936 163.176 371.128 161.4 371.128 159.112C371.128 156.856 372.888 155.032 375.112 155.032C377.128 155.032 378.664 156.488 378.664 158.552C378.664 158.856 378.632 159.16 378.568 159.48ZM372.456 158.392H377.4C377.384 157 376.376 156.152 375.08 156.152C373.784 156.152 372.728 157.048 372.456 158.392ZM387.277 158.104V163H386.045V158.248C386.045 157.016 385.309 156.168 384.109 156.168C382.909 156.168 382.061 157.032 382.061 158.248V163H380.829V155.208H381.981V156.04C382.557 155.4 383.405 155.032 384.381 155.032C386.189 155.032 387.277 156.264 387.277 158.104ZM394.147 161.96V163C393.651 163.112 393.219 163.176 392.851 163.176C391.235 163.176 390.227 162.36 390.227 160.648V156.312H388.915V155.208H390.227V153.08H391.459V155.208H393.891V156.312H391.459V160.568C391.459 161.672 392.035 162.056 393.107 162.056C393.411 162.056 393.747 162.024 394.147 161.96ZM406.309 158.2V163H405.157V161.992C404.581 162.76 403.669 163.176 402.533 163.176C400.933 163.176 399.813 162.328 399.813 160.984C399.813 159.656 400.933 158.808 402.613 158.808H405.077V158.136C405.077 156.856 404.357 156.168 403.189 156.168C402.245 156.168 401.557 156.584 400.917 157.416L400.101 156.744C400.805 155.592 401.973 155.032 403.269 155.032C405.109 155.032 406.309 156.152 406.309 158.2ZM405.077 160.008V159.816H402.757C401.669 159.816 401.077 160.2 401.077 160.92C401.077 161.704 401.781 162.152 402.693 162.152C403.973 162.152 405.077 161.208 405.077 160.008ZM415.371 158.104V163H414.139V158.248C414.139 157.016 413.403 156.168 412.203 156.168C411.003 156.168 410.155 157.032 410.155 158.248V163H408.923V155.208H410.075V156.04C410.651 155.4 411.499 155.032 412.475 155.032C414.283 155.032 415.371 156.264 415.371 158.104ZM424.161 151H425.393V163H424.225V161.768C423.633 162.648 422.497 163.176 421.281 163.176C419.089 163.176 417.425 161.4 417.425 159.112C417.425 156.824 419.089 155.032 421.281 155.032C422.449 155.032 423.537 155.528 424.161 156.36V151ZM424.177 159.112C424.177 157.128 422.865 156.168 421.457 156.168C419.873 156.168 418.689 157.416 418.689 159.096C418.689 160.776 419.873 162.04 421.457 162.04C422.865 162.04 424.177 161.08 424.177 159.112ZM431.843 161.656L432.627 160.84C433.379 161.608 433.987 162.04 434.867 162.04C435.715 162.04 436.355 161.624 436.355 160.936C436.355 160.312 435.955 160.072 434.995 159.688L434.243 159.368C432.947 158.84 432.307 158.248 432.307 157.208C432.307 155.848 433.443 155.032 434.931 155.032C436.019 155.032 436.899 155.496 437.539 156.264L436.787 157.032C436.259 156.504 435.587 156.168 434.867 156.168C434.099 156.168 433.571 156.52 433.571 157.144C433.571 157.64 433.891 157.88 434.835 158.28L435.555 158.584C437.011 159.208 437.619 159.816 437.619 160.888C437.619 161.608 437.347 162.184 436.819 162.584C436.291 162.984 435.651 163.176 434.883 163.176C433.587 163.176 432.531 162.552 431.843 161.656ZM444.1 161.96V163C443.604 163.112 443.172 163.176 442.804 163.176C441.188 163.176 440.18 162.36 440.18 160.648V156.312H438.868V155.208H440.18V153.08H441.412V155.208H443.844V156.312H441.412V160.568C441.412 161.672 441.988 162.056 443.06 162.056C443.364 162.056 443.7 162.024 444.1 161.96ZM450.082 155.208V156.296H449.618C448.306 156.296 447.17 157.144 447.17 158.584V163H445.938V155.208H447.09V156.312C447.65 155.56 448.562 155.144 449.506 155.144C449.682 155.144 449.874 155.16 450.082 155.208ZM458.459 159.48H452.299C452.443 161.016 453.627 162.04 455.163 162.04C456.043 162.04 456.843 161.688 457.547 160.984L458.267 161.816C457.451 162.664 456.379 163.176 455.147 163.176C452.827 163.176 451.019 161.4 451.019 159.112C451.019 156.856 452.779 155.032 455.003 155.032C457.019 155.032 458.555 156.488 458.555 158.552C458.555 158.856 458.523 159.16 458.459 159.48ZM452.347 158.392H457.291C457.275 157 456.267 156.152 454.971 156.152C453.675 156.152 452.619 157.048 452.347 158.392ZM466.559 158.2V163H465.407V161.992C464.831 162.76 463.919 163.176 462.783 163.176C461.183 163.176 460.063 162.328 460.063 160.984C460.063 159.656 461.183 158.808 462.863 158.808H465.327V158.136C465.327 156.856 464.607 156.168 463.439 156.168C462.495 156.168 461.807 156.584 461.167 157.416L460.351 156.744C461.055 155.592 462.223 155.032 463.519 155.032C465.359 155.032 466.559 156.152 466.559 158.2ZM465.327 160.008V159.816H463.007C461.919 159.816 461.327 160.2 461.327 160.92C461.327 161.704 462.031 162.152 462.943 162.152C464.223 162.152 465.327 161.208 465.327 160.008ZM480.549 158.104V163H479.317V158.264C479.317 157 478.629 156.168 477.477 156.168C476.309 156.168 475.477 157.048 475.477 158.152V163H474.245V158.264C474.245 157 473.525 156.168 472.389 156.168C471.221 156.168 470.405 157.032 470.405 158.264V163H469.173V155.208H470.325V156.024C470.885 155.384 471.685 155.032 472.645 155.032C473.781 155.032 474.597 155.528 475.045 156.376C475.621 155.56 476.565 155.032 477.717 155.032C479.509 155.032 480.549 156.248 480.549 158.104ZM483.157 163V151H484.389V163H483.157ZM487.094 163V155.208H488.326V163H487.094ZM486.79 152.232C486.79 151.736 487.206 151.336 487.718 151.336C488.214 151.336 488.63 151.736 488.63 152.232C488.63 152.744 488.23 153.128 487.718 153.128C487.206 153.128 486.79 152.744 486.79 152.232ZM497.48 158.104V163H496.248V158.248C496.248 157.016 495.512 156.168 494.312 156.168C493.112 156.168 492.264 157.032 492.264 158.248V163H491.032V155.208H492.184V156.04C492.76 155.4 493.608 155.032 494.584 155.032C496.392 155.032 497.48 156.264 497.48 158.104ZM506.974 159.48H500.814C500.958 161.016 502.142 162.04 503.678 162.04C504.558 162.04 505.358 161.688 506.062 160.984L506.782 161.816C505.966 162.664 504.894 163.176 503.662 163.176C501.342 163.176 499.534 161.4 499.534 159.112C499.534 156.856 501.294 155.032 503.518 155.032C505.534 155.032 507.07 156.488 507.07 158.552C507.07 158.856 507.038 159.16 506.974 159.48ZM500.862 158.392H505.806C505.79 157 504.782 156.152 503.486 156.152C502.19 156.152 501.134 157.048 500.862 158.392ZM513.159 159.096C513.111 156.872 515.015 155 517.239 155.032C518.599 155.032 519.751 155.688 520.455 156.728L519.575 157.432C518.951 156.584 518.167 156.168 517.255 156.168C515.639 156.168 514.423 157.48 514.423 159.096C514.423 160.728 515.639 162.04 517.255 162.04C518.167 162.04 518.935 161.624 519.559 160.792L520.439 161.48C519.735 162.52 518.599 163.176 517.239 163.176C514.983 163.176 513.159 161.352 513.159 159.096ZM521.816 159.096C521.768 156.872 523.672 154.984 525.896 155.032C528.12 155 530.024 156.872 529.976 159.096C530.024 161.288 528.104 163.208 525.88 163.16C523.656 163.208 521.784 161.288 521.816 159.096ZM528.712 159.112C528.712 157.432 527.48 156.168 525.896 156.168C524.296 156.168 523.08 157.432 523.08 159.112C523.08 160.744 524.296 162.024 525.88 162.024C527.464 162.024 528.712 160.744 528.712 159.112ZM531.405 161.656L532.189 160.84C532.941 161.608 533.549 162.04 534.429 162.04C535.277 162.04 535.917 161.624 535.917 160.936C535.917 160.312 535.517 160.072 534.557 159.688L533.805 159.368C532.509 158.84 531.869 158.248 531.869 157.208C531.869 155.848 533.005 155.032 534.493 155.032C535.581 155.032 536.461 155.496 537.101 156.264L536.349 157.032C535.821 156.504 535.149 156.168 534.429 156.168C533.661 156.168 533.133 156.52 533.133 157.144C533.133 157.64 533.453 157.88 534.397 158.28L535.117 158.584C536.573 159.208 537.181 159.816 537.181 160.888C537.181 161.608 536.909 162.184 536.381 162.584C535.853 162.984 535.213 163.176 534.445 163.176C533.149 163.176 532.093 162.552 531.405 161.656ZM543.663 161.96V163C543.167 163.112 542.735 163.176 542.367 163.176C540.751 163.176 539.743 162.36 539.743 160.648V156.312H538.431V155.208H539.743V153.08H540.975V155.208H543.407V156.312H540.975V160.568C540.975 161.672 541.551 162.056 542.623 162.056C542.927 162.056 543.263 162.024 543.663 161.96ZM544.765 161.656L545.549 160.84C546.301 161.608 546.909 162.04 547.789 162.04C548.637 162.04 549.277 161.624 549.277 160.936C549.277 160.312 548.877 160.072 547.917 159.688L547.165 159.368C545.869 158.84 545.229 158.248 545.229 157.208C545.229 155.848 546.365 155.032 547.853 155.032C548.941 155.032 549.821 155.496 550.461 156.264L549.709 157.032C549.181 156.504 548.509 156.168 547.789 156.168C547.021 156.168 546.493 156.52 546.493 157.144C546.493 157.64 546.813 157.88 547.757 158.28L548.477 158.584C549.933 159.208 550.541 159.816 550.541 160.888C550.541 161.608 550.269 162.184 549.741 162.584C549.213 162.984 548.573 163.176 547.805 163.176C546.509 163.176 545.453 162.552 544.765 161.656Z" fill="#1D1D1F"/>
<path d="M18.8039 203.328C18.8039 200.448 21.1719 198.24 24.0199 198.24C26.8999 198.24 29.2039 200.448 29.2039 203.328C29.2039 206.208 26.8999 208.384 24.0199 208.384C21.1719 208.384 18.8039 206.144 18.8039 203.328Z" fill="#31BC2E"/>
<path d="M48.656 204.904L49.584 204.216C50.368 205.416 51.36 206.024 52.528 206.024C53.792 206.024 54.656 205.336 54.656 204.264C54.656 203.304 54.08 202.984 52.896 202.408L51.712 201.848C50.256 201.16 49.328 200.424 49.328 199.016C49.328 197.368 50.784 196.264 52.512 196.264C53.92 196.264 55.136 196.984 55.824 198.056L54.912 198.744C54.336 197.896 53.456 197.416 52.496 197.416C51.456 197.416 50.624 197.976 50.624 198.952C50.624 199.256 50.688 199.512 50.832 199.72C51.104 200.12 51.488 200.328 52.32 200.728L53.488 201.288C55.152 202.104 55.952 202.872 55.952 204.232C55.952 205.976 54.512 207.176 52.544 207.176C50.896 207.176 49.488 206.312 48.656 204.904ZM62.4598 205.96V207C61.9638 207.112 61.5318 207.176 61.1638 207.176C59.5478 207.176 58.5398 206.36 58.5398 204.648V200.312H57.2278V199.208H58.5398V197.08H59.7718V199.208H62.2038V200.312H59.7718V204.568C59.7718 205.672 60.3478 206.056 61.4198 206.056C61.7238 206.056 62.0598 206.024 62.4598 205.96ZM70.1375 202.2V207H68.9855V205.992C68.4095 206.76 67.4975 207.176 66.3615 207.176C64.7615 207.176 63.6415 206.328 63.6415 204.984C63.6415 203.656 64.7615 202.808 66.4415 202.808H68.9055V202.136C68.9055 200.856 68.1855 200.168 67.0175 200.168C66.0735 200.168 65.3855 200.584 64.7455 201.416L63.9295 200.744C64.6335 199.592 65.8015 199.032 67.0975 199.032C68.9375 199.032 70.1375 200.152 70.1375 202.2ZM68.9055 204.008V203.816H66.5855C65.4975 203.816 64.9055 204.2 64.9055 204.92C64.9055 205.704 65.6095 206.152 66.5215 206.152C67.8015 206.152 68.9055 205.208 68.9055 204.008ZM79.1986 202.104V207H77.9666V202.248C77.9666 201.016 77.2306 200.168 76.0306 200.168C74.8306 200.168 73.9826 201.032 73.9826 202.248V207H72.7506V199.208H73.9026V200.04C74.4786 199.4 75.3266 199.032 76.3026 199.032C78.1106 199.032 79.1986 200.264 79.1986 202.104ZM87.9891 195H89.2211V207H88.0531V205.768C87.4611 206.648 86.3251 207.176 85.1091 207.176C82.9171 207.176 81.2531 205.4 81.2531 203.112C81.2531 200.824 82.9171 199.032 85.1091 199.032C86.2771 199.032 87.3651 199.528 87.9891 200.36V195ZM88.0051 203.112C88.0051 201.128 86.6931 200.168 85.2851 200.168C83.7011 200.168 82.5171 201.416 82.5171 203.096C82.5171 204.776 83.7011 206.04 85.2851 206.04C86.6931 206.04 88.0051 205.08 88.0051 203.112ZM97.7625 202.2V207H96.6105V205.992C96.0345 206.76 95.1225 207.176 93.9865 207.176C92.3865 207.176 91.2665 206.328 91.2665 204.984C91.2665 203.656 92.3865 202.808 94.0665 202.808H96.5305V202.136C96.5305 200.856 95.8105 200.168 94.6425 200.168C93.6985 200.168 93.0105 200.584 92.3705 201.416L91.5545 200.744C92.2585 199.592 93.4265 199.032 94.7225 199.032C96.5625 199.032 97.7625 200.152 97.7625 202.2ZM96.5305 204.008V203.816H94.2105C93.1225 203.816 92.5305 204.2 92.5305 204.92C92.5305 205.704 93.2345 206.152 94.1465 206.152C95.4265 206.152 96.5305 205.208 96.5305 204.008ZM104.52 199.208V200.296H104.056C102.744 200.296 101.608 201.144 101.608 202.584V207H100.376V199.208H101.528V200.312C102.088 199.56 103 199.144 103.944 199.144C104.12 199.144 104.312 199.16 104.52 199.208ZM112.192 195H113.424V207H112.256V205.768C111.664 206.648 110.528 207.176 109.312 207.176C107.12 207.176 105.456 205.4 105.456 203.112C105.456 200.824 107.12 199.032 109.312 199.032C110.48 199.032 111.568 199.528 112.192 200.36V195ZM112.208 203.112C112.208 201.128 110.896 200.168 109.488 200.168C107.904 200.168 106.72 201.416 106.72 203.096C106.72 204.776 107.904 206.04 109.488 206.04C110.896 206.04 112.208 205.08 112.208 203.112ZM116.126 207V199.208H117.358V207H116.126ZM115.822 196.232C115.822 195.736 116.238 195.336 116.75 195.336C117.246 195.336 117.662 195.736 117.662 196.232C117.662 196.744 117.262 197.128 116.75 197.128C116.238 197.128 115.822 196.744 115.822 196.232ZM121.023 205.912H125.535V207H119.135V206.632L123.583 200.312H119.503V199.208H125.487V199.576L121.023 205.912ZM134.209 203.48H128.049C128.193 205.016 129.377 206.04 130.913 206.04C131.793 206.04 132.593 205.688 133.297 204.984L134.017 205.816C133.201 206.664 132.129 207.176 130.897 207.176C128.577 207.176 126.769 205.4 126.769 203.112C126.769 200.856 128.529 199.032 130.753 199.032C132.769 199.032 134.305 200.488 134.305 202.552C134.305 202.856 134.273 203.16 134.209 203.48ZM128.097 202.392H133.041C133.025 201 132.017 200.152 130.721 200.152C129.425 200.152 128.369 201.048 128.097 202.392ZM146.794 202.2V207H145.642V205.992C145.066 206.76 144.154 207.176 143.018 207.176C141.418 207.176 140.298 206.328 140.298 204.984C140.298 203.656 141.418 202.808 143.098 202.808H145.562V202.136C145.562 200.856 144.842 200.168 143.674 200.168C142.73 200.168 142.042 200.584 141.402 201.416L140.586 200.744C141.29 199.592 142.458 199.032 143.754 199.032C145.594 199.032 146.794 200.152 146.794 202.2ZM145.562 204.008V203.816H143.242C142.154 203.816 141.562 204.2 141.562 204.92C141.562 205.704 142.266 206.152 143.178 206.152C144.458 206.152 145.562 205.208 145.562 204.008ZM155.855 202.104V207H154.623V202.248C154.623 201.016 153.887 200.168 152.687 200.168C151.487 200.168 150.639 201.032 150.639 202.248V207H149.407V199.208H150.559V200.04C151.135 199.4 151.983 199.032 152.959 199.032C154.767 199.032 155.855 200.264 155.855 202.104ZM164.645 195H165.877V207H164.709V205.768C164.117 206.648 162.981 207.176 161.765 207.176C159.573 207.176 157.909 205.4 157.909 203.112C157.909 200.824 159.573 199.032 161.765 199.032C162.933 199.032 164.021 199.528 164.645 200.36V195ZM164.661 203.112C164.661 201.128 163.349 200.168 161.941 200.168C160.357 200.168 159.173 201.416 159.173 203.096C159.173 204.776 160.357 206.04 161.941 206.04C163.349 206.04 164.661 205.08 164.661 203.112ZM178.903 202.2V207H177.751V205.992C177.175 206.76 176.263 207.176 175.127 207.176C173.527 207.176 172.407 206.328 172.407 204.984C172.407 203.656 173.527 202.808 175.207 202.808H177.671V202.136C177.671 200.856 176.951 200.168 175.783 200.168C174.839 200.168 174.151 200.584 173.511 201.416L172.695 200.744C173.399 199.592 174.567 199.032 175.863 199.032C177.703 199.032 178.903 200.152 178.903 202.2ZM177.671 204.008V203.816H175.351C174.263 203.816 173.671 204.2 173.671 204.92C173.671 205.704 174.375 206.152 175.287 206.152C176.567 206.152 177.671 205.208 177.671 204.008ZM181.42 203.896V199.208H182.636V203.976C182.636 205.24 183.5 206.04 184.652 206.04C185.788 206.04 186.636 205.208 186.636 203.976V199.208H187.868V203.896C187.868 205.864 186.46 207.176 184.652 207.176C182.828 207.176 181.42 205.864 181.42 203.896ZM194.725 205.96V207C194.229 207.112 193.797 207.176 193.429 207.176C191.813 207.176 190.805 206.36 190.805 204.648V200.312H189.493V199.208H190.805V197.08H192.037V199.208H194.469V200.312H192.037V204.568C192.037 205.672 192.613 206.056 193.685 206.056C193.989 206.056 194.325 206.024 194.725 205.96ZM195.847 203.096C195.799 200.872 197.703 198.984 199.927 199.032C202.151 199 204.055 200.872 204.007 203.096C204.055 205.288 202.135 207.208 199.911 207.16C197.687 207.208 195.815 205.288 195.847 203.096ZM202.743 203.112C202.743 201.432 201.511 200.168 199.927 200.168C198.327 200.168 197.111 201.432 197.111 203.112C197.111 204.744 198.327 206.024 199.911 206.024C201.495 206.024 202.743 204.744 202.743 203.112ZM217.549 202.104V207H216.317V202.264C216.317 201 215.629 200.168 214.477 200.168C213.309 200.168 212.477 201.048 212.477 202.152V207H211.245V202.264C211.245 201 210.525 200.168 209.389 200.168C208.221 200.168 207.405 201.032 207.405 202.264V207H206.173V199.208H207.325V200.024C207.885 199.384 208.685 199.032 209.645 199.032C210.781 199.032 211.597 199.528 212.045 200.376C212.621 199.56 213.565 199.032 214.717 199.032C216.509 199.032 217.549 200.248 217.549 202.104ZM225.997 202.2V207H224.845V205.992C224.269 206.76 223.357 207.176 222.221 207.176C220.621 207.176 219.501 206.328 219.501 204.984C219.501 203.656 220.621 202.808 222.301 202.808H224.765V202.136C224.765 200.856 224.045 200.168 222.877 200.168C221.933 200.168 221.245 200.584 220.605 201.416L219.789 200.744C220.493 199.592 221.661 199.032 222.957 199.032C224.797 199.032 225.997 200.152 225.997 202.2ZM224.765 204.008V203.816H222.445C221.357 203.816 220.765 204.2 220.765 204.92C220.765 205.704 221.469 206.152 222.381 206.152C223.661 206.152 224.765 205.208 224.765 204.008ZM232.866 205.96V207C232.37 207.112 231.938 207.176 231.57 207.176C229.954 207.176 228.946 206.36 228.946 204.648V200.312H227.634V199.208H228.946V197.08H230.178V199.208H232.61V200.312H230.178V204.568C230.178 205.672 230.754 206.056 231.826 206.056C232.13 206.056 232.466 206.024 232.866 205.96ZM241.428 203.48H235.268C235.412 205.016 236.596 206.04 238.132 206.04C239.012 206.04 239.812 205.688 240.516 204.984L241.236 205.816C240.42 206.664 239.348 207.176 238.116 207.176C235.796 207.176 233.988 205.4 233.988 203.112C233.988 200.856 235.748 199.032 237.972 199.032C239.988 199.032 241.524 200.488 241.524 202.552C241.524 202.856 241.492 203.16 241.428 203.48ZM235.316 202.392H240.26C240.244 201 239.236 200.152 237.94 200.152C236.644 200.152 235.588 201.048 235.316 202.392ZM256.125 203.096C256.125 205.384 254.461 207.176 252.269 207.176C251.117 207.176 250.045 206.696 249.405 205.88V209.88H248.173V199.208H249.325V200.456C249.917 199.56 251.053 199.032 252.269 199.032C254.493 199.032 256.125 200.808 256.125 203.096ZM254.861 203.112C254.861 201.432 253.677 200.168 252.093 200.168C250.701 200.168 249.389 201.128 249.389 203.096C249.389 205.08 250.653 206.04 252.093 206.04C253.677 206.04 254.861 204.792 254.861 203.112ZM262.426 199.208V200.296H261.962C260.65 200.296 259.514 201.144 259.514 202.584V207H258.282V199.208H259.434V200.312C259.994 199.56 260.906 199.144 261.85 199.144C262.026 199.144 262.218 199.16 262.426 199.208ZM263.363 203.096C263.315 200.872 265.219 198.984 267.443 199.032C269.667 199 271.571 200.872 271.523 203.096C271.571 205.288 269.651 207.208 267.427 207.16C265.203 207.208 263.331 205.288 263.363 203.096ZM270.259 203.112C270.259 201.432 269.027 200.168 267.443 200.168C265.843 200.168 264.627 201.432 264.627 203.112C264.627 204.744 265.843 206.024 267.427 206.024C269.011 206.024 270.259 204.744 270.259 203.112ZM273.128 203.096C273.08 200.872 274.984 199 277.208 199.032C278.568 199.032 279.72 199.688 280.424 200.728L279.544 201.432C278.92 200.584 278.136 200.168 277.224 200.168C275.608 200.168 274.392 201.48 274.392 203.096C274.392 204.728 275.608 206.04 277.224 206.04C278.136 206.04 278.904 205.624 279.528 204.792L280.408 205.48C279.704 206.52 278.568 207.176 277.208 207.176C274.952 207.176 273.128 205.352 273.128 203.096ZM289.224 203.48H283.064C283.208 205.016 284.392 206.04 285.928 206.04C286.808 206.04 287.608 205.688 288.312 204.984L289.032 205.816C288.216 206.664 287.144 207.176 285.912 207.176C283.592 207.176 281.784 205.4 281.784 203.112C281.784 200.856 283.544 199.032 285.768 199.032C287.784 199.032 289.32 200.488 289.32 202.552C289.32 202.856 289.288 203.16 289.224 203.48ZM283.112 202.392H288.056C288.04 201 287.032 200.152 285.736 200.152C284.44 200.152 283.384 201.048 283.112 202.392ZM290.749 205.656L291.533 204.84C292.285 205.608 292.893 206.04 293.773 206.04C294.621 206.04 295.261 205.624 295.261 204.936C295.261 204.312 294.861 204.072 293.901 203.688L293.149 203.368C291.853 202.84 291.213 202.248 291.213 201.208C291.213 199.848 292.349 199.032 293.837 199.032C294.925 199.032 295.805 199.496 296.445 200.264L295.693 201.032C295.165 200.504 294.493 200.168 293.773 200.168C293.005 200.168 292.477 200.52 292.477 201.144C292.477 201.64 292.797 201.88 293.741 202.28L294.461 202.584C295.917 203.208 296.525 203.816 296.525 204.888C296.525 205.608 296.253 206.184 295.725 206.584C295.197 206.984 294.557 207.176 293.789 207.176C292.493 207.176 291.437 206.552 290.749 205.656ZM298.015 205.656L298.799 204.84C299.551 205.608 300.159 206.04 301.039 206.04C301.887 206.04 302.527 205.624 302.527 204.936C302.527 204.312 302.127 204.072 301.167 203.688L300.415 203.368C299.119 202.84 298.479 202.248 298.479 201.208C298.479 199.848 299.615 199.032 301.103 199.032C302.191 199.032 303.071 199.496 303.711 200.264L302.959 201.032C302.431 200.504 301.759 200.168 301.039 200.168C300.271 200.168 299.743 200.52 299.743 201.144C299.743 201.64 300.063 201.88 301.007 202.28L301.727 202.584C303.183 203.208 303.791 203.816 303.791 204.888C303.791 205.608 303.519 206.184 302.991 206.584C302.463 206.984 301.823 207.176 301.055 207.176C299.759 207.176 298.703 206.552 298.015 205.656ZM312.896 203.48H306.736C306.88 205.016 308.064 206.04 309.6 206.04C310.48 206.04 311.28 205.688 311.984 204.984L312.704 205.816C311.888 206.664 310.816 207.176 309.584 207.176C307.264 207.176 305.456 205.4 305.456 203.112C305.456 200.856 307.216 199.032 309.44 199.032C311.456 199.032 312.992 200.488 312.992 202.552C312.992 202.856 312.96 203.16 312.896 203.48ZM306.784 202.392H311.728C311.712 201 310.704 200.152 309.408 200.152C308.112 200.152 307.056 201.048 306.784 202.392ZM314.421 205.656L315.205 204.84C315.957 205.608 316.565 206.04 317.445 206.04C318.293 206.04 318.933 205.624 318.933 204.936C318.933 204.312 318.533 204.072 317.573 203.688L316.821 203.368C315.525 202.84 314.885 202.248 314.885 201.208C314.885 199.848 316.021 199.032 317.509 199.032C318.597 199.032 319.477 199.496 320.117 200.264L319.365 201.032C318.837 200.504 318.165 200.168 317.445 200.168C316.677 200.168 316.149 200.52 316.149 201.144C316.149 201.64 316.469 201.88 317.413 202.28L318.133 202.584C319.589 203.208 320.197 203.816 320.197 204.888C320.197 205.608 319.925 206.184 319.397 206.584C318.869 206.984 318.229 207.176 317.461 207.176C316.165 207.176 315.109 206.552 314.421 205.656Z" fill="#1D1D1F"/>
</svg>
