<svg width="600" height="248" viewBox="0 0 600 248" fill="none" xmlns="http://www.w3.org/2000/svg">
<path d="M4.5 18V7.24H0.28V4.8H11.44V7.24H7.2V18H4.5ZM20.2353 18L19.4953 16.28H14.0953L13.3553 18H10.4553L16.3553 4.56H17.2553L23.1353 18H20.2353ZM18.5553 14.06L16.7953 9.6L15.0353 14.06H18.5553ZM36.078 18H33.038L29.618 13.34H27.638V18H24.938V4.8H29.898C32.658 4.8 34.658 6.52 34.658 9.06C34.658 10.74 33.778 12.1 32.338 12.82L36.078 18ZM27.638 7.18V10.96H29.898C31.158 10.96 31.898 10.2 31.898 9.06C31.898 7.94 31.118 7.18 29.898 7.18H27.638ZM36.678 11.4C36.598 7.6 39.838 4.5 43.738 4.56C46.058 4.56 48.018 5.6 49.298 7.42L47.378 9C46.438 7.7 45.218 7.06 43.698 7.06C41.178 7.06 39.458 8.88 39.458 11.4C39.458 13.96 41.238 15.82 43.858 15.82C45.378 15.82 46.598 15.2 47.338 14.18V13.1H43.698V10.76H50.038V14.66C49.438 15.72 48.578 16.6 47.458 17.26C46.358 17.92 45.118 18.24 43.738 18.24C39.858 18.32 36.618 15.18 36.678 11.4ZM52.3794 18V4.8H61.2594V7.24H55.0794V9.92H59.6194V12.22H55.0794V15.56H61.4994V18H52.3794ZM66.8242 18V7.24H62.6042V4.8H73.7642V7.24H69.5242V18H66.8242ZM74.6234 15.32L76.4834 13.92C77.3434 15.1 78.2834 15.84 79.7234 15.84C80.9034 15.84 81.6034 15.28 81.6034 14.38C81.6034 13.6 81.1834 13.32 79.9234 12.74L78.5034 12.1C76.4834 11.2 75.3034 10.06 75.3034 8.3C75.3034 6.04 77.1834 4.56 79.6834 4.56C81.7034 4.56 83.2234 5.54 84.0434 7.06L82.2034 8.48C81.5234 7.46 80.6834 6.96 79.6834 6.96C78.7434 6.96 78.0434 7.42 78.0434 8.24C78.0434 8.94 78.4634 9.26 79.5834 9.76L81.0834 10.42C83.3034 11.4 84.3434 12.5 84.3434 14.28C84.3434 16.7 82.3634 18.24 79.7234 18.24C77.4834 18.24 75.6434 17.1 74.6234 15.32Z" fill="#31BC2E"/>
<path d="M18.8039 47.328C18.8039 44.448 21.1719 42.24 24.0199 42.24C26.8999 42.24 29.2039 44.448 29.2039 47.328C29.2039 50.208 26.8999 52.384 24.0199 52.384C21.1719 52.384 18.8039 50.144 18.8039 47.328Z" fill="#31BC2E"/>
<path d="M49.456 51V40.44H50.704V51H49.456ZM64.7985 46.104V51H63.5665V46.264C63.5665 45 62.8785 44.168 61.7265 44.168C60.5585 44.168 59.7265 45.048 59.7265 46.152V51H58.4945V46.264C58.4945 45 57.7745 44.168 56.6385 44.168C55.4705 44.168 54.6545 45.032 54.6545 46.264V51H53.4225V43.208H54.5745V44.024C55.1345 43.384 55.9345 43.032 56.8945 43.032C58.0305 43.032 58.8465 43.528 59.2945 44.376C59.8705 43.56 60.8145 43.032 61.9665 43.032C63.7585 43.032 64.7985 44.248 64.7985 46.104ZM75.3589 47.096C75.3589 49.384 73.6949 51.176 71.5029 51.176C70.3509 51.176 69.2789 50.696 68.6389 49.88V53.88H67.4069V43.208H68.5589V44.456C69.1509 43.56 70.2869 43.032 71.5029 43.032C73.7269 43.032 75.3589 44.808 75.3589 47.096ZM74.0949 47.112C74.0949 45.432 72.9109 44.168 71.3269 44.168C69.9349 44.168 68.6229 45.128 68.6229 47.096C68.6229 49.08 69.8869 50.04 71.3269 50.04C72.9109 50.04 74.0949 48.792 74.0949 47.112ZM77.5163 51V39H78.7483V51H77.5163ZM88.3338 47.48H82.1738C82.3178 49.016 83.5018 50.04 85.0378 50.04C85.9178 50.04 86.7178 49.688 87.4218 48.984L88.1418 49.816C87.3258 50.664 86.2538 51.176 85.0218 51.176C82.7018 51.176 80.8938 49.4 80.8938 47.112C80.8938 44.856 82.6538 43.032 84.8778 43.032C86.8938 43.032 88.4298 44.488 88.4298 46.552C88.4298 46.856 88.3978 47.16 88.3338 47.48ZM82.2218 46.392H87.1658C87.1498 45 86.1418 44.152 84.8458 44.152C83.5498 44.152 82.4938 45.048 82.2218 46.392ZM101.97 46.104V51H100.738V46.264C100.738 45 100.05 44.168 98.8984 44.168C97.7304 44.168 96.8984 45.048 96.8984 46.152V51H95.6664V46.264C95.6664 45 94.9464 44.168 93.8104 44.168C92.6424 44.168 91.8264 45.032 91.8264 46.264V51H90.5944V43.208H91.7464V44.024C92.3064 43.384 93.1064 43.032 94.0664 43.032C95.2024 43.032 96.0184 43.528 96.4664 44.376C97.0424 43.56 97.9864 43.032 99.1384 43.032C100.93 43.032 101.97 44.248 101.97 46.104ZM111.459 47.48H105.299C105.443 49.016 106.627 50.04 108.163 50.04C109.043 50.04 109.843 49.688 110.547 48.984L111.267 49.816C110.451 50.664 109.379 51.176 108.147 51.176C105.827 51.176 104.019 49.4 104.019 47.112C104.019 44.856 105.779 43.032 108.003 43.032C110.019 43.032 111.555 44.488 111.555 46.552C111.555 46.856 111.523 47.16 111.459 47.48ZM105.347 46.392H110.291C110.275 45 109.267 44.152 107.971 44.152C106.675 44.152 105.619 45.048 105.347 46.392ZM120.167 46.104V51H118.935V46.248C118.935 45.016 118.199 44.168 116.999 44.168C115.799 44.168 114.951 45.032 114.951 46.248V51H113.719V43.208H114.871V44.04C115.447 43.4 116.295 43.032 117.271 43.032C119.079 43.032 120.167 44.264 120.167 46.104ZM127.038 49.96V51C126.542 51.112 126.11 51.176 125.742 51.176C124.126 51.176 123.118 50.36 123.118 48.648V44.312H121.806V43.208H123.118V41.08H124.35V43.208H126.782V44.312H124.35V48.568C124.35 49.672 124.926 50.056 125.998 50.056C126.302 50.056 126.638 50.024 127.038 49.96ZM133.36 51V39H134.592V51H133.36ZM136.738 47.096C136.69 44.872 138.594 42.984 140.818 43.032C143.042 43 144.946 44.872 144.898 47.096C144.946 49.288 143.026 51.208 140.802 51.16C138.578 51.208 136.706 49.288 136.738 47.096ZM143.634 47.112C143.634 45.432 142.402 44.168 140.818 44.168C139.218 44.168 138.002 45.432 138.002 47.112C138.002 48.744 139.218 50.024 140.802 50.024C142.386 50.024 143.634 48.744 143.634 47.112ZM146.503 47.096C146.455 44.872 148.359 43 150.583 43.032C151.943 43.032 153.095 43.688 153.799 44.728L152.919 45.432C152.295 44.584 151.511 44.168 150.599 44.168C148.983 44.168 147.767 45.48 147.767 47.096C147.767 48.728 148.983 50.04 150.599 50.04C151.511 50.04 152.279 49.624 152.903 48.792L153.783 49.48C153.079 50.52 151.943 51.176 150.583 51.176C148.327 51.176 146.503 49.352 146.503 47.096ZM161.716 46.2V51H160.564V49.992C159.988 50.76 159.076 51.176 157.94 51.176C156.34 51.176 155.22 50.328 155.22 48.984C155.22 47.656 156.34 46.808 158.02 46.808H160.484V46.136C160.484 44.856 159.764 44.168 158.596 44.168C157.652 44.168 156.964 44.584 156.324 45.416L155.508 44.744C156.212 43.592 157.38 43.032 158.676 43.032C160.516 43.032 161.716 44.152 161.716 46.2ZM160.484 48.008V47.816H158.164C157.076 47.816 156.484 48.2 156.484 48.92C156.484 49.704 157.188 50.152 158.1 50.152C159.38 50.152 160.484 49.208 160.484 48.008ZM164.329 51V39H165.561V51H164.329ZM168.266 51V43.208H169.498V51H168.266ZM167.962 40.232C167.962 39.736 168.378 39.336 168.89 39.336C169.386 39.336 169.802 39.736 169.802 40.232C169.802 40.744 169.402 41.128 168.89 41.128C168.378 41.128 167.962 40.744 167.962 40.232ZM171.468 49.656L172.252 48.84C173.004 49.608 173.612 50.04 174.492 50.04C175.34 50.04 175.98 49.624 175.98 48.936C175.98 48.312 175.58 48.072 174.62 47.688L173.868 47.368C172.572 46.84 171.932 46.248 171.932 45.208C171.932 43.848 173.068 43.032 174.556 43.032C175.644 43.032 176.524 43.496 177.164 44.264L176.412 45.032C175.884 44.504 175.212 44.168 174.492 44.168C173.724 44.168 173.196 44.52 173.196 45.144C173.196 45.64 173.516 45.88 174.46 46.28L175.18 46.584C176.636 47.208 177.244 47.816 177.244 48.888C177.244 49.608 176.972 50.184 176.444 50.584C175.916 50.984 175.276 51.176 174.508 51.176C173.212 51.176 172.156 50.552 171.468 49.656ZM185.309 46.2V51H184.157V49.992C183.581 50.76 182.669 51.176 181.533 51.176C179.933 51.176 178.813 50.328 178.813 48.984C178.813 47.656 179.933 46.808 181.613 46.808H184.077V46.136C184.077 44.856 183.357 44.168 182.189 44.168C181.245 44.168 180.557 44.584 179.917 45.416L179.101 44.744C179.805 43.592 180.973 43.032 182.269 43.032C184.109 43.032 185.309 44.152 185.309 46.2ZM184.077 48.008V47.816H181.757C180.669 47.816 180.077 48.2 180.077 48.92C180.077 49.704 180.781 50.152 181.693 50.152C182.973 50.152 184.077 49.208 184.077 48.008ZM192.179 49.96V51C191.683 51.112 191.251 51.176 190.883 51.176C189.267 51.176 188.259 50.36 188.259 48.648V44.312H186.947V43.208H188.259V41.08H189.491V43.208H191.923V44.312H189.491V48.568C189.491 49.672 190.067 50.056 191.139 50.056C191.443 50.056 191.779 50.024 192.179 49.96ZM194.016 51V43.208H195.248V51H194.016ZM193.712 40.232C193.712 39.736 194.128 39.336 194.64 39.336C195.136 39.336 195.552 39.736 195.552 40.232C195.552 40.744 195.152 41.128 194.64 41.128C194.128 41.128 193.712 40.744 193.712 40.232ZM197.394 47.096C197.346 44.872 199.25 42.984 201.474 43.032C203.698 43 205.602 44.872 205.554 47.096C205.602 49.288 203.682 51.208 201.458 51.16C199.234 51.208 197.362 49.288 197.394 47.096ZM204.29 47.112C204.29 45.432 203.058 44.168 201.474 44.168C199.874 44.168 198.658 45.432 198.658 47.112C198.658 48.744 199.874 50.024 201.458 50.024C203.042 50.024 204.29 48.744 204.29 47.112ZM214.167 46.104V51H212.935V46.248C212.935 45.016 212.199 44.168 210.999 44.168C209.799 44.168 208.951 45.032 208.951 46.248V51H207.719V43.208H208.871V44.04C209.447 43.4 210.295 43.032 211.271 43.032C213.079 43.032 214.167 44.264 214.167 46.104ZM227.106 46.2V51H225.954V49.992C225.378 50.76 224.466 51.176 223.33 51.176C221.73 51.176 220.61 50.328 220.61 48.984C220.61 47.656 221.73 46.808 223.41 46.808H225.874V46.136C225.874 44.856 225.154 44.168 223.986 44.168C223.042 44.168 222.354 44.584 221.714 45.416L220.898 44.744C221.602 43.592 222.77 43.032 224.066 43.032C225.906 43.032 227.106 44.152 227.106 46.2ZM225.874 48.008V47.816H223.554C222.466 47.816 221.874 48.2 221.874 48.92C221.874 49.704 222.578 50.152 223.49 50.152C224.77 50.152 225.874 49.208 225.874 48.008ZM236.167 46.104V51H234.935V46.248C234.935 45.016 234.199 44.168 232.999 44.168C231.799 44.168 230.951 45.032 230.951 46.248V51H229.719V43.208H230.871V44.04C231.447 43.4 232.295 43.032 233.271 43.032C235.079 43.032 236.167 44.264 236.167 46.104ZM244.958 39H246.19V51H245.022V49.768C244.43 50.648 243.294 51.176 242.078 51.176C239.886 51.176 238.222 49.4 238.222 47.112C238.222 44.824 239.886 43.032 242.078 43.032C243.246 43.032 244.334 43.528 244.958 44.36V39ZM244.974 47.112C244.974 45.128 243.662 44.168 242.254 44.168C240.67 44.168 239.486 45.416 239.486 47.096C239.486 48.776 240.67 50.04 242.254 50.04C243.662 50.04 244.974 49.08 244.974 47.112ZM259.696 43.208H260.864V50.248C260.864 52.616 259.376 54.056 257.072 54.056C255.552 54.056 254.288 53.432 253.408 52.552L254.128 51.688C255.008 52.456 255.872 52.92 257.04 52.92C258.656 52.92 259.632 51.992 259.632 50.312V49.624C259.008 50.44 257.904 50.92 256.736 50.92C254.544 50.92 252.912 49.24 252.912 46.984C252.912 44.744 254.544 43.032 256.736 43.032C257.968 43.032 259.104 43.56 259.696 44.456V43.208ZM259.648 46.984C259.648 45.112 258.336 44.2 256.928 44.2C255.344 44.2 254.16 45.368 254.16 47C254.16 48.648 255.344 49.784 256.928 49.784C258.352 49.784 259.648 48.872 259.648 46.984ZM267.707 43.208V44.296H267.243C265.931 44.296 264.795 45.144 264.795 46.584V51H263.563V43.208H264.715V44.312C265.275 43.56 266.187 43.144 267.131 43.144C267.307 43.144 267.499 43.16 267.707 43.208ZM268.644 47.096C268.596 44.872 270.5 42.984 272.724 43.032C274.948 43 276.852 44.872 276.804 47.096C276.852 49.288 274.932 51.208 272.708 51.16C270.484 51.208 268.612 49.288 268.644 47.096ZM275.54 47.112C275.54 45.432 274.308 44.168 272.724 44.168C271.124 44.168 269.908 45.432 269.908 47.112C269.908 48.744 271.124 50.024 272.708 50.024C274.292 50.024 275.54 48.744 275.54 47.112ZM289.169 43.208H290.481L287.201 51.176H286.753L284.097 45.288L281.457 51.176H281.025L277.713 43.208H279.025L281.281 48.984L283.873 43.032H284.337L286.961 48.936L289.169 43.208ZM296.522 49.96V51C296.026 51.112 295.594 51.176 295.226 51.176C293.61 51.176 292.602 50.36 292.602 48.648V44.312H291.29V43.208H292.602V41.08H293.834V43.208H296.266V44.312H293.834V48.568C293.834 49.672 294.41 50.056 295.482 50.056C295.786 50.056 296.122 50.024 296.522 49.96ZM304.808 46.104V51H303.576V46.264C303.576 45 302.84 44.168 301.64 44.168C300.44 44.168 299.592 45.048 299.592 46.264V51H298.36V39H299.592V44.088C300.12 43.432 300.952 43.032 301.928 43.032C303.72 43.032 304.808 44.264 304.808 46.104ZM318.355 46.104V51H317.123V46.264C317.123 45 316.387 44.168 315.187 44.168C313.987 44.168 313.139 45.048 313.139 46.264V51H311.907V39H313.139V44.088C313.667 43.432 314.499 43.032 315.475 43.032C317.267 43.032 318.355 44.264 318.355 46.104ZM326.809 46.2V51H325.657V49.992C325.081 50.76 324.169 51.176 323.033 51.176C321.433 51.176 320.313 50.328 320.313 48.984C320.313 47.656 321.433 46.808 323.113 46.808H325.577V46.136C325.577 44.856 324.857 44.168 323.689 44.168C322.745 44.168 322.057 44.584 321.417 45.416L320.601 44.744C321.305 43.592 322.473 43.032 323.769 43.032C325.609 43.032 326.809 44.152 326.809 46.2ZM325.577 48.008V47.816H323.257C322.169 47.816 321.577 48.2 321.577 48.92C321.577 49.704 322.281 50.152 323.193 50.152C324.473 50.152 325.577 49.208 325.577 48.008ZM328.863 47.096C328.815 44.872 330.719 43 332.943 43.032C334.303 43.032 335.455 43.688 336.159 44.728L335.279 45.432C334.655 44.584 333.871 44.168 332.959 44.168C331.343 44.168 330.127 45.48 330.127 47.096C330.127 48.728 331.343 50.04 332.959 50.04C333.871 50.04 334.639 49.624 335.263 48.792L336.142 49.48C335.439 50.52 334.303 51.176 332.943 51.176C330.687 51.176 328.863 49.352 328.863 47.096ZM338.235 51V39H339.467V51H338.235ZM341.083 46.632L344.763 51H343.179L339.595 46.616L342.843 43.208H344.459L341.083 46.632ZM345.593 49.656L346.377 48.84C347.129 49.608 347.737 50.04 348.617 50.04C349.465 50.04 350.105 49.624 350.105 48.936C350.105 48.312 349.705 48.072 348.745 47.688L347.993 47.368C346.697 46.84 346.057 46.248 346.057 45.208C346.057 43.848 347.193 43.032 348.681 43.032C349.769 43.032 350.649 43.496 351.289 44.264L350.537 45.032C350.009 44.504 349.337 44.168 348.617 44.168C347.849 44.168 347.321 44.52 347.321 45.144C347.321 45.64 347.641 45.88 348.585 46.28L349.305 46.584C350.761 47.208 351.369 47.816 351.369 48.888C351.369 49.608 351.097 50.184 350.569 50.584C350.041 50.984 349.401 51.176 348.633 51.176C347.337 51.176 346.281 50.552 345.593 49.656ZM358.079 51V43.208H359.311V51H358.079ZM357.775 40.232C357.775 39.736 358.191 39.336 358.703 39.336C359.199 39.336 359.615 39.736 359.615 40.232C359.615 40.744 359.215 41.128 358.703 41.128C358.191 41.128 357.775 40.744 357.775 40.232ZM368.464 46.104V51H367.232V46.248C367.232 45.016 366.496 44.168 365.296 44.168C364.096 44.168 363.248 45.032 363.248 46.248V51H362.016V43.208H363.168V44.04C363.744 43.4 364.592 43.032 365.568 43.032C367.376 43.032 368.464 44.264 368.464 46.104ZM381.739 39H382.971V51H381.803V49.768C381.211 50.648 380.075 51.176 378.859 51.176C376.667 51.176 375.003 49.4 375.003 47.112C375.003 44.824 376.667 43.032 378.859 43.032C380.027 43.032 381.115 43.528 381.739 44.36V39ZM381.755 47.112C381.755 45.128 380.443 44.168 379.035 44.168C377.451 44.168 376.267 45.416 376.267 47.096C376.267 48.776 377.451 50.04 379.035 50.04C380.443 50.04 381.755 49.08 381.755 47.112ZM385.673 51V43.208H386.905V51H385.673ZM385.368 40.232C385.368 39.736 385.785 39.336 386.297 39.336C386.793 39.336 387.209 39.736 387.209 40.232C387.209 40.744 386.809 41.128 386.297 41.128C385.785 41.128 385.368 40.744 385.368 40.232ZM391.034 41.432V43.208H392.986V44.312H391.034V51H389.802V44.312H388.682V43.208H389.802V41.352C389.802 39.64 390.794 38.824 392.378 38.824C392.714 38.824 393.05 38.872 393.354 38.952V39.992C393.098 39.96 392.874 39.944 392.666 39.944C391.626 39.944 391.034 40.328 391.034 41.432ZM395.393 41.432V43.208H397.345V44.312H395.393V51H394.161V44.312H393.041V43.208H394.161V41.352C394.161 39.64 395.153 38.824 396.737 38.824C397.073 38.824 397.409 38.872 397.713 38.952V39.992C397.457 39.96 397.233 39.944 397.025 39.944C395.985 39.944 395.393 40.328 395.393 41.432ZM405.693 47.48H399.533C399.677 49.016 400.861 50.04 402.397 50.04C403.277 50.04 404.077 49.688 404.781 48.984L405.501 49.816C404.685 50.664 403.613 51.176 402.381 51.176C400.061 51.176 398.253 49.4 398.253 47.112C398.253 44.856 400.013 43.032 402.237 43.032C404.253 43.032 405.789 44.488 405.789 46.552C405.789 46.856 405.757 47.16 405.693 47.48ZM399.581 46.392H404.525C404.509 45 403.501 44.152 402.205 44.152C400.909 44.152 399.853 45.048 399.581 46.392ZM412.098 43.208V44.296H411.634C410.322 44.296 409.186 45.144 409.186 46.584V51H407.954V43.208H409.106V44.312C409.666 43.56 410.578 43.144 411.522 43.144C411.698 43.144 411.89 43.16 412.098 43.208ZM420.474 47.48H414.314C414.458 49.016 415.642 50.04 417.178 50.04C418.058 50.04 418.858 49.688 419.562 48.984L420.282 49.816C419.466 50.664 418.394 51.176 417.162 51.176C414.842 51.176 413.034 49.4 413.034 47.112C413.034 44.856 414.794 43.032 417.018 43.032C419.034 43.032 420.57 44.488 420.57 46.552C420.57 46.856 420.538 47.16 420.474 47.48ZM414.362 46.392H419.306C419.29 45 418.282 44.152 416.986 44.152C415.69 44.152 414.634 45.048 414.362 46.392ZM429.183 46.104V51H427.951V46.248C427.951 45.016 427.215 44.168 426.015 44.168C424.815 44.168 423.967 45.032 423.967 46.248V51H422.735V43.208H423.887V44.04C424.463 43.4 425.311 43.032 426.287 43.032C428.095 43.032 429.183 44.264 429.183 46.104ZM436.054 49.96V51C435.558 51.112 435.126 51.176 434.758 51.176C433.142 51.176 432.134 50.36 432.134 48.648V44.312H430.822V43.208H432.134V41.08H433.366V43.208H435.798V44.312H433.366V48.568C433.366 49.672 433.942 50.056 435.014 50.056C435.318 50.056 435.654 50.024 436.054 49.96ZM453.752 46.104V51H452.52V46.264C452.52 45 451.832 44.168 450.68 44.168C449.512 44.168 448.68 45.048 448.68 46.152V51H447.448V46.264C447.448 45 446.728 44.168 445.592 44.168C444.424 44.168 443.608 45.032 443.608 46.264V51H442.376V43.208H443.528V44.024C444.088 43.384 444.888 43.032 445.848 43.032C446.984 43.032 447.8 43.528 448.248 44.376C448.824 43.56 449.768 43.032 450.92 43.032C452.712 43.032 453.752 44.248 453.752 46.104ZM462.2 46.2V51H461.048V49.992C460.472 50.76 459.56 51.176 458.424 51.176C456.824 51.176 455.704 50.328 455.704 48.984C455.704 47.656 456.824 46.808 458.504 46.808H460.968V46.136C460.968 44.856 460.248 44.168 459.08 44.168C458.136 44.168 457.448 44.584 456.808 45.416L455.992 44.744C456.696 43.592 457.864 43.032 459.16 43.032C461 43.032 462.2 44.152 462.2 46.2ZM460.968 48.008V47.816H458.648C457.56 47.816 456.968 48.2 456.968 48.92C456.968 49.704 457.672 50.152 458.584 50.152C459.864 50.152 460.968 49.208 460.968 48.008ZM468.957 43.208V44.296H468.493C467.181 44.296 466.045 45.144 466.045 46.584V51H464.813V43.208H465.965V44.312C466.525 43.56 467.437 43.144 468.381 43.144C468.557 43.144 468.749 43.16 468.957 43.208ZM470.61 51V39H471.842V51H470.61ZM473.458 46.632L477.138 51H475.554L471.97 46.616L475.218 43.208H476.834L473.458 46.632ZM485.271 47.48H479.111C479.255 49.016 480.439 50.04 481.975 50.04C482.855 50.04 483.655 49.688 484.359 48.984L485.079 49.816C484.263 50.664 483.191 51.176 481.959 51.176C479.639 51.176 477.831 49.4 477.831 47.112C477.831 44.856 479.591 43.032 481.815 43.032C483.831 43.032 485.367 44.488 485.367 46.552C485.367 46.856 485.335 47.16 485.271 47.48ZM479.159 46.392H484.103C484.087 45 483.079 44.152 481.783 44.152C480.487 44.152 479.431 45.048 479.159 46.392ZM491.788 49.96V51C491.292 51.112 490.86 51.176 490.492 51.176C488.876 51.176 487.868 50.36 487.868 48.648V44.312H486.556V43.208H487.868V41.08H489.1V43.208H491.532V44.312H489.1V48.568C489.1 49.672 489.676 50.056 490.748 50.056C491.052 50.056 491.388 50.024 491.788 49.96ZM492.89 49.656L493.674 48.84C494.426 49.608 495.034 50.04 495.914 50.04C496.762 50.04 497.402 49.624 497.402 48.936C497.402 48.312 497.002 48.072 496.042 47.688L495.29 47.368C493.994 46.84 493.354 46.248 493.354 45.208C493.354 43.848 494.49 43.032 495.978 43.032C497.066 43.032 497.946 43.496 498.586 44.264L497.834 45.032C497.306 44.504 496.634 44.168 495.914 44.168C495.146 44.168 494.618 44.52 494.618 45.144C494.618 45.64 494.938 45.88 495.882 46.28L496.602 46.584C498.058 47.208 498.666 47.816 498.666 48.888C498.666 49.608 498.394 50.184 497.866 50.584C497.338 50.984 496.698 51.176 495.93 51.176C494.634 51.176 493.578 50.552 492.89 49.656Z" fill="#1D1D1F"/>
<path d="M18.8039 91.328C18.8039 88.448 21.1719 86.24 24.0199 86.24C26.8999 86.24 29.2039 88.448 29.2039 91.328C29.2039 94.208 26.8999 96.384 24.0199 96.384C21.1719 96.384 18.8039 94.144 18.8039 91.328Z" fill="#31BC2E"/>
<path d="M49.456 95V84.44H56.224V85.56H50.704V88.792H54.928V89.912H50.704V93.88H56.416V95H49.456ZM64.6785 95H63.2545L61.0305 91.8L58.8225 95H57.3825L60.2785 90.936L57.6225 87.208H59.0465L61.0305 90.072L63.0305 87.208H64.4545L61.7505 90.936L64.6785 95ZM74.3276 91.096C74.3276 93.384 72.6636 95.176 70.4716 95.176C69.3196 95.176 68.2476 94.696 67.6076 93.88V97.88H66.3756V87.208H67.5276V88.456C68.1196 87.56 69.2556 87.032 70.4716 87.032C72.6956 87.032 74.3276 88.808 74.3276 91.096ZM73.0636 91.112C73.0636 89.432 71.8796 88.168 70.2956 88.168C68.9036 88.168 67.5916 89.128 67.5916 91.096C67.5916 93.08 68.8556 94.04 70.2956 94.04C71.8796 94.04 73.0636 92.792 73.0636 91.112ZM76.485 95V83H77.717V95H76.485ZM79.8625 91.096C79.8145 88.872 81.7185 86.984 83.9425 87.032C86.1665 87 88.0705 88.872 88.0225 91.096C88.0705 93.288 86.1505 95.208 83.9265 95.16C81.7025 95.208 79.8305 93.288 79.8625 91.096ZM86.7585 91.112C86.7585 89.432 85.5265 88.168 83.9425 88.168C82.3425 88.168 81.1265 89.432 81.1265 91.112C81.1265 92.744 82.3425 94.024 83.9265 94.024C85.5105 94.024 86.7585 92.744 86.7585 91.112ZM94.3321 87.208V88.296H93.8681C92.5561 88.296 91.4201 89.144 91.4201 90.584V95H90.1881V87.208H91.3401V88.312C91.9001 87.56 92.8121 87.144 93.7561 87.144C93.9321 87.144 94.1241 87.16 94.3321 87.208ZM102.709 91.48H96.5488C96.6928 93.016 97.8768 94.04 99.4128 94.04C100.293 94.04 101.093 93.688 101.797 92.984L102.517 93.816C101.701 94.664 100.629 95.176 99.3968 95.176C97.0768 95.176 95.2688 93.4 95.2688 91.112C95.2688 88.856 97.0288 87.032 99.2528 87.032C101.269 87.032 102.805 88.488 102.805 90.552C102.805 90.856 102.773 91.16 102.709 91.48ZM96.5968 90.392H101.541C101.525 89 100.517 88.152 99.2208 88.152C97.9248 88.152 96.8688 89.048 96.5968 90.392ZM115.902 90.104V95H114.67V90.248C114.67 89.016 113.934 88.168 112.734 88.168C111.534 88.168 110.686 89.032 110.686 90.248V95H109.454V87.208H110.606V88.04C111.182 87.4 112.03 87.032 113.006 87.032C114.814 87.032 115.902 88.264 115.902 90.104ZM125.396 91.48H119.236C119.38 93.016 120.564 94.04 122.1 94.04C122.98 94.04 123.78 93.688 124.484 92.984L125.204 93.816C124.388 94.664 123.316 95.176 122.084 95.176C119.764 95.176 117.956 93.4 117.956 91.112C117.956 88.856 119.716 87.032 121.94 87.032C123.956 87.032 125.492 88.488 125.492 90.552C125.492 90.856 125.46 91.16 125.396 91.48ZM119.284 90.392H124.228C124.212 89 123.204 88.152 121.908 88.152C120.612 88.152 119.556 89.048 119.284 90.392ZM137.856 87.208H139.168L135.888 95.176H135.44L132.784 89.288L130.144 95.176H129.712L126.4 87.208H127.712L129.968 92.984L132.56 87.032H133.024L135.648 92.936L137.856 87.208ZM144.878 91.096C144.83 88.872 146.734 87 148.958 87.032C150.318 87.032 151.47 87.688 152.174 88.728L151.294 89.432C150.67 88.584 149.886 88.168 148.974 88.168C147.358 88.168 146.142 89.48 146.142 91.096C146.142 92.728 147.358 94.04 148.974 94.04C149.886 94.04 150.654 93.624 151.278 92.792L152.158 93.48C151.454 94.52 150.318 95.176 148.958 95.176C146.702 95.176 144.878 93.352 144.878 91.096ZM154.155 91.896V87.208H155.371V91.976C155.371 93.24 156.235 94.04 157.387 94.04C158.523 94.04 159.371 93.208 159.371 91.976V87.208H160.603V91.896C160.603 93.864 159.195 95.176 157.387 95.176C155.563 95.176 154.155 93.864 154.155 91.896ZM162.468 93.656L163.252 92.84C164.004 93.608 164.612 94.04 165.492 94.04C166.34 94.04 166.98 93.624 166.98 92.936C166.98 92.312 166.58 92.072 165.62 91.688L164.868 91.368C163.572 90.84 162.932 90.248 162.932 89.208C162.932 87.848 164.068 87.032 165.556 87.032C166.644 87.032 167.524 87.496 168.164 88.264L167.412 89.032C166.884 88.504 166.212 88.168 165.492 88.168C164.724 88.168 164.196 88.52 164.196 89.144C164.196 89.64 164.516 89.88 165.46 90.28L166.18 90.584C167.636 91.208 168.244 91.816 168.244 92.888C168.244 93.608 167.972 94.184 167.444 94.584C166.916 94.984 166.276 95.176 165.508 95.176C164.212 95.176 163.156 94.552 162.468 93.656ZM174.725 93.96V95C174.229 95.112 173.797 95.176 173.429 95.176C171.813 95.176 170.805 94.36 170.805 92.648V88.312H169.493V87.208H170.805V85.08H172.037V87.208H174.469V88.312H172.037V92.568C172.037 93.672 172.613 94.056 173.685 94.056C173.989 94.056 174.325 94.024 174.725 93.96ZM175.847 91.096C175.799 88.872 177.703 86.984 179.927 87.032C182.151 87 184.055 88.872 184.007 91.096C184.055 93.288 182.135 95.208 179.911 95.16C177.687 95.208 175.815 93.288 175.847 91.096ZM182.743 91.112C182.743 89.432 181.511 88.168 179.927 88.168C178.327 88.168 177.111 89.432 177.111 91.112C177.111 92.744 178.327 94.024 179.911 94.024C181.495 94.024 182.743 92.744 182.743 91.112ZM197.549 90.104V95H196.317V90.264C196.317 89 195.629 88.168 194.477 88.168C193.309 88.168 192.477 89.048 192.477 90.152V95H191.245V90.264C191.245 89 190.525 88.168 189.389 88.168C188.221 88.168 187.405 89.032 187.405 90.264V95H186.173V87.208H187.325V88.024C187.885 87.384 188.685 87.032 189.645 87.032C190.781 87.032 191.597 87.528 192.045 88.376C192.621 87.56 193.565 87.032 194.717 87.032C196.509 87.032 197.549 88.248 197.549 90.104ZM207.037 91.48H200.877C201.021 93.016 202.205 94.04 203.741 94.04C204.621 94.04 205.421 93.688 206.125 92.984L206.845 93.816C206.029 94.664 204.957 95.176 203.725 95.176C201.405 95.176 199.597 93.4 199.597 91.112C199.597 88.856 201.357 87.032 203.581 87.032C205.597 87.032 207.133 88.488 207.133 90.552C207.133 90.856 207.101 91.16 207.037 91.48ZM200.925 90.392H205.869C205.853 89 204.845 88.152 203.549 88.152C202.253 88.152 201.197 89.048 200.925 90.392ZM213.442 87.208V88.296H212.978C211.666 88.296 210.53 89.144 210.53 90.584V95H209.298V87.208H210.45V88.312C211.01 87.56 211.922 87.144 212.866 87.144C213.042 87.144 213.234 87.16 213.442 87.208ZM218.843 93.656L219.627 92.84C220.379 93.608 220.987 94.04 221.867 94.04C222.715 94.04 223.355 93.624 223.355 92.936C223.355 92.312 222.955 92.072 221.995 91.688L221.243 91.368C219.947 90.84 219.307 90.248 219.307 89.208C219.307 87.848 220.443 87.032 221.931 87.032C223.019 87.032 223.899 87.496 224.539 88.264L223.787 89.032C223.259 88.504 222.587 88.168 221.867 88.168C221.099 88.168 220.571 88.52 220.571 89.144C220.571 89.64 220.891 89.88 221.835 90.28L222.555 90.584C224.011 91.208 224.619 91.816 224.619 92.888C224.619 93.608 224.347 94.184 223.819 94.584C223.291 94.984 222.651 95.176 221.883 95.176C220.587 95.176 219.531 94.552 218.843 93.656ZM233.724 91.48H227.564C227.708 93.016 228.892 94.04 230.428 94.04C231.308 94.04 232.108 93.688 232.812 92.984L233.532 93.816C232.716 94.664 231.644 95.176 230.412 95.176C228.092 95.176 226.284 93.4 226.284 91.112C226.284 88.856 228.044 87.032 230.268 87.032C232.284 87.032 233.82 88.488 233.82 90.552C233.82 90.856 233.788 91.16 233.724 91.48ZM227.612 90.392H232.556C232.54 89 231.532 88.152 230.236 88.152C228.94 88.152 227.884 89.048 227.612 90.392ZM242.305 87.208H243.473V94.248C243.473 96.616 241.985 98.056 239.681 98.056C238.161 98.056 236.897 97.432 236.017 96.552L236.737 95.688C237.617 96.456 238.481 96.92 239.649 96.92C241.265 96.92 242.241 95.992 242.241 94.312V93.624C241.617 94.44 240.513 94.92 239.345 94.92C237.153 94.92 235.521 93.24 235.521 90.984C235.521 88.744 237.153 87.032 239.345 87.032C240.577 87.032 241.713 87.56 242.305 88.456V87.208ZM242.257 90.984C242.257 89.112 240.945 88.2 239.537 88.2C237.953 88.2 236.769 89.368 236.769 91C236.769 92.648 237.953 93.784 239.537 93.784C240.961 93.784 242.257 92.872 242.257 90.984ZM257.549 90.104V95H256.317V90.264C256.317 89 255.629 88.168 254.477 88.168C253.309 88.168 252.477 89.048 252.477 90.152V95H251.245V90.264C251.245 89 250.525 88.168 249.389 88.168C248.221 88.168 247.405 89.032 247.405 90.264V95H246.173V87.208H247.325V88.024C247.885 87.384 248.685 87.032 249.645 87.032C250.781 87.032 251.597 87.528 252.045 88.376C252.621 87.56 253.565 87.032 254.717 87.032C256.509 87.032 257.549 88.248 257.549 90.104ZM267.037 91.48H260.877C261.021 93.016 262.205 94.04 263.741 94.04C264.621 94.04 265.421 93.688 266.125 92.984L266.845 93.816C266.029 94.664 264.957 95.176 263.725 95.176C261.405 95.176 259.597 93.4 259.597 91.112C259.597 88.856 261.357 87.032 263.581 87.032C265.597 87.032 267.133 88.488 267.133 90.552C267.133 90.856 267.101 91.16 267.037 91.48ZM260.925 90.392H265.869C265.853 89 264.845 88.152 263.549 88.152C262.253 88.152 261.197 89.048 260.925 90.392ZM275.746 90.104V95H274.514V90.248C274.514 89.016 273.778 88.168 272.578 88.168C271.378 88.168 270.53 89.032 270.53 90.248V95H269.298V87.208H270.45V88.04C271.026 87.4 271.874 87.032 272.85 87.032C274.658 87.032 275.746 88.264 275.746 90.104ZM282.616 93.96V95C282.12 95.112 281.688 95.176 281.32 95.176C279.704 95.176 278.696 94.36 278.696 92.648V88.312H277.384V87.208H278.696V85.08H279.928V87.208H282.36V88.312H279.928V92.568C279.928 93.672 280.504 94.056 281.576 94.056C281.88 94.056 282.216 94.024 282.616 93.96ZM283.718 93.656L284.502 92.84C285.254 93.608 285.862 94.04 286.742 94.04C287.59 94.04 288.23 93.624 288.23 92.936C288.23 92.312 287.83 92.072 286.87 91.688L286.118 91.368C284.822 90.84 284.182 90.248 284.182 89.208C284.182 87.848 285.318 87.032 286.806 87.032C287.894 87.032 288.774 87.496 289.414 88.264L288.662 89.032C288.134 88.504 287.462 88.168 286.742 88.168C285.974 88.168 285.446 88.52 285.446 89.144C285.446 89.64 285.766 89.88 286.71 90.28L287.43 90.584C288.886 91.208 289.494 91.816 289.494 92.888C289.494 93.608 289.222 94.184 288.694 94.584C288.166 94.984 287.526 95.176 286.758 95.176C285.462 95.176 284.406 94.552 283.718 93.656ZM302.044 90.2V95H300.892V93.992C300.316 94.76 299.404 95.176 298.268 95.176C296.668 95.176 295.548 94.328 295.548 92.984C295.548 91.656 296.668 90.808 298.348 90.808H300.812V90.136C300.812 88.856 300.092 88.168 298.924 88.168C297.98 88.168 297.292 88.584 296.652 89.416L295.836 88.744C296.54 87.592 297.708 87.032 299.004 87.032C300.844 87.032 302.044 88.152 302.044 90.2ZM300.812 92.008V91.816H298.492C297.404 91.816 296.812 92.2 296.812 92.92C296.812 93.704 297.516 94.152 298.428 94.152C299.708 94.152 300.812 93.208 300.812 92.008ZM311.105 90.104V95H309.873V90.248C309.873 89.016 309.137 88.168 307.937 88.168C306.737 88.168 305.889 89.032 305.889 90.248V95H304.657V87.208H305.809V88.04C306.385 87.4 307.233 87.032 308.209 87.032C310.017 87.032 311.105 88.264 311.105 90.104ZM319.895 83H321.127V95H319.959V93.768C319.367 94.648 318.231 95.176 317.015 95.176C314.823 95.176 313.159 93.4 313.159 91.112C313.159 88.824 314.823 87.032 317.015 87.032C318.183 87.032 319.271 87.528 319.895 88.36V83ZM319.911 91.112C319.911 89.128 318.599 88.168 317.191 88.168C315.607 88.168 314.423 89.416 314.423 91.096C314.423 92.776 315.607 94.04 317.191 94.04C318.599 94.04 319.911 93.08 319.911 91.112ZM333.365 87.208H334.677L331.013 95.176H330.565L326.885 87.208H328.197L330.789 93.08L333.365 87.208ZM341.981 90.2V95H340.829V93.992C340.253 94.76 339.341 95.176 338.205 95.176C336.605 95.176 335.485 94.328 335.485 92.984C335.485 91.656 336.605 90.808 338.285 90.808H340.749V90.136C340.749 88.856 340.029 88.168 338.861 88.168C337.917 88.168 337.229 88.584 336.589 89.416L335.773 88.744C336.477 87.592 337.645 87.032 338.941 87.032C340.781 87.032 341.981 88.152 341.981 90.2ZM340.749 92.008V91.816H338.429C337.341 91.816 336.749 92.2 336.749 92.92C336.749 93.704 337.453 94.152 338.365 94.152C339.645 94.152 340.749 93.208 340.749 92.008ZM344.594 95V83H345.826V95H344.594ZM348.436 91.896V87.208H349.652V91.976C349.652 93.24 350.516 94.04 351.668 94.04C352.804 94.04 353.652 93.208 353.652 91.976V87.208H354.884V91.896C354.884 93.864 353.476 95.176 351.668 95.176C349.844 95.176 348.436 93.864 348.436 91.896ZM364.365 91.48H358.205C358.349 93.016 359.533 94.04 361.069 94.04C361.949 94.04 362.749 93.688 363.453 92.984L364.173 93.816C363.357 94.664 362.285 95.176 361.053 95.176C358.733 95.176 356.925 93.4 356.925 91.112C356.925 88.856 358.685 87.032 360.909 87.032C362.925 87.032 364.461 88.488 364.461 90.552C364.461 90.856 364.429 91.16 364.365 91.48ZM358.253 90.392H363.197C363.181 89 362.173 88.152 360.877 88.152C359.581 88.152 358.525 89.048 358.253 90.392ZM370.55 91.096C370.502 88.872 372.406 87 374.63 87.032C375.99 87.032 377.142 87.688 377.846 88.728L376.966 89.432C376.342 88.584 375.558 88.168 374.646 88.168C373.03 88.168 371.814 89.48 371.814 91.096C371.814 92.728 373.03 94.04 374.646 94.04C375.558 94.04 376.326 93.624 376.95 92.792L377.83 93.48C377.126 94.52 375.99 95.176 374.63 95.176C372.374 95.176 370.55 93.352 370.55 91.096ZM386.371 90.104V95H385.139V90.264C385.139 89 384.403 88.168 383.203 88.168C382.003 88.168 381.155 89.048 381.155 90.264V95H379.923V83H381.155V88.088C381.683 87.432 382.515 87.032 383.491 87.032C385.283 87.032 386.371 88.264 386.371 90.104ZM394.825 90.2V95H393.673V93.992C393.097 94.76 392.185 95.176 391.049 95.176C389.449 95.176 388.329 94.328 388.329 92.984C388.329 91.656 389.449 90.808 391.129 90.808H393.593V90.136C393.593 88.856 392.873 88.168 391.705 88.168C390.761 88.168 390.073 88.584 389.433 89.416L388.617 88.744C389.321 87.592 390.489 87.032 391.785 87.032C393.625 87.032 394.825 88.152 394.825 90.2ZM393.593 92.008V91.816H391.273C390.185 91.816 389.593 92.2 389.593 92.92C389.593 93.704 390.297 94.152 391.209 94.152C392.489 94.152 393.593 93.208 393.593 92.008ZM397.438 95V87.208H398.67V95H397.438ZM397.134 84.232C397.134 83.736 397.55 83.336 398.062 83.336C398.558 83.336 398.974 83.736 398.974 84.232C398.974 84.744 398.574 85.128 398.062 85.128C397.55 85.128 397.134 84.744 397.134 84.232ZM407.824 90.104V95H406.592V90.248C406.592 89.016 405.856 88.168 404.656 88.168C403.456 88.168 402.608 89.032 402.608 90.248V95H401.376V87.208H402.528V88.04C403.104 87.4 403.952 87.032 404.928 87.032C406.736 87.032 407.824 88.264 407.824 90.104ZM414.363 91.096C414.315 88.872 416.219 86.984 418.443 87.032C420.667 87 422.571 88.872 422.523 91.096C422.571 93.288 420.651 95.208 418.427 95.16C416.203 95.208 414.331 93.288 414.363 91.096ZM421.259 91.112C421.259 89.432 420.027 88.168 418.443 88.168C416.843 88.168 415.627 89.432 415.627 91.112C415.627 92.744 416.843 94.024 418.427 94.024C420.011 94.024 421.259 92.744 421.259 91.112ZM432.64 91.096C432.64 93.384 430.976 95.176 428.784 95.176C427.632 95.176 426.56 94.696 425.92 93.88V97.88H424.688V87.208H425.84V88.456C426.432 87.56 427.568 87.032 428.784 87.032C431.008 87.032 432.64 88.808 432.64 91.096ZM431.376 91.112C431.376 89.432 430.192 88.168 428.608 88.168C427.216 88.168 425.904 89.128 425.904 91.096C425.904 93.08 427.168 94.04 428.608 94.04C430.192 94.04 431.376 92.792 431.376 91.112ZM442.75 91.096C442.75 93.384 441.086 95.176 438.894 95.176C437.742 95.176 436.67 94.696 436.03 93.88V97.88H434.798V87.208H435.95V88.456C436.542 87.56 437.678 87.032 438.894 87.032C441.118 87.032 442.75 88.808 442.75 91.096ZM441.486 91.112C441.486 89.432 440.302 88.168 438.718 88.168C437.326 88.168 436.014 89.128 436.014 91.096C436.014 93.08 437.278 94.04 438.718 94.04C440.302 94.04 441.486 92.792 441.486 91.112ZM444.347 91.096C444.299 88.872 446.203 86.984 448.427 87.032C450.651 87 452.555 88.872 452.507 91.096C452.555 93.288 450.635 95.208 448.411 95.16C446.187 95.208 444.315 93.288 444.347 91.096ZM451.243 91.112C451.243 89.432 450.011 88.168 448.427 88.168C446.827 88.168 445.611 89.432 445.611 91.112C445.611 92.744 446.827 94.024 448.411 94.024C449.995 94.024 451.243 92.744 451.243 91.112ZM458.817 87.208V88.296H458.353C457.041 88.296 455.905 89.144 455.905 90.584V95H454.673V87.208H455.825V88.312C456.385 87.56 457.297 87.144 458.241 87.144C458.417 87.144 458.609 87.16 458.817 87.208ZM464.725 93.96V95C464.229 95.112 463.797 95.176 463.429 95.176C461.813 95.176 460.805 94.36 460.805 92.648V88.312H459.493V87.208H460.805V85.08H462.037V87.208H464.469V88.312H462.037V92.568C462.037 93.672 462.613 94.056 463.685 94.056C463.989 94.056 464.325 94.024 464.725 93.96ZM466.467 91.896V87.208H467.683V91.976C467.683 93.24 468.547 94.04 469.699 94.04C470.835 94.04 471.683 93.208 471.683 91.976V87.208H472.915V91.896C472.915 93.864 471.507 95.176 469.699 95.176C467.875 95.176 466.467 93.864 466.467 91.896ZM481.964 90.104V95H480.732V90.248C480.732 89.016 479.996 88.168 478.796 88.168C477.596 88.168 476.748 89.032 476.748 90.248V95H475.516V87.208H476.668V88.04C477.244 87.4 478.092 87.032 479.068 87.032C480.876 87.032 481.964 88.264 481.964 90.104ZM484.579 95V87.208H485.811V95H484.579ZM484.275 84.232C484.275 83.736 484.691 83.336 485.203 83.336C485.699 83.336 486.115 83.736 486.115 84.232C486.115 84.744 485.715 85.128 485.203 85.128C484.691 85.128 484.275 84.744 484.275 84.232ZM492.772 93.96V95C492.276 95.112 491.844 95.176 491.476 95.176C489.86 95.176 488.852 94.36 488.852 92.648V88.312H487.54V87.208H488.852V85.08H490.084V87.208H492.516V88.312H490.084V92.568C490.084 93.672 490.66 94.056 491.732 94.056C492.036 94.056 492.372 94.024 492.772 93.96ZM494.61 95V87.208H495.842V95H494.61ZM494.306 84.232C494.306 83.736 494.722 83.336 495.234 83.336C495.73 83.336 496.146 83.736 496.146 84.232C496.146 84.744 495.746 85.128 495.234 85.128C494.722 85.128 494.306 84.744 494.306 84.232ZM505.428 91.48H499.268C499.412 93.016 500.596 94.04 502.132 94.04C503.012 94.04 503.812 93.688 504.516 92.984L505.236 93.816C504.42 94.664 503.348 95.176 502.116 95.176C499.796 95.176 497.988 93.4 497.988 91.112C497.988 88.856 499.748 87.032 501.972 87.032C503.988 87.032 505.524 88.488 505.524 90.552C505.524 90.856 505.492 91.16 505.428 91.48ZM499.316 90.392H504.26C504.244 89 503.236 88.152 501.94 88.152C500.644 88.152 499.588 89.048 499.316 90.392ZM506.952 93.656L507.736 92.84C508.488 93.608 509.096 94.04 509.976 94.04C510.824 94.04 511.464 93.624 511.464 92.936C511.464 92.312 511.064 92.072 510.104 91.688L509.352 91.368C508.056 90.84 507.416 90.248 507.416 89.208C507.416 87.848 508.552 87.032 510.04 87.032C511.128 87.032 512.008 87.496 512.648 88.264L511.896 89.032C511.368 88.504 510.696 88.168 509.976 88.168C509.208 88.168 508.68 88.52 508.68 89.144C508.68 89.64 509 89.88 509.944 90.28L510.664 90.584C512.12 91.208 512.728 91.816 512.728 92.888C512.728 93.608 512.456 94.184 511.928 94.584C511.4 94.984 510.76 95.176 509.992 95.176C508.696 95.176 507.64 94.552 506.952 93.656Z" fill="#1D1D1F"/>
<path d="M18.8039 147.328C18.8039 144.448 21.1719 142.24 24.0199 142.24C26.8999 142.24 29.2039 144.448 29.2039 147.328C29.2039 150.208 26.8999 152.384 24.0199 152.384C21.1719 152.384 18.8039 150.144 18.8039 147.328Z" fill="#31BC2E"/>
<path d="M49.456 139V128.44H50.704V139H49.456ZM64.7985 134.104V139H63.5665V134.264C63.5665 133 62.8785 132.168 61.7265 132.168C60.5585 132.168 59.7265 133.048 59.7265 134.152V139H58.4945V134.264C58.4945 133 57.7745 132.168 56.6385 132.168C55.4705 132.168 54.6545 133.032 54.6545 134.264V139H53.4225V131.208H54.5745V132.024C55.1345 131.384 55.9345 131.032 56.8945 131.032C58.0305 131.032 58.8465 131.528 59.2945 132.376C59.8705 131.56 60.8145 131.032 61.9665 131.032C63.7585 131.032 64.7985 132.248 64.7985 134.104ZM75.3589 135.096C75.3589 137.384 73.6949 139.176 71.5029 139.176C70.3509 139.176 69.2789 138.696 68.6389 137.88V141.88H67.4069V131.208H68.5589V132.456C69.1509 131.56 70.2869 131.032 71.5029 131.032C73.7269 131.032 75.3589 132.808 75.3589 135.096ZM74.0949 135.112C74.0949 133.432 72.9109 132.168 71.3269 132.168C69.9349 132.168 68.6229 133.128 68.6229 135.096C68.6229 137.08 69.8869 138.04 71.3269 138.04C72.9109 138.04 74.0949 136.792 74.0949 135.112ZM77.5163 139V127H78.7483V139H77.5163ZM88.3338 135.48H82.1738C82.3178 137.016 83.5018 138.04 85.0378 138.04C85.9178 138.04 86.7178 137.688 87.4218 136.984L88.1418 137.816C87.3258 138.664 86.2538 139.176 85.0218 139.176C82.7018 139.176 80.8938 137.4 80.8938 135.112C80.8938 132.856 82.6538 131.032 84.8778 131.032C86.8938 131.032 88.4298 132.488 88.4298 134.552C88.4298 134.856 88.3978 135.16 88.3338 135.48ZM82.2218 134.392H87.1658C87.1498 133 86.1418 132.152 84.8458 132.152C83.5498 132.152 82.4938 133.048 82.2218 134.392ZM101.97 134.104V139H100.738V134.264C100.738 133 100.05 132.168 98.8984 132.168C97.7304 132.168 96.8984 133.048 96.8984 134.152V139H95.6664V134.264C95.6664 133 94.9464 132.168 93.8104 132.168C92.6424 132.168 91.8264 133.032 91.8264 134.264V139H90.5944V131.208H91.7464V132.024C92.3064 131.384 93.1064 131.032 94.0664 131.032C95.2024 131.032 96.0184 131.528 96.4664 132.376C97.0424 131.56 97.9864 131.032 99.1384 131.032C100.93 131.032 101.97 132.248 101.97 134.104ZM111.459 135.48H105.299C105.443 137.016 106.627 138.04 108.163 138.04C109.043 138.04 109.843 137.688 110.547 136.984L111.267 137.816C110.451 138.664 109.379 139.176 108.147 139.176C105.827 139.176 104.019 137.4 104.019 135.112C104.019 132.856 105.779 131.032 108.003 131.032C110.019 131.032 111.555 132.488 111.555 134.552C111.555 134.856 111.523 135.16 111.459 135.48ZM105.347 134.392H110.291C110.275 133 109.267 132.152 107.971 132.152C106.675 132.152 105.619 133.048 105.347 134.392ZM120.167 134.104V139H118.935V134.248C118.935 133.016 118.199 132.168 116.999 132.168C115.799 132.168 114.951 133.032 114.951 134.248V139H113.719V131.208H114.871V132.04C115.447 131.4 116.295 131.032 117.271 131.032C119.079 131.032 120.167 132.264 120.167 134.104ZM127.038 137.96V139C126.542 139.112 126.11 139.176 125.742 139.176C124.126 139.176 123.118 138.36 123.118 136.648V132.312H121.806V131.208H123.118V129.08H124.35V131.208H126.782V132.312H124.35V136.568C124.35 137.672 124.926 138.056 125.998 138.056C126.302 138.056 126.638 138.024 127.038 137.96ZM139.68 131.208H140.848V138.248C140.848 140.616 139.36 142.056 137.056 142.056C135.536 142.056 134.272 141.432 133.392 140.552L134.112 139.688C134.992 140.456 135.856 140.92 137.024 140.92C138.64 140.92 139.616 139.992 139.616 138.312V137.624C138.992 138.44 137.888 138.92 136.72 138.92C134.528 138.92 132.896 137.24 132.896 134.984C132.896 132.744 134.528 131.032 136.72 131.032C137.952 131.032 139.088 131.56 139.68 132.456V131.208ZM139.632 134.984C139.632 133.112 138.32 132.2 136.912 132.2C135.328 132.2 134.144 133.368 134.144 135C134.144 136.648 135.328 137.784 136.912 137.784C138.336 137.784 139.632 136.872 139.632 134.984ZM147.692 131.208V132.296H147.228C145.916 132.296 144.78 133.144 144.78 134.584V139H143.548V131.208H144.7V132.312C145.26 131.56 146.172 131.144 147.116 131.144C147.292 131.144 147.484 131.16 147.692 131.208ZM148.628 135.096C148.58 132.872 150.484 130.984 152.708 131.032C154.932 131 156.836 132.872 156.788 135.096C156.836 137.288 154.916 139.208 152.692 139.16C150.468 139.208 148.596 137.288 148.628 135.096ZM155.524 135.112C155.524 133.432 154.292 132.168 152.708 132.168C151.108 132.168 149.892 133.432 149.892 135.112C149.892 136.744 151.108 138.024 152.692 138.024C154.276 138.024 155.524 136.744 155.524 135.112ZM169.153 131.208H170.465L167.185 139.176H166.737L164.081 133.288L161.441 139.176H161.009L157.697 131.208H159.009L161.265 136.984L163.857 131.032H164.321L166.945 136.936L169.153 131.208ZM176.507 137.96V139C176.011 139.112 175.579 139.176 175.211 139.176C173.595 139.176 172.587 138.36 172.587 136.648V132.312H171.275V131.208H172.587V129.08H173.819V131.208H176.251V132.312H173.819V136.568C173.819 137.672 174.395 138.056 175.467 138.056C175.771 138.056 176.107 138.024 176.507 137.96ZM184.792 134.104V139H183.56V134.264C183.56 133 182.824 132.168 181.624 132.168C180.424 132.168 179.576 133.048 179.576 134.264V139H178.344V127H179.576V132.088C180.104 131.432 180.936 131.032 181.912 131.032C183.704 131.032 184.792 132.264 184.792 134.104ZM198.339 134.104V139H197.107V134.264C197.107 133 196.371 132.168 195.171 132.168C193.971 132.168 193.123 133.048 193.123 134.264V139H191.891V127H193.123V132.088C193.651 131.432 194.483 131.032 195.459 131.032C197.251 131.032 198.339 132.264 198.339 134.104ZM206.794 134.2V139H205.642V137.992C205.066 138.76 204.154 139.176 203.018 139.176C201.418 139.176 200.298 138.328 200.298 136.984C200.298 135.656 201.418 134.808 203.098 134.808H205.562V134.136C205.562 132.856 204.842 132.168 203.674 132.168C202.73 132.168 202.042 132.584 201.402 133.416L200.586 132.744C201.29 131.592 202.458 131.032 203.754 131.032C205.594 131.032 206.794 132.152 206.794 134.2ZM205.562 136.008V135.816H203.242C202.154 135.816 201.562 136.2 201.562 136.92C201.562 137.704 202.266 138.152 203.178 138.152C204.458 138.152 205.562 137.208 205.562 136.008ZM208.847 135.096C208.799 132.872 210.703 131 212.927 131.032C214.287 131.032 215.439 131.688 216.143 132.728L215.263 133.432C214.639 132.584 213.855 132.168 212.943 132.168C211.327 132.168 210.111 133.48 210.111 135.096C210.111 136.728 211.327 138.04 212.943 138.04C213.855 138.04 214.623 137.624 215.247 136.792L216.127 137.48C215.423 138.52 214.287 139.176 212.927 139.176C210.671 139.176 208.847 137.352 208.847 135.096ZM218.219 139V127H219.451V139H218.219ZM221.067 134.632L224.747 139H223.163L219.579 134.616L222.827 131.208H224.443L221.067 134.632ZM226.313 139V131.208H227.545V139H226.313ZM226.009 128.232C226.009 127.736 226.425 127.336 226.937 127.336C227.433 127.336 227.849 127.736 227.849 128.232C227.849 128.744 227.449 129.128 226.937 129.128C226.425 129.128 226.009 128.744 226.009 128.232ZM236.699 134.104V139H235.467V134.248C235.467 133.016 234.731 132.168 233.531 132.168C232.331 132.168 231.483 133.032 231.483 134.248V139H230.251V131.208H231.403V132.04C231.979 131.4 232.827 131.032 233.803 131.032C235.611 131.032 236.699 132.264 236.699 134.104ZM245.633 131.208H246.801V138.248C246.801 140.616 245.313 142.056 243.009 142.056C241.489 142.056 240.225 141.432 239.345 140.552L240.065 139.688C240.945 140.456 241.809 140.92 242.977 140.92C244.593 140.92 245.569 139.992 245.569 138.312V137.624C244.945 138.44 243.841 138.92 242.673 138.92C240.481 138.92 238.849 137.24 238.849 134.984C238.849 132.744 240.481 131.032 242.673 131.032C243.905 131.032 245.041 131.56 245.633 132.456V131.208ZM245.585 134.984C245.585 133.112 244.273 132.2 242.865 132.2C241.281 132.2 240.097 133.368 240.097 135C240.097 136.648 241.281 137.784 242.865 137.784C244.289 137.784 245.585 136.872 245.585 134.984ZM259.825 134.2V139H258.673V137.992C258.097 138.76 257.185 139.176 256.049 139.176C254.449 139.176 253.329 138.328 253.329 136.984C253.329 135.656 254.449 134.808 256.129 134.808H258.593V134.136C258.593 132.856 257.873 132.168 256.705 132.168C255.761 132.168 255.073 132.584 254.433 133.416L253.617 132.744C254.321 131.592 255.489 131.032 256.785 131.032C258.625 131.032 259.825 132.152 259.825 134.2ZM258.593 136.008V135.816H256.273C255.185 135.816 254.593 136.2 254.593 136.92C254.593 137.704 255.297 138.152 256.209 138.152C257.489 138.152 258.593 137.208 258.593 136.008ZM268.886 134.104V139H267.654V134.248C267.654 133.016 266.918 132.168 265.718 132.168C264.518 132.168 263.67 133.032 263.67 134.248V139H262.438V131.208H263.59V132.04C264.166 131.4 265.014 131.032 265.99 131.032C267.798 131.032 268.886 132.264 268.886 134.104ZM277.677 127H278.909V139H277.741V137.768C277.149 138.648 276.013 139.176 274.797 139.176C272.605 139.176 270.941 137.4 270.941 135.112C270.941 132.824 272.605 131.032 274.797 131.032C275.965 131.032 277.053 131.528 277.677 132.36V127ZM277.693 135.112C277.693 133.128 276.381 132.168 274.973 132.168C273.389 132.168 272.205 133.416 272.205 135.096C272.205 136.776 273.389 138.04 274.973 138.04C276.381 138.04 277.693 137.08 277.693 135.112ZM291.934 134.2V139H290.782V137.992C290.206 138.76 289.294 139.176 288.158 139.176C286.558 139.176 285.438 138.328 285.438 136.984C285.438 135.656 286.558 134.808 288.238 134.808H290.702V134.136C290.702 132.856 289.982 132.168 288.814 132.168C287.87 132.168 287.182 132.584 286.542 133.416L285.726 132.744C286.43 131.592 287.598 131.032 288.894 131.032C290.734 131.032 291.934 132.152 291.934 134.2ZM290.702 136.008V135.816H288.382C287.294 135.816 286.702 136.2 286.702 136.92C286.702 137.704 287.406 138.152 288.318 138.152C289.598 138.152 290.702 137.208 290.702 136.008ZM300.868 131.208H302.036V138.248C302.036 140.616 300.548 142.056 298.244 142.056C296.724 142.056 295.46 141.432 294.58 140.552L295.299 139.688C296.18 140.456 297.044 140.92 298.212 140.92C299.828 140.92 300.804 139.992 300.804 138.312V137.624C300.18 138.44 299.076 138.92 297.908 138.92C295.716 138.92 294.084 137.24 294.084 134.984C294.084 132.744 295.716 131.032 297.908 131.032C299.14 131.032 300.276 131.56 300.868 132.456V131.208ZM300.82 134.984C300.82 133.112 299.508 132.2 298.1 132.2C296.516 132.2 295.332 133.368 295.332 135C295.332 136.648 296.516 137.784 298.1 137.784C299.524 137.784 300.82 136.872 300.82 134.984ZM304.735 139V131.208H305.967V139H304.735ZM304.431 128.232C304.431 127.736 304.847 127.336 305.359 127.336C305.855 127.336 306.271 127.736 306.271 128.232C306.271 128.744 305.871 129.128 305.359 129.128C304.847 129.128 304.431 128.744 304.431 128.232ZM308.673 139V127H309.905V139H308.673ZM319.49 135.48H313.33C313.474 137.016 314.658 138.04 316.194 138.04C317.074 138.04 317.874 137.688 318.578 136.984L319.298 137.816C318.482 138.664 317.41 139.176 316.178 139.176C313.858 139.176 312.05 137.4 312.05 135.112C312.05 132.856 313.81 131.032 316.034 131.032C318.05 131.032 319.586 132.488 319.586 134.552C319.586 134.856 319.554 135.16 319.49 135.48ZM313.378 134.392H318.322C318.306 133 317.298 132.152 316.002 132.152C314.706 132.152 313.65 133.048 313.378 134.392ZM334.187 135.096C334.187 137.384 332.523 139.176 330.331 139.176C329.179 139.176 328.107 138.696 327.467 137.88V141.88H326.235V131.208H327.387V132.456C327.979 131.56 329.115 131.032 330.331 131.032C332.555 131.032 334.187 132.808 334.187 135.096ZM332.923 135.112C332.923 133.432 331.739 132.168 330.155 132.168C328.763 132.168 327.451 133.128 327.451 135.096C327.451 137.08 328.715 138.04 330.155 138.04C331.739 138.04 332.923 136.792 332.923 135.112ZM340.488 131.208V132.296H340.024C338.712 132.296 337.576 133.144 337.576 134.584V139H336.344V131.208H337.496V132.312C338.056 131.56 338.968 131.144 339.912 131.144C340.088 131.144 340.28 131.16 340.488 131.208ZM341.425 135.096C341.377 132.872 343.281 130.984 345.505 131.032C347.729 131 349.633 132.872 349.585 135.096C349.633 137.288 347.713 139.208 345.489 139.16C343.265 139.208 341.393 137.288 341.425 135.096ZM348.321 135.112C348.321 133.432 347.089 132.168 345.505 132.168C343.905 132.168 342.689 133.432 342.689 135.112C342.689 136.744 343.905 138.024 345.489 138.024C347.073 138.024 348.321 136.744 348.321 135.112ZM357.927 127H359.159V139H357.991V137.768C357.399 138.648 356.263 139.176 355.047 139.176C352.855 139.176 351.191 137.4 351.191 135.112C351.191 132.824 352.855 131.032 355.047 131.032C356.215 131.032 357.303 131.528 357.927 132.36V127ZM357.943 135.112C357.943 133.128 356.631 132.168 355.223 132.168C353.639 132.168 352.455 133.416 352.455 135.096C352.455 136.776 353.639 138.04 355.223 138.04C356.631 138.04 357.943 137.08 357.943 135.112ZM361.764 135.896V131.208H362.98V135.976C362.98 137.24 363.844 138.04 364.996 138.04C366.132 138.04 366.98 137.208 366.98 135.976V131.208H368.212V135.896C368.212 137.864 366.804 139.176 364.996 139.176C363.172 139.176 361.764 137.864 361.764 135.896ZM370.253 135.096C370.205 132.872 372.109 131 374.333 131.032C375.693 131.032 376.845 131.688 377.549 132.728L376.669 133.432C376.045 132.584 375.261 132.168 374.349 132.168C372.733 132.168 371.517 133.48 371.517 135.096C371.517 136.728 372.733 138.04 374.349 138.04C375.261 138.04 376.029 137.624 376.653 136.792L377.533 137.48C376.829 138.52 375.693 139.176 374.333 139.176C372.077 139.176 370.253 137.352 370.253 135.096ZM383.882 137.96V139C383.386 139.112 382.954 139.176 382.586 139.176C380.97 139.176 379.962 138.36 379.962 136.648V132.312H378.65V131.208H379.962V129.08H381.194V131.208H383.626V132.312H381.194V136.568C381.194 137.672 381.77 138.056 382.842 138.056C383.146 138.056 383.482 138.024 383.882 137.96ZM396.38 127H397.612V139H396.444V137.768C395.852 138.648 394.716 139.176 393.5 139.176C391.308 139.176 389.644 137.4 389.644 135.112C389.644 132.824 391.308 131.032 393.5 131.032C394.668 131.032 395.756 131.528 396.38 132.36V127ZM396.396 135.112C396.396 133.128 395.084 132.168 393.676 132.168C392.092 132.168 390.908 133.416 390.908 135.096C390.908 136.776 392.092 138.04 393.676 138.04C395.084 138.04 396.396 137.08 396.396 135.112ZM407.193 135.48H401.033C401.177 137.016 402.361 138.04 403.897 138.04C404.777 138.04 405.577 137.688 406.281 136.984L407.001 137.816C406.185 138.664 405.113 139.176 403.881 139.176C401.561 139.176 399.753 137.4 399.753 135.112C399.753 132.856 401.513 131.032 403.737 131.032C405.753 131.032 407.289 132.488 407.289 134.552C407.289 134.856 407.257 135.16 407.193 135.48ZM401.081 134.392H406.025C406.009 133 405.001 132.152 403.705 132.152C402.409 132.152 401.353 133.048 401.081 134.392ZM414.677 131.208H415.989L412.325 139.176H411.877L408.197 131.208H409.509L412.101 137.08L414.677 131.208ZM424.334 135.48H418.174C418.318 137.016 419.502 138.04 421.038 138.04C421.918 138.04 422.718 137.688 423.422 136.984L424.142 137.816C423.326 138.664 422.254 139.176 421.022 139.176C418.702 139.176 416.894 137.4 416.894 135.112C416.894 132.856 418.654 131.032 420.878 131.032C422.894 131.032 424.43 132.488 424.43 134.552C424.43 134.856 424.398 135.16 424.334 135.48ZM418.222 134.392H423.166C423.15 133 422.142 132.152 420.846 132.152C419.55 132.152 418.494 133.048 418.222 134.392ZM426.594 139V127H427.826V139H426.594ZM429.972 135.096C429.924 132.872 431.828 130.984 434.052 131.032C436.276 131 438.18 132.872 438.132 135.096C438.18 137.288 436.26 139.208 434.036 139.16C431.812 139.208 429.94 137.288 429.972 135.096ZM436.868 135.112C436.868 133.432 435.636 132.168 434.052 132.168C432.452 132.168 431.236 133.432 431.236 135.112C431.236 136.744 432.452 138.024 434.036 138.024C435.62 138.024 436.868 136.744 436.868 135.112ZM448.25 135.096C448.25 137.384 446.586 139.176 444.394 139.176C443.242 139.176 442.17 138.696 441.53 137.88V141.88H440.298V131.208H441.45V132.456C442.042 131.56 443.178 131.032 444.394 131.032C446.618 131.032 448.25 132.808 448.25 135.096ZM446.986 135.112C446.986 133.432 445.802 132.168 444.218 132.168C442.826 132.168 441.514 133.128 441.514 135.096C441.514 137.08 442.778 138.04 444.218 138.04C445.802 138.04 446.986 136.792 446.986 135.112ZM461.783 134.104V139H460.551V134.264C460.551 133 459.863 132.168 458.711 132.168C457.543 132.168 456.711 133.048 456.711 134.152V139H455.479V134.264C455.479 133 454.759 132.168 453.623 132.168C452.455 132.168 451.639 133.032 451.639 134.264V139H450.407V131.208H451.559V132.024C452.119 131.384 452.919 131.032 453.879 131.032C455.015 131.032 455.831 131.528 456.279 132.376C456.855 131.56 457.799 131.032 458.951 131.032C460.743 131.032 461.783 132.248 461.783 134.104ZM471.271 135.48H465.111C465.255 137.016 466.439 138.04 467.975 138.04C468.855 138.04 469.655 137.688 470.359 136.984L471.079 137.816C470.263 138.664 469.191 139.176 467.959 139.176C465.639 139.176 463.831 137.4 463.831 135.112C463.831 132.856 465.591 131.032 467.815 131.032C469.831 131.032 471.367 132.488 471.367 134.552C471.367 134.856 471.335 135.16 471.271 135.48ZM465.159 134.392H470.103C470.087 133 469.079 132.152 467.783 132.152C466.487 132.152 465.431 133.048 465.159 134.392ZM479.98 134.104V139H478.748V134.248C478.748 133.016 478.012 132.168 476.812 132.168C475.612 132.168 474.764 133.032 474.764 134.248V139H473.532V131.208H474.684V132.04C475.26 131.4 476.108 131.032 477.084 131.032C478.892 131.032 479.98 132.264 479.98 134.104ZM486.85 137.96V139C486.354 139.112 485.922 139.176 485.554 139.176C483.938 139.176 482.93 138.36 482.93 136.648V132.312H481.618V131.208H482.93V129.08H484.162V131.208H486.594V132.312H484.162V136.568C484.162 137.672 484.738 138.056 485.81 138.056C486.114 138.056 486.45 138.024 486.85 137.96ZM503.2 131.208H504.512L501.232 139.176H500.784L498.128 133.288L495.488 139.176H495.056L491.744 131.208H493.056L495.312 136.984L497.904 131.032H498.368L500.992 136.936L503.2 131.208ZM506.298 139V131.208H507.53V139H506.298ZM505.993 128.232C505.993 127.736 506.41 127.336 506.922 127.336C507.418 127.336 507.834 127.736 507.834 128.232C507.834 128.744 507.434 129.128 506.922 129.128C506.41 129.128 505.993 128.744 505.993 128.232ZM514.491 137.96V139C513.995 139.112 513.563 139.176 513.195 139.176C511.579 139.176 510.571 138.36 510.571 136.648V132.312H509.259V131.208H510.571V129.08H511.803V131.208H514.235V132.312H511.803V136.568C511.803 137.672 512.379 138.056 513.451 138.056C513.755 138.056 514.091 138.024 514.491 137.96ZM522.777 134.104V139H521.545V134.264C521.545 133 520.809 132.168 519.609 132.168C518.409 132.168 517.561 133.048 517.561 134.264V139H516.329V127H517.561V132.088C518.089 131.432 518.921 131.032 519.897 131.032C521.689 131.032 522.777 132.264 522.777 134.104ZM535.716 134.2V139H534.564V137.992C533.988 138.76 533.076 139.176 531.94 139.176C530.34 139.176 529.22 138.328 529.22 136.984C529.22 135.656 530.34 134.808 532.02 134.808H534.484V134.136C534.484 132.856 533.764 132.168 532.596 132.168C531.652 132.168 530.964 132.584 530.324 133.416L529.508 132.744C530.212 131.592 531.38 131.032 532.676 131.032C534.516 131.032 535.716 132.152 535.716 134.2ZM534.484 136.008V135.816H532.164C531.076 135.816 530.484 136.2 530.484 136.92C530.484 137.704 531.188 138.152 532.1 138.152C533.38 138.152 534.484 137.208 534.484 136.008ZM48.8 159.096C48.752 156.872 50.656 155 52.88 155.032C54.24 155.032 55.392 155.688 56.096 156.728L55.216 157.432C54.592 156.584 53.808 156.168 52.896 156.168C51.28 156.168 50.064 157.48 50.064 159.096C50.064 160.728 51.28 162.04 52.896 162.04C53.808 162.04 54.576 161.624 55.2 160.792L56.08 161.48C55.376 162.52 54.24 163.176 52.88 163.176C50.624 163.176 48.8 161.352 48.8 159.096ZM58.0765 159.896V155.208H59.2925V159.976C59.2925 161.24 60.1565 162.04 61.3085 162.04C62.4445 162.04 63.2925 161.208 63.2925 159.976V155.208H64.5245V159.896C64.5245 161.864 63.1165 163.176 61.3085 163.176C59.4845 163.176 58.0765 161.864 58.0765 159.896ZM66.3896 161.656L67.1736 160.84C67.9256 161.608 68.5336 162.04 69.4136 162.04C70.2616 162.04 70.9016 161.624 70.9016 160.936C70.9016 160.312 70.5016 160.072 69.5416 159.688L68.7896 159.368C67.4936 158.84 66.8536 158.248 66.8536 157.208C66.8536 155.848 67.9896 155.032 69.4776 155.032C70.5656 155.032 71.4456 155.496 72.0856 156.264L71.3336 157.032C70.8056 156.504 70.1336 156.168 69.4136 156.168C68.6456 156.168 68.1176 156.52 68.1176 157.144C68.1176 157.64 68.4376 157.88 69.3816 158.28L70.1016 158.584C71.5576 159.208 72.1656 159.816 72.1656 160.888C72.1656 161.608 71.8936 162.184 71.3656 162.584C70.8376 162.984 70.1976 163.176 69.4296 163.176C68.1336 163.176 67.0776 162.552 66.3896 161.656ZM78.6473 161.96V163C78.1513 163.112 77.7193 163.176 77.3513 163.176C75.7353 163.176 74.7273 162.36 74.7273 160.648V156.312H73.4153V155.208H74.7273V153.08H75.9593V155.208H78.3913V156.312H75.9593V160.568C75.9593 161.672 76.5353 162.056 77.6073 162.056C77.9113 162.056 78.2473 162.024 78.6473 161.96ZM79.7688 159.096C79.7208 156.872 81.6248 154.984 83.8488 155.032C86.0728 155 87.9768 156.872 87.9288 159.096C87.9768 161.288 86.0568 163.208 83.8328 163.16C81.6088 163.208 79.7368 161.288 79.7688 159.096ZM86.6648 159.112C86.6648 157.432 85.4328 156.168 83.8488 156.168C82.2488 156.168 81.0328 157.432 81.0328 159.112C81.0328 160.744 82.2488 162.024 83.8328 162.024C85.4168 162.024 86.6648 160.744 86.6648 159.112ZM101.47 158.104V163H100.238V158.264C100.238 157 99.5504 156.168 98.3984 156.168C97.2304 156.168 96.3984 157.048 96.3984 158.152V163H95.1664V158.264C95.1664 157 94.4464 156.168 93.3104 156.168C92.1424 156.168 91.3264 157.032 91.3264 158.264V163H90.0944V155.208H91.2464V156.024C91.8064 155.384 92.6064 155.032 93.5664 155.032C94.7024 155.032 95.5184 155.528 95.9664 156.376C96.5424 155.56 97.4864 155.032 98.6384 155.032C100.43 155.032 101.47 156.248 101.47 158.104ZM110.959 159.48H104.799C104.943 161.016 106.127 162.04 107.663 162.04C108.543 162.04 109.343 161.688 110.047 160.984L110.767 161.816C109.951 162.664 108.879 163.176 107.647 163.176C105.327 163.176 103.519 161.4 103.519 159.112C103.519 156.856 105.279 155.032 107.503 155.032C109.519 155.032 111.055 156.488 111.055 158.552C111.055 158.856 111.023 159.16 110.959 159.48ZM104.847 158.392H109.791C109.775 157 108.767 156.152 107.471 156.152C106.175 156.152 105.119 157.048 104.847 158.392ZM117.363 155.208V156.296H116.899C115.587 156.296 114.451 157.144 114.451 158.584V163H113.219V155.208H114.371V156.312C114.931 155.56 115.843 155.144 116.787 155.144C116.963 155.144 117.155 155.16 117.363 155.208ZM118.504 158.488V157.448H122.328V158.488H118.504ZM123.988 159.096C123.94 156.872 125.844 155 128.068 155.032C129.428 155.032 130.58 155.688 131.284 156.728L130.404 157.432C129.78 156.584 128.996 156.168 128.084 156.168C126.468 156.168 125.252 157.48 125.252 159.096C125.252 160.728 126.468 162.04 128.084 162.04C128.996 162.04 129.764 161.624 130.388 160.792L131.267 161.48C130.564 162.52 129.428 163.176 128.068 163.176C125.812 163.176 123.988 161.352 123.988 159.096ZM140.084 159.48H133.924C134.068 161.016 135.252 162.04 136.788 162.04C137.668 162.04 138.468 161.688 139.172 160.984L139.892 161.816C139.076 162.664 138.004 163.176 136.772 163.176C134.452 163.176 132.644 161.4 132.644 159.112C132.644 156.856 134.404 155.032 136.628 155.032C138.644 155.032 140.18 156.488 140.18 158.552C140.18 158.856 140.148 159.16 140.084 159.48ZM133.972 158.392H138.916C138.9 157 137.892 156.152 136.596 156.152C135.3 156.152 134.244 157.048 133.972 158.392ZM148.792 158.104V163H147.56V158.248C147.56 157.016 146.824 156.168 145.624 156.168C144.424 156.168 143.576 157.032 143.576 158.248V163H142.344V155.208H143.496V156.04C144.072 155.4 144.92 155.032 145.896 155.032C147.704 155.032 148.792 156.264 148.792 158.104ZM155.663 161.96V163C155.167 163.112 154.735 163.176 154.367 163.176C152.751 163.176 151.743 162.36 151.743 160.648V156.312H150.431V155.208H151.743V153.08H152.975V155.208H155.407V156.312H152.975V160.568C152.975 161.672 153.551 162.056 154.623 162.056C154.927 162.056 155.263 162.024 155.663 161.96ZM161.645 155.208V156.296H161.181C159.869 156.296 158.733 157.144 158.733 158.584V163H157.501V155.208H158.653V156.312C159.213 155.56 160.125 155.144 161.069 155.144C161.245 155.144 161.437 155.16 161.645 155.208ZM163.298 163V155.208H164.53V163H163.298ZM162.993 152.232C162.993 151.736 163.41 151.336 163.922 151.336C164.418 151.336 164.834 151.736 164.834 152.232C164.834 152.744 164.434 153.128 163.922 153.128C163.41 153.128 162.993 152.744 162.993 152.232ZM166.675 159.096C166.627 156.872 168.531 155 170.755 155.032C172.115 155.032 173.267 155.688 173.971 156.728L173.091 157.432C172.467 156.584 171.683 156.168 170.771 156.168C169.155 156.168 167.939 157.48 167.939 159.096C167.939 160.728 169.155 162.04 170.771 162.04C171.683 162.04 172.451 161.624 173.075 160.792L173.955 161.48C173.251 162.52 172.115 163.176 170.755 163.176C168.499 163.176 166.675 161.352 166.675 159.096ZM186.372 158.2V163H185.22V161.992C184.644 162.76 183.732 163.176 182.596 163.176C180.996 163.176 179.876 162.328 179.876 160.984C179.876 159.656 180.996 158.808 182.676 158.808H185.14V158.136C185.14 156.856 184.42 156.168 183.252 156.168C182.308 156.168 181.62 156.584 180.98 157.416L180.164 156.744C180.868 155.592 182.036 155.032 183.332 155.032C185.172 155.032 186.372 156.152 186.372 158.2ZM185.14 160.008V159.816H182.82C181.732 159.816 181.14 160.2 181.14 160.92C181.14 161.704 181.844 162.152 182.756 162.152C184.036 162.152 185.14 161.208 185.14 160.008ZM196.937 159.096C196.937 161.384 195.273 163.176 193.081 163.176C191.929 163.176 190.857 162.696 190.217 161.88V165.88H188.985V155.208H190.137V156.456C190.729 155.56 191.865 155.032 193.081 155.032C195.305 155.032 196.937 156.808 196.937 159.096ZM195.673 159.112C195.673 157.432 194.489 156.168 192.905 156.168C191.513 156.168 190.201 157.128 190.201 159.096C190.201 161.08 191.465 162.04 192.905 162.04C194.489 162.04 195.673 160.792 195.673 159.112ZM207.046 159.096C207.046 161.384 205.382 163.176 203.19 163.176C202.038 163.176 200.966 162.696 200.326 161.88V165.88H199.094V155.208H200.246V156.456C200.838 155.56 201.974 155.032 203.19 155.032C205.414 155.032 207.046 156.808 207.046 159.096ZM205.782 159.112C205.782 157.432 204.598 156.168 203.014 156.168C201.622 156.168 200.31 157.128 200.31 159.096C200.31 161.08 201.574 162.04 203.014 162.04C204.598 162.04 205.782 160.792 205.782 159.112ZM213.348 155.208V156.296H212.884C211.572 156.296 210.436 157.144 210.436 158.584V163H209.204V155.208H210.356V156.312C210.916 155.56 211.828 155.144 212.772 155.144C212.948 155.144 213.14 155.16 213.348 155.208ZM214.284 159.096C214.236 156.872 216.14 154.984 218.364 155.032C220.588 155 222.492 156.872 222.444 159.096C222.492 161.288 220.572 163.208 218.348 163.16C216.124 163.208 214.252 161.288 214.284 159.096ZM221.18 159.112C221.18 157.432 219.948 156.168 218.364 156.168C216.764 156.168 215.548 157.432 215.548 159.112C215.548 160.744 216.764 162.024 218.348 162.024C219.932 162.024 221.18 160.744 221.18 159.112ZM230.45 158.2V163H229.298V161.992C228.722 162.76 227.81 163.176 226.674 163.176C225.074 163.176 223.954 162.328 223.954 160.984C223.954 159.656 225.074 158.808 226.754 158.808H229.218V158.136C229.218 156.856 228.498 156.168 227.33 156.168C226.386 156.168 225.698 156.584 225.058 157.416L224.242 156.744C224.946 155.592 226.114 155.032 227.41 155.032C229.25 155.032 230.45 156.152 230.45 158.2ZM229.218 160.008V159.816H226.898C225.81 159.816 225.218 160.2 225.218 160.92C225.218 161.704 225.922 162.152 226.834 162.152C228.114 162.152 229.218 161.208 229.218 160.008ZM232.503 159.096C232.455 156.872 234.359 155 236.583 155.032C237.943 155.032 239.095 155.688 239.799 156.728L238.919 157.432C238.295 156.584 237.511 156.168 236.599 156.168C234.983 156.168 233.767 157.48 233.767 159.096C233.767 160.728 234.983 162.04 236.599 162.04C237.511 162.04 238.279 161.624 238.903 160.792L239.783 161.48C239.079 162.52 237.943 163.176 236.583 163.176C234.327 163.176 232.503 161.352 232.503 159.096ZM248.324 158.104V163H247.092V158.264C247.092 157 246.356 156.168 245.156 156.168C243.956 156.168 243.108 157.048 243.108 158.264V163H241.876V151H243.108V156.088C243.636 155.432 244.468 155.032 245.444 155.032C247.236 155.032 248.324 156.264 248.324 158.104ZM250.81 162.168C250.81 161.592 251.258 161.16 251.818 161.16C252.378 161.16 252.826 161.592 252.826 162.168C252.826 162.744 252.378 163.176 251.818 163.176C251.258 163.176 250.81 162.744 250.81 162.168Z" fill="#1D1D1F"/>
<path d="M18.8039 215.328C18.8039 212.448 21.1719 210.24 24.0199 210.24C26.8999 210.24 29.2039 212.448 29.2039 215.328C29.2039 218.208 26.8999 220.384 24.0199 220.384C21.1719 220.384 18.8039 218.144 18.8039 215.328Z" fill="#31BC2E"/>
<path d="M49.456 207V196.44H50.704V207H49.456ZM64.7985 202.104V207H63.5665V202.264C63.5665 201 62.8785 200.168 61.7265 200.168C60.5585 200.168 59.7265 201.048 59.7265 202.152V207H58.4945V202.264C58.4945 201 57.7745 200.168 56.6385 200.168C55.4705 200.168 54.6545 201.032 54.6545 202.264V207H53.4225V199.208H54.5745V200.024C55.1345 199.384 55.9345 199.032 56.8945 199.032C58.0305 199.032 58.8465 199.528 59.2945 200.376C59.8705 199.56 60.8145 199.032 61.9665 199.032C63.7585 199.032 64.7985 200.248 64.7985 202.104ZM75.3589 203.096C75.3589 205.384 73.6949 207.176 71.5029 207.176C70.3509 207.176 69.2789 206.696 68.6389 205.88V209.88H67.4069V199.208H68.5589V200.456C69.1509 199.56 70.2869 199.032 71.5029 199.032C73.7269 199.032 75.3589 200.808 75.3589 203.096ZM74.0949 203.112C74.0949 201.432 72.9109 200.168 71.3269 200.168C69.9349 200.168 68.6229 201.128 68.6229 203.096C68.6229 205.08 69.8869 206.04 71.3269 206.04C72.9109 206.04 74.0949 204.792 74.0949 203.112ZM81.6603 199.208V200.296H81.1963C79.8843 200.296 78.7483 201.144 78.7483 202.584V207H77.5163V199.208H78.6683V200.312C79.2283 199.56 80.1403 199.144 81.0843 199.144C81.2603 199.144 81.4523 199.16 81.6603 199.208ZM82.5969 203.096C82.5489 200.872 84.4529 198.984 86.6769 199.032C88.9009 199 90.8049 200.872 90.7569 203.096C90.8049 205.288 88.8849 207.208 86.6609 207.16C84.4369 207.208 82.5649 205.288 82.5969 203.096ZM89.4929 203.112C89.4929 201.432 88.2609 200.168 86.6769 200.168C85.0769 200.168 83.8609 201.432 83.8609 203.112C83.8609 204.744 85.0769 206.024 86.6609 206.024C88.2449 206.024 89.4929 204.744 89.4929 203.112ZM98.146 199.208H99.458L95.794 207.176H95.346L91.666 199.208H92.978L95.57 205.08L98.146 199.208ZM107.803 203.48H101.643C101.787 205.016 102.971 206.04 104.507 206.04C105.387 206.04 106.187 205.688 106.891 204.984L107.611 205.816C106.795 206.664 105.723 207.176 104.491 207.176C102.171 207.176 100.363 205.4 100.363 203.112C100.363 200.856 102.123 199.032 104.347 199.032C106.363 199.032 107.899 200.488 107.899 202.552C107.899 202.856 107.867 203.16 107.803 203.48ZM101.691 202.392H106.635C106.619 201 105.611 200.152 104.315 200.152C103.019 200.152 101.963 201.048 101.691 202.392ZM121.428 203.48H115.268C115.412 205.016 116.596 206.04 118.132 206.04C119.012 206.04 119.812 205.688 120.516 204.984L121.236 205.816C120.42 206.664 119.348 207.176 118.116 207.176C115.796 207.176 113.988 205.4 113.988 203.112C113.988 200.856 115.748 199.032 117.972 199.032C119.988 199.032 121.524 200.488 121.524 202.552C121.524 202.856 121.492 203.16 121.428 203.48ZM115.316 202.392H120.26C120.244 201 119.236 200.152 117.94 200.152C116.644 200.152 115.588 201.048 115.316 202.392ZM123.128 203.096C123.08 200.872 124.984 199 127.208 199.032C128.568 199.032 129.72 199.688 130.424 200.728L129.544 201.432C128.92 200.584 128.136 200.168 127.224 200.168C125.608 200.168 124.392 201.48 124.392 203.096C124.392 204.728 125.608 206.04 127.224 206.04C128.136 206.04 128.904 205.624 129.528 204.792L130.408 205.48C129.704 206.52 128.568 207.176 127.208 207.176C124.952 207.176 123.128 205.352 123.128 203.096ZM131.784 203.096C131.736 200.872 133.64 198.984 135.864 199.032C138.088 199 139.992 200.872 139.944 203.096C139.992 205.288 138.072 207.208 135.848 207.16C133.624 207.208 131.752 205.288 131.784 203.096ZM138.68 203.112C138.68 201.432 137.448 200.168 135.864 200.168C134.264 200.168 133.048 201.432 133.048 203.112C133.048 204.744 134.264 206.024 135.848 206.024C137.432 206.024 138.68 204.744 138.68 203.112ZM141.374 205.656L142.158 204.84C142.91 205.608 143.518 206.04 144.398 206.04C145.246 206.04 145.886 205.624 145.886 204.936C145.886 204.312 145.486 204.072 144.526 203.688L143.774 203.368C142.478 202.84 141.838 202.248 141.838 201.208C141.838 199.848 142.974 199.032 144.462 199.032C145.55 199.032 146.43 199.496 147.07 200.264L146.318 201.032C145.79 200.504 145.118 200.168 144.398 200.168C143.63 200.168 143.102 200.52 143.102 201.144C143.102 201.64 143.422 201.88 144.366 202.28L145.086 202.584C146.542 203.208 147.15 203.816 147.15 204.888C147.15 205.608 146.878 206.184 146.35 206.584C145.822 206.984 145.182 207.176 144.414 207.176C143.118 207.176 142.062 206.552 141.374 205.656ZM154.912 199.208H156.224L152.384 208.088C151.792 209.448 150.944 210.056 149.744 210.056C149.344 210.056 148.944 210.008 148.544 209.896V208.856C148.944 208.904 149.264 208.936 149.488 208.936C150.304 208.936 150.848 208.632 151.248 207.688L151.664 206.76L148.432 199.208H149.76L152.336 205.416L154.912 199.208ZM157.03 205.656L157.814 204.84C158.566 205.608 159.174 206.04 160.054 206.04C160.902 206.04 161.542 205.624 161.542 204.936C161.542 204.312 161.142 204.072 160.182 203.688L159.43 203.368C158.134 202.84 157.494 202.248 157.494 201.208C157.494 199.848 158.63 199.032 160.118 199.032C161.206 199.032 162.086 199.496 162.726 200.264L161.974 201.032C161.446 200.504 160.774 200.168 160.054 200.168C159.286 200.168 158.758 200.52 158.758 201.144C158.758 201.64 159.078 201.88 160.022 202.28L160.742 202.584C162.198 203.208 162.806 203.816 162.806 204.888C162.806 205.608 162.534 206.184 162.006 206.584C161.478 206.984 160.838 207.176 160.07 207.176C158.774 207.176 157.718 206.552 157.03 205.656ZM169.288 205.96V207C168.792 207.112 168.36 207.176 167.992 207.176C166.376 207.176 165.368 206.36 165.368 204.648V200.312H164.056V199.208H165.368V197.08H166.6V199.208H169.032V200.312H166.6V204.568C166.6 205.672 167.176 206.056 168.248 206.056C168.552 206.056 168.888 206.024 169.288 205.96ZM177.849 203.48H171.689C171.833 205.016 173.017 206.04 174.553 206.04C175.433 206.04 176.233 205.688 176.937 204.984L177.657 205.816C176.841 206.664 175.769 207.176 174.537 207.176C172.217 207.176 170.409 205.4 170.409 203.112C170.409 200.856 172.169 199.032 174.393 199.032C176.409 199.032 177.945 200.488 177.945 202.552C177.945 202.856 177.913 203.16 177.849 203.48ZM171.737 202.392H176.681C176.665 201 175.657 200.152 174.361 200.152C173.065 200.152 172.009 201.048 171.737 202.392ZM191.486 202.104V207H190.254V202.264C190.254 201 189.566 200.168 188.414 200.168C187.246 200.168 186.414 201.048 186.414 202.152V207H185.182V202.264C185.182 201 184.462 200.168 183.326 200.168C182.158 200.168 181.342 201.032 181.342 202.264V207H180.11V199.208H181.262V200.024C181.822 199.384 182.622 199.032 183.582 199.032C184.718 199.032 185.534 199.528 185.982 200.376C186.558 199.56 187.502 199.032 188.654 199.032C190.446 199.032 191.486 200.248 191.486 202.104ZM206.531 203.096C206.531 205.384 204.867 207.176 202.675 207.176C201.523 207.176 200.451 206.696 199.811 205.88V209.88H198.579V199.208H199.731V200.456C200.323 199.56 201.459 199.032 202.675 199.032C204.899 199.032 206.531 200.808 206.531 203.096ZM205.267 203.112C205.267 201.432 204.083 200.168 202.499 200.168C201.107 200.168 199.795 201.128 199.795 203.096C199.795 205.08 201.059 206.04 202.499 206.04C204.083 206.04 205.267 204.792 205.267 203.112ZM214.528 202.2V207H213.376V205.992C212.8 206.76 211.888 207.176 210.752 207.176C209.152 207.176 208.032 206.328 208.032 204.984C208.032 203.656 209.152 202.808 210.832 202.808H213.296V202.136C213.296 200.856 212.576 200.168 211.408 200.168C210.464 200.168 209.776 200.584 209.136 201.416L208.32 200.744C209.024 199.592 210.192 199.032 211.488 199.032C213.328 199.032 214.528 200.152 214.528 202.2ZM213.296 204.008V203.816H210.976C209.888 203.816 209.296 204.2 209.296 204.92C209.296 205.704 210 206.152 210.912 206.152C212.192 206.152 213.296 205.208 213.296 204.008ZM221.285 199.208V200.296H220.821C219.509 200.296 218.373 201.144 218.373 202.584V207H217.141V199.208H218.293V200.312C218.853 199.56 219.765 199.144 220.709 199.144C220.885 199.144 221.077 199.16 221.285 199.208ZM227.194 205.96V207C226.698 207.112 226.266 207.176 225.898 207.176C224.282 207.176 223.274 206.36 223.274 204.648V200.312H221.962V199.208H223.274V197.08H224.506V199.208H226.938V200.312H224.506V204.568C224.506 205.672 225.082 206.056 226.154 206.056C226.458 206.056 226.794 206.024 227.194 205.96ZM229.032 207V199.208H230.264V207H229.032ZM228.728 196.232C228.728 195.736 229.144 195.336 229.656 195.336C230.152 195.336 230.568 195.736 230.568 196.232C230.568 196.744 230.168 197.128 229.656 197.128C229.144 197.128 228.728 196.744 228.728 196.232ZM232.409 203.096C232.361 200.872 234.265 199 236.489 199.032C237.849 199.032 239.001 199.688 239.705 200.728L238.825 201.432C238.201 200.584 237.417 200.168 236.505 200.168C234.889 200.168 233.673 201.48 233.673 203.096C233.673 204.728 234.889 206.04 236.505 206.04C237.417 206.04 238.185 205.624 238.809 204.792L239.689 205.48C238.985 206.52 237.849 207.176 236.489 207.176C234.233 207.176 232.409 205.352 232.409 203.096ZM241.782 207V199.208H243.014V207H241.782ZM241.478 196.232C241.478 195.736 241.894 195.336 242.406 195.336C242.902 195.336 243.318 195.736 243.318 196.232C243.318 196.744 242.918 197.128 242.406 197.128C241.894 197.128 241.478 196.744 241.478 196.232ZM253.671 203.096C253.671 205.384 252.007 207.176 249.815 207.176C248.663 207.176 247.591 206.696 246.951 205.88V209.88H245.719V199.208H246.871V200.456C247.463 199.56 248.599 199.032 249.815 199.032C252.039 199.032 253.671 200.808 253.671 203.096ZM252.407 203.112C252.407 201.432 251.223 200.168 249.639 200.168C248.247 200.168 246.935 201.128 246.935 203.096C246.935 205.08 248.199 206.04 249.639 206.04C251.223 206.04 252.407 204.792 252.407 203.112ZM261.669 202.2V207H260.517V205.992C259.941 206.76 259.029 207.176 257.893 207.176C256.293 207.176 255.173 206.328 255.173 204.984C255.173 203.656 256.293 202.808 257.973 202.808H260.437V202.136C260.437 200.856 259.717 200.168 258.549 200.168C257.605 200.168 256.917 200.584 256.277 201.416L255.461 200.744C256.165 199.592 257.333 199.032 258.629 199.032C260.469 199.032 261.669 200.152 261.669 202.2ZM260.437 204.008V203.816H258.117C257.029 203.816 256.437 204.2 256.437 204.92C256.437 205.704 257.141 206.152 258.053 206.152C259.333 206.152 260.437 205.208 260.437 204.008ZM268.538 205.96V207C268.042 207.112 267.61 207.176 267.242 207.176C265.626 207.176 264.618 206.36 264.618 204.648V200.312H263.306V199.208H264.618V197.08H265.85V199.208H268.282V200.312H265.85V204.568C265.85 205.672 266.426 206.056 267.498 206.056C267.802 206.056 268.138 206.024 268.538 205.96ZM270.376 207V199.208H271.608V207H270.376ZM270.072 196.232C270.072 195.736 270.488 195.336 271 195.336C271.496 195.336 271.912 195.736 271.912 196.232C271.912 196.744 271.512 197.128 271 197.128C270.488 197.128 270.072 196.744 270.072 196.232ZM273.753 203.096C273.705 200.872 275.609 198.984 277.833 199.032C280.057 199 281.961 200.872 281.913 203.096C281.961 205.288 280.041 207.208 277.817 207.16C275.593 207.208 273.721 205.288 273.753 203.096ZM280.649 203.112C280.649 201.432 279.417 200.168 277.833 200.168C276.233 200.168 275.017 201.432 275.017 203.112C275.017 204.744 276.233 206.024 277.817 206.024C279.401 206.024 280.649 204.744 280.649 203.112ZM290.527 202.104V207H289.295V202.248C289.295 201.016 288.559 200.168 287.359 200.168C286.159 200.168 285.311 201.032 285.311 202.248V207H284.079V199.208H285.231V200.04C285.807 199.4 286.655 199.032 287.631 199.032C289.439 199.032 290.527 200.264 290.527 202.104ZM303.466 202.2V207H302.314V205.992C301.738 206.76 300.826 207.176 299.69 207.176C298.09 207.176 296.97 206.328 296.97 204.984C296.97 203.656 298.09 202.808 299.77 202.808H302.234V202.136C302.234 200.856 301.514 200.168 300.346 200.168C299.402 200.168 298.714 200.584 298.074 201.416L297.258 200.744C297.962 199.592 299.13 199.032 300.426 199.032C302.266 199.032 303.466 200.152 303.466 202.2ZM302.234 204.008V203.816H299.914C298.826 203.816 298.234 204.2 298.234 204.92C298.234 205.704 298.938 206.152 299.85 206.152C301.13 206.152 302.234 205.208 302.234 204.008ZM312.527 202.104V207H311.295V202.248C311.295 201.016 310.559 200.168 309.359 200.168C308.159 200.168 307.311 201.032 307.311 202.248V207H306.079V199.208H307.231V200.04C307.807 199.4 308.655 199.032 309.631 199.032C311.439 199.032 312.527 200.264 312.527 202.104ZM321.317 195H322.549V207H321.381V205.768C320.789 206.648 319.653 207.176 318.437 207.176C316.245 207.176 314.581 205.4 314.581 203.112C314.581 200.824 316.245 199.032 318.437 199.032C319.605 199.032 320.693 199.528 321.317 200.36V195ZM321.333 203.112C321.333 201.128 320.021 200.168 318.613 200.168C317.029 200.168 315.845 201.416 315.845 203.096C315.845 204.776 317.029 206.04 318.613 206.04C320.021 206.04 321.333 205.08 321.333 203.112ZM337.687 203.096C337.687 205.384 336.023 207.176 333.831 207.176C332.679 207.176 331.607 206.696 330.967 205.88V209.88H329.735V199.208H330.887V200.456C331.479 199.56 332.615 199.032 333.831 199.032C336.055 199.032 337.687 200.808 337.687 203.096ZM336.423 203.112C336.423 201.432 335.239 200.168 333.655 200.168C332.263 200.168 330.951 201.128 330.951 203.096C330.951 205.08 332.215 206.04 333.655 206.04C335.239 206.04 336.423 204.792 336.423 203.112ZM343.988 199.208V200.296H343.524C342.212 200.296 341.076 201.144 341.076 202.584V207H339.844V199.208H340.996V200.312C341.556 199.56 342.468 199.144 343.412 199.144C343.588 199.144 343.78 199.16 343.988 199.208ZM344.925 203.096C344.877 200.872 346.781 198.984 349.005 199.032C351.229 199 353.133 200.872 353.085 203.096C353.133 205.288 351.213 207.208 348.989 207.16C346.765 207.208 344.893 205.288 344.925 203.096ZM351.821 203.112C351.821 201.432 350.589 200.168 349.005 200.168C347.405 200.168 346.189 201.432 346.189 203.112C346.189 204.744 347.405 206.024 348.989 206.024C350.573 206.024 351.821 204.744 351.821 203.112ZM361.427 195H362.659V207H361.491V205.768C360.899 206.648 359.763 207.176 358.547 207.176C356.355 207.176 354.691 205.4 354.691 203.112C354.691 200.824 356.355 199.032 358.547 199.032C359.715 199.032 360.803 199.528 361.427 200.36V195ZM361.443 203.112C361.443 201.128 360.131 200.168 358.723 200.168C357.139 200.168 355.955 201.416 355.955 203.096C355.955 204.776 357.139 206.04 358.723 206.04C360.131 206.04 361.443 205.08 361.443 203.112ZM365.264 203.896V199.208H366.48V203.976C366.48 205.24 367.344 206.04 368.496 206.04C369.632 206.04 370.48 205.208 370.48 203.976V199.208H371.712V203.896C371.712 205.864 370.304 207.176 368.496 207.176C366.672 207.176 365.264 205.864 365.264 203.896ZM373.753 203.096C373.705 200.872 375.609 199 377.833 199.032C379.193 199.032 380.345 199.688 381.049 200.728L380.169 201.432C379.545 200.584 378.761 200.168 377.849 200.168C376.233 200.168 375.017 201.48 375.017 203.096C375.017 204.728 376.233 206.04 377.849 206.04C378.761 206.04 379.529 205.624 380.153 204.792L381.033 205.48C380.329 206.52 379.193 207.176 377.833 207.176C375.577 207.176 373.753 205.352 373.753 203.096ZM387.382 205.96V207C386.886 207.112 386.454 207.176 386.086 207.176C384.47 207.176 383.462 206.36 383.462 204.648V200.312H382.15V199.208H383.462V197.08H384.694V199.208H387.126V200.312H384.694V204.568C384.694 205.672 385.27 206.056 386.342 206.056C386.646 206.056 386.982 206.024 387.382 205.96ZM388.629 202.488V201.448H392.453V202.488H388.629ZM402.625 203.112C402.625 205.4 400.977 207.176 398.785 207.176C397.569 207.176 396.417 206.648 395.825 205.768V207H394.673V195H395.905V200.344C396.529 199.528 397.601 199.032 398.769 199.032C400.961 199.032 402.625 200.824 402.625 203.112ZM401.361 203.096C401.361 201.416 400.177 200.168 398.593 200.168C397.153 200.168 395.889 201.128 395.889 203.112C395.889 205.08 397.201 206.04 398.593 206.04C400.177 206.04 401.361 204.776 401.361 203.096ZM410.622 202.2V207H409.47V205.992C408.894 206.76 407.982 207.176 406.846 207.176C405.246 207.176 404.126 206.328 404.126 204.984C404.126 203.656 405.246 202.808 406.926 202.808H409.39V202.136C409.39 200.856 408.67 200.168 407.502 200.168C406.558 200.168 405.87 200.584 405.23 201.416L404.414 200.744C405.118 199.592 406.286 199.032 407.582 199.032C409.422 199.032 410.622 200.152 410.622 202.2ZM409.39 204.008V203.816H407.07C405.982 203.816 405.39 204.2 405.39 204.92C405.39 205.704 406.094 206.152 407.006 206.152C408.286 206.152 409.39 205.208 409.39 204.008ZM412.499 205.656L413.283 204.84C414.035 205.608 414.643 206.04 415.523 206.04C416.371 206.04 417.011 205.624 417.011 204.936C417.011 204.312 416.611 204.072 415.651 203.688L414.899 203.368C413.603 202.84 412.963 202.248 412.963 201.208C412.963 199.848 414.099 199.032 415.587 199.032C416.675 199.032 417.555 199.496 418.195 200.264L417.443 201.032C416.915 200.504 416.243 200.168 415.523 200.168C414.755 200.168 414.227 200.52 414.227 201.144C414.227 201.64 414.547 201.88 415.491 202.28L416.211 202.584C417.667 203.208 418.275 203.816 418.275 204.888C418.275 205.608 418.003 206.184 417.475 206.584C416.947 206.984 416.307 207.176 415.539 207.176C414.243 207.176 413.187 206.552 412.499 205.656ZM427.381 203.48H421.221C421.365 205.016 422.549 206.04 424.085 206.04C424.965 206.04 425.765 205.688 426.469 204.984L427.189 205.816C426.373 206.664 425.301 207.176 424.069 207.176C421.749 207.176 419.941 205.4 419.941 203.112C419.941 200.856 421.701 199.032 423.925 199.032C425.941 199.032 427.477 200.488 427.477 202.552C427.477 202.856 427.445 203.16 427.381 203.48ZM421.269 202.392H426.213C426.197 201 425.189 200.152 423.893 200.152C422.597 200.152 421.541 201.048 421.269 202.392ZM435.817 195H437.049V207H435.881V205.768C435.289 206.648 434.153 207.176 432.937 207.176C430.745 207.176 429.081 205.4 429.081 203.112C429.081 200.824 430.745 199.032 432.937 199.032C434.105 199.032 435.193 199.528 435.817 200.36V195ZM435.833 203.112C435.833 201.128 434.521 200.168 433.113 200.168C431.529 200.168 430.345 201.416 430.345 203.096C430.345 204.776 431.529 206.04 433.113 206.04C434.521 206.04 435.833 205.08 435.833 203.112ZM443.675 203.096C443.627 200.872 445.531 199 447.755 199.032C449.115 199.032 450.267 199.688 450.971 200.728L450.091 201.432C449.467 200.584 448.683 200.168 447.771 200.168C446.155 200.168 444.939 201.48 444.939 203.096C444.939 204.728 446.155 206.04 447.771 206.04C448.683 206.04 449.451 205.624 450.075 204.792L450.955 205.48C450.251 206.52 449.115 207.176 447.755 207.176C445.499 207.176 443.675 205.352 443.675 203.096ZM452.331 203.096C452.283 200.872 454.187 198.984 456.411 199.032C458.635 199 460.539 200.872 460.491 203.096C460.539 205.288 458.619 207.208 456.395 207.16C454.171 207.208 452.299 205.288 452.331 203.096ZM459.227 203.112C459.227 201.432 457.995 200.168 456.411 200.168C454.811 200.168 453.595 201.432 453.595 203.112C453.595 204.744 454.811 206.024 456.395 206.024C457.979 206.024 459.227 204.744 459.227 203.112ZM474.033 202.104V207H472.801V202.264C472.801 201 472.113 200.168 470.961 200.168C469.793 200.168 468.961 201.048 468.961 202.152V207H467.729V202.264C467.729 201 467.009 200.168 465.873 200.168C464.705 200.168 463.889 201.032 463.889 202.264V207H462.657V199.208H463.809V200.024C464.369 199.384 465.169 199.032 466.129 199.032C467.265 199.032 468.081 199.528 468.529 200.376C469.105 199.56 470.049 199.032 471.201 199.032C472.993 199.032 474.033 200.248 474.033 202.104ZM488.017 202.104V207H486.785V202.264C486.785 201 486.097 200.168 484.945 200.168C483.777 200.168 482.945 201.048 482.945 202.152V207H481.713V202.264C481.713 201 480.993 200.168 479.857 200.168C478.689 200.168 477.873 201.032 477.873 202.264V207H476.641V199.208H477.793V200.024C478.353 199.384 479.153 199.032 480.113 199.032C481.249 199.032 482.065 199.528 482.513 200.376C483.089 199.56 484.033 199.032 485.185 199.032C486.977 199.032 488.017 200.248 488.017 202.104ZM490.53 203.896V199.208H491.746V203.976C491.746 205.24 492.61 206.04 493.762 206.04C494.898 206.04 495.746 205.208 495.746 203.976V199.208H496.978V203.896C496.978 205.864 495.57 207.176 493.762 207.176C491.938 207.176 490.53 205.864 490.53 203.896ZM506.027 202.104V207H504.795V202.248C504.795 201.016 504.059 200.168 502.859 200.168C501.659 200.168 500.811 201.032 500.811 202.248V207H499.579V199.208H500.731V200.04C501.307 199.4 502.155 199.032 503.131 199.032C504.939 199.032 506.027 200.264 506.027 202.104ZM508.641 207V199.208H509.873V207H508.641ZM508.337 196.232C508.337 195.736 508.753 195.336 509.265 195.336C509.761 195.336 510.177 195.736 510.177 196.232C510.177 196.744 509.777 197.128 509.265 197.128C508.753 197.128 508.337 196.744 508.337 196.232ZM516.835 205.96V207C516.339 207.112 515.907 207.176 515.539 207.176C513.923 207.176 512.915 206.36 512.915 204.648V200.312H511.603V199.208H512.915V197.08H514.147V199.208H516.579V200.312H514.147V204.568C514.147 205.672 514.723 206.056 515.795 206.056C516.099 206.056 516.435 206.024 516.835 205.96ZM518.673 207V199.208H519.905V207H518.673ZM518.368 196.232C518.368 195.736 518.785 195.336 519.297 195.336C519.793 195.336 520.209 195.736 520.209 196.232C520.209 196.744 519.809 197.128 519.297 197.128C518.785 197.128 518.368 196.744 518.368 196.232ZM529.49 203.48H523.33C523.474 205.016 524.658 206.04 526.194 206.04C527.074 206.04 527.874 205.688 528.578 204.984L529.298 205.816C528.482 206.664 527.41 207.176 526.178 207.176C523.858 207.176 522.05 205.4 522.05 203.112C522.05 200.856 523.81 199.032 526.034 199.032C528.05 199.032 529.586 200.488 529.586 202.552C529.586 202.856 529.554 203.16 529.49 203.48ZM523.378 202.392H528.322C528.306 201 527.298 200.152 526.002 200.152C524.706 200.152 523.65 201.048 523.378 202.392ZM531.015 205.656L531.799 204.84C532.551 205.608 533.159 206.04 534.039 206.04C534.887 206.04 535.527 205.624 535.527 204.936C535.527 204.312 535.127 204.072 534.167 203.688L533.415 203.368C532.119 202.84 531.479 202.248 531.479 201.208C531.479 199.848 532.615 199.032 534.103 199.032C535.191 199.032 536.071 199.496 536.711 200.264L535.959 201.032C535.431 200.504 534.759 200.168 534.039 200.168C533.271 200.168 532.743 200.52 532.743 201.144C532.743 201.64 533.063 201.88 534.007 202.28L534.727 202.584C536.183 203.208 536.791 203.816 536.791 204.888C536.791 205.608 536.519 206.184 535.991 206.584C535.463 206.984 534.823 207.176 534.055 207.176C532.759 207.176 531.703 206.552 531.015 205.656ZM56.24 227.48H50.08C50.224 229.016 51.408 230.04 52.944 230.04C53.824 230.04 54.624 229.688 55.328 228.984L56.048 229.816C55.232 230.664 54.16 231.176 52.928 231.176C50.608 231.176 48.8 229.4 48.8 227.112C48.8 224.856 50.56 223.032 52.784 223.032C54.8 223.032 56.336 224.488 56.336 226.552C56.336 226.856 56.304 227.16 56.24 227.48ZM50.128 226.392H55.072C55.056 225 54.048 224.152 52.752 224.152C51.456 224.152 50.4 225.048 50.128 226.392ZM64.9486 226.104V231H63.7166V226.248C63.7166 225.016 62.9806 224.168 61.7806 224.168C60.5806 224.168 59.7326 225.032 59.7326 226.248V231H58.5006V223.208H59.6526V224.04C60.2286 223.4 61.0766 223.032 62.0526 223.032C63.8606 223.032 64.9486 224.264 64.9486 226.104ZM73.8831 223.208H75.0511V230.248C75.0511 232.616 73.5631 234.056 71.2591 234.056C69.7391 234.056 68.4751 233.432 67.5951 232.552L68.3151 231.688C69.1951 232.456 70.0591 232.92 71.2271 232.92C72.8431 232.92 73.8191 231.992 73.8191 230.312V229.624C73.1951 230.44 72.0911 230.92 70.9231 230.92C68.7311 230.92 67.0991 229.24 67.0991 226.984C67.0991 224.744 68.7311 223.032 70.9231 223.032C72.1551 223.032 73.2911 223.56 73.8831 224.456V223.208ZM73.8351 226.984C73.8351 225.112 72.5231 224.2 71.1151 224.2C69.5311 224.2 68.3471 225.368 68.3471 227C68.3471 228.648 69.5311 229.784 71.1151 229.784C72.5391 229.784 73.8351 228.872 73.8351 226.984ZM83.5906 226.2V231H82.4386V229.992C81.8626 230.76 80.9506 231.176 79.8146 231.176C78.2146 231.176 77.0946 230.328 77.0946 228.984C77.0946 227.656 78.2146 226.808 79.8946 226.808H82.3586V226.136C82.3586 224.856 81.6386 224.168 80.4706 224.168C79.5266 224.168 78.8386 224.584 78.1986 225.416L77.3826 224.744C78.0866 223.592 79.2546 223.032 80.5506 223.032C82.3906 223.032 83.5906 224.152 83.5906 226.2ZM82.3586 228.008V227.816H80.0386C78.9506 227.816 78.3586 228.2 78.3586 228.92C78.3586 229.704 79.0626 230.152 79.9746 230.152C81.2546 230.152 82.3586 229.208 82.3586 228.008ZM92.5238 223.208H93.6918V230.248C93.6918 232.616 92.2038 234.056 89.8998 234.056C88.3798 234.056 87.1158 233.432 86.2358 232.552L86.9557 231.688C87.8358 232.456 88.6998 232.92 89.8678 232.92C91.4838 232.92 92.4598 231.992 92.4598 230.312V229.624C91.8358 230.44 90.7318 230.92 89.5638 230.92C87.3718 230.92 85.7398 229.24 85.7398 226.984C85.7398 224.744 87.3718 223.032 89.5638 223.032C90.7958 223.032 91.9318 223.56 92.5238 224.456V223.208ZM92.4758 226.984C92.4758 225.112 91.1638 224.2 89.7558 224.2C88.1718 224.2 86.9878 225.368 86.9878 227C86.9878 228.648 88.1718 229.784 89.7558 229.784C91.1798 229.784 92.4758 228.872 92.4758 226.984ZM103.271 227.48H97.1113C97.2553 229.016 98.4393 230.04 99.9753 230.04C100.855 230.04 101.655 229.688 102.359 228.984L103.079 229.816C102.263 230.664 101.191 231.176 99.9593 231.176C97.6393 231.176 95.8313 229.4 95.8313 227.112C95.8313 224.856 97.5913 223.032 99.8153 223.032C101.831 223.032 103.367 224.488 103.367 226.552C103.367 226.856 103.335 227.16 103.271 227.48ZM97.1593 226.392H102.103C102.087 225 101.079 224.152 99.7833 224.152C98.4873 224.152 97.4313 225.048 97.1593 226.392ZM116.908 226.104V231H115.676V226.264C115.676 225 114.988 224.168 113.836 224.168C112.668 224.168 111.836 225.048 111.836 226.152V231H110.604V226.264C110.604 225 109.884 224.168 108.748 224.168C107.58 224.168 106.764 225.032 106.764 226.264V231H105.532V223.208H106.684V224.024C107.244 223.384 108.044 223.032 109.004 223.032C110.14 223.032 110.956 223.528 111.404 224.376C111.98 223.56 112.924 223.032 114.076 223.032C115.868 223.032 116.908 224.248 116.908 226.104ZM126.396 227.48H120.236C120.38 229.016 121.564 230.04 123.1 230.04C123.98 230.04 124.78 229.688 125.484 228.984L126.204 229.816C125.388 230.664 124.316 231.176 123.084 231.176C120.764 231.176 118.956 229.4 118.956 227.112C118.956 224.856 120.716 223.032 122.94 223.032C124.956 223.032 126.492 224.488 126.492 226.552C126.492 226.856 126.46 227.16 126.396 227.48ZM120.284 226.392H125.228C125.212 225 124.204 224.152 122.908 224.152C121.612 224.152 120.556 225.048 120.284 226.392ZM135.105 226.104V231H133.873V226.248C133.873 225.016 133.137 224.168 131.937 224.168C130.737 224.168 129.889 225.032 129.889 226.248V231H128.657V223.208H129.809V224.04C130.385 223.4 131.233 223.032 132.209 223.032C134.017 223.032 135.105 224.264 135.105 226.104ZM141.975 229.96V231C141.479 231.112 141.047 231.176 140.679 231.176C139.063 231.176 138.055 230.36 138.055 228.648V224.312H136.743V223.208H138.055V221.08H139.287V223.208H141.719V224.312H139.287V228.568C139.287 229.672 139.863 230.056 140.935 230.056C141.239 230.056 141.575 230.024 141.975 229.96ZM143.077 229.656L143.861 228.84C144.613 229.608 145.221 230.04 146.101 230.04C146.949 230.04 147.589 229.624 147.589 228.936C147.589 228.312 147.189 228.072 146.229 227.688L145.477 227.368C144.181 226.84 143.541 226.248 143.541 225.208C143.541 223.848 144.677 223.032 146.165 223.032C147.253 223.032 148.133 223.496 148.773 224.264L148.021 225.032C147.493 224.504 146.821 224.168 146.101 224.168C145.333 224.168 144.805 224.52 144.805 225.144C144.805 225.64 145.125 225.88 146.069 226.28L146.789 226.584C148.245 227.208 148.853 227.816 148.853 228.888C148.853 229.608 148.581 230.184 148.053 230.584C147.525 230.984 146.885 231.176 146.117 231.176C144.821 231.176 143.765 230.552 143.077 229.656Z" fill="#1D1D1F"/>
</svg>
