<svg width="445" height="445" viewBox="0 0 445 445" fill="none" xmlns="http://www.w3.org/2000/svg">
<rect width="445" height="445" fill="#004C46"/>
<g clip-path="url(#clip0_1205_42364)">
<path d="M115.475 232.971H120.295C121.673 232.973 123.037 232.703 124.31 232.176C125.583 231.65 126.74 230.878 127.715 229.905C128.689 228.931 129.462 227.775 129.99 226.502C130.517 225.23 130.789 223.866 130.789 222.488H125.969C124.591 222.487 123.227 222.757 121.954 223.283C120.681 223.809 119.524 224.581 118.549 225.555C117.575 226.528 116.802 227.685 116.274 228.957C115.747 230.23 115.475 231.594 115.475 232.971Z" fill="white"/>
<path d="M142.682 250.905C140.388 248.622 137.455 247.089 134.27 246.51C131.086 245.931 127.801 246.333 124.85 247.663C120.918 249.41 116.566 249.988 112.314 249.327V213.847C109.531 213.847 106.862 214.953 104.894 216.921C102.926 218.889 101.82 221.558 101.82 224.341V244.68C98.2157 241.796 95.596 237.864 94.3228 233.427C93.0497 228.989 93.186 224.266 94.7129 219.91C96.2398 215.553 99.0819 211.779 102.847 209.107C106.611 206.436 111.113 204.999 115.729 204.996C118.853 204.989 121.944 205.645 124.796 206.92C127.747 208.25 131.032 208.652 134.216 208.073C137.401 207.494 140.334 205.961 142.628 203.678L140.996 202.046C134.789 195.822 126.503 192.11 117.727 191.622C108.951 191.133 100.304 193.902 93.4444 199.398C89.254 202.736 85.8694 206.975 83.5419 211.8C81.2144 216.625 80.0039 221.913 80.0003 227.27C79.9821 231.97 80.8975 236.626 82.6933 240.969C84.4891 245.312 87.1297 249.255 90.4616 252.57C91.4016 253.503 92.3901 254.387 93.4228 255.217C100.29 260.695 108.933 263.453 117.704 262.964C126.474 262.476 134.758 258.776 140.975 252.57L142.682 250.905Z" fill="white"/>
<path d="M178.234 195.584C180.025 196.641 181.5 198.16 182.502 199.982L177.888 203.614C176.321 201.247 174.365 200.069 172.041 200.069C171.185 200.043 170.334 200.197 169.542 200.523C168.751 200.849 168.037 201.339 167.448 201.96C166.851 202.594 166.386 203.339 166.078 204.153C165.77 204.968 165.626 205.834 165.654 206.704C165.623 207.581 165.766 208.455 166.074 209.277C166.382 210.099 166.849 210.851 167.448 211.492C168.04 212.107 168.755 212.59 169.547 212.908C170.338 213.227 171.188 213.374 172.041 213.34C174.303 213.34 176.252 212.176 177.888 209.849L182.502 213.394C181.481 215.226 179.988 216.752 178.18 217.814C176.277 218.916 174.109 219.476 171.911 219.435C170.203 219.47 168.505 219.162 166.918 218.529C165.331 217.896 163.887 216.951 162.671 215.75C161.444 214.581 160.474 213.169 159.823 211.604C159.171 210.039 158.853 208.356 158.889 206.661C158.856 204.978 159.175 203.307 159.827 201.755C160.478 200.202 161.447 198.804 162.671 197.648C163.889 196.452 165.335 195.512 166.921 194.883C168.508 194.254 170.205 193.948 171.911 193.984C174.125 193.928 176.312 194.482 178.234 195.584Z" fill="white"/>
<path d="M206.333 197.647C207.569 198.796 208.549 200.192 209.208 201.745C209.867 203.298 210.191 204.973 210.159 206.66C210.19 208.35 209.866 210.028 209.207 211.585C208.548 213.141 207.569 214.542 206.333 215.695C205.108 216.896 203.657 217.84 202.063 218.473C200.469 219.106 198.764 219.414 197.049 219.38C195.347 219.419 193.653 219.116 192.07 218.488C190.487 217.861 189.045 216.922 187.831 215.728C186.612 214.558 185.649 213.149 185.003 211.588C184.358 210.027 184.044 208.349 184.081 206.66C184.045 204.977 184.364 203.305 185.015 201.752C185.667 200.2 186.637 198.801 187.863 197.647C189.079 196.451 190.522 195.51 192.107 194.881C193.692 194.252 195.388 193.947 197.093 193.983C198.799 193.952 200.494 194.26 202.08 194.889C203.666 195.518 205.112 196.455 206.333 197.647ZM192.575 201.916C191.381 203.219 190.745 204.937 190.803 206.704C190.77 207.572 190.91 208.439 191.214 209.253C191.519 210.067 191.981 210.813 192.575 211.448C193.772 212.64 195.393 213.309 197.082 213.309C198.771 213.309 200.392 212.64 201.589 211.448C202.188 210.821 202.656 210.08 202.964 209.268C203.273 208.457 203.415 207.592 203.383 206.725C203.435 204.966 202.79 203.257 201.589 201.97C201.022 201.344 200.327 200.849 199.551 200.517C198.775 200.185 197.936 200.024 197.093 200.046C196.25 200.02 195.412 200.173 194.633 200.495C193.854 200.818 193.153 201.302 192.575 201.916Z" fill="white"/>
<path d="M248.867 196.661C250.571 198.622 251.45 201.166 251.32 203.761V218.891H244.695V204.691C244.757 203.436 244.335 202.207 243.518 201.254C243.116 200.828 242.627 200.493 242.084 200.273C241.541 200.053 240.958 199.953 240.373 199.979C239.773 199.955 239.176 200.056 238.617 200.275C238.059 200.495 237.553 200.828 237.13 201.254C236.717 201.684 236.394 202.193 236.178 202.749C235.963 203.306 235.861 203.9 235.877 204.496V218.837H229.241V204.691C229.304 203.434 228.878 202.203 228.052 201.254C227.652 200.827 227.163 200.491 226.62 200.271C226.077 200.051 225.493 199.951 224.907 199.979C224.308 199.955 223.71 200.056 223.152 200.275C222.594 200.495 222.088 200.828 221.665 201.254C220.836 202.2 220.413 203.435 220.487 204.691V218.837H213.852V194.521H219.947V196.682C220.839 195.776 221.912 195.066 223.096 194.601C224.281 194.136 225.549 193.924 226.82 193.981C230.091 193.981 232.498 195.144 234.04 197.471C235.041 196.317 236.289 195.403 237.693 194.799C239.096 194.194 240.618 193.915 242.145 193.981C243.393 193.915 244.639 194.121 245.8 194.584C246.96 195.046 248.007 195.755 248.867 196.661Z" fill="white"/>
<path d="M278.577 197.563C280.819 200.047 282.005 203.307 281.884 206.651C281.997 210.007 280.813 213.278 278.577 215.783C277.514 216.972 276.204 217.913 274.738 218.543C273.273 219.172 271.688 219.473 270.094 219.426C268.742 219.488 267.392 219.257 266.139 218.747C264.885 218.238 263.756 217.463 262.831 216.475V227.671H256.163V194.515H262.258V197.563C263.988 195.171 266.588 193.975 270.061 193.975C271.655 193.923 273.242 194.217 274.712 194.836C276.182 195.455 277.501 196.386 278.577 197.563ZM273.347 211.536C273.96 210.893 274.437 210.133 274.749 209.301C275.061 208.469 275.201 207.582 275.162 206.695C275.201 205.802 275.062 204.911 274.754 204.073C274.447 203.234 273.975 202.465 273.368 201.81C272.198 200.657 270.629 199.999 268.987 199.973C267.345 199.947 265.756 200.554 264.55 201.669C263.913 202.325 263.422 203.108 263.109 203.966C262.796 204.825 262.668 205.74 262.734 206.651C262.673 207.561 262.801 208.473 263.11 209.33C263.418 210.188 263.901 210.972 264.528 211.634C265.094 212.201 265.768 212.648 266.511 212.949C267.254 213.25 268.05 213.398 268.851 213.384C269.687 213.403 270.518 213.249 271.292 212.931C272.066 212.613 272.765 212.138 273.347 211.536Z" fill="white"/>
<path d="M292.245 218.842H285.621V182H292.245V218.842Z" fill="white"/>
<path d="M319.699 208.913H302.623C302.981 210.355 303.844 211.62 305.055 212.48C306.37 213.346 307.923 213.781 309.497 213.723C311.968 213.697 314.358 212.832 316.273 211.269L319.029 215.787C316.338 218.144 312.88 219.439 309.302 219.429C307.549 219.486 305.803 219.191 304.166 218.562C302.528 217.932 301.034 216.982 299.77 215.765C298.542 214.601 297.571 213.193 296.92 211.632C296.268 210.07 295.951 208.39 295.988 206.698C295.964 205.021 296.278 203.357 296.909 201.803C297.54 200.249 298.476 198.837 299.662 197.652C300.847 196.466 302.259 195.53 303.813 194.899C305.366 194.268 307.031 193.955 308.708 193.978C310.215 193.916 311.719 194.166 313.126 194.71C314.533 195.255 315.813 196.083 316.887 197.143C317.96 198.203 318.804 199.473 319.366 200.873C319.928 202.273 320.195 203.774 320.153 205.282C320.147 206.506 319.995 207.726 319.699 208.913ZM304.785 200.657C303.704 201.595 302.948 202.851 302.623 204.245H313.722C313.735 203.568 313.601 202.897 313.328 202.277C313.056 201.658 312.652 201.105 312.145 200.657C311.124 199.772 309.809 199.302 308.459 199.338C307.115 199.319 305.81 199.787 304.785 200.657Z" fill="white"/>
<path d="M339.457 213.344V218.889C337.964 219.276 336.429 219.475 334.886 219.483C332.292 219.642 329.732 218.825 327.71 217.192C326.01 215.664 325.16 213.38 325.16 210.34V200.127H321.323V194.529H325.16V188.391H331.806V194.529H338.69V200.127H331.806V209.713C331.752 210.25 331.822 210.791 332.009 211.297C332.196 211.803 332.496 212.259 332.887 212.631C333.91 213.289 335.121 213.593 336.334 213.496C336.709 213.496 337.75 213.445 339.457 213.344Z" fill="white"/>
<path d="M364.653 208.913H347.557C347.923 210.351 348.784 211.614 349.988 212.48C351.306 213.349 352.863 213.783 354.441 213.723C356.912 213.697 359.302 212.832 361.217 211.269L363.973 215.787C361.282 218.144 357.823 219.439 354.246 219.429C352.493 219.486 350.747 219.191 349.109 218.562C347.472 217.932 345.978 216.982 344.714 215.765C343.484 214.603 342.511 213.195 341.86 211.633C341.208 210.071 340.892 208.39 340.932 206.698C340.907 205.021 341.219 203.355 341.85 201.801C342.48 200.247 343.416 198.834 344.602 197.648C345.788 196.462 347.2 195.526 348.755 194.896C350.309 194.265 351.975 193.953 353.652 193.978C355.159 193.916 356.663 194.166 358.07 194.71C359.477 195.255 360.757 196.083 361.83 197.143C362.904 198.203 363.748 199.473 364.31 200.873C364.871 202.273 365.139 203.774 365.097 205.282C365.095 206.506 364.946 207.725 364.653 208.913ZM349.718 200.657C348.641 201.598 347.885 202.852 347.557 204.245H358.666C358.679 203.568 358.545 202.897 358.272 202.277C358 201.658 357.596 201.105 357.088 200.657C356.074 199.777 354.767 199.307 353.425 199.338C352.07 199.314 350.753 199.782 349.718 200.657Z" fill="white"/>
<path d="M169.147 230.24C168.755 230.611 168.454 231.067 168.266 231.573C168.079 232.079 168.011 232.621 168.067 233.158V236.551H173.47V242.15H168.067V260.889H161.431V242.15H157.994V236.551H161.431V232.574C161.431 229.527 162.274 227.246 163.938 225.723C165.846 224.12 168.291 223.301 170.779 223.431C172.014 223.426 173.242 223.608 174.421 223.972V229.548C173.77 229.454 173.113 229.404 172.454 229.397C171.29 229.313 170.13 229.609 169.147 230.24Z" fill="white"/>
<path d="M193.195 238.693C195.076 240.48 196.016 243.059 196.016 246.431V260.891H189.932V258.513C188.974 259.503 187.816 260.277 186.536 260.786C185.256 261.294 183.883 261.525 182.507 261.464C180.276 261.586 178.082 260.856 176.369 259.421C175.633 258.767 175.05 257.96 174.66 257.056C174.27 256.152 174.082 255.174 174.11 254.19C174.071 253.19 174.275 252.195 174.707 251.291C175.138 250.387 175.782 249.602 176.585 249.003C178.551 247.648 180.911 246.983 183.296 247.112H189.391V246.031C189.424 245.455 189.338 244.879 189.139 244.339C188.94 243.798 188.632 243.303 188.235 242.886C187.298 242.095 186.086 241.706 184.863 241.805C182.702 241.805 180.54 242.918 178.379 245.145L174.996 241.027C176.266 239.439 177.883 238.164 179.723 237.298C181.562 236.433 183.576 236 185.609 236.034C188.389 235.888 191.115 236.843 193.195 238.693ZM187.911 255.249C188.393 254.812 188.776 254.276 189.031 253.677C189.287 253.078 189.41 252.431 189.391 251.78V251.489H184.182C181.924 251.489 180.789 252.31 180.789 253.942C180.777 254.32 180.858 254.696 181.026 255.035C181.194 255.374 181.443 255.667 181.751 255.887C182.493 256.394 183.381 256.644 184.279 256.6C185.619 256.635 186.92 256.151 187.911 255.249Z" fill="white"/>
<path d="M215.866 236.549V242.396H214.094C212.359 242.303 210.655 242.875 209.328 243.995C208.702 244.607 208.217 245.347 207.905 246.164C207.594 246.981 207.463 247.856 207.523 248.729V260.887H200.931V236.549H207.015V239.5C207.786 238.46 208.797 237.622 209.962 237.058C211.127 236.493 212.411 236.219 213.705 236.258C214.436 236.246 215.164 236.345 215.866 236.549Z" fill="white"/>
<path d="M253.545 238.694C255.236 240.65 256.113 243.179 255.998 245.762V260.892H249.373V246.723C249.436 245.467 249.01 244.236 248.184 243.287C247.786 242.86 247.299 242.525 246.758 242.304C246.216 242.084 245.634 241.984 245.05 242.012C244.451 241.988 243.853 242.089 243.295 242.308C242.737 242.528 242.23 242.861 241.808 243.287C241.395 243.717 241.071 244.226 240.856 244.782C240.641 245.339 240.538 245.932 240.554 246.529V260.892H233.919V246.723C233.985 245.469 233.563 244.237 232.741 243.287C232.339 242.861 231.85 242.526 231.307 242.306C230.765 242.086 230.181 241.986 229.596 242.012C228.997 241.988 228.399 242.089 227.841 242.308C227.283 242.528 226.776 242.861 226.354 243.287C225.932 243.75 225.605 244.292 225.394 244.882C225.182 245.472 225.09 246.098 225.122 246.723V260.892H218.497V236.554H224.581V238.715C225.477 237.809 226.552 237.101 227.737 236.635C228.923 236.17 230.193 235.958 231.466 236.014C234.737 236.014 237.143 237.177 238.685 239.504C239.686 238.35 240.935 237.436 242.338 236.832C243.742 236.227 245.264 235.948 246.79 236.014C248.043 235.943 249.296 236.147 250.463 236.61C251.629 237.072 252.681 237.784 253.545 238.694Z" fill="white"/>
<path d="M283.17 250.943H266.106C266.469 252.379 267.331 253.639 268.537 254.498C269.854 255.371 271.411 255.809 272.99 255.752C275.459 255.733 277.848 254.875 279.766 253.32L282.522 257.838C279.831 260.195 276.373 261.49 272.795 261.48C271.042 261.536 269.296 261.242 267.659 260.612C266.022 259.983 264.527 259.032 263.263 257.816C262.033 256.654 261.061 255.246 260.409 253.684C259.757 252.122 259.441 250.441 259.481 248.749C259.456 247.071 259.768 245.406 260.399 243.852C261.029 242.297 261.965 240.885 263.151 239.699C264.337 238.513 265.75 237.577 267.304 236.946C268.859 236.316 270.524 236.004 272.201 236.029C273.708 235.967 275.212 236.217 276.619 236.761C278.026 237.306 279.306 238.134 280.38 239.194C281.453 240.254 282.297 241.524 282.859 242.924C283.421 244.324 283.689 245.825 283.646 247.333C283.626 248.55 283.467 249.762 283.17 250.943ZM268.235 242.686C267.157 243.627 266.402 244.882 266.073 246.274H277.183C277.196 245.597 277.061 244.926 276.789 244.306C276.516 243.687 276.113 243.134 275.605 242.686C274.585 241.801 273.27 241.331 271.92 241.367C270.583 241.351 269.285 241.819 268.267 242.686H268.235Z" fill="white"/>
<path d="M302.267 236.549V242.396H300.462C298.728 242.303 297.023 242.875 295.696 243.995C295.086 244.614 294.617 245.358 294.32 246.175C294.024 246.992 293.907 247.863 293.978 248.729V260.887H287.353V236.549H293.437V239.5C294.209 238.46 295.22 237.622 296.384 237.058C297.549 236.493 298.833 236.219 300.127 236.258C300.851 236.248 301.572 236.346 302.267 236.549Z" fill="white"/>
<path d="M308.579 253.647C309.399 254.528 309.855 255.686 309.855 256.89C309.855 258.093 309.399 259.251 308.579 260.132C308.159 260.563 307.654 260.903 307.096 261.128C306.537 261.353 305.938 261.459 305.337 261.439C304.727 261.456 304.121 261.348 303.554 261.123C302.988 260.899 302.473 260.561 302.04 260.132C301.2 259.261 300.731 258.099 300.731 256.89C300.731 255.68 301.2 254.518 302.04 253.647C302.47 253.213 302.984 252.871 303.551 252.642C304.118 252.414 304.726 252.303 305.337 252.318C305.94 252.301 306.54 252.411 307.098 252.64C307.657 252.868 308.161 253.212 308.579 253.647Z" fill="white"/>
</g>
<defs>
<clipPath id="clip0_1205_42364">
<rect width="285.094" height="81" fill="white" transform="translate(80 182)"/>
</clipPath>
</defs>
</svg>
