<svg width="600" height="200" viewBox="0 0 600 200" fill="none" xmlns="http://www.w3.org/2000/svg">
<path d="M4.5 18V7.24H0.28V4.8H11.44V7.24H7.2V18H4.5ZM20.2353 18L19.4953 16.28H14.0953L13.3553 18H10.4553L16.3553 4.56H17.2553L23.1353 18H20.2353ZM18.5553 14.06L16.7953 9.6L15.0353 14.06H18.5553ZM36.078 18H33.038L29.618 13.34H27.638V18H24.938V4.8H29.898C32.658 4.8 34.658 6.52 34.658 9.06C34.658 10.74 33.778 12.1 32.338 12.82L36.078 18ZM27.638 7.18V10.96H29.898C31.158 10.96 31.898 10.2 31.898 9.06C31.898 7.94 31.118 7.18 29.898 7.18H27.638ZM36.678 11.4C36.598 7.6 39.838 4.5 43.738 4.56C46.058 4.56 48.018 5.6 49.298 7.42L47.378 9C46.438 7.7 45.218 7.06 43.698 7.06C41.178 7.06 39.458 8.88 39.458 11.4C39.458 13.96 41.238 15.82 43.858 15.82C45.378 15.82 46.598 15.2 47.338 14.18V13.1H43.698V10.76H50.038V14.66C49.438 15.72 48.578 16.6 47.458 17.26C46.358 17.92 45.118 18.24 43.738 18.24C39.858 18.32 36.618 15.18 36.678 11.4ZM52.3794 18V4.8H61.2594V7.24H55.0794V9.92H59.6194V12.22H55.0794V15.56H61.4994V18H52.3794ZM66.8242 18V7.24H62.6042V4.8H73.7642V7.24H69.5242V18H66.8242ZM74.6234 15.32L76.4834 13.92C77.3434 15.1 78.2834 15.84 79.7234 15.84C80.9034 15.84 81.6034 15.28 81.6034 14.38C81.6034 13.6 81.1834 13.32 79.9234 12.74L78.5034 12.1C76.4834 11.2 75.3034 10.06 75.3034 8.3C75.3034 6.04 77.1834 4.56 79.6834 4.56C81.7034 4.56 83.2234 5.54 84.0434 7.06L82.2034 8.48C81.5234 7.46 80.6834 6.96 79.6834 6.96C78.7434 6.96 78.0434 7.42 78.0434 8.24C78.0434 8.94 78.4634 9.26 79.5834 9.76L81.0834 10.42C83.3034 11.4 84.3434 12.5 84.3434 14.28C84.3434 16.7 82.3634 18.24 79.7234 18.24C77.4834 18.24 75.6434 17.1 74.6234 15.32Z" fill="#31BC2E"/>
<path d="M18.8039 47.328C18.8039 44.448 21.1719 42.24 24.0199 42.24C26.8999 42.24 29.2039 44.448 29.2039 47.328C29.2039 50.208 26.8999 52.384 24.0199 52.384C21.1719 52.384 18.8039 50.144 18.8039 47.328Z" fill="#31BC2E"/>
<path d="M49.456 51V40.44H56.224V41.56H50.704V44.792H54.928V45.912H50.704V49.88H56.416V51H49.456ZM64.6785 51H63.2545L61.0305 47.8L58.8225 51H57.3825L60.2785 46.936L57.6225 43.208H59.0465L61.0305 46.072L63.0305 43.208H64.4545L61.7505 46.936L64.6785 51ZM74.3276 47.096C74.3276 49.384 72.6636 51.176 70.4716 51.176C69.3196 51.176 68.2476 50.696 67.6076 49.88V53.88H66.3756V43.208H67.5276V44.456C68.1196 43.56 69.2556 43.032 70.4716 43.032C72.6956 43.032 74.3276 44.808 74.3276 47.096ZM73.0636 47.112C73.0636 45.432 71.8796 44.168 70.2956 44.168C68.9036 44.168 67.5916 45.128 67.5916 47.096C67.5916 49.08 68.8556 50.04 70.2956 50.04C71.8796 50.04 73.0636 48.792 73.0636 47.112ZM76.485 51V39H77.717V51H76.485ZM79.8625 47.096C79.8145 44.872 81.7185 42.984 83.9425 43.032C86.1665 43 88.0705 44.872 88.0225 47.096C88.0705 49.288 86.1505 51.208 83.9265 51.16C81.7025 51.208 79.8305 49.288 79.8625 47.096ZM86.7585 47.112C86.7585 45.432 85.5265 44.168 83.9425 44.168C82.3425 44.168 81.1265 45.432 81.1265 47.112C81.1265 48.744 82.3425 50.024 83.9265 50.024C85.5105 50.024 86.7585 48.744 86.7585 47.112ZM94.3321 43.208V44.296H93.8681C92.5561 44.296 91.4201 45.144 91.4201 46.584V51H90.1881V43.208H91.3401V44.312C91.9001 43.56 92.8121 43.144 93.7561 43.144C93.9321 43.144 94.1241 43.16 94.3321 43.208ZM102.709 47.48H96.5488C96.6928 49.016 97.8768 50.04 99.4128 50.04C100.293 50.04 101.093 49.688 101.797 48.984L102.517 49.816C101.701 50.664 100.629 51.176 99.3968 51.176C97.0768 51.176 95.2688 49.4 95.2688 47.112C95.2688 44.856 97.0288 43.032 99.2528 43.032C101.269 43.032 102.805 44.488 102.805 46.552C102.805 46.856 102.773 47.16 102.709 47.48ZM96.5968 46.392H101.541C101.525 45 100.517 44.152 99.2208 44.152C97.9248 44.152 96.8688 45.048 96.5968 46.392ZM115.902 46.104V51H114.67V46.248C114.67 45.016 113.934 44.168 112.734 44.168C111.534 44.168 110.686 45.032 110.686 46.248V51H109.454V43.208H110.606V44.04C111.182 43.4 112.03 43.032 113.006 43.032C114.814 43.032 115.902 44.264 115.902 46.104ZM125.396 47.48H119.236C119.38 49.016 120.564 50.04 122.1 50.04C122.98 50.04 123.78 49.688 124.484 48.984L125.204 49.816C124.388 50.664 123.316 51.176 122.084 51.176C119.764 51.176 117.956 49.4 117.956 47.112C117.956 44.856 119.716 43.032 121.94 43.032C123.956 43.032 125.492 44.488 125.492 46.552C125.492 46.856 125.46 47.16 125.396 47.48ZM119.284 46.392H124.228C124.212 45 123.204 44.152 121.908 44.152C120.612 44.152 119.556 45.048 119.284 46.392ZM137.856 43.208H139.168L135.888 51.176H135.44L132.784 45.288L130.144 51.176H129.712L126.4 43.208H127.712L129.968 48.984L132.56 43.032H133.024L135.648 48.936L137.856 43.208ZM149.582 43.208V44.296H149.118C147.806 44.296 146.67 45.144 146.67 46.584V51H145.438V43.208H146.59V44.312C147.15 43.56 148.062 43.144 149.006 43.144C149.182 43.144 149.374 43.16 149.582 43.208ZM157.959 47.48H151.799C151.943 49.016 153.127 50.04 154.663 50.04C155.543 50.04 156.343 49.688 157.047 48.984L157.767 49.816C156.951 50.664 155.879 51.176 154.647 51.176C152.327 51.176 150.519 49.4 150.519 47.112C150.519 44.856 152.279 43.032 154.503 43.032C156.519 43.032 158.055 44.488 158.055 46.552C158.055 46.856 158.023 47.16 157.959 47.48ZM151.847 46.392H156.791C156.775 45 155.767 44.152 154.471 44.152C153.175 44.152 152.119 45.048 151.847 46.392ZM165.443 43.208H166.755L163.091 51.176H162.643L158.963 43.208H160.275L162.867 49.08L165.443 43.208ZM175.099 47.48H168.939C169.083 49.016 170.267 50.04 171.803 50.04C172.683 50.04 173.483 49.688 174.187 48.984L174.907 49.816C174.091 50.664 173.019 51.176 171.787 51.176C169.467 51.176 167.659 49.4 167.659 47.112C167.659 44.856 169.419 43.032 171.643 43.032C173.659 43.032 175.195 44.488 175.195 46.552C175.195 46.856 175.163 47.16 175.099 47.48ZM168.987 46.392H173.931C173.915 45 172.907 44.152 171.611 44.152C170.315 44.152 169.259 45.048 168.987 46.392ZM183.808 46.104V51H182.576V46.248C182.576 45.016 181.84 44.168 180.64 44.168C179.44 44.168 178.592 45.032 178.592 46.248V51H177.36V43.208H178.512V44.04C179.088 43.4 179.936 43.032 180.912 43.032C182.72 43.032 183.808 44.264 183.808 46.104ZM186.327 47.896V43.208H187.543V47.976C187.543 49.24 188.407 50.04 189.559 50.04C190.695 50.04 191.543 49.208 191.543 47.976V43.208H192.775V47.896C192.775 49.864 191.367 51.176 189.559 51.176C187.735 51.176 186.327 49.864 186.327 47.896ZM202.256 47.48H196.096C196.24 49.016 197.424 50.04 198.96 50.04C199.84 50.04 200.64 49.688 201.344 48.984L202.064 49.816C201.248 50.664 200.176 51.176 198.944 51.176C196.624 51.176 194.816 49.4 194.816 47.112C194.816 44.856 196.576 43.032 198.8 43.032C200.816 43.032 202.352 44.488 202.352 46.552C202.352 46.856 202.32 47.16 202.256 47.48ZM196.144 46.392H201.088C201.072 45 200.064 44.152 198.768 44.152C197.472 44.152 196.416 45.048 196.144 46.392ZM220.377 46.104V51H219.145V46.264C219.145 45 218.457 44.168 217.305 44.168C216.137 44.168 215.305 45.048 215.305 46.152V51H214.073V46.264C214.073 45 213.353 44.168 212.217 44.168C211.049 44.168 210.233 45.032 210.233 46.264V51H209.001V43.208H210.153V44.024C210.713 43.384 211.513 43.032 212.473 43.032C213.609 43.032 214.425 43.528 214.873 44.376C215.449 43.56 216.393 43.032 217.545 43.032C219.337 43.032 220.377 44.248 220.377 46.104ZM222.425 47.096C222.377 44.872 224.281 42.984 226.505 43.032C228.729 43 230.633 44.872 230.585 47.096C230.633 49.288 228.713 51.208 226.489 51.16C224.265 51.208 222.393 49.288 222.425 47.096ZM229.321 47.112C229.321 45.432 228.089 44.168 226.505 44.168C224.905 44.168 223.689 45.432 223.689 47.112C223.689 48.744 224.905 50.024 226.489 50.024C228.073 50.024 229.321 48.744 229.321 47.112ZM238.927 39H240.159V51H238.991V49.768C238.399 50.648 237.263 51.176 236.047 51.176C233.855 51.176 232.191 49.4 232.191 47.112C232.191 44.824 233.855 43.032 236.047 43.032C237.215 43.032 238.303 43.528 238.927 44.36V39ZM238.943 47.112C238.943 45.128 237.631 44.168 236.223 44.168C234.639 44.168 233.455 45.416 233.455 47.096C233.455 48.776 234.639 50.04 236.223 50.04C237.631 50.04 238.943 49.08 238.943 47.112ZM249.74 47.48H243.58C243.724 49.016 244.908 50.04 246.444 50.04C247.324 50.04 248.124 49.688 248.828 48.984L249.548 49.816C248.732 50.664 247.66 51.176 246.428 51.176C244.108 51.176 242.3 49.4 242.3 47.112C242.3 44.856 244.06 43.032 246.284 43.032C248.3 43.032 249.836 44.488 249.836 46.552C249.836 46.856 249.804 47.16 249.74 47.48ZM243.628 46.392H248.572C248.556 45 247.548 44.152 246.252 44.152C244.956 44.152 243.9 45.048 243.628 46.392ZM252.001 51V39H253.233V51H252.001ZM255.202 49.656L255.986 48.84C256.738 49.608 257.346 50.04 258.226 50.04C259.074 50.04 259.714 49.624 259.714 48.936C259.714 48.312 259.314 48.072 258.354 47.688L257.602 47.368C256.306 46.84 255.666 46.248 255.666 45.208C255.666 43.848 256.802 43.032 258.29 43.032C259.378 43.032 260.258 43.496 260.898 44.264L260.146 45.032C259.618 44.504 258.946 44.168 258.226 44.168C257.458 44.168 256.93 44.52 256.93 45.144C256.93 45.64 257.25 45.88 258.194 46.28L258.914 46.584C260.37 47.208 260.978 47.816 260.978 48.888C260.978 49.608 260.706 50.184 260.178 50.584C259.65 50.984 259.01 51.176 258.242 51.176C256.946 51.176 255.89 50.552 255.202 49.656Z" fill="#1D1D1F"/>
<path d="M18.8039 91.328C18.8039 88.448 21.1719 86.24 24.0199 86.24C26.8999 86.24 29.2039 88.448 29.2039 91.328C29.2039 94.208 26.8999 96.384 24.0199 96.384C21.1719 96.384 18.8039 94.144 18.8039 91.328Z" fill="#31BC2E"/>
<path d="M60.4715 95L59.5755 92.856H54.3915L53.4955 95H52.1835L56.7595 84.264H57.2235L61.7995 95H60.4715ZM59.0955 91.736L56.9835 86.536L54.8715 91.736H59.0955ZM69.5829 83H70.8149V95H69.6469V93.768C69.0549 94.648 67.9189 95.176 66.7029 95.176C64.5109 95.176 62.8469 93.4 62.8469 91.112C62.8469 88.824 64.5109 87.032 66.7029 87.032C67.8709 87.032 68.9589 87.528 69.5829 88.36V83ZM69.5989 91.112C69.5989 89.128 68.2869 88.168 66.8789 88.168C65.2949 88.168 64.1109 89.416 64.1109 91.096C64.1109 92.776 65.2949 94.04 66.8789 94.04C68.2869 94.04 69.5989 93.08 69.5989 91.112ZM72.9563 91.096C72.9083 88.872 74.8123 86.984 77.0363 87.032C79.2603 87 81.1643 88.872 81.1163 91.096C81.1643 93.288 79.2443 95.208 77.0203 95.16C74.7963 95.208 72.9243 93.288 72.9563 91.096ZM79.8523 91.112C79.8523 89.432 78.6203 88.168 77.0363 88.168C75.4363 88.168 74.2203 89.432 74.2203 91.112C74.2203 92.744 75.4363 94.024 77.0203 94.024C78.6043 94.024 79.8523 92.744 79.8523 91.112ZM91.2339 91.096C91.2339 93.384 89.5699 95.176 87.3779 95.176C86.2259 95.176 85.1539 94.696 84.5139 93.88V97.88H83.2819V87.208H84.4339V88.456C85.0259 87.56 86.1619 87.032 87.3779 87.032C89.6019 87.032 91.2339 88.808 91.2339 91.096ZM89.9699 91.112C89.9699 89.432 88.7859 88.168 87.2019 88.168C85.8099 88.168 84.4979 89.128 84.4979 91.096C84.4979 93.08 85.7619 94.04 87.2019 94.04C88.7859 94.04 89.9699 92.792 89.9699 91.112ZM97.6473 93.96V95C97.1513 95.112 96.7193 95.176 96.3513 95.176C94.7353 95.176 93.7273 94.36 93.7273 92.648V88.312H92.4153V87.208H93.7273V85.08H94.9593V87.208H97.3913V88.312H94.9593V92.568C94.9593 93.672 95.5353 94.056 96.6073 94.056C96.9113 94.056 97.2473 94.024 97.6473 93.96ZM109.809 90.2V95H108.657V93.992C108.081 94.76 107.169 95.176 106.033 95.176C104.433 95.176 103.313 94.328 103.313 92.984C103.313 91.656 104.433 90.808 106.113 90.808H108.577V90.136C108.577 88.856 107.857 88.168 106.689 88.168C105.745 88.168 105.057 88.584 104.417 89.416L103.601 88.744C104.305 87.592 105.473 87.032 106.769 87.032C108.609 87.032 109.809 88.152 109.809 90.2ZM108.577 92.008V91.816H106.257C105.169 91.816 104.577 92.2 104.577 92.92C104.577 93.704 105.281 94.152 106.193 94.152C107.473 94.152 108.577 93.208 108.577 92.008ZM116.907 95V83H118.139V95H116.907ZM127.724 91.48H121.564C121.708 93.016 122.892 94.04 124.428 94.04C125.308 94.04 126.108 93.688 126.812 92.984L127.532 93.816C126.716 94.664 125.644 95.176 124.412 95.176C122.092 95.176 120.284 93.4 120.284 91.112C120.284 88.856 122.044 87.032 124.268 87.032C126.284 87.032 127.82 88.488 127.82 90.552C127.82 90.856 127.788 91.16 127.724 91.48ZM121.612 90.392H126.556C126.54 89 125.532 88.152 124.236 88.152C122.94 88.152 121.884 89.048 121.612 90.392ZM135.825 90.2V95H134.673V93.992C134.097 94.76 133.185 95.176 132.049 95.176C130.449 95.176 129.329 94.328 129.329 92.984C129.329 91.656 130.449 90.808 132.129 90.808H134.593V90.136C134.593 88.856 133.873 88.168 132.705 88.168C131.761 88.168 131.073 88.584 130.433 89.416L129.617 88.744C130.321 87.592 131.489 87.032 132.785 87.032C134.625 87.032 135.825 88.152 135.825 90.2ZM134.593 92.008V91.816H132.273C131.185 91.816 130.593 92.2 130.593 92.92C130.593 93.704 131.297 94.152 132.209 94.152C133.489 94.152 134.593 93.208 134.593 92.008ZM144.886 90.104V95H143.654V90.248C143.654 89.016 142.918 88.168 141.718 88.168C140.518 88.168 139.67 89.032 139.67 90.248V95H138.438V87.208H139.59V88.04C140.166 87.4 141.014 87.032 141.99 87.032C143.798 87.032 144.886 88.264 144.886 90.104ZM157.825 90.2V95H156.673V93.992C156.097 94.76 155.185 95.176 154.049 95.176C152.449 95.176 151.329 94.328 151.329 92.984C151.329 91.656 152.449 90.808 154.129 90.808H156.593V90.136C156.593 88.856 155.873 88.168 154.705 88.168C153.761 88.168 153.073 88.584 152.433 89.416L151.617 88.744C152.321 87.592 153.489 87.032 154.785 87.032C156.625 87.032 157.825 88.152 157.825 90.2ZM156.593 92.008V91.816H154.273C153.185 91.816 152.593 92.2 152.593 92.92C152.593 93.704 153.297 94.152 154.209 94.152C155.489 94.152 156.593 93.208 156.593 92.008ZM168.39 91.096C168.39 93.384 166.726 95.176 164.534 95.176C163.382 95.176 162.31 94.696 161.67 93.88V97.88H160.438V87.208H161.59V88.456C162.182 87.56 163.318 87.032 164.534 87.032C166.758 87.032 168.39 88.808 168.39 91.096ZM167.126 91.112C167.126 89.432 165.942 88.168 164.358 88.168C162.966 88.168 161.654 89.128 161.654 91.096C161.654 93.08 162.918 94.04 164.358 94.04C165.942 94.04 167.126 92.792 167.126 91.112ZM178.5 91.096C178.5 93.384 176.836 95.176 174.644 95.176C173.492 95.176 172.42 94.696 171.78 93.88V97.88H170.548V87.208H171.7V88.456C172.292 87.56 173.428 87.032 174.644 87.032C176.868 87.032 178.5 88.808 178.5 91.096ZM177.236 91.112C177.236 89.432 176.052 88.168 174.468 88.168C173.076 88.168 171.764 89.128 171.764 91.096C171.764 93.08 173.028 94.04 174.468 94.04C176.052 94.04 177.236 92.792 177.236 91.112ZM184.801 87.208V88.296H184.337C183.025 88.296 181.889 89.144 181.889 90.584V95H180.657V87.208H181.809V88.312C182.369 87.56 183.281 87.144 184.225 87.144C184.401 87.144 184.593 87.16 184.801 87.208ZM185.738 91.096C185.69 88.872 187.594 86.984 189.818 87.032C192.042 87 193.946 88.872 193.898 91.096C193.946 93.288 192.026 95.208 189.802 95.16C187.578 95.208 185.706 93.288 185.738 91.096ZM192.634 91.112C192.634 89.432 191.402 88.168 189.818 88.168C188.218 88.168 187.002 89.432 187.002 91.112C187.002 92.744 188.218 94.024 189.802 94.024C191.386 94.024 192.634 92.744 192.634 91.112ZM201.903 90.2V95H200.751V93.992C200.175 94.76 199.263 95.176 198.127 95.176C196.527 95.176 195.407 94.328 195.407 92.984C195.407 91.656 196.527 90.808 198.207 90.808H200.671V90.136C200.671 88.856 199.951 88.168 198.783 88.168C197.839 88.168 197.151 88.584 196.511 89.416L195.695 88.744C196.399 87.592 197.567 87.032 198.863 87.032C200.703 87.032 201.903 88.152 201.903 90.2ZM200.671 92.008V91.816H198.351C197.263 91.816 196.671 92.2 196.671 92.92C196.671 93.704 197.375 94.152 198.287 94.152C199.567 94.152 200.671 93.208 200.671 92.008ZM203.956 91.096C203.908 88.872 205.812 87 208.036 87.032C209.396 87.032 210.548 87.688 211.252 88.728L210.372 89.432C209.748 88.584 208.964 88.168 208.052 88.168C206.436 88.168 205.22 89.48 205.22 91.096C205.22 92.728 206.436 94.04 208.052 94.04C208.964 94.04 209.732 93.624 210.356 92.792L211.236 93.48C210.532 94.52 209.396 95.176 208.036 95.176C205.78 95.176 203.956 93.352 203.956 91.096ZM219.777 90.104V95H218.545V90.264C218.545 89 217.809 88.168 216.609 88.168C215.409 88.168 214.561 89.048 214.561 90.264V95H213.329V83H214.561V88.088C215.089 87.432 215.921 87.032 216.897 87.032C218.689 87.032 219.777 88.264 219.777 90.104ZM231.132 93.96V95C230.636 95.112 230.204 95.176 229.836 95.176C228.22 95.176 227.212 94.36 227.212 92.648V88.312H225.9V87.208H227.212V85.08H228.444V87.208H230.876V88.312H228.444V92.568C228.444 93.672 229.02 94.056 230.092 94.056C230.396 94.056 230.732 94.024 231.132 93.96ZM232.253 91.096C232.205 88.872 234.109 86.984 236.333 87.032C238.557 87 240.461 88.872 240.413 91.096C240.461 93.288 238.541 95.208 236.317 95.16C234.093 95.208 232.221 93.288 232.253 91.096ZM239.149 91.112C239.149 89.432 237.917 88.168 236.333 88.168C234.733 88.168 233.517 89.432 233.517 91.112C233.517 92.744 234.733 94.024 236.317 94.024C237.901 94.024 239.149 92.744 239.149 91.112ZM248.487 85.432V87.208H250.439V88.312H248.487V95H247.255V88.312H246.135V87.208H247.255V85.352C247.255 83.64 248.247 82.824 249.831 82.824C250.167 82.824 250.503 82.872 250.807 82.952V83.992C250.551 83.96 250.327 83.944 250.119 83.944C249.079 83.944 248.487 84.328 248.487 85.432ZM252.151 95V87.208H253.383V95H252.151ZM251.847 84.232C251.847 83.736 252.263 83.336 252.775 83.336C253.271 83.336 253.687 83.736 253.687 84.232C253.687 84.744 253.287 85.128 252.775 85.128C252.263 85.128 251.847 84.744 251.847 84.232ZM262.542 90.104V95H261.31V90.248C261.31 89.016 260.574 88.168 259.374 88.168C258.174 88.168 257.326 89.032 257.326 90.248V95H256.094V87.208H257.246V88.04C257.822 87.4 258.67 87.032 259.646 87.032C261.454 87.032 262.542 88.264 262.542 90.104ZM270.997 90.2V95H269.845V93.992C269.269 94.76 268.357 95.176 267.221 95.176C265.621 95.176 264.501 94.328 264.501 92.984C264.501 91.656 265.621 90.808 267.301 90.808H269.765V90.136C269.765 88.856 269.045 88.168 267.877 88.168C266.933 88.168 266.245 88.584 265.605 89.416L264.789 88.744C265.493 87.592 266.661 87.032 267.957 87.032C269.797 87.032 270.997 88.152 270.997 90.2ZM269.765 92.008V91.816H267.445C266.357 91.816 265.765 92.2 265.765 92.92C265.765 93.704 266.469 94.152 267.381 94.152C268.661 94.152 269.765 93.208 269.765 92.008ZM280.058 90.104V95H278.826V90.248C278.826 89.016 278.09 88.168 276.89 88.168C275.69 88.168 274.842 89.032 274.842 90.248V95H273.61V87.208H274.762V88.04C275.338 87.4 276.186 87.032 277.162 87.032C278.97 87.032 280.058 88.264 280.058 90.104ZM282.113 91.096C282.065 88.872 283.969 87 286.193 87.032C287.553 87.032 288.705 87.688 289.409 88.728L288.529 89.432C287.905 88.584 287.121 88.168 286.209 88.168C284.593 88.168 283.377 89.48 283.377 91.096C283.377 92.728 284.593 94.04 286.209 94.04C287.121 94.04 287.889 93.624 288.513 92.792L289.392 93.48C288.689 94.52 287.553 95.176 286.193 95.176C283.937 95.176 282.113 93.352 282.113 91.096ZM291.485 95V87.208H292.717V95H291.485ZM291.181 84.232C291.181 83.736 291.597 83.336 292.109 83.336C292.605 83.336 293.021 83.736 293.021 84.232C293.021 84.744 292.621 85.128 292.109 85.128C291.597 85.128 291.181 84.744 291.181 84.232ZM301.263 90.2V95H300.111V93.992C299.535 94.76 298.623 95.176 297.487 95.176C295.887 95.176 294.767 94.328 294.767 92.984C294.767 91.656 295.887 90.808 297.567 90.808H300.031V90.136C300.031 88.856 299.311 88.168 298.143 88.168C297.199 88.168 296.511 88.584 295.871 89.416L295.055 88.744C295.759 87.592 296.927 87.032 298.223 87.032C300.063 87.032 301.263 88.152 301.263 90.2ZM300.031 92.008V91.816H297.711C296.623 91.816 296.031 92.2 296.031 92.92C296.031 93.704 296.735 94.152 297.647 94.152C298.927 94.152 300.031 93.208 300.031 92.008ZM303.876 95V83H305.108V95H303.876ZM311.738 91.096C311.69 88.872 313.594 86.984 315.818 87.032C318.042 87 319.946 88.872 319.898 91.096C319.946 93.288 318.026 95.208 315.802 95.16C313.578 95.208 311.706 93.288 311.738 91.096ZM318.634 91.112C318.634 89.432 317.402 88.168 315.818 88.168C314.218 88.168 313.002 89.432 313.002 91.112C313.002 92.744 314.218 94.024 315.802 94.024C317.386 94.024 318.634 92.744 318.634 91.112ZM330.015 91.096C330.015 93.384 328.351 95.176 326.159 95.176C325.007 95.176 323.935 94.696 323.295 93.88V97.88H322.063V87.208H323.215V88.456C323.807 87.56 324.943 87.032 326.159 87.032C328.383 87.032 330.015 88.808 330.015 91.096ZM328.751 91.112C328.751 89.432 327.567 88.168 325.983 88.168C324.591 88.168 323.279 89.128 323.279 91.096C323.279 93.08 324.543 94.04 325.983 94.04C327.567 94.04 328.751 92.792 328.751 91.112ZM339.053 91.48H332.893C333.037 93.016 334.221 94.04 335.757 94.04C336.637 94.04 337.437 93.688 338.141 92.984L338.861 93.816C338.045 94.664 336.973 95.176 335.741 95.176C333.421 95.176 331.613 93.4 331.613 91.112C331.613 88.856 333.373 87.032 335.597 87.032C337.613 87.032 339.149 88.488 339.149 90.552C339.149 90.856 339.117 91.16 339.053 91.48ZM332.941 90.392H337.885C337.869 89 336.861 88.152 335.565 88.152C334.269 88.152 333.213 89.048 332.941 90.392ZM345.457 87.208V88.296H344.993C343.681 88.296 342.545 89.144 342.545 90.584V95H341.313V87.208H342.465V88.312C343.025 87.56 343.937 87.144 344.881 87.144C345.057 87.144 345.249 87.16 345.457 87.208ZM352.794 90.2V95H351.642V93.992C351.066 94.76 350.154 95.176 349.018 95.176C347.418 95.176 346.298 94.328 346.298 92.984C346.298 91.656 347.418 90.808 349.098 90.808H351.562V90.136C351.562 88.856 350.842 88.168 349.674 88.168C348.73 88.168 348.042 88.584 347.402 89.416L346.586 88.744C347.29 87.592 348.458 87.032 349.754 87.032C351.594 87.032 352.794 88.152 352.794 90.2ZM351.562 92.008V91.816H349.242C348.154 91.816 347.562 92.2 347.562 92.92C347.562 93.704 348.266 94.152 349.178 94.152C350.458 94.152 351.562 93.208 351.562 92.008ZM359.663 93.96V95C359.167 95.112 358.735 95.176 358.367 95.176C356.751 95.176 355.743 94.36 355.743 92.648V88.312H354.431V87.208H355.743V85.08H356.975V87.208H359.407V88.312H356.975V92.568C356.975 93.672 357.551 94.056 358.623 94.056C358.927 94.056 359.263 94.024 359.663 93.96ZM361.501 95V87.208H362.733V95H361.501ZM361.197 84.232C361.197 83.736 361.613 83.336 362.125 83.336C362.621 83.336 363.037 83.736 363.037 84.232C363.037 84.744 362.637 85.128 362.125 85.128C361.613 85.128 361.197 84.744 361.197 84.232ZM364.878 91.096C364.83 88.872 366.734 86.984 368.958 87.032C371.182 87 373.086 88.872 373.038 91.096C373.086 93.288 371.166 95.208 368.942 95.16C366.718 95.208 364.846 93.288 364.878 91.096ZM371.774 91.112C371.774 89.432 370.542 88.168 368.958 88.168C367.358 88.168 366.142 89.432 366.142 91.112C366.142 92.744 367.358 94.024 368.942 94.024C370.526 94.024 371.774 92.744 371.774 91.112ZM381.652 90.104V95H380.42V90.248C380.42 89.016 379.684 88.168 378.484 88.168C377.284 88.168 376.436 89.032 376.436 90.248V95H375.204V87.208H376.356V88.04C376.932 87.4 377.78 87.032 378.756 87.032C380.564 87.032 381.652 88.264 381.652 90.104ZM383.53 93.656L384.314 92.84C385.066 93.608 385.674 94.04 386.554 94.04C387.402 94.04 388.042 93.624 388.042 92.936C388.042 92.312 387.642 92.072 386.682 91.688L385.93 91.368C384.634 90.84 383.994 90.248 383.994 89.208C383.994 87.848 385.13 87.032 386.618 87.032C387.706 87.032 388.586 87.496 389.226 88.264L388.474 89.032C387.946 88.504 387.274 88.168 386.554 88.168C385.786 88.168 385.258 88.52 385.258 89.144C385.258 89.64 385.578 89.88 386.522 90.28L387.242 90.584C388.698 91.208 389.306 91.816 389.306 92.888C389.306 93.608 389.034 94.184 388.506 94.584C387.978 94.984 387.338 95.176 386.57 95.176C385.274 95.176 384.218 94.552 383.53 93.656ZM396.016 95V87.208H397.248V95H396.016ZM395.712 84.232C395.712 83.736 396.128 83.336 396.64 83.336C397.136 83.336 397.552 83.736 397.552 84.232C397.552 84.744 397.152 85.128 396.64 85.128C396.128 85.128 395.712 84.744 395.712 84.232ZM406.402 90.104V95H405.17V90.248C405.17 89.016 404.434 88.168 403.234 88.168C402.034 88.168 401.186 89.032 401.186 90.248V95H399.954V87.208H401.106V88.04C401.682 87.4 402.53 87.032 403.506 87.032C405.314 87.032 406.402 88.264 406.402 90.104ZM419.341 90.2V95H418.189V93.992C417.613 94.76 416.701 95.176 415.565 95.176C413.965 95.176 412.845 94.328 412.845 92.984C412.845 91.656 413.965 90.808 415.645 90.808H418.109V90.136C418.109 88.856 417.389 88.168 416.221 88.168C415.277 88.168 414.589 88.584 413.949 89.416L413.133 88.744C413.837 87.592 415.005 87.032 416.301 87.032C418.141 87.032 419.341 88.152 419.341 90.2ZM418.109 92.008V91.816H415.789C414.701 91.816 414.109 92.2 414.109 92.92C414.109 93.704 414.813 94.152 415.725 94.152C417.005 94.152 418.109 93.208 418.109 92.008ZM421.954 95V83H423.186V95H421.954ZM425.891 95V83H427.123V95H425.891ZM440.489 83H441.721V95H440.553V93.768C439.961 94.648 438.825 95.176 437.609 95.176C435.417 95.176 433.753 93.4 433.753 91.112C433.753 88.824 435.417 87.032 437.609 87.032C438.777 87.032 439.865 87.528 440.489 88.36V83ZM440.505 91.112C440.505 89.128 439.193 88.168 437.785 88.168C436.201 88.168 435.017 89.416 435.017 91.096C435.017 92.776 436.201 94.04 437.785 94.04C439.193 94.04 440.505 93.08 440.505 91.112ZM451.303 91.48H445.143C445.287 93.016 446.471 94.04 448.007 94.04C448.887 94.04 449.687 93.688 450.391 92.984L451.111 93.816C450.295 94.664 449.223 95.176 447.991 95.176C445.671 95.176 443.863 93.4 443.863 91.112C443.863 88.856 445.623 87.032 447.847 87.032C449.863 87.032 451.399 88.488 451.399 90.552C451.399 90.856 451.367 91.16 451.303 91.48ZM445.191 90.392H450.135C450.119 89 449.111 88.152 447.815 88.152C446.519 88.152 445.463 89.048 445.191 90.392ZM461.515 91.096C461.515 93.384 459.851 95.176 457.659 95.176C456.507 95.176 455.435 94.696 454.795 93.88V97.88H453.563V87.208H454.715V88.456C455.307 87.56 456.443 87.032 457.659 87.032C459.883 87.032 461.515 88.808 461.515 91.096ZM460.251 91.112C460.251 89.432 459.067 88.168 457.483 88.168C456.091 88.168 454.779 89.128 454.779 91.096C454.779 93.08 456.043 94.04 457.483 94.04C459.067 94.04 460.251 92.792 460.251 91.112ZM469.513 90.2V95H468.361V93.992C467.785 94.76 466.873 95.176 465.737 95.176C464.137 95.176 463.017 94.328 463.017 92.984C463.017 91.656 464.137 90.808 465.817 90.808H468.281V90.136C468.281 88.856 467.561 88.168 466.393 88.168C465.449 88.168 464.761 88.584 464.121 89.416L463.305 88.744C464.009 87.592 465.177 87.032 466.473 87.032C468.313 87.032 469.513 88.152 469.513 90.2ZM468.281 92.008V91.816H465.961C464.873 91.816 464.281 92.2 464.281 92.92C464.281 93.704 464.985 94.152 465.897 94.152C467.177 94.152 468.281 93.208 468.281 92.008ZM476.27 87.208V88.296H475.806C474.494 88.296 473.358 89.144 473.358 90.584V95H472.126V87.208H473.278V88.312C473.838 87.56 474.75 87.144 475.694 87.144C475.87 87.144 476.062 87.16 476.27 87.208ZM482.179 93.96V95C481.683 95.112 481.251 95.176 480.883 95.176C479.267 95.176 478.259 94.36 478.259 92.648V88.312H476.947V87.208H478.259V85.08H479.491V87.208H481.923V88.312H479.491V92.568C479.491 93.672 480.067 94.056 481.139 94.056C481.443 94.056 481.779 94.024 482.179 93.96ZM495.392 90.104V95H494.16V90.264C494.16 89 493.472 88.168 492.32 88.168C491.152 88.168 490.32 89.048 490.32 90.152V95H489.088V90.264C489.088 89 488.368 88.168 487.232 88.168C486.064 88.168 485.248 89.032 485.248 90.264V95H484.016V87.208H485.168V88.024C485.728 87.384 486.528 87.032 487.488 87.032C488.624 87.032 489.44 87.528 489.888 88.376C490.464 87.56 491.408 87.032 492.56 87.032C494.352 87.032 495.392 88.248 495.392 90.104ZM504.881 91.48H498.721C498.865 93.016 500.049 94.04 501.585 94.04C502.465 94.04 503.265 93.688 503.969 92.984L504.689 93.816C503.873 94.664 502.801 95.176 501.569 95.176C499.249 95.176 497.441 93.4 497.441 91.112C497.441 88.856 499.201 87.032 501.425 87.032C503.441 87.032 504.977 88.488 504.977 90.552C504.977 90.856 504.945 91.16 504.881 91.48ZM498.769 90.392H503.713C503.697 89 502.689 88.152 501.393 88.152C500.097 88.152 499.041 89.048 498.769 90.392ZM513.589 90.104V95H512.357V90.248C512.357 89.016 511.621 88.168 510.421 88.168C509.221 88.168 508.373 89.032 508.373 90.248V95H507.141V87.208H508.293V88.04C508.869 87.4 509.717 87.032 510.693 87.032C512.501 87.032 513.589 88.264 513.589 90.104ZM520.46 93.96V95C519.964 95.112 519.532 95.176 519.164 95.176C517.548 95.176 516.54 94.36 516.54 92.648V88.312H515.228V87.208H516.54V85.08H517.772V87.208H520.204V88.312H517.772V92.568C517.772 93.672 518.348 94.056 519.42 94.056C519.724 94.056 520.06 94.024 520.46 93.96ZM521.562 93.656L522.346 92.84C523.098 93.608 523.706 94.04 524.586 94.04C525.434 94.04 526.074 93.624 526.074 92.936C526.074 92.312 525.674 92.072 524.714 91.688L523.962 91.368C522.666 90.84 522.026 90.248 522.026 89.208C522.026 87.848 523.162 87.032 524.65 87.032C525.738 87.032 526.618 87.496 527.258 88.264L526.506 89.032C525.978 88.504 525.306 88.168 524.586 88.168C523.818 88.168 523.289 88.52 523.289 89.144C523.289 89.64 523.61 89.88 524.554 90.28L525.274 90.584C526.73 91.208 527.338 91.816 527.338 92.888C527.338 93.608 527.066 94.184 526.538 94.584C526.01 94.984 525.37 95.176 524.602 95.176C523.306 95.176 522.25 94.552 521.562 93.656Z" fill="#1D1D1F"/>
<path d="M18.8039 135.328C18.8039 132.448 21.1719 130.24 24.0199 130.24C26.8999 130.24 29.2039 132.448 29.2039 135.328C29.2039 138.208 26.8999 140.384 24.0199 140.384C21.1719 140.384 18.8039 138.144 18.8039 135.328Z" fill="#31BC2E"/>
<path d="M49.456 139V128.44H56.064V129.56H50.704V133.192H55.152V134.328H50.704V139H49.456ZM56.7063 135.096C56.6583 132.872 58.5623 130.984 60.7863 131.032C63.0103 131 64.9143 132.872 64.8663 135.096C64.9143 137.288 62.9943 139.208 60.7703 139.16C58.5463 139.208 56.6743 137.288 56.7063 135.096ZM63.6023 135.112C63.6023 133.432 62.3703 132.168 60.7863 132.168C59.1863 132.168 57.9703 133.432 57.9703 135.112C57.9703 136.744 59.1863 138.024 60.7703 138.024C62.3543 138.024 63.6023 136.744 63.6023 135.112ZM66.4719 135.096C66.4239 132.872 68.3279 131 70.5519 131.032C71.9119 131.032 73.0639 131.688 73.7679 132.728L72.8879 133.432C72.2639 132.584 71.4799 132.168 70.5679 132.168C68.9519 132.168 67.7359 133.48 67.7359 135.096C67.7359 136.728 68.9519 138.04 70.5679 138.04C71.4799 138.04 72.2479 137.624 72.8719 136.792L73.7519 137.48C73.0479 138.52 71.9119 139.176 70.5519 139.176C68.2959 139.176 66.4719 137.352 66.4719 135.096ZM75.7484 135.896V131.208H76.9644V135.976C76.9644 137.24 77.8284 138.04 78.9804 138.04C80.1164 138.04 80.9644 137.208 80.9644 135.976V131.208H82.1964V135.896C82.1964 137.864 80.7884 139.176 78.9804 139.176C77.1564 139.176 75.7484 137.864 75.7484 135.896ZM84.0615 137.656L84.8455 136.84C85.5975 137.608 86.2055 138.04 87.0855 138.04C87.9335 138.04 88.5735 137.624 88.5735 136.936C88.5735 136.312 88.1735 136.072 87.2135 135.688L86.4615 135.368C85.1655 134.84 84.5255 134.248 84.5255 133.208C84.5255 131.848 85.6615 131.032 87.1495 131.032C88.2375 131.032 89.1175 131.496 89.7575 132.264L89.0055 133.032C88.4775 132.504 87.8055 132.168 87.0855 132.168C86.3175 132.168 85.7895 132.52 85.7895 133.144C85.7895 133.64 86.1095 133.88 87.0535 134.28L87.7735 134.584C89.2295 135.208 89.8375 135.816 89.8375 136.888C89.8375 137.608 89.5655 138.184 89.0375 138.584C88.5095 138.984 87.8695 139.176 87.1015 139.176C85.8055 139.176 84.7495 138.552 84.0615 137.656ZM95.9875 135.096C95.9395 132.872 97.8435 130.984 100.068 131.032C102.292 131 104.196 132.872 104.148 135.096C104.196 137.288 102.276 139.208 100.052 139.16C97.8275 139.208 95.9555 137.288 95.9875 135.096ZM102.884 135.112C102.884 133.432 101.652 132.168 100.068 132.168C98.4675 132.168 97.2515 133.432 97.2515 135.112C97.2515 136.744 98.4675 138.024 100.052 138.024C101.636 138.024 102.884 136.744 102.884 135.112ZM112.761 134.104V139H111.529V134.248C111.529 133.016 110.793 132.168 109.593 132.168C108.393 132.168 107.545 133.032 107.545 134.248V139H106.313V131.208H107.465V132.04C108.041 131.4 108.889 131.032 109.865 131.032C111.673 131.032 112.761 132.264 112.761 134.104ZM126.308 134.104V139H125.076V134.264C125.076 133 124.34 132.168 123.14 132.168C121.94 132.168 121.092 133.048 121.092 134.264V139H119.86V127H121.092V132.088C121.62 131.432 122.452 131.032 123.428 131.032C125.22 131.032 126.308 132.264 126.308 134.104ZM128.923 139V131.208H130.155V139H128.923ZM128.618 128.232C128.618 127.736 129.035 127.336 129.547 127.336C130.043 127.336 130.459 127.736 130.459 128.232C130.459 128.744 130.059 129.128 129.547 129.128C129.035 129.128 128.618 128.744 128.618 128.232ZM139.18 131.208H140.348V138.248C140.348 140.616 138.86 142.056 136.556 142.056C135.036 142.056 133.772 141.432 132.892 140.552L133.612 139.688C134.492 140.456 135.356 140.92 136.524 140.92C138.14 140.92 139.116 139.992 139.116 138.312V137.624C138.492 138.44 137.388 138.92 136.22 138.92C134.028 138.92 132.396 137.24 132.396 134.984C132.396 132.744 134.028 131.032 136.22 131.032C137.452 131.032 138.588 131.56 139.18 132.456V131.208ZM139.132 134.984C139.132 133.112 137.82 132.2 136.412 132.2C134.828 132.2 133.644 133.368 133.644 135C133.644 136.648 134.828 137.784 136.412 137.784C137.836 137.784 139.132 136.872 139.132 134.984ZM149.496 134.104V139H148.264V134.264C148.264 133 147.528 132.168 146.328 132.168C145.128 132.168 144.28 133.048 144.28 134.264V139H143.048V127H144.28V132.088C144.808 131.432 145.64 131.032 146.616 131.032C148.408 131.032 149.496 132.264 149.496 134.104ZM151.598 134.488V133.448H155.422V134.488H151.598ZM169.017 134.104V139H167.785V134.264C167.785 133 167.097 132.168 165.945 132.168C164.777 132.168 163.945 133.048 163.945 134.152V139H162.713V134.264C162.713 133 161.993 132.168 160.857 132.168C159.689 132.168 158.873 133.032 158.873 134.264V139H157.641V131.208H158.793V132.024C159.353 131.384 160.153 131.032 161.113 131.032C162.249 131.032 163.065 131.528 163.513 132.376C164.089 131.56 165.033 131.032 166.185 131.032C167.977 131.032 169.017 132.248 169.017 134.104ZM177.466 134.2V139H176.314V137.992C175.738 138.76 174.826 139.176 173.69 139.176C172.09 139.176 170.97 138.328 170.97 136.984C170.97 135.656 172.09 134.808 173.77 134.808H176.234V134.136C176.234 132.856 175.514 132.168 174.346 132.168C173.402 132.168 172.714 132.584 172.074 133.416L171.258 132.744C171.962 131.592 173.13 131.032 174.426 131.032C176.266 131.032 177.466 132.152 177.466 134.2ZM176.234 136.008V135.816H173.914C172.826 135.816 172.234 136.2 172.234 136.92C172.234 137.704 172.938 138.152 173.85 138.152C175.13 138.152 176.234 137.208 176.234 136.008ZM184.223 131.208V132.296H183.759C182.447 132.296 181.311 133.144 181.311 134.584V139H180.079V131.208H181.231V132.312C181.791 131.56 182.703 131.144 183.647 131.144C183.823 131.144 184.015 131.16 184.223 131.208ZM192.039 131.208H193.207V138.248C193.207 140.616 191.719 142.056 189.415 142.056C187.895 142.056 186.631 141.432 185.751 140.552L186.471 139.688C187.351 140.456 188.215 140.92 189.383 140.92C190.999 140.92 191.975 139.992 191.975 138.312V137.624C191.351 138.44 190.247 138.92 189.079 138.92C186.887 138.92 185.255 137.24 185.255 134.984C185.255 132.744 186.887 131.032 189.079 131.032C190.311 131.032 191.447 131.56 192.039 132.456V131.208ZM191.991 134.984C191.991 133.112 190.679 132.2 189.271 132.2C187.687 132.2 186.503 133.368 186.503 135C186.503 136.648 187.687 137.784 189.271 137.784C190.695 137.784 191.991 136.872 191.991 134.984ZM195.907 139V131.208H197.139V139H195.907ZM195.603 128.232C195.603 127.736 196.019 127.336 196.531 127.336C197.027 127.336 197.443 127.736 197.443 128.232C197.443 128.744 197.043 129.128 196.531 129.128C196.019 129.128 195.603 128.744 195.603 128.232ZM206.292 134.104V139H205.06V134.248C205.06 133.016 204.324 132.168 203.124 132.168C201.924 132.168 201.076 133.032 201.076 134.248V139H199.844V131.208H200.996V132.04C201.572 131.4 202.42 131.032 203.396 131.032C205.204 131.032 206.292 132.264 206.292 134.104ZM212.831 135.096C212.783 132.872 214.687 131 216.911 131.032C218.271 131.032 219.423 131.688 220.127 132.728L219.247 133.432C218.623 132.584 217.839 132.168 216.927 132.168C215.311 132.168 214.095 133.48 214.095 135.096C214.095 136.728 215.311 138.04 216.927 138.04C217.839 138.04 218.607 137.624 219.231 136.792L220.111 137.48C219.407 138.52 218.271 139.176 216.911 139.176C214.655 139.176 212.831 137.352 212.831 135.096ZM221.488 135.096C221.44 132.872 223.344 130.984 225.568 131.032C227.792 131 229.696 132.872 229.648 135.096C229.696 137.288 227.776 139.208 225.552 139.16C223.328 139.208 221.456 137.288 221.488 135.096ZM228.384 135.112C228.384 133.432 227.152 132.168 225.568 132.168C223.968 132.168 222.752 133.432 222.752 135.112C222.752 136.744 223.968 138.024 225.552 138.024C227.136 138.024 228.384 136.744 228.384 135.112ZM243.189 134.104V139H241.957V134.264C241.957 133 241.269 132.168 240.117 132.168C238.949 132.168 238.117 133.048 238.117 134.152V139H236.885V134.264C236.885 133 236.165 132.168 235.029 132.168C233.861 132.168 233.045 133.032 233.045 134.264V139H231.813V131.208H232.965V132.024C233.525 131.384 234.325 131.032 235.285 131.032C236.421 131.032 237.237 131.528 237.685 132.376C238.261 131.56 239.205 131.032 240.357 131.032C242.149 131.032 243.189 132.248 243.189 134.104ZM257.174 134.104V139H255.942V134.264C255.942 133 255.254 132.168 254.102 132.168C252.934 132.168 252.102 133.048 252.102 134.152V139H250.87V134.264C250.87 133 250.15 132.168 249.014 132.168C247.846 132.168 247.03 133.032 247.03 134.264V139H245.798V131.208H246.95V132.024C247.51 131.384 248.31 131.032 249.27 131.032C250.406 131.032 251.222 131.528 251.67 132.376C252.246 131.56 253.19 131.032 254.342 131.032C256.134 131.032 257.174 132.248 257.174 134.104ZM259.222 135.096C259.174 132.872 261.078 130.984 263.302 131.032C265.526 131 267.43 132.872 267.382 135.096C267.43 137.288 265.51 139.208 263.286 139.16C261.062 139.208 259.19 137.288 259.222 135.096ZM266.118 135.112C266.118 133.432 264.886 132.168 263.302 132.168C261.702 132.168 260.486 133.432 260.486 135.112C260.486 136.744 261.702 138.024 263.286 138.024C264.87 138.024 266.118 136.744 266.118 135.112ZM275.724 127H276.956V139H275.788V137.768C275.196 138.648 274.06 139.176 272.844 139.176C270.652 139.176 268.988 137.4 268.988 135.112C268.988 132.824 270.652 131.032 272.844 131.032C274.012 131.032 275.1 131.528 275.724 132.36V127ZM275.74 135.112C275.74 133.128 274.428 132.168 273.02 132.168C271.436 132.168 270.252 133.416 270.252 135.096C270.252 136.776 271.436 138.04 273.02 138.04C274.428 138.04 275.74 137.08 275.74 135.112ZM279.657 139V131.208H280.889V139H279.657ZM279.353 128.232C279.353 127.736 279.769 127.336 280.281 127.336C280.777 127.336 281.193 127.736 281.193 128.232C281.193 128.744 280.793 129.128 280.281 129.128C279.769 129.128 279.353 128.744 279.353 128.232ZM287.85 137.96V139C287.354 139.112 286.922 139.176 286.554 139.176C284.938 139.176 283.93 138.36 283.93 136.648V132.312H282.618V131.208H283.93V129.08H285.162V131.208H287.594V132.312H285.162V136.568C285.162 137.672 285.738 138.056 286.81 138.056C287.114 138.056 287.45 138.024 287.85 137.96ZM289.688 139V131.208H290.92V139H289.688ZM289.384 128.232C289.384 127.736 289.8 127.336 290.312 127.336C290.808 127.336 291.224 127.736 291.224 128.232C291.224 128.744 290.824 129.128 290.312 129.128C289.8 129.128 289.384 128.744 289.384 128.232ZM300.506 135.48H294.346C294.49 137.016 295.674 138.04 297.21 138.04C298.09 138.04 298.89 137.688 299.594 136.984L300.314 137.816C299.498 138.664 298.426 139.176 297.194 139.176C294.874 139.176 293.066 137.4 293.066 135.112C293.066 132.856 294.826 131.032 297.05 131.032C299.066 131.032 300.602 132.488 300.602 134.552C300.602 134.856 300.57 135.16 300.506 135.48ZM294.394 134.392H299.338C299.322 133 298.314 132.152 297.018 132.152C295.722 132.152 294.666 133.048 294.394 134.392ZM302.03 137.656L302.814 136.84C303.566 137.608 304.174 138.04 305.054 138.04C305.902 138.04 306.542 137.624 306.542 136.936C306.542 136.312 306.142 136.072 305.182 135.688L304.43 135.368C303.134 134.84 302.494 134.248 302.494 133.208C302.494 131.848 303.63 131.032 305.118 131.032C306.206 131.032 307.086 131.496 307.726 132.264L306.974 133.032C306.446 132.504 305.774 132.168 305.054 132.168C304.286 132.168 303.758 132.52 303.758 133.144C303.758 133.64 304.078 133.88 305.022 134.28L305.742 134.584C307.198 135.208 307.806 135.816 307.806 136.888C307.806 137.608 307.534 138.184 307.006 138.584C306.478 138.984 305.838 139.176 305.07 139.176C303.774 139.176 302.718 138.552 302.03 137.656ZM320.356 134.2V139H319.204V137.992C318.628 138.76 317.716 139.176 316.58 139.176C314.98 139.176 313.86 138.328 313.86 136.984C313.86 135.656 314.98 134.808 316.66 134.808H319.124V134.136C319.124 132.856 318.404 132.168 317.236 132.168C316.292 132.168 315.604 132.584 314.964 133.416L314.148 132.744C314.852 131.592 316.02 131.032 317.316 131.032C319.156 131.032 320.356 132.152 320.356 134.2ZM319.124 136.008V135.816H316.804C315.716 135.816 315.124 136.2 315.124 136.92C315.124 137.704 315.828 138.152 316.74 138.152C318.02 138.152 319.124 137.208 319.124 136.008ZM329.417 134.104V139H328.185V134.248C328.185 133.016 327.449 132.168 326.249 132.168C325.049 132.168 324.201 133.032 324.201 134.248V139H322.969V131.208H324.121V132.04C324.697 131.4 325.545 131.032 326.521 131.032C328.329 131.032 329.417 132.264 329.417 134.104ZM338.208 127H339.44V139H338.272V137.768C337.68 138.648 336.544 139.176 335.328 139.176C333.136 139.176 331.472 137.4 331.472 135.112C331.472 132.824 333.136 131.032 335.328 131.032C336.496 131.032 337.584 131.528 338.208 132.36V127ZM338.224 135.112C338.224 133.128 336.912 132.168 335.504 132.168C333.92 132.168 332.736 133.416 332.736 135.096C332.736 136.776 333.92 138.04 335.504 138.04C336.912 138.04 338.224 137.08 338.224 135.112ZM358.002 134.104V139H356.77V134.264C356.77 133 356.082 132.168 354.93 132.168C353.762 132.168 352.93 133.048 352.93 134.152V139H351.698V134.264C351.698 133 350.978 132.168 349.842 132.168C348.674 132.168 347.858 133.032 347.858 134.264V139H346.626V131.208H347.778V132.024C348.338 131.384 349.138 131.032 350.098 131.032C351.234 131.032 352.05 131.528 352.498 132.376C353.074 131.56 354.018 131.032 355.17 131.032C356.962 131.032 358.002 132.248 358.002 134.104ZM366.45 134.2V139H365.298V137.992C364.722 138.76 363.81 139.176 362.674 139.176C361.074 139.176 359.954 138.328 359.954 136.984C359.954 135.656 361.074 134.808 362.754 134.808H365.218V134.136C365.218 132.856 364.498 132.168 363.33 132.168C362.386 132.168 361.698 132.584 361.058 133.416L360.242 132.744C360.946 131.592 362.114 131.032 363.41 131.032C365.25 131.032 366.45 132.152 366.45 134.2ZM365.218 136.008V135.816H362.898C361.81 135.816 361.218 136.2 361.218 136.92C361.218 137.704 361.922 138.152 362.834 138.152C364.114 138.152 365.218 137.208 365.218 136.008ZM373.207 131.208V132.296H372.743C371.431 132.296 370.295 133.144 370.295 134.584V139H369.063V131.208H370.215V132.312C370.775 131.56 371.687 131.144 372.631 131.144C372.807 131.144 372.999 131.16 373.207 131.208ZM374.86 139V127H376.092V139H374.86ZM377.708 134.632L381.388 139H379.804L376.22 134.616L379.468 131.208H381.084L377.708 134.632ZM389.521 135.48H383.361C383.505 137.016 384.689 138.04 386.225 138.04C387.105 138.04 387.905 137.688 388.609 136.984L389.329 137.816C388.513 138.664 387.441 139.176 386.209 139.176C383.889 139.176 382.081 137.4 382.081 135.112C382.081 132.856 383.841 131.032 386.065 131.032C388.081 131.032 389.617 132.488 389.617 134.552C389.617 134.856 389.585 135.16 389.521 135.48ZM383.409 134.392H388.353C388.337 133 387.329 132.152 386.033 132.152C384.737 132.152 383.681 133.048 383.409 134.392ZM396.038 137.96V139C395.542 139.112 395.11 139.176 394.742 139.176C393.126 139.176 392.118 138.36 392.118 136.648V132.312H390.806V131.208H392.118V129.08H393.35V131.208H395.782V132.312H393.35V136.568C393.35 137.672 393.926 138.056 394.998 138.056C395.302 138.056 395.638 138.024 396.038 137.96ZM397.14 137.656L397.924 136.84C398.676 137.608 399.284 138.04 400.164 138.04C401.012 138.04 401.652 137.624 401.652 136.936C401.652 136.312 401.252 136.072 400.292 135.688L399.54 135.368C398.244 134.84 397.604 134.248 397.604 133.208C397.604 131.848 398.74 131.032 400.228 131.032C401.316 131.032 402.196 131.496 402.836 132.264L402.084 133.032C401.556 132.504 400.884 132.168 400.164 132.168C399.396 132.168 398.868 132.52 398.868 133.144C398.868 133.64 399.188 133.88 400.132 134.28L400.852 134.584C402.308 135.208 402.916 135.816 402.916 136.888C402.916 137.608 402.644 138.184 402.116 138.584C401.588 138.984 400.948 139.176 400.18 139.176C398.884 139.176 397.828 138.552 397.14 137.656Z" fill="#1D1D1F"/>
<path d="M18.8039 179.328C18.8039 176.448 21.1719 174.24 24.0199 174.24C26.8999 174.24 29.2039 176.448 29.2039 179.328C29.2039 182.208 26.8999 184.384 24.0199 184.384C21.1719 184.384 18.8039 182.144 18.8039 179.328Z" fill="#31BC2E"/>
<path d="M49.456 183V172.44H52.592C56.128 172.44 58.336 174.632 58.336 177.704C58.336 180.744 56.128 183 52.592 183H49.456ZM50.704 181.88H52.576C55.36 181.88 57.04 180.104 57.04 177.704C57.04 175.272 55.376 173.56 52.576 173.56H50.704V181.88ZM67.3494 179.48H61.1894C61.3334 181.016 62.5174 182.04 64.0534 182.04C64.9334 182.04 65.7334 181.688 66.4374 180.984L67.1574 181.816C66.3414 182.664 65.2694 183.176 64.0374 183.176C61.7174 183.176 59.9094 181.4 59.9094 179.112C59.9094 176.856 61.6694 175.032 63.8934 175.032C65.9094 175.032 67.4454 176.488 67.4454 178.552C67.4454 178.856 67.4134 179.16 67.3494 179.48ZM61.2374 178.392H66.1814C66.1654 177 65.1574 176.152 63.8614 176.152C62.5654 176.152 61.5094 177.048 61.2374 178.392ZM74.8335 175.208H76.1455L72.4815 183.176H72.0335L68.3535 175.208H69.6655L72.2575 181.08L74.8335 175.208ZM84.49 179.48H78.33C78.474 181.016 79.658 182.04 81.194 182.04C82.074 182.04 82.874 181.688 83.578 180.984L84.298 181.816C83.482 182.664 82.41 183.176 81.178 183.176C78.858 183.176 77.05 181.4 77.05 179.112C77.05 176.856 78.81 175.032 81.034 175.032C83.05 175.032 84.586 176.488 84.586 178.552C84.586 178.856 84.554 179.16 84.49 179.48ZM78.378 178.392H83.322C83.306 177 82.298 176.152 81.002 176.152C79.706 176.152 78.65 177.048 78.378 178.392ZM86.7506 183V171H87.9826V183H86.7506ZM90.1281 179.096C90.0801 176.872 91.9841 174.984 94.2081 175.032C96.4321 175 98.3361 176.872 98.2881 179.096C98.3361 181.288 96.4161 183.208 94.1921 183.16C91.9681 183.208 90.0961 181.288 90.1281 179.096ZM97.0241 179.112C97.0241 177.432 95.7921 176.168 94.2081 176.168C92.6081 176.168 91.3921 177.432 91.3921 179.112C91.3921 180.744 92.6081 182.024 94.1921 182.024C95.7761 182.024 97.0241 180.744 97.0241 179.112ZM108.406 179.096C108.406 181.384 106.742 183.176 104.55 183.176C103.398 183.176 102.326 182.696 101.686 181.88V185.88H100.454V175.208H101.606V176.456C102.198 175.56 103.334 175.032 104.55 175.032C106.774 175.032 108.406 176.808 108.406 179.096ZM107.142 179.112C107.142 177.432 105.958 176.168 104.374 176.168C102.982 176.168 101.67 177.128 101.67 179.096C101.67 181.08 102.934 182.04 104.374 182.04C105.958 182.04 107.142 180.792 107.142 179.112ZM120.888 178.2V183H119.736V181.992C119.16 182.76 118.248 183.176 117.112 183.176C115.512 183.176 114.392 182.328 114.392 180.984C114.392 179.656 115.512 178.808 117.192 178.808H119.656V178.136C119.656 176.856 118.936 176.168 117.768 176.168C116.824 176.168 116.136 176.584 115.496 177.416L114.68 176.744C115.384 175.592 116.552 175.032 117.848 175.032C119.688 175.032 120.888 176.152 120.888 178.2ZM119.656 180.008V179.816H117.336C116.248 179.816 115.656 180.2 115.656 180.92C115.656 181.704 116.36 182.152 117.272 182.152C118.552 182.152 119.656 181.208 119.656 180.008ZM129.949 178.104V183H128.717V178.248C128.717 177.016 127.981 176.168 126.781 176.168C125.581 176.168 124.733 177.032 124.733 178.248V183H123.501V175.208H124.653V176.04C125.229 175.4 126.077 175.032 127.053 175.032C128.861 175.032 129.949 176.264 129.949 178.104ZM138.739 171H139.971V183H138.803V181.768C138.211 182.648 137.075 183.176 135.859 183.176C133.667 183.176 132.003 181.4 132.003 179.112C132.003 176.824 133.667 175.032 135.859 175.032C137.027 175.032 138.115 175.528 138.739 176.36V171ZM138.755 179.112C138.755 177.128 137.443 176.168 136.035 176.168C134.451 176.168 133.267 177.416 133.267 179.096C133.267 180.776 134.451 182.04 136.035 182.04C137.443 182.04 138.755 181.08 138.755 179.112ZM146.421 181.656L147.205 180.84C147.957 181.608 148.565 182.04 149.445 182.04C150.293 182.04 150.933 181.624 150.933 180.936C150.933 180.312 150.533 180.072 149.573 179.688L148.821 179.368C147.525 178.84 146.885 178.248 146.885 177.208C146.885 175.848 148.021 175.032 149.509 175.032C150.597 175.032 151.477 175.496 152.117 176.264L151.365 177.032C150.837 176.504 150.165 176.168 149.445 176.168C148.677 176.168 148.149 176.52 148.149 177.144C148.149 177.64 148.469 177.88 149.413 178.28L150.133 178.584C151.589 179.208 152.197 179.816 152.197 180.888C152.197 181.608 151.925 182.184 151.397 182.584C150.869 182.984 150.229 183.176 149.461 183.176C148.165 183.176 147.109 182.552 146.421 181.656ZM153.863 179.096C153.815 176.872 155.719 175 157.943 175.032C159.303 175.032 160.455 175.688 161.159 176.728L160.279 177.432C159.655 176.584 158.871 176.168 157.959 176.168C156.343 176.168 155.127 177.48 155.127 179.096C155.127 180.728 156.343 182.04 157.959 182.04C158.871 182.04 159.639 181.624 160.263 180.792L161.142 181.48C160.439 182.52 159.303 183.176 157.943 183.176C155.687 183.176 153.863 181.352 153.863 179.096ZM169.075 178.2V183H167.923V181.992C167.347 182.76 166.435 183.176 165.299 183.176C163.699 183.176 162.579 182.328 162.579 180.984C162.579 179.656 163.699 178.808 165.379 178.808H167.843V178.136C167.843 176.856 167.123 176.168 165.955 176.168C165.011 176.168 164.323 176.584 163.683 177.416L162.867 176.744C163.571 175.592 164.739 175.032 166.035 175.032C167.875 175.032 169.075 176.152 169.075 178.2ZM167.843 180.008V179.816H165.523C164.435 179.816 163.843 180.2 163.843 180.92C163.843 181.704 164.547 182.152 165.459 182.152C166.739 182.152 167.843 181.208 167.843 180.008ZM171.688 183V171H172.92V183H171.688ZM182.506 179.48H176.346C176.49 181.016 177.674 182.04 179.21 182.04C180.09 182.04 180.89 181.688 181.594 180.984L182.314 181.816C181.498 182.664 180.426 183.176 179.194 183.176C176.874 183.176 175.066 181.4 175.066 179.112C175.066 176.856 176.826 175.032 179.05 175.032C181.066 175.032 182.602 176.488 182.602 178.552C182.602 178.856 182.57 179.16 182.506 179.48ZM176.394 178.392H181.338C181.322 177 180.314 176.152 179.018 176.152C177.722 176.152 176.666 177.048 176.394 178.392ZM189.251 183V175.208H190.483V183H189.251ZM188.947 172.232C188.947 171.736 189.363 171.336 189.875 171.336C190.371 171.336 190.787 171.736 190.787 172.232C190.787 172.744 190.387 173.128 189.875 173.128C189.363 173.128 188.947 172.744 188.947 172.232ZM199.636 178.104V183H198.404V178.248C198.404 177.016 197.668 176.168 196.468 176.168C195.268 176.168 194.42 177.032 194.42 178.248V183H193.188V175.208H194.34V176.04C194.916 175.4 195.764 175.032 196.74 175.032C198.548 175.032 199.636 176.264 199.636 178.104ZM206.507 181.96V183C206.011 183.112 205.579 183.176 205.211 183.176C203.595 183.176 202.587 182.36 202.587 180.648V176.312H201.275V175.208H202.587V173.08H203.819V175.208H206.251V176.312H203.819V180.568C203.819 181.672 204.395 182.056 205.467 182.056C205.771 182.056 206.107 182.024 206.507 181.96ZM207.628 179.096C207.58 176.872 209.484 174.984 211.708 175.032C213.932 175 215.836 176.872 215.788 179.096C215.836 181.288 213.916 183.208 211.692 183.16C209.468 183.208 207.596 181.288 207.628 179.096ZM214.524 179.112C214.524 177.432 213.292 176.168 211.708 176.168C210.108 176.168 208.892 177.432 208.892 179.112C208.892 180.744 210.108 182.024 211.692 182.024C213.276 182.024 214.524 180.744 214.524 179.112ZM230.39 179.096C230.39 181.384 228.726 183.176 226.534 183.176C225.382 183.176 224.31 182.696 223.67 181.88V185.88H222.438V175.208H223.59V176.456C224.182 175.56 225.318 175.032 226.534 175.032C228.758 175.032 230.39 176.808 230.39 179.096ZM229.126 179.112C229.126 177.432 227.942 176.168 226.358 176.168C224.966 176.168 223.654 177.128 223.654 179.096C223.654 181.08 224.918 182.04 226.358 182.04C227.942 182.04 229.126 180.792 229.126 179.112ZM236.692 175.208V176.296H236.228C234.916 176.296 233.78 177.144 233.78 178.584V183H232.548V175.208H233.7V176.312C234.26 175.56 235.172 175.144 236.116 175.144C236.292 175.144 236.484 175.16 236.692 175.208ZM237.628 179.096C237.58 176.872 239.484 174.984 241.708 175.032C243.932 175 245.836 176.872 245.788 179.096C245.836 181.288 243.916 183.208 241.692 183.16C239.468 183.208 237.596 181.288 237.628 179.096ZM244.524 179.112C244.524 177.432 243.292 176.168 241.708 176.168C240.108 176.168 238.892 177.432 238.892 179.112C238.892 180.744 240.108 182.024 241.692 182.024C243.276 182.024 244.524 180.744 244.524 179.112ZM254.13 171H255.362V183H254.194V181.768C253.602 182.648 252.466 183.176 251.25 183.176C249.058 183.176 247.394 181.4 247.394 179.112C247.394 176.824 249.058 175.032 251.25 175.032C252.418 175.032 253.506 175.528 254.13 176.36V171ZM254.146 179.112C254.146 177.128 252.834 176.168 251.426 176.168C249.842 176.168 248.658 177.416 248.658 179.096C248.658 180.776 249.842 182.04 251.426 182.04C252.834 182.04 254.146 181.08 254.146 179.112ZM257.967 179.896V175.208H259.183V179.976C259.183 181.24 260.047 182.04 261.199 182.04C262.335 182.04 263.183 181.208 263.183 179.976V175.208H264.415V179.896C264.415 181.864 263.007 183.176 261.199 183.176C259.375 183.176 257.967 181.864 257.967 179.896ZM266.456 179.096C266.408 176.872 268.312 175 270.536 175.032C271.896 175.032 273.048 175.688 273.752 176.728L272.872 177.432C272.248 176.584 271.464 176.168 270.552 176.168C268.936 176.168 267.72 177.48 267.72 179.096C267.72 180.728 268.936 182.04 270.552 182.04C271.464 182.04 272.232 181.624 272.856 180.792L273.736 181.48C273.032 182.52 271.896 183.176 270.536 183.176C268.28 183.176 266.456 181.352 266.456 179.096ZM280.085 181.96V183C279.589 183.112 279.157 183.176 278.789 183.176C277.173 183.176 276.165 182.36 276.165 180.648V176.312H274.853V175.208H276.165V173.08H277.397V175.208H279.829V176.312H277.397V180.568C277.397 181.672 277.973 182.056 279.045 182.056C279.349 182.056 279.685 182.024 280.085 181.96ZM291.459 175.208H292.771L289.107 183.176H288.659L284.979 175.208H286.291L288.883 181.08L291.459 175.208ZM301.115 179.48H294.955C295.099 181.016 296.283 182.04 297.819 182.04C298.699 182.04 299.499 181.688 300.203 180.984L300.923 181.816C300.107 182.664 299.035 183.176 297.803 183.176C295.483 183.176 293.675 181.4 293.675 179.112C293.675 176.856 295.435 175.032 297.659 175.032C299.675 175.032 301.211 176.488 301.211 178.552C301.211 178.856 301.179 179.16 301.115 179.48ZM295.003 178.392H299.947C299.931 177 298.923 176.152 297.627 176.152C296.331 176.152 295.275 177.048 295.003 178.392ZM307.52 175.208V176.296H307.056C305.744 176.296 304.608 177.144 304.608 178.584V183H303.376V175.208H304.528V176.312C305.088 175.56 306 175.144 306.944 175.144C307.12 175.144 307.312 175.16 307.52 175.208ZM313.429 181.96V183C312.933 183.112 312.501 183.176 312.133 183.176C310.517 183.176 309.509 182.36 309.509 180.648V176.312H308.197V175.208H309.509V173.08H310.741V175.208H313.173V176.312H310.741V180.568C310.741 181.672 311.317 182.056 312.389 182.056C312.693 182.056 313.029 182.024 313.429 181.96ZM315.266 183V175.208H316.498V183H315.266ZM314.962 172.232C314.962 171.736 315.378 171.336 315.89 171.336C316.386 171.336 316.802 171.736 316.802 172.232C316.802 172.744 316.402 173.128 315.89 173.128C315.378 173.128 314.962 172.744 314.962 172.232ZM318.644 179.096C318.596 176.872 320.5 175 322.724 175.032C324.084 175.032 325.236 175.688 325.94 176.728L325.06 177.432C324.436 176.584 323.652 176.168 322.74 176.168C321.124 176.168 319.908 177.48 319.908 179.096C319.908 180.728 321.124 182.04 322.74 182.04C323.652 182.04 324.42 181.624 325.044 180.792L325.924 181.48C325.22 182.52 324.084 183.176 322.724 183.176C320.468 183.176 318.644 181.352 318.644 179.096ZM333.856 178.2V183H332.704V181.992C332.128 182.76 331.216 183.176 330.08 183.176C328.48 183.176 327.36 182.328 327.36 180.984C327.36 179.656 328.48 178.808 330.16 178.808H332.624V178.136C332.624 176.856 331.904 176.168 330.736 176.168C329.792 176.168 329.104 176.584 328.464 177.416L327.648 176.744C328.352 175.592 329.52 175.032 330.816 175.032C332.656 175.032 333.856 176.152 333.856 178.2ZM332.624 180.008V179.816H330.304C329.216 179.816 328.624 180.2 328.624 180.92C328.624 181.704 329.328 182.152 330.24 182.152C331.52 182.152 332.624 181.208 332.624 180.008ZM336.469 183V171H337.701V183H336.469ZM339.671 181.656L340.455 180.84C341.207 181.608 341.815 182.04 342.695 182.04C343.543 182.04 344.183 181.624 344.183 180.936C344.183 180.312 343.783 180.072 342.823 179.688L342.071 179.368C340.775 178.84 340.135 178.248 340.135 177.208C340.135 175.848 341.271 175.032 342.759 175.032C343.847 175.032 344.727 175.496 345.367 176.264L344.615 177.032C344.087 176.504 343.415 176.168 342.695 176.168C341.927 176.168 341.399 176.52 341.399 177.144C341.399 177.64 341.719 177.88 342.663 178.28L343.383 178.584C344.839 179.208 345.447 179.816 345.447 180.888C345.447 181.608 345.175 182.184 344.647 182.584C344.119 182.984 343.479 183.176 342.711 183.176C341.415 183.176 340.359 182.552 339.671 181.656ZM357.997 178.2V183H356.845V181.992C356.269 182.76 355.357 183.176 354.221 183.176C352.621 183.176 351.501 182.328 351.501 180.984C351.501 179.656 352.621 178.808 354.301 178.808H356.765V178.136C356.765 176.856 356.045 176.168 354.877 176.168C353.933 176.168 353.245 176.584 352.605 177.416L351.789 176.744C352.493 175.592 353.661 175.032 354.957 175.032C356.797 175.032 357.997 176.152 357.997 178.2ZM356.765 180.008V179.816H354.445C353.357 179.816 352.765 180.2 352.765 180.92C352.765 181.704 353.469 182.152 354.381 182.152C355.661 182.152 356.765 181.208 356.765 180.008ZM367.058 178.104V183H365.826V178.248C365.826 177.016 365.09 176.168 363.89 176.168C362.69 176.168 361.842 177.032 361.842 178.248V183H360.61V175.208H361.762V176.04C362.338 175.4 363.186 175.032 364.162 175.032C365.97 175.032 367.058 176.264 367.058 178.104ZM375.849 171H377.081V183H375.913V181.768C375.321 182.648 374.185 183.176 372.969 183.176C370.777 183.176 369.113 181.4 369.113 179.112C369.113 176.824 370.777 175.032 372.969 175.032C374.137 175.032 375.225 175.528 375.849 176.36V171ZM375.865 179.112C375.865 177.128 374.553 176.168 373.145 176.168C371.561 176.168 370.377 177.416 370.377 179.096C370.377 180.776 371.561 182.04 373.145 182.04C374.553 182.04 375.865 181.08 375.865 179.112ZM392.218 179.112C392.218 181.4 390.57 183.176 388.378 183.176C387.162 183.176 386.01 182.648 385.418 181.768V183H384.266V171H385.498V176.344C386.122 175.528 387.194 175.032 388.362 175.032C390.554 175.032 392.218 176.824 392.218 179.112ZM390.954 179.096C390.954 177.416 389.77 176.168 388.186 176.168C386.746 176.168 385.482 177.128 385.482 179.112C385.482 181.08 386.794 182.04 388.186 182.04C389.77 182.04 390.954 180.776 390.954 179.096ZM398.52 175.208V176.296H398.056C396.744 176.296 395.608 177.144 395.608 178.584V183H394.376V175.208H395.528V176.312C396.088 175.56 397 175.144 397.944 175.144C398.12 175.144 398.312 175.16 398.52 175.208ZM399.456 179.096C399.408 176.872 401.312 174.984 403.536 175.032C405.76 175 407.664 176.872 407.616 179.096C407.664 181.288 405.744 183.208 403.52 183.16C401.296 183.208 399.424 181.288 399.456 179.096ZM406.352 179.112C406.352 177.432 405.12 176.168 403.536 176.168C401.936 176.168 400.72 177.432 400.72 179.112C400.72 180.744 401.936 182.024 403.52 182.024C405.104 182.024 406.352 180.744 406.352 179.112ZM415.622 178.2V183H414.47V181.992C413.894 182.76 412.982 183.176 411.846 183.176C410.246 183.176 409.126 182.328 409.126 180.984C409.126 179.656 410.246 178.808 411.926 178.808H414.39V178.136C414.39 176.856 413.67 176.168 412.502 176.168C411.558 176.168 410.87 176.584 410.23 177.416L409.414 176.744C410.118 175.592 411.286 175.032 412.582 175.032C414.422 175.032 415.622 176.152 415.622 178.2ZM414.39 180.008V179.816H412.07C410.982 179.816 410.39 180.2 410.39 180.92C410.39 181.704 411.094 182.152 412.006 182.152C413.286 182.152 414.39 181.208 414.39 180.008ZM424.411 171H425.643V183H424.475V181.768C423.883 182.648 422.747 183.176 421.531 183.176C419.339 183.176 417.675 181.4 417.675 179.112C417.675 176.824 419.339 175.032 421.531 175.032C422.699 175.032 423.787 175.528 424.411 176.36V171ZM424.427 179.112C424.427 177.128 423.115 176.168 421.707 176.168C420.123 176.168 418.939 177.416 418.939 179.096C418.939 180.776 420.123 182.04 421.707 182.04C423.115 182.04 424.427 181.08 424.427 179.112ZM435.224 179.48H429.064C429.208 181.016 430.392 182.04 431.928 182.04C432.808 182.04 433.608 181.688 434.312 180.984L435.032 181.816C434.216 182.664 433.144 183.176 431.912 183.176C429.592 183.176 427.784 181.4 427.784 179.112C427.784 176.856 429.544 175.032 431.768 175.032C433.784 175.032 435.32 176.488 435.32 178.552C435.32 178.856 435.288 179.16 435.224 179.48ZM429.112 178.392H434.056C434.04 177 433.032 176.152 431.736 176.152C430.44 176.152 429.384 177.048 429.112 178.392ZM443.933 178.104V183H442.701V178.248C442.701 177.016 441.965 176.168 440.765 176.168C439.565 176.168 438.717 177.032 438.717 178.248V183H437.485V175.208H438.637V176.04C439.213 175.4 440.061 175.032 441.037 175.032C442.845 175.032 443.933 176.264 443.933 178.104ZM455.288 181.96V183C454.792 183.112 454.36 183.176 453.992 183.176C452.376 183.176 451.368 182.36 451.368 180.648V176.312H450.056V175.208H451.368V173.08H452.6V175.208H455.032V176.312H452.6V180.568C452.6 181.672 453.176 182.056 454.248 182.056C454.552 182.056 454.888 182.024 455.288 181.96ZM463.574 178.104V183H462.342V178.264C462.342 177 461.606 176.168 460.406 176.168C459.206 176.168 458.358 177.048 458.358 178.264V183H457.126V171H458.358V176.088C458.886 175.432 459.718 175.032 460.694 175.032C462.486 175.032 463.574 176.264 463.574 178.104ZM473.068 179.48H466.908C467.052 181.016 468.236 182.04 469.772 182.04C470.652 182.04 471.452 181.688 472.156 180.984L472.876 181.816C472.06 182.664 470.988 183.176 469.756 183.176C467.436 183.176 465.628 181.4 465.628 179.112C465.628 176.856 467.388 175.032 469.612 175.032C471.628 175.032 473.164 176.488 473.164 178.552C473.164 178.856 473.132 179.16 473.068 179.48ZM466.956 178.392H471.9C471.884 177 470.876 176.152 469.58 176.152C468.284 176.152 467.228 177.048 466.956 178.392ZM479.077 181.656L479.861 180.84C480.613 181.608 481.221 182.04 482.101 182.04C482.949 182.04 483.589 181.624 483.589 180.936C483.589 180.312 483.189 180.072 482.229 179.688L481.477 179.368C480.181 178.84 479.541 178.248 479.541 177.208C479.541 175.848 480.677 175.032 482.165 175.032C483.253 175.032 484.133 175.496 484.773 176.264L484.021 177.032C483.493 176.504 482.821 176.168 482.101 176.168C481.333 176.168 480.805 176.52 480.805 177.144C480.805 177.64 481.125 177.88 482.069 178.28L482.789 178.584C484.245 179.208 484.853 179.816 484.853 180.888C484.853 181.608 484.581 182.184 484.053 182.584C483.525 182.984 482.885 183.176 482.117 183.176C480.821 183.176 479.765 182.552 479.077 181.656ZM486.519 179.096C486.471 176.872 488.375 175 490.599 175.032C491.959 175.032 493.111 175.688 493.815 176.728L492.935 177.432C492.311 176.584 491.527 176.168 490.615 176.168C488.999 176.168 487.783 177.48 487.783 179.096C487.783 180.728 488.999 182.04 490.615 182.04C491.527 182.04 492.295 181.624 492.919 180.792L493.799 181.48C493.095 182.52 491.959 183.176 490.599 183.176C488.343 183.176 486.519 181.352 486.519 179.096ZM495.175 179.096C495.127 176.872 497.031 174.984 499.255 175.032C501.479 175 503.383 176.872 503.335 179.096C503.383 181.288 501.463 183.208 499.239 183.16C497.015 183.208 495.143 181.288 495.175 179.096ZM502.071 179.112C502.071 177.432 500.839 176.168 499.255 176.168C497.655 176.168 496.439 177.432 496.439 179.112C496.439 180.744 497.655 182.024 499.239 182.024C500.823 182.024 502.071 180.744 502.071 179.112ZM513.453 179.096C513.453 181.384 511.789 183.176 509.597 183.176C508.445 183.176 507.373 182.696 506.733 181.88V185.88H505.501V175.208H506.653V176.456C507.245 175.56 508.381 175.032 509.597 175.032C511.821 175.032 513.453 176.808 513.453 179.096ZM512.189 179.112C512.189 177.432 511.005 176.168 509.421 176.168C508.029 176.168 506.717 177.128 506.717 179.096C506.717 181.08 507.981 182.04 509.421 182.04C511.005 182.04 512.189 180.792 512.189 179.112ZM522.49 179.48H516.33C516.474 181.016 517.658 182.04 519.194 182.04C520.074 182.04 520.874 181.688 521.578 180.984L522.298 181.816C521.482 182.664 520.41 183.176 519.178 183.176C516.858 183.176 515.05 181.4 515.05 179.112C515.05 176.856 516.81 175.032 519.034 175.032C521.05 175.032 522.586 176.488 522.586 178.552C522.586 178.856 522.554 179.16 522.49 179.48ZM516.378 178.392H521.322C521.306 177 520.298 176.152 519.002 176.152C517.706 176.152 516.65 177.048 516.378 178.392Z" fill="#1D1D1F"/>
</svg>
