  <svg
                width="80"
                height="80"
                viewBox="0 0 80 80"
                fill="none"
                xmlns="http://www.w3.org/2000/svg"
                className="flex-grow-0 flex-shrink-0 w-20 h-20 relative"
                preserveAspectRatio="xMidYMid meet"
              >
                <g clip-path="url(#clip0_319_27657)">
                  <rect width="80" height="80" rx="40" fill="white" />
                  <path
                    d="M56.2484 101.387L79.478 95.7764L73.2277 69.8399C71.702 63.442 65.2548 59.5047 58.8076 61.0304C52.4096 62.5561 48.4724 69.0033 49.9981 75.4505L56.2484 101.387Z"
                    fill="#31B92E"
                  />
                  <path
                    d="M17.8995 101.387L-5.33008 95.7764L0.92027 69.8399C2.44594 63.442 8.89314 59.5047 15.3403 61.0304C21.7383 62.5561 25.6756 69.0033 24.1499 75.4505L17.8995 101.387Z"
                    fill="#31B92E"
                  />
                  <path
                    d="M16.8427 134.999H59.6108C62.0715 134.999 64.0894 132.981 64.0894 130.521V64.4245C64.0894 62.4067 62.4653 60.7334 60.3982 60.7334H12.3641V130.521C12.3641 132.981 14.3819 134.999 16.8427 134.999Z"
                    fill="#31B92E"
                  />
                  <path d="M52.9668 60.7334H57.4946V134.999H52.9668V60.7334Z" fill="#004C46" />
                  <path d="M20.3364 60.7334H24.8643V134.999H20.3364V60.7334Z" fill="#004C46" />
                  <path
                    d="M25.5381 45.7875H55.0795V13.3476C55.0795 10.9694 53.5188 9 51.5494 9H30.8518C27.9163 9 25.5381 11.9727 25.5381 15.6143V45.7875V45.7875Z"
                    fill="#051616"
                  />
                  <path d="M29.291 55.6721H47.7591C51.8094 55.6721 55.0422 52.4021 55.0422 48.3889V22.4519H29.291V55.6721Z" fill="#99492F" />
                  <path
                    d="M29.291 54.0742V63.7356C29.291 69.0865 33.267 73.3969 38.172 73.3969C43.077 73.3969 47.053 69.0493 47.053 63.7356V54.0742H29.291Z"
                    fill="#99492F"
                  />
                  <path d="M31.7063 55.6711L47.053 64.2549V55.6711H31.7063Z" fill="#723623" />
                  <path
                    d="M28.0274 47.8314H29.2908V38.0957H28.0274C25.9837 38.0957 24.3115 39.7679 24.3115 41.8116V44.0783C24.3115 46.1592 25.9837 47.8314 28.0274 47.8314Z"
                    fill="#99492F"
                  />
                  <path d="M46.1978 37.873H42.4819" stroke="white" stroke-width="0.535462" stroke-miterlimit="10" />
                  <path d="M33.9362 37.575H27.0618L26.5044 38.1323" stroke="white" stroke-width="0.535462" stroke-miterlimit="10" />
                  <path
                    d="M47.4985 37.9093C47.4985 37.9093 48.1674 35.6798 50.0625 35.494C51.9576 35.271 53.1839 36.8689 53.1839 36.8689C53.1839 36.8689 52.8494 38.8755 50.5456 39.1356C48.2417 39.3585 47.4985 37.9093 47.4985 37.9093Z"
                    fill="white"
                  />
                  <path
                    d="M52.2171 37.0173C52.3286 38.1692 51.5482 39.1725 50.5078 39.3212C49.4673 39.4326 48.5383 38.6151 48.4269 37.4632C48.3154 36.3113 49.0957 35.308 50.1362 35.1593C51.1766 35.0479 52.1056 35.8654 52.2171 37.0173Z"
                    fill="black"
                  />
                  <path
                    d="M47.4985 37.9099C47.4985 37.9099 48.0931 35.6061 50.0625 35.4946C52.0319 35.3459 53.1839 36.8695 53.1839 36.8695"
                    stroke="black"
                    stroke-width="0.243392"
                    stroke-miterlimit="10"
                    stroke-linecap="round"
                    stroke-linejoin="round"
                  />
                  <path
                    d="M35.4961 36.7574C35.4961 36.7574 36.7223 34.788 38.6175 35.0852C40.5126 35.3825 41.2557 37.2405 41.2557 37.2405C41.2557 37.2405 40.4011 39.0984 38.0972 38.7269C35.7934 38.3553 35.4961 36.7574 35.4961 36.7574Z"
                    fill="white"
                  />
                  <path
                    d="M40.2532 37.1672C40.0302 38.3191 39.0269 39.0995 38.0236 38.9137C36.9832 38.765 36.3143 37.6874 36.5373 36.5726C36.7602 35.4207 37.7635 34.6404 38.7668 34.8262C39.8073 34.9748 40.4761 36.0524 40.2532 37.1672Z"
                    fill="black"
                  />
                  <path
                    d="M35.4592 36.7576C35.4592 36.7576 36.6483 34.7139 38.5806 35.0854C40.5129 35.4942 41.2189 37.2407 41.2189 37.2407"
                    stroke="black"
                    stroke-width="0.243392"
                    stroke-miterlimit="10"
                    stroke-linecap="round"
                    stroke-linejoin="round"
                  />
                  <path
                    d="M38.3576 30.1438C38.3576 30.1438 36.3882 29.8837 35.0504 30.3296C34.2329 30.5897 33.9728 31.5187 34.7903 32.0017C35.2734 32.299 36.8341 32.5963 37.8745 32.7078C40.4385 33.005 41.8505 32.2618 41.8505 31.6301C41.8877 30.7755 39.7325 30.2181 38.3576 30.1438Z"
                    fill="#051616"
                  />
                  <path
                    d="M50.7313 30.1445C50.7313 30.1445 52.5149 29.9587 53.7412 30.4418C54.4844 30.739 54.7073 31.668 54.0013 32.1139C53.5554 32.4112 52.1434 32.6342 51.2144 32.7456C48.9105 33.0057 47.5728 32.2254 47.5728 31.5937C47.5356 30.7019 49.4679 30.1817 50.7313 30.1445Z"
                    fill="#051616"
                  />
                  <path d="M28.7708 38.0954V28.6942H31.2232V24.9783H55.0794V19.3301H28.7708V28.6942" fill="#051616" />
                  <path d="M40.29 45.7129C40.29 48.0539 42.1852 49.9119 44.489 49.9119C46.83 49.9119 48.688 48.0168 48.688 45.7129" fill="white" />
                  <path d="M44.3773 39.7676L46.1981 41.4769C47.7217 43.1119 45.8266 43.3348 44.8604 43.2605L44.2659 43.149" fill="#723623" />
                  <g opacity="0.36">
                    <g opacity="0.36">
                      <path
                        opacity="0.36"
                        d="M34.0474 37.3151C34.0474 39.6933 35.9796 41.6255 38.3578 41.6255C40.736 41.6255 42.6683 39.6933 42.6683 37.3151C42.6683 34.9369 40.736 33.0046 38.3578 33.0046C35.9796 33.0046 34.0474 34.9369 34.0474 37.3151Z"
                        fill="white"
                      />
                    </g>
                  </g>
                  <path
                    d="M34.0466 37.3151C34.0466 39.6933 35.9789 41.6255 38.3571 41.6255C40.7353 41.6255 42.6675 39.6933 42.6675 37.3151C42.6675 34.9369 40.7353 33.0046 38.3571 33.0046C35.9789 33.0046 34.0466 34.9369 34.0466 37.3151Z"
                    stroke="white"
                    stroke-width="0.535462"
                    stroke-miterlimit="10"
                  />
                  <g opacity="0.36">
                    <g opacity="0.36">
                      <path
                        opacity="0.36"
                        d="M46.2344 37.3151C46.2344 39.6933 48.1666 41.6255 50.5448 41.6255C52.923 41.6255 54.8553 39.6933 54.8553 37.3151C54.8553 34.9369 52.923 33.0046 50.5448 33.0046C48.1666 33.0046 46.2344 34.9369 46.2344 37.3151Z"
                        fill="white"
                      />
                    </g>
                  </g>
                  <path
                    d="M46.2356 37.3151C46.2356 39.6933 48.1679 41.6255 50.546 41.6255C52.9242 41.6255 54.8565 39.6933 54.8565 37.3151C54.8565 34.9369 52.9242 33.0046 50.546 33.0046C48.1679 33.0046 46.2356 34.9369 46.2356 37.3151Z"
                    stroke="white"
                    stroke-width="0.535462"
                    stroke-miterlimit="10"
                  />
                </g>
                <defs>
                  <clippath id="clip0_319_27657">
                    <rect width="80" height="80" rx="40" fill="white" />
                  </clippath>
                </defs>
              </svg>