<svg
                    width="24"
                    height="24"
                    viewBox="0 0 24 24"
                    fill="none"
                    xmlns="http://www.w3.org/2000/svg"
                    className="flex-grow-0 flex-shrink-0 w-6 h-6 relative"
                    preserveAspectRatio="none"
                  >
                    <path
                      d="M5 10.9999H16.59L13.29 7.70994C13.1017 7.52164 12.9959 7.26624 12.9959 6.99994C12.9959 6.73364 13.1017 6.47825 13.29 6.28994C13.4783 6.10164 13.7337 5.99585 14 5.99585C14.2663 5.99585 14.5217 6.10164 14.71 6.28994L19.71 11.2899C19.801 11.385 19.8724 11.4972 19.92 11.6199C20.02 11.8634 20.02 12.1365 19.92 12.3799C19.8724 12.5027 19.801 12.6148 19.71 12.7099L14.71 17.7099C14.617 17.8037 14.5064 17.8781 14.3846 17.9288C14.2627 17.9796 14.132 18.0057 14 18.0057C13.868 18.0057 13.7373 17.9796 13.6154 17.9288C13.4936 17.8781 13.383 17.8037 13.29 17.7099C13.1963 17.617 13.1219 17.5064 13.0711 17.3845C13.0203 17.2627 12.9942 17.132 12.9942 16.9999C12.9942 16.8679 13.0203 16.7372 13.0711 16.6154C13.1219 16.4935 13.1963 16.3829 13.29 16.2899L16.59 12.9999H5C4.73478 12.9999 4.48043 12.8946 4.29289 12.707C4.10536 12.5195 4 12.2652 4 11.9999C4 11.7347 4.10536 11.4804 4.29289 11.2928C4.48043 11.1053 4.73478 10.9999 5 10.9999Z"
                      fill="#2DA32A"
                    />
                  </svg>