<svg width="768" height="520" viewBox="0 0 768 520" fill="none" xmlns="http://www.w3.org/2000/svg">
<g opacity="0.4">
<g clip-path="url(#clip0_149_16891)">
<path d="M580.132 461.959H558.26V474.213H580.132V461.959Z" fill="#258B23"/>
<path d="M580.132 461.959H566.596V474.213H580.132V461.959Z" fill="#31B92E"/>
<path fill-rule="evenodd" clip-rule="evenodd" d="M570.514 462.601H572.081V473.596H570.514V462.601ZM567.902 462.601H569.469V473.596H567.902V462.601ZM572.912 462.601H574.503V473.596H572.912V462.601ZM575.334 462.601H576.831V473.596H575.334V462.601ZM577.662 462.601H579.229V473.596H577.662V462.601Z" fill="#5AC758"/>
<path d="M562.417 461.959H562.132V474.213H562.417V461.959Z" fill="#31B92E"/>
<path d="M562.938 461.959H541.067V474.213H562.938V461.959Z" fill="#FFC833"/>
<path d="M562.963 461.959H549.427V474.213H562.963V461.959Z" fill="#FFBA00"/>
<path fill-rule="evenodd" clip-rule="evenodd" d="M553.321 462.601H554.889V473.596H553.321V462.601ZM550.709 462.601H552.277V473.596H550.709V462.601ZM555.72 462.601H557.311V473.596H555.72V462.601ZM558.142 462.601H559.638V473.596H558.142V462.601ZM560.469 462.601H562.037V473.596H560.469V462.601Z" fill="#FFC833"/>
<path d="M545.247 461.959H544.962V474.213H545.247V461.959Z" fill="#FFE399"/>
<path d="M535.202 472.646H513.331V484.9H535.202V472.646Z" fill="#258B23"/>
<path d="M535.202 472.646H521.666V484.9H535.202V472.646Z" fill="#31B92E"/>
<path fill-rule="evenodd" clip-rule="evenodd" d="M525.585 473.263H527.152V484.258H525.585V473.263ZM522.949 473.263H524.517V484.258H522.949V473.263ZM527.984 473.263H529.575V484.258H527.984V473.263ZM530.382 473.263H531.878V484.258H530.382V473.263ZM532.733 473.263H534.3V484.258H532.733V473.263Z" fill="#5AC758"/>
<path d="M517.487 472.646H517.202V484.9H517.487V472.646Z" fill="#31B92E"/>
<path d="M476.855 459.395H468.093V479.223H476.855V459.395Z" fill="#258B23"/>
<path d="M468.093 459.395H455.245V479.223H468.093V459.395Z" fill="#35C731"/>
<path d="M480.798 465.379H469.66V485.208H480.798V465.379Z" fill="#258B23"/>
<path d="M470.04 465.379H451.28V485.208H470.04V465.379Z" fill="#36CC33"/>
<path d="M466.478 468.087H454.082V468.491H466.478V468.087Z" fill="#258B23"/>
<path d="M454.486 480.483V468.087H454.082V480.483H454.486Z" fill="#258B23"/>
<path d="M587.802 474.047V478.107C587.802 482.239 586.544 486.158 584.359 489.435C582.174 492.712 579.016 495.372 575.192 496.939C572.628 498.008 570.989 500.216 570.538 502.662C570.443 503.137 570.419 503.612 570.419 504.087C570.419 505.82 570.989 507.554 572.224 509.026H463.913C458.048 509.026 452.752 506.58 448.976 502.662C445.39 498.957 443.206 493.923 443.206 488.366V484.804L526.606 484.97C532.448 484.97 537.197 480.245 537.197 474.403V474.023L587.802 474.047Z" fill="#004C46"/>
<path d="M471.607 476.231H443.206V487.963H471.607V476.231Z" fill="#004C46"/>
<path d="M458.831 461.39H456.623V463.598H458.831V461.39Z" fill="#00FFDE"/>
<path d="M462.394 461.39H460.185V463.598H462.394V461.39Z" fill="#00FFDE"/>
<path d="M465.932 461.39H463.724V463.598H465.932V461.39Z" fill="#00FFDE"/>
<path d="M471.488 461.39H469.28V463.598H471.488V461.39Z" fill="#00FFDE"/>
<path d="M475.027 461.39H472.818V463.598H475.027V461.39Z" fill="#00FFDE"/>
<path d="M463.723 454.883H463.201V459.395H463.723V454.883Z" fill="#004C46"/>
<path d="M464.009 454.883H463.486V459.395H464.009V454.883Z" fill="#022D2B"/>
<path d="M463.604 455.477C464.079 455.477 464.483 455.097 464.483 454.598C464.483 454.123 464.103 453.719 463.604 453.719C463.129 453.719 462.725 454.099 462.725 454.598C462.725 455.097 463.105 455.477 463.604 455.477Z" fill="#FFBA00"/>
<path d="M516.608 472.646H494.737V484.9H516.608V472.646Z" fill="#FFC833"/>
<path d="M516.632 472.646H503.096V484.9H516.632V472.646Z" fill="#FFBA00"/>
<path fill-rule="evenodd" clip-rule="evenodd" d="M506.991 473.263H508.558V484.258H506.991V473.263ZM504.378 473.263H505.946V484.258H504.378V473.263ZM509.389 473.263H510.98V484.258H509.389V473.263ZM511.811 473.263H513.307V484.258H511.811V473.263ZM514.138 473.263H515.706V484.258H514.138V473.263Z" fill="#FFC833"/>
<path d="M498.893 472.646H498.608V484.9H498.893V472.646Z" fill="#FFE399"/>
<path d="M525.846 460.392H503.975V472.646H525.846V460.392Z" fill="#022D2B"/>
<path d="M525.845 460.392H512.31V472.646H525.845V460.392Z" fill="#004C46"/>
<path fill-rule="evenodd" clip-rule="evenodd" d="M516.229 461.034H517.796V472.029H516.229V461.034ZM513.616 461.034H515.184V472.029H513.616V461.034ZM518.627 461.034H520.218V472.029H518.627V461.034ZM521.049 461.034H522.545V472.029H521.049V461.034ZM523.376 461.034H524.944V472.029H523.376V461.034Z" fill="#022D2B"/>
<path d="M508.13 460.392H507.845V472.646H508.13V460.392Z" fill="#004C46"/>
<path d="M509.294 466.258H508.606V466.377H509.294V466.258Z" fill="#004C46"/>
<path fill-rule="evenodd" clip-rule="evenodd" d="M572.2 509.074H463.889C458.024 509.074 452.728 506.628 448.952 502.709H570.538C570.443 503.184 570.419 503.659 570.419 504.134C570.419 505.844 570.989 507.601 572.2 509.074Z" fill="#022D2B"/>
<path d="M584.814 515.59H518.752C520.414 515.044 521.754 513.43 522.846 511.941C524.186 510.08 525.824 508.02 528.108 507.921C529.646 507.847 531.061 508.69 532.227 509.708C533.394 510.725 534.436 511.867 535.751 512.661C538.009 513.976 540.987 513.976 543.196 512.612C545.504 511.222 547.043 508.517 549.673 507.847C551.733 507.326 553.917 508.269 555.654 509.509C557.714 510.974 559.724 512.984 562.255 512.909C564.315 512.86 566.028 511.371 567.665 510.055C569.254 508.74 571.19 507.425 573.249 507.772C575.185 508.095 576.55 509.782 577.989 511.172C579.851 512.959 582.084 514.324 584.516 515.168C584.591 515.465 584.764 515.292 584.814 515.59Z" fill="#00FFDE"/>
<path d="M572.593 511.277H506.53C508.193 510.731 509.533 509.118 510.625 507.628C511.965 505.767 513.603 503.707 515.886 503.608C517.425 503.534 518.84 504.377 520.006 505.395C521.172 506.412 522.215 507.554 523.53 508.348C525.788 509.663 528.766 509.663 530.975 508.299C533.283 506.909 534.822 504.204 537.452 503.534C539.512 503.013 541.696 503.956 543.433 505.196C545.493 506.661 547.503 508.671 550.034 508.596C552.094 508.547 553.806 507.058 555.444 505.742C557.033 504.427 558.968 503.112 561.028 503.459C562.964 503.782 564.329 505.469 565.768 506.859C567.629 508.646 569.863 510.011 572.295 510.855C572.369 511.152 572.543 510.979 572.593 511.277Z" fill="#00FFDE"/>
<path d="M485.438 516.491H429.997C431.412 516.02 432.529 514.68 433.422 513.414C434.564 511.876 435.929 510.114 437.84 510.039C439.13 509.965 440.321 510.684 441.289 511.528C442.282 512.347 443.15 513.365 444.242 514.01C446.128 515.127 448.635 515.102 450.496 513.985C452.432 512.819 453.722 510.56 455.931 510.014C457.668 509.592 459.48 510.362 460.944 511.404C462.681 512.62 464.369 514.332 466.478 514.283C468.215 514.233 469.655 513.017 470.995 511.9C472.335 510.808 473.948 509.692 475.685 509.965C477.323 510.238 478.465 511.652 479.656 512.819C481.219 514.308 483.105 515.474 485.14 516.169C485.215 516.392 485.389 516.268 485.438 516.491Z" fill="#00FFDE"/>
<path d="M453.807 512.074H398.366C399.781 511.603 400.897 510.263 401.791 508.997C402.932 507.459 404.297 505.697 406.208 505.622C407.499 505.548 408.69 506.267 409.658 507.111C410.65 507.93 411.519 508.948 412.611 509.593C414.497 510.71 417.004 510.685 418.865 509.568C420.8 508.402 422.091 506.143 424.3 505.597C426.037 505.175 427.848 505.945 429.313 506.987C431.05 508.203 432.737 509.915 434.847 509.866C436.584 509.816 438.023 508.6 439.363 507.483C440.704 506.391 442.317 505.275 444.054 505.548C445.692 505.821 446.833 507.235 448.025 508.402C449.588 509.891 451.474 511.057 453.509 511.752C453.583 511.975 453.757 511.851 453.807 512.074Z" fill="#00FFDE"/>
<path d="M500.872 510.001H445.432C446.846 509.53 447.963 508.19 448.856 506.924C449.998 505.385 451.363 503.623 453.274 503.549C454.564 503.474 455.755 504.194 456.723 505.038C457.716 505.857 458.585 506.874 459.676 507.52C461.563 508.636 464.069 508.611 465.93 507.495C467.866 506.328 469.157 504.07 471.365 503.524C473.102 503.102 474.914 503.871 476.378 504.914C478.115 506.13 479.803 507.842 481.912 507.793C483.65 507.743 485.089 506.527 486.429 505.41C487.769 504.318 489.382 503.201 491.119 503.474C492.757 503.747 493.899 505.162 495.09 506.328C496.654 507.817 498.54 508.984 500.575 509.679C500.649 509.902 500.823 509.778 500.872 510.001Z" fill="#00FFDE"/>
<path d="M516.657 513.51H461.217C462.631 513.038 463.748 511.698 464.641 510.433C465.783 508.894 467.148 507.132 469.059 507.058C470.349 506.983 471.54 507.703 472.508 508.547C473.501 509.366 474.369 510.383 475.461 511.028C477.347 512.145 479.854 512.12 481.715 511.003C483.651 509.837 484.941 507.579 487.15 507.033C488.887 506.611 490.699 507.38 492.163 508.423C493.9 509.639 495.588 511.351 497.697 511.301C499.434 511.252 500.874 510.036 502.214 508.919C503.554 507.827 505.167 506.71 506.904 506.983C508.542 507.256 509.684 508.671 510.875 509.837C512.438 511.326 514.325 512.493 516.359 513.187C516.434 513.411 516.608 513.287 516.657 513.51Z" fill="#00FFDE"/>
<path d="M608.022 475.666H838.44V514.556H626.255L608.022 523.093V475.666Z" fill="#000E0D"/>
<path d="M754.265 452.446H829.458V494.638H754.265V452.446Z" fill="#022D2B"/>
<path d="M754.265 452.446H791.862V494.638H754.265V452.446Z" fill="#004C46"/>
<path fill-rule="evenodd" clip-rule="evenodd" d="M787.372 452.446H781.941V494.638H787.372V452.446ZM779.121 452.446H773.621V494.638H779.121V452.446ZM770.801 452.446H765.614V494.638H770.801V452.446ZM762.795 452.446H757.469V494.638H762.795V452.446Z" fill="#003935"/>
<path d="M698.428 457.285H773.621V499.477H698.428V457.285Z" fill="#258B23"/>
<path d="M698.428 457.285H736.024V499.477H698.428V457.285Z" fill="#36CC33"/>
<path fill-rule="evenodd" clip-rule="evenodd" d="M731.464 457.285H726.033V499.477H731.464V457.285ZM723.213 457.285H717.713V499.477H723.213V457.285ZM714.963 457.285H709.776V499.477H714.963V457.285ZM706.921 457.285H701.595V499.477H706.921V457.285Z" fill="#195D17"/>
<path fill-rule="evenodd" clip-rule="evenodd" d="M769.513 457.285H764.082V499.477H769.513V457.285ZM761.263 457.285H755.762V499.477H761.263V457.285ZM752.943 457.285H747.756V499.477H752.943V457.285ZM744.936 457.285H739.61V499.477H744.936V457.285Z" fill="#5AC758"/>
<path fill-rule="evenodd" clip-rule="evenodd" d="M692.754 403.223L619.823 376.139L619.51 376L619.232 376.174L566.423 404.197L567.154 405.59L619.649 377.741L692.197 404.72L692.754 403.223Z" fill="#022D2B"/>
<path d="M588.493 405.589H589.85V452.272H588.493V405.589Z" fill="#022D2B"/>
<path d="M569.799 405.589H571.157V452.272H569.799V405.589Z" fill="#022D2B"/>
<path d="M639.91 408.828H643.878V485.517H639.91V408.828Z" fill="#022D2B"/>
<path fill-rule="evenodd" clip-rule="evenodd" d="M661.214 486.527V408.828H659.787V485.761H648.369V408.828H646.942V486.527V487.293H647.673H660.483H661.214V486.527Z" fill="#022D2B"/>
<path fill-rule="evenodd" clip-rule="evenodd" d="M654.74 423.762L660.866 408.828H659.3L654.078 421.534L648.856 408.828H647.29L653.417 423.762L654.078 425.328L654.74 423.762Z" fill="#022D2B"/>
<path fill-rule="evenodd" clip-rule="evenodd" d="M654.739 454.883L661.145 439.357L661.284 439.044L661.145 438.73L654.704 423.17L654.043 421.603L653.382 423.17L646.941 438.73L646.802 439.044L646.941 439.357L653.382 454.918L654.043 456.484L654.739 454.883ZM659.717 439.009L654.078 452.69L648.438 439.009L654.078 425.328L659.717 439.009Z" fill="#022D2B"/>
<path fill-rule="evenodd" clip-rule="evenodd" d="M654.739 486.005L661.145 470.444L661.284 470.131L661.145 469.817L654.704 454.256L654.043 452.69L653.382 454.256L646.941 469.817L646.802 470.131L646.941 470.444L653.416 486.005L654.078 487.571L654.739 486.005ZM659.717 470.131L654.078 483.811L648.438 470.131L654.078 456.484L659.717 470.131Z" fill="#022D2B"/>
<path d="M647.673 438.243H660.483V439.81H647.673V438.243Z" fill="#022D2B"/>
<path d="M647.673 469.364H660.483V470.931H647.673V469.364Z" fill="#022D2B"/>
<path d="M647.673 422.265H660.483V423.832H647.673V422.265Z" fill="#022D2B"/>
<path d="M647.673 454.396H660.483V455.962H647.673V454.396Z" fill="#022D2B"/>
<path fill-rule="evenodd" clip-rule="evenodd" d="M646.942 408.827V486.526V487.292H647.673H654.113V485.726H648.369V408.792H646.942V408.827Z" fill="#022D2B"/>
<path fill-rule="evenodd" clip-rule="evenodd" d="M647.325 408.828L653.451 423.762L654.113 425.328V421.569L648.891 408.862H647.325V408.828Z" fill="#022D2B"/>
<path fill-rule="evenodd" clip-rule="evenodd" d="M654.113 421.534L653.451 423.101L647.011 438.661L646.872 438.975L647.011 439.288L653.451 454.814L654.113 456.415V452.621L648.473 438.975L654.113 425.294V421.534Z" fill="#022D2B"/>
<path fill-rule="evenodd" clip-rule="evenodd" d="M654.113 452.655L653.451 454.257L647.011 469.783L646.872 470.096L647.011 470.409L653.451 486.005L654.113 487.571V483.812L648.473 470.131L654.113 456.485V452.655Z" fill="#022D2B"/>
<path d="M647.673 438.243H654.113V439.81H647.673V438.243Z" fill="#022D2B"/>
<path d="M647.673 469.364H654.113V470.931H647.673V469.364Z" fill="#022D2B"/>
<path d="M647.673 422.265H654.113V423.832H647.673V422.265Z" fill="#022D2B"/>
<path d="M647.673 454.396H654.113V455.962H647.673V454.396Z" fill="#022D2B"/>
<path d="M559.53 403.048H693.415V410.881H559.53V403.048Z" fill="#004C46"/>
<path d="M616.656 377.079H623.165V487.397H616.656V377.079Z" fill="#022D2B"/>
<path fill-rule="evenodd" clip-rule="evenodd" d="M667.689 485.552H635.071C634.235 485.552 633.504 486.283 633.504 487.118V492.096C633.504 492.932 634.235 493.663 635.071 493.663H667.689C668.525 493.663 669.256 492.932 669.256 492.096V487.118C669.256 486.248 668.594 485.552 667.689 485.552Z" fill="#004C46"/>
<path fill-rule="evenodd" clip-rule="evenodd" d="M627.412 485.552H613.906C613.07 485.552 612.339 486.283 612.339 487.118V492.096C612.339 492.932 613.07 493.663 613.906 493.663H627.412C628.248 493.663 628.979 492.932 628.979 492.096V487.118C628.979 486.248 628.248 485.552 627.412 485.552Z" fill="#004C46"/>
<path d="M557.963 445.205H600.99V469.364H557.963V445.205Z" fill="#258B23"/>
<path d="M557.928 445.205H579.442V469.364H557.928V445.205Z" fill="#36CC33"/>
<path fill-rule="evenodd" clip-rule="evenodd" d="M576.866 445.205H573.733V469.364H576.866V445.205ZM572.166 445.205H569.033V469.364H572.166V445.205ZM567.397 445.205H564.438V469.364H567.397V445.205ZM562.802 445.205H559.739V469.364H562.802V445.205Z" fill="#195D17"/>
<path fill-rule="evenodd" clip-rule="evenodd" d="M598.623 445.205H595.49V469.364H598.623V445.205ZM593.889 445.205H590.756V469.364H593.889V445.205ZM589.155 445.205H586.196V469.364H589.155V445.205ZM584.559 445.205H581.496V469.364H584.559V445.205Z" fill="#5AC758"/>
<path d="M711.084 511.101H835.779C832.646 510.057 830.105 507.028 828.051 504.209C825.509 500.693 822.446 496.828 818.129 496.585C815.24 496.446 812.56 498.047 810.332 499.927C808.138 501.807 806.189 504.034 803.683 505.497C799.436 508.003 793.796 507.968 789.619 505.392C785.267 502.746 782.343 497.664 777.4 496.411C773.501 495.436 769.428 497.177 766.121 499.544C762.222 502.294 758.428 506.123 753.658 505.984C749.759 505.879 746.522 503.095 743.459 500.623C740.43 498.116 736.81 495.645 732.946 496.306C729.29 496.933 726.714 500.101 723.999 502.712C720.483 506.088 716.271 508.664 711.676 510.266C711.571 510.858 711.188 510.544 711.084 511.101Z" fill="#00FFDE"/>
<path d="M614.752 516.852H739.447C736.314 515.808 733.773 512.779 731.719 509.959C729.178 506.444 726.115 502.579 721.798 502.336C718.909 502.197 716.228 503.798 714 505.678C711.807 507.557 709.858 509.785 707.351 511.248C703.104 513.754 697.465 513.719 693.287 511.143C688.936 508.497 686.012 503.415 681.068 502.162C677.17 501.187 673.097 502.928 669.789 505.295C665.891 508.045 662.096 511.874 657.327 511.735C653.428 511.63 650.191 508.846 647.127 506.374C644.099 503.867 640.478 501.396 636.614 502.057C632.959 502.684 630.383 505.852 627.668 508.463C624.152 511.839 619.939 514.415 615.344 516.017C615.24 516.608 614.857 516.295 614.752 516.852Z" fill="#00FFDE"/>
<path d="M723.305 516.852H848C844.867 515.808 842.326 512.779 840.272 509.959C837.731 506.444 834.667 502.579 830.351 502.336C827.461 502.197 824.781 503.798 822.553 505.678C820.36 507.557 818.41 509.785 815.904 511.248C811.657 513.754 806.017 513.719 801.84 511.143C797.488 508.497 794.564 503.415 789.621 502.162C785.722 501.187 781.649 502.928 778.342 505.295C774.443 508.045 770.649 511.874 765.88 511.735C761.981 511.63 758.743 508.846 755.68 506.374C752.651 503.867 749.031 501.396 745.167 502.057C741.511 502.684 738.935 505.852 736.22 508.463C732.704 511.839 728.492 514.415 723.897 516.017C723.792 516.608 723.409 516.295 723.305 516.852Z" fill="#00FFDE"/>
<path d="M518.421 522.603H643.116C639.983 521.559 637.442 518.53 635.388 515.71C632.847 512.194 629.783 508.33 625.467 508.087C622.577 507.947 619.897 509.549 617.669 511.429C615.476 513.308 613.526 515.536 611.02 516.998C606.773 519.505 601.133 519.47 596.956 516.894C592.604 514.248 589.68 509.166 584.737 507.913C580.838 506.938 576.765 508.679 573.458 511.046C569.559 513.796 565.765 517.625 560.996 517.486C557.097 517.381 553.859 514.596 550.796 512.125C547.767 509.618 544.147 507.147 540.283 507.808C536.627 508.435 534.051 511.603 531.336 514.214C527.82 517.59 523.608 520.166 519.013 521.768C518.908 522.359 518.525 522.046 518.421 522.603Z" fill="#00FFDE"/>
<path d="M560.836 526.198H685.531C682.398 525.154 679.856 522.125 677.803 519.305C675.261 515.789 672.198 511.925 667.881 511.681C664.992 511.542 662.311 513.144 660.084 515.023C657.89 516.903 655.941 519.131 653.435 520.593C649.188 523.1 643.548 523.065 639.371 520.489C635.019 517.843 632.095 512.761 627.152 511.507C623.253 510.533 619.18 512.273 615.873 514.64C611.974 517.391 608.18 521.22 603.41 521.081C599.511 520.976 596.274 518.191 593.211 515.72C590.182 513.213 586.562 510.742 582.697 511.403C579.042 512.03 576.466 515.197 573.751 517.808C570.235 521.185 566.023 523.761 561.428 525.362C561.323 525.989 560.975 525.641 560.836 526.198Z" fill="#00FFDE"/>
<path d="M633.444 526.198H758.139C755.006 525.154 752.464 522.125 750.411 519.305C747.869 515.789 744.806 511.925 740.489 511.681C737.6 511.542 734.919 513.144 732.691 515.023C730.498 516.903 728.549 519.131 726.042 520.593C721.795 523.1 716.156 523.065 711.979 520.489C707.627 517.843 704.703 512.761 699.76 511.507C695.861 510.533 691.788 512.273 688.481 514.64C684.582 517.391 680.787 521.22 676.018 521.081C672.119 520.976 668.882 518.191 665.818 515.72C662.79 513.213 659.169 510.742 655.305 511.403C651.65 512.03 649.074 515.197 646.359 517.808C642.843 521.185 638.631 523.761 634.036 525.362C633.931 525.989 633.583 525.641 633.444 526.198Z" fill="#00FFDE"/>
<path d="M717.554 522.603H842.249C839.116 521.559 836.575 518.53 834.521 515.71C831.979 512.195 828.916 508.33 824.599 508.087C821.71 507.947 819.03 509.549 816.802 511.429C814.609 513.308 812.659 515.536 810.153 516.998C805.906 519.505 800.266 519.47 796.089 516.894C791.737 514.248 788.813 509.166 783.87 507.913C779.971 506.938 775.898 508.679 772.591 511.046C768.692 513.796 764.898 517.625 760.128 517.486C756.23 517.381 752.992 514.596 749.929 512.125C746.9 509.618 743.28 507.147 739.416 507.808C735.76 508.435 733.184 511.603 730.469 514.214C726.953 517.59 722.741 520.166 718.146 521.768C718.041 522.394 717.693 522.046 717.554 522.603Z" fill="#00FFDE"/>
</g>
<g clip-path="url(#clip1_149_16891)">
<path d="M270 522.716H157.01L164.987 503.18C168.231 495.203 177.492 489.829 187.902 489.829H234.714C244.651 489.829 253.675 494.46 257.832 501.726L270 522.716Z" fill="#BD6B06"/>
<path d="M264.863 522.715H161.607L167.454 507.641C170.564 499.664 179.351 494.29 189.288 494.29H233.802C243.265 494.29 251.816 498.921 255.805 506.187L264.863 522.715Z" fill="#8E5005"/>
<path d="M259.894 522.715H165.291L168.84 513.184C171.814 505.207 180.332 499.833 189.897 499.833H232.821C241.913 499.833 250.194 504.463 254.047 511.73L259.894 522.715Z" fill="#BD6B06"/>
<path d="M254.115 522.715H169.178L170.733 518.355C173.572 510.378 181.548 505.004 190.607 505.004H231.165C239.75 505.004 247.592 509.635 251.208 516.902L254.115 522.715Z" fill="#8E5005"/>
<path d="M122.197 402.053C124.09 402.053 125.644 400.498 125.644 398.605C125.644 396.712 124.09 395.158 122.197 395.158C120.304 395.158 118.749 396.712 118.749 398.605C118.749 400.498 120.27 402.053 122.197 402.053Z" fill="#00FFDE"/>
<path d="M118.75 395.191C119.899 395.191 120.845 394.245 120.845 393.096C120.845 391.946 119.899 391 118.75 391C117.601 391 116.654 391.946 116.654 393.096C116.654 394.245 117.601 395.191 118.75 395.191Z" fill="#00FFDE"/>
<path d="M93.1639 435.615V469.076H62.4068V521.059H148.932V469.076V435.615H93.1639Z" fill="#008E62"/>
<path d="M121.048 435.615V469.076H105.669V521.059H148.932V469.076V435.615H121.048Z" fill="#FFBA00"/>
<path d="M132.1 447.783H125.645V456.942H132.1V447.783Z" fill="#022D2B"/>
<path d="M144.37 447.783H137.914V456.942H144.37V447.783Z" fill="#022D2B"/>
<path d="M99.6196 478.945H68.6597V488.105H99.6196V478.945Z" fill="#304860"/>
<path d="M99.6196 495.034H68.6597V504.193H99.6196V495.034Z" fill="#304860"/>
<path d="M152.515 428.584H89.6147V435.581H152.515V428.584Z" fill="#022D2B"/>
<path d="M115.877 493.141H118.648C124.09 493.141 128.517 499.427 128.517 507.066V521.025" stroke="#022D2B" stroke-width="10.4457" stroke-miterlimit="10"/>
<path d="M133.317 493.141H136.088C141.53 493.141 145.957 499.427 145.957 507.066V521.025" stroke="#022D2B" stroke-width="10.4457" stroke-miterlimit="10"/>
<path d="M129.836 428.585H113.274L116.553 398.605H126.591L129.836 428.585Z" fill="#022220"/>
<path d="M106.649 453.833V521.295H43.7156V468.062L106.649 453.833Z" fill="#31B92E"/>
<path d="M43.7497 468.062H-19.184V521.295H43.7497V468.062Z" fill="#008E62"/>
<path d="M17.0143 491.789H8.5645C8.32791 491.789 8.09131 491.586 8.09131 491.316V482.866C8.09131 482.629 8.29411 482.393 8.5645 482.393H17.0143C17.2508 482.393 17.4874 482.595 17.4874 482.866V491.316C17.4874 491.586 17.2846 491.789 17.0143 491.789Z" fill="#022D2B"/>
<path d="M34.7588 491.789H26.309C26.0724 491.789 25.8358 491.586 25.8358 491.316V482.866C25.8358 482.629 26.0386 482.393 26.309 482.393H34.7588C34.9954 482.393 35.232 482.595 35.232 482.866V491.316C35.232 491.586 35.0629 491.789 34.7588 491.789Z" fill="#022D2B"/>
<path d="M17.0143 506.051H8.5645C8.32791 506.051 8.09131 505.849 8.09131 505.578V497.128C8.09131 496.892 8.29411 496.655 8.5645 496.655H17.0143C17.2508 496.655 17.4874 496.858 17.4874 497.128V505.578C17.4874 505.815 17.2846 506.051 17.0143 506.051Z" fill="#022D2B"/>
<path d="M34.7588 506.051H26.309C26.0724 506.051 25.8358 505.849 25.8358 505.578V497.128C25.8358 496.892 26.0386 496.655 26.309 496.655H34.7588C34.9954 496.655 35.232 496.858 35.232 497.128V505.578C35.232 505.815 35.0629 506.051 34.7588 506.051Z" fill="#022D2B"/>
<path d="M94.0765 521.295H57.0328V487.225C57.0328 486.583 57.5398 486.076 58.1819 486.076H92.9273C93.5695 486.076 94.0765 486.583 94.0765 487.225V521.295Z" fill="#022220"/>
<path d="M106.65 453.833L43.7159 468.062H-19.184L43.4794 453.833H106.65Z" fill="#FFBA00"/>
<path d="M76.8383 486.076H75.5201V521.295H76.8383V486.076Z" fill="#022D2B"/>
<path d="M226.94 521.633H187.97L188.105 520.89C193.885 491.924 195.676 462.35 193.445 432.877H221.465C219.2 462.316 220.992 491.924 226.805 520.89L226.94 521.633Z" fill="#00FFE0"/>
<path d="M199.36 432.877H198.38V521.599H199.36V432.877Z" fill="#004C46"/>
<path d="M201.117 435.412H196.656V436.325H201.117V435.412Z" fill="#004C46"/>
<path d="M201.117 440.313H196.656V441.226H201.117V440.313Z" fill="#004C46"/>
<path d="M201.117 445.281H196.656V446.194H201.117V445.281Z" fill="#004C46"/>
<path d="M201.117 450.182H196.656V451.094H201.117V450.182Z" fill="#004C46"/>
<path d="M201.117 455.117H196.656V456.03H201.117V455.117Z" fill="#004C46"/>
<path d="M201.117 460.052H196.656V460.964H201.117V460.052Z" fill="#004C46"/>
<path d="M201.117 464.986H196.656V465.898H201.117V464.986Z" fill="#004C46"/>
<path d="M201.117 469.887H196.656V470.799H201.117V469.887Z" fill="#004C46"/>
<path d="M201.117 474.821H196.656V475.734H201.117V474.821Z" fill="#004C46"/>
<path d="M201.117 479.757H196.656V480.669H201.117V479.757Z" fill="#004C46"/>
<path d="M201.117 484.691H196.656V485.603H201.117V484.691Z" fill="#004C46"/>
<path d="M201.117 489.591H196.656V490.504H201.117V489.591Z" fill="#004C46"/>
<path d="M201.117 494.526H196.656V495.439H201.117V494.526Z" fill="#004C46"/>
<path d="M201.117 499.461H196.656V500.373H201.117V499.461Z" fill="#004C46"/>
<path d="M201.117 504.396H196.656V505.308H201.117V504.396Z" fill="#004C46"/>
<path d="M201.117 509.297H196.656V510.209H201.117V509.297Z" fill="#004C46"/>
<path d="M201.117 514.231H196.656V515.144H201.117V514.231Z" fill="#004C46"/>
<path d="M252.424 524.067H222.309L222.411 523.492C226.872 501.117 228.258 478.269 226.534 455.522H248.166C246.442 478.269 247.828 501.117 252.289 523.492L252.424 524.067Z" fill="#FFBA00"/>
</g>
<path opacity="0.5" d="M288.472 49.4836C288.472 49.4836 283.829 44.961 289.546 40.7994C295.262 36.6378 297.778 43.6919 297.778 43.6919C297.778 43.6919 299.103 30.8505 309.947 34.2856C319.877 37.4301 313.884 46.4163 313.884 46.4163C313.884 46.4163 326.413 41.7121 326.238 51.4816L334.65 52.3897H281.134L288.472 49.4836Z" fill="white"/>
<path opacity="0.5" d="M495.701 60.748C495.701 60.748 499.81 56.7606 494.753 53.0904C489.695 49.4202 487.484 55.6434 487.484 55.6434C487.484 55.6434 486.325 44.317 476.737 47.3472C467.97 50.1193 473.262 58.0364 473.262 58.0364C473.262 58.0364 462.199 53.889 462.358 62.5052L454.932 63.3024H502.184L495.701 60.748Z" fill="white"/>
<g clip-path="url(#clip2_149_16891)">
<path d="M286.875 70.8135L402.674 37.6087L402.728 37.4245C403.176 35.6523 404.081 34.0285 405.352 32.7152C406.624 31.4018 408.217 30.4448 409.974 29.9395L443.317 20.3785C444.634 20.0006 446.013 19.8861 447.375 20.0414C448.736 20.1968 450.054 20.619 451.252 21.2839C451.446 21.3803 451.633 21.4898 451.812 21.6115L455.002 23.6432L455.109 23.7186L455.448 23.9394L455.683 23.8721C456.946 23.5098 458.268 23.4002 459.573 23.5497C460.879 23.6991 462.142 24.1047 463.29 24.7432C465.148 25.7541 466.629 27.3379 467.513 29.2588C468.123 30.5702 468.442 31.9982 468.448 33.4446C468.454 34.8909 468.146 36.3214 467.547 37.6377C466.947 38.9539 466.069 40.1246 464.974 41.0694C463.879 42.0141 462.592 42.7105 461.202 43.1106L338.561 78.2773L288.044 74.8882L286.875 70.8135Z" fill="white"/>
<path d="M343.199 64.2979L345.814 63.5481C345.833 63.5427 345.85 63.5337 345.865 63.5216C345.881 63.5095 345.893 63.4944 345.903 63.4774C345.912 63.4604 345.918 63.4416 345.92 63.4223C345.922 63.403 345.92 63.3834 345.915 63.3648L345.165 60.7499C345.154 60.7124 345.129 60.6806 345.095 60.6617C345.061 60.6428 345.02 60.6382 344.983 60.649L342.368 61.3988C342.33 61.4096 342.298 61.4348 342.279 61.469C342.26 61.5031 342.255 61.5435 342.266 61.5812L343.016 64.1961C343.026 64.2339 343.052 64.2659 343.086 64.285C343.121 64.3041 343.161 64.3087 343.199 64.2979Z" fill="#032D2B"/>
<path d="M274.339 46.1683L265.778 48.623L286.881 70.8328L314.857 62.8107L274.339 46.1683Z" fill="white"/>
<path d="M326.579 66.4272C326.487 66.1109 326.274 65.8437 325.986 65.684C325.698 65.5243 325.358 65.4851 325.041 65.5749L323.469 66.0258C323.153 66.1178 322.886 66.331 322.726 66.619C322.566 66.9071 322.527 67.2465 322.617 67.5634L323.712 71.3829C323.804 71.6991 324.017 71.9661 324.305 72.1257C324.593 72.2854 324.933 72.3247 325.249 72.2352L326.822 71.7844C327.138 71.6926 327.405 71.4794 327.565 71.1913C327.725 70.9032 327.764 70.5637 327.674 70.2468L326.579 66.4272Z" fill="#032D2B"/>
<path d="M426.139 37.8782C426.048 37.5618 425.834 37.2946 425.546 37.1349C425.258 36.9752 424.919 36.936 424.602 37.0259L423.029 37.4767C422.872 37.5207 422.725 37.5955 422.596 37.6969C422.468 37.7983 422.361 37.9241 422.282 38.0672C422.202 38.2103 422.152 38.3677 422.134 38.5303C422.116 38.6929 422.131 38.8574 422.177 39.0143L423.272 42.8339C423.364 43.1502 423.577 43.4174 423.865 43.5771C424.154 43.7368 424.493 43.776 424.81 43.6862L426.382 43.2353C426.699 43.1436 426.966 42.9304 427.126 42.6423C427.285 42.3542 427.324 42.0146 427.235 41.6977L426.139 37.8782Z" fill="#032D2B"/>
<path d="M451.234 21.2897C451.428 21.386 451.616 21.4954 451.795 21.617L454.985 23.6487L445.131 26.4742L444.221 23.3005L451.234 21.2897Z" fill="#032D2B"/>
<path d="M448.06 22.198L447.14 22.4619L448.05 25.6356L448.97 25.3717L448.06 22.198Z" fill="#70C9C2"/>
<path d="M300.547 66.2154L280.427 71.9846C279.715 72.1887 279.114 72.6672 278.755 73.3148C278.396 73.9625 278.309 74.7262 278.513 75.438C278.717 76.1498 279.195 76.7513 279.843 77.1103C280.491 77.4693 281.254 77.5563 281.966 77.3522L302.066 71.5886C302.779 71.387 303.382 70.9107 303.744 70.2643C304.105 69.618 304.195 68.8546 303.993 68.1421C303.792 67.4295 303.315 66.8262 302.669 66.4649C302.023 66.1036 301.259 66.0138 300.547 66.2154Z" fill="#0C2A27"/>
<path d="M332.235 64.9304C332.121 64.5304 331.852 64.1923 331.488 63.9906C331.124 63.7888 330.695 63.7399 330.295 63.8546C329.895 63.9693 329.557 64.2382 329.355 64.6022C329.153 64.9661 329.104 65.3953 329.219 65.7953L329.594 67.104C329.709 67.504 329.978 67.842 330.342 68.0438C330.706 68.2455 331.135 68.2944 331.535 68.1797C331.935 68.065 332.273 67.7961 332.475 67.4322C332.676 67.0682 332.725 66.639 332.611 66.239L332.235 64.9304Z" fill="#31BC2E"/>
<path d="M344.617 61.3811C344.502 60.9811 344.233 60.643 343.869 60.4413C343.505 60.2395 343.076 60.1906 342.676 60.3053C342.276 60.42 341.938 60.6889 341.736 61.0529C341.534 61.4168 341.486 61.846 341.6 62.246L341.975 63.5547C342.09 63.9547 342.359 64.2927 342.723 64.4945C343.087 64.6962 343.516 64.7451 343.916 64.6304C344.316 64.5157 344.654 64.2468 344.856 63.8829C345.058 63.5189 345.107 63.0897 344.992 62.6897L344.617 61.3811Z" fill="#262229"/>
<path d="M350.808 59.6054C350.756 59.402 350.663 59.2112 350.536 59.0441C350.409 58.8771 350.25 58.7372 350.067 58.6328C349.885 58.5285 349.684 58.4617 349.476 58.4364C349.267 58.4112 349.056 58.428 348.854 58.4859C348.652 58.5437 348.464 58.6415 348.301 58.7734C348.137 58.9052 348.002 59.0685 347.903 59.2535C347.804 59.4386 347.743 59.6417 347.723 59.8507C347.704 60.0598 347.727 60.2706 347.79 60.4707L348.166 61.7793C348.289 62.1689 348.56 62.4949 348.92 62.688C349.281 62.8811 349.702 62.9261 350.095 62.8134C350.488 62.7007 350.821 62.4393 351.025 62.0846C351.228 61.7299 351.285 61.31 351.183 60.914L350.808 59.6054Z" fill="#262229"/>
<path d="M356.998 57.8304C356.883 57.4294 356.613 57.0905 356.249 56.8883C355.884 56.6861 355.454 56.6371 355.053 56.752C354.652 56.867 354.313 57.1366 354.111 57.5014C353.908 57.8662 353.859 58.2964 353.974 58.6974L354.35 60.0061C354.465 60.407 354.734 60.7459 355.099 60.9481C355.464 61.1503 355.894 61.1994 356.295 61.0844C356.696 60.9694 357.035 60.6999 357.237 60.335C357.439 59.9702 357.488 59.54 357.373 59.139L356.998 57.8304Z" fill="#262229"/>
<path d="M363.188 56.0559C363.074 55.6559 362.805 55.3178 362.441 55.1161C362.077 54.9143 361.648 54.8654 361.248 54.9801C360.848 55.0948 360.51 55.3637 360.308 55.7277C360.106 56.0916 360.057 56.5208 360.172 56.9208L360.547 58.2295C360.662 58.6295 360.931 58.9675 361.295 59.1693C361.659 59.371 362.088 59.4199 362.488 59.3052C362.888 59.1905 363.226 58.9216 363.428 58.5577C363.629 58.1937 363.678 57.7645 363.564 57.3645L363.188 56.0559Z" fill="#31BC2E"/>
<path d="M338.426 63.1563C338.311 62.7553 338.042 62.4165 337.677 62.2142C337.312 62.012 336.882 61.963 336.481 62.078C336.08 62.1929 335.741 62.4625 335.539 62.8273C335.337 63.1921 335.288 63.6224 335.403 64.0233L335.778 65.332C335.893 65.7329 336.163 66.0718 336.527 66.274C336.892 66.4763 337.322 66.5253 337.723 66.4103C338.124 66.2953 338.463 66.0258 338.665 65.661C338.868 65.2961 338.917 64.8659 338.802 64.4649L338.426 63.1563Z" fill="#31BC2E"/>
<path d="M369.38 54.2808C369.265 53.8798 368.995 53.541 368.63 53.3387C368.265 53.1365 367.835 53.0875 367.434 53.2025C367.033 53.3174 366.694 53.587 366.492 53.9518C366.29 54.3166 366.241 54.7469 366.356 55.1478L366.731 56.4565C366.846 56.8575 367.116 57.1963 367.48 57.3986C367.845 57.6008 368.276 57.6498 368.676 57.5348C369.077 57.4198 369.416 57.1503 369.619 56.7855C369.821 56.4206 369.87 55.9904 369.755 55.5895L369.38 54.2808Z" fill="#31BC2E"/>
<path d="M375.57 52.5051C375.455 52.1051 375.186 51.767 374.822 51.5653C374.458 51.3635 374.029 51.3146 373.629 51.4293C373.229 51.544 372.891 51.8129 372.689 52.1769C372.487 52.5408 372.438 52.97 372.553 53.37L372.928 54.6787C373.043 55.0787 373.312 55.4168 373.676 55.6185C374.04 55.8202 374.469 55.8691 374.869 55.7544C375.269 55.6397 375.607 55.3708 375.809 55.0069C376.011 54.6429 376.059 54.2137 375.945 53.8137L375.57 52.5051Z" fill="#31BC2E"/>
<path d="M381.761 50.73C381.646 50.3291 381.377 49.9902 381.012 49.788C380.647 49.5857 380.217 49.5367 379.816 49.6517C379.415 49.7667 379.076 50.0362 378.874 50.401C378.672 50.7659 378.622 51.1961 378.737 51.5971L379.113 52.9057C379.228 53.3067 379.497 53.6455 379.862 53.8478C380.227 54.05 380.657 54.099 381.058 53.984C381.459 53.8691 381.798 53.5995 382 53.2347C382.202 52.8699 382.251 52.4396 382.136 52.0387L381.761 50.73Z" fill="#31BC2E"/>
<path d="M394.142 47.179C394.027 46.778 393.758 46.4392 393.393 46.2369C393.028 46.0347 392.598 45.9857 392.197 46.1007C391.796 46.2156 391.457 46.4852 391.255 46.85C391.053 47.2148 391.004 47.6451 391.119 48.046L391.494 49.3547C391.609 49.7557 391.878 50.0945 392.243 50.2967C392.608 50.499 393.038 50.548 393.439 50.433C393.84 50.318 394.179 50.0485 394.381 49.6837C394.584 49.3188 394.633 48.8886 394.518 48.4877L394.142 47.179Z" fill="#31BC2E"/>
<path d="M400.329 45.4062C400.214 45.0062 399.945 44.6681 399.581 44.4664C399.217 44.2647 398.788 44.2158 398.388 44.3305C397.988 44.4452 397.65 44.7141 397.448 45.078C397.247 45.442 397.198 45.8712 397.312 46.2712L397.688 47.5798C397.802 47.9798 398.071 48.3179 398.435 48.5196C398.799 48.7214 399.228 48.7703 399.628 48.6556C400.028 48.5409 400.366 48.272 400.568 47.908C400.77 47.5441 400.819 47.1149 400.704 46.7149L400.329 45.4062Z" fill="#31BC2E"/>
<path d="M406.524 43.6297C406.409 43.2287 406.139 42.8898 405.774 42.6876C405.41 42.4854 404.979 42.4364 404.578 42.5513C404.177 42.6663 403.839 42.9359 403.636 43.3007C403.434 43.6655 403.385 44.0957 403.5 44.4967L403.875 45.8054C403.99 46.2063 404.26 46.5452 404.625 46.7474C404.989 46.9497 405.42 46.9987 405.821 46.8837C406.222 46.7687 406.561 46.4992 406.763 46.1343C406.965 45.7695 407.014 45.3393 406.899 44.9383L406.524 43.6297Z" fill="#31BC2E"/>
<path d="M412.714 41.8552C412.599 41.4552 412.331 41.1171 411.967 40.9154C411.603 40.7136 411.173 40.6647 410.773 40.7794C410.373 40.8941 410.035 41.163 409.834 41.527C409.632 41.8909 409.583 42.3201 409.698 42.7201L410.073 44.0288C410.188 44.4288 410.457 44.7669 410.821 44.9686C411.185 45.1703 411.614 45.2192 412.014 45.1045C412.414 44.9898 412.752 44.7209 412.953 44.357C413.155 43.993 413.204 43.5638 413.089 43.1638L412.714 41.8552Z" fill="#31BC2E"/>
<path d="M418.905 40.079C418.853 39.8756 418.761 39.6848 418.634 39.5177C418.506 39.3507 418.347 39.2109 418.165 39.1065C417.983 39.0021 417.781 38.9353 417.573 38.9101C417.365 38.8848 417.153 38.9016 416.951 38.9595C416.75 39.0174 416.561 39.1151 416.398 39.247C416.235 39.3788 416.099 39.5421 416 39.7272C415.901 39.9122 415.84 40.1153 415.821 40.3243C415.801 40.5334 415.824 40.7442 415.888 40.9443L416.263 42.253C416.387 42.6425 416.657 42.9685 417.018 43.1616C417.378 43.3547 417.799 43.3997 418.192 43.287C418.585 43.1744 418.919 42.9129 419.122 42.5582C419.325 42.2036 419.382 41.7836 419.28 41.3877L418.905 40.079Z" fill="#31BC2E"/>
<path d="M431.292 36.5271C431.177 36.1262 430.907 35.7873 430.542 35.5851C430.177 35.3828 429.747 35.3338 429.346 35.4488C428.945 35.5638 428.606 35.8333 428.404 36.1982C428.202 36.563 428.153 36.9932 428.268 37.3942L428.643 38.7028C428.758 39.1038 429.028 39.4427 429.392 39.6449C429.757 39.8471 430.188 39.8961 430.588 39.7812C430.989 39.6662 431.328 39.3966 431.531 39.0318C431.733 38.667 431.782 38.2368 431.667 37.8358L431.292 36.5271Z" fill="#31BC2E"/>
<path d="M437.477 34.7534C437.362 34.3534 437.093 34.0153 436.729 33.8136C436.365 33.6118 435.936 33.5629 435.536 33.6776C435.136 33.7923 434.798 34.0612 434.596 34.4252C434.395 34.7891 434.346 35.2183 434.46 35.6183L434.836 36.927C434.95 37.327 435.219 37.665 435.583 37.8668C435.947 38.0685 436.376 38.1174 436.776 38.0027C437.176 37.888 437.514 37.6191 437.716 37.2552C437.918 36.8912 437.967 36.462 437.852 36.062L437.477 34.7534Z" fill="#31BC2E"/>
<path d="M443.668 32.9787C443.616 32.7753 443.524 32.5844 443.396 32.4174C443.269 32.2504 443.11 32.1105 442.928 32.0061C442.746 31.9018 442.544 31.835 442.336 31.8097C442.127 31.7845 441.916 31.8013 441.714 31.8592C441.512 31.917 441.324 32.0148 441.161 32.1466C440.998 32.2785 440.862 32.4418 440.763 32.6268C440.664 32.8119 440.603 33.0149 440.583 33.224C440.564 33.4331 440.587 33.6439 440.651 33.844L441.026 35.1526C441.15 35.5422 441.42 35.8682 441.781 36.0613C442.141 36.2544 442.562 36.2994 442.955 36.1867C443.348 36.074 443.682 35.8126 443.885 35.4579C444.088 35.1032 444.145 34.6833 444.043 34.2873L443.668 32.9787Z" fill="#31BC2E"/>
<path d="M449.858 31.2036C449.744 30.8036 449.475 30.4655 449.111 30.2638C448.747 30.062 448.318 30.0131 447.918 30.1278C447.518 30.2425 447.179 30.5114 446.978 30.8754C446.776 31.2393 446.727 31.6685 446.842 32.0685L447.217 33.3772C447.332 33.7772 447.601 34.1152 447.965 34.317C448.329 34.5187 448.758 34.5676 449.158 34.4529C449.558 34.3382 449.896 34.0693 450.098 33.7054C450.299 33.3414 450.348 32.9122 450.233 32.5122L449.858 31.2036Z" fill="#31BC2E"/>
<path d="M456.05 29.4285C455.935 29.0275 455.665 28.6887 455.3 28.4864C454.935 28.2842 454.505 28.2352 454.104 28.3502C453.703 28.4652 453.364 28.7347 453.162 29.0995C452.96 29.4644 452.911 29.8946 453.026 30.2955L453.401 31.6042C453.516 32.0052 453.786 32.344 454.151 32.5463C454.515 32.7485 454.946 32.7975 455.347 32.6825C455.748 32.5676 456.086 32.298 456.289 31.9332C456.491 31.5684 456.54 31.1381 456.425 30.7372L456.05 29.4285Z" fill="#31BC2E"/>
<path d="M383.326 60.479L347.157 65.9524L322.043 62.9558L340.165 57.7595L397.52 51.193L383.326 60.479Z" fill="#0C2A27"/>
<path d="M370.773 56.2556L373.29 65.0315L359.301 69.0428L354.2 67.9621L353.032 63.8874L356.784 60.2668L370.773 56.2556Z" fill="#004C47"/>
<path d="M370.773 56.2541L367.227 57.271L369.744 66.0482L373.29 65.0313L370.773 56.2541Z" fill="#032D2B"/>
<path d="M397.52 51.194L400.031 59.9519L386.042 63.9631L380.941 62.8812L379.773 58.8065L383.531 55.2053L397.52 51.194Z" fill="#004C47"/>
<path d="M397.52 51.1929L393.974 52.2097L396.49 60.9869L400.037 59.9701L397.52 51.1929Z" fill="#032D2B"/>
</g>
</g>
<defs>
<clipPath id="clip0_149_16891">
<rect width="370" height="144" fill="white" transform="translate(398 376)"/>
</clipPath>
<clipPath id="clip1_149_16891">
<rect width="270" height="129" fill="white" transform="translate(0 391)"/>
</clipPath>
<clipPath id="clip2_149_16891">
<rect width="199.38" height="56.9835" fill="white" transform="translate(265.778 48.623) rotate(-16)"/>
</clipPath>
</defs>
</svg>
