<svg width="375" height="424" viewBox="0 0 375 424" fill="none" xmlns="http://www.w3.org/2000/svg">
<g clip-path="url(#clip0_481_41840)">
<rect width="375" height="424" fill="#ADE4AB"/>
<g opacity="0.4">
<g clip-path="url(#clip1_481_41840)">
<path d="M63.0145 355.917H48.8174V363.143H63.0145V355.917Z" fill="#31B92E"/>
<path d="M63.015 355.917H55.9165V363.143H62.9832V355.917H63.015Z" fill="#31B92E"/>
<path d="M328.27 428.05H221.856L229.368 409.651C232.424 402.138 241.146 397.077 250.95 397.077H295.038C304.396 397.077 312.895 401.438 316.811 408.282L328.27 428.05Z" fill="#BD6B06"/>
<path d="M323.432 428.049H226.186L231.693 413.852C234.621 406.34 242.897 401.279 252.256 401.279H294.179C303.091 401.279 311.145 405.64 314.901 412.483L323.432 428.049Z" fill="#8E5005"/>
<path d="M318.753 428.049H229.655L232.997 419.073C235.799 411.56 243.82 406.499 252.829 406.499H293.255C301.818 406.499 309.617 410.86 313.246 417.704L318.753 428.049Z" fill="#BD6B06"/>
<path d="M313.309 428.049H233.316L234.78 423.943C237.454 416.43 244.966 411.369 253.497 411.369H291.696C299.781 411.369 307.166 415.73 310.572 422.574L313.309 428.049Z" fill="#8E5005"/>
<path d="M189.069 314.409C190.852 314.409 192.316 312.945 192.316 311.163C192.316 309.38 190.852 307.916 189.069 307.916C187.287 307.916 185.822 309.38 185.822 311.163C185.822 312.945 187.255 314.409 189.069 314.409Z" fill="#00FFDE"/>
<path d="M185.823 307.947C186.905 307.947 187.796 307.056 187.796 305.974C187.796 304.891 186.905 304 185.823 304C184.74 304 183.849 304.891 183.849 305.974C183.849 307.056 184.74 307.947 185.823 307.947Z" fill="#00FFDE"/>
<path d="M161.726 346.018V377.532H132.759V426.489H214.248V377.532V346.018H161.726Z" fill="#008E62"/>
<path d="M187.987 346.018V377.532H173.503V426.489H214.248V377.532V346.018H187.987Z" fill="#FFBA00"/>
<path d="M198.396 357.478H192.316V366.104H198.396V357.478Z" fill="#022D2B"/>
<path d="M209.951 357.478H203.871V366.104H209.951V357.478Z" fill="#022D2B"/>
<path d="M167.806 386.827H138.648V395.453H167.806V386.827Z" fill="#304860"/>
<path d="M167.806 401.979H138.648V410.605H167.806V401.979Z" fill="#304860"/>
<path d="M217.622 339.397H158.383V345.986H217.622V339.397Z" fill="#022D2B"/>
<path d="M183.117 400.196H185.727C190.852 400.196 195.022 406.117 195.022 413.311V426.457" stroke="#022D2B" stroke-width="9.83775" stroke-miterlimit="10"/>
<path d="M199.542 400.196H202.152C207.277 400.196 211.447 406.117 211.447 413.311V426.457" stroke="#022D2B" stroke-width="9.83775" stroke-miterlimit="10"/>
<path d="M196.263 339.397H180.666L183.753 311.162H193.207L196.263 339.397Z" fill="#022220"/>
<path d="M66.93 362.762H45.73V426.33H66.8982V362.762H66.93Z" stroke="#022D2B" stroke-width="1.1151" stroke-miterlimit="10" stroke-linecap="round" stroke-linejoin="round"/>
<path d="M66.93 362.762L56.33 373.362L45.73 362.762" stroke="#022D2B" stroke-width="1.06166" stroke-miterlimit="10" stroke-linecap="round" stroke-linejoin="round"/>
<path d="M66.93 383.93L56.33 373.33L45.73 383.93L56.33 394.53L66.93 383.93Z" stroke="#022D2B" stroke-width="1.06166" stroke-miterlimit="10" stroke-linecap="round" stroke-linejoin="round"/>
<path d="M66.93 405.13L56.33 394.53L45.73 405.13L56.33 415.73L66.93 405.13Z" stroke="#022D2B" stroke-width="1.06166" stroke-miterlimit="10" stroke-linecap="round" stroke-linejoin="round"/>
<path d="M45.8577 426.298L56.4577 415.698L67.0577 426.298" stroke="#022D2B" stroke-width="1.06166" stroke-miterlimit="10" stroke-linecap="round" stroke-linejoin="round"/>
<path d="M45.73 383.771H66.8982" stroke="#022D2B" stroke-width="1.06166" stroke-miterlimit="10" stroke-linecap="round" stroke-linejoin="round"/>
<path d="M45.73 404.971H66.8982" stroke="#022D2B" stroke-width="1.06166" stroke-miterlimit="10" stroke-linecap="round" stroke-linejoin="round"/>
<path d="M174.426 363.176V426.712H115.155V376.577L174.426 363.176Z" fill="#31B92E"/>
<path d="M115.188 376.577H55.9165V426.712H115.188V376.577Z" fill="#008E62"/>
<path d="M73.2965 398.923H65.3385C65.1157 398.923 64.8929 398.732 64.8929 398.477V390.519C64.8929 390.297 65.0839 390.074 65.3385 390.074H73.2965C73.5193 390.074 73.7422 390.265 73.7422 390.519V398.477C73.7422 398.732 73.5193 398.923 73.2965 398.923Z" fill="#022D2B"/>
<path d="M90.008 398.923H82.05C81.8272 398.923 81.6044 398.732 81.6044 398.477V390.519C81.6044 390.297 81.7954 390.074 82.05 390.074H90.008C90.2308 390.074 90.4537 390.265 90.4537 390.519V398.477C90.4537 398.732 90.2627 398.923 90.008 398.923Z" fill="#022D2B"/>
<path d="M106.72 398.923H98.7619C98.5391 398.923 98.3163 398.732 98.3163 398.477V390.519C98.3163 390.297 98.5073 390.074 98.7619 390.074H106.72C106.943 390.074 107.166 390.265 107.166 390.519V398.477C107.166 398.732 107.006 398.923 106.72 398.923Z" fill="#022D2B"/>
<path d="M73.2965 412.356H65.3385C65.1157 412.356 64.8929 412.165 64.8929 411.91V403.952C64.8929 403.729 65.0839 403.506 65.3385 403.506H73.2965C73.5193 403.506 73.7422 403.697 73.7422 403.952V411.91C73.7422 412.133 73.5193 412.356 73.2965 412.356Z" fill="#022D2B"/>
<path d="M90.008 412.356H82.05C81.8272 412.356 81.6044 412.165 81.6044 411.91V403.952C81.6044 403.729 81.7954 403.506 82.05 403.506H90.008C90.2308 403.506 90.4537 403.697 90.4537 403.952V411.91C90.4537 412.133 90.2627 412.356 90.008 412.356Z" fill="#022D2B"/>
<path d="M106.72 412.356H98.7619C98.5391 412.356 98.3163 412.165 98.3163 411.91V403.952C98.3163 403.729 98.5073 403.506 98.7619 403.506H106.72C106.943 403.506 107.166 403.697 107.166 403.952V411.91C107.166 412.133 107.006 412.356 106.72 412.356Z" fill="#022D2B"/>
<path d="M162.585 426.712H127.697V394.625C127.697 394.02 128.175 393.543 128.78 393.543H161.503C162.108 393.543 162.585 394.02 162.585 394.625V426.712Z" fill="#022220"/>
<path d="M174.427 363.176L115.156 376.577H55.9165L114.933 363.176H174.427Z" fill="#FFBA00"/>
<path d="M146.35 393.543H145.109V426.712H146.35V393.543Z" fill="#022D2B"/>
<path d="M287.717 427.031H251.014L251.142 426.33C256.585 399.05 258.272 371.197 256.171 343.44H282.56C280.427 371.166 282.114 399.05 287.589 426.33L287.717 427.031Z" fill="#00FFE0"/>
<path d="M261.741 343.44H260.818V426.999H261.741V343.44Z" fill="#004C46"/>
<path d="M263.396 345.827H259.195V346.687H263.396V345.827Z" fill="#004C46"/>
<path d="M263.396 350.443H259.195V351.303H263.396V350.443Z" fill="#004C46"/>
<path d="M263.396 355.122H259.195V355.982H263.396V355.122Z" fill="#004C46"/>
<path d="M263.396 359.737H259.195V360.597H263.396V359.737Z" fill="#004C46"/>
<path d="M263.396 364.385H259.195V365.244H263.396V364.385Z" fill="#004C46"/>
<path d="M263.396 369.033H259.195V369.892H263.396V369.033Z" fill="#004C46"/>
<path d="M263.396 373.68H259.195V374.539H263.396V373.68Z" fill="#004C46"/>
<path d="M263.396 378.296H259.195V379.155H263.396V378.296Z" fill="#004C46"/>
<path d="M263.396 382.943H259.195V383.802H263.396V382.943Z" fill="#004C46"/>
<path d="M263.396 387.591H259.195V388.45H263.396V387.591Z" fill="#004C46"/>
<path d="M263.396 392.238H259.195V393.098H263.396V392.238Z" fill="#004C46"/>
<path d="M263.396 396.854H259.195V397.713H263.396V396.854Z" fill="#004C46"/>
<path d="M263.396 401.501H259.195V402.36H263.396V401.501Z" fill="#004C46"/>
<path d="M263.396 406.148H259.195V407.008H263.396V406.148Z" fill="#004C46"/>
<path d="M263.396 410.796H259.195V411.656H263.396V410.796Z" fill="#004C46"/>
<path d="M263.396 415.412H259.195V416.271H263.396V415.412Z" fill="#004C46"/>
<path d="M263.396 420.059H259.195V420.919H263.396V420.059Z" fill="#004C46"/>
<path d="M311.717 429.323H283.355L283.451 428.782C287.653 407.709 288.958 386.19 287.334 364.768H307.707C306.083 386.19 307.388 407.709 311.59 428.782L311.717 429.323Z" fill="#FFBA00"/>
</g>
<path opacity="0.5" d="M112.803 40.2538C112.803 40.2538 109.246 36.7884 113.626 33.5996C118.006 30.4109 119.933 35.816 119.933 35.816C119.933 35.816 120.949 25.9765 129.258 28.6086C136.867 31.018 132.275 37.9035 132.275 37.9035C132.275 37.9035 141.875 34.299 141.741 41.7847L148.186 42.4806H107.181L112.803 40.2538Z" fill="white"/>
<path opacity="0.5" d="M271.589 48.8848C271.589 48.8848 274.738 45.8295 270.862 43.0173C266.987 40.205 265.293 44.9735 265.293 44.9735C265.293 44.9735 264.405 36.2949 257.059 38.6167C250.341 40.7408 254.395 46.8071 254.395 46.8071C254.395 46.8071 245.919 43.6292 246.041 50.2313L240.351 50.8421H276.556L271.589 48.8848Z" fill="white"/>
<g clip-path="url(#clip2_481_41840)">
<path d="M111.58 56.5973L200.309 31.1547L200.35 31.0136C200.693 29.6556 201.387 28.4115 202.361 27.4051C203.335 26.3988 204.556 25.6654 205.902 25.2783L231.451 17.9524C232.46 17.6628 233.517 17.575 234.56 17.6941C235.603 17.8131 236.613 18.1366 237.531 18.646C237.679 18.7199 237.823 18.8038 237.96 18.8971L240.404 20.4539L240.486 20.5117L240.746 20.6808L240.926 20.6292C241.894 20.3516 242.907 20.2677 243.907 20.3822C244.907 20.4967 245.875 20.8075 246.755 21.2967C248.178 22.0713 249.313 23.2849 249.991 24.7567C250.458 25.7615 250.702 26.8557 250.707 27.964C250.711 29.0723 250.476 30.1683 250.016 31.1769C249.557 32.1854 248.884 33.0825 248.045 33.8064C247.206 34.5303 246.22 35.0639 245.155 35.3704L151.183 62.3164L112.475 59.7195L111.58 56.5973Z" fill="white"/>
<path d="M154.737 51.6048L156.741 51.0303C156.755 51.0262 156.768 51.0193 156.78 51.01C156.792 51.0007 156.801 50.9892 156.809 50.9761C156.816 50.9631 156.82 50.9487 156.822 50.9339C156.823 50.9191 156.822 50.9041 156.818 50.8899L156.243 48.8862C156.235 48.8575 156.216 48.8332 156.19 48.8187C156.163 48.8042 156.133 48.8007 156.104 48.8089L154.1 49.3834C154.071 49.3917 154.047 49.411 154.032 49.4372C154.018 49.4634 154.014 49.4943 154.022 49.5232L154.596 51.5268C154.605 51.5558 154.624 51.5804 154.651 51.595C154.677 51.6096 154.708 51.6132 154.737 51.6048Z" fill="#032D2B"/>
<path d="M101.974 37.7133L95.4141 39.5942L111.584 56.6121L133.021 50.4653L101.974 37.7133Z" fill="white"/>
<path d="M142.002 53.2365C141.932 52.9941 141.768 52.7893 141.548 52.667C141.327 52.5446 141.067 52.5146 140.824 52.5834L139.619 52.9289C139.377 52.9994 139.172 53.1628 139.05 53.3835C138.928 53.6041 138.897 53.8642 138.966 54.107L139.805 57.0337C139.876 57.2759 140.039 57.4805 140.26 57.6028C140.48 57.7252 140.741 57.7553 140.983 57.6868L142.188 57.3413C142.431 57.271 142.635 57.1076 142.758 56.8869C142.88 56.6661 142.91 56.4059 142.841 56.1631L142.002 53.2365Z" fill="#032D2B"/>
<path d="M218.289 31.3612C218.218 31.1188 218.055 30.9141 217.834 30.7917C217.613 30.6694 217.353 30.6393 217.11 30.7082L215.906 31.0536C215.785 31.0873 215.672 31.1447 215.574 31.2223C215.475 31.3 215.393 31.3965 215.333 31.5061C215.272 31.6157 215.234 31.7363 215.22 31.8609C215.206 31.9855 215.217 32.1116 215.253 32.2318L216.092 35.1585C216.162 35.4009 216.325 35.6056 216.546 35.728C216.767 35.8503 217.027 35.8804 217.27 35.8115L218.475 35.4661C218.717 35.3958 218.922 35.2324 219.044 35.0117C219.167 34.7909 219.197 34.5307 219.128 34.2879L218.289 31.3612Z" fill="#032D2B"/>
<path d="M237.517 18.6506C237.666 18.7244 237.809 18.8082 237.947 18.9015L240.391 20.4582L232.841 22.6232L232.144 20.1914L237.517 18.6506Z" fill="#032D2B"/>
<path d="M235.085 19.3466L234.38 19.5488L235.077 21.9806L235.782 21.7784L235.085 19.3466Z" fill="#70C9C2"/>
<path d="M122.055 53.074L106.639 57.4946C106.093 57.6509 105.633 58.0176 105.357 58.5138C105.082 59.0101 105.016 59.5953 105.172 60.1407C105.329 60.6861 105.695 61.147 106.191 61.4221C106.688 61.6972 107.273 61.7638 107.818 61.6074L123.22 57.1911C123.766 57.0367 124.228 56.6717 124.505 56.1765C124.782 55.6812 124.851 55.0963 124.696 54.5503C124.542 54.0043 124.177 53.5421 123.681 53.2652C123.186 52.9883 122.601 52.9196 122.055 53.074Z" fill="#0C2A27"/>
<path d="M146.336 52.0896C146.248 51.7831 146.042 51.524 145.763 51.3695C145.484 51.2149 145.156 51.1774 144.849 51.2653C144.543 51.3532 144.284 51.5592 144.129 51.8381C143.974 52.117 143.937 52.4458 144.025 52.7523L144.312 53.7551C144.4 54.0616 144.606 54.3206 144.885 54.4752C145.164 54.6298 145.493 54.6672 145.799 54.5793C146.106 54.4915 146.365 54.2854 146.52 54.0065C146.674 53.7277 146.712 53.3988 146.624 53.0923L146.336 52.0896Z" fill="#31BC2E"/>
<path d="M155.823 49.3698C155.735 49.0634 155.529 48.8043 155.25 48.6497C154.971 48.4952 154.643 48.4577 154.336 48.5456C154.03 48.6335 153.771 48.8395 153.616 49.1184C153.461 49.3972 153.424 49.7261 153.512 50.0326L153.799 51.0353C153.887 51.3418 154.093 51.6009 154.372 51.7554C154.651 51.91 154.98 51.9475 155.286 51.8596C155.593 51.7717 155.852 51.5657 156.007 51.2868C156.161 51.0079 156.199 50.6791 156.111 50.3726L155.823 49.3698Z" fill="#262229"/>
<path d="M160.567 48.0093C160.527 47.8535 160.456 47.7072 160.359 47.5792C160.261 47.4512 160.139 47.3441 160 47.2641C159.86 47.1841 159.706 47.133 159.546 47.1136C159.387 47.0943 159.225 47.1072 159.07 47.1515C158.915 47.1959 158.771 47.2708 158.646 47.3718C158.521 47.4728 158.417 47.5979 158.341 47.7397C158.265 47.8815 158.218 48.0371 158.204 48.1973C158.189 48.3575 158.206 48.519 158.255 48.6723L158.542 49.6751C158.637 49.9736 158.845 50.2233 159.121 50.3713C159.397 50.5193 159.72 50.5537 160.021 50.4674C160.322 50.3811 160.577 50.1807 160.733 49.909C160.889 49.6372 160.932 49.3154 160.855 49.012L160.567 48.0093Z" fill="#262229"/>
<path d="M165.31 46.6494C165.222 46.3421 165.016 46.0825 164.736 45.9275C164.456 45.7726 164.127 45.735 163.82 45.8231C163.512 45.9112 163.253 46.1177 163.098 46.3973C162.943 46.6768 162.905 47.0065 162.993 47.3137L163.281 48.3164C163.369 48.6237 163.575 48.8833 163.855 49.0383C164.135 49.1932 164.464 49.2308 164.771 49.1427C165.079 49.0546 165.338 48.8481 165.493 48.5685C165.648 48.289 165.686 47.9593 165.598 47.6521L165.31 46.6494Z" fill="#262229"/>
<path d="M170.054 45.2895C169.966 44.983 169.76 44.724 169.481 44.5694C169.202 44.4148 168.873 44.3774 168.566 44.4653C168.26 44.5531 168.001 44.7592 167.846 45.0381C167.692 45.3169 167.654 45.6458 167.742 45.9523L168.03 46.955C168.118 47.2615 168.324 47.5205 168.603 47.6751C168.881 47.8297 169.21 47.8672 169.517 47.7793C169.823 47.6914 170.082 47.4854 170.237 47.2065C170.391 46.9276 170.429 46.5988 170.341 46.2923L170.054 45.2895Z" fill="#31BC2E"/>
<path d="M151.08 50.7302C150.992 50.4229 150.785 50.1633 150.506 50.0083C150.226 49.8534 149.897 49.8158 149.589 49.9039C149.282 49.992 149.023 50.1985 148.868 50.4781C148.713 50.7576 148.675 51.0873 148.763 51.3945L149.051 52.3973C149.139 52.7045 149.345 52.9641 149.625 53.1191C149.904 53.274 150.234 53.3116 150.541 53.2235C150.849 53.1354 151.108 52.9289 151.263 52.6493C151.418 52.3698 151.456 52.0401 151.368 51.7329L151.08 50.7302Z" fill="#31BC2E"/>
<path d="M174.797 43.9294C174.709 43.6221 174.503 43.3625 174.223 43.2075C173.944 43.0526 173.614 43.015 173.307 43.1031C173 43.1912 172.74 43.3978 172.585 43.6773C172.43 43.9568 172.392 44.2865 172.48 44.5937L172.768 45.5965C172.856 45.9037 173.063 46.1634 173.342 46.3183C173.622 46.4733 173.951 46.5108 174.259 46.4227C174.566 46.3346 174.826 46.1281 174.98 45.8485C175.135 45.569 175.173 45.2394 175.085 44.9321L174.797 43.9294Z" fill="#31BC2E"/>
<path d="M179.54 42.5688C179.452 42.2623 179.246 42.0033 178.968 41.8487C178.689 41.6941 178.36 41.6567 178.053 41.7445C177.747 41.8324 177.488 42.0385 177.333 42.3174C177.179 42.5962 177.141 42.9251 177.229 43.2316L177.517 44.2343C177.604 44.5408 177.81 44.7998 178.089 44.9544C178.368 45.109 178.697 45.1465 179.004 45.0586C179.31 44.9707 179.569 44.7647 179.724 44.4858C179.878 44.2069 179.916 43.8781 179.828 43.5716L179.54 42.5688Z" fill="#31BC2E"/>
<path d="M184.285 41.2087C184.196 40.9014 183.99 40.6418 183.71 40.4868C183.431 40.3319 183.101 40.2943 182.794 40.3824C182.487 40.4705 182.227 40.6771 182.072 40.9566C181.917 41.2361 181.88 41.5658 181.968 41.873L182.255 42.8758C182.343 43.183 182.55 43.4427 182.829 43.5976C183.109 43.7526 183.439 43.7901 183.746 43.702C184.053 43.6139 184.313 43.4074 184.468 43.1278C184.623 42.8483 184.66 42.5187 184.572 42.2114L184.285 41.2087Z" fill="#31BC2E"/>
<path d="M193.771 38.4877C193.683 38.1805 193.477 37.9208 193.197 37.7659C192.918 37.6109 192.588 37.5734 192.281 37.6615C191.974 37.7496 191.714 37.9561 191.559 38.2357C191.404 38.5152 191.366 38.8448 191.454 39.1521L191.742 40.1548C191.83 40.4621 192.037 40.7217 192.316 40.8767C192.596 41.0316 192.925 41.0692 193.233 40.9811C193.54 40.893 193.8 40.6864 193.954 40.4069C194.109 40.1274 194.147 39.7977 194.059 39.4905L193.771 38.4877Z" fill="#31BC2E"/>
<path d="M198.512 37.1294C198.424 36.8229 198.218 36.5638 197.939 36.4093C197.66 36.2547 197.331 36.2172 197.025 36.3051C196.718 36.393 196.459 36.599 196.305 36.8779C196.15 37.1568 196.113 37.4856 196.2 37.7921L196.488 38.7949C196.576 39.1014 196.782 39.3604 197.061 39.515C197.34 39.6696 197.668 39.707 197.975 39.6191C198.281 39.5312 198.54 39.3252 198.695 39.0463C198.85 38.7675 198.887 38.4386 198.799 38.1321L198.512 37.1294Z" fill="#31BC2E"/>
<path d="M203.259 35.7683C203.17 35.461 202.964 35.2014 202.684 35.0464C202.405 34.8915 202.075 34.8539 201.768 34.942C201.461 35.0301 201.201 35.2366 201.046 35.5162C200.891 35.7957 200.854 36.1254 200.942 36.4326L201.229 37.4353C201.317 37.7426 201.524 38.0022 201.803 38.1572C202.083 38.3121 202.413 38.3497 202.72 38.2616C203.027 38.1735 203.287 37.967 203.442 37.6874C203.597 37.4079 203.634 37.0782 203.546 36.771L203.259 35.7683Z" fill="#31BC2E"/>
<path d="M208.002 34.4084C207.914 34.1019 207.708 33.8429 207.429 33.6883C207.15 33.5337 206.821 33.4963 206.515 33.5841C206.208 33.672 205.949 33.8781 205.795 34.1569C205.64 34.4358 205.602 34.7647 205.69 35.0712L205.978 36.0739C206.066 36.3804 206.272 36.6394 206.551 36.794C206.83 36.9486 207.158 36.9861 207.465 36.8982C207.771 36.8103 208.03 36.6043 208.185 36.3254C208.34 36.0465 208.377 35.7177 208.289 35.4112L208.002 34.4084Z" fill="#31BC2E"/>
<path d="M212.746 33.0476C212.706 32.8918 212.635 32.7456 212.537 32.6176C212.44 32.4896 212.318 32.3824 212.178 32.3024C212.039 32.2225 211.884 32.1713 211.725 32.152C211.565 32.1326 211.403 32.1455 211.248 32.1898C211.094 32.2342 210.95 32.3091 210.824 32.4101C210.699 32.5112 210.596 32.6363 210.52 32.7781C210.444 32.9198 210.397 33.0754 210.382 33.2356C210.367 33.3958 210.385 33.5573 210.433 33.7107L210.721 34.7134C210.816 35.0119 211.023 35.2617 211.299 35.4096C211.575 35.5576 211.898 35.5921 212.199 35.5057C212.5 35.4194 212.756 35.2191 212.912 34.9473C213.067 34.6755 213.111 34.3538 213.033 34.0504L212.746 33.0476Z" fill="#31BC2E"/>
<path d="M222.236 30.3261C222.148 30.0189 221.942 29.7592 221.662 29.6043C221.383 29.4493 221.053 29.4118 220.746 29.4999C220.438 29.588 220.179 29.7945 220.024 30.074C219.869 30.3536 219.831 30.6832 219.919 30.9905L220.207 31.9932C220.295 32.3004 220.502 32.5601 220.781 32.715C221.061 32.87 221.39 32.9076 221.698 32.8195C222.005 32.7314 222.264 32.5248 222.419 32.2453C222.574 31.9657 222.612 31.6361 222.524 31.3288L222.236 30.3261Z" fill="#31BC2E"/>
<path d="M226.976 28.9668C226.888 28.6603 226.682 28.4012 226.403 28.2467C226.124 28.0921 225.795 28.0546 225.489 28.1425C225.182 28.2304 224.923 28.4364 224.769 28.7153C224.614 28.9942 224.576 29.323 224.664 29.6295L224.952 30.6323C225.04 30.9388 225.246 31.1978 225.525 31.3524C225.804 31.507 226.132 31.5444 226.439 31.4565C226.745 31.3686 227.004 31.1626 227.159 30.8837C227.314 30.6049 227.351 30.276 227.263 29.9695L226.976 28.9668Z" fill="#31BC2E"/>
<path d="M231.72 27.607C231.68 27.4511 231.609 27.3049 231.512 27.1769C231.414 27.0489 231.292 26.9418 231.152 26.8618C231.013 26.7818 230.859 26.7306 230.699 26.7113C230.539 26.6919 230.377 26.7048 230.223 26.7492C230.068 26.7935 229.924 26.8684 229.799 26.9694C229.673 27.0705 229.57 27.1956 229.494 27.3374C229.418 27.4792 229.371 27.6348 229.356 27.7949C229.341 27.9551 229.359 28.1167 229.408 28.27L229.695 29.2727C229.79 29.5712 229.997 29.821 230.273 29.969C230.549 30.1169 230.872 30.1514 231.173 30.0651C231.475 29.9787 231.73 29.7784 231.886 29.5066C232.041 29.2349 232.085 28.9131 232.007 28.6097L231.72 27.607Z" fill="#31BC2E"/>
<path d="M236.463 26.2468C236.375 25.9403 236.169 25.6813 235.89 25.5267C235.611 25.3721 235.282 25.3346 234.976 25.4225C234.669 25.5104 234.41 25.7165 234.256 25.9953C234.101 26.2742 234.063 26.6031 234.151 26.9096L234.439 27.9123C234.527 28.2188 234.733 28.4778 235.012 28.6324C235.291 28.787 235.619 28.8244 235.926 28.7366C236.232 28.6487 236.491 28.4426 236.646 28.1638C236.801 27.8849 236.838 27.556 236.75 27.2495L236.463 26.2468Z" fill="#31BC2E"/>
<path d="M241.207 24.8867C241.119 24.5794 240.912 24.3198 240.633 24.1648C240.353 24.0099 240.023 23.9723 239.716 24.0604C239.409 24.1485 239.149 24.355 238.994 24.6346C238.839 24.9141 238.802 25.2438 238.89 25.551L239.177 26.5537C239.266 26.861 239.472 27.1206 239.752 27.2756C240.031 27.4305 240.361 27.4681 240.668 27.38C240.975 27.2919 241.235 27.0854 241.39 26.8058C241.545 26.5263 241.582 26.1966 241.494 25.8894L241.207 24.8867Z" fill="#31BC2E"/>
<path d="M185.484 48.6786L157.769 52.8725L138.527 50.5764L152.412 46.5948L196.359 41.5633L185.484 48.6786Z" fill="#0C2A27"/>
<path d="M175.865 45.4426L177.793 52.1671L167.075 55.2406L163.166 54.4126L162.271 51.2904L165.146 48.5162L175.865 45.4426Z" fill="#004C47"/>
<path d="M175.865 45.4416L173.148 46.2207L175.076 52.9461L177.794 52.1669L175.865 45.4416Z" fill="#032D2B"/>
<path d="M196.359 41.5642L198.284 48.2748L187.565 51.3483L183.656 50.5193L182.761 47.3971L185.641 44.6377L196.359 41.5642Z" fill="#004C47"/>
<path d="M196.359 41.5634L193.642 42.3425L195.571 49.0679L198.288 48.2888L196.359 41.5634Z" fill="#032D2B"/>
</g>
</g>
</g>
<defs>
<clipPath id="clip0_481_41840">
<rect width="375" height="424" fill="white"/>
</clipPath>
<clipPath id="clip1_481_41840">
<rect width="374" height="178.689" fill="white" transform="translate(0 245)"/>
</clipPath>
<clipPath id="clip2_481_41840">
<rect width="152.772" height="43.6627" fill="white" transform="translate(95.4142 39.5942) rotate(-16)"/>
</clipPath>
</defs>
</svg>
