<svg width="311" height="158" viewBox="0 0 311 158" fill="none" xmlns="http://www.w3.org/2000/svg">
<g clip-path="url(#clip0_1343_60048)">
<path d="M123.084 92.6628H122.441C122.197 92.6616 121.96 92.5806 121.766 92.4321C121.572 92.2836 121.433 92.0757 121.368 91.8402C121.197 91.2132 120.983 90.5991 120.725 90.0023C120.637 89.798 120.611 89.5719 120.652 89.353C120.694 89.1342 120.8 88.9327 120.957 88.7748L121.799 87.933C122.006 87.7247 122.122 87.4428 122.122 87.149C122.122 86.8552 122.006 86.5733 121.799 86.365L117.724 82.2971C117.622 82.1929 117.5 82.1102 117.365 82.0537C117.231 81.9973 117.086 81.9682 116.94 81.9682C116.794 81.9682 116.65 81.9973 116.515 82.0537C116.381 82.1102 116.259 82.1929 116.156 82.2971L115.7 82.7469C115.527 82.9093 115.306 83.0119 115.07 83.0397C114.834 83.0674 114.595 83.0189 114.389 82.9012C113.825 82.5794 113.239 82.2981 112.635 82.0593C112.427 81.9764 112.25 81.8338 112.124 81.6496C111.998 81.4653 111.93 81.2478 111.928 81.0247V79.8422C111.929 79.6965 111.901 79.5521 111.845 79.4173C111.79 79.2824 111.709 79.1598 111.606 79.0565C111.504 78.9532 111.381 78.8712 111.247 78.8152C111.112 78.7593 110.968 78.7305 110.822 78.7305H105.039C104.893 78.7305 104.749 78.7593 104.614 78.8152C104.48 78.8712 104.358 78.9532 104.255 79.0565C104.152 79.1598 104.071 79.2824 104.016 79.4173C103.96 79.5521 103.933 79.6965 103.933 79.8422V80.4849C103.933 80.7293 103.853 80.9669 103.704 81.1609C103.555 81.3549 103.347 81.4945 103.111 81.5581C102.484 81.7289 101.87 81.9436 101.273 82.2007C101.069 82.2895 100.842 82.3149 100.624 82.2737C100.405 82.2324 100.203 82.1264 100.045 81.9693L99.2036 81.1339C99.1013 81.0298 98.9793 80.947 98.8447 80.8906C98.7101 80.8341 98.5655 80.805 98.4196 80.805C98.2736 80.805 98.1291 80.8341 97.9945 80.8906C97.8599 80.947 97.7378 81.0298 97.6356 81.1339L93.5677 85.2018C93.4635 85.3041 93.3808 85.4261 93.3243 85.5607C93.2679 85.6953 93.2388 85.8398 93.2388 85.9858C93.2388 86.1318 93.2679 86.2763 93.3243 86.4109C93.3808 86.5455 93.4635 86.6675 93.5677 86.7698L94.0175 87.2261C94.1899 87.3984 94.3008 87.6225 94.3333 87.864C94.3659 88.1055 94.3181 88.351 94.1975 88.5628C93.877 89.1298 93.5958 89.7182 93.3556 90.3236C93.2725 90.5301 93.1296 90.707 92.9452 90.8318C92.7609 90.9566 92.5436 91.0236 92.321 91.0241H91.1257C90.8308 91.0241 90.548 91.1412 90.3395 91.3497C90.131 91.5582 90.0139 91.841 90.0139 92.1358V97.9195C90.0139 98.0652 90.0427 98.2095 90.0987 98.344C90.1546 98.4785 90.2366 98.6007 90.3399 98.7034C90.4432 98.8061 90.5659 98.8874 90.7007 98.9426C90.8356 98.9978 90.98 99.0257 91.1257 99.0249H91.7683C92.0136 99.0253 92.2518 99.1069 92.4459 99.2568C92.64 99.4067 92.7791 99.6167 92.8415 99.8539C93.0133 100.481 93.228 101.095 93.4841 101.692C93.5721 101.896 93.597 102.122 93.5558 102.341C93.5146 102.559 93.4091 102.761 93.2528 102.919L92.4174 103.755C92.3132 103.857 92.2305 103.979 92.174 104.114C92.1176 104.248 92.0885 104.393 92.0885 104.539C92.0885 104.685 92.1176 104.829 92.174 104.964C92.2305 105.098 92.3132 105.22 92.4174 105.323L96.4852 109.397C96.6936 109.604 96.9754 109.721 97.2693 109.721C97.5631 109.721 97.8449 109.604 98.0533 109.397L98.5095 108.941C98.682 108.768 98.9066 108.658 99.1484 108.627C99.3901 108.595 99.6355 108.645 99.8462 108.767C100.415 109.085 101.003 109.366 101.607 109.609C101.814 109.69 101.992 109.831 102.117 110.014C102.242 110.198 102.308 110.415 102.308 110.637V111.82C102.309 112.113 102.427 112.395 102.635 112.602C102.844 112.809 103.126 112.925 103.419 112.925H109.203C109.497 112.925 109.779 112.809 109.987 112.602C110.195 112.395 110.313 112.113 110.315 111.82V111.177C110.315 110.933 110.395 110.695 110.544 110.501C110.693 110.307 110.901 110.167 111.137 110.104C111.764 109.932 112.378 109.717 112.975 109.461C113.18 109.373 113.406 109.348 113.624 109.39C113.843 109.431 114.044 109.536 114.203 109.693L115.032 110.534C115.24 110.742 115.522 110.858 115.816 110.858C116.11 110.858 116.391 110.742 116.6 110.534L120.674 106.46C120.881 106.252 120.998 105.97 120.998 105.676C120.998 105.382 120.881 105.1 120.674 104.892L120.218 104.436C120.045 104.263 119.935 104.039 119.904 103.797C119.872 103.555 119.922 103.31 120.044 103.099C120.362 102.531 120.643 101.943 120.886 101.338C120.968 101.132 121.11 100.956 121.293 100.831C121.476 100.706 121.693 100.639 121.914 100.638H123.103C123.396 100.638 123.677 100.521 123.885 100.314C124.092 100.107 124.208 99.8257 124.208 99.5326V93.7488C124.206 93.6037 124.175 93.4604 124.117 93.3273C124.059 93.1941 123.976 93.0737 123.871 92.9728C123.767 92.872 123.643 92.7927 123.508 92.7395C123.373 92.6863 123.229 92.6602 123.084 92.6628Z" fill="#004C46"/>
<path d="M254.651 126.953C254.651 126.953 251.161 117.866 258.333 115.431C258.333 115.431 263.307 114.409 266.572 115.797C266.572 115.797 259.027 122.043 260.274 123.374C261.521 124.704 268.178 115.81 268.178 115.81C268.178 115.81 277.818 118.213 280.298 120.72C280.298 120.72 270.016 124.402 271.558 125.385C273.101 126.368 283.968 123.033 283.968 123.033C283.968 123.033 292.11 127.589 289.751 132.711C287.393 137.833 283.846 138.405 282.58 137.794C281.314 137.184 274.682 131.529 274.135 132.544C273.589 133.559 276.957 138.72 280.131 140.031C280.131 140.031 271.629 144.6 268.262 141.213C264.894 137.827 265.64 134.62 263.519 132.563C261.398 130.507 259.233 129.742 259.862 131.278C260.492 132.814 264.663 135.603 265.203 138.681C265.743 141.759 266.424 143.944 262.446 141.817C258.468 139.69 252.729 134.189 253.68 130.565L254.651 126.953Z" stroke="#31BC2E" stroke-width="0.642635" stroke-miterlimit="10"/>
<path d="M285.459 131.336C285.459 131.336 262.247 122.069 254.651 126.953C252.738 129.13 250.328 130.814 247.627 131.863L246.541 133.148C246.541 133.148 252.151 130.295 253.7 130.577C253.7 130.577 254.381 121.458 285.459 131.336Z" stroke="#31BC2E" stroke-width="0.642635" stroke-miterlimit="10"/>
<path d="M247.626 131.862C245.609 132.581 243.761 133.706 242.196 135.167C240.631 136.628 239.382 138.395 238.526 140.357L239.413 140.762C239.413 140.762 243.481 134.432 247.356 132.768C251.231 131.104 247.626 131.862 247.626 131.862Z" stroke="#31BC2E" stroke-width="0.642635" stroke-miterlimit="10"/>
<path d="M248.25 104.596C248.25 104.596 232.826 94.0243 241.528 82.3604C241.528 82.3604 248.282 75.33 254.959 73.9676C254.959 73.9676 249.818 92.0706 253.249 92.8161C256.681 93.5616 257.517 72.2518 257.517 72.2518C257.517 72.2518 275.382 65.5684 282.039 66.828C282.039 66.828 269.791 83.8513 273.3 83.7292C276.808 83.6071 290.368 66.4938 290.368 66.4938C290.368 66.4938 308.214 64.8358 310.084 75.4907C311.954 86.1456 306.942 90.9139 304.3 91.3509C301.659 91.7879 284.976 90.0335 285.214 92.2442C285.452 94.4548 296.402 98.934 302.867 97.5523C302.867 97.5523 294.378 114.042 285.362 112.333C276.346 110.624 274.032 104.75 268.441 103.812C262.85 102.873 258.59 104.011 261.269 105.778C263.949 107.545 273.576 107.397 277.772 111.677C281.969 115.957 285.439 118.676 276.834 119.64C268.229 120.604 253.159 118.149 250.717 111.375L248.25 104.596Z" stroke="#31BC2E" stroke-width="0.642635" stroke-miterlimit="10"/>
<path d="M301.775 77.9902C301.775 77.9902 254.946 88.6001 248.25 104.595C248.25 104.595 247.8 111.979 242.466 120.019L242.17 123.27C242.17 123.27 247.954 112.654 250.679 111.369C250.698 111.369 241.811 96.1511 301.775 77.9902Z" stroke="#31BC2E" stroke-width="0.642635" stroke-miterlimit="10"/>
<path d="M242.485 120.019C242.485 120.019 234.504 130.037 237.344 143.372L239.188 143.051C239.188 143.051 238.732 128.604 243.044 121.754C247.356 114.903 242.485 120.019 242.485 120.019Z" stroke="#31BC2E" stroke-width="0.642635" stroke-miterlimit="10"/>
<path d="M121.065 127.66H72.0967V156.971H121.065V127.66Z" fill="#004C46"/>
<path d="M120.86 127.659H72.521L91.3952 116.355L133.475 116.773L120.86 127.659Z" fill="#31B92E"/>
<path d="M133.475 116.773V142.318L120.436 156.97L120.86 127.66L133.475 116.773V142.318V116.773Z" fill="#022D2B"/>
<path d="M181.743 91.6016H132.774V156.97H181.743V91.6016Z" fill="#004C46"/>
<path d="M181.538 91.6007H133.199L151.199 78.9922L194.153 79.4613L181.538 91.6007Z" fill="#31B92E"/>
<path d="M243.121 52.6055H194.152V157.143H243.121V52.6055Z" fill="#004C46"/>
<path d="M242.915 52.6058H194.576L211.78 42.5293L254.489 42.902L242.915 52.6058Z" fill="#31B92E"/>
<path d="M243.128 157.143L254.49 142.318V42.9023L242.916 52.6061L243.128 157.143Z" fill="#022D2B"/>
<path d="M228.521 33.8615C226.337 33.8936 224.204 34.5225 222.352 35.6801V36.2713L234.799 36.0978V35.5066C232.898 34.3896 230.725 33.8203 228.521 33.8615Z" fill="#FED100"/>
<path d="M236.42 36.0807L220.683 36.2949L220.817 46.1327L236.554 45.9185L236.42 36.0807Z" fill="#97512C"/>
<path d="M237.647 45.9084L219.732 46.1523L219.752 47.6431L237.667 47.3992L237.647 45.9084Z" fill="#7C3E25"/>
<path d="M229.632 24.1759C229.237 24.3333 228.817 24.4161 228.392 24.4201C227.97 24.425 227.55 24.3554 227.152 24.2145C227.138 23.8198 227.033 23.4336 226.846 23.0859C226.659 22.7382 226.394 22.4383 226.072 22.2095C223.596 20.5895 221.607 18.3257 220.32 15.661C217.992 10.8737 216.75 5.63137 216.683 0.308465L239.445 0C239.516 5.31432 238.419 10.5794 236.232 15.4232C235.023 18.1254 233.096 20.4438 230.66 22.1259C230.345 22.3641 230.089 22.6717 229.911 23.0251C229.734 23.3784 229.641 23.7678 229.639 24.1631L229.632 24.1759Z" fill="#FED100"/>
<path d="M229.453 24.2461C229.457 24.5664 229.531 24.882 229.669 25.1707C229.808 25.4593 230.009 25.7141 230.256 25.9169C230.345 25.9988 230.415 26.0982 230.463 26.2089C230.51 26.3196 230.534 26.4391 230.533 26.5596C230.535 26.6701 230.514 26.7799 230.474 26.8827C230.433 26.9855 230.372 27.0793 230.295 27.1586C230.218 27.238 230.126 27.3014 230.025 27.3453C229.924 27.3892 229.814 27.4126 229.704 27.4143H227.198C227.087 27.416 226.978 27.3958 226.875 27.355C226.773 27.3142 226.68 27.2535 226.601 27.1764C226.522 27.0994 226.459 27.0075 226.416 26.906C226.373 26.8045 226.35 26.6955 226.349 26.5853C226.342 26.4653 226.362 26.3452 226.408 26.234C226.454 26.1228 226.524 26.0232 226.613 25.9426C226.856 25.733 227.05 25.4722 227.181 25.179C227.312 24.8858 227.377 24.5672 227.371 24.2461H229.453Z" fill="#FED100"/>
<path d="M230.654 34.5418C229.276 34.9677 227.803 34.9878 226.413 34.5996V33.2115C226.937 31.9224 227.197 30.5414 227.178 29.1501C227.166 28.5701 227.108 27.9921 227.004 27.4214L229.89 27.3828C229.8 27.9567 229.759 28.5371 229.768 29.1179C229.787 30.508 230.084 31.8802 230.642 33.1537V34.5418H230.654Z" fill="#FFDB31"/>
<path d="M220.321 21.9903C219.742 21.9996 219.179 21.8013 218.734 21.4312C218.594 21.2791 218.515 21.0815 218.511 20.8753C218.507 20.6691 218.578 20.4685 218.711 20.311C218.844 20.1534 219.03 20.0498 219.234 20.0194C219.438 19.9891 219.646 20.0341 219.82 20.146C219.953 20.2572 220.122 20.3165 220.295 20.3131C220.392 20.3131 220.487 20.2939 220.576 20.2566C220.665 20.2193 220.746 20.1646 220.813 20.0958C220.881 20.027 220.934 19.9455 220.97 19.8559C221.006 19.7663 221.023 19.6705 221.021 19.574C221.031 19.5166 221.031 19.458 221.021 19.4005C220.902 18.9978 220.68 18.6326 220.379 18.3402C220.313 18.2887 220.251 18.2329 220.192 18.1731L212.654 11.2905C210.142 8.99626 208.31 5.42964 209.788 2.56991C210.105 1.96074 210.575 1.4447 211.152 1.07278C211.729 0.700856 212.393 0.485924 213.078 0.449219H213.265C213.992 0.474587 214.697 0.705036 215.298 1.11396C215.9 1.52287 216.373 2.09359 216.664 2.76019C216.955 3.42679 217.052 4.1621 216.942 4.88121C216.833 5.60031 216.523 6.27389 216.047 6.82415C215.897 6.99459 215.686 7.09847 215.459 7.11293C215.233 7.12739 215.01 7.05125 214.839 6.90127C214.669 6.75129 214.565 6.53974 214.55 6.31316C214.536 6.08659 214.612 5.86355 214.762 5.69312C215.118 5.29672 215.311 4.78008 215.302 4.24719C215.295 3.68751 215.068 3.15305 214.67 2.75968C214.272 2.36631 213.735 2.14573 213.175 2.14577C212.781 2.15864 212.398 2.27617 212.065 2.48625C211.732 2.69633 211.46 2.99139 211.279 3.34107C210.212 5.42321 211.825 8.28936 213.779 10.0695L221.317 16.9521L221.368 17.0099C221.39 17.0216 221.41 17.0368 221.426 17.0549C221.993 17.5744 222.402 18.2423 222.609 18.9828C222.659 19.1761 222.687 19.3744 222.692 19.574C222.689 20.2062 222.44 20.8122 221.997 21.2633C221.554 21.7145 220.953 21.9753 220.321 21.9903Z" fill="#FED100"/>
<path d="M233.919 19.3746C233.918 19.1757 233.939 18.9773 233.983 18.7833C234.177 18.0494 234.568 17.3826 235.114 16.8554L235.166 16.804L235.224 16.7526L242.595 9.63864C244.523 7.80713 246.033 4.89599 244.908 2.84599C244.717 2.50133 244.438 2.2134 244.099 2.01139C243.76 1.80938 243.374 1.70046 242.98 1.69567C242.57 1.7098 242.172 1.84174 241.835 2.07574C241.497 2.30973 241.234 2.63591 241.077 3.01533C240.92 3.39474 240.875 3.81138 240.948 4.21551C241.021 4.61963 241.209 4.99417 241.489 5.29443C241.577 5.37269 241.647 5.46817 241.695 5.57485C241.743 5.68152 241.769 5.79708 241.771 5.91423C241.773 6.03139 241.75 6.14761 241.704 6.25555C241.659 6.3635 241.591 6.46084 241.506 6.54143C241.421 6.62202 241.32 6.68413 241.21 6.72382C241.1 6.76351 240.983 6.77994 240.866 6.77206C240.749 6.76419 240.635 6.73218 240.531 6.67806C240.427 6.62393 240.335 6.54887 240.262 6.4576C239.778 5.92024 239.455 5.25774 239.33 4.54569C239.205 3.83365 239.283 3.10075 239.554 2.43066C239.825 1.76057 240.28 1.18027 240.865 0.756007C241.45 0.331742 242.143 0.0806017 242.865 0.03125H243.051C243.737 0.0503569 244.407 0.247607 244.994 0.603633C245.581 0.959659 246.065 1.46222 246.399 2.06198C247.954 4.91527 246.2 8.55259 243.771 10.8918L236.445 17.9608C236.395 18.0265 236.337 18.0849 236.271 18.1343C235.967 18.4325 235.746 18.8045 235.629 19.2139C235.622 19.2716 235.622 19.3297 235.629 19.3874C235.632 19.5806 235.711 19.7646 235.85 19.8994C235.988 20.0342 236.174 20.1089 236.368 20.1072C236.543 20.1095 236.713 20.0452 236.843 19.9272C237.014 19.7781 237.236 19.7028 237.462 19.7178C237.688 19.7329 237.899 19.8371 238.048 20.0075C238.197 20.178 238.272 20.4007 238.257 20.6267C238.242 20.8526 238.138 21.0634 237.968 21.2125C237.616 21.5267 237.181 21.732 236.716 21.8032C236.25 21.8745 235.773 21.8088 235.344 21.6139C234.915 21.4191 234.552 21.1037 234.299 20.7061C234.046 20.3084 233.914 19.8458 233.919 19.3746Z" fill="#FED100"/>
<path d="M221.529 1.28516L217.674 1.33657C217.719 5.14196 218.502 8.9024 219.981 12.4092C219.757 11.3522 219.637 10.2761 219.621 9.19599C219.579 6.4402 220.236 3.71868 221.529 1.28516Z" fill="#FFDF5A"/>
<path d="M220.822 46.1289L236.56 45.9169L236.425 36.0781C236.425 36.0781 231.296 45.9876 220.822 46.1289Z" fill="#8D492B"/>
<path d="M234.325 38.3848L222.849 38.541L222.925 44.1635L234.402 44.0073L234.325 38.3848Z" fill="#FED100"/>
<path d="M210.451 3.65024C210.785 3.00327 211.283 2.4552 211.896 2.06059C212.508 1.66598 213.213 1.43858 213.94 1.40101H214.139C214.577 1.41016 215.011 1.48824 215.425 1.63236C214.813 1.08128 214.024 0.768749 213.201 0.751953H213.034C212.416 0.786563 211.819 0.982895 211.301 1.32127C210.783 1.65964 210.364 2.12816 210.084 2.67986C209.804 3.26742 209.645 3.90524 209.617 4.55546C209.588 5.20568 209.69 5.85503 209.917 6.46498C209.829 5.49532 210.013 4.52024 210.451 3.65024Z" fill="#FFDF5A"/>
<path d="M222.712 19.279C223.691 20.3962 224.817 21.3755 226.06 22.1902C226.382 22.419 226.647 22.7189 226.834 23.0666C227.021 23.4143 227.126 23.8005 227.139 24.1952C227.538 24.3361 227.957 24.4057 228.38 24.4008C228.805 24.3968 229.225 24.314 229.62 24.1566C229.622 23.7614 229.716 23.3719 229.893 23.0186C230.07 22.6653 230.326 22.3576 230.642 22.1195C233.086 20.4427 235.022 18.1262 236.239 15.4232C238.426 10.5794 239.523 5.31432 239.452 0C234.69 19.9859 222.77 19.279 222.712 19.279Z" fill="#FCC200"/>
<path d="M233.474 11.8315C233.904 8.93517 231.904 6.23881 229.008 5.80905C226.112 5.37929 223.415 7.37886 222.985 10.2752C222.556 13.1716 224.555 15.8679 227.452 16.2977C230.348 16.7274 233.044 14.7279 233.474 11.8315Z" fill="#FFF3C0"/>
<path d="M227.769 15.0318L227.679 8.66329H226.522V7.2495L229.26 7.21094L229.363 14.9932L227.769 15.0318Z" fill="#D69A13"/>
<path d="M48.4412 153.205L45.1702 142.44L51.1852 140.77L53.9807 148.603L48.4412 153.205Z" fill="#A34321"/>
<path d="M47.7476 151.191C47.734 151.089 47.7451 150.986 47.78 150.889C47.8149 150.792 47.8726 150.705 47.9482 150.635C48.0238 150.565 48.1151 150.514 48.2144 150.487C48.3136 150.46 48.418 150.457 48.5187 150.478C49.2508 150.608 50.0021 150.58 50.7225 150.396C51.4428 150.212 52.1156 149.876 52.6959 149.411C52.6902 149.168 52.7461 148.927 52.8584 148.711C52.9708 148.495 53.1359 148.31 53.3385 148.175C53.541 148.04 53.7745 147.958 54.0171 147.937C54.2598 147.916 54.5038 147.957 54.7266 148.055C56.3575 149.05 58.2409 149.552 60.1504 149.501C64.2633 149.257 64.9059 151.018 64.9059 151.018L65.3943 152.824L49.3284 157.046L48.6858 154.964C48.6858 154.964 48.0111 152.695 47.7476 151.191Z" fill="black"/>
<path d="M58.4346 151.436L59.2443 149.508" stroke="#004C46" stroke-width="1.9279" stroke-miterlimit="10"/>
<path d="M57.1946 151.27L57.9786 149.342" stroke="#004C46" stroke-width="1.9279" stroke-miterlimit="10"/>
<path d="M55.9089 150.93L56.6994 149.002" stroke="#004C46" stroke-width="1.9279" stroke-miterlimit="10"/>
<path d="M17.0688 142.401L23.8294 133.404L28.7134 137.26L24.0157 144.117L17.0688 142.401Z" fill="#A34321"/>
<path d="M18.2899 140.654C18.3633 140.583 18.4525 140.53 18.5502 140.5C18.648 140.471 18.7514 140.465 18.8519 140.483C18.9524 140.501 19.0472 140.543 19.1282 140.605C19.2093 140.667 19.2744 140.748 19.3181 140.84C19.6485 141.508 20.1184 142.097 20.696 142.567C21.2737 143.037 21.9456 143.377 22.6663 143.565C22.8601 143.418 23.0878 143.322 23.3285 143.287C23.5691 143.251 23.8149 143.277 24.043 143.361C24.2711 143.446 24.4742 143.587 24.6334 143.77C24.7927 143.954 24.903 144.176 24.954 144.413C25.1201 146.32 25.8268 148.139 26.9912 149.657C29.626 152.832 28.5721 154.406 28.5721 154.406L27.3896 155.852L14.4919 145.409L15.7772 143.642C15.7708 143.681 17.2167 141.766 18.2899 140.654Z" fill="black"/>
<path d="M24.4202 149.425L26.4637 148.924" stroke="#004C46" stroke-width="1.9279" stroke-miterlimit="10"/>
<path d="M23.7773 148.281L25.8273 147.793" stroke="#004C46" stroke-width="1.9279" stroke-miterlimit="10"/>
<path d="M23.283 147.06L25.333 146.553" stroke="#004C46" stroke-width="1.9279" stroke-miterlimit="10"/>
<path d="M48.4999 108.844L28.2248 141.817L20.3333 136.728L39.2331 103.87C39.7732 102.958 40.575 102.231 41.5344 101.781C42.4937 101.332 43.5661 101.182 44.612 101.35C45.4344 101.457 46.2188 101.761 46.8983 102.237C47.5777 102.712 48.1321 103.345 48.514 104.081C48.896 104.817 49.0942 105.635 49.0917 106.464C49.0893 107.293 48.8862 108.11 48.4999 108.844Z" fill="#022D2B"/>
<path d="M35.2358 77.4311L41.5465 107.095C41.7307 108.064 42.2849 108.924 43.0917 109.492C43.8985 110.06 44.8946 110.291 45.8692 110.138C46.8438 109.984 47.7203 109.457 48.3133 108.668C48.9062 107.88 49.169 106.892 49.0461 105.913L45.9228 76.043L35.2358 77.4311Z" fill="#022D2B"/>
<path d="M26.9138 76.0041L26.1748 83.6129L46.4692 148.487L54.7013 145.916L39.5159 86.3762L45.8137 74.873L26.9138 76.0041Z" fill="#004C46"/>
<path d="M61.1664 59.9514L47.594 57.0531L48.8793 51.7578L61.9183 54.3284C62.5093 54.4497 63.0296 54.7971 63.3681 55.2965C63.7067 55.7959 63.8367 56.4078 63.7305 57.0017C63.4671 58.1842 62.3682 60.1056 61.1664 59.9514Z" fill="#A34321"/>
<path d="M54.9583 59.958L55.6652 50.8647L45.5115 50.0743C44.9037 50.0074 44.2886 50.0633 43.7028 50.2388C43.1171 50.4143 42.5725 50.7057 42.1016 51.0958C41.6307 51.4858 41.243 51.9666 40.9615 52.5095C40.68 53.0524 40.5106 53.6463 40.4632 54.256C40.4158 54.8656 40.4914 55.4786 40.6856 56.0584C40.8798 56.6383 41.1885 57.1732 41.5935 57.6314C41.9985 58.0895 42.4915 58.4616 43.0431 58.7255C43.5947 58.9894 44.1938 59.1398 44.8046 59.1676L54.9583 59.958Z" fill="#31B92E"/>
<path d="M15.5064 64.6159L22.9095 52.875L27.4079 55.8825L20.5189 67.225C20.207 67.7397 19.7039 68.1098 19.1198 68.2543C18.5356 68.3988 17.918 68.306 17.4021 67.9962C16.3482 67.3985 14.9216 65.7084 15.5064 64.6159Z" fill="#A34321"/>
<path d="M28.6227 78.4013H44.9456C45.3985 78.3996 45.8323 78.219 46.1525 77.8988C46.4727 77.5785 46.6534 77.1447 46.6551 76.6919V51.4685C46.6559 51.2831 46.6201 51.0994 46.5498 50.9279C46.4794 50.7564 46.3759 50.6005 46.2451 50.4692C46.1144 50.3378 45.9589 50.2336 45.7877 50.1624C45.6166 50.0913 45.433 50.0547 45.2477 50.0547H26.894V76.6983C26.9041 77.1513 27.0902 77.5825 27.413 77.9004C27.7357 78.2184 28.1697 78.3981 28.6227 78.4013Z" fill="#31B92E"/>
<path d="M24.3366 65.5944L16.8049 60.4534L22.5308 52.0541C22.8684 51.5592 23.3001 51.1356 23.8014 50.8075C24.3027 50.4794 24.8637 50.2532 25.4524 50.1419C26.0411 50.0306 26.6459 50.0364 27.2324 50.1588C27.8188 50.2813 28.3754 50.5181 28.8704 50.8556C29.3654 51.1932 29.789 51.6249 30.1171 52.1262C30.4452 52.6275 30.6713 53.1885 30.7826 53.7772C30.8939 54.3659 30.8882 54.9707 30.7657 55.5572C30.6432 56.1437 30.4065 56.7003 30.0689 57.1952L24.3366 65.5944Z" fill="#31B92E"/>
<path d="M32.2473 33.4867C32.2486 34.4447 32.5339 35.3809 33.067 36.1769C33.6002 36.9729 34.3574 37.5929 35.243 37.9587C36.1285 38.3245 37.1025 38.4195 38.042 38.2318C38.9815 38.0441 39.8443 37.5821 40.5213 36.9042C41.1983 36.2263 41.6592 35.3629 41.8456 34.4232C42.0321 33.4834 41.9357 32.5095 41.5688 31.6245C41.2019 30.7395 40.5808 29.9831 39.7841 29.4509C38.9874 28.9188 38.0509 28.6348 37.0928 28.6348C36.4559 28.6348 35.8253 28.7603 35.237 29.0042C34.6487 29.2481 34.1143 29.6056 33.6642 30.0562C33.2142 30.5069 32.8574 31.0418 32.6143 31.6304C32.3712 32.219 32.2465 32.8498 32.2473 33.4867Z" fill="#32B82F"/>
<path d="M32.6199 34.8944V43.1587H43.4418V33.6349C43.4418 33.294 43.3064 32.9671 43.0654 32.7261C42.8244 32.485 42.4974 32.3496 42.1566 32.3496H35.0298C33.616 33.712 32.6199 34.8944 32.6199 34.8944Z" fill="#011716"/>
<path d="M34.0141 46.2051V49.7524C33.9689 50.2062 34.0193 50.6643 34.162 51.0974C34.3047 51.5305 34.5365 51.9289 34.8426 52.267C35.1486 52.605 35.5221 52.8752 35.9389 53.0601C36.3557 53.245 36.8066 53.3405 37.2626 53.3405C37.7186 53.3405 38.1696 53.245 38.5864 53.0601C39.0032 52.8752 39.3767 52.605 39.6827 52.267C39.9887 51.9289 40.2206 51.5305 40.3633 51.0974C40.506 50.6643 40.5563 50.2062 40.5111 49.7524V46.2051H34.0141Z" fill="#A24320"/>
<path d="M34.8755 46.791L40.4857 49.9464V46.791H34.8755Z" fill="#793219"/>
<path d="M34.0144 46.7895H40.7749C41.1257 46.7895 41.473 46.7203 41.797 46.5859C42.121 46.4515 42.4153 46.2544 42.663 46.0061C42.9107 45.7578 43.107 45.463 43.2407 45.1387C43.3743 44.8144 43.4427 44.4669 43.4419 44.1161V34.6309H34.0144V46.7895Z" fill="#A24320"/>
<path d="M33.5456 43.9106H34.0148V40.3633H33.5456C33.3654 40.3624 33.1867 40.3972 33.0199 40.4656C32.853 40.534 32.7014 40.6347 32.5736 40.7619C32.4458 40.8891 32.3444 41.0403 32.2752 41.2068C32.206 41.3733 32.1704 41.5518 32.1704 41.7321V42.5611C32.1721 42.74 32.209 42.9168 32.279 43.0815C32.349 43.2461 32.4508 43.3954 32.5785 43.5207C32.7062 43.646 32.8574 43.745 33.0233 43.8119C33.1892 43.8788 33.3667 43.9123 33.5456 43.9106Z" fill="#A24320"/>
<path d="M38.5584 40.287C38.4854 40.0583 38.3498 39.8546 38.1669 39.699C37.9841 39.5433 37.7613 39.4421 37.5238 39.4066C37.2854 39.3852 37.0453 39.4193 36.8223 39.5062C36.5993 39.5932 36.3995 39.7307 36.2385 39.9079C36.3006 40.144 36.4387 40.3532 36.6315 40.503C36.8244 40.6528 37.0611 40.735 37.3053 40.7369C37.5352 40.7964 37.7777 40.7853 38.0012 40.7051C38.2247 40.6249 38.4189 40.4792 38.5584 40.287Z" fill="white"/>
<path d="M36.6303 39.9662C36.6071 40.1167 36.6293 40.2707 36.6942 40.4085C36.7591 40.5462 36.8636 40.6615 36.9944 40.7395C37.1252 40.8175 37.2763 40.8547 37.4284 40.8462C37.5804 40.8378 37.7265 40.7842 37.8479 40.6922C37.9692 40.6003 38.0604 40.4742 38.1097 40.3301C38.1589 40.186 38.1641 40.0305 38.1244 39.8834C38.0847 39.7364 38.0021 39.6046 37.887 39.5048C37.7719 39.4051 37.6297 39.342 37.4785 39.3235C37.3806 39.31 37.281 39.3158 37.1854 39.3408C37.0897 39.3657 36.9999 39.4093 36.9212 39.469C36.8424 39.5287 36.7761 39.6033 36.7262 39.6886C36.6763 39.7739 36.6437 39.8682 36.6303 39.9662Z" fill="black"/>
<path d="M38.5584 40.286C38.4918 40.0537 38.3581 39.8463 38.174 39.6896C37.99 39.533 37.7638 39.4342 37.5238 39.4056C37.2856 39.3861 37.046 39.4211 36.8233 39.508C36.6006 39.5948 36.4007 39.7313 36.2385 39.9069" stroke="black" stroke-width="0.321317" stroke-linecap="round" stroke-linejoin="round"/>
<path d="M40.6653 40.287C40.6653 40.287 40.9095 39.4773 41.6035 39.4066C41.8202 39.394 42.0368 39.4328 42.2357 39.5199C42.4345 39.607 42.6098 39.74 42.7474 39.9079C42.6954 40.1327 42.5722 40.3348 42.3963 40.4841C42.2203 40.6335 42.0009 40.7221 41.7706 40.7369C41.5625 40.7862 41.3441 40.7694 41.146 40.6887C40.9479 40.6081 40.7798 40.4677 40.6653 40.287Z" fill="white"/>
<path d="M42.4145 39.965C42.4352 40.1616 42.3804 40.3587 42.261 40.5163C42.1416 40.6739 41.9667 40.7801 41.7718 40.8133C41.5877 40.8241 41.4066 40.7633 41.2664 40.6434C41.1262 40.5236 41.0379 40.3542 41.0199 40.1706C40.9992 39.9741 41.054 39.7769 41.1734 39.6194C41.2928 39.4618 41.4677 39.3556 41.6626 39.3224C41.8474 39.3082 42.0304 39.3678 42.1713 39.4883C42.3123 39.6088 42.3997 39.7802 42.4145 39.965Z" fill="black"/>
<path d="M40.6653 40.2865C40.6653 40.2865 40.8902 39.4383 41.6035 39.4061C41.82 39.395 42.0362 39.4345 42.2347 39.5215C42.4333 39.6086 42.6088 39.7407 42.7474 39.9074" stroke="black" stroke-width="0.302038" stroke-linecap="round" stroke-linejoin="round"/>
<path d="M37.1509 37.093C36.7546 37.2019 36.3834 37.3875 36.0585 37.6393C35.9986 37.6747 35.9518 37.7287 35.9252 37.793C35.8986 37.8574 35.8937 37.9286 35.9111 37.996C35.9285 38.0634 35.9673 38.1234 36.0217 38.1668C36.0761 38.2103 36.1431 38.2349 36.2127 38.2369C36.6015 38.2202 36.9863 38.151 37.3566 38.0313C38.2563 37.7678 38.6419 37.3179 38.5583 37.1123C38.4748 36.9067 37.6201 36.9259 37.1509 37.093Z" fill="#011716"/>
<path d="M41.7323 37.0725C42.0987 37.1263 42.4505 37.2531 42.767 37.4452C42.832 37.4756 42.8858 37.5257 42.9207 37.5884C42.9555 37.6511 42.9697 37.7232 42.9612 37.7945C42.9526 37.8657 42.9218 37.9325 42.8731 37.9851C42.8243 38.0378 42.7602 38.0738 42.6899 38.0879C42.3409 38.1306 41.9873 38.1176 41.6424 38.0493C40.7941 37.9144 40.4021 37.5031 40.4856 37.2717C40.5692 37.0404 41.2825 36.9761 41.7323 37.0725Z" fill="#011716"/>
<path d="M33.8022 40.3625V36.9244H34.7019V35.5685H43.4418V33.4863H33.8022V36.9244" fill="#011716"/>
<path d="M38.2554 43.6992C38.2554 44.0282 38.386 44.3436 38.6186 44.5762C38.8512 44.8088 39.1667 44.9395 39.4957 44.9395C39.8246 44.9395 40.1401 44.8088 40.3727 44.5762C40.6053 44.3436 40.7359 44.0282 40.7359 43.6992" fill="white"/>
<path d="M39.5158 40.9805L40.1585 41.6231C40.7176 42.2208 40.0235 42.2979 39.6701 42.2657L39.458 42.2272" fill="#793219"/>
<path d="M32.5107 34.9845C32.5107 34.9845 33.057 33.6543 37.9024 32.8831C42.0153 32.2405 43.4227 34.2712 43.4227 34.2712C45.9932 30.9488 44.875 29.2201 41.3791 29.5222C39.0057 29.7748 36.7714 30.7661 34.9913 32.3562C33.6161 33.7121 32.5107 34.9845 32.5107 34.9845Z" fill="#014C46"/>
<path d="M62.0979 54.7388L84.6737 53.3379L85.387 58.1834C85.387 58.1834 71.249 59.5972 62.4192 60.2719C61.0183 60.3812 59.5466 58.8517 59.5531 57.4572C59.5402 56.1591 60.7998 54.7324 62.0979 54.7388Z" fill="#A34321"/>
<path d="M19.3687 68.762L6.7474 87.5205L3.6499 85.7982C3.6499 85.7982 9.96057 73.0419 14.7803 65.6387C15.5515 64.4563 17.6529 64.2185 18.7518 65.0732C19.8507 65.9279 20.1656 67.7209 19.3687 68.762Z" fill="#A34321"/>
<path d="M5.03207 94.126L5.75182 92.1981L6.58725 91.6005C6.83728 91.5229 7.04801 91.3523 7.17595 91.124C7.3039 90.8956 7.3393 90.6268 7.27486 90.373L6.75433 87.6804C6.85341 87.255 6.79547 86.808 6.59119 86.4219C6.38691 86.0358 6.05004 85.7364 5.64257 85.579C4.25448 84.9942 3.61828 85.5212 3.07204 86.318L0.829241 88.9207C0.552125 89.1802 0.334527 89.4967 0.191418 89.8484C0.0483099 90.2001 -0.0169112 90.5785 0.000242851 90.9578L0.0902117 92.4102C0.0990842 92.5781 0.155845 92.7399 0.253782 92.8766C0.35172 93.0132 0.486739 93.119 0.642877 93.1814L3.85605 94.5823C3.96202 94.637 4.0784 94.6686 4.1975 94.675C4.3166 94.6813 4.43569 94.6623 4.54688 94.6192C4.65807 94.576 4.75883 94.5098 4.84247 94.4247C4.92612 94.3397 4.99074 94.2379 5.03207 94.126Z" fill="#A34321"/>
<path d="M90.5025 57.8372L88.4524 58.1071L87.6877 58.7883C87.5533 59.0131 87.339 59.179 87.0877 59.2528C86.8364 59.3267 86.5664 59.3031 86.3318 59.1867L83.8255 58.0749C83.3884 58.0763 82.9657 57.9196 82.635 57.6338C82.3043 57.348 82.0881 56.9524 82.0261 56.5198C81.7691 55.0353 82.4245 54.534 83.3114 54.1613L86.351 52.5547C86.6678 52.3462 87.0261 52.209 87.4011 52.1524C87.7761 52.0958 88.1589 52.1213 88.5231 52.227L89.9241 52.6447C90.0752 52.6937 90.2102 52.7831 90.3144 52.9031C90.4185 53.0231 90.488 53.1693 90.5153 53.3259L91.1579 56.764C91.1914 56.8776 91.2008 56.997 91.1853 57.1145C91.1698 57.2319 91.1299 57.3448 91.0682 57.4459C91.0064 57.547 90.9242 57.6341 90.8268 57.7015C90.7293 57.7688 90.6188 57.8151 90.5025 57.8372Z" fill="#A34321"/>
<g opacity="0.38">
<g opacity="0.38">
<path opacity="0.38" d="M35.814 40.1914C35.8127 40.5082 35.9055 40.8182 36.0805 41.0821C36.2556 41.3461 36.505 41.5522 36.7973 41.6743C37.0896 41.7964 37.4115 41.829 37.7224 41.768C38.0332 41.707 38.3189 41.5551 38.5433 41.3316C38.7678 41.1081 38.9208 40.8229 38.9831 40.5124C39.0453 40.2018 39.014 39.8797 38.8931 39.587C38.7722 39.2942 38.5671 39.0439 38.3038 38.8678C38.0405 38.6917 37.7309 38.5977 37.4141 38.5977C37.2043 38.5968 36.9964 38.6374 36.8023 38.7171C36.6082 38.7968 36.4317 38.9141 36.283 39.0622C36.1344 39.2103 36.0164 39.3862 35.9359 39.58C35.8554 39.7738 35.814 39.9816 35.814 40.1914Z" fill="white"/>
</g>
</g>
<path d="M35.8145 40.1894C35.8132 40.5062 35.906 40.8162 36.081 41.0802C36.2561 41.3442 36.5055 41.5503 36.7978 41.6724C37.0901 41.7945 37.412 41.8271 37.7228 41.7661C38.0337 41.7051 38.3194 41.5532 38.5438 41.3296C38.7682 41.1061 38.9213 40.821 38.9836 40.5104C39.0458 40.1998 39.0145 39.8778 38.8936 39.585C38.7727 39.2922 38.5676 39.042 38.3043 38.8658C38.041 38.6897 37.7314 38.5957 37.4146 38.5957C37.2048 38.5949 36.9969 38.6355 36.8028 38.7152C36.6087 38.7949 36.4322 38.9122 36.2835 39.0602C36.1349 39.2083 36.0169 39.3843 35.9364 39.5781C35.8559 39.7718 35.8145 39.9796 35.8145 40.1894Z" stroke="white" stroke-width="0.47555" stroke-miterlimit="10"/>
<g opacity="0.38">
<g opacity="0.38">
<path opacity="0.38" d="M40.1973 40.1916C40.196 40.5094 40.2895 40.8204 40.4657 41.085C40.6419 41.3495 40.8929 41.5555 41.1867 41.6768C41.4805 41.7981 41.8037 41.8292 42.1152 41.7661C42.4267 41.703 42.7124 41.5485 42.9358 41.3224C43.1591 41.0963 43.3101 40.8088 43.3695 40.4965C43.4288 40.1843 43.3938 39.8614 43.2689 39.5691C43.144 39.2768 42.9349 39.0284 42.6683 38.8554C42.4017 38.6824 42.0895 38.5928 41.7717 38.5979C41.3524 38.6029 40.952 38.7731 40.6572 39.0714C40.3625 39.3698 40.1972 39.7722 40.1973 40.1916Z" fill="white"/>
</g>
</g>
<path d="M40.1973 40.1896C40.196 40.5075 40.2895 40.8185 40.4657 41.083C40.6419 41.3475 40.8929 41.5536 41.1867 41.6749C41.4805 41.7962 41.8037 41.8273 42.1152 41.7641C42.4267 41.701 42.7124 41.5466 42.9358 41.3204C43.1591 41.0943 43.3101 40.8068 43.3695 40.4946C43.4288 40.1823 43.3938 39.8595 43.2689 39.5672C43.144 39.2749 42.9349 39.0264 42.6683 38.8534C42.4017 38.6805 42.0895 38.5908 41.7717 38.5959C41.3524 38.601 40.952 38.7711 40.6572 39.0695C40.3625 39.3678 40.1972 39.7703 40.1973 40.1896Z" stroke="white" stroke-width="0.47555" stroke-miterlimit="10"/>
<path d="M39.0073 40.043H40.1962" stroke="white" stroke-width="0.481976" stroke-miterlimit="10"/>
<path d="M36.0189 40.082H33.6541" stroke="white" stroke-width="0.47555" stroke-miterlimit="10"/>
<path d="M194.153 79.4609L181.538 91.6003L181.743 156.969L194.153 142.317V79.4609Z" fill="#022D2B"/>
<path d="M182.913 54.7719H182.27C182.034 54.7683 181.806 54.6898 181.617 54.5477C181.429 54.4056 181.291 54.2073 181.223 53.9814C181.052 53.3545 180.837 52.7403 180.58 52.1435C180.491 51.9393 180.466 51.7131 180.507 51.4942C180.548 51.2754 180.654 51.0739 180.812 50.9161L181.653 50.0742C181.861 49.8659 181.977 49.584 181.977 49.2902C181.977 48.9964 181.861 48.7145 181.653 48.5062L177.579 44.4383C177.477 44.3342 177.355 44.2514 177.22 44.195C177.086 44.1385 176.941 44.1094 176.795 44.1094C176.649 44.1094 176.505 44.1385 176.37 44.195C176.235 44.2514 176.113 44.3342 176.011 44.4383L175.555 44.8881C175.382 45.0605 175.158 45.1714 174.917 45.204C174.675 45.2365 174.43 45.1887 174.218 45.0681C173.652 44.7451 173.064 44.4637 172.457 44.2262C172.251 44.1431 172.074 44.0002 171.949 43.8159C171.824 43.6316 171.757 43.4142 171.757 43.1916V41.977C171.758 41.8308 171.729 41.6858 171.674 41.5506C171.618 41.4153 171.536 41.2924 171.433 41.189C171.33 41.0856 171.207 41.0037 171.072 40.9481C170.936 40.8926 170.791 40.8644 170.645 40.8653H164.861C164.716 40.8653 164.571 40.8941 164.437 40.95C164.302 41.006 164.18 41.0879 164.077 41.1913C163.975 41.2946 163.893 41.4172 163.838 41.552C163.783 41.6869 163.755 41.8313 163.756 41.977V42.6196C163.756 42.8649 163.676 43.1034 163.527 43.2985C163.379 43.4936 163.17 43.6344 162.933 43.6993C162.304 43.8701 161.688 44.0848 161.089 44.3419C160.886 44.4302 160.661 44.4553 160.443 44.4141C160.225 44.3728 160.025 44.2671 159.868 44.1106L159.026 43.2687C158.818 43.0615 158.536 42.9452 158.242 42.9452C157.948 42.9452 157.667 43.0615 157.458 43.2687L153.384 47.343C153.177 47.5513 153.06 47.8332 153.06 48.127C153.06 48.4208 153.177 48.7027 153.384 48.911L153.84 49.3673C154.012 49.5398 154.123 49.7644 154.154 50.0061C154.186 50.2479 154.136 50.4932 154.014 50.704C153.695 51.2712 153.416 51.8595 153.178 52.4648C153.095 52.6713 152.952 52.8482 152.768 52.973C152.584 53.0978 152.366 53.1648 152.144 53.1653H150.955C150.809 53.1653 150.665 53.1941 150.53 53.25C150.396 53.306 150.274 53.388 150.171 53.4913C150.068 53.5946 149.987 53.7172 149.932 53.8521C149.877 53.9869 149.849 54.1313 149.849 54.277V60.0607C149.849 60.3539 149.966 60.635 150.173 60.8423C150.38 61.0496 150.662 61.1661 150.955 61.1661H151.597C151.842 61.1672 152.079 61.2482 152.272 61.3968C152.466 61.5453 152.606 61.7532 152.671 61.9887C152.841 62.6177 153.056 63.234 153.313 63.833C153.401 64.0363 153.427 64.2614 153.385 64.4791C153.344 64.6968 153.238 64.8971 153.082 65.054L152.24 65.8959C152.033 66.1042 151.916 66.3861 151.916 66.6799C151.916 66.9737 152.033 67.2556 152.24 67.4639L156.314 71.5382C156.523 71.7454 156.804 71.8617 157.098 71.8617C157.392 71.8617 157.674 71.7454 157.882 71.5382L158.339 71.0819C158.511 70.9097 158.736 70.7992 158.977 70.7679C159.219 70.7365 159.465 70.7859 159.675 70.9084C160.242 71.2268 160.831 71.5059 161.436 71.7438C161.642 71.8277 161.819 71.9708 161.943 72.1549C162.068 72.3391 162.135 72.5561 162.137 72.7785V73.9674C162.137 74.1131 162.165 74.2573 162.221 74.3918C162.277 74.5264 162.359 74.6485 162.463 74.7512C162.566 74.854 162.689 74.9352 162.823 74.9904C162.958 75.0456 163.103 75.0735 163.248 75.0727H169.032C169.177 75.0727 169.321 75.0441 169.455 74.9886C169.589 74.933 169.711 74.8516 169.814 74.7489C169.916 74.6463 169.998 74.5245 170.053 74.3904C170.109 74.2562 170.137 74.1125 170.137 73.9674V73.3247C170.138 73.0806 170.22 72.8435 170.368 72.6497C170.517 72.4559 170.724 72.3161 170.96 72.2515C171.587 72.0807 172.201 71.866 172.798 71.6089C173.002 71.5201 173.228 71.4947 173.447 71.5359C173.666 71.5772 173.867 71.6832 174.025 71.8402L174.867 72.6821C175.075 72.8893 175.357 73.0056 175.651 73.0056C175.945 73.0056 176.227 72.8893 176.435 72.6821L180.503 68.6078C180.607 68.5055 180.69 68.3835 180.746 68.2489C180.803 68.1143 180.832 67.9698 180.832 67.8238C180.832 67.6778 180.803 67.5333 180.746 67.3987C180.69 67.2641 180.607 67.142 180.503 67.0398L180.053 66.5835C179.881 66.4112 179.77 66.1871 179.737 65.9456C179.705 65.704 179.753 65.4585 179.873 65.2468C180.196 64.6811 180.478 64.0926 180.715 63.486C180.799 63.28 180.942 63.1035 181.126 62.9788C181.31 62.8542 181.527 62.7869 181.75 62.7855H182.932C183.078 62.7864 183.223 62.7582 183.359 62.7026C183.494 62.6471 183.617 62.5652 183.72 62.4618C183.824 62.3584 183.906 62.2355 183.961 62.1002C184.017 61.9649 184.045 61.82 184.044 61.6738V55.9093C184.048 55.7593 184.022 55.61 183.967 55.4704C183.912 55.3308 183.829 55.2039 183.723 55.0975C183.617 54.9911 183.491 54.9073 183.351 54.8513C183.212 54.7954 183.063 54.7683 182.913 54.7719ZM174.231 52.8825C171.079 56.1835 168.603 60.0695 166.943 64.3214C166.865 64.5439 166.725 64.7395 166.54 64.8852C166.354 65.0309 166.131 65.1207 165.896 65.144H165.767C165.554 65.1408 165.345 65.0845 165.158 64.9802C164.972 64.8758 164.815 64.7267 164.701 64.5463C164.669 64.4885 161.436 59.2189 159.624 57.3167C159.395 57.0772 159.272 56.7569 159.279 56.426C159.287 56.0952 159.426 55.7811 159.666 55.5527C159.905 55.3243 160.225 55.2004 160.556 55.2082C160.887 55.216 161.201 55.355 161.43 55.5944C162.943 57.3597 164.32 59.2373 165.549 61.2111C167.269 57.4787 169.607 54.0634 172.464 51.1088C172.579 50.9928 172.717 50.9007 172.868 50.8377C173.019 50.7748 173.181 50.7422 173.345 50.7419C173.509 50.7416 173.671 50.7736 173.823 50.836C173.974 50.8984 174.112 50.99 174.228 51.1056C174.344 51.2213 174.436 51.3586 174.499 51.5098C174.562 51.661 174.594 51.8232 174.595 51.987C174.595 52.1508 174.563 52.3131 174.501 52.4645C174.438 52.616 174.347 52.7536 174.231 52.8697V52.8825Z" fill="#004C46"/>
<path d="M108.117 97.6806C108.379 98.144 108.779 98.5145 109.261 98.741C109.594 98.8973 109.935 99.0367 110.282 99.1587C110.506 99.2352 110.705 99.369 110.861 99.5467C111.016 99.7245 111.122 99.9398 111.168 100.171C111.215 100.403 111.199 100.643 111.124 100.866C111.048 101.09 110.916 101.29 110.739 101.446C110.626 101.533 110.497 101.596 110.36 101.633C109.633 101.889 108.878 102.053 108.11 102.121C107.347 102.195 106.579 102.195 105.816 102.121C104.967 102.053 104.131 101.874 103.329 101.588C103.153 101.521 102.997 101.41 102.876 101.266C102.755 101.122 102.672 100.95 102.635 100.765C102.545 100.442 102.581 100.097 102.735 99.7995C102.888 99.5017 103.149 99.2728 103.464 99.1587C103.818 99.0173 104.177 98.8952 104.518 98.7346C104.996 98.5023 105.394 98.1333 105.662 97.6742L105.418 97.4557C105.118 97.1755 104.937 96.7918 104.91 96.3825C104.91 96.2861 104.91 96.1833 104.91 96.0805C104.908 96.0421 104.897 96.0048 104.878 95.9713C104.859 95.9379 104.833 95.9093 104.801 95.8877C104.294 95.5299 103.891 95.0439 103.634 94.4793C103.376 93.9147 103.273 93.2919 103.336 92.6745C103.41 91.8071 103.797 90.9961 104.424 90.3924C105.051 89.7888 105.877 89.4335 106.746 89.3926C107.616 89.3518 108.471 89.6282 109.152 90.1704C109.833 90.7125 110.294 91.4837 110.45 92.3403C110.588 93.0105 110.527 93.7063 110.274 94.3423C110.022 94.9783 109.589 95.5266 109.029 95.9198C109.001 95.9381 108.977 95.9626 108.959 95.9916C108.941 96.0205 108.93 96.0531 108.927 96.0869C108.927 96.299 108.882 96.5175 108.837 96.7295C108.741 97.1001 108.512 97.4226 108.194 97.6356L108.117 97.6806ZM107.32 101.684C107.577 101.684 108.098 101.62 108.605 101.556C109.194 101.48 109.772 101.335 110.327 101.125C110.392 101.1 110.451 101.063 110.501 101.016C110.599 100.915 110.67 100.792 110.709 100.657C110.747 100.522 110.752 100.38 110.723 100.243C110.694 100.106 110.631 99.978 110.541 99.8707C110.451 99.7634 110.336 99.68 110.205 99.6278C109.929 99.5121 109.64 99.4093 109.357 99.3001C108.601 99.0123 107.982 98.4501 107.622 97.7256C107.597 97.6933 107.581 97.6555 107.574 97.6155C107.568 97.5755 107.571 97.5344 107.583 97.4959C107.596 97.4573 107.618 97.4224 107.647 97.3941C107.676 97.3659 107.712 97.3451 107.75 97.3336C107.917 97.255 108.063 97.1375 108.174 96.991C108.286 96.8445 108.361 96.6733 108.393 96.4918C108.432 96.2861 108.445 96.0676 108.464 95.8491C108.465 95.7933 108.481 95.7388 108.509 95.6905C108.537 95.6422 108.577 95.6018 108.624 95.5728C108.974 95.3415 109.272 95.0419 109.503 94.6921C109.733 94.3423 109.89 93.9495 109.964 93.5374C110.039 93.1253 110.029 92.7024 109.936 92.2941C109.843 91.8859 109.668 91.5007 109.422 91.1618C109.176 90.8229 108.864 90.5373 108.504 90.3222C108.145 90.1071 107.746 89.9669 107.331 89.9101C106.916 89.8533 106.494 89.881 106.09 89.9917C105.686 90.1023 105.309 90.2935 104.981 90.5538C104.599 90.8624 104.295 91.257 104.094 91.7053C103.894 92.1536 103.802 92.6429 103.826 93.1335C103.851 93.624 103.991 94.1018 104.235 94.528C104.479 94.9541 104.821 95.3165 105.231 95.5856C105.271 95.6081 105.305 95.6396 105.331 95.6775C105.357 95.7154 105.373 95.7588 105.379 95.8041C105.379 95.9648 105.379 96.119 105.424 96.2797C105.431 96.5041 105.5 96.7221 105.624 96.9094C105.747 97.0967 105.921 97.2458 106.125 97.34C106.158 97.3532 106.187 97.3735 106.211 97.3996C106.235 97.4257 106.253 97.4568 106.264 97.4907C106.274 97.5246 106.277 97.5604 106.272 97.5954C106.267 97.6305 106.254 97.664 106.234 97.6935C105.929 98.3343 105.415 98.8514 104.775 99.1587C104.422 99.3322 104.042 99.4607 103.676 99.6085C103.506 99.6686 103.359 99.7814 103.258 99.9304C103.156 100.08 103.104 100.257 103.111 100.438C103.109 100.612 103.168 100.782 103.277 100.919C103.385 101.056 103.538 101.151 103.708 101.189C104.876 101.555 106.097 101.722 107.32 101.684Z" fill="white" stroke="white" stroke-width="0.481976" stroke-miterlimit="10"/>
<path d="M113.232 96.678C112.981 96.588 112.942 96.5109 113.007 96.2603C113.17 95.7095 113.197 95.1271 113.084 94.5637C113.027 94.3292 112.899 94.1182 112.717 93.9596C112.655 93.8995 112.576 93.858 112.491 93.8398C112.406 93.8217 112.317 93.8276 112.235 93.8568C112.181 93.8828 112.122 93.9001 112.062 93.9082C111.989 93.9187 111.915 93.9051 111.85 93.8697C111.591 93.7132 111.29 93.6413 110.989 93.664C110.955 93.6695 110.92 93.6677 110.886 93.6587C110.853 93.6497 110.822 93.6338 110.795 93.6119C110.769 93.5901 110.747 93.5628 110.731 93.5319C110.716 93.501 110.707 93.4672 110.706 93.4327C110.704 93.399 110.709 93.3653 110.721 93.3337C110.733 93.3022 110.751 93.2734 110.775 93.2492C110.799 93.2251 110.827 93.2061 110.858 93.1934C110.889 93.1807 110.923 93.1747 110.957 93.1756C111.298 93.1491 111.64 93.2157 111.946 93.3684C111.983 93.3834 112.025 93.3834 112.062 93.3684C112.302 93.2831 112.565 93.2883 112.802 93.3829C113.038 93.4775 113.232 93.6552 113.347 93.8825C113.569 94.2169 113.682 94.6123 113.669 95.0136C113.669 95.3606 113.617 95.7012 113.579 96.0482C113.57 96.1097 113.586 96.172 113.624 96.2217C113.685 96.3143 113.725 96.4199 113.739 96.5302C113.763 96.7434 113.744 96.9592 113.682 97.1647C113.62 97.3701 113.517 97.5609 113.379 97.7255C113.373 97.7573 113.373 97.7901 113.379 97.8219C113.347 98.0725 113.334 98.3295 113.289 98.5802C113.218 98.9939 112.988 99.3632 112.647 99.6084L112.602 99.6405C112.723 99.8649 112.882 100.067 113.071 100.238C113.349 100.505 113.679 100.71 114.041 100.842L114.832 101.144C115.047 101.231 115.237 101.373 115.381 101.554C115.526 101.736 115.622 101.952 115.659 102.182C115.695 102.411 115.672 102.646 115.592 102.864C115.511 103.082 115.375 103.275 115.198 103.426C115.047 103.527 114.88 103.601 114.703 103.644C114.139 103.832 113.558 103.964 112.968 104.036C112.174 104.144 111.371 104.172 110.571 104.12C109.635 104.07 108.711 103.886 107.827 103.573C107.634 103.501 107.465 103.378 107.336 103.217C107.207 103.057 107.124 102.865 107.094 102.661C107.088 102.626 107.089 102.59 107.098 102.556C107.107 102.522 107.123 102.49 107.146 102.463C107.169 102.436 107.197 102.414 107.229 102.399C107.262 102.385 107.297 102.378 107.332 102.378C107.386 102.378 107.439 102.395 107.482 102.428C107.525 102.46 107.556 102.506 107.57 102.558C107.57 102.622 107.609 102.693 107.634 102.757C107.668 102.842 107.719 102.918 107.784 102.981C107.85 103.044 107.928 103.093 108.013 103.124C108.739 103.373 109.492 103.535 110.256 103.606C110.878 103.664 111.503 103.675 112.126 103.638C113.04 103.591 113.941 103.407 114.8 103.091C114.904 103.043 114.994 102.968 115.06 102.873C115.126 102.778 115.164 102.667 115.172 102.552C115.211 102.348 115.174 102.137 115.069 101.959C114.964 101.78 114.797 101.646 114.6 101.581L113.855 101.292C113.09 101.008 112.457 100.449 112.081 99.7241C111.972 99.5184 112.004 99.4028 112.21 99.2999C112.401 99.1977 112.562 99.046 112.675 98.8607C112.788 98.6753 112.849 98.4631 112.852 98.246C112.852 98.0339 112.891 97.8154 112.923 97.6034C112.946 97.5355 112.981 97.4724 113.026 97.417C113.076 97.3636 113.122 97.3055 113.161 97.2435C113.226 97.0627 113.251 96.8694 113.232 96.678Z" fill="white" stroke="white" stroke-width="0.481976" stroke-miterlimit="10"/>
<path d="M101.273 99.6663C101.086 99.5468 100.927 99.3906 100.803 99.2071C100.679 99.0237 100.594 98.8169 100.553 98.5995C100.514 98.381 100.502 98.1561 100.476 97.9569C100.469 97.8637 100.436 97.7745 100.379 97.6998C100.138 97.361 100.037 96.942 100.097 96.5302C100.127 96.4243 100.174 96.3243 100.238 96.2346C100.262 96.2008 100.276 96.1605 100.277 96.1189C100.277 95.939 100.212 95.7591 100.187 95.5791C100.094 95.1818 100.094 94.7683 100.187 94.371C100.262 94.1163 100.432 93.9002 100.662 93.7669C101.019 93.536 101.409 93.3626 101.819 93.2528C102.16 93.1638 102.519 93.1749 102.854 93.2849C102.887 93.2908 102.918 93.3035 102.946 93.3224C102.973 93.3412 102.997 93.3657 103.014 93.3942C103.032 93.4227 103.043 93.4546 103.048 93.4878C103.052 93.5211 103.05 93.5548 103.04 93.587C103.032 93.6197 103.017 93.6505 102.997 93.6771C102.976 93.7038 102.95 93.7257 102.92 93.7415C102.89 93.7573 102.858 93.7666 102.824 93.7688C102.79 93.7709 102.757 93.7659 102.725 93.754C102.295 93.6318 101.833 93.6825 101.44 93.8954C101.286 93.9661 101.151 94.0561 100.996 94.1268C100.868 94.1902 100.761 94.2895 100.688 94.4127C100.615 94.5359 100.579 94.6777 100.585 94.8208C100.573 95.1426 100.603 95.4645 100.675 95.7783C100.714 95.9904 100.739 96.2025 100.759 96.421C100.778 96.6395 100.694 96.6395 100.514 96.6909C100.508 96.8367 100.531 96.9824 100.582 97.1192C100.632 97.2561 100.71 97.3814 100.81 97.4878C100.85 97.536 100.876 97.5935 100.887 97.6548C100.926 97.9633 100.945 98.2975 101.003 98.5738C101.034 98.7412 101.105 98.8988 101.209 99.0339C101.313 99.169 101.447 99.2777 101.6 99.3514C101.806 99.4542 101.851 99.5635 101.748 99.7691C101.381 100.503 100.746 101.069 99.9746 101.35L99.1842 101.658C99.059 101.707 98.947 101.784 98.8572 101.884C98.7674 101.983 98.7024 102.103 98.6674 102.232C98.6323 102.362 98.6283 102.498 98.6555 102.629C98.6828 102.761 98.7406 102.884 98.8243 102.989C98.8805 103.062 98.9563 103.118 99.0428 103.149C99.7132 103.4 100.413 103.564 101.125 103.638C101.882 103.724 102.646 103.737 103.406 103.676C104.016 103.631 104.621 103.529 105.212 103.374C105.458 103.305 105.701 103.224 105.938 103.13C106.073 103.079 106.125 102.944 106.189 102.822C106.253 102.7 106.234 102.687 106.26 102.622C106.266 102.591 106.279 102.562 106.298 102.536C106.316 102.51 106.339 102.488 106.366 102.471C106.393 102.455 106.423 102.443 106.455 102.438C106.486 102.434 106.518 102.435 106.549 102.442C106.58 102.45 106.609 102.464 106.635 102.483C106.661 102.502 106.683 102.525 106.7 102.553C106.717 102.58 106.728 102.611 106.733 102.643C106.738 102.674 106.736 102.707 106.729 102.738C106.675 103.042 106.507 103.313 106.26 103.496C106.092 103.598 105.91 103.674 105.72 103.721C104.985 103.955 104.226 104.104 103.458 104.165C102.846 104.206 102.232 104.206 101.62 104.165C100.79 104.116 99.9693 103.963 99.1778 103.708L98.9079 103.618C98.7099 103.549 98.5358 103.424 98.4061 103.259C98.2763 103.094 98.1963 102.896 98.1753 102.687C98.1134 102.374 98.1656 102.05 98.3225 101.773C98.4793 101.496 98.7303 101.284 99.03 101.176C99.3191 101.061 99.6147 100.958 99.8975 100.842C100.431 100.62 100.88 100.236 101.183 99.7434C101.21 99.7147 101.24 99.6888 101.273 99.6663Z" fill="white" stroke="white" stroke-width="0.481976" stroke-miterlimit="10"/>
<path d="M111.176 91.1002C111.208 91.0411 111.252 90.9887 111.304 90.946C111.568 90.7854 111.838 90.6311 112.108 90.4769C112.163 90.4474 112.227 90.4396 112.288 90.455C112.348 90.4705 112.401 90.5081 112.435 90.5604C112.453 90.5872 112.465 90.6173 112.47 90.6489C112.476 90.6804 112.475 90.7127 112.468 90.7439C112.461 90.7752 112.447 90.8046 112.428 90.8305C112.41 90.8564 112.386 90.8782 112.358 90.8946C112.082 91.0553 111.799 91.2223 111.51 91.3766C111.33 91.4601 111.176 91.3252 111.176 91.1002Z" fill="white" stroke="white" stroke-width="0.481976" stroke-miterlimit="10"/>
<path d="M103.869 88.0397C103.932 88.0714 103.989 88.1151 104.036 88.1682C104.197 88.4253 104.345 88.6952 104.499 88.9651C104.516 88.9927 104.527 89.0235 104.532 89.0556C104.536 89.0876 104.534 89.1203 104.526 89.1516C104.517 89.1829 104.503 89.2122 104.483 89.2376C104.462 89.2629 104.437 89.284 104.409 89.2993C104.382 89.3164 104.352 89.3279 104.321 89.3329C104.29 89.338 104.258 89.3366 104.227 89.3287C104.196 89.3209 104.167 89.3068 104.142 89.2874C104.117 89.2679 104.096 89.2436 104.081 89.2157C103.92 88.9458 103.766 88.6759 103.612 88.406C103.59 88.3651 103.58 88.319 103.583 88.2727C103.586 88.2264 103.601 88.1817 103.628 88.1438C103.654 88.1058 103.691 88.076 103.734 88.0576C103.776 88.0392 103.823 88.033 103.869 88.0397Z" fill="white" stroke="white" stroke-width="0.481976" stroke-miterlimit="10"/>
<path d="M110.199 88.336C110.189 88.3755 110.176 88.4142 110.161 88.4517L109.717 89.2228C109.702 89.2527 109.681 89.2792 109.656 89.3007C109.631 89.3222 109.601 89.3382 109.569 89.3479C109.537 89.3575 109.504 89.3605 109.471 89.3567C109.437 89.3529 109.405 89.3423 109.377 89.3257C109.348 89.3091 109.322 89.2868 109.302 89.2603C109.282 89.2337 109.267 89.2034 109.259 89.1711C109.25 89.1387 109.248 89.1051 109.253 89.072C109.258 89.039 109.269 89.0072 109.287 88.9786L109.743 88.1882C109.77 88.1396 109.812 88.1017 109.864 88.0807C109.915 88.0597 109.972 88.0568 110.026 88.0725C110.08 88.0899 110.127 88.1256 110.159 88.1735C110.191 88.2215 110.205 88.2789 110.199 88.336Z" fill="white" stroke="white" stroke-width="0.481976" stroke-miterlimit="10"/>
<path d="M102.655 91.1378C102.653 91.1811 102.641 91.2234 102.619 91.2609C102.597 91.2985 102.567 91.3303 102.53 91.3536C102.494 91.377 102.452 91.3911 102.409 91.3949C102.366 91.3988 102.322 91.3921 102.282 91.3755C101.999 91.2213 101.723 91.0542 101.447 90.8871C101.42 90.8713 101.397 90.8504 101.379 90.8256C101.361 90.8008 101.348 90.7726 101.341 90.7427C101.333 90.7128 101.332 90.6817 101.337 90.6513C101.342 90.621 101.353 90.5919 101.37 90.5658C101.385 90.5378 101.407 90.5133 101.432 90.4938C101.458 90.4743 101.487 90.4602 101.519 90.4524C101.55 90.4446 101.582 90.4432 101.614 90.4484C101.646 90.4535 101.677 90.465 101.704 90.4823C101.974 90.6301 102.244 90.7843 102.507 90.945C102.571 90.9835 102.61 91.0735 102.655 91.1378Z" fill="white" stroke="white" stroke-width="0.481976" stroke-miterlimit="10"/>
<path d="M106.678 87.765V87.3216C106.676 87.2879 106.681 87.2542 106.693 87.2227C106.705 87.1911 106.723 87.1623 106.747 87.1382C106.77 87.114 106.798 87.095 106.83 87.0823C106.861 87.0697 106.895 87.0636 106.928 87.0645C106.961 87.0645 106.993 87.0711 107.022 87.0838C107.052 87.0965 107.079 87.1152 107.101 87.1387C107.123 87.1621 107.141 87.1899 107.152 87.2202C107.163 87.2506 107.168 87.2829 107.166 87.3152V88.2277C107.172 88.2627 107.17 88.2984 107.16 88.3325C107.151 88.3667 107.134 88.3983 107.111 88.4253C107.088 88.4523 107.06 88.474 107.028 88.4888C106.995 88.5037 106.96 88.5114 106.925 88.5114C106.89 88.5114 106.855 88.5037 106.822 88.4888C106.79 88.474 106.762 88.4523 106.739 88.4253C106.716 88.3983 106.699 88.3667 106.69 88.3325C106.68 88.2984 106.678 88.2627 106.684 88.2277C106.678 88.0799 106.678 87.9193 106.678 87.765Z" fill="white" stroke="white" stroke-width="0.481976" stroke-miterlimit="10"/>
<path d="M107.127 94.3514V96.2793C107.127 96.4529 107.03 96.5621 106.883 96.5621C106.735 96.5621 106.638 96.4529 106.638 96.2793V94.3514C106.536 94.3514 106.439 94.3193 106.343 94.2936C106.218 94.2532 106.106 94.1829 106.015 94.0887C105.924 93.9946 105.858 93.8796 105.822 93.7538C105.713 93.4003 105.604 93.0469 105.501 92.6934C105.487 92.6621 105.48 92.628 105.48 92.5935C105.48 92.5591 105.488 92.5251 105.502 92.4939C105.517 92.4627 105.538 92.4351 105.565 92.413C105.591 92.3909 105.622 92.3747 105.655 92.3657C105.687 92.355 105.721 92.3513 105.755 92.3548C105.788 92.3583 105.821 92.3689 105.85 92.3859C105.879 92.4029 105.905 92.426 105.924 92.4535C105.944 92.4811 105.957 92.5125 105.964 92.5456C106.073 92.8798 106.176 93.1883 106.279 93.561C106.284 93.6055 106.298 93.6484 106.321 93.6871C106.344 93.7258 106.374 93.7594 106.41 93.7859C106.446 93.8124 106.487 93.8312 106.531 93.8411C106.575 93.8511 106.62 93.852 106.664 93.8438C106.825 93.8438 106.992 93.8438 107.153 93.8438C107.227 93.8482 107.301 93.8252 107.36 93.7791C107.42 93.7329 107.46 93.6668 107.474 93.5931C107.59 93.2397 107.699 92.8798 107.814 92.5199C107.833 92.4757 107.864 92.438 107.904 92.4115C107.944 92.385 107.991 92.3708 108.039 92.3708C108.087 92.3708 108.134 92.385 108.174 92.4115C108.214 92.438 108.246 92.4757 108.264 92.5199C108.28 92.5832 108.28 92.6495 108.264 92.7127C108.155 93.079 108.046 93.4453 107.924 93.8052C107.866 93.9692 107.758 94.1106 107.615 94.2089C107.471 94.3071 107.301 94.3571 107.127 94.3514Z" fill="white" stroke="white" stroke-width="0.481976" stroke-miterlimit="10"/>
</g>
<defs>
<clipPath id="clip0_1343_60048">
<rect width="310.817" height="157.143" fill="white"/>
</clipPath>
</defs>
</svg>
