<svg width="326" height="180" viewBox="0 0 326 180" fill="none" xmlns="http://www.w3.org/2000/svg">
<g clip-path="url(#clip0_1343_61397)">
<path d="M286.199 178.342L285.935 177.891C291.155 174.883 295.937 170.35 300.152 164.424C304.317 158.451 307.554 151.882 309.751 144.94C314.312 130.752 315.92 115.621 317.452 100.975C305.267 104.697 293.802 114.463 285.942 127.834C277.992 141.35 273.834 158.373 274.534 174.543H274.014C273.321 158.276 277.479 141.149 285.492 127.549C293.504 113.95 305.232 103.983 317.681 100.344L318.048 100.24L318.006 100.621C316.461 115.413 314.867 130.71 310.243 145.079C308.02 152.072 304.748 158.688 300.54 164.701C296.319 170.71 291.481 175.292 286.199 178.342Z" fill="#31BC2E"/>
<path d="M275.74 175.36L275.22 175.318C275.691 169.87 277.389 164.395 280.418 158.586C283.209 153.464 286.44 148.594 290.073 144.03L292.25 141.258C298.488 133.218 304.989 124.9 308.025 114.76L308.517 114.912C305.461 125.143 298.952 133.495 292.659 141.577C291.966 142.492 291.203 143.441 290.482 144.349C286.869 148.893 283.657 153.743 280.883 158.843C277.881 164.589 276.197 169.995 275.74 175.36Z" fill="#31BC2E"/>
<path d="M289.436 148.619C288.722 148.619 288.008 148.571 287.301 148.474L287.37 147.961C290.61 148.356 293.894 147.817 296.838 146.408C300.003 144.92 302.751 142.673 304.837 139.865L305.253 140.177C303.113 143.053 300.297 145.355 297.053 146.88C294.67 148.006 292.071 148.599 289.436 148.619Z" fill="#31BC2E"/>
<path d="M294.537 138.41C293.719 135.329 293.561 132.109 294.072 128.962C294.583 125.815 295.752 122.811 297.504 120.146L297.926 120.438C296.22 123.041 295.081 125.974 294.583 129.047C294.085 132.12 294.24 135.263 295.036 138.272L294.537 138.41Z" fill="#31BC2E"/>
<path d="M303.894 178.404L303.714 177.919C309.585 175.701 314.873 171.168 318.609 165.158C321.784 160.057 323.925 153.826 324.993 146.638C318.37 146.967 312.052 149.516 307.055 153.874L306.708 153.486C311.875 148.977 318.431 146.375 325.284 146.111H325.589L325.547 146.423C324.487 153.805 322.303 160.21 319.053 165.443C315.254 171.542 309.876 176.144 303.894 178.404Z" fill="#31BC2E"/>
<path d="M288.153 177.032L287.932 176.567C299.74 170.989 310.373 163.207 319.261 153.639L319.635 153.992C310.706 163.609 300.02 171.429 288.153 177.032Z" fill="#31BC2E"/>
<path d="M242.927 178.722C238.155 176.839 234.011 173.649 230.97 169.518C227.857 165.365 225.635 160.615 224.441 155.565C221.974 145.355 223.145 134.466 224.441 125.067L224.504 124.645L224.85 124.894C233.119 130.689 241.672 136.677 247.869 144.946C254.8 154.151 257.233 164.971 254.433 173.891L253.941 173.739C256.713 164.978 254.266 154.331 247.46 145.258C241.395 137.169 233.029 131.257 224.899 125.559C223.644 134.82 222.549 145.48 224.961 155.447C226.135 160.429 228.325 165.116 231.393 169.213C234.38 173.257 238.444 176.379 243.121 178.223L242.927 178.722Z" fill="#31BC2E"/>
<path d="M230.09 134.438L229.624 134.668L249.6 175.105L250.066 174.874L230.09 134.438Z" fill="#31BC2E"/>
<path d="M240.515 157.706C237.759 157.679 235.055 156.952 232.657 155.591C230.26 154.23 228.248 152.282 226.812 149.929L227.256 149.666C228.677 151.988 230.677 153.902 233.059 155.22C235.442 156.538 238.125 157.215 240.848 157.186V157.706H240.515Z" fill="#31BC2E"/>
<path d="M46.2453 177.981C40.0853 176.632 34.4145 173.616 29.8529 169.261C25.202 164.898 21.4365 159.678 18.7629 153.888C13.3704 142.375 11.7207 129.629 10.1335 117.305L10.078 116.875L10.48 117.027C25.8397 122.774 36.5693 129.386 44.2561 137.821C54.0638 148.634 58.2225 162.808 55.0965 174.827L54.5975 174.696C57.6819 162.85 53.5717 148.856 43.8679 138.189C36.3059 129.871 25.7565 123.349 10.6949 117.665C12.2614 129.823 13.9249 142.361 19.2273 153.708C21.8717 159.438 25.6 164.602 30.2064 168.915C34.6965 173.207 40.2815 176.181 46.3493 177.51L46.2453 177.981Z" fill="#31BC2E"/>
<path d="M51.6171 174.96C47.3681 166.668 42.3486 158.794 36.6248 151.442C30.9029 144.088 24.5001 137.291 17.5015 131.14L17.8411 130.752C24.8634 136.918 31.2894 143.731 37.0338 151.102C42.7784 158.48 47.8165 166.382 52.0815 174.703L51.6171 174.96Z" fill="#31BC2E"/>
<path d="M33.3743 148.564C28.4102 146.826 23.5503 144.803 18.8186 142.506L19.0473 142.035C23.7779 144.33 28.638 146.349 33.603 148.079L33.3743 148.564Z" fill="#31BC2E"/>
<path d="M42.5389 145.605L41.3799 157.115L41.8971 157.167L43.0561 145.657L42.5389 145.605Z" fill="#31BC2E"/>
<path d="M25.2572 177.842C22.0448 177.794 18.9042 176.884 16.1633 175.208C13.1531 173.393 10.556 170.968 8.53895 168.089C6.87545 165.74 5.07332 161.526 3.17415 155.558C1.7879 151.122 0.838317 147.323 0.824455 147.289L0.727417 146.887L1.12943 146.97C1.67007 147.081 14.3751 149.742 18.922 153.804L18.5754 154.185C16.7456 152.543 13.1344 150.865 8.13 149.333C5.11491 148.405 2.42558 147.788 1.42747 147.573C2.05129 150.006 5.41988 162.822 8.96176 167.791C10.933 170.614 13.4765 172.99 16.4267 174.764C19.2988 176.532 22.6282 177.414 25.9988 177.301V177.821L25.2572 177.842Z" fill="#31BC2E"/>
<path d="M23.5664 171.334C18.4399 164.216 12.5401 157.688 5.97485 151.871L6.32142 151.482C12.9149 157.325 18.8382 163.883 23.9823 171.036L23.5664 171.334Z" fill="#31BC2E"/>
<path d="M88.9555 178.571L88.6158 178.176C95.2496 172.475 99.899 164.812 101.892 156.295C103.886 147.778 103.12 138.847 99.7059 130.794C95.0285 131.7 90.7126 133.938 87.2781 137.24C83.695 140.604 80.861 144.685 78.9606 149.217C75.2593 157.971 74.5523 167.772 74.1087 177.885H73.5889C74.0394 167.724 74.7464 157.867 78.4823 149.037C80.4031 144.439 83.2701 140.297 86.8969 136.88C90.4505 133.476 94.9224 131.187 99.7613 130.295H99.9554L100.039 130.482C103.558 138.647 104.38 147.721 102.385 156.385C100.39 165.049 95.6833 172.85 88.9485 178.654L88.9555 178.571Z" fill="#31BC2E"/>
<path d="M80.8603 176.747L80.3682 176.588C84.0093 165.28 89.1123 154.496 95.5476 144.51L95.9843 144.794C89.5704 154.739 84.4859 165.482 80.8603 176.747Z" fill="#31BC2E"/>
<path d="M88.4984 157.34L88.2003 156.91C91.4941 154.659 95.2379 153.15 99.1725 152.488L99.2626 153.001C95.402 153.649 91.7287 155.129 88.4984 157.34Z" fill="#31BC2E"/>
<path d="M182.493 127.141H137.419V177.912H182.493V127.141Z" fill="#58595B"/>
<path d="M182.874 178.3H137.031V126.752H182.874V178.3ZM137.821 177.523H182.112V127.535H137.821V177.523Z" fill="#58595B"/>
<path d="M182.493 127.141H137.419V148.78H182.493V127.141Z" fill="#929497"/>
<path d="M159.953 155.809C166.583 155.809 171.958 150.434 171.958 143.804C171.958 137.174 166.583 131.799 159.953 131.799C153.323 131.799 147.948 137.174 147.948 143.804C147.948 150.434 153.323 155.809 159.953 155.809Z" fill="white"/>
<path d="M253.019 0.734375H66.8864C64.6891 0.734375 62.9078 2.51563 62.9078 4.71292V137.01C62.9078 139.207 64.6891 140.988 66.8864 140.988H253.019C255.216 140.988 256.997 139.207 256.997 137.01V4.71292C256.997 2.51563 255.216 0.734375 253.019 0.734375Z" fill="#929497" stroke="#404041" stroke-width="0.693126" stroke-miterlimit="10"/>
<path d="M252.679 141.397H67.2332C65.9856 141.395 64.7895 140.899 63.9073 140.016C63.0251 139.134 62.5287 137.938 62.5269 136.691V5.05203C62.5287 3.8044 63.0251 2.60839 63.9073 1.72618C64.7895 0.843969 65.9856 0.347537 67.2332 0.345703H252.679C253.927 0.347537 255.123 0.843969 256.005 1.72618C256.887 2.60839 257.384 3.8044 257.385 5.05203V136.67C257.387 137.289 257.267 137.903 257.031 138.476C256.796 139.049 256.449 139.57 256.012 140.009C255.575 140.448 255.056 140.797 254.484 141.035C253.912 141.273 253.299 141.396 252.679 141.397ZM67.2332 1.122C66.1909 1.122 65.1913 1.53606 64.4542 2.27308C63.7172 3.0101 63.3032 4.00972 63.3032 5.05203V136.67C63.3032 137.712 63.7172 138.712 64.4542 139.449C65.1913 140.186 66.1909 140.6 67.2332 140.6H252.679C253.721 140.6 254.721 140.186 255.458 139.449C256.195 138.712 256.609 137.712 256.609 136.67V5.05203C256.609 4.00972 256.195 3.0101 255.458 2.27308C254.721 1.53606 253.721 1.122 252.679 1.122H67.2332Z" fill="#929497" stroke="#404041" stroke-width="0.693126" stroke-miterlimit="10"/>
<path d="M253.469 5.68359H66.429V120.86H253.469V5.68359Z" fill="white" stroke="#929497" stroke-width="0.693126" stroke-miterlimit="10"/>
<path d="M253.864 121.248H66.0271V5.29492H253.864V121.248ZM66.8173 120.472H253.088V6.07122H66.8173V120.472Z" fill="#86A7FF" stroke="#929497" stroke-width="0.693126" stroke-miterlimit="10"/>
<path d="M179.451 15.7617H137.142V20.7106H179.451V15.7617Z" fill="#31BC2E"/>
<path d="M213.15 25.5352H103.449V27.3858H213.15V25.5352Z" fill="#31BC2E"/>
<path d="M234.242 80.8887H191.919V82.7393H234.242V80.8887Z" fill="#065953"/>
<path d="M228.364 85.4824H191.919V87.3331H228.364V85.4824Z" fill="#065953"/>
<path d="M214.903 90.0801H191.919V91.9307H214.903V90.0801Z" fill="#065953"/>
<path d="M229.147 98.6309H191.919V100.482H229.147V98.6309Z" fill="#31BC2E"/>
<path d="M223.976 103.227H191.919V105.077H223.976V103.227Z" fill="#31BC2E"/>
<path d="M100.441 76.3477H82.4751V104.509H100.441V76.3477Z" fill="#31BC2E"/>
<path d="M125.193 76.3066H105.002V85.6084H125.193V76.3066Z" fill="#065953"/>
<path d="M125.193 90.1426H105.002V104.553H125.193V90.1426Z" fill="#31BC2E"/>
<path d="M176.99 104.751H139.603C138.836 104.751 138.101 104.446 137.559 103.904C137.017 103.362 136.712 102.627 136.712 101.86V83.0768C136.714 82.3114 137.02 81.578 137.561 81.0375C138.103 80.4969 138.837 80.1934 139.603 80.1934H176.99C177.755 80.1934 178.489 80.4969 179.031 81.0375C179.573 81.578 179.878 82.3114 179.88 83.0768V101.888C179.873 102.65 179.565 103.378 179.024 103.914C178.483 104.45 177.752 104.751 176.99 104.751ZM139.603 80.6439C138.957 80.6439 138.337 80.9 137.88 81.356C137.423 81.8121 137.165 82.4309 137.163 83.0768V101.888C137.165 102.535 137.422 103.154 137.88 103.611C138.337 104.069 138.956 104.326 139.603 104.328H176.99C177.636 104.326 178.256 104.069 178.713 103.611C179.17 103.154 179.428 102.535 179.43 101.888V83.1045C179.428 82.4586 179.17 81.8398 178.713 81.3838C178.255 80.9277 177.636 80.6716 176.99 80.6716L139.603 80.6439Z" fill="#31BC2E"/>
<path d="M141.203 99.5483L140.801 99.3404L143.352 94.232L146.513 97.5382L150.269 89.4217L155.309 94.1558L160.86 88.6108L166.281 91.9239L173.233 84.6738L173.565 84.9857L166.35 92.4992L160.923 89.1791L155.322 94.7865L150.415 90.1773L146.644 98.3353L143.47 95.0083L141.203 99.5483Z" fill="#31BC2E"/>
<path d="M164.514 98.5H160.216V100.76H164.514V98.5Z" fill="#31BC2E"/>
<path d="M174.792 99.4082H167.334V99.8587H174.792V99.4082Z" fill="#31BC2E"/>
<path opacity="0.3" d="M175.153 49.9806C174.402 47.2027 172.978 44.6528 171.006 42.5574C169.034 40.462 166.575 38.8858 163.848 37.9688L158.303 54.5137L175.153 49.9806Z" fill="#31BC2E"/>
<path d="M158.296 54.5155L150.568 70.1663C153.578 71.6506 156.953 72.2359 160.287 71.8519C163.621 71.468 166.774 70.1311 169.369 68.0014C171.963 65.8717 173.888 63.0394 174.914 59.8436C175.94 56.6479 176.023 53.2242 175.153 49.9824L158.296 54.5155Z" fill="#065953"/>
<path d="M163.848 37.969C159.653 36.5596 155.078 36.797 151.051 38.6331C147.024 40.4691 143.844 43.7667 142.157 47.8583C140.469 51.95 140.399 56.53 141.96 60.6714C143.522 64.8128 146.599 68.2062 150.568 70.1647L158.296 54.5139L163.848 37.969Z" fill="#31BC2E"/>
<path d="M116.126 66.7695H91.5413V68.6202H116.126V66.7695Z" fill="#D3DFFF"/>
<path d="M125.456 62.7221H82.2462V37.7695H125.456V62.7221ZM82.7314 62.2715H125.012V38.2201H82.7314V62.2715Z" fill="#31BC2E"/>
<path d="M122.253 43.2157C120.826 42.9246 119.405 43.8604 118.497 45.0109C118.079 45.5629 117.701 46.1443 117.367 46.7507C116.997 47.4293 116.583 48.0823 116.126 48.7053C115.239 49.8698 113.86 50.8471 112.418 50.6253C110.075 50.2648 108.793 47.0557 106.422 47.0903C105.324 47.2385 104.327 47.8138 103.65 48.6914C102.966 49.5764 102.136 50.3382 101.196 50.9441C100.485 51.251 99.7147 51.3988 98.9401 51.3772C98.1656 51.3557 97.405 51.1653 96.7116 50.8193C95.2907 50.2025 94.0431 49.2529 92.6915 48.4974C90.4089 47.2438 87.8578 46.5591 85.2543 46.5012V58.7071H122.413V43.2573C122.361 43.2403 122.307 43.2264 122.253 43.2157Z" fill="#065953"/>
<path d="M96.7049 50.8201C97.3982 51.166 98.1588 51.3564 98.9333 51.3779C99.7079 51.3995 100.478 51.2517 101.189 50.9448C102.12 50.3364 102.94 49.5747 103.615 48.6922C104.293 47.8145 105.289 47.2392 106.388 47.091C108.758 47.091 110.041 50.2656 112.383 50.626C113.825 50.8478 115.204 49.8705 116.092 48.706C116.548 48.083 116.963 47.43 117.332 46.7514C115.891 46.8207 114.449 46.89 113.174 46.2246C111.898 45.5592 111.094 44.2769 109.888 43.6046C107.663 42.4055 104.953 43.5492 102.742 44.7691C101.418 45.4622 99.9695 46.2731 98.4793 45.9127C96.8227 45.5107 95.8523 43.8333 94.473 42.8144C91.8322 40.8876 87.8606 41.8233 85.6079 44.2007C85.3447 44.4773 85.1982 44.8447 85.199 45.2265V46.5088C87.8201 46.5632 90.3889 47.2529 92.6847 48.5189C94.0363 49.2536 95.284 50.2032 96.7049 50.8201Z" fill="#31BC2E"/>
<path d="M234.463 72.7164H191.226V37.7344H234.463V72.7164ZM191.746 72.2035H233.944V38.2404H191.746V72.2035Z" fill="#31BC2E"/>
<path d="M202.899 52.3027H198.38V67.5238H202.899V52.3027Z" fill="#065953"/>
<path d="M202.899 44.623H198.38V52.3098H202.899V44.623Z" fill="#31BC2E"/>
<path d="M211.036 44.623H206.517V56.0388H211.036V44.623Z" fill="#31BC2E"/>
<path d="M211.036 56.0391H206.517V67.5311H211.036V56.0391Z" fill="#065953"/>
<path d="M219.174 49.6484H214.654V67.5242H219.174V49.6484Z" fill="#065953"/>
<path d="M219.174 44.623H214.654V49.6551H219.174V44.623Z" fill="#31BC2E"/>
<path d="M227.31 56.3164H222.791V67.5243H227.31V56.3164Z" fill="#065953"/>
<path d="M227.31 44.623H222.791V56.323H227.31V44.623Z" fill="#31BC2E"/>
<path d="M323.787 177.523H-0.00012207V178.3H323.787V177.523Z" fill="#102048"/>
<mask id="mask0_1343_61397" style="mask-type:luminance" maskUnits="userSpaceOnUse" x="233" y="32" width="58" height="146">
<path d="M290.766 32.293H233.036V177.898H290.766V32.293Z" fill="white"/>
</mask>
<g mask="url(#mask0_1343_61397)">
<path d="M252.298 173.483L256.006 161.284L249.158 159.42L246.06 168.271L252.298 173.483Z" fill="#A34321"/>
<path d="M253.053 171.202C253.068 171.086 253.054 170.969 253.015 170.86C252.975 170.75 252.909 170.652 252.824 170.573C252.739 170.493 252.636 170.436 252.524 170.404C252.412 170.372 252.294 170.368 252.18 170.391C251.351 170.537 250.501 170.504 249.685 170.295C248.87 170.086 248.109 169.705 247.453 169.178C247.453 169.178 247.328 166.939 245.152 167.646C243.3 168.772 241.163 169.339 238.997 169.282C234.332 169.004 233.59 171.028 233.59 171.028L233.036 173.108L251.224 177.897L251.965 175.534C251.965 175.534 252.755 172.907 253.053 171.202Z" fill="black"/>
<path d="M240.937 171.486L240.023 169.289" stroke="#004C46" stroke-width="2.07938" stroke-miterlimit="10"/>
<path d="M242.386 171.293L241.492 169.123" stroke="#004C46" stroke-width="2.07938" stroke-miterlimit="10"/>
<path d="M243.835 170.91L242.941 168.713" stroke="#004C46" stroke-width="2.07938" stroke-miterlimit="10"/>
<path d="M287.828 161.243L280.162 151.061L274.617 155.427L279.94 163.197L287.828 161.243Z" fill="#A34321"/>
<path d="M286.448 159.26C286.363 159.181 286.262 159.123 286.15 159.09C286.039 159.058 285.922 159.052 285.808 159.073C285.695 159.094 285.587 159.141 285.495 159.211C285.403 159.28 285.328 159.371 285.277 159.475C284.902 160.23 284.369 160.896 283.715 161.428C283.061 161.96 282.301 162.345 281.485 162.559C281.266 162.392 281.007 162.283 280.734 162.242C280.461 162.201 280.183 162.23 279.924 162.325C279.665 162.42 279.434 162.579 279.252 162.788C279.071 162.996 278.945 163.246 278.886 163.516C278.701 165.677 277.903 167.74 276.585 169.463C273.604 173.06 274.797 174.848 274.797 174.848L276.141 176.491L290.745 164.645L289.276 162.649C289.297 162.691 287.647 160.514 286.448 159.26Z" fill="black"/>
<path d="M279.524 169.206L277.202 168.631" stroke="#004C46" stroke-width="2.07938" stroke-miterlimit="10"/>
<path d="M280.231 167.903L277.909 167.355" stroke="#004C46" stroke-width="2.07938" stroke-miterlimit="10"/>
<path d="M280.778 166.525L278.463 165.949" stroke="#004C46" stroke-width="2.07938" stroke-miterlimit="10"/>
<path d="M252.201 123.203L275.171 160.577L284.119 154.81L262.695 117.561C262.082 116.53 261.174 115.706 260.087 115.197C259.001 114.688 257.787 114.517 256.602 114.706C255.668 114.823 254.776 115.166 254.003 115.704C253.231 116.243 252.601 116.961 252.167 117.798C251.734 118.634 251.511 119.563 251.517 120.505C251.523 121.446 251.757 122.373 252.201 123.203Z" fill="#022D2B"/>
<path d="M267.235 87.5984L260.082 121.229C259.828 122.278 259.189 123.193 258.291 123.793C257.394 124.393 256.304 124.635 255.238 124.469C254.171 124.303 253.205 123.743 252.533 122.899C251.86 122.055 251.529 120.989 251.605 119.912L255.14 86.0527L267.235 87.5984Z" fill="#022D2B"/>
<path d="M276.675 85.9835L277.5 94.6059L254.502 168.14L245.172 165.222L262.383 97.7319L255.251 84.7012L276.675 85.9835Z" fill="#004C46"/>
<path d="M247.01 77.8862L239.087 102.27L244.196 104.419C244.196 104.419 249.741 89.2812 252.992 79.8061C253.504 78.2882 252.243 76.2434 250.711 75.8622C249.283 75.481 247.37 76.4583 247.01 77.8862Z" fill="#A34321"/>
<path d="M252.332 82.0385L255.437 66.6234L249.373 65.5352L246.157 80.2502C246.013 80.9188 246.137 81.6169 246.503 82.1949C246.868 82.7728 247.446 83.1845 248.111 83.3416C249.456 83.6396 251.944 83.3624 252.332 82.0385Z" fill="#A34321"/>
<path d="M257.246 74.1642L247.196 71.7382L249.899 60.5165C250.221 59.1828 251.059 58.0316 252.23 57.316C252.809 56.9617 253.453 56.725 254.124 56.6195C254.795 56.5139 255.481 56.5416 256.141 56.7009C256.801 56.8602 257.424 57.1479 257.973 57.5478C258.522 57.9477 258.987 58.4518 259.341 59.0314C259.696 59.611 259.932 60.2547 260.038 60.9258C260.144 61.5968 260.116 62.2821 259.957 62.9425L257.246 74.1642Z" fill="#31B92E"/>
<path d="M289.602 73.0767L281.208 59.7617L276.072 63.1719L283.911 76.0363C284.267 76.6173 284.838 77.0347 285.499 77.1981C286.161 77.3616 286.86 77.2579 287.446 76.9097C288.638 76.2443 290.26 74.3104 289.602 73.0767Z" fill="#A34321"/>
<path d="M274.734 88.7205H256.228C255.714 88.7187 255.221 88.5136 254.858 88.1501C254.494 87.7865 254.289 87.2939 254.287 86.7798V58.1675C254.287 57.7429 254.456 57.3356 254.756 57.0354C255.056 56.7351 255.464 56.5664 255.888 56.5664H276.682V86.7659C276.677 87.2814 276.47 87.7744 276.106 88.1397C275.742 88.5049 275.25 88.7133 274.734 88.7205Z" fill="#31B92E"/>
<path d="M279.586 74.1644L288.132 68.356L281.631 58.8117C280.858 57.6793 279.667 56.9004 278.319 56.6462C276.972 56.3921 275.579 56.6836 274.446 57.4566C273.314 58.2296 272.535 59.4208 272.281 60.7681C272.027 62.1154 272.318 63.5085 273.091 64.6409L279.586 74.1644Z" fill="#31B92E"/>
<path d="M270.624 37.7895C270.624 38.8766 270.302 39.9393 269.698 40.8431C269.094 41.747 268.235 42.4515 267.231 42.8676C266.227 43.2836 265.121 43.3924 264.055 43.1803C262.989 42.9683 262.01 42.4448 261.241 41.6761C260.472 40.9074 259.949 39.928 259.737 38.8618C259.525 37.7956 259.633 36.6904 260.049 35.686C260.465 34.6817 261.17 33.8233 262.074 33.2193C262.978 32.6153 264.04 32.293 265.127 32.293C265.85 32.2921 266.565 32.4336 267.232 32.7095C267.899 32.9854 268.506 33.3902 269.016 33.9008C269.527 34.4114 269.932 35.0177 270.207 35.685C270.483 36.3522 270.625 37.0674 270.624 37.7895Z" fill="#32B82F"/>
<path d="M270.194 39.3823V48.7534H257.933V37.9545C257.933 37.5703 258.086 37.2018 258.357 36.9302C258.629 36.6585 258.997 36.5059 259.382 36.5059H267.47C268.426 37.4185 269.335 38.3786 270.194 39.3823Z" fill="#011716"/>
<path d="M268.621 52.207V56.2272C268.67 56.741 268.612 57.2595 268.45 57.7495C268.287 58.2395 268.024 58.6902 267.677 59.0724C267.33 59.4547 266.907 59.7601 266.435 59.9692C265.963 60.1782 265.453 60.2862 264.937 60.2862C264.42 60.2862 263.91 60.1782 263.438 59.9692C262.966 59.7601 262.543 59.4547 262.196 59.0724C261.849 58.6902 261.586 58.2395 261.423 57.7495C261.261 57.2595 261.203 56.741 261.253 56.2272V52.207H268.621Z" fill="#A24320"/>
<path d="M267.644 52.8652L261.309 56.4418V52.8652H267.644Z" fill="#793219"/>
<path d="M268.621 52.8653H260.955C260.154 52.8653 259.385 52.5469 258.818 51.9802C258.251 51.4134 257.933 50.6447 257.933 49.8433V39.0859H268.621V52.8653Z" fill="#A24320"/>
<path d="M269.155 49.6072H268.621V45.5801H269.155C269.359 45.5792 269.561 45.6187 269.75 45.6964C269.939 45.7741 270.11 45.8884 270.255 46.0328C270.399 46.1772 270.513 46.3487 270.591 46.5375C270.669 46.7262 270.708 46.9285 270.707 47.1327V48.0753C270.704 48.4841 270.538 48.8747 270.247 49.1618C269.956 49.4489 269.564 49.609 269.155 49.6072Z" fill="#A24320"/>
<path d="M263.492 45.4973C263.579 45.24 263.734 45.0108 263.94 44.834C264.146 44.6571 264.396 44.5391 264.663 44.4923C264.928 44.4743 265.194 44.5168 265.44 44.6165C265.686 44.7161 265.907 44.8704 266.084 45.0676C266.013 45.3357 265.856 45.5732 265.637 45.7434C265.418 45.9137 265.149 46.0074 264.871 46.0102C264.617 46.068 264.35 46.0503 264.105 45.9592C263.86 45.8681 263.647 45.7076 263.492 45.4973Z" fill="white"/>
<path d="M265.641 45.1365C265.657 45.3067 265.623 45.478 265.543 45.6289C265.463 45.7797 265.339 45.9035 265.189 45.9845C265.038 46.0655 264.867 46.1001 264.697 46.0841C264.527 46.068 264.365 46.002 264.232 45.8942C264.1 45.7865 264.002 45.6419 263.951 45.4786C263.9 45.3154 263.899 45.1408 263.947 44.9768C263.996 44.8128 264.091 44.6667 264.222 44.557C264.354 44.4473 264.514 44.3788 264.684 44.3602C264.798 44.3458 264.914 44.3547 265.025 44.3863C265.136 44.4179 265.239 44.4716 265.328 44.5441C265.418 44.6166 265.491 44.7065 265.545 44.8083C265.599 44.9102 265.631 45.0218 265.641 45.1365Z" fill="black"/>
<path d="M263.492 45.4985C263.566 45.2337 263.716 44.9968 263.925 44.8179C264.134 44.6389 264.391 44.526 264.663 44.4935C264.928 44.4775 265.193 44.5209 265.439 44.6204C265.685 44.72 265.905 44.8731 266.084 45.0687" stroke="black" stroke-width="0.346563" stroke-linecap="round" stroke-linejoin="round"/>
<path d="M261.08 45.4974C261.08 45.4974 260.809 44.5825 260.019 44.4924C259.772 44.4796 259.525 44.5249 259.299 44.6249C259.073 44.7248 258.873 44.8764 258.716 45.0676C258.777 45.3221 258.917 45.5505 259.117 45.7199C259.316 45.8894 259.564 45.9911 259.825 46.0103C260.062 46.0654 260.309 46.0456 260.534 45.9537C260.759 45.8618 260.949 45.7024 261.08 45.4974Z" fill="white"/>
<path d="M259.126 45.1371C259.102 45.3541 259.16 45.5721 259.288 45.7489C259.416 45.9256 259.605 46.0485 259.819 46.0936C259.925 46.1001 260.032 46.0853 260.133 46.05C260.234 46.0147 260.327 45.9596 260.407 45.888C260.486 45.8163 260.55 45.7296 260.596 45.6328C260.641 45.536 260.667 45.4311 260.671 45.3242C260.695 45.1072 260.637 44.8892 260.509 44.7125C260.381 44.5357 260.192 44.4128 259.978 44.3677C259.871 44.3592 259.763 44.3726 259.661 44.4072C259.56 44.4418 259.466 44.4968 259.386 44.5688C259.306 44.6408 259.242 44.7283 259.197 44.8261C259.152 44.9238 259.128 45.0296 259.126 45.1371Z" fill="black"/>
<path d="M261.08 45.4969C261.08 45.4969 260.83 44.5404 260.019 44.4919C259.772 44.4807 259.526 44.5268 259.3 44.6266C259.074 44.7264 258.874 44.8772 258.716 45.0672" stroke="black" stroke-width="0.325769" stroke-linecap="round" stroke-linejoin="round"/>
<path d="M265.065 41.8713C265.514 41.9957 265.933 42.2077 266.299 42.4951C266.372 42.533 266.43 42.5941 266.464 42.6686C266.497 42.7432 266.506 42.827 266.486 42.9067C266.467 42.9863 266.422 43.0573 266.358 43.1083C266.294 43.1594 266.215 43.1875 266.133 43.1883C265.69 43.1678 265.252 43.0885 264.83 42.9526C263.811 42.6546 263.381 42.1416 263.443 41.9129C263.617 41.5871 264.532 41.6842 265.065 41.8713Z" fill="#011716"/>
<path d="M259.867 41.8516C259.452 41.9151 259.053 42.0612 258.696 42.2814C258.632 42.3195 258.581 42.3755 258.549 42.4423C258.516 42.5091 258.504 42.5838 258.514 42.6574C258.523 42.731 258.554 42.8002 258.602 42.8566C258.651 42.9129 258.714 42.9539 258.786 42.9745C259.183 43.0205 259.585 43.0065 259.978 42.9329C260.934 42.7873 261.364 42.3368 261.316 42.0804C261.267 41.8239 260.38 41.7477 259.867 41.8516Z" fill="#011716"/>
<path d="M268.857 45.5798V41.6844H267.831V40.1526H257.933V37.7891H268.857V41.6844" fill="#011716"/>
<path d="M263.811 49.3711C263.811 49.7443 263.662 50.1022 263.399 50.366C263.135 50.6299 262.777 50.7781 262.404 50.7781C262.03 50.7781 261.673 50.6299 261.409 50.366C261.145 50.1022 260.997 49.7443 260.997 49.3711" fill="white"/>
<path d="M262.383 46.2812L261.634 46.9744C260.997 47.6675 261.787 47.7368 262.189 47.716L262.425 47.6744" fill="#793219"/>
<path d="M270.319 39.5078C270.319 39.5078 269.702 37.9968 264.206 37.1234C259.541 36.3818 257.967 38.7038 257.967 38.7038C255.07 34.9331 256.325 32.9716 260.289 33.3112C262.983 33.5912 265.521 34.7087 267.546 36.5065C269.071 38.0384 270.319 39.5078 270.319 39.5078Z" fill="#014C46"/>
<path d="M288.216 72.5217L269.134 69.3125L267.983 74.5733C267.983 74.5733 277.098 76.1675 286.788 78.6628C288.32 79.0648 290.254 77.6369 290.538 76.0843C290.649 75.3098 290.475 74.5213 290.048 73.8657C289.62 73.2102 288.969 72.7325 288.216 72.5217Z" fill="#A34321"/>
<path d="M244.916 105.724C244.895 104.978 244.654 104.254 244.223 103.644C244.37 103.385 244.463 103.098 244.495 102.801C244.527 102.504 244.499 102.204 244.411 101.918C244.324 101.633 244.179 101.368 243.986 101.141C243.793 100.913 243.555 100.727 243.288 100.595L242.477 100.193C241.97 99.9461 241.389 99.9013 240.851 100.067C240.313 100.233 239.859 100.598 239.579 101.087L239.538 101.149C237.878 102.929 236.564 105.002 235.663 107.263C233.722 112.114 236.356 112.565 237.923 113.057C239.489 113.549 240.695 110.631 241.645 108.559L241.901 111.033C241.912 111.189 241.974 111.336 242.078 111.452C242.183 111.568 242.323 111.645 242.477 111.671C242.64 111.702 242.809 111.678 242.956 111.601C243.103 111.524 243.22 111.4 243.288 111.248L244.376 108.774C244.809 107.819 244.995 106.77 244.916 105.724Z" fill="#A34321"/>
<path d="M252.298 78.6142L251.321 62.1455C251.3 61.7561 251.434 61.3743 251.694 61.0834C251.953 60.7925 252.318 60.6162 252.707 60.5929L263.547 59.9552C263.937 59.9344 264.319 60.0685 264.61 60.3282C264.9 60.5879 265.077 60.9522 265.1 61.3415L266.077 77.8032C266.089 77.9963 266.062 78.1896 265.998 78.3722C265.934 78.5548 265.835 78.723 265.707 78.8673C265.578 79.0115 265.422 79.1289 265.248 79.2128C265.073 79.2966 264.884 79.3452 264.691 79.3558L253.851 79.9935C253.464 80.009 253.086 79.874 252.796 79.6168C252.507 79.3596 252.328 79.0003 252.298 78.6142Z" fill="#022D2B"/>
<path d="M253.684 63.0738C253.821 63.0738 253.955 63.0331 254.069 62.9569C254.183 62.8808 254.272 62.7725 254.324 62.6459C254.377 62.5192 254.391 62.3799 254.364 62.2454C254.337 62.1109 254.271 61.9874 254.174 61.8905C254.077 61.7936 253.954 61.7276 253.819 61.7008C253.685 61.6741 253.545 61.6878 253.419 61.7403C253.292 61.7927 253.184 61.8816 253.108 61.9955C253.032 62.1095 252.991 62.2435 252.991 62.3806C252.991 62.5645 253.064 62.7408 253.194 62.8707C253.324 63.0007 253.5 63.0738 253.684 63.0738Z" fill="#001312"/>
<path d="M253.685 62.7208C253.756 62.7208 253.825 62.6997 253.885 62.6601C253.944 62.6205 253.99 62.5642 254.017 62.4984C254.045 62.4325 254.052 62.36 254.038 62.2901C254.024 62.2202 253.99 62.156 253.939 62.1056C253.889 62.0552 253.825 62.0208 253.755 62.0069C253.685 61.993 253.612 62.0002 253.547 62.0274C253.481 62.0547 253.424 62.1009 253.385 62.1602C253.345 62.2195 253.324 62.2891 253.324 62.3604C253.324 62.456 253.362 62.5477 253.43 62.6153C253.497 62.6829 253.589 62.7208 253.685 62.7208Z" fill="#CCDBDA"/>
<path d="M262.002 68.898H264.345L265.301 68.2049C265.482 67.97 265.745 67.8128 266.037 67.7652C266.329 67.7175 266.629 67.783 266.874 67.9484L269.536 69.5495C270.027 69.6136 270.478 69.8505 270.81 70.2177C271.141 70.5848 271.331 71.0581 271.345 71.5527C271.435 73.2508 270.652 73.7221 269.557 74.0202L265.918 75.4064C265.531 75.5944 265.107 75.6972 264.677 75.708C264.247 75.7187 263.819 75.6372 263.423 75.4688L261.912 74.7757C261.748 74.698 261.609 74.5779 261.508 74.4279C261.406 74.278 261.347 74.1037 261.336 73.9231L261.08 69.9585C261.066 69.8273 261.078 69.6945 261.118 69.5686C261.157 69.4426 261.222 69.3261 261.309 69.2265C261.395 69.1269 261.502 69.0463 261.621 68.9898C261.74 68.9332 261.87 68.902 262.002 68.898Z" fill="#A34321"/>
<g opacity="0.38">
<g opacity="0.38">
<path opacity="0.38" d="M266.577 45.3872C266.577 45.7453 266.47 46.0953 266.271 46.393C266.072 46.6906 265.789 46.9225 265.458 47.0592C265.127 47.1959 264.763 47.2313 264.412 47.161C264.061 47.0906 263.739 46.9176 263.486 46.6639C263.233 46.4102 263.061 46.0872 262.992 45.7359C262.923 45.3845 262.96 45.0205 263.098 44.6901C263.236 44.3596 263.469 44.0776 263.767 43.8796C264.066 43.6817 264.416 43.5768 264.774 43.5781C265.253 43.58 265.711 43.7714 266.049 44.1104C266.387 44.4495 266.577 44.9086 266.577 45.3872Z" fill="white"/>
</g>
</g>
<path d="M266.576 45.3852C266.576 45.7433 266.47 46.0934 266.271 46.391C266.072 46.6887 265.789 46.9205 265.458 47.0572C265.127 47.194 264.763 47.2294 264.412 47.159C264.061 47.0887 263.738 46.9157 263.486 46.662C263.233 46.4083 263.061 46.0853 262.992 45.7339C262.923 45.3825 262.96 45.0186 263.098 44.6881C263.236 44.3577 263.469 44.0756 263.767 43.8777C264.066 43.6797 264.416 43.5748 264.774 43.5762C265.253 43.578 265.711 43.7694 266.049 44.1085C266.387 44.4476 266.576 44.9067 266.576 45.3852Z" stroke="white" stroke-width="0.512913" stroke-miterlimit="10"/>
<g opacity="0.38">
<g opacity="0.38">
<path opacity="0.38" d="M261.613 45.3872C261.613 45.745 261.507 46.0947 261.309 46.3922C261.11 46.6897 260.827 46.9216 260.497 47.0585C260.166 47.1955 259.802 47.2313 259.451 47.1615C259.101 47.0917 258.778 46.9194 258.525 46.6664C258.272 46.4134 258.1 46.091 258.03 45.7401C257.96 45.3892 257.996 45.0254 258.133 44.6949C258.27 44.3643 258.502 44.0818 258.799 43.883C259.097 43.6842 259.447 43.5781 259.804 43.5781C260.284 43.5781 260.744 43.7687 261.084 44.108C261.423 44.4473 261.613 44.9074 261.613 45.3872Z" fill="white"/>
</g>
</g>
<path d="M261.613 45.3852C261.613 45.743 261.507 46.0928 261.308 46.3903C261.11 46.6878 260.827 46.9197 260.497 47.0566C260.166 47.1935 259.802 47.2293 259.451 47.1595C259.1 47.0897 258.778 46.9174 258.525 46.6644C258.272 46.4114 258.1 46.0891 258.03 45.7382C257.96 45.3872 257.996 45.0235 258.133 44.6929C258.27 44.3624 258.502 44.0798 258.799 43.8811C259.097 43.6823 259.446 43.5762 259.804 43.5762C260.284 43.5762 260.744 43.7668 261.083 44.106C261.423 44.4453 261.613 44.9054 261.613 45.3852Z" stroke="white" stroke-width="0.512913" stroke-miterlimit="10"/>
<path d="M262.958 45.2188H261.614" stroke="white" stroke-width="0.519845" stroke-miterlimit="10"/>
<path d="M266.34 45.2617H269.023" stroke="white" stroke-width="0.512913" stroke-miterlimit="10"/>
</g>
<path d="M71.2463 48.0193C71.2463 48.2263 71.3077 48.4286 71.4227 48.6008C71.5377 48.7729 71.7012 48.907 71.8924 48.9862C72.0837 49.0654 72.2941 49.0862 72.4971 49.0458C72.7002 49.0054 72.8867 48.9057 73.033 48.7594C73.1794 48.613 73.2791 48.4265 73.3195 48.2235C73.3599 48.0204 73.3391 47.81 73.2599 47.6188C73.1807 47.4275 73.0465 47.2641 72.8744 47.149C72.7023 47.034 72.5 46.9727 72.293 46.9727C72.0176 46.9797 71.7554 47.0922 71.5607 47.287C71.3659 47.4818 71.2534 47.7439 71.2463 48.0193Z" stroke="#FFB801" stroke-width="1.10207" stroke-miterlimit="10"/>
<path d="M61.792 50.2168V54.2508C61.7538 54.7606 61.8212 55.2729 61.9901 55.7555C62.1589 56.2381 62.4256 56.6806 62.7733 57.0554C63.1211 57.4302 63.5425 57.7292 64.0111 57.9337C64.4797 58.1382 64.9855 58.2437 65.4968 58.2437C66.0081 58.2437 66.5138 58.1382 66.9825 57.9337C67.4511 57.7292 67.8725 57.4302 68.2202 57.0554C68.568 56.6806 68.8346 56.2381 69.0035 55.7555C69.1723 55.2729 69.2398 54.7606 69.2015 54.2508V50.2168H61.792Z" fill="#A24320"/>
<path d="M57.9174 39.7434V42.0515C57.9247 43.7679 58.6112 45.4117 59.8269 46.6235C61.0426 47.8353 62.6885 48.5165 64.405 48.5183H66.0616C67.7829 48.5184 69.4337 47.8351 70.6515 46.6186C71.8693 45.4021 72.5543 43.752 72.5562 42.0307V39.7434C72.561 38.9839 72.4271 38.2298 72.1611 37.5184C71.676 36.2248 70.8018 35.1133 69.6589 34.337C69.4856 34.2261 69.3054 34.1221 69.1113 34.0112C68.1626 33.5201 67.1091 33.2656 66.0408 33.2696H64.3842C62.6696 33.2751 61.0269 33.9591 59.8151 35.1722C58.6033 36.3853 57.921 38.0287 57.9174 39.7434Z" fill="#011716"/>
<path d="M62.818 51L69.2225 54.5973V51H62.818Z" fill="#793219"/>
<path d="M61.7924 51.001H69.5069C70.3151 50.9992 71.0898 50.6773 71.6613 50.1057C72.2329 49.5342 72.5548 48.7595 72.5566 47.9512V37.1523H61.7924V51.001Z" fill="#A24320"/>
<path d="M66.9767 43.5969C66.8867 43.3381 66.7306 43.1074 66.5239 42.9274C66.3172 42.7475 66.0671 42.6247 65.7984 42.5711C65.5305 42.5563 65.2626 42.6015 65.0144 42.7034C64.7662 42.8054 64.5439 42.9614 64.3636 43.1603C64.4333 43.4301 64.5913 43.6688 64.8123 43.8384C65.0334 44.0079 65.3049 44.0986 65.5836 44.096C66.651 44.2069 66.9767 43.5969 66.9767 43.5969Z" fill="white"/>
<path d="M64.8005 43.222C64.7835 43.3938 64.8179 43.5668 64.8992 43.7191C64.9806 43.8714 65.1052 43.9962 65.2574 44.0776C65.4097 44.1591 65.5826 44.1937 65.7545 44.1769C65.9263 44.1601 66.0893 44.0928 66.2229 43.9834C66.3565 43.874 66.4547 43.7275 66.505 43.5623C66.5553 43.3972 66.5556 43.2208 66.5057 43.0555C66.4559 42.8902 66.3581 42.7434 66.2249 42.6336C66.0916 42.5238 65.9288 42.456 65.757 42.4387C65.527 42.4192 65.2984 42.4901 65.1199 42.6363C64.9413 42.7826 64.8267 42.9926 64.8005 43.222Z" fill="black"/>
<path d="M66.9767 43.5983C66.8974 43.3334 66.7446 43.0964 66.536 42.9148C66.3275 42.7333 66.0717 42.6145 65.7984 42.5724C65.5307 42.5596 65.2634 42.6057 65.0155 42.7075C64.7676 42.8093 64.5451 42.9643 64.3636 43.1616" stroke="black" stroke-width="0.339632" stroke-linecap="round" stroke-linejoin="round"/>
<path d="M69.3959 43.5975C69.3959 43.5975 69.6801 42.6825 70.4633 42.5716C70.7124 42.5616 70.9604 42.6096 71.1877 42.7118C71.4151 42.8141 71.6155 42.9678 71.7733 43.1608C71.7147 43.4171 71.574 43.6472 71.3725 43.8161C71.1711 43.985 70.9199 44.0835 70.6574 44.0965C70.4213 44.1534 70.1734 44.1361 69.9476 44.0467C69.7218 43.9574 69.5291 43.8005 69.3959 43.5975Z" fill="white"/>
<path d="M71.3922 43.2238C71.421 43.4424 71.3653 43.6638 71.2365 43.8428C71.1078 44.0218 70.9155 44.145 70.6991 44.1872C70.5905 44.1938 70.4818 44.1786 70.3791 44.1426C70.2765 44.1066 70.1821 44.0505 70.1014 43.9775C70.0208 43.9046 69.9554 43.8163 69.9093 43.7178C69.8631 43.6194 69.8371 43.5127 69.8327 43.404C69.8022 43.1851 69.8572 42.9628 69.9863 42.7834C70.1153 42.604 70.3086 42.4812 70.5258 42.4406C70.6342 42.435 70.7426 42.4508 70.8448 42.4871C70.947 42.5235 71.041 42.5797 71.1215 42.6524C71.202 42.7252 71.2673 42.8131 71.3138 42.9111C71.3603 43.0092 71.3869 43.1154 71.3922 43.2238Z" fill="black"/>
<path d="M69.3959 43.5979C69.3959 43.5979 69.6593 42.6414 70.4633 42.5721C70.7126 42.5604 70.9611 42.6076 71.1887 42.71C71.4164 42.8123 71.6166 42.9669 71.7733 43.1612" stroke="black" stroke-width="0.325769" stroke-linecap="round" stroke-linejoin="round"/>
<path d="M65.5837 40.3547C65.1206 40.2921 64.6497 40.3203 64.1975 40.4378C64.1225 40.4527 64.0539 40.4902 64.0008 40.5453C63.9478 40.6004 63.9129 40.6703 63.9008 40.7458C63.8887 40.8213 63.9001 40.8987 63.9333 40.9675C63.9665 41.0364 64.02 41.0934 64.0865 41.131C64.5017 41.2865 64.9349 41.3889 65.3758 41.4359C66.4432 41.5676 67.0323 41.2627 67.0323 40.9993C67.067 40.6111 66.1521 40.3755 65.5837 40.3547Z" fill="#011716"/>
<path d="M70.7475 40.3535C71.1708 40.3044 71.5995 40.3397 72.009 40.4574C72.314 40.5891 72.4249 40.9842 72.1199 41.1506C71.7412 41.2922 71.3446 41.3808 70.9416 41.414C69.9851 41.5179 69.4167 41.1922 69.4167 40.9288C69.4167 40.6654 70.2208 40.3743 70.7475 40.3535Z" fill="#011716"/>
<path d="M68.086 44.3594L68.8484 45.0525C69.4861 45.7456 68.6959 45.8149 68.3078 45.7941L68.0652 45.7456" fill="#793219"/>
<path d="M60.5308 41.788C60.5308 41.788 60.5308 41.8781 60.5723 42.0028C60.704 42.5088 61.0991 43.7079 61.7923 43.6594C62.6656 43.6178 63.0122 40.8315 63.4904 39.5007C63.9687 38.1699 65.8678 38.5857 68.3423 38.8699C69.0423 38.9164 69.7444 38.8172 70.4041 38.5786C71.0639 38.34 71.6669 37.9672 72.1753 37.4837C72.3157 37.3685 72.4478 37.2434 72.5704 37.1094C72.5105 36.5271 72.2678 35.9788 71.8772 35.5429C71.0316 34.5864 68.37 33.5398 68.3284 33.5398L67.0877 33.3457L62.0972 35.5221L60.5308 41.788Z" fill="#011716"/>
<path d="M66.741 47.1875C66.6774 47.3438 66.6461 47.5113 66.6491 47.68C66.6521 47.8487 66.6893 48.015 66.7584 48.1689C66.8275 48.3228 66.9271 48.4611 67.0511 48.5755C67.1752 48.6898 67.3212 48.7778 67.4802 48.8341C67.6393 48.8904 67.8081 48.9138 67.9765 48.903C68.1448 48.8922 68.3092 48.8474 68.4598 48.7712C68.6103 48.695 68.7439 48.5891 68.8523 48.4599C68.9608 48.3306 69.0419 48.1807 69.0907 48.0192" fill="white"/>
<path d="M71.5517 35.2319L66.478 35.5993C65.5038 35.669 64.5754 36.04 63.8216 36.661C63.0677 37.282 62.5257 38.1221 62.2707 39.0649L60.9954 43.7713L60.5587 47.5211L58.916 45.7467L57.9803 43.7643L57.807 39.3006L58.2229 37.4291L59.7686 34.7329L63.0748 33.1387L68.5158 32.9238L71.5517 35.2319Z" fill="#32B82F"/>
<path d="M61.2723 47.7347H61.7921V43.666H61.2723C60.8617 43.6678 60.4685 43.8322 60.1789 44.1232C59.8892 44.4142 59.7266 44.808 59.7266 45.2186V46.1543C59.7238 46.3597 59.7617 46.5636 59.838 46.7543C59.9142 46.9451 60.0274 47.1188 60.1711 47.2657C60.3147 47.4125 60.4859 47.5295 60.6749 47.61C60.8638 47.6905 61.0669 47.7329 61.2723 47.7347Z" fill="#A24320"/>
<path d="M59.5049 48.1729C59.5344 48.4279 59.6566 48.6633 59.8483 48.8341C60.04 49.0049 60.2878 49.0993 60.5445 49.0993C60.8013 49.0993 61.0491 49.0049 61.2408 48.8341C61.4325 48.6633 61.5547 48.4279 61.5842 48.1729C61.5861 48.0364 61.5607 47.901 61.5095 47.7744C61.4584 47.6479 61.3825 47.5329 61.2863 47.4361C61.1901 47.3392 61.0756 47.2626 60.9494 47.2106C60.8232 47.1586 60.688 47.1323 60.5515 47.1332C60.4136 47.1294 60.2764 47.1537 60.1481 47.2045C60.0199 47.2553 59.9033 47.3316 59.8055 47.4288C59.7076 47.5261 59.6305 47.6421 59.5788 47.77C59.5272 47.8979 59.502 48.035 59.5049 48.1729Z" stroke="#FFB801" stroke-width="1.10207" stroke-miterlimit="10"/>
<path d="M70.9827 31.9879C69.742 33.0345 69.0003 34.2059 69.3746 34.6426C69.7489 35.0793 71.0312 34.5802 72.2927 33.5544C73.5542 32.5285 74.275 31.3294 73.9077 30.8997C73.5403 30.47 72.2511 30.9621 70.9827 31.9879Z" fill="#32B82F"/>
<path d="M68.1552 32.9652C69.0702 34.3168 70.2346 35.1416 70.6574 34.8158C71.0802 34.49 70.7475 33.1592 69.8326 31.8146C68.9177 30.4699 67.7532 29.6312 67.3235 29.957C66.8937 30.2828 67.2334 31.6136 68.1552 32.9652Z" fill="#32B82F"/>
<g opacity="0.38">
<g opacity="0.38">
<path opacity="0.38" d="M63.601 43.7921C63.601 44.1581 63.7095 44.5159 63.9129 44.8202C64.1162 45.1246 64.4052 45.3618 64.7434 45.5018C65.0816 45.6419 65.4537 45.6786 65.8127 45.6072C66.1716 45.5357 66.5014 45.3595 66.7602 45.1007C67.019 44.8419 67.1953 44.5121 67.2667 44.1531C67.3381 43.7941 67.3015 43.422 67.1614 43.0839C67.0213 42.7457 66.7841 42.4567 66.4798 42.2533C66.1754 42.05 65.8176 41.9414 65.4516 41.9414C65.2083 41.9405 64.9673 41.9877 64.7423 42.0804C64.5174 42.1731 64.313 42.3094 64.141 42.4814C63.9689 42.6535 63.8326 42.8578 63.74 43.0828C63.6473 43.3077 63.6 43.5488 63.601 43.7921Z" fill="white"/>
</g>
</g>
<path d="M63.6012 43.7921C63.6012 44.1581 63.7097 44.5159 63.9131 44.8202C64.1164 45.1246 64.4055 45.3618 64.7436 45.5018C65.0818 45.6419 65.4539 45.6786 65.8129 45.6072C66.1719 45.5357 66.5016 45.3595 66.7605 45.1007C67.0193 44.8419 67.1955 44.5121 67.2669 44.1531C67.3384 43.7941 67.3017 43.422 67.1616 43.0839C67.0216 42.7457 66.7844 42.4567 66.48 42.2533C66.1757 42.05 65.8179 41.9414 65.4519 41.9414C65.2086 41.9405 64.9675 41.9877 64.7426 42.0804C64.5176 42.1731 64.3132 42.3094 64.1412 42.4814C63.9692 42.6535 63.8329 42.8578 63.7402 43.0828C63.6475 43.3077 63.6003 43.5488 63.6012 43.7921Z" stroke="white" stroke-width="0.512913" stroke-miterlimit="10"/>
<g opacity="0.38">
<g opacity="0.38">
<path opacity="0.38" d="M68.6743 43.5989C68.6729 43.9669 68.7809 44.327 68.9845 44.6335C69.188 44.9401 69.4781 45.1792 69.8178 45.3207C70.1575 45.4621 70.5316 45.4995 70.8925 45.428C71.2535 45.3566 71.5852 45.1795 71.8454 44.9193C72.1056 44.6591 72.2826 44.3275 72.3541 43.9665C72.4255 43.6055 72.3882 43.2315 72.2467 42.8918C72.1052 42.5521 71.8661 42.262 71.5595 42.0584C71.253 41.8548 70.8929 41.7469 70.5249 41.7483C70.2809 41.7445 70.0385 41.7898 69.8123 41.8815C69.5861 41.9732 69.3806 42.1094 69.208 42.282C69.0354 42.4546 68.8992 42.6601 68.8075 42.8863C68.7159 43.1125 68.6705 43.3548 68.6743 43.5989Z" fill="white"/>
</g>
</g>
<path d="M68.6751 43.5968C68.6737 43.9647 68.7816 44.3248 68.9852 44.6314C69.1888 44.9379 69.4789 45.1771 69.8186 45.3185C70.1583 45.46 70.5323 45.4973 70.8933 45.4259C71.2543 45.3544 71.5859 45.1774 71.8461 44.9172C72.1063 44.657 72.2834 44.3253 72.3548 43.9644C72.4263 43.6034 72.3889 43.2293 72.2475 42.8896C72.106 42.5499 71.8669 42.2599 71.5603 42.0563C71.2538 41.8527 70.8937 41.7447 70.5257 41.7461C70.0349 41.7461 69.5642 41.9411 69.2171 42.2881C68.87 42.6352 68.6751 43.1059 68.6751 43.5968Z" stroke="white" stroke-width="0.512913" stroke-miterlimit="10"/>
<path d="M67.323 43.6191H68.7093" stroke="white" stroke-width="0.512913" stroke-miterlimit="10"/>
<path d="M63.6013 43.666H60.8773" stroke="white" stroke-width="0.512913" stroke-miterlimit="10"/>
<path d="M80.548 77.4303L100.261 64.5312L103.685 67.9969C103.685 67.9969 92.4836 76.9382 84.0968 82.7882C82.7729 83.7239 80.3955 83.0516 79.5915 81.6515C78.7875 80.2514 79.2449 78.1928 80.548 77.4303Z" fill="#A34321"/>
<path d="M62.0348 79.669L77.6717 126.899C78.0972 128.269 79.0419 129.419 80.3039 130.103C81.566 130.786 83.0453 130.949 84.4256 130.556C85.806 130.163 86.978 129.246 87.6911 128C88.4042 126.755 88.6019 125.28 88.2419 123.89C86.717 117.618 84.298 107.664 82.3988 99.7974C80.3893 91.5003 76.166 83.9041 70.179 77.8184L62.0348 79.669Z" fill="#022D2B"/>
<path d="M69.0701 79.4531L68.4601 94.6395L67.2333 97.1833L66.4778 134.467L56.0393 135.686C56.0393 135.229 54.8194 113.375 53.8421 99.2211C53.4262 93.2255 54.4936 85.8438 59.2415 80.1116L69.0701 79.4531Z" fill="#004C46"/>
<path d="M67.0875 166.849L70.2898 154.65L76.8052 157.423L74.0326 168.444L67.0875 166.849Z" fill="#A34321"/>
<path d="M65.5422 171.687V159.072L58.5278 160.112L58.4169 171.479L65.5422 171.687Z" fill="#A34321"/>
<path d="M66.4363 128.381L67.0185 166.025L58.0079 166.94L55.5681 128.88C55.5326 127.459 56.0554 126.081 57.0243 125.041C57.9931 124.001 59.331 123.382 60.7509 123.316C62.1709 123.251 63.5599 123.745 64.6201 124.692C65.6803 125.638 66.3274 126.963 66.4225 128.381H66.4363Z" fill="#004C46"/>
<path d="M77.7408 124.305L68.8271 160.881L77.4982 163.411L88.1723 127.182C88.4215 125.849 88.1614 124.471 87.4433 123.32C86.7253 122.17 85.6016 121.331 84.2946 120.969C82.9877 120.608 81.5926 120.75 80.3854 121.368C79.1782 121.985 78.2468 123.034 77.7754 124.305H77.7408Z" fill="#022D2B"/>
<path d="M79.3283 81.0959L75.8627 65.9788L81.9345 64.8906L85.1644 79.6334C85.2379 79.9639 85.2454 80.3056 85.1866 80.6389C85.1277 80.9723 85.0036 81.2908 84.8213 81.576C84.6391 81.8613 84.4023 82.1078 84.1246 82.3014C83.8468 82.4949 83.5336 82.6317 83.2029 82.704C81.879 83.0505 79.7095 82.4406 79.3283 81.0959Z" fill="#A34321"/>
<path d="M55.1727 74.6152L52.1021 100.081L46.5571 99.8866C46.5571 99.8866 47.8879 83.7853 48.9346 73.8112C49.1078 72.224 51.0902 70.8932 52.6566 71.1981C53.4151 71.3732 54.0858 71.814 54.5474 72.4408C55.0089 73.0676 55.2307 73.839 55.1727 74.6152Z" fill="#A34321"/>
<path d="M48.4635 76.7079L50.5428 61.0918L56.6146 62.0483L54.8333 77.0337C54.7515 77.71 54.4068 78.327 53.8737 78.7511C53.3406 79.1753 52.662 79.3725 51.9846 79.3002C50.6607 79.1685 48.3942 78.0803 48.4635 76.7079Z" fill="#A34321"/>
<path d="M52.0331 99.5822C51.8396 99.0058 51.4833 98.4979 51.0073 98.1197C51.0627 97.8807 51.0685 97.6328 51.0243 97.3915C50.9802 97.1501 50.8871 96.9203 50.7507 96.7164C50.6142 96.5124 50.4375 96.3386 50.2313 96.2056C50.0251 96.0727 49.7938 95.9834 49.5517 95.9433L48.8586 95.8116C48.4004 95.7326 47.9294 95.8323 47.5425 96.0902C47.1556 96.3481 46.8824 96.7445 46.7792 97.1979V97.2464C45.8862 99.0374 45.3339 100.979 45.1503 102.972C44.7553 107.241 46.9317 106.978 48.2833 107.006C49.6349 107.033 49.8775 104.434 50.1824 102.583L50.9657 104.476C51.0152 104.594 51.101 104.693 51.2106 104.759C51.3203 104.825 51.4481 104.854 51.5756 104.843C51.7121 104.833 51.8407 104.775 51.9394 104.68C52.038 104.585 52.1006 104.459 52.1163 104.323L52.4004 102.126C52.4789 101.261 52.3531 100.39 52.0331 99.5822Z" fill="#A34321"/>
<path d="M73.4227 73.8731L83.9028 71.7174L81.5046 60.0244C81.2187 58.6356 80.3928 57.4172 79.2087 56.6373C78.0245 55.8574 76.579 55.5798 75.1902 55.8656C73.8014 56.1515 72.583 56.9774 71.803 58.1615C71.0231 59.3457 70.7456 60.7912 71.0314 62.18L73.4227 73.8731Z" fill="#31B92E"/>
<path d="M66.2557 56.1024L54.3409 56.5391C53.9429 56.6949 53.6197 56.9973 53.4379 57.3841C53.2562 57.7709 53.2295 58.2126 53.3636 58.6185L57.2867 82.2333C57.3679 82.724 57.6223 83.1694 58.0038 83.4886C58.3853 83.8078 58.8686 83.9797 59.366 83.973H73.589C74.1195 83.974 74.6304 83.7721 75.0169 83.4087C75.4035 83.0454 75.6365 82.548 75.6684 82.0184C75.9941 76.7229 76.9576 62.2366 77.9973 57.8352C78.1177 57.4179 78.0743 56.9703 77.8759 56.5839C77.6775 56.1974 77.3392 55.9013 76.9299 55.7559L66.2557 56.1024Z" fill="#31B92E"/>
<path d="M57.6128 74.5323L47.1327 72.3767L49.5309 60.6768C49.8168 59.2879 50.6426 58.0695 51.8268 57.2896C53.011 56.5097 54.4565 56.2321 55.8453 56.518C57.2341 56.8038 58.4525 57.6297 59.2324 58.8139C60.0123 59.998 60.2899 61.4435 60.004 62.8324L57.6128 74.5323Z" fill="#31B92E"/>
<path d="M67.0876 166.655C67.1432 166.552 67.2212 166.463 67.3158 166.394C67.4103 166.325 67.5191 166.278 67.6341 166.257C67.7491 166.236 67.8674 166.241 67.9804 166.271C68.0933 166.302 68.198 166.357 68.2867 166.433C68.8489 166.988 69.5342 167.403 70.2869 167.644C71.0396 167.885 71.8385 167.945 72.6188 167.819C72.6188 167.819 74.005 165.969 75.4536 167.819C76.4062 169.823 77.9179 171.508 79.8065 172.671C83.9652 175.049 83.487 177.183 83.487 177.183L82.7938 179.263L64.5161 173.253L65.2092 171.174C65.7304 169.626 66.358 168.116 67.0876 166.655Z" fill="black"/>
<path d="M60.3019 56.4266H71.482L70.7889 53.3145H60.794L60.3019 56.4266Z" fill="#31B92E"/>
<path d="M57.8481 170.774C57.866 170.658 57.9108 170.548 57.9787 170.452C58.0467 170.356 58.136 170.278 58.2396 170.222C58.3432 170.167 58.4582 170.137 58.5755 170.134C58.6928 170.131 58.8092 170.155 58.9155 170.205C59.6248 170.555 60.4064 170.734 61.1974 170.727C61.9883 170.719 62.7665 170.527 63.4693 170.164C63.4693 170.164 64.1625 167.987 66.1517 169.249C67.6834 170.854 69.6523 171.975 71.8146 172.472C76.5001 173.428 76.715 175.612 76.715 175.612V177.788H57.4807V175.612C57.4919 173.992 57.6146 172.376 57.8481 170.774Z" fill="#1A1A1A"/>
<path d="M100.503 64.1421C100.496 63.7224 100.601 63.3084 100.808 62.943C101.459 61.7855 101.834 60.9606 102.194 60.1705C102.232 60.0859 102.287 60.0099 102.354 59.9468C102.422 59.8837 102.502 59.8348 102.589 59.8031L102.742 59.7407C102.792 59.7185 102.847 59.7071 102.903 59.707C102.958 59.707 103.013 59.7184 103.063 59.7405C103.114 59.7626 103.16 59.795 103.198 59.8356C103.235 59.8762 103.264 59.9241 103.282 59.9764C103.465 60.6869 103.546 61.4196 103.525 62.1528L106.36 61.0438L106.991 66.9492L104.447 67.9266C104.06 68.084 103.638 68.1368 103.225 68.0796C102.811 68.0225 102.42 67.8573 102.09 67.6008C101.896 67.6844 101.686 67.7275 101.474 67.7275C101.262 67.7275 101.053 67.6843 100.858 67.6007C100.664 67.517 100.488 67.3946 100.342 67.2409C100.197 67.0872 100.084 66.9054 100.011 66.7067L99.789 66.0967C99.6449 65.7403 99.6381 65.3432 99.77 64.9821C99.9019 64.621 100.163 64.3217 100.503 64.1421Z" fill="#A34321"/>
<path d="M105.355 63.0752C105.359 62.911 105.427 62.7548 105.545 62.6406C105.663 62.5264 105.822 62.4634 105.986 62.4653L108.994 62.3751C109.096 62.3731 109.198 62.3922 109.293 62.4311C109.388 62.47 109.474 62.528 109.545 62.6014C109.617 62.6748 109.672 62.7622 109.709 62.858C109.745 62.9538 109.761 63.056 109.756 63.1584C109.741 63.3526 109.65 63.5332 109.504 63.6624C109.358 63.7915 109.168 63.8593 108.973 63.8515L105.972 63.7683C105.883 63.7726 105.794 63.757 105.712 63.7225C105.63 63.6881 105.557 63.6357 105.498 63.5692C105.439 63.5028 105.395 63.4239 105.37 63.3384C105.346 63.2529 105.341 63.163 105.355 63.0752Z" fill="#A34321"/>
<path d="M105.556 64.2658C105.565 64.1095 105.633 63.9623 105.746 63.8542C105.86 63.7461 106.01 63.6851 106.166 63.6836H108.696C108.893 63.6836 109.082 63.7617 109.221 63.9008C109.36 64.0399 109.438 64.2285 109.438 64.4252C109.438 64.6219 109.36 64.8106 109.221 64.9497C109.082 65.0887 108.893 65.1669 108.696 65.1669L106.166 64.9728C105.995 64.9521 105.837 64.8682 105.724 64.7374C105.612 64.6067 105.552 64.4385 105.556 64.2658Z" fill="#A34321"/>
<path d="M105.535 65.3621C105.549 65.2108 105.62 65.0703 105.733 64.9687C105.846 64.8672 105.993 64.8121 106.145 64.8145H108.128C108.311 64.8145 108.488 64.8876 108.618 65.0175C108.748 65.1475 108.821 65.3238 108.821 65.5077C108.821 65.6915 108.748 65.8678 108.618 65.9978C108.488 66.1278 108.311 66.2008 108.128 66.2008L106.145 65.9651C105.985 65.9651 105.831 65.9018 105.716 65.7889C105.602 65.676 105.537 65.5227 105.535 65.3621Z" fill="#A34321"/>
<path d="M105.404 66.2067C105.416 66.059 105.483 65.9213 105.592 65.8211C105.702 65.7209 105.845 65.6655 105.993 65.666L107.58 65.8185C107.764 65.8185 107.94 65.8915 108.07 66.0215C108.2 66.1515 108.273 66.3278 108.273 66.5116C108.273 66.6955 108.2 66.8718 108.07 67.0017C107.94 67.1317 107.764 67.2048 107.58 67.2048L105.993 66.8305C105.912 66.8327 105.831 66.8178 105.757 66.7868C105.682 66.7558 105.614 66.7093 105.559 66.6504C105.503 66.5915 105.46 66.5216 105.434 66.4451C105.407 66.3686 105.397 66.2874 105.404 66.2067Z" fill="#A34321"/>
</g>
<defs>
<clipPath id="clip0_1343_61397">
<rect width="325.589" height="179.201" fill="white"/>
</clipPath>
</defs>
</svg>
