<svg width="34" height="38" viewBox="0 0 34 38" fill="none" xmlns="http://www.w3.org/2000/svg">
<path d="M11.8667 29L8.83333 30C8.5023 30.1118 8.21477 30.3249 8.0114 30.609C7.80803 30.8931 7.69909 31.234 7.7 31.5834V35.6667C7.70091 35.8872 7.74558 36.1054 7.83141 36.3085C7.91723 36.5116 8.04252 36.6957 8.2 36.85C8.51043 37.1579 8.92943 37.3315 9.36666 37.3334H24.65C25.092 37.3334 25.5159 37.1578 25.8285 36.8452C26.1411 36.5327 26.3167 36.1087 26.3167 35.6667V31.5C26.3176 31.1506 26.2086 30.8098 26.0053 30.5257C25.8019 30.2415 25.5144 30.0285 25.1833 29.9167L18.8 28.004V30.1167C18.8003 30.4682 18.9116 30.8106 19.1182 31.0949C19.3247 31.3793 19.6158 31.5911 19.95 31.7L22.9667 32.7V34H11.0167V32.7L14.0333 31.7C14.3675 31.5911 14.6586 31.3793 14.8652 31.0949C15.0717 30.8106 15.1831 30.4682 15.1833 30.1167V27.9063L11.8667 29Z" fill="#E58C00"/>
<path fill-rule="evenodd" clip-rule="evenodd" d="M18.8 28.004L25.1833 29.9167L22.1333 29L18.8 28.004Z" fill="#31BC2E"/>
<path d="M33.25 19C33.2491 18.6923 33.1629 18.3907 33.0011 18.1289C32.8393 17.8671 32.6082 17.6552 32.3333 17.5167L22.1333 12.4167V5.75003C22.1333 4.38859 21.5925 3.0829 20.6298 2.12022C19.6671 1.15753 18.3614 0.616699 17 0.616699C15.6386 0.616699 14.3329 1.15753 13.3702 2.12022C12.4075 3.0829 11.8667 4.38859 11.8667 5.75003V12.4167L1.66666 17.5167C1.39181 17.6552 1.16067 17.8671 0.998869 18.1289C0.83707 18.3907 0.75093 18.6923 0.749997 19V24.55C0.747735 24.8215 0.811843 25.0895 0.936745 25.3306C1.06165 25.5717 1.24356 25.7786 1.46666 25.9334C1.6885 26.0854 1.94381 26.1814 2.21082 26.2133C2.47782 26.2453 2.74858 26.2121 3 26.1167L11.8667 22.7834V29L15.1833 27.9063V20.3834C15.1829 20.1147 15.1175 19.8501 14.9927 19.6121C14.8679 19.3741 14.6874 19.1699 14.4667 19.0167C14.2429 18.862 13.9846 18.7643 13.7145 18.7324C13.4443 18.7004 13.1704 18.7351 12.9167 18.8334L4.06666 22.1667V20.0334L14.25 14.9334C14.528 14.7972 14.7625 14.5863 14.9274 14.3243C15.0922 14.0623 15.1808 13.7596 15.1833 13.45V5.80003C15.1833 5.32264 15.373 4.86481 15.7105 4.52724C16.0481 4.18968 16.5059 4.00003 16.9833 4.00003C17.4607 4.00003 17.9186 4.18968 18.2561 4.52724C18.5937 4.86481 18.7833 5.32264 18.7833 5.80003V13.45C18.7858 13.7596 18.8744 14.0623 19.0393 14.3243C19.2041 14.5863 19.4387 14.7972 19.7167 14.9334L29.9 20.0334V22.15L21.0667 18.8334C20.813 18.7351 20.5391 18.7004 20.2689 18.7324C19.9987 18.7643 19.7404 18.862 19.5167 19.0167C19.2959 19.1699 19.1154 19.3741 18.9906 19.6121C18.8658 19.8501 18.8004 20.1147 18.8 20.3834V28.004L22.1333 29V22.8L31 26.1334C31.2514 26.2288 31.5222 26.2619 31.7892 26.23C32.0562 26.1981 32.3115 26.102 32.5333 25.95C32.7564 25.7953 32.9383 25.5884 33.0632 25.3473C33.1881 25.1062 33.2523 24.8382 33.25 24.5667V19Z" fill="#31BC2E"/>
</svg>
