<svg width="34" height="34" viewBox="0 0 34 34" fill="none" xmlns="http://www.w3.org/2000/svg">
<path fill-rule="evenodd" clip-rule="evenodd" d="M18.6667 11.1668C18.6667 10.2464 19.4129 9.50016 20.3333 9.50016H25.3333C26.2538 9.50016 27 10.2464 27 11.1668C27 12.0873 26.2538 12.8335 25.3333 12.8335H20.3333C19.4129 12.8335 18.6667 12.0873 18.6667 11.1668Z" fill="#E58C00"/>
<path fill-rule="evenodd" clip-rule="evenodd" d="M18.6667 22.8335C18.6667 21.913 19.4129 21.1668 20.3333 21.1668H32C32.9205 21.1668 33.6667 21.913 33.6667 22.8335C33.6667 23.754 32.9205 24.5002 32 24.5002H20.3333C19.4129 24.5002 18.6667 23.754 18.6667 22.8335Z" fill="#E58C00"/>
<path fill-rule="evenodd" clip-rule="evenodd" d="M18.6667 28.6668C18.6667 27.7464 19.4129 27.0002 20.3333 27.0002H25.3333C26.2538 27.0002 27 27.7464 27 28.6668C27 29.5873 26.2538 30.3335 25.3333 30.3335H20.3333C19.4129 30.3335 18.6667 29.5873 18.6667 28.6668Z" fill="#E58C00"/>
<path d="M20.3333 3.66683C19.4129 3.66683 18.6667 4.41302 18.6667 5.3335C18.6667 6.25397 19.4129 7.00016 20.3333 7.00016H32C32.9205 7.00016 33.6667 6.25397 33.6667 5.3335C33.6667 4.41302 32.9205 3.66683 32 3.66683H20.3333Z" fill="#E58C00"/>
<path fill-rule="evenodd" clip-rule="evenodd" d="M13.6667 0.333496H2.00001C1.55798 0.333496 1.13406 0.509091 0.821499 0.821651C0.508938 1.13421 0.333344 1.55814 0.333344 2.00016V13.6668C0.333344 14.1089 0.508938 14.5328 0.821499 14.8453C1.13406 15.1579 1.55798 15.3335 2.00001 15.3335H13.6667C14.1087 15.3335 14.5326 15.1579 14.8452 14.8453C15.1577 14.5328 15.3333 14.1089 15.3333 13.6668V2.00016C15.3333 1.55814 15.1577 1.13421 14.8452 0.821651C14.5326 0.509091 14.1087 0.333496 13.6667 0.333496ZM3.66668 12.0002H12V3.66683H3.66668V12.0002Z" fill="#31BC2E"/>
<path fill-rule="evenodd" clip-rule="evenodd" d="M13.6667 18.6668H2.00001C1.55798 18.6668 1.13406 18.8424 0.821499 19.155C0.508938 19.4675 0.333344 19.8915 0.333344 20.3335V32.0002C0.333344 32.4422 0.508938 32.8661 0.821499 33.1787C1.13406 33.4912 1.55798 33.6668 2.00001 33.6668H13.6667C14.1087 33.6668 14.5326 33.4912 14.8452 33.1787C15.1577 32.8661 15.3333 32.4422 15.3333 32.0002V20.3335C15.3333 19.8915 15.1577 19.4675 14.8452 19.155C14.5326 18.8424 14.1087 18.6668 13.6667 18.6668ZM3.66668 30.3335H12V22.0002H3.66668V30.3335Z" fill="#31BC2E"/>
</svg>
