<svg width="56" height="56" viewBox="0 0 56 56" fill="none" xmlns="http://www.w3.org/2000/svg">
<rect width="56" height="56" rx="12" fill="#004C46"/>
<path fill-rule="evenodd" clip-rule="evenodd" d="M33.3327 26.6667H34.666C35.0196 26.6667 35.3588 26.8071 35.6088 27.0572C35.8589 27.3072 35.9993 27.6464 35.9993 28C35.9993 28.3536 35.8589 28.6928 35.6088 28.9428C35.3588 29.1929 35.0196 29.3333 34.666 29.3333H33.3327C32.9791 29.3333 32.6399 29.1929 32.3899 28.9428C32.1398 28.6928 31.9993 28.3536 31.9993 28C31.9993 27.6464 32.1398 27.3072 32.3899 27.0572C32.6399 26.8071 32.9791 26.6667 33.3327 26.6667ZM33.3327 32H34.666C35.0196 32 35.3588 32.1405 35.6088 32.3905C35.8589 32.6406 35.9993 32.9797 35.9993 33.3333C35.9993 33.687 35.8589 34.0261 35.6088 34.2761C35.3588 34.5262 35.0196 34.6667 34.666 34.6667H33.3327C32.9791 34.6667 32.6399 34.5262 32.3899 34.2761C32.1398 34.0261 31.9993 33.687 31.9993 33.3333C31.9993 32.9797 32.1398 32.6406 32.3899 32.3905C32.6399 32.1405 32.9791 32 33.3327 32ZM34.666 24H26.666C26.3124 24 25.9733 23.8595 25.7232 23.6095C25.4732 23.3594 25.3327 23.0203 25.3327 22.6667C25.3327 22.313 25.4732 21.9739 25.7232 21.7239C25.9733 21.4738 26.3124 21.3333 26.666 21.3333H34.666C35.0196 21.3333 35.3588 21.4738 35.6088 21.7239C35.8589 21.9739 35.9993 22.313 35.9993 22.6667C35.9993 23.0203 35.8589 23.3594 35.6088 23.6095C35.3588 23.8595 35.0196 24 34.666 24ZM27.9993 29.3333H26.666C26.3124 29.3333 25.9733 29.1929 25.7232 28.9428C25.4732 28.6928 25.3327 28.3536 25.3327 28C25.3327 27.6464 25.4732 27.3072 25.7232 27.0572C25.9733 26.8071 26.3124 26.6667 26.666 26.6667H27.9993C28.353 26.6667 28.6921 26.8071 28.9422 27.0572C29.1922 27.3072 29.3327 27.6464 29.3327 28C29.3327 28.3536 29.1922 28.6928 28.9422 28.9428C28.6921 29.1929 28.353 29.3333 27.9993 29.3333ZM27.9993 34.6667H26.666C26.3124 34.6667 25.9733 34.5262 25.7232 34.2761C25.4732 34.0261 25.3327 33.687 25.3327 33.3333C25.3327 32.9797 25.4732 32.6406 25.7232 32.3905C25.9733 32.1405 26.3124 32 26.666 32H27.9993C28.353 32 28.6921 32.1405 28.9422 32.3905C29.1922 32.6406 29.3327 32.9797 29.3327 33.3333C29.3327 33.687 29.1922 34.0261 28.9422 34.2761C28.6921 34.5262 28.353 34.6667 27.9993 34.6667Z" fill="#E58C00"/>
<path fill-rule="evenodd" clip-rule="evenodd" d="M39.9993 16H21.3327C20.9791 16 20.6399 16.1405 20.3899 16.3905C20.1398 16.6406 19.9993 16.9797 19.9993 17.3333V21.3333H15.9993C15.6457 21.3333 15.3066 21.4738 15.0565 21.7239C14.8065 21.9739 14.666 22.313 14.666 22.6667V36C14.666 37.0609 15.0874 38.0783 15.8376 38.8284C16.5877 39.5786 17.6051 40 18.666 40H35.9993C37.4138 40 38.7704 39.4381 39.7706 38.4379C40.7708 37.4377 41.3327 36.0812 41.3327 34.6667V17.3333C41.3327 16.9797 41.1922 16.6406 40.9422 16.3905C40.6921 16.1405 40.353 16 39.9993 16ZM19.6088 36.9428C19.8589 36.6928 19.9993 36.3536 19.9993 36V24H17.3327V36C17.3327 36.3536 17.4732 36.6928 17.7232 36.9428C17.9733 37.1929 18.3124 37.3333 18.666 37.3333C19.0196 37.3333 19.3588 37.1929 19.6088 36.9428ZM37.885 36.5523C38.3851 36.0522 38.666 35.3739 38.666 34.6667V18.6667H22.666V36C22.6624 36.4549 22.5812 36.9058 22.426 37.3333H35.9993C36.7066 37.3333 37.3849 37.0524 37.885 36.5523Z" fill="#31BC2E"/>
</svg>
