<svg width="38" height="30" viewBox="0 0 38 30" fill="none" xmlns="http://www.w3.org/2000/svg">
<path fill-rule="evenodd" clip-rule="evenodd" d="M21.5914 12.5757C21.1025 13.6455 20.3893 14.5975 19.5 15.3673C21.8331 16.4238 23.8125 18.1299 25.2017 20.2816C26.5908 22.4333 27.3308 24.9395 27.3333 27.5007C27.3333 27.9427 27.1577 28.3666 26.8451 28.6792C26.5326 28.9917 26.1087 29.1673 25.6666 29.1673C25.2246 29.1673 24.8007 28.9917 24.4881 28.6792C24.1756 28.3666 24 27.9427 24 27.5007C24 24.8485 22.9464 22.305 21.071 20.4296C19.1957 18.5542 16.6521 17.5007 14 17.5007C11.3478 17.5007 8.80426 18.5542 6.92889 20.4296C5.05353 22.305 3.99996 24.8485 3.99996 27.5007C3.99996 27.9427 3.82436 28.3666 3.5118 28.6792C3.19924 28.9917 2.77532 29.1673 2.33329 29.1673C1.89127 29.1673 1.46734 28.9917 1.15478 28.6792C0.842221 28.3666 0.666626 27.9427 0.666626 27.5007C0.669079 24.9395 1.40912 22.4333 2.79826 20.2816C4.1874 18.1299 6.16686 16.4238 8.49996 15.3673C7.61066 14.5975 6.89738 13.6455 6.4085 12.5757C5.91963 11.5059 5.66661 10.3435 5.66663 9.16732C5.66663 6.95718 6.5446 4.83757 8.1074 3.27476C9.67021 1.71196 11.7898 0.833985 14 0.833985C16.2101 0.833985 18.3297 1.71196 19.8925 3.27476C21.4553 4.83757 22.3333 6.95718 22.3333 9.16732C22.3333 10.3435 22.0803 11.5059 21.5914 12.5757ZM11.2221 13.3247C12.0444 13.8741 13.0111 14.1673 14 14.1673C15.326 14.1673 16.5978 13.6405 17.5355 12.7029C18.4732 11.7652 19 10.4934 19 9.16732C19 8.17841 18.7067 7.21171 18.1573 6.38947C17.6079 5.56722 16.827 4.92636 15.9134 4.54792C14.9997 4.16948 13.9944 4.07047 13.0245 4.26339C12.0546 4.45632 11.1637 4.93252 10.4644 5.63178C9.76516 6.33105 9.28896 7.22196 9.09603 8.19187C8.90311 9.16177 9.00212 10.1671 9.38056 11.0807C9.759 11.9944 10.3999 12.7753 11.2221 13.3247Z" fill="#31BC2E"/>
<path d="M30.2333 14.7007C31.2999 13.4995 31.9966 12.0157 32.2396 10.4279C32.4826 8.84002 32.2615 7.21578 31.6029 5.75065C30.9443 4.28553 29.8763 3.04198 28.5274 2.16969C27.1785 1.2974 25.6063 0.833555 24 0.833985C23.5579 0.833985 23.134 1.00958 22.8214 1.32214C22.5089 1.6347 22.3333 2.05862 22.3333 2.50065C22.3333 2.94268 22.5089 3.3666 22.8214 3.67916C23.134 3.99172 23.5579 4.16732 24 4.16732C25.326 4.16732 26.5978 4.6941 27.5355 5.63178C28.4732 6.56947 29 7.84124 29 9.16732C28.9976 10.0427 28.7655 10.9022 28.3267 11.6597C27.888 12.4172 27.2581 13.0463 26.5 13.484C26.2529 13.6265 26.0465 13.8301 25.9006 14.0752C25.7547 14.3203 25.6741 14.5988 25.6666 14.884C25.6597 15.1669 25.7248 15.447 25.8561 15.6977C25.9873 15.9485 26.1802 16.1617 26.4166 16.3173L27.0666 16.7507L27.2833 16.8673C29.2923 17.8202 30.9871 19.3273 32.1683 21.2112C33.3494 23.0951 33.9675 25.2772 33.95 27.5007C33.95 27.9427 34.1256 28.3666 34.4381 28.6792C34.7507 28.9917 35.1746 29.1673 35.6166 29.1673C36.0587 29.1673 36.4826 28.9917 36.7951 28.6792C37.1077 28.3666 37.2833 27.9427 37.2833 27.5007C37.2969 24.943 36.6563 22.4244 35.4224 20.1841C34.1885 17.9438 32.4022 16.0562 30.2333 14.7007Z" fill="#E58C00"/>
</svg>
