<svg width="34" height="36" viewBox="0 0 34 36" fill="none" xmlns="http://www.w3.org/2000/svg">
<path d="M28.6667 7.00016C28.6667 7.92064 27.9205 8.66683 27 8.66683C26.0795 8.66683 25.3333 7.92064 25.3333 7.00016C25.3333 6.07969 26.0795 5.3335 27 5.3335C27.8339 5.3335 28.5248 5.94592 28.6474 6.74554C28.6601 6.82855 28.6667 6.91359 28.6667 7.00016Z" fill="#E58C00"/>
<path fill-rule="evenodd" clip-rule="evenodd" d="M27.9332 15.0478L28.0017 15.0011L27.9491 15.037L27.9332 15.0478Z" fill="#E58C00"/>
<path fill-rule="evenodd" clip-rule="evenodd" d="M13.9773 7.53656L11.5913 6.47615C13.2444 5.74164 15.0745 5.3335 17 5.3335C18.191 5.3335 19.3456 5.48966 20.4443 5.78262C20.6563 4.6337 21.1629 3.58803 21.8829 2.72685C20.3386 2.25438 18.699 2.00016 17 2.00016C7.79526 2.00016 0.333344 9.46208 0.333344 18.6668C0.333344 27.8716 7.79526 35.3335 17 35.3335C26.2048 35.3335 33.6667 27.8716 33.6667 18.6668C33.6667 16.0267 33.0528 13.53 31.96 11.3116C31.5496 11.847 31.1056 12.3349 30.6785 12.762C30.2535 13.187 29.831 13.5659 29.4507 13.8863C29.9517 15.1901 30.2537 16.5927 30.3196 18.0566L26.5168 18.5999L23.3837 16.7201C22.7044 16.3125 21.9021 16.1602 21.1207 16.2904L18.1187 16.7907C16.5114 17.0586 15.3333 18.4492 15.3333 20.0787V22.5002L11.8114 30.9529C9.43657 29.9487 7.41327 28.2762 5.9773 26.171L10.3642 21.0529C10.882 20.4488 11.1667 19.6793 11.1667 18.8836L11.1667 15.4239L14.3901 13.4093C16.6554 11.9934 16.4184 8.62149 13.9773 7.53656ZM8.22507 8.62775C5.43124 11.0718 3.66668 14.6632 3.66668 18.6668C3.66668 20.1584 3.91159 21.5927 4.36341 22.9319L7.83334 18.8836V15.4239C7.83334 14.2746 8.42541 13.2064 9.40001 12.5972L12.6235 10.5826L8.22507 8.62775ZM30.0395 21.4638L26.9882 21.8997C26.2303 22.008 25.4582 21.8521 24.8018 21.4582L21.6687 19.5784L18.6667 20.0787V22.5002C18.6667 22.9403 18.5795 23.376 18.4103 23.7822L15.0454 31.8579C15.6834 31.9516 16.336 32.0002 17 32.0002C23.4044 32.0002 28.7542 27.4847 30.0395 21.4638Z" fill="#31BC2E"/>
<path fill-rule="evenodd" clip-rule="evenodd" d="M26.0668 15.0478L26.0721 15.0513L26.0748 15.0531L27 15.6699L27.9245 15.0536L27.926 15.0526L27.9279 15.0513L27.9332 15.0478L28.0017 15.0011C28.0456 14.9708 28.1071 14.9279 28.1836 14.8733C28.3364 14.7642 28.5501 14.6074 28.8045 14.4095C28.9976 14.2593 29.2161 14.0839 29.4507 13.8863C29.831 13.5659 30.2535 13.187 30.6785 12.762C31.1056 12.3349 31.5496 11.847 31.96 11.3116C32.2048 10.9922 32.4377 10.656 32.6479 10.3056C33.2053 9.37664 33.6667 8.24331 33.6667 7.00016C33.6667 3.31826 30.6819 0.333496 27 0.333496C24.9442 0.333496 23.1058 1.26402 21.8829 2.72685C21.1629 3.58803 20.6563 4.6337 20.4443 5.78262C20.3714 6.17738 20.3333 6.58432 20.3333 7.00016C20.3333 8.24331 20.7947 9.37664 21.3521 10.3056C21.9148 11.2434 22.6396 12.0801 23.3215 12.762C24.0087 13.4492 24.6894 14.0159 25.1955 14.4095C25.4499 14.6074 25.6636 14.7642 25.8164 14.8733C25.8929 14.9279 25.9544 14.9708 25.9984 15.0011L26.0509 15.037L26.0668 15.0478ZM24.2104 8.59059C24.5852 9.21524 25.1104 9.83687 25.6785 10.405C26.1414 10.8679 26.6087 11.2714 27 11.5867C27.2507 11.3847 27.5325 11.1466 27.8244 10.8798C27.9881 10.7301 28.1551 10.5714 28.3215 10.405C28.8896 9.83687 29.4148 9.21524 29.7896 8.59059C29.8651 8.46472 29.9321 8.34282 29.9909 8.22494C30.2283 7.74945 30.3333 7.33955 30.3333 7.00016C30.3333 5.15921 28.841 3.66683 27 3.66683C26.3513 3.66683 25.7459 3.85214 25.2338 4.17272C24.2926 4.76189 23.6667 5.80793 23.6667 7.00016C23.6667 7.03908 23.6681 7.07892 23.6709 7.11968C23.6986 7.52254 23.8652 8.01523 24.2104 8.59059Z" fill="#E58C00"/>
</svg>
