<svg width="30" height="30" viewBox="0 0 30 30" fill="none" xmlns="http://www.w3.org/2000/svg">
<path d="M10.0512 4.28194C5.1377 6.24708 1.66667 11.0515 1.66667 16.6667C1.66667 17.5953 1.76161 18.5018 1.94231 19.377C2.78763 18.7227 3.84835 18.3333 5 18.3333C5.04634 18.3333 5.09254 18.334 5.13858 18.3352C5.04744 17.7926 5 17.2352 5 16.6667C5 12.6678 7.34716 9.21721 10.7389 7.61733C10.2703 6.85601 10 5.95958 10 5C10 4.75618 10.0175 4.51643 10.0512 4.28194Z" fill="#31BC2E"/>
<path d="M28.3333 16.6667C28.3333 11.0515 24.8623 6.24708 19.9488 4.28194C19.9825 4.51642 20 4.75618 20 5C20 5.95958 19.7297 6.85601 19.2611 7.61733C22.6528 9.21721 25 12.6678 25 16.6667C25 17.2352 24.9526 17.7926 24.8614 18.3352C24.9075 18.334 24.9537 18.3333 25 18.3333C26.1517 18.3333 27.2124 18.7227 28.0577 19.377C28.2384 18.5018 28.3333 17.5953 28.3333 16.6667Z" fill="#31BC2E"/>
<path d="M7.47792 27.6771C9.61905 29.1427 12.2094 30 15 30C17.7906 30 20.381 29.1427 22.5221 27.6771C21.5279 27.1088 20.7476 26.2089 20.3318 25.1282C18.7885 26.1027 16.9601 26.6667 15 26.6667C13.0399 26.6667 11.2115 26.1027 9.66818 25.1282C9.25238 26.2089 8.4721 27.1088 7.47792 27.6771Z" fill="#31BC2E"/>
<path d="M10.0512 4.28194C10.0175 4.51643 10 4.75618 10 5C10 5.95958 10.2703 6.85601 10.7389 7.61733C11.6189 9.04689 13.1982 10 15 10C16.8018 10 18.3811 9.04689 19.2611 7.61733C19.7297 6.85601 20 5.95958 20 5C20 4.75618 19.9825 4.51642 19.9488 4.28194C19.6006 1.86071 17.5176 0 15 0C12.4824 0 10.3994 1.86071 10.0512 4.28194Z" fill="#E58C00"/>
<path d="M25 28.3333C27.7614 28.3333 30 26.0948 30 23.3333C30 21.7236 29.2393 20.2915 28.0577 19.377C27.2124 18.7227 26.1517 18.3333 25 18.3333C24.9537 18.3333 24.9075 18.334 24.8614 18.3352C22.1641 18.4086 20 20.6183 20 23.3333C20 23.9659 20.1175 24.5711 20.3318 25.1282C20.7476 26.2089 21.5279 27.1088 22.5221 27.6771C23.2525 28.0947 24.0984 28.3333 25 28.3333Z" fill="#E58C00"/>
<path d="M0 23.3333C0 26.0948 2.23858 28.3333 5 28.3333C5.90162 28.3333 6.7475 28.0947 7.47792 27.6771C8.4721 27.1088 9.25238 26.2089 9.66818 25.1282C9.88251 24.5711 10 23.9659 10 23.3333C10 20.6183 7.83593 18.4086 5.13858 18.3352C5.09254 18.334 5.04634 18.3333 5 18.3333C3.84835 18.3333 2.78763 18.7227 1.94231 19.377C0.760735 20.2915 0 21.7236 0 23.3333Z" fill="#E58C00"/>
</svg>
