<svg width="40" height="40" viewBox="0 0 40 40" fill="none" xmlns="http://www.w3.org/2000/svg">
<path fill-rule="evenodd" clip-rule="evenodd" d="M31.6667 34.9998C35.3486 34.9998 38.3334 32.0151 38.3334 28.3332V26.6665C38.3334 25.746 37.5872 24.9998 36.6667 24.9998H35H5.00002H3.33335C2.41288 24.9998 1.66669 25.746 1.66669 26.6665V28.3332C1.66669 32.0151 4.65145 34.9998 8.33335 34.9998H31.6667ZM5.00002 28.3332C5.00002 30.1741 6.4924 31.6665 8.33335 31.6665H31.6667C33.5076 31.6665 35 30.1741 35 28.3332H5.00002Z" fill="#31BC2E"/>
<path d="M21.6667 8.33317C21.6667 7.4127 20.9205 6.6665 20 6.6665C19.0795 6.6665 18.3334 7.4127 18.3334 8.33317V10.0914C18.8806 10.0309 19.4367 9.99984 20 9.99984C20.5634 9.99984 21.1195 10.0309 21.6667 10.0914V8.33317Z" fill="#E58C00"/>
<path d="M31.6667 24.9998H35C35 17.2789 29.1666 10.9205 21.6667 10.0914C21.1195 10.0309 20.5634 9.99984 20 9.99984C19.4367 9.99984 18.8806 10.0309 18.3334 10.0914C10.8334 10.9205 5.00002 17.2789 5.00002 24.9998H8.33335C8.33335 18.5565 13.5567 13.3332 20 13.3332C26.4433 13.3332 31.6667 18.5565 31.6667 24.9998Z" fill="#E58C00"/>
</svg>
