<svg width="34" height="30" viewBox="0 0 34 30" fill="none" xmlns="http://www.w3.org/2000/svg">
<path fill-rule="evenodd" clip-rule="evenodd" d="M23.6666 13.3333H25.3333C25.7753 13.3333 26.1993 13.5089 26.5118 13.8215C26.8244 14.134 27 14.558 27 15C27 15.442 26.8244 15.8659 26.5118 16.1785C26.1993 16.4911 25.7753 16.6667 25.3333 16.6667H23.6666C23.2246 16.6667 22.8007 16.4911 22.4881 16.1785C22.1756 15.8659 22 15.442 22 15C22 14.558 22.1756 14.134 22.4881 13.8215C22.8007 13.5089 23.2246 13.3333 23.6666 13.3333ZM23.6666 20H25.3333C25.7753 20 26.1993 20.1756 26.5118 20.4882C26.8244 20.8007 27 21.2246 27 21.6667C27 22.1087 26.8244 22.5326 26.5118 22.8452C26.1993 23.1577 25.7753 23.3333 25.3333 23.3333H23.6666C23.2246 23.3333 22.8007 23.1577 22.4881 22.8452C22.1756 22.5326 22 22.1087 22 21.6667C22 21.2246 22.1756 20.8007 22.4881 20.4882C22.8007 20.1756 23.2246 20 23.6666 20ZM25.3333 10H15.3333C14.8913 10 14.4674 9.8244 14.1548 9.51184C13.8422 9.19928 13.6666 8.77536 13.6666 8.33333C13.6666 7.89131 13.8422 7.46738 14.1548 7.15482C14.4674 6.84226 14.8913 6.66667 15.3333 6.66667H25.3333C25.7753 6.66667 26.1993 6.84226 26.5118 7.15482C26.8244 7.46738 27 7.89131 27 8.33333C27 8.77536 26.8244 9.19928 26.5118 9.51184C26.1993 9.8244 25.7753 10 25.3333 10ZM17 16.6667H15.3333C14.8913 16.6667 14.4674 16.4911 14.1548 16.1785C13.8422 15.8659 13.6666 15.442 13.6666 15C13.6666 14.558 13.8422 14.134 14.1548 13.8215C14.4674 13.5089 14.8913 13.3333 15.3333 13.3333H17C17.442 13.3333 17.8659 13.5089 18.1785 13.8215C18.4911 14.134 18.6666 14.558 18.6666 15C18.6666 15.442 18.4911 15.8659 18.1785 16.1785C17.8659 16.4911 17.442 16.6667 17 16.6667ZM17 23.3333H15.3333C14.8913 23.3333 14.4674 23.1577 14.1548 22.8452C13.8422 22.5326 13.6666 22.1087 13.6666 21.6667C13.6666 21.2246 13.8422 20.8007 14.1548 20.4882C14.4674 20.1756 14.8913 20 15.3333 20H17C17.442 20 17.8659 20.1756 18.1785 20.4882C18.4911 20.8007 18.6666 21.2246 18.6666 21.6667C18.6666 22.1087 18.4911 22.5326 18.1785 22.8452C17.8659 23.1577 17.442 23.3333 17 23.3333Z" fill="#E58C00"/>
<path fill-rule="evenodd" clip-rule="evenodd" d="M32 0H8.66665C8.22462 0 7.8007 0.175595 7.48814 0.488155C7.17558 0.800716 6.99998 1.22464 6.99998 1.66667V6.66667H1.99998C1.55795 6.66667 1.13403 6.84226 0.821468 7.15482C0.508908 7.46738 0.333313 7.89131 0.333313 8.33333V25C0.333313 26.3261 0.860097 27.5979 1.79778 28.5355C2.73546 29.4732 4.00723 30 5.33331 30H27C28.7681 30 30.4638 29.2976 31.714 28.0474C32.9643 26.7971 33.6666 25.1014 33.6666 23.3333V1.66667C33.6666 1.22464 33.4911 0.800716 33.1785 0.488155C32.8659 0.175595 32.442 0 32 0ZM6.51182 26.1785C6.82438 25.866 6.99998 25.442 6.99998 25V10H3.66665V25C3.66665 25.442 3.84224 25.866 4.1548 26.1785C4.46736 26.4911 4.89129 26.6667 5.33331 26.6667C5.77534 26.6667 6.19926 26.4911 6.51182 26.1785ZM29.357 25.6904C29.9821 25.0652 30.3333 24.2174 30.3333 23.3333V3.33333H10.3333V25C10.3288 25.5686 10.2274 26.1322 10.0333 26.6667H27C27.884 26.6667 28.7319 26.3155 29.357 25.6904Z" fill="#31BC2E"/>
</svg>
