<svg width="36" height="32" viewBox="0 0 36 32" fill="none" xmlns="http://www.w3.org/2000/svg">
<path fill-rule="evenodd" clip-rule="evenodd" d="M20.5 16.5501L20.05 2.10009C19.8961 1.9295 19.7085 1.79258 19.4991 1.69793C19.2898 1.60328 19.0631 1.55295 18.8333 1.55009H2.16667C1.72464 1.55009 1.30072 1.72569 0.988155 2.03825C0.675595 2.35081 0.5 2.77473 0.5 3.21676V29.8834C0.5 30.3254 0.675595 30.7494 0.988155 31.0619C1.30072 31.3745 1.72464 31.5501 2.16667 31.5501H18.8333C19.2754 31.5501 19.6993 31.3745 20.0118 31.0619C20.3244 30.7494 20.5 30.3254 20.5 29.8834V16.5501ZM3.78333 28.2834H8.78333V24.9501H3.78333V28.2834ZM3.78333 21.6168H8.78333V11.6168H3.78333V21.6168ZM3.78333 8.28342H8.78333V4.95009H3.78333V8.28342ZM12.1167 28.2834H17.1167V24.9501H12.1167V28.2834ZM12.1167 21.6168H17.1167V11.6168H12.1167V21.6168ZM12.1167 8.28342H17.1167V4.95009H12.1167V8.28342Z" fill="#31BC2E"/>
<path fill-rule="evenodd" clip-rule="evenodd" d="M35.45 27.3668L33.7833 20.9334L28.5333 1.61676C28.4199 1.19066 28.1422 0.826881 27.7611 0.60509C27.38 0.383299 26.9265 0.321572 26.5 0.433424L20.05 2.10009L20.5 16.5501L24.1667 30.2501C24.2643 30.6137 24.4822 30.9335 24.7849 31.1575C25.0875 31.3814 25.4571 31.4963 25.8333 31.4834C25.9773 31.4998 26.1227 31.4998 26.2667 31.4834L34.3167 29.3334C34.5295 29.2765 34.7289 29.178 34.9034 29.0435C35.0779 28.9091 35.224 28.7414 35.3333 28.5501C35.5091 28.1814 35.5504 27.7627 35.45 27.3668ZM25.7 4.08342L20.8667 5.38342L21.7333 8.60009L26.5667 7.30009L25.7 4.08342ZM22.6 11.8168L25.1833 21.4834L30.0167 20.1834L27.4333 10.5168L22.6 11.8168ZM25.9833 24.7001L26.85 27.9168L31.6833 26.6168L30.8167 23.4001L25.9833 24.7001Z" fill="#E58C00"/>
</svg>
