<svg width="340" height="340" viewBox="0 0 340 340" fill="none" xmlns="http://www.w3.org/2000/svg">
<rect width="340" height="340" fill="#EBF0FF"/>
<path d="M63.8923 176V162.8H67.8123C72.2323 162.8 74.9923 165.54 74.9923 169.38C74.9923 173.18 72.2323 176 67.8123 176H63.8923ZM65.4523 174.6H67.7923C71.2723 174.6 73.3723 172.38 73.3723 169.38C73.3723 166.34 71.2923 164.2 67.7923 164.2H65.4523V174.6ZM86.259 171.6H78.559C78.739 173.52 80.219 174.8 82.139 174.8C83.239 174.8 84.239 174.36 85.119 173.48L86.019 174.52C84.999 175.58 83.659 176.22 82.119 176.22C79.219 176.22 76.959 174 76.959 171.14C76.959 168.32 79.159 166.04 81.939 166.04C84.459 166.04 86.379 167.86 86.379 170.44C86.379 170.82 86.339 171.2 86.259 171.6ZM78.619 170.24H84.799C84.779 168.5 83.519 167.44 81.899 167.44C80.279 167.44 78.959 168.56 78.619 170.24ZM90.8648 164.04V166.26H93.3048V167.64H90.8648V176H89.3248V167.64H87.9248V166.26H89.3248V163.94C89.3248 161.8 90.5648 160.78 92.5448 160.78C92.9648 160.78 93.3848 160.84 93.7648 160.94V162.24C93.4448 162.2 93.1648 162.18 92.9048 162.18C91.6048 162.18 90.8648 162.66 90.8648 164.04ZM95.4448 176V166.26H96.9848V176H95.4448ZM95.0648 162.54C95.0648 161.92 95.5848 161.42 96.2248 161.42C96.8448 161.42 97.3648 161.92 97.3648 162.54C97.3648 163.18 96.8648 163.66 96.2248 163.66C95.5848 163.66 95.0648 163.18 95.0648 162.54ZM108.434 169.88V176H106.894V170.06C106.894 168.52 105.974 167.46 104.474 167.46C102.974 167.46 101.914 168.54 101.914 170.06V176H100.374V166.26H101.814V167.3C102.534 166.5 103.594 166.04 104.814 166.04C107.074 166.04 108.434 167.58 108.434 169.88ZM111.702 176V166.26H113.242V176H111.702ZM111.322 162.54C111.322 161.92 111.842 161.42 112.482 161.42C113.102 161.42 113.622 161.92 113.622 162.54C113.622 163.18 113.122 163.66 112.482 163.66C111.842 163.66 111.322 163.18 111.322 162.54ZM121.944 174.7V176C121.324 176.14 120.784 176.22 120.324 176.22C118.304 176.22 117.044 175.2 117.044 173.06V167.64H115.404V166.26H117.044V163.6H118.584V166.26H121.624V167.64H118.584V172.96C118.584 174.34 119.304 174.82 120.644 174.82C121.024 174.82 121.444 174.78 121.944 174.7ZM132.646 171.6H124.946C125.126 173.52 126.606 174.8 128.526 174.8C129.626 174.8 130.626 174.36 131.506 173.48L132.406 174.52C131.386 175.58 130.046 176.22 128.506 176.22C125.606 176.22 123.346 174 123.346 171.14C123.346 168.32 125.546 166.04 128.326 166.04C130.846 166.04 132.766 167.86 132.766 170.44C132.766 170.82 132.726 171.2 132.646 171.6ZM125.006 170.24H131.186C131.166 168.5 129.906 167.44 128.286 167.44C126.666 167.44 125.346 168.56 125.006 170.24ZM135.471 176V161H137.011V176H135.471ZM147.313 166.26H148.953L144.153 177.36C143.413 179.06 142.353 179.82 140.853 179.82C140.353 179.82 139.853 179.76 139.353 179.62V178.32C139.853 178.38 140.253 178.42 140.533 178.42C141.553 178.42 142.233 178.04 142.733 176.86L143.253 175.7L139.213 166.26H140.873L144.093 174.02L147.313 166.26ZM164.08 170V176H162.64V174.74C161.92 175.7 160.78 176.22 159.36 176.22C157.36 176.22 155.96 175.16 155.96 173.48C155.96 171.82 157.36 170.76 159.46 170.76H162.54V169.92C162.54 168.32 161.64 167.46 160.18 167.46C159 167.46 158.14 167.98 157.34 169.02L156.32 168.18C157.2 166.74 158.66 166.04 160.28 166.04C162.58 166.04 164.08 167.44 164.08 170ZM162.54 172.26V172.02H159.64C158.28 172.02 157.54 172.5 157.54 173.4C157.54 174.38 158.42 174.94 159.56 174.94C161.16 174.94 162.54 173.76 162.54 172.26ZM175.406 169.88V176H173.866V170.06C173.866 168.52 172.946 167.46 171.446 167.46C169.946 167.46 168.886 168.54 168.886 170.06V176H167.346V166.26H168.786V167.3C169.506 166.5 170.566 166.04 171.786 166.04C174.046 166.04 175.406 167.58 175.406 169.88ZM184.28 176V166.26H185.82V176H184.28ZM183.9 162.54C183.9 161.92 184.42 161.42 185.06 161.42C185.68 161.42 186.2 161.92 186.2 162.54C186.2 163.18 185.7 163.66 185.06 163.66C184.42 163.66 183.9 163.18 183.9 162.54ZM189.202 176V161H190.742V176H189.202ZM194.124 176V161H195.664V176H194.124ZM198.926 172.12V166.26H200.446V172.22C200.446 173.8 201.526 174.8 202.966 174.8C204.386 174.8 205.446 173.76 205.446 172.22V166.26H206.986V172.12C206.986 174.58 205.226 176.22 202.966 176.22C200.686 176.22 198.926 174.58 198.926 172.12ZM209.317 174.32L210.297 173.3C211.237 174.26 211.997 174.8 213.097 174.8C214.157 174.8 214.957 174.28 214.957 173.42C214.957 172.64 214.457 172.34 213.257 171.86L212.317 171.46C210.697 170.8 209.897 170.06 209.897 168.76C209.897 167.06 211.317 166.04 213.177 166.04C214.537 166.04 215.637 166.62 216.437 167.58L215.497 168.54C214.837 167.88 213.997 167.46 213.097 167.46C212.137 167.46 211.477 167.9 211.477 168.68C211.477 169.3 211.877 169.6 213.057 170.1L213.957 170.48C215.777 171.26 216.537 172.02 216.537 173.36C216.537 174.26 216.197 174.98 215.537 175.48C214.877 175.98 214.077 176.22 213.117 176.22C211.497 176.22 210.177 175.44 209.317 174.32ZM224.639 174.7V176C224.019 176.14 223.479 176.22 223.019 176.22C220.999 176.22 219.739 175.2 219.739 173.06V167.64H218.099V166.26H219.739V163.6H221.279V166.26H224.319V167.64H221.279V172.96C221.279 174.34 221.999 174.82 223.339 174.82C223.719 174.82 224.139 174.78 224.639 174.7ZM232.116 166.26V167.62H231.536C229.896 167.62 228.476 168.68 228.476 170.48V176H226.936V166.26H228.376V167.64C229.076 166.7 230.216 166.18 231.396 166.18C231.616 166.18 231.856 166.2 232.116 166.26ZM241.287 170V176H239.847V174.74C239.127 175.7 237.987 176.22 236.567 176.22C234.567 176.22 233.167 175.16 233.167 173.48C233.167 171.82 234.567 170.76 236.667 170.76H239.747V169.92C239.747 168.32 238.847 167.46 237.387 167.46C236.207 167.46 235.347 167.98 234.547 169.02L233.527 168.18C234.407 166.74 235.867 166.04 237.487 166.04C239.787 166.04 241.287 167.44 241.287 170ZM239.747 172.26V172.02H236.847C235.487 172.02 234.747 172.5 234.747 173.4C234.747 174.38 235.627 174.94 236.767 174.94C238.367 174.94 239.747 173.76 239.747 172.26ZM249.874 174.7V176C249.254 176.14 248.714 176.22 248.254 176.22C246.234 176.22 244.974 175.2 244.974 173.06V167.64H243.334V166.26H244.974V163.6H246.514V166.26H249.554V167.64H246.514V172.96C246.514 174.34 247.234 174.82 248.574 174.82C248.954 174.82 249.374 174.78 249.874 174.7ZM252.171 176V166.26H253.711V176H252.171ZM251.791 162.54C251.791 161.92 252.311 161.42 252.951 161.42C253.571 161.42 254.091 161.92 254.091 162.54C254.091 163.18 253.591 163.66 252.951 163.66C252.311 163.66 251.791 163.18 251.791 162.54ZM256.393 171.12C256.333 168.34 258.713 165.98 261.493 166.04C264.273 166 266.653 168.34 266.593 171.12C266.653 173.86 264.253 176.26 261.473 176.2C258.693 176.26 256.353 173.86 256.393 171.12ZM265.013 171.14C265.013 169.04 263.473 167.46 261.493 167.46C259.493 167.46 257.973 169.04 257.973 171.14C257.973 173.18 259.493 174.78 261.473 174.78C263.453 174.78 265.013 173.18 265.013 171.14ZM277.36 169.88V176H275.82V170.06C275.82 168.52 274.9 167.46 273.4 167.46C271.9 167.46 270.84 168.54 270.84 170.06V176H269.3V166.26H270.74V167.3C271.46 166.5 272.52 166.04 273.74 166.04C276 166.04 277.36 167.58 277.36 169.88Z" fill="#6C6C6C"/>
</svg>
