<svg width="423" height="397" viewBox="0 0 423 397" fill="none" xmlns="http://www.w3.org/2000/svg">
<g clip-path="url(#clip0_2739_44079)">
<path d="M225.2 188.83H158.47V264H225.2V188.83Z" fill="#58595B"/>
<path d="M225.77 264.58H157.89V188.26H225.77V264.58ZM159 263.43H224.58V189.43H159V263.43Z" fill="#58595B"/>
<path d="M225.2 188.83H158.47V220.87H225.2V188.83Z" fill="#929497"/>
<path d="M329.63 1.67969H54.03C50.777 1.67969 48.14 4.31673 48.14 7.56969V203.45C48.14 206.703 50.777 209.34 54.03 209.34H329.63C332.883 209.34 335.52 206.703 335.52 203.45V7.56969C335.52 4.31673 332.883 1.67969 329.63 1.67969Z" fill="#929497" stroke="#404041" stroke-miterlimit="10"/>
<path d="M329.13 209.91H54.54C52.6835 209.91 50.903 209.173 49.5903 207.86C48.2775 206.547 47.54 204.767 47.54 202.91V8.07031C47.54 6.2138 48.2775 4.43332 49.5903 3.12056C50.903 1.80781 52.6835 1.07031 54.54 1.07031H329.13C330.987 1.07031 332.767 1.80781 334.08 3.12056C335.393 4.43332 336.13 6.2138 336.13 8.07031V203C336.106 204.841 335.358 206.599 334.048 207.892C332.738 209.185 330.971 209.91 329.13 209.91ZM54.54 2.25031C52.9972 2.25296 51.5185 2.86698 50.4276 3.95787C49.3367 5.04876 48.7226 6.52756 48.72 8.07031V203C48.7227 204.542 49.337 206.02 50.4282 207.109C51.5194 208.198 52.9982 208.81 54.54 208.81H329.13C330.67 208.808 332.146 208.195 333.235 207.106C334.324 206.017 334.937 204.54 334.94 203V8.07031C334.94 6.52848 334.328 5.04966 333.239 3.95848C332.15 2.86731 330.672 2.25296 329.13 2.25031H54.54Z" fill="#929497" stroke="#404041" stroke-miterlimit="10"/>
<path d="M330.3 12.3301H53.36V182.87H330.3V12.3301Z" fill="white"/>
<path d="M330.88 183.44H52.79V11.7598H330.88V183.44ZM53.94 182.29H329.73V12.9098H53.94V182.29Z" fill="white"/>
<path d="M255.35 20.1309H130.88C127.296 20.1309 124.39 23.0365 124.39 26.6209V26.6309C124.39 30.2152 127.296 33.1209 130.88 33.1209H255.35C258.934 33.1209 261.84 30.2152 261.84 26.6309V26.6209C261.84 23.0365 258.934 20.1309 255.35 20.1309Z" fill="#DCFDF7"/>
<path d="M187.79 44.6406H133.22C130.646 44.6406 128.56 46.727 128.56 49.3006V71.9306C128.56 74.5043 130.646 76.5906 133.22 76.5906H187.79C190.364 76.5906 192.45 74.5043 192.45 71.9306V49.3006C192.45 46.727 190.364 44.6406 187.79 44.6406Z" fill="#DCFDF7"/>
<path d="M256.65 44.6406H202.08C199.506 44.6406 197.42 46.727 197.42 49.3006V71.9306C197.42 74.5043 199.506 76.5906 202.08 76.5906H256.65C259.224 76.5906 261.31 74.5043 261.31 71.9306V49.3006C261.31 46.727 259.224 44.6406 256.65 44.6406Z" fill="#DCFDF7"/>
<path d="M259.33 90.0508H136.17C132.481 90.0508 129.49 93.0415 129.49 96.7308V114.151C129.49 117.84 132.481 120.831 136.17 120.831H259.33C263.019 120.831 266.01 117.84 266.01 114.151V96.7308C266.01 93.0415 263.019 90.0508 259.33 90.0508Z" fill="#DCFDF7"/>
<path d="M259.6 132.91H136.44C132.751 132.91 129.76 135.901 129.76 139.59V157.01C129.76 160.699 132.751 163.69 136.44 163.69H259.6C263.289 163.69 266.28 160.699 266.28 157.01V139.59C266.28 135.901 263.289 132.91 259.6 132.91Z" fill="#DCFDF7"/>
<path d="M346.29 264.471H50.72V265.181H346.29V264.471Z" fill="#102048"/>
<path d="M210.2 243.541L346.65 242.151C346.65 242.151 351.65 202.151 327.46 155.071C306.94 115.071 310.23 76.8008 310.23 76.8008L173.78 78.1908C173.78 78.1908 171.57 126.001 192.66 163.901C215.11 204.271 210.2 243.541 210.2 243.541Z" fill="#F4D556"/>
<path d="M326.4 219.76C326.946 219.827 327.5 219.717 327.979 219.446C328.458 219.175 328.837 218.758 329.061 218.255C329.285 217.752 329.342 217.191 329.223 216.654C329.104 216.116 328.815 215.631 328.4 215.27L316.82 205.06C316.571 204.812 316.273 204.617 315.946 204.487C315.619 204.358 315.268 204.297 314.917 204.308C314.565 204.319 314.219 204.402 313.9 204.552C313.582 204.701 313.297 204.915 313.064 205.178C312.831 205.442 312.655 205.751 312.545 206.086C312.436 206.42 312.396 206.774 312.429 207.124C312.461 207.475 312.565 207.815 312.734 208.124C312.902 208.432 313.133 208.704 313.41 208.92L325 219.14C325.395 219.48 325.883 219.696 326.4 219.76Z" fill="#CC5A44"/>
<path d="M315.5 220.44C315.914 220.492 316.335 220.442 316.726 220.293C317.116 220.145 317.464 219.904 317.74 219.59L328 208C328.405 207.481 328.597 206.827 328.535 206.171C328.474 205.516 328.164 204.908 327.67 204.474C327.175 204.039 326.533 203.81 325.875 203.834C325.217 203.857 324.592 204.131 324.13 204.6L313.92 216.19C313.607 216.54 313.396 216.97 313.311 217.431C313.226 217.893 313.269 218.369 313.436 218.808C313.604 219.247 313.888 219.631 314.259 219.919C314.63 220.207 315.073 220.387 315.54 220.44H315.5Z" fill="#CC5A44"/>
<path d="M319.7 195.52C319.472 195.659 319.222 195.757 318.96 195.81C318.528 195.902 318.079 195.881 317.657 195.75C317.235 195.619 316.854 195.381 316.55 195.06L309.77 187.86C309.35 187.355 309.139 186.709 309.179 186.054C309.22 185.398 309.508 184.783 309.986 184.333C310.464 183.883 311.096 183.632 311.753 183.631C312.409 183.631 313.041 183.881 313.52 184.33L317.39 188.44L321.68 176.13C321.791 175.811 321.964 175.517 322.188 175.264C322.413 175.012 322.685 174.806 322.989 174.659C323.293 174.512 323.623 174.426 323.961 174.407C324.298 174.387 324.636 174.434 324.955 174.545C325.274 174.656 325.568 174.829 325.821 175.053C326.073 175.278 326.279 175.55 326.426 175.854C326.573 176.158 326.659 176.489 326.678 176.826C326.698 177.163 326.651 177.501 326.54 177.82L320.86 194.14C320.651 194.724 320.239 195.214 319.7 195.52Z" fill="#2A2C5E"/>
<path d="M311.35 167.48C311.131 167.63 310.892 167.748 310.64 167.83C310.218 167.962 309.768 167.983 309.335 167.891C308.902 167.798 308.501 167.594 308.17 167.3L300.75 160.77C300.497 160.546 300.29 160.275 300.141 159.972C299.992 159.669 299.905 159.339 299.883 159.002C299.862 158.665 299.907 158.327 300.016 158.008C300.126 157.688 300.297 157.393 300.52 157.14C300.743 156.886 301.014 156.679 301.317 156.53C301.621 156.382 301.95 156.294 302.287 156.273C302.624 156.251 302.962 156.297 303.282 156.406C303.602 156.515 303.897 156.686 304.15 156.91L308.39 160.64L311.52 148C311.715 147.371 312.143 146.84 312.717 146.516C313.29 146.193 313.966 146.101 314.605 146.259C315.245 146.418 315.799 146.815 316.155 147.369C316.511 147.923 316.641 148.592 316.52 149.24L312.37 166C312.218 166.599 311.856 167.125 311.35 167.48Z" fill="#2A2C5E"/>
<path d="M302.35 139.341C302.117 139.475 301.864 139.57 301.6 139.621C301.168 139.709 300.72 139.685 300.299 139.55C299.879 139.415 299.5 139.174 299.2 138.851L292.49 131.591C292.071 131.082 291.862 130.433 291.906 129.776C291.95 129.119 292.244 128.503 292.727 128.056C293.211 127.608 293.847 127.363 294.506 127.369C295.164 127.376 295.796 127.634 296.27 128.091L300.1 132.241L304.5 120.001C304.756 119.392 305.235 118.904 305.84 118.638C306.445 118.372 307.128 118.348 307.75 118.571C308.372 118.795 308.884 119.247 309.182 119.837C309.479 120.427 309.54 121.108 309.35 121.741L303.51 138.001C303.294 138.571 302.883 139.046 302.35 139.341Z" fill="#2A2C5E"/>
<path d="M294.86 108.66C294.63 108.792 294.38 108.887 294.12 108.94C293.685 109.029 293.235 109.004 292.812 108.867C292.39 108.731 292.01 108.487 291.71 108.16L285 100.9C284.537 100.398 284.292 99.7338 284.32 99.0521C284.347 98.3705 284.644 97.7275 285.145 97.2647C285.646 96.8019 286.311 96.5571 286.993 96.5843C287.674 96.6115 288.317 96.9084 288.78 97.4097L292.61 101.56L297 89.2897C297.256 88.6807 297.735 88.1931 298.34 87.9273C298.945 87.6614 299.628 87.6375 300.25 87.8605C300.872 88.0836 301.384 88.5365 301.682 89.1261C301.979 89.7157 302.04 90.397 301.85 91.0297L296 107.29C295.797 107.869 295.392 108.355 294.86 108.66Z" fill="#2A2C5E"/>
<path d="M194 112.11C194.123 112.12 194.247 112.12 194.37 112.11L278.62 110C279.276 109.946 279.887 109.644 280.328 109.155C280.769 108.666 281.006 108.026 280.99 107.368C280.975 106.71 280.709 106.082 280.246 105.614C279.783 105.146 279.158 104.872 278.5 104.85L194.22 107C193.557 106.996 192.918 107.249 192.437 107.706C191.956 108.162 191.67 108.787 191.639 109.449C191.608 110.112 191.834 110.761 192.271 111.26C192.707 111.76 193.319 112.071 193.98 112.13L194 112.11Z" fill="#151947"/>
<path d="M201.89 142.49C202.016 142.501 202.144 142.501 202.27 142.49L286.54 140.38C287.197 140.326 287.808 140.023 288.248 139.533C288.688 139.043 288.924 138.403 288.907 137.744C288.891 137.085 288.623 136.458 288.158 135.991C287.694 135.523 287.069 135.251 286.41 135.23L202.14 137.34C201.499 137.371 200.893 137.639 200.439 138.092C199.986 138.545 199.717 139.151 199.686 139.792C199.655 140.433 199.863 141.062 200.271 141.557C200.678 142.052 201.255 142.378 201.89 142.47V142.49Z" fill="#151947"/>
<path d="M213.82 171.21H214.21L295.83 168.78C296.181 168.789 296.529 168.727 296.855 168.597C297.181 168.466 297.476 168.271 297.724 168.023C297.972 167.774 298.166 167.478 298.295 167.152C298.425 166.826 298.486 166.477 298.476 166.126C298.466 165.775 298.384 165.431 298.236 165.112C298.088 164.794 297.877 164.51 297.615 164.276C297.353 164.043 297.047 163.865 296.714 163.754C296.381 163.643 296.03 163.601 295.68 163.63L214.05 166.06C213.41 166.094 212.806 166.365 212.355 166.82C211.905 167.275 211.639 167.881 211.61 168.521C211.582 169.161 211.792 169.788 212.2 170.282C212.609 170.775 213.186 171.099 213.82 171.19V171.21Z" fill="#151947"/>
<path d="M224.1 198.089C224.226 198.1 224.354 198.1 224.48 198.089L305.23 196.089C305.886 196.036 306.497 195.734 306.938 195.245C307.379 194.755 307.616 194.116 307.6 193.458C307.585 192.8 307.319 192.172 306.856 191.704C306.393 191.236 305.768 190.962 305.11 190.939L224.35 192.939C223.709 192.97 223.103 193.238 222.649 193.691C222.196 194.144 221.927 194.75 221.896 195.391C221.865 196.031 222.073 196.661 222.481 197.156C222.888 197.651 223.465 197.977 224.1 198.069V198.089Z" fill="#151947"/>
<path d="M228.65 221.391C228.776 221.401 228.904 221.401 229.03 221.391L307.44 219.391C307.778 219.382 308.11 219.307 308.419 219.17C308.727 219.033 309.006 218.837 309.238 218.592C309.471 218.347 309.653 218.059 309.774 217.744C309.896 217.429 309.954 217.093 309.945 216.756C309.936 216.418 309.862 216.086 309.724 215.777C309.587 215.469 309.391 215.19 309.146 214.958C308.902 214.725 308.614 214.543 308.298 214.422C307.983 214.3 307.647 214.242 307.31 214.251L228.9 216.251C228.259 216.281 227.653 216.549 227.199 217.003C226.746 217.456 226.477 218.062 226.446 218.702C226.415 219.343 226.623 219.972 227.031 220.467C227.438 220.962 228.015 221.288 228.65 221.381V221.391Z" fill="#151947"/>
<path d="M142.63 114.449H8.02V305.169H142.63V114.449Z" fill="#95F9E5"/>
<path d="M26.43 322.93L20.06 312.54L10.7 320.35L20.33 261.73L36.05 264.32L26.43 322.93Z" fill="#CC5A44"/>
<path d="M30.94 269.62L40.7 328.21L47.04 317.81L56.41 325.6L46.65 267L30.94 269.62Z" fill="#CC5A44"/>
<path d="M66.25 267.44C66.25 270.83 63.25 273.7 62.25 276.75C61.25 279.8 61.92 283.99 60 286.63C58.08 289.27 54 289.88 51.3 291.82C48.6 293.76 46.84 297.47 43.68 298.49C40.52 299.51 36.97 297.57 33.59 297.57C30.21 297.57 26.59 299.49 23.49 298.49C20.39 297.49 18.49 293.74 15.87 291.82C13.25 289.9 9.11 289.29 7.17 286.63C5.23 283.97 5.95 279.92 4.92 276.75C3.89 273.58 0.919998 270.83 0.919998 267.44C0.919998 264.05 3.92 261.18 4.92 258.12C5.92 255.06 5.26 250.88 7.17 248.25C9.08 245.62 13.17 244.99 15.87 243.06C18.57 241.13 20.33 237.41 23.49 236.38C26.65 235.35 30.2 237.3 33.59 237.3C36.98 237.3 40.59 235.39 43.68 236.38C46.77 237.37 48.68 241.14 51.3 243.06C53.92 244.98 58.06 245.59 60 248.25C61.94 250.91 61.22 254.96 62.25 258.12C63.28 261.28 66.25 264.05 66.25 267.44Z" fill="#F4D556"/>
<path d="M59.19 267.439C59.192 272.501 57.6926 277.45 54.8815 281.66C52.0704 285.87 48.0739 289.151 43.3975 291.09C38.7211 293.028 33.575 293.535 28.6101 292.548C23.6452 291.561 19.0846 289.124 15.5051 285.544C11.9257 281.965 9.4883 277.404 8.50122 272.439C7.51415 267.474 8.02176 262.328 9.95984 257.652C11.8979 252.976 15.1794 248.979 19.3892 246.168C23.599 243.357 28.5479 241.857 33.61 241.859C40.3942 241.859 46.9006 244.554 51.6978 249.352C56.495 254.149 59.19 260.655 59.19 267.439Z" fill="#E2BE27"/>
<path d="M33.38 241.86C27.9127 241.908 22.6046 243.706 18.2341 246.991C13.8635 250.276 10.6605 254.875 9.0948 260.113C7.52907 265.352 7.68299 270.954 9.53399 276.099C11.385 281.244 14.8357 285.66 19.38 288.7C33.47 285.09 43.68 274.43 43.68 261.84C43.68 254.03 39.75 246.96 33.39 241.84" fill="#F4D556"/>
<path d="M127 168.279H20.38C19.9822 168.279 19.6006 168.121 19.3193 167.84C19.038 167.559 18.88 167.177 18.88 166.779C18.88 166.381 19.038 166 19.3193 165.719C19.6006 165.437 19.9822 165.279 20.38 165.279H127C127.398 165.279 127.779 165.437 128.061 165.719C128.342 166 128.5 166.381 128.5 166.779C128.5 167.177 128.342 167.559 128.061 167.84C127.779 168.121 127.398 168.279 127 168.279Z" fill="#2B388F"/>
<path d="M127 184.859H20.38C19.9822 184.859 19.6006 184.701 19.3193 184.42C19.038 184.139 18.88 183.757 18.88 183.359C18.88 182.962 19.038 182.58 19.3193 182.299C19.6006 182.017 19.9822 181.859 20.38 181.859H127C127.398 181.859 127.779 182.017 128.061 182.299C128.342 182.58 128.5 182.962 128.5 183.359C128.5 183.757 128.342 184.139 128.061 184.42C127.779 184.701 127.398 184.859 127 184.859Z" fill="#2B388F"/>
<path d="M127 201.439H20.38C19.9822 201.439 19.6006 201.281 19.3193 201C19.038 200.719 18.88 200.337 18.88 199.939C18.88 199.542 19.038 199.16 19.3193 198.879C19.6006 198.597 19.9822 198.439 20.38 198.439H127C127.398 198.439 127.779 198.597 128.061 198.879C128.342 199.16 128.5 199.542 128.5 199.939C128.5 200.337 128.342 200.719 128.061 201C127.779 201.281 127.398 201.439 127 201.439Z" fill="#2B388F"/>
<path d="M127 218H20.38C19.9822 218 19.6006 217.842 19.3193 217.561C19.038 217.279 18.88 216.898 18.88 216.5C18.88 216.102 19.038 215.721 19.3193 215.439C19.6006 215.158 19.9822 215 20.38 215H127C127.398 215 127.779 215.158 128.061 215.439C128.342 215.721 128.5 216.102 128.5 216.5C128.5 216.898 128.342 217.279 128.061 217.561C127.779 217.842 127.398 218 127 218Z" fill="#2B388F"/>
<path d="M126.79 263.23H73.45C73.0522 263.23 72.6706 263.072 72.3893 262.791C72.108 262.51 71.95 262.128 71.95 261.73C71.95 261.333 72.108 260.951 72.3893 260.67C72.6706 260.388 73.0522 260.23 73.45 260.23H126.79C127.188 260.23 127.569 260.388 127.851 260.67C128.132 260.951 128.29 261.333 128.29 261.73C128.29 262.128 128.132 262.51 127.851 262.791C127.569 263.072 127.188 263.23 126.79 263.23Z" fill="#2B388F"/>
<path d="M126.79 279H73.45C73.0522 279 72.6706 278.842 72.3893 278.561C72.108 278.279 71.95 277.898 71.95 277.5C71.95 277.102 72.108 276.721 72.3893 276.439C72.6706 276.158 73.0522 276 73.45 276H126.79C127.188 276 127.569 276.158 127.851 276.439C128.132 276.721 128.29 277.102 128.29 277.5C128.29 277.898 128.132 278.279 127.851 278.561C127.569 278.842 127.188 279 126.79 279Z" fill="#2B388F"/>
<path d="M87.36 237.399C84.43 246.009 84.1 255.449 88 263.819C89 265.989 91.9 271.129 95 268.979C99.27 265.979 96.73 257.649 96.27 253.499C96.12 252.249 96.0699 250.988 96.12 249.729C96.27 246.999 98.33 247.459 99.58 249.319C101.44 252.119 102.27 255.889 102.9 259.149C102.95 259.389 103.99 259.149 103.98 258.859C103.91 256.929 103.54 255.049 103.98 253.139C105.26 248.039 109.34 256.699 109.61 257.309C109.72 257.549 110.61 257.309 110.69 257.069C111.09 254.939 111.4 252.489 114.33 252.239C114.62 252.239 115.51 251.739 114.8 251.799C111.37 252.079 110.25 253.899 109.62 257.259L110.7 257.019C109.7 254.799 108.63 250.639 105.33 251.479C101.72 252.389 102.77 256.239 102.87 259.149L103.95 258.859C103.38 255.909 101.78 246.169 97.24 246.969C93.24 247.669 95.3 255.089 95.61 257.529C96.01 260.649 96.61 264.099 95.55 267.139C94.09 271.459 90.75 266.569 89.72 264.839C84.83 256.629 85.41 245.919 88.38 237.219C88.45 236.999 87.38 237.119 87.31 237.399H87.36Z" fill="#2B388F"/>
<path d="M87.37 140.34C87.37 142.713 86.6662 145.033 85.3476 147.007C84.0291 148.98 82.1549 150.518 79.9622 151.426C77.7695 152.335 75.3567 152.572 73.0289 152.109C70.7012 151.646 68.5629 150.503 66.8847 148.825C65.2065 147.147 64.0636 145.009 63.6006 142.681C63.1376 140.353 63.3752 137.94 64.2835 135.748C65.1917 133.555 66.7298 131.681 68.7032 130.362C70.6765 129.044 72.9966 128.34 75.37 128.34C78.5526 128.34 81.6049 129.604 83.8553 131.855C86.1057 134.105 87.37 137.157 87.37 140.34Z" fill="#2B388F"/>
<path d="M80.3974 144.795C79.9805 144.379 79.4471 144.1 78.868 143.995C78.289 143.89 77.6916 143.963 77.1551 144.205C76.4399 144.522 75.6487 144.627 74.8755 144.508V138.053C74.3695 138.053 73.8842 138.254 73.5264 138.612C73.1685 138.97 72.9675 139.456 72.9675 139.962V143.662C72.3122 143.138 71.8359 142.422 71.6043 141.615C71.3728 140.808 71.3975 139.949 71.675 139.156C71.9525 138.364 72.4692 137.677 73.1535 137.191C73.8379 136.705 74.6563 136.443 75.4956 136.443C76.0641 136.441 76.6265 136.561 77.1452 136.794C77.6817 137.036 78.279 137.109 78.8579 137.003C79.4368 136.898 79.9702 136.619 80.3874 136.204L80.0907 135.907C78.9624 134.775 77.4558 134.099 75.8601 134.01C74.2644 133.921 72.692 134.424 71.4447 135.424C70.6835 136.031 70.0686 136.801 69.6454 137.677C69.2223 138.554 69.0017 139.515 69.0001 140.488C68.9961 141.344 69.1623 142.193 69.4888 142.984C69.8153 143.775 70.2957 144.493 70.9021 145.097C71.0732 145.268 71.2529 145.429 71.4407 145.581C72.6893 146.577 74.2608 147.079 75.8555 146.99C77.4502 146.901 78.9564 146.228 80.0867 145.099L80.3974 144.795Z" fill="white"/>
<path d="M75.4514 141.533H76.3279C76.8332 141.533 77.3178 141.332 77.6754 140.975C78.0331 140.618 78.2345 140.133 78.2356 139.628H77.3594C77.1091 139.627 76.8612 139.676 76.6298 139.772C76.3985 139.868 76.1882 140.008 76.011 140.185C75.8339 140.362 75.6932 140.572 75.5972 140.803C75.5012 141.034 75.4516 141.282 75.4514 141.533Z" fill="white"/>
<path d="M269.49 229.999C271.708 228.818 274.294 228.528 276.719 229.188C279.144 229.848 281.226 231.407 282.54 233.549L323.7 300.549L304.32 313.379L265.44 243.439C264.817 242.292 264.428 241.033 264.295 239.735C264.161 238.437 264.287 237.125 264.663 235.875C265.04 234.625 265.66 233.463 266.489 232.454C267.317 231.446 268.337 230.611 269.49 229.999Z" fill="#98492F"/>
<path d="M307.24 241.451C308.499 240.77 309.88 240.344 311.304 240.198C312.727 240.051 314.166 240.187 315.537 240.598C316.908 241.009 318.185 241.686 319.294 242.59C320.403 243.495 321.323 244.61 322 245.871L346.19 289.791C347.017 291.328 347.533 293.013 347.708 294.749C347.884 296.486 347.715 298.24 347.213 299.911C346.711 301.583 345.884 303.139 344.78 304.491C343.676 305.843 342.317 306.964 340.78 307.791C339.195 308.644 337.452 309.166 335.659 309.325C333.865 309.483 332.058 309.276 330.348 308.715C328.637 308.154 327.058 307.25 325.707 306.06C324.357 304.87 323.262 303.417 322.49 301.791L302.59 255.711C301.387 253.191 301.2 250.306 302.065 247.651C302.931 244.997 304.783 242.777 307.24 241.451Z" fill="#98492F"/>
<path d="M332.09 234.23C333.28 233.519 334.598 233.049 335.969 232.848C337.34 232.647 338.737 232.718 340.081 233.057C341.425 233.396 342.689 233.996 343.8 234.824C344.912 235.651 345.85 236.69 346.56 237.88L371.08 277.56C371.946 279.013 372.518 280.622 372.762 282.296C373.006 283.97 372.918 285.675 372.503 287.315C372.088 288.955 371.354 290.497 370.343 291.854C369.332 293.21 368.063 294.354 366.61 295.22C365.112 296.12 363.446 296.706 361.714 296.942C359.981 297.177 358.219 297.057 356.535 296.589C354.851 296.122 353.279 295.315 351.917 294.22C350.554 293.125 349.429 291.764 348.61 290.22L328.14 248.22C326.882 245.825 326.59 243.04 327.325 240.437C328.06 237.834 329.765 235.612 332.09 234.23Z" fill="#98492F"/>
<path d="M357.47 229.759C358.508 229.098 359.666 228.647 360.878 228.433C362.091 228.22 363.333 228.247 364.535 228.513C365.736 228.78 366.874 229.281 367.882 229.987C368.89 230.693 369.749 231.591 370.41 232.629L398.19 274.289C399 275.558 399.552 276.975 399.815 278.457C400.077 279.94 400.045 281.459 399.72 282.929C399.395 284.4 398.783 285.791 397.92 287.025C397.057 288.258 395.96 289.31 394.69 290.119C393.381 290.951 391.916 291.508 390.385 291.757C388.854 292.005 387.289 291.941 385.783 291.567C384.278 291.193 382.864 290.517 381.628 289.581C380.392 288.644 379.358 287.467 378.59 286.119L354.36 242.269C353.182 240.182 352.847 237.722 353.426 235.395C354.004 233.069 355.451 231.052 357.47 229.759Z" fill="#98492F"/>
<path d="M277.37 332.061C292.3 325.271 314.94 333.561 314.94 333.561L289.09 285.001L381.66 260.511C388.84 258.101 396.19 264.761 399.66 272.511L417.5 304.881C421.039 311.539 422.814 318.994 422.657 326.533C422.499 334.072 420.414 341.445 416.6 347.951C418.555 351.342 419.8 355.096 420.259 358.983C420.719 362.871 420.382 366.811 419.271 370.565C418.16 374.318 416.297 377.807 413.795 380.818C411.294 383.829 408.206 386.3 404.72 388.081L394.27 393.421C387.962 396.633 380.691 397.408 373.847 395.598C367.003 393.789 361.066 389.521 357.17 383.611C349.421 384.568 341.557 383.493 334.35 380.491C312.35 371.271 298.06 356.131 282.64 351.111C279.561 350.072 277.002 347.882 275.5 345.001L274.19 342.531C272.21 338.781 273.47 333.831 277.37 332.061Z" fill="#98492F"/>
</g>
<defs>
<clipPath id="clip0_2739_44079">
<rect width="423" height="397" fill="white"/>
</clipPath>
</defs>
</svg>
