<svg width="16" height="14" viewBox="0 0 16 14" fill="none" xmlns="http://www.w3.org/2000/svg">
<path d="M0.999985 5.99994H12.59L9.28998 2.70994C9.10168 2.52164 8.99589 2.26624 8.99589 1.99994C8.99589 1.73364 9.10168 1.47825 9.28998 1.28994C9.47829 1.10164 9.73368 0.99585 9.99998 0.99585C10.2663 0.99585 10.5217 1.10164 10.71 1.28994L15.71 6.28994C15.801 6.38505 15.8724 6.49719 15.92 6.61994C16.02 6.8634 16.02 7.13648 15.92 7.37994C15.8724 7.50269 15.801 7.61484 15.71 7.70994L10.71 12.7099C10.617 12.8037 10.5064 12.8781 10.3846 12.9288C10.2627 12.9796 10.132 13.0057 9.99998 13.0057C9.86797 13.0057 9.73727 12.9796 9.61541 12.9288C9.49355 12.8781 9.38295 12.8037 9.28998 12.7099C9.19626 12.617 9.12186 12.5064 9.07109 12.3845C9.02032 12.2627 8.99419 12.132 8.99419 11.9999C8.99419 11.8679 9.02032 11.7372 9.07109 11.6154C9.12186 11.4935 9.19626 11.3829 9.28998 11.2899L12.59 7.99994H0.999985C0.734768 7.99994 0.480414 7.89458 0.292877 7.70705C0.105341 7.51951 -1.52588e-05 7.26516 -1.52588e-05 6.99994C-1.52588e-05 6.73472 0.105341 6.48037 0.292877 6.29283C0.480414 6.1053 0.734768 5.99994 0.999985 5.99994Z" fill="#367AFE"/>
</svg>
