<svg width="34" height="34" viewBox="0 0 34 34" fill="none" xmlns="http://www.w3.org/2000/svg">
<path fill-rule="evenodd" clip-rule="evenodd" d="M18.6667 11.1666C18.6667 10.2461 19.4129 9.49992 20.3333 9.49992H25.3333C26.2538 9.49992 27 10.2461 27 11.1666C27 12.0871 26.2538 12.8333 25.3333 12.8333H20.3333C19.4129 12.8333 18.6667 12.0871 18.6667 11.1666Z" fill="#E58C00"/>
<path fill-rule="evenodd" clip-rule="evenodd" d="M18.6667 22.8333C18.6667 21.9128 19.4129 21.1666 20.3333 21.1666H32C32.9205 21.1666 33.6667 21.9128 33.6667 22.8333C33.6667 23.7537 32.9205 24.4999 32 24.4999H20.3333C19.4129 24.4999 18.6667 23.7537 18.6667 22.8333Z" fill="#E58C00"/>
<path fill-rule="evenodd" clip-rule="evenodd" d="M18.6667 28.6666C18.6667 27.7461 19.4129 26.9999 20.3333 26.9999H25.3333C26.2538 26.9999 27 27.7461 27 28.6666C27 29.5871 26.2538 30.3333 25.3333 30.3333H20.3333C19.4129 30.3333 18.6667 29.5871 18.6667 28.6666Z" fill="#E58C00"/>
<path d="M20.3333 3.66659C19.4129 3.66659 18.6667 4.41278 18.6667 5.33325C18.6667 6.25373 19.4129 6.99992 20.3333 6.99992H32C32.9205 6.99992 33.6667 6.25373 33.6667 5.33325C33.6667 4.41278 32.9205 3.66659 32 3.66659H20.3333Z" fill="#E58C00"/>
<path fill-rule="evenodd" clip-rule="evenodd" d="M13.6667 0.333252H2C1.55797 0.333252 1.13405 0.508847 0.821489 0.821407C0.508929 1.13397 0.333334 1.55789 0.333334 1.99992V13.6666C0.333334 14.1086 0.508929 14.5325 0.821489 14.8451C1.13405 15.1577 1.55797 15.3333 2 15.3333H13.6667C14.1087 15.3333 14.5326 15.1577 14.8452 14.8451C15.1577 14.5325 15.3333 14.1086 15.3333 13.6666V1.99992C15.3333 1.55789 15.1577 1.13397 14.8452 0.821407C14.5326 0.508847 14.1087 0.333252 13.6667 0.333252ZM3.66667 11.9999H12V3.66659H3.66667V11.9999Z" fill="#367AFE"/>
<path fill-rule="evenodd" clip-rule="evenodd" d="M13.6667 18.6666H2C1.55797 18.6666 1.13405 18.8422 0.821489 19.1547C0.508929 19.4673 0.333334 19.8912 0.333334 20.3333V31.9999C0.333334 32.4419 0.508929 32.8659 0.821489 33.1784C1.13405 33.491 1.55797 33.6666 2 33.6666H13.6667C14.1087 33.6666 14.5326 33.491 14.8452 33.1784C15.1577 32.8659 15.3333 32.4419 15.3333 31.9999V20.3333C15.3333 19.8912 15.1577 19.4673 14.8452 19.1547C14.5326 18.8422 14.1087 18.6666 13.6667 18.6666ZM3.66667 30.3333H12V21.9999H3.66667V30.3333Z" fill="#367AFE"/>
</svg>
