<svg width="800" height="500" viewBox="0 0 800 500" fill="none" xmlns="http://www.w3.org/2000/svg">
<rect width="800" height="500" fill="#1D1D1F"/>
<rect x="348" y="198" width="104" height="104" rx="52" fill="white"/>
<path d="M417.594 243L395.054 230.073C393.834 229.369 392.449 229 391.041 229.004C389.633 229.008 388.25 229.384 387.035 230.095C385.819 230.806 384.813 231.826 384.119 233.052C383.425 234.278 383.068 235.665 383.084 237.073V263.02C383.084 265.136 383.924 267.166 385.421 268.663C386.917 270.159 388.947 271 391.064 271C392.465 270.998 393.84 270.627 395.054 269.927L417.594 257C418.805 256.299 419.81 255.292 420.509 254.08C421.208 252.867 421.576 251.493 421.576 250.093C421.576 248.694 421.208 247.319 420.509 246.107C419.81 244.895 418.805 243.888 417.594 243.187V243Z" fill="#31BC2E"/>
</svg>
