<svg width="554" height="356" viewBox="0 0 554 356" fill="none" xmlns="http://www.w3.org/2000/svg">
    <g clip-path="url(#clip0_2739_44128)">
    <path d="M486.2 348.914L485.764 348.16C494.639 343.032 502.773 335.335 509.939 325.257C517.02 315.098 522.523 303.927 526.265 292.123C534.021 267.995 536.755 242.263 539.36 217.357C518.638 223.675 499.142 240.295 485.775 263.02C472.255 286.006 465.183 314.967 466.362 342.455H465.49C464.311 314.802 471.383 285.676 485.009 262.537C498.635 239.399 518.638 222.555 539.737 216.319L540.374 216.131L540.303 216.791C537.675 241.945 534.952 267.959 527.101 292.394C523.319 304.288 517.755 315.539 510.599 325.764C503.409 335.948 495.193 343.739 486.2 348.914Z" fill="#31BC2E"/>
    <path d="M468.413 343.882L467.541 343.8C468.342 334.547 471.23 325.235 476.381 315.345C481.13 306.636 486.624 298.354 492.801 290.592L496.502 285.818C507.11 272.145 518.167 258.012 523.318 240.768L524.167 241.015C518.968 258.425 507.9 272.628 497.197 286.361L493.496 291.075C487.351 298.805 481.885 307.052 477.159 315.723C472.067 325.53 469.203 334.771 468.413 343.882Z" fill="#31BC2E"/>
    <path d="M491.716 298.372C490.502 298.376 489.289 298.297 488.086 298.136L488.204 297.264C493.709 297.93 499.29 297.014 504.293 294.623C509.679 292.092 514.355 288.27 517.908 283.496L518.615 284.027C514.97 288.91 510.182 292.824 504.671 295.425C500.616 297.331 496.196 298.336 491.716 298.372Z" fill="#31BC2E"/>
    <path d="M500.392 281.021C498.995 275.771 498.721 270.287 499.588 264.925C500.456 259.562 502.444 254.444 505.425 249.902L506.156 250.409C503.256 254.835 501.32 259.822 500.473 265.045C499.626 270.268 499.887 275.611 501.24 280.726L500.392 281.021Z" fill="#31BC2E"/>
    <path d="M516.281 349.032L515.974 348.207C525.958 344.435 534.952 336.726 541.305 326.495C546.692 317.819 550.346 307.234 552.149 295.011C540.911 295.576 530.188 299.902 521.703 307.293L521.114 306.633C529.892 298.982 541.021 294.561 552.656 294.104H553.175L553.104 294.622C551.301 307.187 547.588 318.067 542.06 326.978C535.624 337.351 526.477 345.189 516.281 349.032Z" fill="#31BC2E"/>
    <path d="M489.536 346.698L489.158 345.896C509.237 336.418 527.317 323.187 542.425 306.916L543.073 307.517C527.883 323.865 509.712 337.163 489.536 346.698Z" fill="#31BC2E"/>
    <path d="M412.624 349.562C404.508 346.361 397.458 340.94 392.279 333.92C386.991 326.857 383.215 318.779 381.187 310.192C376.991 292.83 378.971 274.312 381.187 258.328L381.282 257.609L381.883 258.022C395.945 267.876 410.479 278.06 421.028 292.122C432.815 307.776 436.953 326.187 432.191 341.358L431.354 341.087C436.069 326.187 431.908 308.082 420.321 292.653C410.007 278.909 395.78 268.843 381.965 259.165C379.82 274.913 377.969 293.042 382.06 309.992C384.071 318.462 387.797 326.429 393.01 333.401C398.086 340.282 404.998 345.593 412.954 348.725L412.624 349.562Z" fill="#31BC2E"/>
    <path d="M390.788 274.274L389.995 274.666L423.966 343.432L424.759 343.04L390.788 274.274Z" fill="#31BC2E"/>
    <path d="M408.475 313.836C403.785 313.78 399.186 312.535 395.109 310.218C391.031 307.901 387.608 304.587 385.16 300.587L385.926 300.127C388.334 304.081 391.729 307.34 395.777 309.587C399.825 311.833 404.388 312.988 409.017 312.94V313.824L408.475 313.836Z" fill="#31BC2E"/>
    <path d="M78.1493 348.315C68.1066 346.252 58.7358 341.242 50.2725 333.475C42.3609 326.06 35.9569 317.187 31.413 307.342C22.2307 287.764 19.4371 266.087 16.7379 245.117L16.6436 244.398L17.3272 244.658C43.4477 254.429 61.6944 265.674 74.7664 280.019C91.4689 298.384 98.5413 322.454 93.2134 342.928L92.3647 342.704C97.6101 322.548 90.6202 298.761 74.1181 280.609C61.2582 266.464 43.3181 255.372 17.7044 245.719C20.3683 266.382 23.1973 287.717 32.2145 306.942C36.7085 316.687 43.0491 325.47 50.8855 332.803C58.5195 340.105 68.018 345.162 78.3379 347.419L78.1493 348.315Z" fill="#31BC2E"/>
    <path d="M87.2845 343.175C80.0614 329.072 71.525 315.682 61.7887 303.181C52.0549 290.675 41.1666 279.112 29.2677 268.644L29.8453 267.984C53.7796 289.036 73.5337 314.409 88.0742 342.774L87.2845 343.175Z" fill="#31BC2E"/>
    <path d="M56.2604 298.289C47.8175 295.331 39.5527 291.887 31.5072 287.975L31.8962 287.186C39.9181 291.083 48.1594 294.511 56.5787 297.452L56.2604 298.289Z" fill="#31BC2E"/>
    <path d="M69.575 294.342L67.6077 313.818L68.4829 313.907L70.4502 294.431L69.575 294.342Z" fill="#31BC2E"/>
    <path d="M42.434 348.067C36.9763 347.986 31.6402 346.443 26.9809 343.6C21.8621 340.508 17.4458 336.381 14.015 331.483C11.186 327.487 8.12136 320.32 4.90345 310.172C2.546 302.64 0.919362 296.18 0.907574 296.109L0.742554 295.438L1.42622 295.579C2.33383 295.768 23.9516 300.294 31.684 307.189L31.0947 307.849C27.9829 305.056 21.8417 302.192 13.3313 299.598C8.20386 298.019 3.61863 296.97 1.93306 296.604C2.99391 300.742 8.72251 322.536 14.734 330.988C18.0959 335.784 22.4242 339.823 27.4406 342.846C32.3261 345.85 37.9862 347.354 43.7188 347.172V348.056L42.434 348.067Z" fill="#31BC2E"/>
    <path d="M39.5698 337.011C30.8587 324.9 20.8291 313.796 9.66553 303.9L10.2549 303.24C21.4612 313.18 31.5301 324.332 40.277 336.492L39.5698 337.011Z" fill="#31BC2E"/>
    <path d="M150.782 349.316L150.205 348.644C161.475 338.938 169.37 325.901 172.749 311.416C176.129 296.93 174.818 281.746 169.005 268.054C161.078 269.595 153.762 273.384 147.93 278.969C141.835 284.693 137.015 291.638 133.785 299.35C127.491 314.225 126.288 330.904 125.534 348.102H124.662C125.428 330.81 126.63 314.06 132.984 299.043C136.256 291.205 141.149 284.148 147.34 278.333C153.376 272.541 160.978 268.648 169.206 267.135L169.548 267.076L169.689 267.394C175.672 281.279 177.069 296.711 173.677 311.444C170.285 326.177 162.281 339.445 150.829 349.316H150.782Z" fill="#31BC2E"/>
    <path d="M137.015 346.192L136.178 345.92C142.373 326.695 151.051 308.36 161.992 291.381L162.735 291.852C151.831 308.768 143.185 327.036 137.015 346.192Z" fill="#31BC2E"/>
    <path d="M150.004 313.234L149.497 312.515C155.091 308.655 161.458 306.06 168.157 304.912L168.31 305.773C161.738 306.898 155.491 309.445 150.004 313.234Z" fill="#31BC2E"/>
    <path d="M324.208 244.752H237.784V342.103H324.208V244.752Z" fill="#58595B"/>
    <path d="M324.962 342.856H237.041V244.008H324.962V342.856ZM238.538 341.359H323.465V245.505H238.538V341.359Z" fill="#58595B"/>
    <path d="M324.208 244.752H237.784V286.243H324.208V244.752Z" fill="#929497"/>
    <path d="M459.443 2.37109H102.549C98.3306 2.37109 94.9109 5.79079 94.9109 10.0092V263.67C94.9109 267.889 98.3306 271.309 102.549 271.309H459.443C463.661 271.309 467.081 267.889 467.081 263.67V10.0092C467.081 5.79079 463.661 2.37109 459.443 2.37109Z" fill="#929497" stroke="#404041" stroke-width="1.17872" stroke-miterlimit="10"/>
    <path d="M458.806 272.05H103.197C100.805 272.05 98.5099 271.1 96.8169 269.409C95.124 267.719 94.1713 265.425 94.1682 263.033V10.6207C94.1713 8.22814 95.124 5.9346 96.8169 4.24388C98.5099 2.55316 100.805 1.60351 103.197 1.60352H458.806C461.199 1.60351 463.494 2.55316 465.187 4.24388C466.879 5.9346 467.832 8.22814 467.835 10.6207V263.033C467.832 265.425 466.879 267.719 465.187 269.409C463.494 271.1 461.199 272.05 458.806 272.05ZM103.197 3.11228C101.199 3.11228 99.2815 3.90544 97.8671 5.31764C96.4527 6.72983 95.6565 8.64562 95.6534 10.6443V263.033C95.6565 265.031 96.4527 266.947 97.8671 268.359C99.2815 269.771 101.199 270.565 103.197 270.565H458.806C460.803 270.561 462.717 269.767 464.129 268.355C465.541 266.943 466.335 265.029 466.338 263.033V10.6207C466.335 8.62408 465.541 6.71009 464.129 5.29823C462.717 3.88637 460.803 3.09182 458.806 3.0887L103.197 3.11228Z" fill="#929497" stroke="#404041" stroke-width="1.17872" stroke-miterlimit="10"/>
    <path d="M460.339 16.1738H101.677V237.031H460.339V16.1738Z" fill="white"/>
    <path d="M461.081 237.772H100.922V15.4297H461.081V237.772ZM102.419 236.287H459.572V16.9149H102.419V236.287Z" fill="white"/>
    <path d="M481.037 342.703H98.2466V343.623H481.037V342.703Z" fill="#102048"/>
    <path d="M276.375 355.174C423.675 355.174 543.085 352.082 543.085 348.267C543.085 344.452 423.675 341.359 276.375 341.359C129.076 341.359 9.66553 344.452 9.66553 348.267C9.66553 352.082 129.076 355.174 276.375 355.174Z" fill="#31B92E"/>
    <path d="M332.695 137.545L332.966 139.572L346.05 234.401H342.513L327.567 137.545H332.695Z" fill="#022D2B"/>
    <path d="M278.426 225.466C278.446 225.319 278.499 225.18 278.583 225.058C278.667 224.936 278.778 224.835 278.907 224.764C279.037 224.693 279.182 224.653 279.329 224.648C279.477 224.643 279.624 224.673 279.758 224.735C280.647 225.159 281.623 225.365 282.607 225.336C283.591 225.307 284.554 225.045 285.416 224.57C285.496 224.231 285.659 223.917 285.891 223.657C286.124 223.397 286.417 223.2 286.745 223.082C287.074 222.965 287.426 222.932 287.77 222.986C288.115 223.04 288.44 223.179 288.716 223.392C290.65 225.344 293.106 226.699 295.789 227.293C301.682 228.378 301.942 231.089 301.942 231.089V233.788L278.037 234.177L277.978 231.466C278.016 229.459 278.165 227.456 278.426 225.466Z" fill="black"/>
    <path d="M247.532 224.147C247.581 224.009 247.66 223.884 247.765 223.782C247.869 223.679 247.996 223.603 248.135 223.557C248.274 223.511 248.421 223.498 248.566 223.519C248.711 223.539 248.849 223.593 248.97 223.675C249.755 224.27 250.669 224.67 251.638 224.844C252.606 225.019 253.603 224.961 254.545 224.677C254.688 224.358 254.909 224.08 255.189 223.869C255.469 223.659 255.797 223.523 256.144 223.475C256.491 223.427 256.844 223.467 257.17 223.593C257.497 223.719 257.786 223.926 258.011 224.194C259.52 226.505 261.665 228.33 264.187 229.451C269.692 231.702 269.444 234.402 269.444 234.402L268.961 237.054L245.446 232.645L245.941 229.993C246.371 228.019 246.902 226.067 247.532 224.147Z" fill="black"/>
    <path d="M209.318 99.4143L243.253 102.019L242.298 71.3017C242.259 69.9987 241.714 68.7623 240.779 67.8538C239.844 66.9454 238.592 66.436 237.289 66.4336H229.038C226.773 66.436 224.564 67.1336 222.709 68.4322C220.854 69.7308 219.442 71.5677 218.665 73.6945L209.318 99.4143Z" fill="#011716"/>
    <path d="M226.892 90.5625V96.3029C226.823 97.0351 226.907 97.7737 227.14 98.4715C227.373 99.1692 227.748 99.8107 228.243 100.355C228.738 100.899 229.341 101.333 230.014 101.631C230.687 101.928 231.414 102.082 232.15 102.082C232.885 102.082 233.612 101.928 234.285 101.631C234.958 101.333 235.561 100.899 236.056 100.355C236.551 99.8107 236.927 99.1692 237.159 98.4715C237.392 97.7737 237.476 97.0351 237.407 96.3029V90.5625H226.892Z" fill="#A24320"/>
    <path d="M228.33 91.6699L237.407 96.762V91.6699H228.33Z" fill="#793219"/>
    <path d="M226.892 91.6709H237.831C238.981 91.6709 240.085 91.2139 240.898 90.4004C241.712 89.5869 242.169 88.4836 242.169 87.3332V72.0098H226.845L226.892 91.6709Z" fill="#A24320"/>
    <path d="M226.138 87.0138H226.892V81.2734H226.138C225.851 81.2734 225.566 81.3302 225.301 81.4405C225.036 81.5509 224.795 81.7125 224.592 81.9163C224.389 82.12 224.229 82.3618 224.12 82.6277C224.011 82.8937 223.956 83.1785 223.957 83.4659V84.786C223.953 85.0759 224.006 85.3638 224.113 85.6332C224.22 85.9025 224.38 86.1478 224.583 86.355C224.786 86.5622 225.028 86.7271 225.294 86.8402C225.561 86.9533 225.848 87.0123 226.138 87.0138Z" fill="#A24320"/>
    <path d="M234.259 80.8389C234.087 80.4907 233.822 80.1966 233.493 79.9887C233.165 79.7808 232.786 79.6672 232.397 79.6602C232.02 79.688 231.655 79.8025 231.33 79.9947C231.005 80.1869 230.729 80.4516 230.523 80.7681C230.684 81.1305 230.958 81.4303 231.305 81.6218C231.652 81.8134 232.052 81.8861 232.444 81.829C232.811 81.8634 233.18 81.7875 233.503 81.6111C233.826 81.4347 234.09 81.1658 234.259 80.8389Z" fill="white"/>
    <path d="M231.148 80.8142C231.173 81.0402 231.263 81.254 231.406 81.4301C231.55 81.6061 231.742 81.7369 231.958 81.8065C232.174 81.8762 232.406 81.8819 232.626 81.8228C232.845 81.7637 233.043 81.6424 233.195 81.4735C233.347 81.3046 233.447 81.0954 233.483 80.871C233.519 80.6465 233.489 80.4165 233.398 80.2086C233.306 80.0006 233.156 79.8236 232.966 79.699C232.776 79.5743 232.554 79.5072 232.326 79.5059C231.997 79.5241 231.688 79.672 231.467 79.9171C231.247 80.1622 231.132 80.4847 231.148 80.8142Z" fill="black"/>
    <path d="M234.259 80.839C234.096 80.4838 233.833 80.1836 233.502 79.9744C233.172 79.7653 232.788 79.6562 232.397 79.6603C232.022 79.6941 231.659 79.8111 231.335 80.0027C231.011 80.1944 230.733 80.4559 230.523 80.7683" stroke="black" stroke-width="0.660085" stroke-linecap="round" stroke-linejoin="round"/>
    <path d="M237.642 80.8604C237.803 80.5293 238.047 80.2461 238.351 80.0392C238.655 79.8323 239.008 79.709 239.375 79.6816C239.723 79.7135 240.057 79.8287 240.351 80.0175C240.644 80.2063 240.888 80.4631 241.061 80.7661C240.924 81.1145 240.678 81.4089 240.358 81.6046C240.039 81.8003 239.665 81.8866 239.293 81.8505C238.947 81.8883 238.599 81.812 238.301 81.6332C238.003 81.4544 237.772 81.183 237.642 80.8604Z" fill="white"/>
    <path d="M240.46 80.7789C240.443 81.086 240.313 81.376 240.095 81.5935C239.878 81.811 239.588 81.9407 239.281 81.9576C238.974 81.9248 238.693 81.7732 238.497 81.5352C238.3 81.2972 238.205 80.9918 238.232 80.6846C238.232 80.372 238.356 80.0722 238.577 79.8511C238.798 79.63 239.098 79.5059 239.41 79.5059C239.717 79.5386 239.999 79.6903 240.195 79.9283C240.391 80.1663 240.486 80.4716 240.46 80.7789Z" fill="black"/>
    <path d="M237.642 80.8621C237.642 80.8621 238.22 79.5655 239.375 79.6834C239.721 79.7199 240.054 79.837 240.347 80.0253C240.64 80.2136 240.884 80.4679 241.061 80.7678" stroke="black" stroke-width="0.624723" stroke-linecap="round" stroke-linejoin="round"/>
    <path d="M232.279 76.5348C231.636 76.4155 230.977 76.4155 230.334 76.5348C230.224 76.5527 230.123 76.6041 230.043 76.6819C229.963 76.7597 229.909 76.8602 229.889 76.9697C229.868 77.0791 229.882 77.1923 229.928 77.2937C229.974 77.3952 230.05 77.4801 230.146 77.5367C230.726 77.7819 231.337 77.9484 231.961 78.0318C233.47 78.244 234.318 77.8432 234.318 77.4542C234.318 77.0652 233.093 76.6291 232.279 76.5348Z" fill="#011716"/>
    <path d="M239.599 76.5359C240.201 76.4921 240.805 76.5642 241.379 76.748C241.484 76.7759 241.579 76.8347 241.65 76.9169C241.721 76.9991 241.766 77.1008 241.779 77.2089C241.792 77.3169 241.772 77.4264 241.721 77.5229C241.671 77.6193 241.593 77.6985 241.497 77.7499C240.957 77.9506 240.387 78.0621 239.811 78.08C238.432 78.1861 237.678 77.7028 237.678 77.3138C237.678 76.9248 238.868 76.5359 239.599 76.5359Z" fill="#011716"/>
    <path d="M235.827 82.2402L236.912 83.2422C237.807 84.2205 236.699 84.3266 236.134 84.303H235.78" fill="#793219"/>
    <path d="M242.169 71.9861C241.413 72.8196 240.482 73.475 239.442 73.9051C238.403 74.3352 237.281 74.5292 236.157 74.4732C232.621 74.0724 229.981 73.4949 229.309 75.369C228.637 77.2432 228.13 81.2627 226.892 81.2627C225.655 81.2627 225.077 78.5752 225.077 78.5752L227.328 69.6994L238.055 67.9902C238.055 67.9902 241.898 68.7093 242.169 71.9861Z" fill="#011716"/>
    <path d="M234.566 87.0152C234.46 87.4984 235.026 88.0642 235.839 88.2646C236.652 88.465 237.407 88.2057 237.548 87.6871C237.689 87.1684 237.088 86.638 236.275 86.5083C235.462 86.3787 234.637 86.5201 234.566 87.0152Z" fill="#6D1B12"/>
    <path d="M234.825 85.7656C234.867 86.0924 234.974 86.4075 235.138 86.6928C235.303 86.978 235.523 87.2277 235.785 87.4273C236.047 87.6269 236.346 87.7724 236.665 87.8554C236.984 87.9384 237.316 87.9573 237.642 87.9109" stroke="#011716" stroke-width="1.07264" stroke-miterlimit="10" stroke-linecap="round"/>
    <path d="M225.136 89.5968C225.136 91.1645 225.407 92.4611 225.702 92.4611C225.997 92.4611 226.28 91.1881 226.28 89.5968C226.28 88.0055 226.008 86.7207 225.702 86.7207C225.396 86.7207 225.136 87.9584 225.136 89.5968Z" stroke="#FFB801" stroke-width="1.86238" stroke-miterlimit="10"/>
    <path d="M278.509 225.714L277.33 210.061L286.1 210.626L287.279 224.771L278.509 225.714Z" fill="#A34321"/>
    <path d="M247.532 224.383L249.5 208.848L257.975 211.146L256.337 225.149L247.532 224.383Z" fill="#A34321"/>
    <path d="M211.805 161.049H255.276V165.033H211.805V161.049Z" fill="#31B92E"/>
    <path d="M247.532 140.031L273.794 147.504C275.913 148.219 277.833 149.422 279.4 151.018C280.967 152.613 282.135 154.555 282.811 156.687L291.369 219.053L275.821 220.892L264.989 159.48L247.532 140.031Z" fill="#022D2B"/>
    <path d="M219.962 139.242C219.962 139.242 214.787 155.626 226.845 160.612C226.845 160.612 232.044 163.135 254.734 161.885L246.176 219.018L260.639 220.621L272.285 160.589C273.148 158.241 273.147 155.663 272.283 153.316C271.419 150.968 269.749 149.005 267.57 147.776L247.532 140.032L219.962 139.242Z" fill="#004C46"/>
    <path d="M253.426 129.414L281.597 111.002L286.501 115.988C286.501 115.988 270.493 128.742 258.494 137.087C256.596 138.407 253.213 137.464 252.023 135.46C251.485 134.454 251.331 133.286 251.589 132.174C251.847 131.062 252.499 130.081 253.426 129.414Z" fill="#A34321"/>
    <path d="M251.646 134.693L246.719 113.087L255.382 111.543L259.991 132.619C260.193 133.573 260.013 134.568 259.491 135.391C258.97 136.215 258.146 136.802 257.197 137.027C255.276 137.463 252.247 136.591 251.646 134.693Z" fill="#A34321"/>
    <path d="M199.629 127.22L208.481 106.51L216.496 110.164L208.339 130.12C208.159 130.568 207.892 130.976 207.554 131.32C207.216 131.665 206.813 131.94 206.368 132.128C205.923 132.316 205.446 132.415 204.963 132.418C204.48 132.422 204.001 132.329 203.554 132.147C201.715 131.452 198.969 129.071 199.629 127.22Z" fill="#A34321"/>
    <path d="M243.194 124.357L258.176 121.292L254.734 104.59C254.267 102.665 253.073 100.997 251.401 99.9351C249.73 98.8732 247.712 98.5009 245.772 98.8963C243.832 99.2916 242.12 100.424 240.998 102.055C239.875 103.686 239.429 105.689 239.752 107.643L243.194 124.357Z" fill="#258B23"/>
    <path d="M232.939 98.9563L215.895 99.581C215.324 99.8032 214.863 100.239 214.607 100.795C214.352 101.352 214.324 101.986 214.528 102.563L220.127 136.298C220.246 136.997 220.608 137.63 221.15 138.088C221.691 138.545 222.377 138.796 223.085 138.797H243.418C244.183 138.786 244.914 138.481 245.46 137.945C246.006 137.41 246.326 136.685 246.353 135.921C246.813 128.342 248.192 107.632 249.689 101.337C249.844 100.748 249.774 100.123 249.493 99.5822C249.212 99.0418 248.74 98.6254 248.168 98.4141L232.939 98.9563Z" fill="#31B92E"/>
    <path d="M214.528 125.841L200.937 118.887L208.693 103.74C209.141 102.83 209.765 102.018 210.529 101.352C211.293 100.685 212.182 100.177 213.145 99.8572C214.107 99.5374 215.123 99.4121 216.135 99.4886C217.146 99.5651 218.132 99.8419 219.035 100.303C219.938 100.764 220.741 101.4 221.396 102.174C222.051 102.948 222.546 103.845 222.852 104.812C223.157 105.779 223.268 106.797 223.176 107.807C223.085 108.817 222.793 109.798 222.319 110.695L214.528 125.841Z" fill="#31B92E"/>
    <path d="M224.453 99.4127H240.46L239.505 94.9453H225.136L224.453 99.4127Z" fill="#31B92E"/>
    <path d="M281.927 110.435C281.918 109.839 282.064 109.25 282.351 108.726C283.283 107.076 283.813 105.909 284.355 104.719C284.463 104.486 284.658 104.304 284.897 104.212L285.121 104.129C285.196 104.101 285.275 104.088 285.354 104.09C285.434 104.093 285.512 104.111 285.584 104.144C285.657 104.177 285.722 104.224 285.776 104.282C285.83 104.34 285.872 104.408 285.899 104.483C286.166 105.498 286.285 106.546 286.253 107.595L290.296 105.992L291.263 114.419L287.609 115.858C287.056 116.076 286.455 116.147 285.867 116.064C285.278 115.982 284.721 115.748 284.249 115.386C283.966 115.509 283.661 115.573 283.352 115.574C283.044 115.575 282.738 115.513 282.454 115.392C282.171 115.27 281.915 115.092 281.703 114.868C281.49 114.644 281.326 114.379 281.22 114.089L280.89 113.229C280.679 112.718 280.669 112.147 280.861 111.629C281.053 111.111 281.434 110.685 281.927 110.435Z" fill="#A34321"/>
    <path d="M295.683 101.88L291.805 114.351C291.765 114.48 291.699 114.6 291.612 114.704C291.524 114.807 291.416 114.892 291.295 114.952C291.174 115.013 291.042 115.048 290.907 115.056C290.771 115.064 290.636 115.045 290.508 114.999L284.249 112.889C284 112.805 283.794 112.628 283.673 112.395C283.552 112.162 283.526 111.891 283.601 111.64L287.503 99.1097C287.542 98.9802 287.608 98.8601 287.696 98.7567C287.783 98.6533 287.891 98.5687 288.012 98.5081C288.133 98.4475 288.266 98.4121 288.401 98.4041C288.536 98.3961 288.672 98.4156 288.799 98.4614L295.035 100.595C295.162 100.636 295.28 100.702 295.381 100.789C295.483 100.877 295.566 100.983 295.626 101.102C295.687 101.222 295.723 101.352 295.732 101.485C295.742 101.619 295.725 101.753 295.683 101.88Z" fill="#021430"/>
    <path d="M294.457 102.879L291.404 112.816C291.374 112.921 291.322 113.018 291.252 113.101C291.182 113.185 291.096 113.253 290.999 113.302C290.901 113.351 290.795 113.379 290.686 113.385C290.577 113.39 290.469 113.373 290.367 113.335L285.416 111.649C285.217 111.582 285.051 111.44 284.955 111.253C284.858 111.066 284.838 110.849 284.897 110.647L287.986 100.687C288.018 100.583 288.07 100.487 288.14 100.405C288.21 100.322 288.296 100.254 288.393 100.206C288.49 100.157 288.596 100.129 288.704 100.123C288.813 100.116 288.921 100.132 289.023 100.168L293.974 101.878C294.165 101.954 294.32 102.099 294.409 102.285C294.499 102.47 294.516 102.682 294.457 102.879Z" fill="white"/>
    <path d="M287.066 99.0254C287.066 99.214 292.618 114.207 292.618 114.207L295.706 101.89L287.066 99.0254Z" fill="#F3F3F3"/>
    <path d="M288.858 108.951C288.864 108.718 288.961 108.496 289.129 108.333C289.296 108.17 289.52 108.079 289.754 108.079L294.056 107.973C294.208 107.972 294.358 108.003 294.497 108.063C294.636 108.123 294.762 108.211 294.866 108.322C294.97 108.432 295.05 108.563 295.101 108.706C295.152 108.848 295.174 109 295.164 109.151C295.152 109.435 295.029 109.702 294.822 109.896C294.615 110.09 294.34 110.195 294.056 110.189L289.754 109.965C289.627 109.96 289.503 109.93 289.388 109.876C289.274 109.822 289.172 109.746 289.088 109.651C289.004 109.556 288.94 109.445 288.901 109.325C288.861 109.204 288.847 109.077 288.858 108.951Z" fill="#A34321"/>
    <path d="M289.153 110.626C289.168 110.399 289.268 110.186 289.435 110.03C289.601 109.875 289.821 109.789 290.048 109.789H293.643C293.786 109.791 293.928 109.821 294.059 109.877C294.19 109.934 294.308 110.017 294.407 110.12C294.506 110.223 294.583 110.345 294.634 110.478C294.685 110.612 294.709 110.754 294.704 110.897C294.686 111.173 294.559 111.431 294.352 111.615C294.144 111.798 293.873 111.892 293.596 111.875L289.989 111.569C289.872 111.563 289.757 111.534 289.652 111.483C289.546 111.432 289.451 111.361 289.373 111.273C289.295 111.185 289.236 111.083 289.198 110.972C289.16 110.861 289.145 110.743 289.153 110.626Z" fill="#A34321"/>
    <path d="M289.129 112.192C289.147 111.977 289.246 111.778 289.406 111.633C289.565 111.489 289.774 111.41 289.99 111.414H292.807C293.069 111.414 293.321 111.519 293.507 111.704C293.693 111.89 293.797 112.142 293.797 112.404C293.797 112.667 293.693 112.919 293.507 113.104C293.321 113.29 293.069 113.394 292.807 113.394L289.99 113.064C289.875 113.066 289.762 113.045 289.656 113.001C289.55 112.958 289.454 112.893 289.373 112.812C289.293 112.73 289.23 112.633 289.188 112.527C289.146 112.42 289.126 112.307 289.129 112.192Z" fill="#A34321"/>
    <path d="M288.905 113.381C288.923 113.169 289.02 112.971 289.177 112.827C289.335 112.682 289.54 112.603 289.754 112.604L292.029 112.816C292.159 112.82 292.287 112.849 292.405 112.902C292.524 112.956 292.631 113.032 292.72 113.127C292.809 113.221 292.879 113.333 292.925 113.454C292.971 113.576 292.993 113.705 292.989 113.835C292.986 113.965 292.956 114.093 292.903 114.212C292.849 114.331 292.773 114.438 292.679 114.527C292.584 114.616 292.473 114.686 292.351 114.732C292.229 114.778 292.1 114.8 291.97 114.796L289.695 114.254C289.585 114.251 289.477 114.226 289.377 114.18C289.277 114.134 289.187 114.068 289.113 113.987C289.04 113.905 288.983 113.809 288.947 113.705C288.911 113.601 288.897 113.491 288.905 113.381Z" fill="#A34321"/>
    <path d="M224.783 165.033L224.217 169.064L215.223 233.835H212.052L220.091 169.064L220.586 165.033H224.783Z" fill="#022D2B"/>
    <path d="M208.834 137.734L208.563 139.762L195.503 234.401H199.039L213.927 137.746L208.834 137.734Z" fill="#022D2B"/>
    <path d="M299.396 125.713L301.753 132.149C301.808 132.298 301.826 132.458 301.806 132.615C301.786 132.772 301.729 132.923 301.639 133.053C301.549 133.184 301.429 133.291 301.288 133.365C301.148 133.44 300.992 133.479 300.834 133.481H295.117C294.851 133.481 294.596 133.586 294.409 133.774C294.221 133.962 294.115 134.217 294.115 134.483C294.115 134.749 294.221 135.003 294.409 135.191C294.596 135.379 294.851 135.485 295.117 135.485H316.051C316.317 135.485 316.572 135.379 316.76 135.191C316.948 135.003 317.053 134.749 317.053 134.483V133.587C317.053 133.457 317.025 133.328 316.971 133.21L313.611 124.959C313.535 124.776 313.408 124.62 313.245 124.509C313.081 124.398 312.889 124.337 312.692 124.334H300.315C300.152 124.335 299.991 124.377 299.847 124.455C299.704 124.532 299.581 124.644 299.49 124.78C299.4 124.916 299.344 125.072 299.327 125.235C299.311 125.397 299.334 125.562 299.396 125.713Z" fill="#004C46"/>
    <path d="M328.451 126.607H281.008C280.591 126.61 280.178 126.52 279.8 126.343C279.422 126.167 279.089 125.908 278.823 125.587C278.558 125.265 278.368 124.888 278.267 124.483C278.165 124.079 278.155 123.657 278.238 123.248L284.072 94.6165C284.203 93.9822 284.549 93.4127 285.052 93.0045C285.555 92.5963 286.183 92.3746 286.831 92.377H335.583C336.015 92.3753 336.442 92.4731 336.83 92.6628C337.218 92.8524 337.558 93.1289 337.822 93.4707C338.086 93.8126 338.269 94.2107 338.354 94.6342C338.44 95.0577 338.428 95.4953 338.317 95.9131L331.245 124.509C331.083 125.122 330.72 125.663 330.213 126.043C329.706 126.424 329.085 126.623 328.451 126.607Z" fill="#31B92E"/>
    <path d="M359.652 139.997H193.924V135.494H359.652V139.997Z" fill="#195E17"/>
    <path d="M204.662 124.439L238.562 129.095L237.183 135.778C237.183 135.778 217.333 135.354 203.141 133.315C200.902 132.996 199.11 130.073 199.605 127.845C199.908 126.771 200.583 125.839 201.509 125.215C202.435 124.591 203.552 124.316 204.662 124.439Z" fill="#A34321"/>
    <path d="M228.602 125.074H240.271C241.443 125.138 242.582 125.481 243.595 126.073C244.607 126.666 245.464 127.491 246.094 128.481L247.992 131.003C248.438 131.7 248.666 132.514 248.647 133.341C248.628 134.169 248.363 134.972 247.886 135.647H227.27L228.602 125.074Z" fill="#A34321"/>
    <path d="M283.412 82.2527H317.265C317.625 82.2527 317.982 82.1816 318.314 82.0435C318.647 81.9053 318.949 81.7028 319.203 81.4476C319.457 81.1924 319.658 80.8896 319.795 80.5564C319.932 80.2233 320.001 79.8664 320 79.5063V66.7054C320.001 66.3458 319.932 65.9895 319.795 65.657C319.658 65.3245 319.457 65.0225 319.202 64.7682C318.948 64.514 318.646 64.3126 318.314 64.1757C317.981 64.0388 317.625 63.9692 317.265 63.9707H283.412C283.053 63.9692 282.696 64.0388 282.364 64.1757C282.031 64.3126 281.729 64.514 281.475 64.7682C281.221 65.0225 281.02 65.3245 280.883 65.657C280.746 65.9895 280.676 66.3458 280.678 66.7054V79.5417C280.687 80.2619 280.979 80.9496 281.49 81.4567C282.002 81.9638 282.692 82.2497 283.412 82.2527Z" fill="#004C46"/>
    <path d="M274.454 73.7303C273.014 72.2916 272.033 70.4581 271.635 68.4617C271.237 66.4653 271.44 64.3957 272.219 62.5148C272.997 60.634 274.316 59.0262 276.009 57.8951C277.701 56.7639 279.691 56.1602 281.727 56.1602C283.762 56.1602 285.752 56.7639 287.445 57.8951C289.137 59.0262 290.456 60.634 291.235 62.5148C292.013 64.3957 292.216 66.4653 291.819 68.4617C291.421 70.4581 290.44 72.2916 289 73.7303C288.045 74.6862 286.911 75.4445 285.663 75.9619C284.415 76.4792 283.078 76.7455 281.727 76.7455C280.376 76.7455 279.038 76.4792 277.79 75.9619C276.542 75.4445 275.409 74.6862 274.454 73.7303Z" fill="#FFBA00"/>
    <path d="M286.312 66.9765L282.469 69.7936L277.884 63.9707" stroke="white" stroke-width="2.35745" stroke-linecap="round" stroke-linejoin="round"/>
    <path d="M307.871 85.988L312.986 80.8605L306.468 74.2715L299.914 80.8252L305.03 85.9526C305.406 86.3268 305.913 86.5398 306.443 86.5464C306.974 86.553 307.486 86.3527 307.871 85.988Z" fill="#004C46"/>
    <path d="M314.778 68.8398H293.844" stroke="white" stroke-width="1.17872" stroke-linecap="round" stroke-linejoin="round"/>
    <path d="M314.778 72.5645H293.844" stroke="white" stroke-width="1.17872" stroke-linecap="round" stroke-linejoin="round"/>
    <path d="M314.778 76.4746H293.844" stroke="white" stroke-width="1.17872" stroke-linecap="round" stroke-linejoin="round"/>
    <path d="M523.483 91.5762H364.815V316.382H523.483V91.5762Z" fill="#95F9E5"/>
    <path d="M386.503 337.318L378.995 325.071L367.974 334.276L379.313 265.18L397.843 268.233L386.503 337.318Z" fill="#CC5A44"/>
    <path d="M391.819 274.479L403.324 343.54L410.797 331.282L421.853 340.464L410.337 271.391L391.819 274.479Z" fill="#CC5A44"/>
    <path d="M433.44 271.909C433.44 275.905 429.904 279.288 428.725 282.883C427.547 286.478 428.336 291.417 426.073 294.529C423.81 297.641 419.001 298.36 415.818 300.646C412.636 302.933 410.561 307.306 406.836 308.508C403.112 309.711 398.927 307.424 394.943 307.424C390.959 307.424 386.692 309.687 383.05 308.508C379.408 307.33 377.156 302.91 374.068 300.646C370.98 298.383 366.088 297.664 363.813 294.529C361.538 291.393 362.363 286.62 361.149 282.883C359.935 279.147 356.434 275.905 356.434 271.909C356.434 267.913 359.97 264.53 361.149 260.923C362.328 257.317 361.55 252.401 363.813 249.289C366.076 246.178 370.885 245.459 374.068 243.172C377.25 240.885 379.313 236.512 383.05 235.298C386.786 234.084 390.947 236.394 394.943 236.394C398.939 236.394 403.194 234.131 406.836 235.298C410.479 236.465 412.73 240.909 415.818 243.172C418.907 245.435 423.786 246.154 426.073 249.289C428.36 252.425 427.523 257.199 428.725 260.923C429.928 264.648 433.44 267.913 433.44 271.909Z" fill="#F4D556"/>
    <path d="M425.118 271.91C425.118 277.873 423.35 283.703 420.037 288.661C416.724 293.619 412.015 297.484 406.505 299.766C400.996 302.048 394.933 302.645 389.084 301.482C383.236 300.319 377.863 297.447 373.646 293.23C369.429 289.013 366.558 283.641 365.394 277.792C364.231 271.943 364.828 265.88 367.11 260.371C369.392 254.861 373.257 250.152 378.215 246.839C383.174 243.526 389.003 241.758 394.967 241.758C402.963 241.758 410.633 244.935 416.287 250.589C421.942 256.244 425.118 263.913 425.118 271.91Z" fill="#E2BE27"/>
    <path d="M394.707 241.758C388.267 241.822 382.016 243.947 376.87 247.82C371.724 251.693 367.953 257.111 366.109 263.282C364.264 269.453 364.444 276.052 366.62 282.114C368.797 288.176 372.857 293.381 378.205 296.969C394.813 292.714 406.86 280.149 406.86 265.309C406.86 256.103 402.216 247.769 394.731 241.734" fill="#F4D556"/>
    <path d="M504.989 155.026H379.372C378.903 155.026 378.453 154.84 378.122 154.509C377.79 154.177 377.604 153.727 377.604 153.258C377.604 152.789 377.79 152.34 378.122 152.008C378.453 151.677 378.903 151.49 379.372 151.49H504.989C505.458 151.49 505.907 151.677 506.239 152.008C506.57 152.34 506.757 152.789 506.757 153.258C506.757 153.727 506.57 154.177 506.239 154.509C505.907 154.84 505.458 155.026 504.989 155.026Z" fill="#2B388F"/>
    <path d="M504.989 174.569H379.372C378.903 174.569 378.453 174.383 378.122 174.052C377.79 173.72 377.604 173.27 377.604 172.801C377.604 172.332 377.79 171.883 378.122 171.551C378.453 171.219 378.903 171.033 379.372 171.033H504.989C505.458 171.033 505.907 171.219 506.239 171.551C506.57 171.883 506.757 172.332 506.757 172.801C506.757 173.27 506.57 173.72 506.239 174.052C505.907 174.383 505.458 174.569 504.989 174.569Z" fill="#2B388F"/>
    <path d="M504.989 194.112H379.372C378.903 194.112 378.453 193.926 378.122 193.594C377.79 193.263 377.604 192.813 377.604 192.344C377.604 191.875 377.79 191.426 378.122 191.094C378.453 190.762 378.903 190.576 379.372 190.576H504.989C505.458 190.576 505.907 190.762 506.239 191.094C506.57 191.426 506.757 191.875 506.757 192.344C506.757 192.813 506.57 193.263 506.239 193.594C505.907 193.926 505.458 194.112 504.989 194.112Z" fill="#2B388F"/>
    <path d="M504.989 213.657H379.372C378.903 213.657 378.453 213.471 378.122 213.139C377.79 212.808 377.604 212.358 377.604 211.889C377.604 211.42 377.79 210.971 378.122 210.639C378.453 210.307 378.903 210.121 379.372 210.121H504.989C505.458 210.121 505.907 210.307 506.239 210.639C506.57 210.971 506.757 211.42 506.757 211.889C506.757 212.358 506.57 212.808 506.239 213.139C505.907 213.471 505.458 213.657 504.989 213.657Z" fill="#2B388F"/>
    <path d="M504.8 266.948H441.939C441.47 266.948 441.02 266.762 440.689 266.43C440.357 266.099 440.171 265.649 440.171 265.18C440.171 264.711 440.357 264.262 440.689 263.93C441.02 263.598 441.47 263.412 441.939 263.412H504.8C505.269 263.412 505.719 263.598 506.05 263.93C506.382 264.262 506.568 264.711 506.568 265.18C506.568 265.649 506.382 266.099 506.05 266.43C505.719 266.762 505.269 266.948 504.8 266.948Z" fill="#2B388F"/>
    <path d="M504.8 285.499H441.939C441.47 285.499 441.02 285.313 440.689 284.981C440.357 284.65 440.171 284.2 440.171 283.731C440.171 283.262 440.357 282.812 440.689 282.481C441.02 282.149 441.47 281.963 441.939 281.963H504.8C505.269 281.963 505.719 282.149 506.05 282.481C506.382 282.812 506.568 283.262 506.568 283.731C506.568 284.2 506.382 284.65 506.05 284.981C505.719 285.313 505.269 285.499 504.8 285.499Z" fill="#2B388F"/>
    <path d="M458.335 236.5C454.869 246.649 454.492 257.776 459.077 267.642C460.256 270.199 463.686 276.258 467.328 273.724C472.362 270.247 469.368 260.369 468.825 255.489C468.649 254.011 468.59 252.521 468.649 251.033C468.825 247.815 471.254 248.358 472.727 250.55C474.931 253.862 475.898 258.294 476.652 262.137C476.652 262.42 477.937 262.137 477.925 261.795C477.831 259.52 477.395 257.304 477.925 255.053C479.422 249.041 484.231 259.249 484.561 259.968C484.691 260.251 485.74 259.968 485.823 259.685C486.294 257.174 486.66 254.287 490.125 253.992C490.455 253.992 491.516 253.403 490.667 253.473C486.624 253.803 485.304 255.949 484.561 259.909L485.834 259.626C484.656 257.009 483.394 252.106 479.505 253.096C475.249 254.181 476.487 258.707 476.617 262.137L477.89 261.795C477.206 258.318 475.32 246.837 469.969 247.78C465.254 248.605 467.694 257.351 468.059 260.227C468.519 263.905 469.238 267.972 467.977 271.555C466.268 276.647 462.319 270.895 461.105 268.844C455.341 259.167 456.036 246.542 459.525 236.288C459.62 236.028 458.347 236.181 458.276 236.5H458.335Z" fill="#2B388F"/>
    <path d="M458.335 122.106C458.335 124.903 457.505 127.638 455.951 129.964C454.397 132.29 452.188 134.103 449.603 135.174C447.018 136.244 444.174 136.524 441.431 135.979C438.687 135.433 436.166 134.086 434.188 132.107C432.21 130.129 430.863 127.609 430.317 124.865C429.771 122.121 430.052 119.277 431.122 116.693C432.193 114.108 434.006 111.899 436.332 110.345C438.658 108.791 441.393 107.961 444.19 107.961C447.941 107.961 451.539 109.451 454.192 112.104C456.844 114.756 458.335 118.354 458.335 122.106Z" fill="#2B388F"/>
    </g>
    <defs>
    <clipPath id="clip0_2739_44128">
    <rect width="554" height="355.974" fill="white" transform="translate(0 0.0136719)"/>
    </clipPath>
    </defs>
    </svg>
    