<svg width="331" height="221" viewBox="0 0 331 221" fill="none" xmlns="http://www.w3.org/2000/svg">
<g clip-path="url(#clip0_2809_20221)">
<g opacity="0.7">
<path opacity="0.47" d="M330.723 0H0V186.808H330.723V0Z" fill="#6FF8DC"/>
</g>
<path d="M258.133 73.8989H323.138C323.137 71.3934 322.462 68.9344 321.184 66.7796C319.905 64.6249 318.071 62.8538 315.872 61.6521C313.674 60.4505 311.192 59.8625 308.688 59.9498C306.185 60.0372 303.75 60.7967 301.641 62.1486C300.394 60.2846 298.717 58.7483 296.751 57.67C294.785 56.5916 292.588 56.0028 290.346 55.9536C288.104 55.9043 285.883 56.3959 283.871 57.3869C281.86 58.3778 280.117 59.8389 278.789 61.6463C276.663 60.4866 274.271 59.8998 271.849 59.9435C269.428 59.9872 267.059 60.66 264.975 61.8958C262.892 63.1315 261.166 64.8878 259.966 66.9921C258.767 69.0965 258.135 71.4766 258.133 73.8989Z" fill="white"/>
<path d="M19.4766 74.2605H67.629C67.6277 72.4046 67.1271 70.5832 66.1797 68.9872C65.2324 67.3913 63.8731 66.0796 62.2445 65.1897C60.6158 64.2998 58.7778 63.8644 56.923 63.9291C55.0682 63.9939 53.2649 64.5565 51.7023 65.5579C50.7786 64.1767 49.5355 63.0386 48.0785 62.2398C46.6215 61.4411 44.9934 61.0052 43.3322 60.9692C41.671 60.9332 40.0255 61.2981 38.5353 62.033C37.045 62.7679 35.7539 63.8512 34.7711 65.191C33.1969 64.3283 31.4252 63.8905 29.6303 63.9207C27.8355 63.951 26.0795 64.4483 24.5353 65.3637C22.9911 66.279 21.712 67.5808 20.824 69.1409C19.936 70.7009 19.4696 72.4654 19.471 74.2605H19.4766Z" fill="white"/>
<path d="M193.264 172.252H151.884V218.864H193.264V172.252Z" fill="#58595B"/>
<path d="M193.625 219.225H151.529V171.897H193.625V219.225ZM152.245 218.509H192.909V172.614H152.245V218.509Z" fill="#58595B"/>
<path d="M193.264 172.252H151.884V192.118H193.264V172.252Z" fill="#929497"/>
<path d="M258.015 56.2002H87.1338C85.114 56.2002 83.4767 57.8376 83.4767 59.8573V181.311C83.4767 183.33 85.114 184.968 87.1338 184.968H258.015C260.035 184.968 261.672 183.33 261.672 181.311V59.8573C261.672 57.8376 260.035 56.2002 258.015 56.2002Z" fill="#929497" stroke="#404041" stroke-width="0.564374" stroke-miterlimit="10"/>
<path d="M257.71 185.323H87.4442C86.2986 185.323 85.1999 184.868 84.3893 184.059C83.5787 183.249 83.1226 182.151 83.1211 181.006V60.1618C83.13 59.0211 83.5894 57.9302 84.3992 57.1268C85.209 56.3233 86.3035 55.8725 87.4442 55.8726H257.71C258.856 55.8726 259.954 56.3273 260.765 57.1368C261.576 57.9463 262.032 59.0444 262.033 60.19V181.006C262.032 182.151 261.576 183.249 260.765 184.059C259.954 184.868 258.856 185.323 257.71 185.323ZM87.4442 56.5555C86.4872 56.5554 85.5694 56.9352 84.8921 57.6114C84.2149 58.2875 83.8337 59.2048 83.8322 60.1618V181.006C83.8337 181.963 84.2149 182.88 84.8921 183.556C85.5694 184.232 86.4872 184.612 87.4442 184.612H257.71C258.666 184.61 259.583 184.23 260.259 183.554C260.935 182.878 261.315 181.962 261.316 181.006V60.1618C261.315 59.2058 260.935 58.2894 260.259 57.6134C259.583 56.9374 258.666 56.5569 257.71 56.5555H87.4442Z" fill="#929497" stroke="#404041" stroke-width="0.564374" stroke-miterlimit="10"/>
<path d="M258.444 62.8091H86.7161V168.556H258.444V62.8091Z" fill="white"/>
<path d="M258.799 168.911H86.3492V62.4536H258.799V168.911ZM87.0716 168.183H258.077V63.1647H87.0716V168.183Z" fill="white"/>
<path d="M268.354 219.152H85.0737V219.592H268.354V219.152Z" fill="#102048"/>
<path d="M159.537 140.162H195.968C198.58 140.162 200.697 138.045 200.697 135.433V99.0023C200.697 96.3903 198.58 94.2729 195.968 94.2729H159.537C156.925 94.2729 154.808 96.3903 154.808 99.0023V135.433C154.808 138.045 156.925 140.162 159.537 140.162Z" fill="#DCFDF7"/>
<path d="M107.084 140.162H143.515C146.127 140.162 148.244 138.045 148.244 135.433V99.0023C148.244 96.3903 146.127 94.2729 143.515 94.2729H107.084C104.472 94.2729 102.355 96.3903 102.355 99.0023V135.433C102.355 138.045 104.472 140.162 107.084 140.162Z" fill="#DCFDF7"/>
<path d="M181.102 108.851C181.474 107.016 181.717 105.837 181.717 105.837L181.108 105.95L180.063 111.029L181.023 111.43C181.023 111.43 180.729 110.685 181.102 108.851Z" fill="#7D9745"/>
<path d="M180.792 106.012C180.417 106.789 180.173 107.622 180.069 108.478C179.972 109.284 179.636 110.043 179.104 110.656L180.064 111.052L181.108 105.972L180.792 106.012Z" fill="#7D9745"/>
<path d="M180.143 110.679L177.772 109.59C176.787 109.133 175.977 108.368 175.464 107.412C175.096 106.723 174.572 106.129 173.934 105.679L173.793 105.583C174.44 106.164 174.899 106.925 175.114 107.767C175.402 109.071 175.639 110.741 178.353 111.34C181.068 111.938 180.143 110.679 180.143 110.679Z" fill="#74733D"/>
<path d="M179.917 111.746C179.917 111.746 178.788 111.368 177.964 109.658C177.49 108.698 177.295 107.625 177.4 106.56L177.659 107.282C178.036 108.309 178.622 109.247 179.381 110.036C179.604 110.255 179.77 110.525 179.864 110.824C179.957 111.122 179.975 111.439 179.917 111.746Z" fill="#74733D"/>
<path d="M180.368 110.73L182.976 110.657C184.059 110.623 185.103 110.239 185.95 109.562C186.56 109.071 187.278 108.731 188.044 108.569L188.213 108.535C187.389 108.816 186.666 109.332 186.131 110.019C185.357 111.108 184.477 112.547 181.751 112.028C179.025 111.509 180.368 110.73 180.368 110.73Z" fill="#74733D"/>
<path d="M180.148 111.808C180.148 111.808 181.356 111.921 182.767 110.68C183.579 109.983 184.181 109.075 184.505 108.055L183.986 108.62C183.233 109.413 182.327 110.045 181.322 110.476C181.032 110.585 180.773 110.763 180.569 110.995C180.364 111.228 180.219 111.507 180.148 111.808Z" fill="#74733D"/>
<path d="M175.752 132.063L173.528 131.606C167.472 130.365 163.652 124.044 165 117.497L165.04 117.282C166.067 112.271 170.808 108.388 175.283 109.946C176.48 110.358 180.007 111.362 180.007 111.362L175.752 132.063Z" fill="#EC3833"/>
<path d="M175.752 132.063L177.975 132.52C184.031 133.762 190.036 129.45 191.379 122.892L191.424 122.683C192.452 117.672 189.624 112.237 184.906 111.892C183.642 111.802 180.007 111.328 180.007 111.328L175.752 132.063Z" fill="#EC3833"/>
<path d="M211.561 140.613H248.804C251.475 140.613 253.641 138.448 253.641 135.777V98.5336C253.641 95.8623 251.475 93.6969 248.804 93.6969H211.561C208.89 93.6969 206.724 95.8623 206.724 98.5336V135.777C206.724 138.448 208.89 140.613 211.561 140.613Z" fill="#DCFDF7"/>
<path d="M219.609 100.199C221.816 99.6004 224.203 101.215 225.027 103.856L231.907 125.483C232.979 128.937 231.472 132.47 228.594 133.254H228.538L219.57 100.199H219.609Z" fill="#458430"/>
<path d="M216.72 106.102C216.093 103.404 217.34 100.808 219.542 100.21H219.581L228.549 133.265H228.498C225.614 134.044 222.527 131.758 221.726 128.237L216.72 106.102Z" fill="#458430"/>
<path d="M228.538 133.265C227.409 133.564 225.196 130.043 224.852 128.288L219.304 107.654C218.813 106.074 218.249 101.034 219.57 100.21L228.538 133.265Z" fill="#458430"/>
<path d="M219.57 100.21C219.447 100.249 219.338 100.321 219.254 100.419V100.345L219.57 100.21Z" fill="#62A42A"/>
<path d="M224.248 122.243C224.139 122.275 224.046 122.348 223.99 122.447C223.934 122.547 223.92 122.664 223.949 122.774L224.028 123.062C224.059 123.171 224.131 123.263 224.229 123.319C224.327 123.375 224.444 123.39 224.553 123.361C224.663 123.329 224.755 123.256 224.811 123.157C224.867 123.057 224.882 122.94 224.852 122.83L224.773 122.542C224.743 122.433 224.671 122.341 224.572 122.285C224.474 122.229 224.358 122.214 224.248 122.243Z" fill="#79B831"/>
<path d="M222.747 126.273C222.638 126.303 222.546 126.375 222.49 126.474C222.433 126.572 222.419 126.688 222.448 126.798L222.527 127.085C222.541 127.14 222.566 127.191 222.601 127.236C222.635 127.281 222.678 127.318 222.726 127.347C222.775 127.375 222.829 127.393 222.885 127.401C222.941 127.408 222.997 127.405 223.052 127.39C223.161 127.36 223.254 127.288 223.31 127.189C223.366 127.091 223.38 126.975 223.351 126.865L223.272 126.577C223.258 126.523 223.233 126.472 223.198 126.427C223.164 126.382 223.121 126.345 223.073 126.316C223.024 126.288 222.97 126.27 222.914 126.262C222.858 126.255 222.802 126.258 222.747 126.273Z" fill="#79B831"/>
<path d="M221.438 121.566C221.327 121.596 221.233 121.669 221.176 121.768C221.119 121.868 221.104 121.986 221.133 122.096L221.212 122.384C221.242 122.493 221.314 122.586 221.413 122.642C221.511 122.698 221.628 122.713 221.737 122.683C221.846 122.652 221.939 122.578 221.995 122.479C222.051 122.38 222.066 122.263 222.036 122.153L221.963 121.865C221.931 121.757 221.859 121.665 221.761 121.609C221.663 121.553 221.547 121.538 221.438 121.566Z" fill="#79B831"/>
<path d="M222.504 117.502C222.395 117.533 222.303 117.605 222.247 117.703C222.191 117.801 222.176 117.918 222.205 118.027L222.284 118.315C222.299 118.369 222.324 118.421 222.358 118.465C222.392 118.51 222.435 118.548 222.484 118.576C222.532 118.604 222.586 118.623 222.642 118.63C222.698 118.638 222.755 118.634 222.809 118.62C222.918 118.589 223.011 118.517 223.067 118.419C223.123 118.321 223.138 118.204 223.108 118.095L223.029 117.807C223.015 117.752 222.99 117.701 222.956 117.657C222.922 117.612 222.879 117.574 222.83 117.546C222.781 117.517 222.727 117.499 222.672 117.492C222.616 117.484 222.559 117.488 222.504 117.502Z" fill="#79B831"/>
<path d="M220.349 116.261C220.294 116.275 220.243 116.3 220.198 116.334C220.153 116.369 220.116 116.411 220.087 116.46C220.059 116.509 220.041 116.563 220.033 116.618C220.026 116.674 220.029 116.731 220.044 116.786L220.123 117.073C220.137 117.128 220.162 117.179 220.196 117.224C220.231 117.269 220.273 117.306 220.322 117.335C220.371 117.363 220.425 117.381 220.481 117.389C220.536 117.396 220.593 117.393 220.648 117.378C220.757 117.348 220.849 117.276 220.905 117.177C220.961 117.079 220.976 116.963 220.947 116.853L220.873 116.566C220.843 116.456 220.771 116.363 220.673 116.306C220.575 116.249 220.459 116.233 220.349 116.261Z" fill="#79B831"/>
<path d="M218.763 111.294C218.709 111.308 218.659 111.333 218.614 111.367C218.57 111.401 218.533 111.443 218.505 111.492C218.478 111.54 218.46 111.593 218.453 111.648C218.445 111.703 218.449 111.759 218.464 111.813L218.543 112.101C218.557 112.155 218.582 112.205 218.616 112.249C218.65 112.293 218.692 112.329 218.741 112.357C218.789 112.384 218.842 112.402 218.897 112.408C218.953 112.414 219.008 112.41 219.062 112.394C219.116 112.38 219.166 112.355 219.21 112.321C219.254 112.287 219.291 112.245 219.319 112.197C219.347 112.149 219.365 112.095 219.372 112.04C219.379 111.985 219.375 111.929 219.361 111.875L219.282 111.593C219.268 111.539 219.243 111.489 219.209 111.445C219.175 111.401 219.133 111.364 219.084 111.336C219.036 111.308 218.983 111.29 218.928 111.283C218.873 111.276 218.816 111.279 218.763 111.294Z" fill="#79B831"/>
<path d="M227.685 124.524C227.576 124.554 227.484 124.626 227.428 124.724C227.372 124.823 227.357 124.939 227.386 125.048L227.46 125.336C227.491 125.446 227.564 125.538 227.664 125.594C227.763 125.65 227.88 125.665 227.99 125.635C228.045 125.621 228.096 125.596 228.141 125.562C228.185 125.528 228.223 125.485 228.251 125.436C228.28 125.387 228.298 125.334 228.306 125.278C228.313 125.222 228.309 125.165 228.295 125.111L228.216 124.823C228.201 124.768 228.175 124.717 228.14 124.672C228.106 124.628 228.062 124.59 228.013 124.563C227.964 124.535 227.909 124.517 227.853 124.51C227.797 124.504 227.74 124.508 227.685 124.524Z" fill="#79B831"/>
<path d="M229.333 120.567C229.224 120.599 229.131 120.672 229.075 120.771C229.019 120.87 229.005 120.988 229.034 121.098L229.113 121.385C229.144 121.494 229.216 121.587 229.314 121.643C229.412 121.699 229.529 121.714 229.638 121.684C229.749 121.654 229.843 121.581 229.9 121.482C229.957 121.383 229.972 121.265 229.943 121.154L229.864 120.866C229.849 120.812 229.823 120.76 229.788 120.716C229.754 120.671 229.71 120.634 229.661 120.606C229.612 120.578 229.557 120.561 229.501 120.554C229.445 120.547 229.388 120.552 229.333 120.567Z" fill="#79B831"/>
<path d="M230.687 125.312L230.677 125.315C230.448 125.377 230.313 125.613 230.375 125.842L230.453 126.13C230.515 126.359 230.751 126.494 230.979 126.432L230.99 126.429C231.219 126.367 231.354 126.131 231.292 125.903L231.214 125.614C231.152 125.385 230.916 125.25 230.687 125.312Z" fill="#79B831"/>
<path d="M225.841 110.204L225.83 110.206C225.601 110.269 225.466 110.504 225.528 110.733L225.607 111.021C225.669 111.25 225.904 111.385 226.133 111.323L226.144 111.32C226.372 111.258 226.507 111.022 226.445 110.794L226.367 110.505C226.305 110.276 226.069 110.141 225.841 110.204Z" fill="#79B831"/>
<path d="M224.466 114.088L224.455 114.091C224.226 114.153 224.091 114.389 224.153 114.618L224.232 114.906C224.294 115.135 224.529 115.27 224.758 115.208L224.769 115.205C224.998 115.143 225.133 114.907 225.071 114.679L224.992 114.39C224.93 114.161 224.695 114.026 224.466 114.088Z" fill="#79B831"/>
<path d="M226.232 118.784L226.221 118.787C225.993 118.849 225.858 119.085 225.92 119.313L225.998 119.602C226.06 119.831 226.296 119.966 226.524 119.904L226.535 119.901C226.764 119.839 226.899 119.603 226.837 119.374L226.759 119.086C226.696 118.857 226.461 118.722 226.232 118.784Z" fill="#79B831"/>
<path d="M227.324 115.344L227.313 115.347C227.085 115.409 226.95 115.645 227.012 115.873L227.09 116.162C227.152 116.391 227.388 116.526 227.616 116.464L227.627 116.461C227.856 116.399 227.991 116.163 227.929 115.935L227.851 115.646C227.789 115.417 227.553 115.282 227.324 115.344Z" fill="#79B831"/>
<path d="M220.998 113.343C220.887 113.373 220.793 113.446 220.736 113.545C220.679 113.645 220.663 113.763 220.693 113.873L220.772 114.161C220.802 114.27 220.874 114.363 220.973 114.419C221.071 114.475 221.187 114.49 221.297 114.46C221.406 114.429 221.499 114.355 221.555 114.256C221.611 114.157 221.625 114.04 221.596 113.93L221.517 113.648C221.503 113.593 221.479 113.542 221.445 113.498C221.411 113.453 221.369 113.415 221.321 113.387C221.272 113.359 221.219 113.34 221.164 113.332C221.108 113.325 221.052 113.328 220.998 113.343Z" fill="#79B831"/>
<path d="M223.199 108.422C223.088 108.452 222.994 108.525 222.937 108.624C222.88 108.724 222.865 108.841 222.894 108.952L222.973 109.24C223.003 109.349 223.075 109.442 223.174 109.498C223.272 109.554 223.389 109.569 223.498 109.539C223.607 109.507 223.7 109.434 223.756 109.335C223.812 109.236 223.827 109.119 223.797 109.009L223.718 108.721C223.688 108.613 223.616 108.521 223.519 108.465C223.422 108.41 223.307 108.394 223.199 108.422Z" fill="#79B831"/>
<path d="M220.481 107.395L220.475 107.397C220.301 107.444 220.198 107.624 220.245 107.798L220.304 108.016C220.352 108.191 220.531 108.294 220.706 108.247L220.711 108.245C220.886 108.198 220.989 108.018 220.942 107.843L220.883 107.626C220.835 107.451 220.655 107.348 220.481 107.395Z" fill="#79B831"/>
<path d="M225.405 127.419C225.295 127.449 225.201 127.522 225.144 127.621C225.087 127.721 225.071 127.838 225.1 127.949L225.179 128.231C225.194 128.286 225.219 128.337 225.253 128.382C225.287 128.427 225.33 128.464 225.379 128.493C225.428 128.521 225.481 128.539 225.537 128.547C225.593 128.554 225.65 128.551 225.704 128.536C225.814 128.505 225.906 128.431 225.962 128.332C226.018 128.233 226.033 128.116 226.003 128.006L225.924 127.718C225.894 127.61 225.823 127.518 225.726 127.463C225.629 127.407 225.514 127.391 225.405 127.419Z" fill="#79B831"/>
<path d="M239.052 106.914C241.276 106.418 243.082 107.738 243.149 109.911L243.826 127.689C243.911 130.511 241.569 133.434 238.646 134.083H238.595L239.007 106.914H239.052Z" fill="#1C4A45"/>
<path d="M234.78 111.785C234.898 110.641 235.366 109.561 236.12 108.692C236.875 107.824 237.879 107.209 238.995 106.932H239.035L238.623 134.101H238.567C235.66 134.744 233.374 132.87 233.549 129.975L234.78 111.785Z" fill="#1C4A45"/>
<path d="M239.007 106.926C238.878 106.958 238.759 107.018 238.657 107.101V107.033L239.007 106.926Z" fill="#62A42A"/>
<path d="M237.517 125.037C237.41 125.058 237.313 125.11 237.237 125.188C237.161 125.266 237.111 125.365 237.094 125.472V125.709C237.094 125.901 237.28 126.008 237.511 125.957C237.618 125.938 237.717 125.886 237.793 125.808C237.869 125.73 237.918 125.63 237.934 125.522V125.291C237.929 125.099 237.748 124.986 237.517 125.037Z" fill="#0F2C2A"/>
<path d="M235.034 128.355C234.927 128.376 234.829 128.428 234.754 128.506C234.678 128.584 234.628 128.683 234.61 128.79V129.027C234.61 129.213 234.791 129.326 235.022 129.275C235.13 129.257 235.229 129.205 235.306 129.127C235.383 129.049 235.434 128.949 235.451 128.841V128.609C235.451 128.412 235.265 128.305 235.034 128.355Z" fill="#0F2C2A"/>
<path d="M235.062 124.484C234.954 124.502 234.855 124.554 234.779 124.632C234.703 124.71 234.654 124.81 234.638 124.918V125.15C234.638 125.342 234.819 125.449 235.05 125.398C235.157 125.378 235.255 125.326 235.331 125.248C235.407 125.17 235.457 125.071 235.474 124.964V124.727C235.479 124.546 235.293 124.433 235.062 124.484Z" fill="#0F2C2A"/>
<path d="M237.144 121.143C237.037 121.16 236.939 121.211 236.863 121.288C236.787 121.365 236.737 121.465 236.721 121.572V121.809C236.721 122 236.902 122.108 237.133 122.057C237.24 122.037 237.338 121.985 237.414 121.907C237.49 121.829 237.539 121.73 237.556 121.622V121.385C237.562 121.205 237.376 121.092 237.144 121.143Z" fill="#0F2C2A"/>
<path d="M235.457 120.132C235.35 120.152 235.252 120.204 235.176 120.282C235.1 120.36 235.05 120.459 235.034 120.567V120.804C235.034 120.99 235.214 121.103 235.446 121.052C235.552 121.032 235.651 120.98 235.726 120.902C235.802 120.824 235.852 120.725 235.869 120.618V120.381C235.869 120.211 235.688 120.081 235.457 120.132Z" fill="#0F2C2A"/>
<path d="M235.299 116.041C235.194 116.059 235.097 116.11 235.022 116.186C234.948 116.262 234.898 116.359 234.881 116.464V116.701C234.881 116.887 235.056 116.994 235.287 116.944C235.394 116.926 235.491 116.874 235.566 116.797C235.641 116.72 235.69 116.621 235.705 116.515V116.261C235.705 116.103 235.524 115.99 235.299 116.041Z" fill="#0F2C2A"/>
<path d="M240.124 126.905C240.017 126.923 239.918 126.975 239.841 127.053C239.765 127.131 239.716 127.231 239.701 127.339V127.576C239.701 127.763 239.881 127.875 240.113 127.819C240.22 127.8 240.319 127.748 240.395 127.67C240.47 127.592 240.52 127.492 240.536 127.384V127.147C240.542 126.984 240.355 126.854 240.124 126.905Z" fill="#0F2C2A"/>
<path d="M242.726 123.648C242.619 123.668 242.521 123.721 242.445 123.798C242.369 123.876 242.32 123.976 242.303 124.083V124.32C242.303 124.512 242.483 124.619 242.715 124.568C242.822 124.549 242.92 124.496 242.995 124.418C243.071 124.341 243.121 124.241 243.138 124.134V123.897C243.144 123.71 242.957 123.598 242.726 123.648Z" fill="#0F2C2A"/>
<path d="M242.732 127.548C242.624 127.566 242.525 127.618 242.449 127.696C242.373 127.775 242.324 127.875 242.308 127.983V128.22C242.308 128.406 242.495 128.519 242.726 128.463C242.834 128.445 242.933 128.393 243.009 128.315C243.085 128.236 243.134 128.136 243.149 128.028V127.791C243.144 127.61 242.958 127.498 242.732 127.548Z" fill="#0F2C2A"/>
<path d="M242.218 115.132C242.111 115.153 242.014 115.205 241.938 115.283C241.862 115.361 241.812 115.46 241.795 115.567V115.804C241.795 115.996 241.975 116.103 242.207 116.052C242.314 116.033 242.412 115.981 242.488 115.903C242.564 115.825 242.614 115.725 242.63 115.617V115.38C242.63 115.2 242.449 115.087 242.218 115.132Z" fill="#0F2C2A"/>
<path d="M239.893 118.332C239.786 118.352 239.688 118.404 239.612 118.482C239.536 118.56 239.486 118.66 239.469 118.767V119.004C239.469 119.19 239.656 119.303 239.887 119.252C239.995 119.234 240.094 119.182 240.17 119.104C240.246 119.026 240.295 118.926 240.31 118.818V118.586C240.305 118.389 240.124 118.282 239.893 118.332Z" fill="#0F2C2A"/>
<path d="M240.294 122.192C240.187 122.212 240.089 122.264 240.013 122.342C239.937 122.42 239.887 122.519 239.87 122.627V122.864C239.87 123.05 240.051 123.163 240.282 123.112C240.389 123.094 240.487 123.043 240.563 122.966C240.639 122.889 240.689 122.79 240.706 122.683V122.469C240.711 122.249 240.525 122.141 240.294 122.192Z" fill="#0F2C2A"/>
<path d="M242.235 119.359C242.128 119.378 242.029 119.43 241.953 119.508C241.877 119.586 241.828 119.686 241.812 119.794V120.031C241.812 120.217 241.992 120.33 242.224 120.279C242.33 120.261 242.429 120.21 242.505 120.133C242.581 120.056 242.631 119.957 242.647 119.85V119.613C242.681 119.416 242.466 119.308 242.235 119.359Z" fill="#0F2C2A"/>
<path d="M236.845 117.723C236.739 117.741 236.641 117.793 236.565 117.869C236.489 117.946 236.439 118.045 236.422 118.152V118.389C236.422 118.581 236.602 118.688 236.834 118.637C236.941 118.618 237.04 118.566 237.116 118.488C237.192 118.41 237.241 118.31 237.257 118.202V117.954C237.257 117.785 237.077 117.672 236.845 117.723Z" fill="#0F2C2A"/>
<path d="M240.22 113.67C240.114 113.694 240.018 113.748 239.942 113.825C239.866 113.902 239.813 113.999 239.791 114.105V114.342C239.791 114.534 239.972 114.641 240.203 114.59C240.31 114.57 240.407 114.517 240.483 114.44C240.559 114.362 240.609 114.263 240.626 114.156V113.919C240.638 113.732 240.451 113.62 240.22 113.67Z" fill="#0F2C2A"/>
<path d="M237.946 112.835C237.865 112.849 237.79 112.888 237.732 112.947C237.675 113.006 237.637 113.081 237.624 113.162V113.343C237.624 113.484 237.765 113.569 237.94 113.529C238.021 113.515 238.096 113.476 238.153 113.417C238.211 113.358 238.249 113.283 238.262 113.202V113.021C238.262 112.874 238.121 112.795 237.946 112.835Z" fill="#0F2C2A"/>
<path d="M237.218 129.292C237.111 129.311 237.012 129.363 236.936 129.441C236.86 129.519 236.811 129.619 236.794 129.727V129.964C236.794 130.15 236.975 130.263 237.206 130.212C237.313 130.192 237.411 130.139 237.486 130.061C237.562 129.984 237.612 129.885 237.63 129.778V129.541C237.635 129.349 237.449 129.242 237.218 129.292Z" fill="#0F2C2A"/>
<path d="M120.906 114.737L120.054 114.043L118.744 111.204L119.139 111.023L120.906 114.72V114.737Z" fill="#5DB040"/>
<path d="M119.139 111.024L119.608 110.804L120.923 113.659L120.906 114.72L119.139 111.024Z" fill="#5DB040"/>
<path d="M121.905 110.544L121.831 114.686C121.7 114.724 121.57 114.769 121.442 114.822L121.143 114.952H121.086L121.024 114.98L120.9 114.72V113.659L120.957 110.527L121.905 110.544Z" fill="#458430"/>
<path d="M117.627 112.05L120.054 114.043L120.906 114.737L121.03 114.996L120.9 115.07C120.799 115.12 120.703 115.171 120.612 115.228C120.522 115.284 120.387 115.363 120.279 115.437L117.023 112.773L117.627 112.05Z" fill="#458430"/>
<path d="M121.109 114.98H121.165L121.465 114.85C121.592 114.801 121.722 114.756 121.854 114.714C123.705 114.15 125.511 114.76 126.155 116.707L126.6 118.061L127.977 122.243C128.542 123.936 129.163 125.844 129.727 127.548C130.291 129.253 130.771 130.726 131.098 131.713C131.159 131.898 131.208 132.087 131.245 132.278C131.488 133.407 131.635 135.28 130.94 135.619H130.912L129.14 131.911L126.448 126.267L121.448 115.809V115.77L121.086 115.014L121.109 114.98Z" fill="#EE6837"/>
<path d="M120.279 115.454C120.387 115.381 120.494 115.313 120.612 115.245C120.731 115.177 120.799 115.138 120.9 115.087L121.03 115.014L121.391 115.77V115.809L126.42 126.284L129.112 131.928L130.884 135.636C130.037 136.02 128.248 134.084 127.746 133.305C125.602 129.992 119.179 120.048 119.179 120.048C118.101 118.338 118.722 116.554 120.279 115.454Z" fill="#EE6837"/>
<path d="M123.158 117.333L124.388 116.741C124.428 116.741 124.484 116.775 124.524 116.848L123.158 117.508C123.124 117.429 123.124 117.356 123.158 117.333Z" fill="#F9D5B1"/>
<path d="M124.851 118.902L125.895 118.4C125.929 118.4 125.98 118.434 126.019 118.507L124.862 119.072C124.828 118.992 124.823 118.913 124.851 118.902Z" fill="#F9D5B1"/>
<path d="M126.098 123.164L127.08 122.689C127.114 122.689 127.165 122.729 127.199 122.802L126.115 123.327C126.076 123.254 126.07 123.18 126.098 123.164Z" fill="#F9D5B1"/>
<path d="M122.576 122.627L123.936 121.967C123.976 121.967 124.032 121.967 124.072 122.074L122.571 122.796C122.531 122.723 122.531 122.644 122.576 122.627Z" fill="#F9D5B1"/>
<path d="M120.708 119.997L121.623 119.557C121.651 119.557 121.702 119.591 121.735 119.67L120.731 120.155C120.691 120.082 120.686 120.008 120.708 119.997Z" fill="#F9D5B1"/>
<path d="M120.387 117.914L121.544 117.35C121.577 117.35 121.64 117.384 121.673 117.463L120.392 118.078C120.353 118.01 120.353 117.954 120.387 117.914Z" fill="#F9D5B1"/>
<path d="M127.413 127.232L128.598 126.667C128.638 126.667 128.689 126.667 128.728 126.763L127.413 127.401C127.379 127.322 127.379 127.249 127.413 127.232Z" fill="#F9D5B1"/>
<path d="M124.123 126.273L125.308 125.708C125.348 125.708 125.404 125.737 125.438 125.81L124.123 126.42C124.089 126.363 124.089 126.29 124.123 126.273Z" fill="#F9D5B1"/>
<path d="M126.42 129.902L127.199 129.524C127.199 129.524 127.266 129.558 127.295 129.62L126.431 130.038C126.42 129.975 126.42 129.913 126.42 129.902Z" fill="#F9D5B1"/>
<path d="M129.473 131.16L130.037 130.895C130.037 130.895 130.088 130.929 130.111 130.98L129.513 131.268C129.467 131.217 129.456 131.166 129.473 131.16Z" fill="#F9D5B1"/>
<path d="M128.536 133.107L129.027 132.865C129.027 132.865 129.072 132.893 129.095 132.944L128.531 133.203C128.531 133.158 128.519 133.113 128.536 133.107Z" fill="#F9D5B1"/>
<path d="M128.553 133.192L129.117 132.933C129.117 132.978 129.146 133.023 129.117 133.029L128.626 133.266C128.626 133.266 128.576 133.254 128.553 133.192Z" fill="#F0853B"/>
<path d="M130.641 133.711L130.991 133.542C130.991 133.542 131.036 133.587 131.065 133.649L130.681 133.835C130.659 133.797 130.646 133.755 130.641 133.711Z" fill="#F9D5B1"/>
<path d="M130.681 133.836L131.065 133.649C131.099 133.717 131.115 133.768 131.104 133.774L130.754 133.943C130.754 133.943 130.709 133.903 130.681 133.836Z" fill="#F0853B"/>
<path d="M125.895 107.688H125.951C126.059 107.654 126.16 107.626 126.267 107.604L126.674 107.519C128.587 107.225 130.286 108.083 130.624 110.115C130.624 110.115 130.72 110.646 130.873 111.52C131.053 112.576 131.33 114.133 131.629 115.86C131.928 117.587 132.278 119.591 132.588 121.363C132.899 123.135 133.153 124.659 133.345 125.681C133.375 125.879 133.396 126.078 133.407 126.279C133.48 127.436 133.356 129.309 132.617 129.541H132.577L131.358 125.59L129.524 119.647L126.092 108.58V108.54L125.844 107.739L125.895 107.688Z" fill="#F0824D"/>
<path d="M125.003 108.044L125.359 107.88L125.669 107.767L125.81 107.716L126.059 108.518V108.557L129.524 119.647L131.369 125.613L132.588 129.563C131.697 129.817 130.207 127.644 129.823 126.798C128.181 123.208 123.265 112.44 123.265 112.44C122.43 110.578 123.299 108.924 125.003 108.044Z" fill="#F0824D"/>
<path d="M125.726 107.423L124.986 106.61L124.1 103.613L124.518 103.489L125.731 107.406L125.726 107.423Z" fill="#5DB040"/>
<path d="M124.518 103.489L125.009 103.342L125.901 106.356L125.731 107.406L124.518 103.489Z" fill="#5DB040"/>
<path d="M127.345 103.421L126.674 107.507L126.267 107.592C126.16 107.592 126.059 107.643 125.951 107.677H125.895H125.822L125.737 107.406V107.372L125.906 106.322L126.42 103.28L127.345 103.421Z" fill="#458430"/>
<path d="M122.87 104.291L124.986 106.61L125.726 107.423L125.81 107.694L125.669 107.745L125.359 107.857L125.003 108.021L122.181 104.911L122.87 104.291Z" fill="#458430"/>
<path d="M127.577 110.318L128.886 109.912C128.92 109.912 128.971 109.957 128.999 110.036L127.554 110.487C127.549 110.408 127.549 110.335 127.577 110.318Z" fill="#F9D5B1"/>
<path d="M129.027 112.113L130.156 111.769C130.19 111.769 130.235 111.814 130.258 111.898L129.039 112.282C128.988 112.197 128.993 112.124 129.027 112.113Z" fill="#F9D5B1"/>
<path d="M129.642 116.515L130.687 116.188C130.715 116.188 130.76 116.238 130.788 116.317L129.659 116.679C129.609 116.599 129.614 116.526 129.642 116.515Z" fill="#F9D5B1"/>
<path d="M126.234 115.471L127.673 115.019C127.718 115.019 127.769 115.059 127.797 115.138L126.205 115.64C126.177 115.561 126.188 115.482 126.234 115.471Z" fill="#F9D5B1"/>
<path d="M124.772 112.598L125.737 112.293C125.737 112.293 125.81 112.344 125.833 112.423L124.766 112.762C124.727 112.677 124.727 112.604 124.772 112.598Z" fill="#F9D5B1"/>
<path d="M124.727 110.493L125.957 110.109C125.991 110.109 126.042 110.155 126.07 110.234L124.71 110.662C124.727 110.578 124.727 110.504 124.727 110.493Z" fill="#F9D5B1"/>
<path d="M130.37 120.731L131.629 120.336C131.663 120.336 131.714 120.375 131.736 120.454L130.348 120.889C130.308 120.816 130.314 120.742 130.37 120.731Z" fill="#F9D5B1"/>
<path d="M127.238 119.308L128.497 118.908C128.53 118.908 128.581 118.953 128.604 119.026L127.216 119.466C127.187 119.387 127.199 119.32 127.238 119.308Z" fill="#F9D5B1"/>
<path d="M128.993 123.225L129.823 122.965C129.823 122.965 129.879 123.01 129.902 123.078L128.988 123.366C128.965 123.298 128.971 123.236 128.993 123.225Z" fill="#F9D5B1"/>
<path d="M131.826 124.913L132.391 124.732C132.391 124.732 132.436 124.771 132.453 124.828L131.821 125.025C131.81 124.969 131.81 124.918 131.826 124.913Z" fill="#F9D5B1"/>
<path d="M130.613 126.702L131.132 126.538C131.132 126.538 131.172 126.572 131.189 126.623L130.624 126.803C130.596 126.753 130.596 126.707 130.613 126.702Z" fill="#F9D5B1"/>
<path d="M130.613 126.803L131.177 126.623C131.177 126.673 131.177 126.718 131.177 126.724L130.658 126.888C130.658 126.888 130.63 126.854 130.613 126.803Z" fill="#F0853B"/>
<path d="M132.628 127.61L133 127.492C133.026 127.527 133.046 127.568 133.057 127.61L132.645 127.74C132.628 127.672 132.628 127.61 132.628 127.61Z" fill="#F9D5B1"/>
<path d="M132.628 127.74L133.04 127.61C133.04 127.678 133.04 127.735 133.04 127.74L132.667 127.853C132.667 127.853 132.628 127.808 132.628 127.74Z" fill="#F0853B"/>
<path d="M225.321 195.476L302.324 194.709C302.324 194.709 305.146 172.106 291.499 145.563C279.913 122.988 281.769 101.39 281.769 101.39L204.766 102.152C204.766 102.152 203.513 129.112 215.416 150.524C228.086 173.313 225.321 195.476 225.321 195.476Z" fill="#31BC2E"/>
<path d="M287.12 168.375C286.987 168.451 286.845 168.506 286.696 168.539C286.452 168.59 286.198 168.577 285.96 168.502C285.722 168.427 285.507 168.292 285.336 168.11L281.51 164.052C281.365 163.916 281.249 163.752 281.17 163.57C281.091 163.387 281.05 163.19 281.05 162.992C281.05 162.793 281.09 162.596 281.169 162.414C281.248 162.231 281.363 162.067 281.508 161.93C281.653 161.794 281.824 161.689 282.011 161.621C282.198 161.554 282.397 161.525 282.595 161.537C282.794 161.549 282.987 161.602 283.165 161.692C283.342 161.782 283.499 161.907 283.626 162.06L285.81 164.38L288.231 157.46C288.294 157.28 288.391 157.114 288.518 156.972C288.645 156.829 288.799 156.713 288.97 156.63C289.142 156.547 289.328 156.499 289.519 156.488C289.709 156.477 289.9 156.503 290.08 156.566C290.26 156.629 290.426 156.726 290.568 156.853C290.711 156.98 290.827 157.133 290.91 157.305C290.993 157.476 291.041 157.663 291.052 157.853C291.063 158.043 291.037 158.234 290.974 158.414L287.769 167.619C287.648 167.94 287.418 168.208 287.12 168.375Z" fill="white"/>
<path d="M289.874 181.756C289.744 181.831 289.603 181.884 289.456 181.914C289.212 181.967 288.959 181.956 288.72 181.882C288.482 181.808 288.267 181.673 288.096 181.491L284.27 177.433C284.033 177.148 283.914 176.783 283.936 176.414C283.959 176.044 284.122 175.696 284.392 175.442C284.661 175.188 285.018 175.047 285.388 175.047C285.759 175.046 286.116 175.187 286.386 175.441L288.57 177.76L290.991 170.813C291.054 170.633 291.151 170.467 291.278 170.324C291.405 170.182 291.559 170.066 291.73 169.983C291.902 169.9 292.088 169.851 292.278 169.84C292.469 169.829 292.659 169.856 292.84 169.918C293.02 169.981 293.186 170.079 293.328 170.205C293.471 170.332 293.587 170.486 293.67 170.657C293.753 170.829 293.801 171.015 293.812 171.206C293.823 171.396 293.797 171.587 293.734 171.767L290.523 180.972C290.411 181.304 290.18 181.584 289.874 181.756Z" fill="white"/>
<path d="M282.401 152.55C282.279 152.637 282.144 152.704 282.001 152.748C281.762 152.823 281.509 152.835 281.264 152.782C281.02 152.73 280.793 152.615 280.607 152.449L276.419 148.763C276.263 148.641 276.133 148.488 276.037 148.314C275.942 148.139 275.884 147.947 275.865 147.75C275.847 147.552 275.869 147.352 275.931 147.163C275.993 146.975 276.092 146.8 276.224 146.652C276.355 146.503 276.516 146.382 276.696 146.298C276.876 146.213 277.071 146.166 277.269 146.16C277.468 146.154 277.666 146.188 277.85 146.261C278.035 146.334 278.203 146.445 278.344 146.585L280.731 148.69L282.497 141.545C282.607 141.19 282.849 140.89 283.173 140.708C283.497 140.525 283.878 140.473 284.239 140.563C284.599 140.652 284.912 140.876 285.113 141.189C285.314 141.502 285.388 141.879 285.319 142.245L282.977 151.709C282.891 152.049 282.687 152.347 282.401 152.55Z" fill="white"/>
<path d="M277.322 136.669C277.19 136.742 277.047 136.795 276.899 136.827C276.654 136.876 276.401 136.861 276.164 136.784C275.927 136.707 275.713 136.57 275.544 136.386L271.757 132.295C271.521 132.008 271.403 131.642 271.428 131.271C271.453 130.9 271.619 130.552 271.891 130.3C272.164 130.047 272.523 129.909 272.895 129.912C273.267 129.916 273.623 130.062 273.891 130.319L276.052 132.656L278.541 125.737C278.606 125.557 278.705 125.392 278.833 125.251C278.961 125.11 279.116 124.996 279.288 124.915C279.461 124.834 279.648 124.787 279.838 124.778C280.028 124.769 280.219 124.797 280.398 124.862C280.577 124.926 280.742 125.026 280.883 125.154C281.024 125.282 281.139 125.437 281.22 125.609C281.301 125.782 281.348 125.968 281.357 126.159C281.366 126.349 281.337 126.539 281.273 126.719L277.977 135.895C277.859 136.223 277.626 136.498 277.322 136.669Z" fill="white"/>
<path d="M273.101 119.354C272.968 119.427 272.826 119.48 272.677 119.512C272.433 119.561 272.18 119.547 271.942 119.469C271.705 119.392 271.492 119.255 271.323 119.072L267.513 114.974C267.384 114.834 267.283 114.67 267.218 114.491C267.152 114.312 267.122 114.122 267.129 113.932C267.137 113.741 267.182 113.554 267.262 113.381C267.342 113.208 267.455 113.052 267.595 112.923C267.735 112.793 267.899 112.693 268.078 112.627C268.257 112.561 268.447 112.531 268.638 112.539C268.828 112.546 269.015 112.591 269.189 112.671C269.362 112.751 269.517 112.865 269.647 113.005L271.808 115.341L274.297 108.422C274.441 108.078 274.712 107.803 275.053 107.653C275.395 107.503 275.78 107.489 276.131 107.615C276.482 107.741 276.771 107.997 276.939 108.33C277.107 108.662 277.141 109.047 277.034 109.404L273.733 118.581C273.62 118.905 273.396 119.179 273.101 119.354Z" fill="white"/>
<path d="M216.155 121.3H216.37L263.929 120.11C264.3 120.079 264.645 119.908 264.893 119.631C265.142 119.355 265.275 118.993 265.266 118.622C265.256 118.25 265.105 117.896 264.843 117.632C264.581 117.368 264.228 117.215 263.856 117.203L216.296 118.394C215.935 118.411 215.593 118.562 215.337 118.818C215.081 119.074 214.929 119.416 214.911 119.778C214.894 120.139 215.011 120.494 215.241 120.774C215.471 121.053 215.797 121.237 216.155 121.289V121.3Z" fill="white"/>
<path d="M220.625 138.446H220.84L268.399 137.25C268.59 137.245 268.777 137.203 268.952 137.126C269.126 137.048 269.283 136.937 269.414 136.799C269.545 136.661 269.648 136.499 269.717 136.321C269.785 136.143 269.818 135.953 269.813 135.763C269.808 135.572 269.766 135.385 269.689 135.211C269.611 135.036 269.5 134.879 269.362 134.748C269.224 134.617 269.062 134.514 268.884 134.445C268.706 134.377 268.516 134.344 268.326 134.349L220.766 135.54C220.405 135.557 220.063 135.708 219.806 135.964C219.55 136.22 219.399 136.562 219.381 136.923C219.364 137.285 219.481 137.64 219.711 137.92C219.941 138.199 220.267 138.383 220.625 138.435V138.446Z" fill="white"/>
<path d="M227.358 154.638C227.431 154.644 227.505 154.644 227.578 154.638L273.642 153.267C274.027 153.256 274.392 153.092 274.656 152.812C274.92 152.532 275.062 152.159 275.05 151.774C275.039 151.389 274.876 151.025 274.596 150.761C274.316 150.497 273.942 150.355 273.558 150.366L227.494 151.737C227.132 151.756 226.791 151.908 226.536 152.164C226.28 152.42 226.129 152.762 226.113 153.123C226.096 153.485 226.214 153.839 226.444 154.118C226.674 154.397 227 154.581 227.358 154.633V154.638Z" fill="white"/>
<path d="M233.16 169.826H233.374L278.953 168.697C279.144 168.692 279.331 168.65 279.505 168.572C279.68 168.495 279.837 168.384 279.968 168.246C280.099 168.108 280.202 167.945 280.271 167.767C280.339 167.59 280.372 167.4 280.367 167.21C280.362 167.019 280.32 166.831 280.242 166.657C280.165 166.483 280.054 166.326 279.916 166.195C279.778 166.063 279.615 165.961 279.438 165.892C279.26 165.824 279.07 165.791 278.88 165.796L233.301 166.925C232.939 166.942 232.597 167.093 232.341 167.349C232.085 167.605 231.934 167.947 231.916 168.308C231.898 168.67 232.016 169.025 232.246 169.304C232.476 169.584 232.802 169.768 233.16 169.82V169.826Z" fill="white"/>
<path d="M235.733 182.975H235.942L280.195 181.847C280.385 181.842 280.573 181.8 280.747 181.722C280.921 181.645 281.078 181.534 281.21 181.396C281.341 181.258 281.444 181.095 281.512 180.917C281.581 180.74 281.613 180.55 281.608 180.36C281.604 180.169 281.561 179.981 281.484 179.807C281.407 179.633 281.296 179.476 281.158 179.345C281.02 179.213 280.857 179.111 280.679 179.042C280.501 178.974 280.312 178.941 280.121 178.946L235.869 180.075C235.508 180.093 235.166 180.245 234.911 180.501C234.655 180.757 234.505 181.099 234.488 181.461C234.471 181.822 234.589 182.177 234.819 182.456C235.05 182.735 235.375 182.918 235.733 182.97V182.975Z" fill="white"/>
</g>
<defs>
<clipPath id="clip0_2809_20221">
<rect width="330.723" height="220.106" fill="white"/>
</clipPath>
</defs>
</svg>
