<svg width="651" height="300" viewBox="0 0 651 300" fill="none" xmlns="http://www.w3.org/2000/svg">
<path d="M345.758 -0.00119019H651V301.854L0 301.854L69.0402 168.653C82.8767 141.958 110.438 125.201 140.505 125.201H163.284C186.524 125.201 208.631 115.155 223.917 97.6489L285.124 27.5505C300.41 10.044 322.517 -0.00119019 345.758 -0.00119019Z" fill="#004C46"/>
<g clip-path="url(#clip0_1348_70158)">
<path d="M208.28 300.493H592.168C592.707 300.493 593.224 300.283 593.61 299.907C593.995 299.531 594.218 299.019 594.231 298.481C594.231 297.934 594.014 297.409 593.627 297.022C593.24 296.635 592.716 296.418 592.168 296.418H208.28C207.741 296.431 207.23 296.654 206.854 297.04C206.478 297.425 206.267 297.942 206.267 298.481C206.267 299.014 206.479 299.526 206.857 299.904C207.234 300.281 207.746 300.493 208.28 300.493Z" fill="#022D2B"/>
<path d="M267.423 272.863H237.559L238.143 296.569H266.839L267.423 272.863Z" fill="#022D2B"/>
<path d="M422.063 257.507C422.063 257.507 422.577 266.442 423.603 268.485C424.629 270.527 425.384 268.746 424.871 274.109C424.525 276.903 424.357 279.716 424.368 282.531C424.368 285.087 426.38 296.617 426.38 296.617L401.859 299.686L352.325 302.232L341.599 299.425V287.109C341.599 282.259 340.593 281.494 341.599 276.645C342.605 271.795 344.155 254.68 344.155 254.68L422.063 257.507Z" fill="#022D2B"/>
<path d="M423.602 279.454C422.888 279.404 406.165 278.247 402.473 265.619C402.443 265.523 402.434 265.422 402.445 265.321C402.455 265.221 402.486 265.124 402.535 265.036C402.584 264.948 402.649 264.87 402.729 264.808C402.808 264.746 402.899 264.7 402.996 264.673C403.092 264.643 403.194 264.632 403.295 264.642C403.395 264.652 403.493 264.683 403.581 264.732C403.67 264.781 403.747 264.847 403.809 264.927C403.871 265.007 403.916 265.099 403.942 265.197C407.322 276.798 423.512 277.915 423.683 277.915C423.872 277.936 424.046 278.027 424.173 278.169C424.3 278.311 424.37 278.494 424.37 278.685C424.37 278.875 424.3 279.058 424.173 279.2C424.046 279.342 423.872 279.433 423.683 279.454H423.602Z" fill="#5DB140"/>
<path d="M343.681 279.012C342.544 279.012 341.84 278.941 341.84 278.941C341.737 278.935 341.636 278.908 341.543 278.862C341.451 278.815 341.369 278.751 341.302 278.672C341.235 278.593 341.185 278.501 341.155 278.402C341.125 278.303 341.115 278.199 341.126 278.096C341.143 277.908 341.231 277.734 341.37 277.607C341.51 277.481 341.692 277.411 341.88 277.412H341.971C342.605 277.482 357.869 278.961 360.022 266.555C360.033 266.453 360.066 266.355 360.118 266.267C360.171 266.179 360.241 266.103 360.324 266.044C360.408 265.985 360.503 265.945 360.604 265.925C360.704 265.906 360.808 265.908 360.907 265.931C361.006 265.948 361.101 265.985 361.186 266.039C361.271 266.092 361.345 266.162 361.403 266.245C361.461 266.327 361.502 266.42 361.524 266.518C361.546 266.616 361.548 266.718 361.531 266.817C359.619 277.885 348.239 279.012 343.681 279.012Z" fill="#5DB140"/>
<path d="M385.297 300.894C385.099 300.897 384.908 300.823 384.763 300.688C384.619 300.553 384.532 300.367 384.522 300.169L383.254 272.6C383.249 272.499 383.263 272.399 383.297 272.304C383.33 272.209 383.382 272.122 383.449 272.047C383.517 271.972 383.598 271.912 383.689 271.868C383.78 271.825 383.878 271.8 383.979 271.795C384.181 271.794 384.375 271.869 384.524 272.005C384.673 272.141 384.766 272.328 384.784 272.529L386.062 300.109C386.067 300.311 385.993 300.507 385.856 300.656C385.719 300.804 385.529 300.893 385.327 300.904L385.297 300.894Z" fill="#5DB140"/>
<path d="M377.127 300.895C376.929 300.898 376.738 300.824 376.594 300.689C376.449 300.554 376.363 300.369 376.352 300.171L375.085 272.078C375.076 271.876 375.147 271.679 375.283 271.528C375.418 271.378 375.607 271.286 375.809 271.273C376.006 271.289 376.192 271.369 376.338 271.502C376.484 271.635 376.581 271.813 376.614 272.008L377.892 300.101C377.896 300.201 377.88 300.301 377.845 300.396C377.811 300.49 377.758 300.576 377.689 300.65C377.621 300.724 377.539 300.784 377.448 300.826C377.357 300.868 377.258 300.892 377.157 300.895H377.127Z" fill="#5DB140"/>
<path d="M443.575 206.104C443.767 178.333 441.322 154.014 441.322 154.014H420.504L420.282 182.931L443.575 206.104Z" fill="#99492F"/>
<path d="M317.561 206.104C315.076 193.838 320.147 154.014 320.147 154.014H340.955L339.587 186.212L317.561 206.104Z" fill="#99492F"/>
<path d="M397.06 106.984C397.06 106.984 408.52 111.331 414.054 112.91C419.588 114.49 432.629 118.444 437.76 125.991C442.892 133.537 444.663 183.474 444.663 183.474C444.663 183.474 424.871 179.268 420.917 179.268C420.917 179.268 419.981 177.759 419.588 181.281C419.196 184.802 423.07 261.473 423.07 261.473C423.07 261.473 421.49 261.473 415.956 263.053C410.422 264.633 391.456 277.28 374.864 273.326C358.272 269.372 342.455 260.678 342.455 260.678C342.455 260.678 343.692 210.641 343.461 203.095C343.31 199.15 340.201 176.994 340.201 176.994C340.201 176.994 319.554 181.945 312.028 176.411C312.028 176.411 322.401 123.194 332.272 118.052C342.143 112.91 366.653 105.404 366.653 105.404C366.653 105.404 385.207 118.444 397.06 106.984Z" fill="#31BC2E"/>
<path d="M360.344 169.468C362.809 166.892 365.375 156.126 366.039 154.254C366.703 152.383 370.487 144.967 370.487 144.967L377.298 142.492C377.465 143.122 377.397 143.79 377.107 144.374C375.436 145.849 373.686 147.233 371.865 148.519L370.587 153.067L375.618 148.227L381.544 147.04L383.617 146.94C383.617 146.94 377.288 170.645 375.709 172.325C374.305 173.547 372.659 174.459 370.879 175.002L360.344 169.468Z" fill="#99492F"/>
<path d="M401.759 175.444L391.002 175.886C391.002 175.886 386.072 172.556 385.629 170.695C385.187 168.833 389.01 155.129 389.01 155.129L400.37 155.531L399.364 171.952L401.759 175.444Z" fill="#99492F"/>
<path d="M393.075 133.535H373.766C373.316 133.535 372.951 133.9 372.951 134.35V171.046C372.951 171.496 373.316 171.861 373.766 171.861H393.075C393.525 171.861 393.89 171.496 393.89 171.046V134.35C393.89 133.9 393.525 133.535 393.075 133.535Z" fill="#3C251D"/>
<path d="M398.579 161.188L394.222 160.534C394.222 160.534 389.906 164.84 388.185 164.005L394.776 155.352L391.405 154.879C391.405 154.879 384.573 160.433 382.721 158.099L386.887 154.477C386.887 154.477 384.09 155.091 382.812 153.611C382.812 153.611 389.161 148.731 390.439 147.574C391.717 146.417 398.197 147.363 398.197 147.363L395.701 141.799C395.701 141.799 390.67 137.02 391.526 134.896C391.526 134.896 397.371 139.465 397.965 140.36C398.559 141.256 401.235 147.977 401.235 147.977L398.579 161.188Z" fill="#99492F"/>
<path d="M401.758 175.445L400.682 169.609C400.682 169.609 402.433 159.749 402.785 156.75C403.137 153.752 405.069 151.438 404.646 150.713C404.224 149.989 398.166 140.752 398.166 140.752L399.112 146.125L397.905 160.433L398.146 175.415L401.758 175.445Z" fill="#99492F"/>
<path d="M400.812 168.381C401.607 173.321 430.454 183.594 436.572 190.114C442.69 196.634 443.887 206.314 443.887 206.314C443.887 206.314 441.12 213.025 436.773 213.226C432.426 213.428 421.56 209.675 413.852 202.752C406.145 195.83 399.826 183.051 389.161 174.498L400.812 168.381Z" fill="#99492F"/>
<path d="M361.069 168.41C358.694 173.441 330.943 183.593 324.846 190.114C318.748 196.634 317.531 206.313 317.531 206.313C317.531 206.313 320.298 213.024 324.645 213.226C328.991 213.427 339.858 209.674 347.566 202.751C355.273 195.829 361.562 183.05 372.227 174.498L361.069 168.41Z" fill="#99492F"/>
<path d="M376.573 136.335C376.573 136.12 376.51 135.91 376.39 135.731C376.271 135.552 376.101 135.413 375.902 135.331C375.704 135.249 375.485 135.227 375.275 135.269C375.064 135.311 374.87 135.414 374.718 135.566C374.566 135.718 374.463 135.912 374.421 136.123C374.379 136.334 374.4 136.552 374.483 136.751C374.565 136.949 374.704 137.119 374.883 137.238C375.062 137.358 375.272 137.421 375.487 137.421C375.775 137.421 376.051 137.307 376.255 137.103C376.459 136.899 376.573 136.623 376.573 136.335Z" fill="white"/>
<mask id="mask0_1348_70158" style="mask-type:luminance" maskUnits="userSpaceOnUse" x="358" y="17" width="56" height="107">
<path d="M413.39 17.8574H358.945V123.929H413.39V17.8574Z" fill="white"/>
</mask>
<g mask="url(#mask0_1348_70158)">
<path d="M359.207 38.7559C359.207 42.8905 360.433 46.9321 362.731 50.3695C365.029 53.8069 368.295 56.4855 372.115 58.0663C375.935 59.6472 380.139 60.0593 384.194 59.2505C388.248 58.4417 391.972 56.4483 394.894 53.5226C397.815 50.5968 399.803 46.8703 400.606 42.8144C401.409 38.7585 400.991 34.5556 399.404 30.7374C397.818 26.9193 395.135 23.6575 391.694 21.3648C388.253 19.0721 384.21 17.8515 380.075 17.8574C374.539 17.8681 369.232 20.0743 365.32 23.992C361.408 27.9098 359.21 33.2193 359.207 38.7559Z" fill="#5DB140"/>
<path d="M360.877 44.8418V80.4204H407.413V39.3984C407.414 38.6752 407.273 37.9589 406.997 37.2906C406.721 36.6222 406.315 36.015 405.804 35.5036C405.293 34.9923 404.685 34.5869 404.017 34.3108C403.349 34.0347 402.632 33.8932 401.909 33.8945H371.12C367.513 37.3584 364.094 41.0128 360.877 44.8418Z" fill="#051616"/>
<path d="M366.783 93.4316V108.645C366.783 117.077 373.052 123.869 380.779 123.869C388.507 123.869 394.765 117.017 394.765 108.645V93.4316H366.783Z" fill="#99492F"/>
<path d="M370.587 96.0078L394.736 109.531V96.0078H370.587Z" fill="#723623"/>
<path d="M366.783 96.0076H395.882C397.39 96.0103 398.884 95.7151 400.277 95.1389C401.671 94.5628 402.937 93.7171 404.003 92.6504C405.068 91.5836 405.913 90.3169 406.488 88.9229C407.063 87.5288 407.357 86.035 407.353 84.5271V43.666H366.783V96.0076Z" fill="#99492F"/>
<path d="M364.791 83.5913H366.804V68.3477H364.791C363.241 68.353 361.755 68.972 360.66 70.0693C359.564 71.1667 358.948 72.6531 358.945 74.2036V77.7655C358.945 78.5323 359.097 79.2915 359.391 79.9996C359.685 80.7078 360.116 81.3509 360.659 81.8921C361.202 82.4334 361.846 82.8621 362.556 83.1537C363.265 83.4452 364.024 83.594 364.791 83.5913Z" fill="#99492F"/>
<path d="M386.374 67.966C386.374 67.966 385.207 64.4545 381.926 64.1627C380.916 64.0836 379.901 64.2386 378.961 64.6155C378.02 64.9925 377.179 65.5812 376.503 66.336C376.503 66.336 377.087 69.4954 381.071 69.908C385.056 70.3205 386.374 67.966 386.374 67.966Z" fill="white"/>
<path d="M378.144 66.6171C378.074 67.2661 378.198 67.9214 378.5 68.4999C378.803 69.0784 379.27 69.5542 379.843 69.8671C380.416 70.18 381.069 70.316 381.719 70.2577C382.37 70.1995 382.988 69.9498 383.496 69.5401C384.005 69.1303 384.38 68.5791 384.575 67.956C384.77 67.333 384.775 66.6661 384.591 66.0397C384.407 65.4134 384.041 64.8558 383.54 64.4373C383.039 64.0189 382.425 63.7585 381.776 63.6891C381.344 63.6375 380.907 63.6727 380.489 63.7927C380.071 63.9128 379.682 64.1151 379.343 64.388C379.005 64.6608 378.724 64.9985 378.518 65.3813C378.312 65.7642 378.185 66.1843 378.144 66.6171Z" fill="black"/>
<path d="M386.374 67.9653C386.374 67.9653 385.368 64.333 381.926 64.1619C380.919 64.109 379.912 64.276 378.975 64.6513C378.039 65.0266 377.195 65.6012 376.503 66.3353" stroke="black" stroke-width="0.694266" stroke-linecap="round" stroke-linejoin="round"/>
<path d="M395.429 67.9659C395.429 67.9659 396.486 64.4543 399.454 64.1625C400.397 64.097 401.341 64.2605 402.206 64.6389C403.072 65.0174 403.833 65.5996 404.425 66.3359C404.211 67.3006 403.691 68.1701 402.942 68.8141C402.193 69.4581 401.255 69.8419 400.269 69.9078C396.587 70.3606 395.429 67.9659 395.429 67.9659Z" fill="white"/>
<path d="M402.905 66.6172C403.003 67.4522 402.779 68.2931 402.277 68.9681C401.776 69.6431 401.036 70.1015 400.209 70.2495C399.802 70.2754 399.395 70.2206 399.009 70.0882C398.624 69.9558 398.268 69.7485 397.964 69.4783C397.659 69.208 397.41 68.8801 397.233 68.5134C397.055 68.1467 396.952 67.7485 396.929 67.3417C396.828 66.5062 397.052 65.6642 397.554 64.9886C398.055 64.313 398.797 63.8552 399.625 63.7094C400.032 63.6835 400.44 63.7383 400.825 63.8707C401.21 64.0031 401.566 64.2104 401.871 64.4806C402.175 64.7509 402.424 65.0788 402.601 65.4455C402.779 65.8122 402.882 66.2104 402.905 66.6172Z" fill="black"/>
<path d="M395.429 67.9669C395.429 67.9669 396.365 64.3346 399.454 64.1636C400.396 64.1056 401.337 64.2725 402.202 64.6504C403.066 65.0283 403.828 65.6064 404.425 66.3369" stroke="black" stroke-width="0.654019" stroke-linecap="round" stroke-linejoin="round"/>
<path d="M380.336 54.261C378.642 54.7319 377.053 55.5244 375.658 56.5954C374.652 57.4808 374.833 59.0001 376.302 59.1712C377.982 59.1106 379.645 58.8125 381.242 58.2857C385.106 57.1789 386.746 55.2672 386.394 54.261C385.87 52.9731 382.419 53.5064 380.336 54.261Z" fill="#051616"/>
<path d="M400.038 54.2621C401.614 54.4795 403.128 55.0207 404.485 55.8518C404.729 55.991 404.927 56.1985 405.055 56.4489C405.182 56.6993 405.234 56.9816 405.203 57.2609C405.171 57.5401 405.059 57.8042 404.88 58.0205C404.701 58.2368 404.462 58.3958 404.193 58.478C402.69 58.648 401.171 58.5903 399.685 58.3069C396.053 57.7233 394.353 56.0229 394.594 55.0871C394.997 53.7389 398.166 53.7389 400.038 54.2621Z" fill="#051616"/>
<path d="M365.969 68.3477V53.5065H369.833V47.6505H407.414V38.7559H365.969V53.5065" fill="#051616"/>
<path d="M388.859 84.2949C388.834 84.7403 388.9 85.186 389.054 85.6048C389.207 86.0237 389.445 86.4068 389.751 86.7308C390.058 87.0548 390.427 87.3129 390.837 87.4893C391.247 87.6657 391.688 87.7567 392.134 87.7567C392.58 87.7567 393.021 87.6657 393.431 87.4893C393.841 87.3129 394.21 87.0548 394.517 86.7308C394.823 86.4068 395.06 86.0237 395.214 85.6048C395.367 85.186 395.434 84.7403 395.409 84.2949" fill="black"/>
<path d="M395.43 84.3563C395.43 83.4864 395.084 82.6521 394.469 82.0369C393.854 81.4218 393.02 81.0762 392.15 81.0762C391.28 81.0762 390.445 81.4218 389.83 82.0369C389.215 82.6521 388.869 83.4864 388.869 84.3563" fill="black"/>
<path d="M390.549 70.9531L393.417 73.6396C395.822 76.2155 392.834 76.5676 391.405 76.4469L390.469 76.2758" fill="#723623"/>
<path d="M360.344 45.2045C360.344 45.2045 362.748 39.4693 383.586 36.1489C401.325 33.3316 407.413 42.1156 407.413 42.1156C418.42 27.7775 413.621 20.3418 398.629 21.6297C390.318 22.334 378.726 26.5499 371.18 33.8045C365.093 39.6907 360.344 45.2045 360.344 45.2045Z" fill="#022D2B"/>
</g>
<path d="M253.558 186.118C255.214 185.268 256.549 183.901 257.361 182.225C260.138 176.922 258.719 170.321 255.892 165.049C253.065 159.777 248.939 155.299 245.941 150.117C245.329 148.852 244.517 147.693 243.536 146.686C243.036 146.191 242.405 145.848 241.718 145.696C241.03 145.545 240.314 145.592 239.652 145.831C237.74 146.726 237.59 149.342 237.74 151.455C238.213 158.076 238.877 164.697 239.753 171.277C240.276 175.201 240.93 179.327 243.224 182.516C245.518 185.706 249.996 187.789 253.558 186.118Z" stroke="#31BC2E" stroke-width="1.00618" stroke-miterlimit="10"/>
<path d="M281.852 178.844C282.184 176.218 282.023 173.129 279.91 171.549C277.234 169.537 273.149 171.469 271.458 174.366C269.768 177.264 269.657 180.786 268.842 184.056C267.232 190.767 262.896 196.502 260.611 203.012C258.599 208.667 258.237 214.734 257.865 220.711C257.744 222.724 257.704 224.957 259.052 226.446C259.649 227.068 260.398 227.522 261.225 227.765C264.636 228.891 268.53 227.251 270.854 224.515C273.179 221.778 274.195 218.145 274.628 214.573C275.06 211.002 274.96 207.379 275.433 203.817C276.539 195.275 280.725 187.386 281.852 178.844Z" stroke="#31BC2E" stroke-width="1.00618" stroke-miterlimit="10"/>
<path d="M228.534 171.098C227.554 170.466 226.375 170.219 225.223 170.403C224.318 170.636 223.509 171.146 222.909 171.862C221.128 173.875 220.897 176.893 221.571 179.529C222.405 182.096 223.54 184.555 224.952 186.854C226.421 189.581 227.688 192.409 228.976 195.216C230.345 198.184 231.924 201.344 234.842 202.813C235.925 203.359 237.126 203.629 238.339 203.6C239.551 203.571 240.738 203.244 241.794 202.647C242.849 202.05 243.741 201.202 244.391 200.178C245.041 199.153 245.428 197.985 245.518 196.775C245.739 193.757 244.049 190.839 242.027 188.525C240.004 186.211 237.599 184.238 235.879 181.703C233.434 178.071 232.297 173.281 228.534 171.098Z" stroke="#31BC2E" stroke-width="1.00618" stroke-miterlimit="10"/>
<path d="M244.945 248.594C244.381 250.294 242.691 251.361 241.011 251.995C237.645 253.153 234.028 253.376 230.546 252.639C223.725 251.316 217.681 247.404 213.683 241.722C212.663 240.512 212.129 238.966 212.183 237.385C212.338 236.645 212.663 235.951 213.132 235.359C213.602 234.766 214.204 234.292 214.89 233.974C216.271 233.352 217.741 232.951 219.247 232.787C222.95 232.183 226.723 231.579 230.436 232.163C233.798 232.744 236.929 234.258 239.472 236.534C242.014 238.81 243.865 241.754 244.814 245.032C245.203 246.181 245.249 247.419 244.945 248.594Z" stroke="#31BC2E" stroke-width="1.00618" stroke-miterlimit="10"/>
<path d="M279.488 230.18C275.091 233.953 269.355 235.744 264.455 238.843C262.181 240.282 260.008 242.134 259.032 244.639C258.348 246.644 258.466 248.835 259.361 250.755C260.255 252.675 261.857 254.176 263.832 254.942C264.867 255.324 265.988 255.415 267.071 255.204C268.708 254.715 270.16 253.743 271.237 252.417C276.187 247.175 279.286 240.343 284.368 235.312C285.472 234.375 286.42 233.267 287.175 232.031C287.538 231.408 287.702 230.689 287.646 229.971C287.591 229.252 287.317 228.567 286.863 228.007C286.307 227.548 285.626 227.267 284.908 227.201C284.19 227.134 283.469 227.286 282.838 227.634C281.613 228.33 280.486 229.186 279.488 230.18Z" stroke="#31BC2E" stroke-width="1.00618" stroke-miterlimit="10"/>
<path d="M251.626 276.112C251.552 276.1 251.486 276.059 251.441 275.999C251.396 275.939 251.376 275.865 251.385 275.79C257.064 236.297 255.334 196.091 246.283 157.232C246.277 157.161 246.296 157.091 246.337 157.033C246.378 156.976 246.439 156.936 246.508 156.92C246.577 156.904 246.649 156.913 246.711 156.947C246.774 156.98 246.822 157.035 246.847 157.101C255.903 196.018 257.633 236.28 251.948 275.83C251.949 275.871 251.94 275.911 251.924 275.948C251.907 275.985 251.883 276.019 251.852 276.045C251.821 276.072 251.785 276.092 251.746 276.103C251.707 276.115 251.666 276.118 251.626 276.112Z" stroke="#31BC2E" stroke-width="1.00618" stroke-miterlimit="10"/>
<path d="M254.786 220.149C254.728 220.148 254.671 220.129 254.625 220.095C254.578 220.061 254.543 220.013 254.524 219.958C251.957 212.96 248.282 206.42 243.637 200.589C242.43 199.07 241.132 197.571 239.874 196.101C235.95 191.543 231.885 186.835 229.983 181.009C229.971 180.974 229.966 180.937 229.968 180.9C229.971 180.863 229.981 180.826 229.998 180.793C230.015 180.761 230.038 180.731 230.067 180.708C230.095 180.684 230.129 180.667 230.164 180.657C230.2 180.644 230.238 180.639 230.275 180.641C230.313 180.644 230.35 180.653 230.384 180.67C230.418 180.687 230.448 180.711 230.472 180.74C230.497 180.768 230.515 180.802 230.527 180.838C232.428 186.543 236.453 191.211 240.317 195.729C241.574 197.198 242.872 198.748 244.09 200.227C248.765 206.113 252.468 212.71 255.057 219.767C255.07 219.802 255.076 219.839 255.074 219.876C255.072 219.914 255.063 219.95 255.047 219.984C255.031 220.017 255.009 220.048 254.981 220.073C254.954 220.098 254.921 220.117 254.886 220.129L254.786 220.149Z" stroke="#31BC2E" stroke-width="1.00618" stroke-miterlimit="10"/>
<path d="M253.266 261.022C253.2 261.012 253.138 260.98 253.092 260.931C253.046 260.881 253.019 260.817 253.015 260.75C252.804 256.031 249.996 251.292 245.348 247.76C241.142 244.57 236.111 242.729 231.261 240.878C227.237 239.358 223.846 238.735 221.582 239.067C221.545 239.074 221.506 239.073 221.469 239.065C221.432 239.056 221.398 239.04 221.367 239.017C221.337 238.994 221.312 238.966 221.293 238.933C221.275 238.899 221.263 238.863 221.26 238.825C221.253 238.788 221.253 238.75 221.262 238.713C221.27 238.676 221.286 238.641 221.309 238.611C221.332 238.58 221.361 238.555 221.394 238.537C221.427 238.518 221.464 238.507 221.501 238.503C223.886 238.141 227.247 238.765 231.462 240.334C236.373 242.166 241.444 244.067 245.71 247.297C249.976 250.527 252.854 254.964 253.488 259.371C256.235 253.012 268.148 241.411 280.293 233.482C280.324 233.461 280.359 233.446 280.396 233.439C280.434 233.431 280.472 233.432 280.509 233.441C280.546 233.449 280.581 233.465 280.611 233.488C280.641 233.511 280.666 233.54 280.685 233.573C280.706 233.604 280.72 233.639 280.727 233.675C280.734 233.712 280.734 233.749 280.727 233.786C280.719 233.822 280.704 233.857 280.683 233.888C280.663 233.919 280.636 233.945 280.604 233.965C267.645 242.417 255.047 254.934 253.558 260.8C253.542 260.865 253.505 260.922 253.451 260.962C253.398 261.003 253.333 261.023 253.266 261.022Z" stroke="#31BC2E" stroke-width="1.00618" stroke-miterlimit="10"/>
<path d="M254.091 253.344H254.031C253.993 253.337 253.958 253.322 253.926 253.301C253.895 253.279 253.868 253.252 253.847 253.22C253.826 253.188 253.812 253.152 253.806 253.115C253.799 253.077 253.801 253.039 253.809 253.002C256.228 241.216 259.506 229.624 263.62 218.318C265.27 213.901 267.031 209.444 268.731 205.137C271.337 198.567 274.024 191.765 276.378 185.014C276.403 184.943 276.456 184.885 276.524 184.853C276.592 184.821 276.67 184.817 276.74 184.843C276.811 184.868 276.869 184.921 276.901 184.988C276.933 185.056 276.937 185.134 276.911 185.205C274.567 192.007 271.88 198.819 269.264 205.399C267.564 209.706 265.803 214.163 264.153 218.57C260.044 229.85 256.765 241.415 254.343 253.173C254.323 253.223 254.288 253.266 254.243 253.297C254.198 253.327 254.145 253.344 254.091 253.344Z" stroke="#31BC2E" stroke-width="1.00618" stroke-miterlimit="10"/>
<path d="M251.083 180.918C251.033 180.931 250.981 180.931 250.932 180.918C248.396 179.459 245.901 177.899 243.365 176.239C243.334 176.219 243.307 176.192 243.286 176.161C243.265 176.131 243.251 176.096 243.243 176.06C243.236 176.023 243.236 175.985 243.243 175.949C243.25 175.912 243.264 175.877 243.285 175.847C243.328 175.786 243.392 175.743 243.465 175.728C243.538 175.713 243.614 175.727 243.677 175.766C246.062 177.336 248.497 178.845 250.932 180.254L254.786 169.749C254.813 169.677 254.867 169.619 254.937 169.587C255.006 169.555 255.086 169.552 255.158 169.578C255.228 169.607 255.285 169.662 255.316 169.731C255.348 169.8 255.352 169.878 255.329 169.95L251.304 180.777C251.29 180.815 251.267 180.849 251.237 180.877C251.207 180.905 251.172 180.925 251.133 180.938C251.115 180.934 251.098 180.927 251.083 180.918Z" stroke="#31BC2E" stroke-width="1.00618" stroke-miterlimit="10"/>
<path d="M248.718 167.425C248.668 167.434 248.617 167.434 248.567 167.425C245.687 165.657 243.151 163.384 241.081 160.714C241.029 160.659 241 160.587 241 160.512C241 160.437 241.029 160.365 241.081 160.311C241.107 160.284 241.138 160.263 241.173 160.249C241.207 160.234 241.244 160.227 241.282 160.227C241.319 160.227 241.357 160.234 241.391 160.249C241.426 160.263 241.457 160.284 241.483 160.311C243.441 162.829 245.825 164.985 248.526 166.68C249.12 164.738 249.774 162.786 250.478 160.875C250.491 160.84 250.51 160.807 250.535 160.78C250.56 160.752 250.591 160.73 250.624 160.714C250.658 160.698 250.694 160.689 250.731 160.687C250.769 160.685 250.806 160.691 250.841 160.704C250.876 160.716 250.908 160.735 250.935 160.76C250.963 160.785 250.985 160.816 251.001 160.849C251.017 160.883 251.026 160.919 251.028 160.956C251.03 160.994 251.024 161.031 251.012 161.066C250.267 163.078 249.583 165.151 248.999 167.203C248.991 167.248 248.97 167.289 248.94 167.323C248.91 167.356 248.871 167.381 248.828 167.395L248.718 167.425Z" stroke="#31BC2E" stroke-width="1.00618" stroke-miterlimit="10"/>
<path d="M246.515 157.294C246.45 157.292 246.387 157.271 246.334 157.233C244.214 155.534 242.254 153.644 240.478 151.589C240.428 151.531 240.404 151.457 240.409 151.381C240.415 151.306 240.451 151.236 240.508 151.186C240.565 151.137 240.64 151.112 240.715 151.118C240.791 151.124 240.861 151.159 240.91 151.216C242.58 153.15 244.411 154.937 246.384 156.559C246.617 156.035 246.818 155.497 246.988 154.949L247.3 154.044C247.321 153.972 247.37 153.911 247.436 153.875C247.502 153.839 247.58 153.831 247.652 153.853C247.724 153.874 247.785 153.923 247.82 153.989C247.856 154.055 247.864 154.133 247.843 154.205V154.426C247.833 154.486 247.801 154.54 247.752 154.577L247.571 155.13C247.36 155.82 247.098 156.492 246.787 157.143C246.765 157.181 246.736 157.214 246.702 157.239C246.667 157.265 246.627 157.284 246.585 157.294H246.515Z" stroke="#31BC2E" stroke-width="1.00618" stroke-miterlimit="10"/>
<path d="M240.79 197.015C238.095 196.997 235.405 196.785 232.74 196.381C232.672 196.363 232.612 196.32 232.573 196.261C232.534 196.201 232.517 196.13 232.527 196.059C232.537 195.989 232.572 195.924 232.627 195.878C232.681 195.832 232.75 195.807 232.821 195.808C235.355 196.2 237.914 196.412 240.478 196.442V191.008C240.478 190.971 240.486 190.933 240.5 190.898C240.515 190.863 240.537 190.832 240.564 190.806C240.591 190.779 240.623 190.759 240.659 190.745C240.694 190.732 240.732 190.725 240.77 190.727C240.807 190.725 240.844 190.732 240.879 190.745C240.914 190.759 240.946 190.78 240.972 190.806C240.999 190.833 241.019 190.864 241.033 190.899C241.047 190.934 241.053 190.971 241.051 191.008V196.734C241.053 196.772 241.045 196.81 241.029 196.845C241.014 196.88 240.99 196.91 240.961 196.935C240.939 196.959 240.913 196.979 240.884 196.993C240.854 197.006 240.822 197.014 240.79 197.015Z" stroke="#31BC2E" stroke-width="1.00618" stroke-miterlimit="10"/>
<path d="M235.788 191.101C235.742 191.111 235.694 191.111 235.647 191.101C232.51 189.369 229.553 187.326 226.823 185.003C226.771 184.949 226.743 184.877 226.743 184.802C226.743 184.727 226.771 184.655 226.823 184.601C226.879 184.549 226.953 184.52 227.029 184.52C227.106 184.52 227.18 184.549 227.236 184.601C229.82 186.799 232.61 188.743 235.567 190.407C235.668 188.827 235.738 187.227 235.768 185.657C235.768 185.583 235.798 185.511 235.851 185.458C235.903 185.405 235.975 185.376 236.05 185.376C236.088 185.376 236.125 185.383 236.16 185.398C236.195 185.413 236.226 185.435 236.253 185.462C236.279 185.489 236.3 185.521 236.313 185.557C236.327 185.592 236.333 185.63 236.332 185.668C236.332 187.398 236.231 189.159 236.11 190.9C236.107 190.948 236.092 190.995 236.065 191.035C236.039 191.076 236.002 191.109 235.959 191.131C235.901 191.136 235.842 191.126 235.788 191.101Z" stroke="#31BC2E" stroke-width="1.00618" stroke-miterlimit="10"/>
<path d="M262.704 222.101C262.667 222.11 262.629 222.11 262.593 222.101C262.542 222.079 262.498 222.042 262.468 221.996C262.437 221.949 262.421 221.895 262.422 221.839L262.784 205.489C262.787 205.415 262.817 205.345 262.869 205.292C262.922 205.24 262.992 205.21 263.066 205.207C263.14 205.212 263.209 205.245 263.259 205.299C263.31 205.353 263.338 205.425 263.338 205.499L262.995 221.175L271.84 213.005C271.896 212.953 271.969 212.923 272.046 212.923C272.123 212.923 272.196 212.953 272.252 213.005C272.304 213.059 272.333 213.131 272.333 213.206C272.333 213.281 272.304 213.353 272.252 213.407L262.915 222.03C262.855 222.078 262.78 222.103 262.704 222.101Z" stroke="#31BC2E" stroke-width="1.00618" stroke-miterlimit="10"/>
<path d="M267.735 208.627C267.683 208.641 267.627 208.641 267.575 208.627C267.538 208.601 267.508 208.566 267.487 208.526C267.466 208.486 267.455 208.441 267.454 208.396L267.001 193.585C267.001 193.508 267.03 193.434 267.082 193.378C267.134 193.322 267.206 193.288 267.283 193.283C267.454 193.283 267.564 193.404 267.575 193.565L268.017 207.994L271.509 206.776C271.544 206.763 271.581 206.758 271.618 206.759C271.655 206.761 271.692 206.77 271.725 206.786C271.759 206.802 271.789 206.824 271.814 206.852C271.839 206.88 271.859 206.912 271.871 206.947C271.883 206.983 271.889 207.021 271.886 207.058C271.884 207.096 271.874 207.133 271.857 207.167C271.84 207.2 271.817 207.231 271.788 207.255C271.759 207.28 271.726 207.298 271.69 207.309L267.836 208.658L267.735 208.627Z" stroke="#31BC2E" stroke-width="1.00618" stroke-miterlimit="10"/>
<path d="M272.143 197.219C272.069 197.216 271.998 197.186 271.946 197.134C271.894 197.081 271.863 197.011 271.861 196.937L271.951 179.782C271.951 179.707 271.981 179.635 272.034 179.583C272.087 179.53 272.158 179.5 272.233 179.5C272.307 179.503 272.377 179.533 272.43 179.585C272.482 179.638 272.512 179.708 272.515 179.782L272.424 196.937C272.424 197.012 272.395 197.084 272.342 197.136C272.289 197.189 272.217 197.219 272.143 197.219Z" stroke="#31BC2E" stroke-width="1.00618" stroke-miterlimit="10"/>
<path d="M269.979 249.308L262.161 248.856C262.122 248.854 262.084 248.844 262.05 248.826C262.015 248.809 261.984 248.785 261.96 248.755C261.91 248.696 261.885 248.621 261.889 248.544L262.432 242.507C262.435 242.469 262.445 242.432 262.462 242.399C262.48 242.365 262.504 242.336 262.533 242.312C262.562 242.289 262.596 242.271 262.633 242.261C262.669 242.252 262.707 242.249 262.744 242.255C262.782 242.258 262.819 242.268 262.853 242.285C262.887 242.302 262.917 242.326 262.942 242.355C262.966 242.384 262.985 242.418 262.996 242.454C263.007 242.491 263.01 242.529 263.006 242.567L262.493 248.282L270.009 248.715C270.047 248.716 270.084 248.725 270.119 248.741C270.153 248.757 270.184 248.78 270.209 248.808C270.234 248.836 270.254 248.869 270.266 248.905C270.279 248.941 270.283 248.979 270.281 249.017C270.281 249.056 270.273 249.095 270.258 249.131C270.242 249.167 270.22 249.199 270.192 249.227C270.164 249.254 270.13 249.275 270.094 249.289C270.057 249.303 270.018 249.31 269.979 249.308Z" stroke="#31BC2E" stroke-width="1.00618" stroke-miterlimit="10"/>
<path d="M266.93 244.186C266.888 244.187 266.846 244.178 266.808 244.161C266.77 244.144 266.736 244.118 266.709 244.086C266.679 244.041 266.663 243.988 266.663 243.935C266.663 243.881 266.679 243.828 266.709 243.784L269.043 238.843C269.058 238.808 269.08 238.777 269.108 238.751C269.136 238.725 269.168 238.704 269.204 238.691C269.24 238.678 269.278 238.672 269.316 238.674C269.354 238.676 269.391 238.686 269.425 238.703C269.492 238.737 269.544 238.796 269.57 238.866C269.596 238.937 269.595 239.015 269.566 239.085L267.554 243.452L277.616 240.483C277.651 240.471 277.689 240.466 277.727 240.47C277.764 240.473 277.801 240.484 277.834 240.502C277.867 240.52 277.896 240.544 277.919 240.574C277.942 240.604 277.959 240.638 277.968 240.675C277.99 240.748 277.982 240.827 277.946 240.895C277.911 240.963 277.85 241.014 277.777 241.037L267.091 244.176L266.93 244.186Z" stroke="#31BC2E" stroke-width="1.00618" stroke-miterlimit="10"/>
<path d="M219.248 244.368C219.208 244.369 219.168 244.361 219.132 244.346C219.095 244.33 219.063 244.307 219.036 244.277C219.009 244.251 218.988 244.22 218.974 244.185C218.959 244.15 218.952 244.113 218.952 244.076C218.952 244.038 218.959 244.001 218.974 243.967C218.988 243.932 219.009 243.901 219.036 243.875C221.371 241.691 227.357 240.333 229.229 239.961L224.067 235.131C224.024 235.076 224.002 235.008 224.005 234.938C224.007 234.869 224.035 234.802 224.082 234.751C224.13 234.7 224.194 234.668 224.263 234.66C224.332 234.652 224.402 234.669 224.46 234.708L230.024 239.92C230.063 239.957 230.091 240.003 230.105 240.055C230.119 240.106 230.119 240.161 230.104 240.212C230.088 240.262 230.059 240.307 230.02 240.342C229.981 240.377 229.934 240.402 229.883 240.413C229.802 240.413 222.035 241.862 219.429 244.287C219.405 244.312 219.377 244.332 219.346 244.346C219.315 244.36 219.282 244.367 219.248 244.368Z" stroke="#31BC2E" stroke-width="1.00618" stroke-miterlimit="10"/>
<path d="M226.602 248.051C226.548 248.047 226.496 248.029 226.451 247.997C226.407 247.966 226.372 247.922 226.352 247.872C226.331 247.822 226.324 247.767 226.333 247.713C226.342 247.659 226.365 247.609 226.401 247.568C226.572 247.387 230.637 243.292 235.457 242.175L232.639 235.846C232.624 235.812 232.617 235.775 232.616 235.737C232.616 235.7 232.623 235.663 232.637 235.628C232.651 235.593 232.672 235.562 232.698 235.535C232.724 235.509 232.756 235.488 232.79 235.474C232.824 235.457 232.86 235.447 232.898 235.446C232.935 235.444 232.972 235.45 233.007 235.463C233.042 235.476 233.074 235.496 233.101 235.522C233.127 235.549 233.148 235.58 233.163 235.614L236.181 242.255C236.199 242.295 236.208 242.338 236.208 242.381C236.208 242.424 236.199 242.467 236.181 242.507C236.162 242.546 236.133 242.58 236.098 242.606C236.063 242.632 236.023 242.65 235.98 242.658C231.19 243.614 226.924 247.92 226.924 247.96C226.886 248.007 226.835 248.04 226.777 248.056C226.72 248.072 226.659 248.071 226.602 248.051Z" stroke="#31BC2E" stroke-width="1.00618" stroke-miterlimit="10"/>
<path d="M241.132 275.961H240.639C240.428 275.961 240.256 276.132 240.256 276.343V293.448C240.256 293.66 240.428 293.831 240.639 293.831H241.132C241.343 293.831 241.514 293.66 241.514 293.448V276.343C241.514 276.132 241.343 275.961 241.132 275.961Z" fill="#31BC2E"/>
<path d="M245.71 275.961H245.217C245.006 275.961 244.834 276.132 244.834 276.343V293.448C244.834 293.66 245.006 293.831 245.217 293.831H245.71C245.921 293.831 246.092 293.66 246.092 293.448V276.343C246.092 276.132 245.921 275.961 245.71 275.961Z" fill="#31BC2E"/>
<path d="M250.117 275.961H249.624C249.413 275.961 249.241 276.132 249.241 276.343V293.448C249.241 293.66 249.413 293.831 249.624 293.831H250.117C250.328 293.831 250.499 293.66 250.499 293.448V276.343C250.499 276.132 250.328 275.961 250.117 275.961Z" fill="#31BC2E"/>
<path d="M254.695 275.961H254.202C253.991 275.961 253.82 276.132 253.82 276.343V293.448C253.82 293.66 253.991 293.831 254.202 293.831H254.695C254.906 293.831 255.077 293.66 255.077 293.448V276.343C255.077 276.132 254.906 275.961 254.695 275.961Z" fill="#31BC2E"/>
<path d="M259.364 275.961H258.871C258.66 275.961 258.489 276.132 258.489 276.343V293.448C258.489 293.66 258.66 293.831 258.871 293.831H259.364C259.575 293.831 259.746 293.66 259.746 293.448V276.343C259.746 276.132 259.575 275.961 259.364 275.961Z" fill="#31BC2E"/>
<path d="M263.942 275.961H263.449C263.238 275.961 263.066 276.132 263.066 276.343V293.448C263.066 293.66 263.238 293.831 263.449 293.831H263.942C264.153 293.831 264.324 293.66 264.324 293.448V276.343C264.324 276.132 264.153 275.961 263.942 275.961Z" fill="#31BC2E"/>
<path d="M593.798 12H461.787V169.689H593.798V12Z" fill="white"/>
<path d="M588.295 32.7793H469.424V144.013H588.295V32.7793Z" fill="#ADE4AB"/>
<path d="M479.718 30.8272C483.63 30.8272 486.802 27.6558 486.802 23.7437C486.802 19.8316 483.63 16.6602 479.718 16.6602C475.806 16.6602 472.635 19.8316 472.635 23.7437C472.635 27.6558 475.806 30.8272 479.718 30.8272Z" fill="#5DB140"/>
<path d="M475.17 27.9383H484.225C484.225 27.9383 483.219 22.7363 479.516 22.7363C475.814 22.7363 475.17 27.9383 475.17 27.9383Z" fill="white"/>
<path d="M479.717 23.35C481.223 23.35 482.444 22.1292 482.444 20.6232C482.444 19.1173 481.223 17.8965 479.717 17.8965C478.211 17.8965 476.99 19.1173 476.99 20.6232C476.99 22.1292 478.211 23.35 479.717 23.35Z" fill="white"/>
<path d="M564.971 22.0618H492.023C491.772 22.0804 491.519 22.0471 491.281 21.9637C491.044 21.8804 490.826 21.7489 490.641 21.5775C490.457 21.4061 490.309 21.1985 490.209 20.9676C490.108 20.7367 490.056 20.4875 490.056 20.2355C490.056 19.9836 490.108 19.7344 490.209 19.5035C490.309 19.2726 490.457 19.065 490.641 18.8936C490.826 18.7222 491.044 18.5907 491.281 18.5074C491.519 18.424 491.772 18.3907 492.023 18.4093H564.971C565.222 18.3907 565.475 18.424 565.712 18.5074C565.95 18.5907 566.168 18.7222 566.353 18.8936C566.537 19.065 566.685 19.2726 566.785 19.5035C566.886 19.7344 566.938 19.9836 566.938 20.2355C566.938 20.4875 566.886 20.7367 566.785 20.9676C566.685 21.1985 566.537 21.4061 566.353 21.5775C566.168 21.7489 565.95 21.8804 565.712 21.9637C565.475 22.0471 565.222 22.0804 564.971 22.0618Z" fill="#5DB140"/>
<path d="M531.566 28.802H491.842C491.591 28.8207 491.339 28.7873 491.101 28.704C490.863 28.6207 490.645 28.4892 490.461 28.3178C490.276 28.1464 490.129 27.9387 490.028 27.7078C489.927 27.4769 489.875 27.2277 489.875 26.9758C489.875 26.7239 489.927 26.4747 490.028 26.2438C490.129 26.0128 490.276 25.8052 490.461 25.6338C490.645 25.4624 490.863 25.3309 491.101 25.2476C491.339 25.1643 491.591 25.1309 491.842 25.1496H531.566C532.027 25.1838 532.458 25.3911 532.773 25.7298C533.087 26.0685 533.262 26.5136 533.262 26.9758C533.262 27.438 533.087 27.8831 532.773 28.2218C532.458 28.5605 532.027 28.7678 531.566 28.802Z" fill="#5DB140"/>
<path d="M516.524 153.872H498.413C498.161 153.891 497.909 153.858 497.671 153.774C497.434 153.691 497.216 153.56 497.031 153.388C496.846 153.217 496.699 153.009 496.599 152.778C496.498 152.547 496.446 152.298 496.446 152.046C496.446 151.794 496.498 151.545 496.599 151.314C496.699 151.083 496.846 150.876 497.031 150.704C497.216 150.533 497.434 150.401 497.671 150.318C497.909 150.235 498.161 150.201 498.413 150.22H516.524C516.985 150.254 517.416 150.461 517.73 150.8C518.045 151.139 518.22 151.584 518.22 152.046C518.22 152.508 518.045 152.953 517.73 153.292C517.416 153.631 516.985 153.838 516.524 153.872Z" fill="#5DB140"/>
<path d="M574.379 153.679H524.673C524.19 153.679 523.727 153.488 523.386 153.146C523.044 152.805 522.852 152.341 522.852 151.858C522.852 151.375 523.044 150.912 523.386 150.571C523.727 150.229 524.19 150.037 524.673 150.037H574.379C574.862 150.037 575.325 150.229 575.667 150.571C576.008 150.912 576.2 151.375 576.2 151.858C576.2 152.341 576.008 152.805 575.667 153.146C575.325 153.488 574.862 153.679 574.379 153.679Z" fill="#5DB140"/>
<path d="M554.216 159.798H497.779C497.528 159.817 497.275 159.783 497.038 159.7C496.8 159.617 496.582 159.485 496.397 159.314C496.213 159.142 496.065 158.935 495.965 158.704C495.864 158.473 495.812 158.224 495.812 157.972C495.812 157.72 495.864 157.471 495.965 157.24C496.065 157.009 496.213 156.801 496.397 156.63C496.582 156.458 496.8 156.327 497.038 156.244C497.275 156.16 497.528 156.127 497.779 156.146H554.216C554.677 156.18 555.108 156.387 555.422 156.726C555.737 157.065 555.911 157.51 555.911 157.972C555.911 158.434 555.737 158.879 555.422 159.218C555.108 159.557 554.677 159.764 554.216 159.798Z" fill="#5DB140"/>
<path d="M487.495 146.878C486.666 146.9 485.857 147.141 485.15 147.575C484.444 148.01 483.864 148.623 483.47 149.353C482.934 148.458 482.116 147.766 481.146 147.384C480.175 147.002 479.105 146.952 478.103 147.241C477.1 147.53 476.222 148.143 475.604 148.984C474.986 149.824 474.663 150.846 474.686 151.889C474.737 154.505 478.63 157.926 483.742 163.339C488.37 158.177 492.385 154.142 492.325 151.526C492.313 150.904 492.179 150.29 491.929 149.72C491.68 149.149 491.321 148.633 490.873 148.202C490.424 147.77 489.895 147.431 489.316 147.204C488.736 146.977 488.117 146.866 487.495 146.878Z" fill="#5DB140"/>
<path d="M338.419 79.6563H228.987C226.961 79.6669 225.021 80.4794 223.592 81.9161C222.162 83.3528 221.36 85.2969 221.36 87.3234V109.993C221.363 112.017 222.166 113.959 223.595 115.394C225.024 116.828 226.962 117.639 228.987 117.65H276.278L284.528 124.552L292.578 117.65H338.47C340.5 117.647 342.446 116.84 343.881 115.404C345.316 113.969 346.124 112.023 346.127 109.993V87.3234C346.125 86.3135 345.925 85.3138 345.537 84.3816C345.148 83.4494 344.58 82.6029 343.864 81.8906C343.148 81.1784 342.299 80.6145 341.364 80.2311C340.43 79.8477 339.429 79.6523 338.419 79.6563Z" stroke="#5DB140" stroke-width="1.00618" stroke-miterlimit="10"/>
<path d="M245.953 110.446C252.602 108.835 256.685 102.14 255.074 95.4915C253.463 88.8432 246.768 84.7596 240.12 86.3704C233.472 87.9813 229.388 94.6766 230.999 101.325C232.61 107.973 239.305 112.057 245.953 110.446Z" fill="#5DB140"/>
<path d="M250.086 105.273H235.447C235.447 105.273 237.68 97.7871 242.852 97.7871C248.024 97.7871 250.086 105.273 250.086 105.273Z" fill="white"/>
<path d="M242.882 96.6885C245.072 96.6885 246.847 94.9136 246.847 92.7241C246.847 90.5347 245.072 88.7598 242.882 88.7598C240.693 88.7598 238.918 90.5347 238.918 92.7241C238.918 94.9136 240.693 96.6885 242.882 96.6885Z" fill="white"/>
<path d="M286.541 87.8743H261.467C261.237 87.8503 261.024 87.7419 260.869 87.57C260.714 87.3982 260.628 87.175 260.628 86.9436C260.628 86.7122 260.714 86.489 260.869 86.3171C261.024 86.1452 261.237 86.0368 261.467 86.0128H286.541C286.671 85.9993 286.803 86.0132 286.928 86.0538C287.052 86.0944 287.167 86.1607 287.264 86.2485C287.362 86.3362 287.439 86.4434 287.493 86.5632C287.546 86.6829 287.573 86.8125 287.573 86.9436C287.573 87.0746 287.546 87.2042 287.493 87.324C287.439 87.4437 287.362 87.5509 287.264 87.6387C287.167 87.7264 287.052 87.7927 286.928 87.8333C286.803 87.8739 286.671 87.8879 286.541 87.8743Z" fill="#31BC2E"/>
<path d="M284.458 95.0662H261.004C260.759 95.0662 260.523 94.9687 260.35 94.7951C260.176 94.6215 260.079 94.386 260.079 94.1405C260.079 93.895 260.176 93.6596 260.35 93.486C260.523 93.3124 260.759 93.2148 261.004 93.2148H284.458C284.704 93.2148 284.939 93.3124 285.113 93.486C285.287 93.6596 285.384 93.895 285.384 94.1405C285.384 94.386 285.287 94.6215 285.113 94.7951C284.939 94.9687 284.704 95.0662 284.458 95.0662Z" fill="#31BC2E"/>
<path d="M313.929 95.0662H288.171C287.926 95.0662 287.69 94.9687 287.516 94.7951C287.343 94.6215 287.245 94.386 287.245 94.1405C287.245 93.895 287.343 93.6596 287.516 93.486C287.69 93.3124 287.926 93.2148 288.171 93.2148H313.929C314.175 93.2148 314.41 93.3124 314.584 93.486C314.757 93.6596 314.855 93.895 314.855 94.1405C314.855 94.386 314.757 94.6215 314.584 94.7951C314.41 94.9687 314.175 95.0662 313.929 95.0662Z" fill="#31BC2E"/>
<path d="M301.855 99.9485H261.236C261.006 99.9245 260.793 99.8161 260.638 99.6443C260.483 99.4724 260.397 99.2492 260.397 99.0178C260.397 98.7864 260.483 98.5632 260.638 98.3913C260.793 98.2194 261.006 98.111 261.236 98.0871H301.855C301.986 98.0735 302.118 98.0875 302.242 98.128C302.367 98.1686 302.481 98.235 302.579 98.3227C302.676 98.4104 302.754 98.5176 302.807 98.6374C302.861 98.7571 302.888 98.8867 302.888 99.0178C302.888 99.1488 302.861 99.2784 302.807 99.3982C302.754 99.5179 302.676 99.6251 302.579 99.7129C302.481 99.8006 302.367 99.8669 302.242 99.9075C302.118 99.9481 301.986 99.9621 301.855 99.9485Z" fill="#31BC2E"/>
<path d="M311.394 105.291H261.236C261.006 105.267 260.793 105.159 260.638 104.987C260.483 104.815 260.397 104.592 260.397 104.36C260.397 104.129 260.483 103.906 260.638 103.734C260.793 103.562 261.006 103.454 261.236 103.43H311.394C311.624 103.454 311.837 103.562 311.992 103.734C312.147 103.906 312.233 104.129 312.233 104.36C312.233 104.592 312.147 104.815 311.992 104.987C311.837 105.159 311.624 105.267 311.394 105.291Z" fill="#31BC2E"/>
<path d="M283.06 110.605H261.236C260.991 110.605 260.755 110.508 260.582 110.334C260.408 110.161 260.311 109.925 260.311 109.68C260.311 109.434 260.408 109.199 260.582 109.025C260.755 108.851 260.991 108.754 261.236 108.754H283.06C283.306 108.754 283.541 108.851 283.715 109.025C283.888 109.199 283.986 109.434 283.986 109.68C283.986 109.925 283.888 110.161 283.715 110.334C283.541 110.508 283.306 110.605 283.06 110.605Z" fill="#31BC2E"/>
<path d="M583.657 174.77H474.224C472.191 174.77 470.241 175.577 468.803 177.015C467.365 178.453 466.557 180.403 466.557 182.437V205.096C466.557 207.13 467.365 209.082 468.802 210.521C470.24 211.96 472.19 212.77 474.224 212.773H521.515L529.766 219.676L537.815 212.773H583.697C585.731 212.77 587.681 211.96 589.119 210.521C590.557 209.082 591.364 207.13 591.364 205.096V182.437C591.364 181.426 591.164 180.426 590.777 179.493C590.389 178.56 589.82 177.713 589.104 177.001C588.388 176.289 587.538 175.725 586.603 175.342C585.668 174.959 584.667 174.764 583.657 174.77Z" stroke="#5DB140" stroke-width="1.00618" stroke-miterlimit="10"/>
<path d="M491.205 205.567C497.853 203.956 501.937 197.261 500.326 190.613C498.715 183.964 492.02 179.881 485.372 181.492C478.723 183.102 474.64 189.798 476.251 196.446C477.862 203.094 484.557 207.178 491.205 205.567Z" fill="#5DB140"/>
<path d="M495.333 200.386H480.713C480.713 200.386 482.937 192.9 488.109 192.9C493.281 192.9 495.333 200.386 495.333 200.386Z" fill="white"/>
<path d="M488.13 191.796C490.319 191.796 492.094 190.021 492.094 187.832C492.094 185.642 490.319 183.867 488.13 183.867C485.94 183.867 484.165 185.642 484.165 187.832C484.165 190.021 485.94 191.796 488.13 191.796Z" fill="white"/>
<path d="M531.787 182.991H506.713C506.583 183.005 506.451 182.991 506.326 182.95C506.202 182.91 506.087 182.844 505.99 182.756C505.892 182.668 505.814 182.561 505.761 182.441C505.708 182.321 505.68 182.192 505.68 182.061C505.68 181.93 505.708 181.8 505.761 181.68C505.814 181.561 505.892 181.453 505.99 181.366C506.087 181.278 506.202 181.212 506.326 181.171C506.451 181.13 506.583 181.116 506.713 181.13H531.787C532.017 181.154 532.23 181.262 532.385 181.434C532.54 181.606 532.626 181.829 532.626 182.061C532.626 182.292 532.54 182.515 532.385 182.687C532.23 182.859 532.017 182.968 531.787 182.991Z" fill="#31BC2E"/>
<path d="M529.694 190.184H506.24C506.01 190.16 505.797 190.051 505.642 189.879C505.487 189.708 505.401 189.484 505.401 189.253C505.401 189.022 505.487 188.798 505.642 188.627C505.797 188.455 506.01 188.346 506.24 188.322H529.694C529.924 188.346 530.138 188.455 530.293 188.627C530.447 188.798 530.533 189.022 530.533 189.253C530.533 189.484 530.447 189.708 530.293 189.879C530.138 190.051 529.924 190.16 529.694 190.184Z" fill="#31BC2E"/>
<path d="M559.185 190.184H533.407C533.177 190.16 532.964 190.051 532.809 189.879C532.654 189.708 532.568 189.484 532.568 189.253C532.568 189.022 532.654 188.798 532.809 188.627C532.964 188.455 533.177 188.346 533.407 188.322H559.185C559.416 188.346 559.629 188.455 559.784 188.627C559.938 188.798 560.024 189.022 560.024 189.253C560.024 189.484 559.938 189.708 559.784 189.879C559.629 190.051 559.416 190.16 559.185 190.184Z" fill="#31BC2E"/>
<path d="M547.111 195.056H506.481C506.236 195.056 506 194.959 505.827 194.785C505.653 194.612 505.555 194.376 505.555 194.131C505.555 193.885 505.653 193.65 505.827 193.476C506 193.303 506.236 193.205 506.481 193.205H547.111C547.356 193.205 547.592 193.303 547.765 193.476C547.939 193.65 548.036 193.885 548.036 194.131C548.036 194.376 547.939 194.612 547.765 194.785C547.592 194.959 547.356 195.056 547.111 195.056Z" fill="#31BC2E"/>
<path d="M556.629 200.398H506.481C506.236 200.398 506 200.301 505.827 200.127C505.653 199.954 505.556 199.718 505.556 199.473C505.556 199.227 505.653 198.992 505.827 198.818C506 198.644 506.236 198.547 506.481 198.547H556.629C556.875 198.547 557.11 198.644 557.284 198.818C557.458 198.992 557.555 199.227 557.555 199.473C557.555 199.718 557.458 199.954 557.284 200.127C557.11 200.301 556.875 200.398 556.629 200.398Z" fill="#31BC2E"/>
<path d="M528.306 205.74H506.482C506.352 205.753 506.22 205.739 506.095 205.699C505.971 205.658 505.856 205.592 505.758 205.504C505.661 205.416 505.583 205.309 505.53 205.189C505.477 205.069 505.449 204.94 505.449 204.809C505.449 204.678 505.477 204.548 505.53 204.428C505.583 204.309 505.661 204.201 505.758 204.114C505.856 204.026 505.971 203.96 506.095 203.919C506.22 203.878 506.352 203.865 506.482 203.878H528.306C528.536 203.902 528.749 204.01 528.904 204.182C529.059 204.354 529.145 204.577 529.145 204.809C529.145 205.04 529.059 205.263 528.904 205.435C528.749 205.607 528.536 205.716 528.306 205.74Z" fill="#31BC2E"/>
<path d="M585.337 230.897H475.924C473.891 230.897 471.941 231.704 470.503 233.142C469.065 234.58 468.257 236.53 468.257 238.564V261.233C468.257 263.266 469.065 265.217 470.503 266.655C471.941 268.092 473.891 268.9 475.924 268.9H523.215L531.456 275.803L539.505 268.9H585.387C587.42 268.9 589.371 268.092 590.808 266.655C592.246 265.217 593.054 263.266 593.054 261.233V238.564C593.054 237.553 592.854 236.552 592.466 235.618C592.077 234.685 591.508 233.837 590.791 233.124C590.073 232.412 589.222 231.848 588.286 231.466C587.35 231.083 586.348 230.89 585.337 230.897Z" stroke="#5DB140" stroke-width="1.00618" stroke-miterlimit="10"/>
<path d="M492.885 261.69C499.533 260.079 503.617 253.384 502.006 246.736C500.395 240.087 493.7 236.004 487.051 237.615C480.403 239.225 476.319 245.921 477.93 252.569C479.541 259.217 486.236 263.301 492.885 261.69Z" fill="#5DB140"/>
<path d="M497.054 256.504H482.394C482.394 256.504 484.617 249.018 489.789 249.018C494.961 249.018 497.054 256.504 497.054 256.504Z" fill="white"/>
<path d="M489.81 247.919C491.999 247.919 493.774 246.144 493.774 243.955C493.774 241.765 491.999 239.99 489.81 239.99C487.62 239.99 485.845 241.765 485.845 243.955C485.845 246.144 487.62 247.919 489.81 247.919Z" fill="white"/>
<path d="M533.467 239.113H508.393C508.163 239.089 507.95 238.981 507.795 238.809C507.64 238.637 507.554 238.414 507.554 238.183C507.554 237.951 507.64 237.728 507.795 237.556C507.95 237.384 508.163 237.276 508.393 237.252H533.467C533.697 237.276 533.91 237.384 534.065 237.556C534.22 237.728 534.306 237.951 534.306 238.183C534.306 238.414 534.22 238.637 534.065 238.809C533.91 238.981 533.697 239.089 533.467 239.113Z" fill="#31BC2E"/>
<path d="M531.375 246.308H507.931C507.8 246.321 507.668 246.307 507.544 246.267C507.419 246.226 507.305 246.16 507.207 246.072C507.11 245.984 507.032 245.877 506.979 245.758C506.925 245.638 506.898 245.508 506.898 245.377C506.898 245.246 506.925 245.116 506.979 244.997C507.032 244.877 507.11 244.77 507.207 244.682C507.305 244.594 507.419 244.528 507.544 244.487C507.668 244.447 507.8 244.433 507.931 244.446H531.375C531.505 244.433 531.637 244.447 531.761 244.487C531.886 244.528 532.001 244.594 532.098 244.682C532.195 244.77 532.273 244.877 532.327 244.997C532.38 245.116 532.407 245.246 532.407 245.377C532.407 245.508 532.38 245.638 532.327 245.758C532.273 245.877 532.195 245.984 532.098 246.072C532.001 246.16 531.886 246.226 531.761 246.267C531.637 246.307 531.505 246.321 531.375 246.308Z" fill="#31BC2E"/>
<path d="M560.866 246.308H535.097C534.967 246.321 534.835 246.307 534.711 246.267C534.586 246.226 534.471 246.16 534.374 246.072C534.277 245.984 534.199 245.877 534.146 245.758C534.092 245.638 534.065 245.508 534.065 245.377C534.065 245.246 534.092 245.116 534.146 244.997C534.199 244.877 534.277 244.77 534.374 244.682C534.471 244.594 534.586 244.528 534.711 244.487C534.835 244.447 534.967 244.433 535.097 244.446H560.866C560.996 244.433 561.128 244.447 561.252 244.487C561.377 244.528 561.492 244.594 561.589 244.682C561.686 244.77 561.764 244.877 561.818 244.997C561.871 245.116 561.898 245.246 561.898 245.377C561.898 245.508 561.871 245.638 561.818 245.758C561.764 245.877 561.686 245.984 561.589 246.072C561.492 246.16 561.377 246.226 561.252 246.267C561.128 246.307 560.996 246.321 560.866 246.308Z" fill="#31BC2E"/>
<path d="M548.791 251.187H508.122C507.891 251.163 507.678 251.054 507.523 250.883C507.368 250.711 507.283 250.487 507.283 250.256C507.283 250.025 507.368 249.801 507.523 249.63C507.678 249.458 507.891 249.349 508.122 249.325H548.751C548.882 249.312 549.013 249.326 549.138 249.366C549.263 249.407 549.377 249.473 549.475 249.561C549.572 249.649 549.65 249.756 549.703 249.876C549.756 249.995 549.784 250.125 549.784 250.256C549.784 250.387 549.756 250.517 549.703 250.636C549.65 250.756 549.572 250.863 549.475 250.951C549.377 251.039 549.263 251.105 549.138 251.146C549.013 251.186 548.882 251.2 548.751 251.187H548.791Z" fill="#31BC2E"/>
<path d="M558.31 256.502H508.121C507.876 256.502 507.64 256.404 507.467 256.231C507.293 256.057 507.196 255.822 507.196 255.576C507.196 255.331 507.293 255.095 507.467 254.922C507.64 254.748 507.876 254.65 508.121 254.65H558.269C558.515 254.65 558.75 254.748 558.924 254.922C559.098 255.095 559.195 255.331 559.195 255.576C559.195 255.822 559.098 256.057 558.924 256.231C558.75 256.404 558.515 256.502 558.269 256.502H558.31Z" fill="#31BC2E"/>
<path d="M529.986 261.863H508.121C507.876 261.863 507.64 261.766 507.467 261.592C507.293 261.418 507.196 261.183 507.196 260.937C507.196 260.692 507.293 260.456 507.467 260.283C507.64 260.109 507.876 260.012 508.121 260.012H529.945C530.191 260.012 530.426 260.109 530.6 260.283C530.774 260.456 530.871 260.692 530.871 260.937C530.871 261.183 530.774 261.418 530.6 261.592C530.426 261.766 530.191 261.863 529.945 261.863H529.986Z" fill="#31BC2E"/>
<path d="M313.285 254.681C313.176 254.679 313.069 254.652 312.973 254.6C312.87 254.546 312.785 254.465 312.724 254.366C312.664 254.267 312.632 254.153 312.631 254.037V237.113C312.634 236.997 312.668 236.884 312.729 236.786C312.79 236.687 312.876 236.607 312.978 236.553C313.081 236.498 313.196 236.472 313.311 236.477C313.427 236.482 313.539 236.517 313.637 236.58L326.084 245.333C326.168 245.396 326.237 245.478 326.284 245.573C326.331 245.667 326.356 245.771 326.355 245.877C326.355 245.982 326.329 246.085 326.277 246.176C326.226 246.268 326.153 246.345 326.063 246.4L313.617 254.57C313.518 254.636 313.403 254.674 313.285 254.681ZM313.929 238.391V252.87L324.574 245.826L313.929 238.391Z" fill="#31BC2E"/>
<path d="M317.561 259.26C314.896 259.26 312.291 258.47 310.076 256.989C307.86 255.509 306.133 253.405 305.114 250.943C304.094 248.481 303.827 245.772 304.347 243.159C304.867 240.545 306.15 238.145 308.034 236.261C309.918 234.376 312.319 233.093 314.933 232.573C317.546 232.053 320.255 232.32 322.717 233.34C325.179 234.36 327.283 236.087 328.763 238.302C330.244 240.518 331.034 243.123 331.034 245.787C331.031 249.36 329.611 252.785 327.085 255.311C324.559 257.837 321.133 259.257 317.561 259.26ZM317.561 233.612C315.153 233.614 312.801 234.33 310.8 235.669C308.799 237.008 307.24 238.91 306.32 241.135C305.4 243.36 305.16 245.808 305.631 248.169C306.102 250.53 307.263 252.698 308.966 254.4C310.669 256.101 312.838 257.26 315.199 257.729C317.561 258.198 320.008 257.956 322.232 257.034C324.456 256.113 326.357 254.552 327.695 252.55C329.032 250.548 329.746 248.195 329.746 245.787C329.74 242.558 328.455 239.463 326.17 237.181C323.886 234.898 320.79 233.615 317.561 233.612Z" fill="#31BC2E"/>
<path d="M450.921 103.734C450.825 103.736 450.732 103.712 450.649 103.664L444.803 100.645L438.957 103.664C438.865 103.721 438.759 103.751 438.65 103.751C438.542 103.751 438.436 103.721 438.343 103.664C438.256 103.599 438.188 103.511 438.147 103.41C438.106 103.309 438.094 103.198 438.112 103.09L439.229 96.5201L434.5 91.9017C434.422 91.8265 434.367 91.7311 434.34 91.6263C434.314 91.5215 434.317 91.4113 434.349 91.3081C434.382 91.2045 434.445 91.1127 434.528 91.0432C434.612 90.9737 434.714 90.9295 434.822 90.9157L441.362 89.9698L444.28 84.0434C444.335 83.9604 444.41 83.8923 444.498 83.8452C444.585 83.7981 444.683 83.7734 444.783 83.7734C444.883 83.7734 444.981 83.7981 445.069 83.8452C445.156 83.8923 445.231 83.9604 445.286 84.0434L448.204 89.9698L454.744 90.9157C454.852 90.9295 454.954 90.9737 455.038 91.0432C455.121 91.1127 455.184 91.2045 455.217 91.3081C455.249 91.4113 455.253 91.5215 455.226 91.6263C455.199 91.7311 455.144 91.8265 455.066 91.9017L450.377 96.5201L451.494 103.02C451.509 103.104 451.505 103.19 451.483 103.272C451.461 103.354 451.421 103.43 451.367 103.496C451.312 103.561 451.244 103.613 451.167 103.649C451.09 103.685 451.006 103.704 450.921 103.704V103.734ZM444.803 99.3575C444.897 99.3573 444.99 99.3779 445.075 99.4179L450.106 102.084L449.1 96.4396C449.084 96.3466 449.091 96.2511 449.121 96.1616C449.151 96.0721 449.202 95.9913 449.271 95.9264L453.366 91.9017L447.751 91.1068C447.658 91.0911 447.569 91.0538 447.492 90.9979C447.415 90.9421 447.352 90.8691 447.309 90.7849L444.773 85.6433L442.237 90.7849C442.194 90.8691 442.131 90.9421 442.054 90.9979C441.977 91.0538 441.888 91.0911 441.795 91.1068L436.13 91.9218L440.225 95.9466C440.294 96.0114 440.345 96.0922 440.375 96.1817C440.405 96.2712 440.412 96.3667 440.396 96.4597L439.39 102.104L444.421 99.438C444.537 99.3735 444.671 99.3454 444.803 99.3575Z" fill="#31BC2E"/>
<path d="M300.456 159.457H276.941C276.725 159.457 276.518 159.371 276.365 159.218C276.212 159.065 276.126 158.858 276.126 158.642V135.128C276.126 134.911 276.212 134.704 276.365 134.551C276.518 134.398 276.725 134.312 276.941 134.312H300.456C300.672 134.313 300.879 134.398 301.032 134.551C301.185 134.704 301.271 134.911 301.271 135.128V158.642C301.271 158.858 301.185 159.065 301.032 159.218C300.879 159.371 300.672 159.457 300.456 159.457ZM277.766 157.817H299.641V135.943H277.766V157.817Z" fill="#31BC2E"/>
<path d="M286.994 154.233C286.882 154.232 286.772 154.208 286.67 154.163C286.568 154.118 286.476 154.053 286.4 153.972L279.97 147.14C279.897 147.062 279.84 146.97 279.802 146.87C279.764 146.77 279.746 146.664 279.749 146.557C279.753 146.45 279.777 146.344 279.821 146.247C279.865 146.149 279.928 146.061 280.006 145.988C280.084 145.914 280.175 145.857 280.275 145.819C280.375 145.781 280.482 145.764 280.589 145.767C280.696 145.77 280.801 145.794 280.899 145.838C280.996 145.882 281.084 145.945 281.158 146.023L286.923 152.151L297.387 138.255C297.519 138.083 297.713 137.97 297.928 137.94C298.143 137.91 298.36 137.965 298.534 138.094C298.62 138.158 298.693 138.238 298.748 138.33C298.802 138.421 298.838 138.523 298.853 138.629C298.868 138.735 298.862 138.843 298.835 138.946C298.808 139.049 298.76 139.146 298.695 139.231L287.648 153.871C287.575 153.968 287.483 154.047 287.377 154.104C287.271 154.162 287.154 154.195 287.034 154.203L286.994 154.233Z" fill="#31BC2E"/>
</g>
<defs>
<clipPath id="clip0_1348_70158">
<rect width="388.386" height="287.768" fill="white" transform="translate(206.267 12)"/>
</clipPath>
</defs>
</svg>
