 <svg
      width="80"
      height="80"
      viewBox="0 0 80 80"
      fill="none"
      xmlns="http://www.w3.org/2000/svg"
      className="flex-grow-0 flex-shrink-0 w-20 h-20 relative"
      preserveAspectRatio="xMidYMid meet"
    >
      <g clip-path="url(#clip0_343_21236)">
        <rect width="80" height="80" rx="40" fill="white" />
        <path
          d="M25.6042 40.0453H58.6494V10.9012C58.6494 8.72111 56.871 7 54.7483 7H31.5707C28.3006 7 25.6042 9.63903 25.6042 12.9665V40.0453V40.0453Z"
          fill="#011716"
        />
        <path
          d="M29.8491 49.3398V60.1828C29.8491 66.1493 34.324 71.0258 39.7741 71.0258C45.2817 71.0258 49.6992 66.1493 49.6992 60.1828V49.3398H29.8491Z"
          fill="#A34321"
        />
        <path d="M32.5455 51.1172L49.6992 60.7554V51.1172H32.5455V51.1172Z" fill="#7A3219" />
        <path
          d="M29.8496 51.1174H50.5029C55.0351 51.1174 58.6494 47.4457 58.6494 42.9709V13.9415H29.7922L29.8496 51.1174Z"
          fill="#A34321"
        />
        <path
          d="M28.4154 42.3399H29.8496V31.4969H28.4154C26.1205 31.4969 24.2273 33.3902 24.2273 35.685V38.2093C24.2847 40.5041 26.1205 42.3399 28.4154 42.3399Z"
          fill="#A34321"
        />
        <path
          d="M43.7334 31.2676C43.7334 31.2676 42.9302 28.8007 40.578 28.5712C38.2259 28.3417 36.7343 30.1202 36.7343 30.1202C36.7343 30.1202 37.1358 32.3577 40.0043 32.6445C42.8155 32.874 43.7334 31.2676 43.7334 31.2676Z"
          fill="white"
        />
        <path
          d="M37.8814 30.2921C37.7667 31.5543 38.6846 32.7017 39.9467 32.8738C41.2089 32.9885 42.3563 32.0706 42.5284 30.8084C42.6431 29.5463 41.7252 28.3989 40.4631 28.2268C39.2009 28.0547 38.0535 28.9726 37.8814 30.2921Z"
          fill="black"
        />
        <path
          d="M43.7334 31.2671C43.7334 31.2671 42.9876 28.6854 40.578 28.5707C38.1685 28.3986 36.7343 30.1197 36.7343 30.1197"
          stroke="black"
          stroke-width="0.285876"
          stroke-miterlimit="10"
          stroke-linecap="round"
          stroke-linejoin="round"
        />
        <path
          d="M50.2159 31.2676C50.2159 31.2676 50.9617 28.8007 53.0844 28.5712C55.2071 28.3417 56.584 30.1202 56.584 30.1202C56.584 30.1202 56.1824 32.3577 53.6008 32.6445C51.0191 32.874 50.2159 31.2676 50.2159 31.2676Z"
          fill="white"
        />
        <path
          d="M55.4941 30.2921C55.6089 31.5543 54.7484 32.7017 53.6009 32.8738C52.4535 32.9885 51.4208 32.0706 51.2487 30.8084C51.134 29.5463 51.9946 28.3989 53.142 28.2268C54.2894 28.0547 55.3794 28.9726 55.4941 30.2921Z"
          fill="black"
        />
        <path
          d="M50.2159 31.2671C50.2159 31.2671 50.9043 28.6854 53.0844 28.5707C55.2645 28.3986 56.584 30.1197 56.584 30.1197"
          stroke="black"
          stroke-width="0.272336"
          stroke-miterlimit="10"
          stroke-linecap="round"
          stroke-linejoin="round"
        />
        <path
          d="M40.0038 22.5482C40.0038 22.5482 37.8238 22.2614 36.3321 22.7777C35.4142 23.0645 35.1274 24.1546 36.0453 24.6709C36.619 25.0151 38.3401 25.302 39.4875 25.4741C42.356 25.8183 43.9624 24.9578 43.9624 24.2693C43.9624 23.294 41.5528 22.663 40.0038 22.5482Z"
          fill="#011716"
        />
        <path
          d="M53.83 22.5478C53.83 22.5478 55.838 22.3183 57.2149 22.8346C58.0755 23.1788 58.3049 24.2115 57.5018 24.7278C56.9854 25.0147 55.4364 25.3015 54.3464 25.4163C51.7647 25.7031 50.2731 24.8426 50.2731 24.0968C50.2731 23.1788 52.4532 22.6051 53.83 22.5478Z"
          fill="#011716"
        />
        <path
          d="M29.2183 31.4974V20.9413H31.972V16.8106H58.7065V10.4425H29.2183V20.9413"
          fill="#011716"
        />
        <path
          d="M42.184 39.9871C42.184 42.5687 44.3067 44.6914 46.8884 44.6914C49.47 44.6914 51.5928 42.5687 51.5928 39.9871"
          fill="white"
        />
        <path
          d="M46.7166 33.3331L48.7246 35.2263C50.4457 37.0622 48.3229 37.2917 47.2329 37.2343L46.6019 37.1196"
          fill="#7A3219"
        />
        <path
          d="M63.3366 61.0427C58.2306 62.8785 55.5916 68.5008 57.4274 73.6067C58.1159 75.5573 58.6896 77.049 58.747 77.2211L72.86 111.07C74.8106 115.774 80.146 118.069 84.9078 116.29C89.8416 114.454 92.3085 108.889 90.4153 104.013L75.7859 66.6649C73.8353 61.7885 68.3278 59.2642 63.3366 61.0427Z"
          fill="#23408B"
        />
        <path
          d="M15.7157 61.0427C20.8216 62.8785 23.4607 68.5008 21.6248 73.6067C20.9364 75.5573 20.3627 77.049 20.3053 77.2211L6.19222 111.07C4.24163 115.774 -1.0938 118.069 -5.85553 116.29C-10.7894 114.454 -13.2563 108.889 -11.3631 104.013L3.26635 66.6649C5.21694 61.7885 10.7245 59.2642 15.7157 61.0427Z"
          fill="#23408B"
        />
        <path
          d="M2.63874 143.943L9.00689 63.854C9.00689 62.0182 10.4985 60.5265 12.3917 60.5265L33.5119 60.5264L39.5771 65.6545L45.6844 60.5264L65.0576 60.5265C67.4098 60.5265 69.3604 62.4198 69.3604 64.8293V144H2.63874V143.943Z"
          fill="#2E55B9"
        />
        <path
          d="M34.0369 67.2965L39.4871 72.3451L45.5684 65.4033L39.4871 64.4854L34.0369 67.2965Z"
          fill="white"
        />
        <path
          d="M38.3969 71.3115L32.4304 121.109L39.659 129.37L46.1992 121.052L40.4048 71.082L38.3969 71.3115Z"
          fill="white"
        />
        <path
          d="M29.9065 57.0264L39.4873 64.4845L33.0619 72.3442L23.6107 60.522L29.9065 57.0264Z"
          fill="#ABBAE3"
        />
        <path
          d="M49.7573 57.3135L39.488 64.4848L45.9135 72.3445L55.767 60.5445L49.7573 57.3135Z"
          fill="#ABBAE3"
        />
      </g>
      <defs>
        <clippath id="clip0_343_21236">
          <rect width="80" height="80" rx="40" fill="white" />
        </clippath>
      </defs>
    </svg>