<svg width="72" height="72" viewBox="0 0 72 72" fill="none" xmlns="http://www.w3.org/2000/svg">
<rect width="72" height="72" rx="36" fill="#367AFE"/>
<path d="M52.4875 33.0001H52.1375C52.1375 33.1001 52.1375 33.2001 52.1375 33.2876V44.7501C52.1375 44.9987 52.0387 45.2372 51.8629 45.413C51.6871 45.5888 51.4486 45.6876 51.2 45.6876C50.9513 45.6876 50.7129 45.5888 50.5371 45.413C50.3613 45.2372 50.2625 44.9987 50.2625 44.7501V38.0001H49.75V44.7501C49.7578 44.8867 49.736 45.0234 49.6861 45.1508C49.6362 45.2782 49.5593 45.3933 49.4608 45.4882C49.3623 45.5832 49.2444 45.6558 49.1153 45.7009C48.9861 45.7461 48.8487 45.7629 48.7125 45.7501C48.4897 45.7296 48.2816 45.6302 48.1257 45.4697C47.9698 45.3093 47.8765 45.0983 47.8625 44.8751C47.8562 44.7668 47.8562 44.6583 47.8625 44.5501V33.0001H47.5125C47.5125 33.0876 47.5125 33.1751 47.5125 33.2626V37.3751C47.5309 37.4881 47.5252 37.6039 47.4958 37.7146C47.4663 37.8253 47.4138 37.9286 47.3417 38.0175C47.2695 38.1065 47.1793 38.1793 47.0771 38.2309C46.9748 38.2826 46.8628 38.3121 46.7483 38.3174C46.6339 38.3227 46.5196 38.3038 46.413 38.2618C46.3064 38.2199 46.2098 38.1558 46.1297 38.0739C46.0496 37.992 45.9877 37.8941 45.9481 37.7866C45.9085 37.679 45.8921 37.5644 45.9 37.4501V33.0001C45.8983 32.6413 45.9681 32.2857 46.1054 31.9542C46.2427 31.6227 46.4447 31.3219 46.6995 31.0694C46.9544 30.8168 47.2571 30.6176 47.5898 30.4834C47.9226 30.3491 48.2787 30.2826 48.6375 30.2876H51.3125C51.6814 30.2772 52.0485 30.3422 52.3913 30.4787C52.7342 30.6151 53.0456 30.82 53.3066 31.081C53.5675 31.3419 53.7725 31.6533 53.9089 31.9962C54.0453 32.3391 54.1103 32.7062 54.1 33.0751V37.3876C54.1068 37.5144 54.0842 37.6411 54.0339 37.7578C53.9837 37.8744 53.9073 37.9779 53.8105 38.0602C53.7137 38.1425 53.5992 38.2013 53.476 38.232C53.3527 38.2628 53.2241 38.2647 53.1 38.2376C52.9173 38.1939 52.7558 38.0872 52.6438 37.9364C52.5318 37.7856 52.4765 37.6001 52.4875 37.4126C52.4875 36.0376 52.4875 34.6626 52.4875 33.2876V33.0001Z" fill="#F2F2F2"/>
<path d="M22.8375 37.9875H22.3875C22.3818 38.0916 22.3818 38.1959 22.3875 38.3C22.3875 40.4125 22.3875 42.525 22.3875 44.6375C22.399 44.7794 22.3794 44.9221 22.3299 45.0556C22.2804 45.1891 22.2023 45.3102 22.101 45.4102C21.9998 45.5103 21.8778 45.587 21.7437 45.6349C21.6096 45.6828 21.4667 45.7007 21.325 45.6875C21.1115 45.6602 20.9136 45.5612 20.7638 45.4068C20.6139 45.2524 20.5209 45.0517 20.5 44.8375V33.2625C20.5 32.95 20.5 32.95 20.125 33.025V37.4375C20.1329 37.5867 20.0969 37.7349 20.0214 37.8638C19.9458 37.9927 19.834 38.0966 19.7 38.1625C19.5783 38.2391 19.4375 38.2797 19.2937 38.2797C19.1499 38.2797 19.0091 38.2391 18.8875 38.1625C18.7664 38.0973 18.6659 37.9996 18.5974 37.8803C18.5289 37.761 18.4952 37.625 18.5 37.4875C18.5 35.925 18.5 34.375 18.5 32.8125C18.538 32.1403 18.8306 31.5078 19.3181 31.0435C19.8057 30.5791 20.4517 30.3178 21.125 30.3125H24.0625C24.7472 30.3218 25.402 30.5945 25.8909 31.0741C26.3797 31.5536 26.665 32.2031 26.6875 32.8875C26.6875 34.425 26.6875 35.95 26.6875 37.4875C26.6875 37.6997 26.6032 37.9032 26.4531 38.0532C26.3031 38.2032 26.0996 38.2875 25.8875 38.2875C25.6753 38.2875 25.4718 38.2032 25.3218 38.0532C25.1717 37.9032 25.0875 37.6997 25.0875 37.4875C25.0875 36.0875 25.0875 34.7 25.0875 33.3125V33H24.75V44.75C24.7587 44.8937 24.7342 45.0375 24.6784 45.1702C24.6226 45.3029 24.537 45.421 24.4282 45.5153C24.3194 45.6095 24.1903 45.6775 24.051 45.7139C23.9118 45.7502 23.766 45.7541 23.625 45.725C23.3955 45.6797 23.1909 45.5513 23.0502 45.3645C22.9095 45.1777 22.8426 44.9455 22.8625 44.7125V37.9875H22.8375Z" fill="#F2F2F2"/>
<path d="M44.75 23.0375C44.75 22.4875 44.75 22.0125 44.75 21.525C44.7411 21.4543 44.7474 21.3825 44.7685 21.3145C44.7896 21.2464 44.825 21.1836 44.8724 21.1303C44.9197 21.0771 44.9779 21.0345 45.043 21.0056C45.1082 20.9767 45.1787 20.962 45.25 20.9625C45.3207 20.9639 45.3903 20.9799 45.4545 21.0095C45.5187 21.0391 45.576 21.0816 45.623 21.1344C45.67 21.1873 45.7055 21.2492 45.7273 21.3165C45.7492 21.3837 45.7569 21.4547 45.75 21.525V24.1125C45.7579 24.1851 45.7494 24.2584 45.7252 24.3272C45.701 24.396 45.6617 24.4585 45.6101 24.5101C45.5585 24.5617 45.496 24.6011 45.4272 24.6253C45.3584 24.6495 45.285 24.6579 45.2125 24.65H42.5625C42.4918 24.6589 42.42 24.6526 42.3519 24.6315C42.2838 24.6104 42.2211 24.575 42.1678 24.5277C42.1145 24.4803 42.072 24.4221 42.0431 24.357C42.0141 24.2919 41.9994 24.2213 42 24.15C42 23.85 42.225 23.6625 42.575 23.6625H43.825V23.5875L43.675 23.5C41.2145 21.5064 38.0817 20.5352 34.925 20.7875C31.9695 20.9801 29.1825 22.2316 27.075 24.3125C26.9819 24.4103 26.8659 24.4833 26.7375 24.525C26.6372 24.5584 26.5284 24.5553 26.4301 24.5165C26.3318 24.4776 26.2504 24.4054 26.2 24.3125C26.1355 24.2157 26.1088 24.0986 26.125 23.9834C26.1411 23.8682 26.1989 23.7629 26.2875 23.6875C26.7558 23.244 27.2482 22.8267 27.7625 22.4375C30.1961 20.6257 33.1677 19.684 36.2007 19.7633C39.2336 19.8426 42.152 20.9385 44.4875 22.875L44.75 23.0375Z" fill="#F2F2F2"/>
<path d="M27.125 49.9625V51.15C27.125 51.275 27.125 51.4 27.125 51.525C27.1219 51.6533 27.0695 51.7754 26.9787 51.8662C26.888 51.9569 26.7658 52.0093 26.6375 52.0125C26.5708 52.0125 26.5048 51.9992 26.4433 51.9733C26.3818 51.9474 26.3261 51.9094 26.2795 51.8617C26.2329 51.8139 26.1963 51.7573 26.172 51.6952C26.1476 51.6331 26.1359 51.5667 26.1375 51.5V48.8625C26.1304 48.7917 26.1384 48.7202 26.1611 48.6527C26.1839 48.5853 26.2207 48.5235 26.2692 48.4714C26.3177 48.4193 26.3768 48.3782 26.4425 48.3508C26.5081 48.3234 26.5789 48.3104 26.65 48.3125C27.5375 48.3125 28.4375 48.3125 29.325 48.3125C29.3949 48.3065 29.4653 48.3161 29.531 48.3406C29.5968 48.3651 29.6563 48.4038 29.7053 48.454C29.7543 48.5042 29.7915 48.5646 29.8144 48.6309C29.8373 48.6972 29.8452 48.7678 29.8375 48.8375C29.8345 48.9055 29.8176 48.9721 29.7879 49.0333C29.7582 49.0945 29.7163 49.149 29.6649 49.1935C29.6134 49.2379 29.5533 49.2714 29.4885 49.2919C29.4236 49.3123 29.3552 49.3194 29.2875 49.3125H28.0375L28.1625 49.45C30.1079 50.9989 32.481 51.915 34.9625 52.075C36.7353 52.2073 38.5158 51.9565 40.1831 51.3397C41.8503 50.7228 43.3653 49.7543 44.625 48.5C44.8625 48.275 45.05 48.225 45.275 48.325C45.3744 48.3666 45.4555 48.4425 45.5037 48.5388C45.5518 48.6351 45.5639 48.7455 45.5375 48.85C45.5145 48.9676 45.458 49.0761 45.375 49.1625C43.3031 51.2286 40.6033 52.5477 37.7 52.9125C35.8558 53.1924 33.9733 53.0835 32.1736 52.5927C30.3739 52.1019 28.6968 51.24 27.25 50.0625L27.125 49.9625Z" fill="#F2F2F2"/>
<path d="M51.825 28.1249C51.8275 28.474 51.7262 28.816 51.5341 29.1075C51.3419 29.399 51.0675 29.6268 50.7457 29.7621C50.4239 29.8975 50.0691 29.9342 49.7264 29.8676C49.3837 29.801 49.0685 29.6341 48.8207 29.3881C48.573 29.1421 48.4039 28.8281 48.3348 28.4859C48.2658 28.1437 48.3 27.7886 48.433 27.4659C48.566 27.1431 48.7919 26.8671 49.082 26.6728C49.3721 26.4786 49.7134 26.3749 50.0625 26.3749C50.2934 26.3733 50.5223 26.4173 50.736 26.5045C50.9498 26.5917 51.1442 26.7204 51.308 26.883C51.4719 27.0457 51.6019 27.2392 51.6906 27.4523C51.7793 27.6655 51.825 27.8941 51.825 28.1249Z" fill="#F2F2F2"/>
<path d="M22.6626 29.875C22.1985 29.875 21.7533 29.6906 21.4252 29.3624C21.097 29.0342 20.9126 28.5891 20.9126 28.125C20.9126 27.6609 21.097 27.2158 21.4252 26.8876C21.7533 26.5594 22.1985 26.375 22.6626 26.375C23.1267 26.375 23.5718 26.5594 23.9 26.8876C24.2282 27.2158 24.4126 27.6609 24.4126 28.125C24.4126 28.5891 24.2282 29.0342 23.9 29.3624C23.5718 29.6906 23.1267 29.875 22.6626 29.875Z" fill="#F2F2F2"/>
</svg>
