<svg width="558" height="396" viewBox="0 0 558 396" fill="none" xmlns="http://www.w3.org/2000/svg">
<g clip-path="url(#clip0_2739_49339)">
<g opacity="0.58">
<path opacity="0.47" d="M558 0H0V385H558V0Z" fill="#F8C556"/>
</g>
<mask id="mask0_2739_49339" style="mask-type:luminance" maskUnits="userSpaceOnUse" x="2" y="77" width="583" height="332">
<path d="M584.35 77.39H2.79004V408.04H584.35V77.39Z" fill="white"/>
</mask>
<g mask="url(#mask0_2739_49339)">
<mask id="mask1_2739_49339" style="mask-type:luminance" maskUnits="userSpaceOnUse" x="2" y="-87" width="556" height="491">
<path d="M557.91 -86.01H2.79004V403.8H557.91V-86.01Z" fill="white"/>
</mask>
<g mask="url(#mask1_2739_49339)">
<path d="M648.9 387H-89.7002C-89.9654 387 -90.2198 386.895 -90.4073 386.707C-90.5948 386.52 -90.7002 386.265 -90.7002 386C-90.7002 385.735 -90.5948 385.48 -90.4073 385.293C-90.2198 385.105 -89.9654 385 -89.7002 385H648.9C649.165 385 649.419 385.105 649.607 385.293C649.794 385.48 649.9 385.735 649.9 386C649.9 386.265 649.794 386.52 649.607 386.707C649.419 386.895 649.165 387 648.9 387Z" fill="#47332A"/>
<mask id="mask2_2739_49339" style="mask-type:luminance" maskUnits="userSpaceOnUse" x="21" y="81" width="484" height="306">
<path d="M504.46 81.27H21V386.61H504.46V81.27Z" fill="white"/>
</mask>
<g mask="url(#mask2_2739_49339)">
<path d="M344.26 116.63H367.76C371.855 116.63 375.782 118.257 378.678 121.152C381.573 124.048 383.2 127.975 383.2 132.07V165.74H334.09V126.8C334.09 124.103 335.161 121.516 337.069 119.609C338.976 117.701 341.563 116.63 344.26 116.63Z" fill="#051616"/>
<mask id="mask3_2739_49339" style="mask-type:luminance" maskUnits="userSpaceOnUse" x="21" y="52" width="468" height="391">
<path d="M488.25 52.47H21V442.09H488.25V52.47Z" fill="white"/>
</mask>
<g mask="url(#mask3_2739_49339)">
<path d="M315.95 385.87L314.46 396.59L290.52 568.89H282.1L303.49 396.59L304.82 385.87H315.95Z" fill="#0F2C2A"/>
<path d="M306.59 276.81L210.59 252.21L203.59 272.45C203.59 272.45 263.47 290.2 300.84 300.45C306.77 302.07 314.38 296.73 315.52 290.69C316.5 285 312.24 277.89 306.59 276.81Z" fill="#98492F"/>
<path d="M314.39 294.65L326.46 235L303 230.77L290.53 287.77C289.959 290.35 290.433 293.051 291.848 295.282C293.263 297.514 295.503 299.095 298.08 299.68C303.28 300.86 312.93 299.77 314.39 294.65Z" fill="#98492F"/>
<path d="M333.42 264.18L294.56 254.82L305 211.42C306.244 206.267 309.484 201.818 314.007 199.053C318.529 196.287 323.965 195.43 329.12 196.67C334.271 197.915 338.717 201.153 341.483 205.673C344.248 210.194 345.107 215.627 343.87 220.78L333.42 264.18Z" fill="#31BC2E"/>
<path d="M450.16 270.83L429 213.73L406.84 222.5L426.22 277.5C427.091 279.995 428.916 282.044 431.294 283.199C433.672 284.353 436.41 284.519 438.91 283.66C444 282 451.61 276 450.16 270.83Z" fill="#98492F"/>
<path d="M332.999 196.11H408.569V306.9C408.571 308.682 408.221 310.448 407.539 312.095C406.858 313.742 405.858 315.238 404.598 316.498C403.337 317.759 401.841 318.758 400.194 319.44C398.547 320.121 396.782 320.471 394.999 320.47H335.469C333.687 320.471 331.922 320.121 330.275 319.44C328.628 318.758 327.131 317.759 325.871 316.498C324.611 315.238 323.611 313.742 322.93 312.095C322.248 310.448 321.898 308.682 321.899 306.9V207.22C321.899 204.275 323.069 201.451 325.15 199.368C327.231 197.284 330.055 196.113 332.999 196.11Z" fill="#31BC2E"/>
<path d="M410.749 264.45L447.749 249.27L430.749 207.97C428.734 203.068 424.855 199.167 419.965 197.124C415.075 195.08 409.574 195.061 404.669 197.07C399.766 199.084 395.863 202.962 393.817 207.852C391.771 212.742 391.751 218.245 393.759 223.15L410.749 264.45Z" fill="#31BC2E"/>
<path d="M377.14 179.05V194.61C377.14 203.21 370.75 210.18 362.86 210.18C354.97 210.18 348.59 203.18 348.59 194.61V179.05H377.14Z" fill="#98492F"/>
<path d="M373.27 181.63L348.59 195.45V181.63H373.27Z" fill="#733623"/>
<path d="M334.09 128.22H377.09V183.68H355.27C349.653 183.68 344.265 181.449 340.293 177.477C336.321 173.505 334.09 168.117 334.09 162.5V128.22Z" fill="#98492F"/>
<path d="M377.14 153.41H377.36C378.384 153.41 379.398 153.612 380.345 154.004C381.291 154.396 382.151 154.97 382.875 155.695C383.599 156.419 384.174 157.279 384.566 158.225C384.958 159.171 385.16 160.186 385.16 161.21C385.16 163.279 384.338 165.263 382.875 166.725C381.412 168.188 379.428 169.01 377.36 169.01H377.14V153.41Z" fill="#98492F"/>
<path d="M357.189 153.05C357.189 153.05 358.379 149.49 361.739 149.15C362.764 149.081 363.792 149.244 364.744 149.629C365.697 150.013 366.55 150.609 367.239 151.37C367.239 151.37 366.629 154.61 362.559 155.02C358.489 155.43 357.189 153.05 357.189 153.05Z" fill="white"/>
<mask id="mask4_2739_49339" style="mask-type:luminance" maskUnits="userSpaceOnUse" x="357" y="149" width="11" height="7">
<path d="M357.189 153.05C357.189 153.05 358.379 149.49 361.739 149.15C362.764 149.081 363.792 149.244 364.744 149.629C365.697 150.013 366.55 150.609 367.239 151.37C367.239 151.37 366.629 154.61 362.559 155.02C358.489 155.43 357.189 153.05 357.189 153.05Z" fill="white"/>
</mask>
<g mask="url(#mask4_2739_49339)">
<path d="M365.57 151.66C365.638 152.321 365.508 152.988 365.197 153.575C364.885 154.163 364.407 154.645 363.822 154.96C363.237 155.276 362.571 155.411 361.909 155.348C361.248 155.285 360.619 155.027 360.104 154.607C359.589 154.187 359.21 153.624 359.015 152.988C358.82 152.353 358.818 151.674 359.009 151.037C359.2 150.4 359.576 149.834 360.089 149.411C360.601 148.988 361.228 148.727 361.89 148.66C362.775 148.571 363.66 148.836 364.35 149.399C365.04 149.961 365.479 150.774 365.57 151.66Z" fill="black"/>
</g>
<path d="M357.189 153.05C357.189 153.05 358.259 149.37 361.739 149.15C362.763 149.095 363.786 149.265 364.736 149.649C365.687 150.032 366.541 150.62 367.239 151.37" stroke="black" stroke-width="0.55" stroke-linecap="round" stroke-linejoin="round"/>
<path d="M347.88 153.05C347.88 153.05 346.8 149.49 343.76 149.15C342.81 149.097 341.861 149.271 340.992 149.657C340.123 150.043 339.358 150.63 338.76 151.37C338.984 152.349 339.518 153.231 340.281 153.884C341.044 154.538 341.997 154.929 343 155C346.71 155.43 347.88 153.05 347.88 153.05Z" fill="white"/>
<mask id="mask5_2739_49339" style="mask-type:luminance" maskUnits="userSpaceOnUse" x="338" y="149" width="10" height="7">
<path d="M347.88 153.05C347.88 153.05 346.8 149.49 343.76 149.15C342.81 149.097 341.861 149.271 340.992 149.657C340.123 150.043 339.358 150.63 338.76 151.37C338.984 152.349 339.518 153.231 340.281 153.884C341.044 154.538 341.997 154.929 343 155C346.71 155.43 347.88 153.05 347.88 153.05Z" fill="white"/>
</mask>
<g mask="url(#mask5_2739_49339)">
<path d="M340.28 151.66C340.167 152.508 340.389 153.366 340.899 154.053C341.408 154.74 342.165 155.202 343.01 155.34C343.427 155.367 343.845 155.31 344.241 155.173C344.636 155.037 345 154.822 345.311 154.543C345.622 154.263 345.874 153.924 346.052 153.546C346.231 153.168 346.332 152.758 346.35 152.34C346.462 151.492 346.24 150.634 345.731 149.947C345.221 149.26 344.464 148.798 343.62 148.66C343.202 148.633 342.784 148.69 342.389 148.827C341.993 148.963 341.63 149.178 341.319 149.457C341.007 149.737 340.755 150.076 340.577 150.454C340.398 150.832 340.297 151.242 340.28 151.66Z" fill="black"/>
</g>
<path d="M347.88 153.05C347.88 153.05 346.88 149.37 343.76 149.15C342.811 149.105 341.865 149.283 340.997 149.668C340.129 150.054 339.363 150.636 338.76 151.37" stroke="black" stroke-width="0.52" stroke-linecap="round" stroke-linejoin="round"/>
<path d="M362.539 140.58C364.314 140.361 366.115 140.473 367.849 140.91C369.169 141.35 369.569 142.85 368.269 143.61C366.679 144.215 365.014 144.598 363.319 144.75C359.209 145.25 356.909 144.05 356.909 143.04C356.899 141.62 360.349 140.7 362.539 140.58Z" fill="#051616"/>
<path d="M342.68 140.57C341.052 140.396 339.406 140.552 337.84 141.03C337.56 141.106 337.309 141.262 337.117 141.478C336.925 141.695 336.8 141.963 336.757 142.249C336.715 142.536 336.757 142.828 336.878 143.091C336.999 143.354 337.194 143.576 337.44 143.73C338.881 144.288 340.398 144.625 341.94 144.73C345.67 145.12 347.78 143.88 347.79 142.87C347.81 141.48 344.68 140.64 342.68 140.57Z" fill="#051616"/>
<path d="M378.01 153.41V139.41H373.91V133.94H334.09V125.51H378.01V139.41" fill="#051616"/>
<path d="M359.44 165.62C359.44 167.418 358.726 169.143 357.454 170.414C356.183 171.686 354.458 172.4 352.66 172.4C350.862 172.4 349.137 171.686 347.866 170.414C346.594 169.143 345.88 167.418 345.88 165.62" fill="white"/>
<path d="M352.889 156.09L349.989 158.83C347.529 161.45 350.579 161.83 352.109 161.7L353.049 161.53" fill="#733623"/>
<path d="M357.61 284.18L326.92 289.05C321.2 290.02 316.075 293.157 312.61 297.81L308.37 303.32C307.897 303.984 307.564 304.738 307.393 305.535C307.221 306.333 307.213 307.156 307.37 307.956C307.528 308.757 307.846 309.516 308.307 310.189C308.768 310.862 309.361 311.434 310.05 311.87L366 302.08L357.61 284.18Z" fill="#98492F"/>
<path d="M422.569 375.77H306.939V386.49H422.569V375.77Z" fill="#31BC2E"/>
<path d="M321.9 317.8L257.71 339.8C252.08 341.707 246.976 344.907 242.807 349.145C238.639 353.383 235.523 358.539 233.71 364.2L223.92 454L265.17 458.89L281.05 371.57L321.9 317.8Z" fill="#0F2C2A"/>
<path d="M400.879 317.8C400.879 317.8 414.639 361.41 382.599 374.63C382.599 374.63 368.779 381.34 308.419 378.04L313.779 444.52L275.329 448.75L261.599 374.6C259.284 368.371 259.261 361.521 261.532 355.276C263.804 349.03 268.223 343.796 273.999 340.51L327.569 319.89L400.879 317.8Z" fill="#1C4A45"/>
<path d="M388.06 386.49L389.55 397.21L413.48 569.5H421.91L400.52 397.21L399.19 386.49H388.06Z" fill="#0F2C2A"/>
<path d="M430.489 313.78L431.229 319.17L465.929 570.89H456.649L416.989 313.78H430.489Z" fill="#0F2C2A"/>
<path d="M101.02 313.28L100.28 318.68L65.5098 570.89H74.8098L114.55 313.28H101.02Z" fill="#0F2C2A"/>
<path d="M167.54 292.65L166.79 298.05L132.02 550.26H141.32L181.06 292.65H167.54Z" fill="#0F2C2A"/>
<path d="M29.3494 319.82L470.149 319.82V307.85L29.3494 307.85V319.82Z" fill="#2E5A1F"/>
<path d="M435.48 262.44L339.35 286.71L342.64 306.71C342.64 306.71 403.92 294.86 441.64 286.01C447.64 284.61 451.76 276.27 449.88 270.42C448.12 264.92 441 260.69 435.48 262.44Z" fill="#98492F"/>
<path d="M253.51 284.26H127.33C125.66 284.258 124.038 283.698 122.723 282.669C121.407 281.64 120.473 280.201 120.07 278.58L101.22 202.49C100.947 201.388 100.928 200.238 101.165 199.128C101.402 198.017 101.889 196.975 102.589 196.081C103.288 195.187 104.182 194.463 105.203 193.966C106.224 193.469 107.344 193.21 108.48 193.21H238.15C239.877 193.209 241.551 193.806 242.887 194.9C244.224 195.994 245.14 197.517 245.48 199.21L260.84 275.3C261.059 276.386 261.034 277.507 260.767 278.582C260.501 279.657 259.999 280.659 259.297 281.516C258.596 282.374 257.713 283.064 256.712 283.539C255.711 284.013 254.617 284.26 253.51 284.26Z" fill="#31BC2E"/>
<path d="M196.99 249.06L192.35 284.26H183.1L196.99 249.06Z" fill="#458430"/>
<path d="M193.41 245C193.935 244.999 194.453 245.119 194.925 245.349C195.396 245.578 195.81 245.913 196.133 246.327C196.456 246.74 196.68 247.222 196.789 247.736C196.897 248.249 196.888 248.781 196.76 249.29L184.41 299C184.263 299.398 184.215 299.826 184.27 300.247C184.324 300.668 184.478 301.07 184.721 301.418C184.963 301.766 185.286 302.051 185.662 302.248C186.038 302.445 186.455 302.549 186.88 302.55H202.1C202.8 302.55 203.471 302.828 203.966 303.323C204.462 303.818 204.74 304.49 204.74 305.19C204.74 305.89 204.462 306.562 203.966 307.057C203.471 307.552 202.8 307.83 202.1 307.83H146.41C145.71 307.83 145.038 307.552 144.543 307.057C144.048 306.562 143.77 305.89 143.77 305.19V302.8C143.766 302.457 143.83 302.117 143.96 301.8L158.61 247.53C158.806 246.796 159.238 246.148 159.84 245.685C160.442 245.222 161.18 244.971 161.94 244.97L193.41 245Z" fill="#1C4A45"/>
</g>
</g>
</g>
</g>
</g>
<defs>
<clipPath id="clip0_2739_49339">
<rect width="558" height="396" fill="white"/>
</clipPath>
</defs>
</svg>
