<svg width="560" height="335" viewBox="0 0 560 335" fill="none" xmlns="http://www.w3.org/2000/svg">
    <g clip-path="url(#clip0_2739_49749)">
    <g opacity="0.7">
    <path opacity="0.47" d="M559.737 -3.05176e-05H0.000976562V320.691H559.737V-3.05176e-05Z" fill="#6FF8DC"/>
    </g>
    <path d="M405.367 99.6835H493.107C493.103 96.3021 492.19 92.9838 490.464 90.0763C488.737 87.1689 486.26 84.7793 483.293 83.1579C480.326 81.5365 476.977 80.743 473.597 80.8605C470.218 80.978 466.932 82.0022 464.085 83.8257C462.401 81.3122 460.136 79.241 457.483 77.7874C454.829 76.3338 451.865 75.5404 448.84 75.4744C445.815 75.4084 442.818 76.0716 440.104 77.408C437.39 78.7444 435.037 80.7147 433.245 83.1524C430.375 81.5856 427.148 80.7923 423.879 80.8503C420.61 80.9083 417.413 81.8156 414.601 83.4831C411.788 85.1506 409.459 87.521 407.84 90.3613C406.221 93.2017 405.369 96.4143 405.367 99.6835Z" fill="white"/>
    <path d="M83.2286 100.163H148.217C148.223 97.6554 147.554 95.192 146.279 93.0323C145.004 90.8726 143.171 89.0964 140.972 87.8905C138.772 86.6846 136.289 86.0936 133.783 86.1797C131.276 86.2657 128.839 87.0256 126.728 88.3794C125.481 86.5152 123.804 84.979 121.837 83.9008C119.871 82.8226 117.673 82.2343 115.431 82.1855C113.189 82.1368 110.968 82.6292 108.957 83.6209C106.945 84.6126 105.202 86.0746 103.876 87.8828C101.748 86.7201 99.3538 86.1319 96.9294 86.1762C94.505 86.2204 92.134 86.8956 90.05 88.1351C87.966 89.3746 86.241 91.1357 85.0448 93.2449C83.8486 95.3541 83.2227 97.7386 83.2286 100.163Z" fill="white"/>
    <path d="M274.272 288.874C274.272 289.228 273.708 289.523 273.018 289.523H51.7668C51.0766 289.523 50.5127 289.228 50.5127 288.874V275.491C50.5127 275.138 51.0766 274.843 51.7668 274.843H273.018C273.708 274.843 274.272 275.138 274.272 275.491V288.874Z" fill="#2A393F"/>
    <path d="M52.9014 293.1H47.363C47.005 293.1 46.7148 293.39 46.7148 293.748V309.235C46.7148 309.593 47.005 309.883 47.363 309.883H52.9014C53.2593 309.883 53.5495 309.593 53.5495 309.235V293.748C53.5495 293.39 53.2593 293.1 52.9014 293.1Z" fill="#2A393F"/>
    <path d="M219.485 290.97H105.299C104.941 290.97 104.65 291.26 104.65 291.618V305.001C104.65 305.359 104.941 305.65 105.299 305.65H219.485C219.843 305.65 220.133 305.359 220.133 305.001V291.618C220.133 291.26 219.843 290.97 219.485 290.97Z" fill="#2A393F"/>
    <path d="M474.489 275.197H424.172V306.811H474.489V275.197Z" fill="#050607"/>
    <path d="M424.172 176.885V282.528H459.221C468.479 282.528 470.23 290.533 470.23 306.803H515.295V238.969C515.295 222.194 503.511 199.914 503.511 199.914C500.34 194.407 495.525 190.03 489.741 187.398C479.994 182.895 424.172 174.377 424.172 176.885Z" fill="#FBCB4D"/>
    <path d="M415.366 161.457H46.9675C46.6095 161.457 46.3193 161.747 46.3193 162.105V279.961C46.3193 280.319 46.6095 280.609 46.9675 280.609H415.366C415.724 280.609 416.014 280.319 416.014 279.961V162.105C416.014 161.747 415.724 161.457 415.366 161.457Z" fill="#9AEFEA"/>
    <path d="M411.158 166.263H51.1677C50.8097 166.263 50.5195 166.553 50.5195 166.911V272.116C50.5195 272.474 50.8097 272.764 51.1677 272.764H411.158C411.516 272.764 411.806 272.474 411.806 272.116V166.911C411.806 166.553 411.516 166.263 411.158 166.263Z" fill="#33C3C4"/>
    <path d="M411.806 172.559H50.5195V178.232H411.806V172.559Z" fill="#359095"/>
    <path d="M411.806 187.263H50.5195V192.936H411.806V187.263Z" fill="#359095"/>
    <path d="M411.806 201.968H50.5195V207.641H411.806V201.968Z" fill="#359095"/>
    <path d="M411.806 216.673H50.5195V222.346H411.806V216.673Z" fill="#359095"/>
    <path d="M411.806 231.377H50.5195V237.05H411.806V231.377Z" fill="#359095"/>
    <path d="M411.806 246.082H50.5195V251.755H411.806V246.082Z" fill="#359095"/>
    <path d="M411.806 260.786H50.5195V266.46H411.806V260.786Z" fill="#359095"/>
    <path d="M415.191 273.353C415.191 273.513 414.947 273.639 414.644 273.639H47.6588C47.3642 273.639 47.1201 273.513 47.1201 273.353V270.483C47.1201 270.323 47.3642 270.197 47.6588 270.197H414.644C414.947 270.197 415.191 270.323 415.191 270.483V273.353Z" fill="#2A393F"/>
    <path d="M266.14 287.78H43.2897C42.9318 287.78 42.6416 288.07 42.6416 288.428V295.465C42.6416 295.823 42.9318 296.113 43.2897 296.113H266.14C266.498 296.113 266.788 295.823 266.788 295.465V288.428C266.788 288.07 266.498 287.78 266.14 287.78Z" fill="#359095"/>
    <path d="M177.609 285.55H97.9333C97.5753 285.55 97.2852 285.84 97.2852 286.198V299.168C97.2852 299.526 97.5753 299.817 97.9333 299.817H177.609C177.967 299.817 178.257 299.526 178.257 299.168V286.198C178.257 285.84 177.967 285.55 177.609 285.55Z" fill="#4C4578"/>
    <path d="M120.567 285.053H114.616C114.258 285.053 113.968 285.343 113.968 285.701V299.674C113.968 300.031 114.258 300.322 114.616 300.322H120.567C120.925 300.322 121.215 300.031 121.215 299.674V285.701C121.215 285.343 120.925 285.053 120.567 285.053Z" fill="#2A393F"/>
    <path d="M160.927 285.053H154.976C154.618 285.053 154.328 285.343 154.328 285.701V299.674C154.328 300.031 154.618 300.322 154.976 300.322H160.927C161.285 300.322 161.575 300.031 161.575 299.674V285.701C161.575 285.343 161.285 285.053 160.927 285.053Z" fill="#2A393F"/>
    <path d="M103.531 303.655C103.531 307.865 102.282 311.98 99.9432 315.481C97.6041 318.982 94.2796 321.71 90.3899 323.321C86.5003 324.932 82.2202 325.354 78.091 324.533C73.9618 323.711 70.1688 321.684 67.1918 318.707C64.2148 315.73 62.1874 311.937 61.3661 307.808C60.5447 303.678 60.9663 299.398 62.5774 295.509C64.1886 291.619 66.9169 288.294 70.4175 285.955C73.9181 283.616 78.0337 282.368 82.2438 282.368C85.0393 282.368 87.8073 282.919 90.3899 283.988C92.9726 285.058 95.3192 286.626 97.2959 288.603C99.2725 290.579 100.841 292.926 101.91 295.509C102.98 298.091 103.531 300.859 103.531 303.655Z" fill="#4C4578"/>
    <path d="M96.3927 303.655C96.3927 306.452 95.5634 309.185 94.0096 311.511C92.4558 313.836 90.2473 315.649 87.6634 316.719C85.0796 317.789 82.2363 318.069 79.4933 317.524C76.7503 316.978 74.2307 315.631 72.2531 313.654C70.2754 311.676 68.9287 309.156 68.383 306.413C67.8374 303.67 68.1175 300.827 69.1877 298.243C70.258 295.659 72.0705 293.451 74.3959 291.897C76.7213 290.343 79.4553 289.514 82.252 289.514C86.0024 289.514 89.5991 291.004 92.251 293.656C94.9029 296.308 96.3927 299.904 96.3927 303.655Z" fill="#2A393F"/>
    <path d="M81.7221 313.343C81.7209 313.272 81.7341 313.201 81.7608 313.135C81.7874 313.069 81.8271 313.01 81.8773 312.959C81.9276 312.909 81.9874 312.869 82.0533 312.843C82.1191 312.816 82.1897 312.803 82.2608 312.804C82.4044 312.804 82.5423 312.861 82.6447 312.961C82.7471 313.062 82.8057 313.199 82.8079 313.343C82.8079 313.488 82.7502 313.627 82.6476 313.73C82.545 313.832 82.4059 313.89 82.2608 313.89C82.1893 313.89 82.1186 313.876 82.0527 313.848C81.9867 313.821 81.927 313.78 81.8768 313.729C81.8267 313.678 81.7872 313.618 81.7606 313.552C81.7341 313.485 81.721 313.414 81.7221 313.343ZM79.4747 313.528C79.4052 313.51 79.34 313.479 79.2828 313.436C79.2255 313.393 79.1775 313.339 79.1414 313.277C79.1054 313.215 79.082 313.146 79.0728 313.075C79.0635 313.004 79.0685 312.932 79.0875 312.863C79.1061 312.793 79.1382 312.728 79.1822 312.671C79.2261 312.613 79.281 312.565 79.3436 312.529C79.4062 312.493 79.4753 312.47 79.5469 312.461C79.6185 312.452 79.6913 312.457 79.7609 312.476C79.8302 312.493 79.8953 312.525 79.9522 312.568C80.0091 312.611 80.0567 312.665 80.092 312.728C80.1274 312.79 80.1499 312.858 80.1581 312.929C80.1662 313 80.16 313.072 80.1397 313.141C80.1098 313.256 80.0423 313.359 79.9479 313.432C79.8534 313.505 79.7373 313.545 79.6178 313.545C79.5695 313.547 79.5211 313.542 79.4747 313.528ZM84.3903 313.141C84.37 313.072 84.3637 313 84.3719 312.929C84.3801 312.858 84.4025 312.79 84.4379 312.728C84.4733 312.665 84.5209 312.611 84.5778 312.568C84.6347 312.525 84.6997 312.493 84.7691 312.476C84.9086 312.437 85.0578 312.455 85.184 312.526C85.3102 312.597 85.4032 312.715 85.4424 312.855C85.4783 312.996 85.457 313.146 85.3829 313.273C85.3089 313.399 85.1881 313.49 85.0468 313.528H84.9122C84.7912 313.529 84.6734 313.489 84.5785 313.414C84.4836 313.339 84.4172 313.234 84.3903 313.116V313.141ZM76.8738 312.459C76.8112 312.423 76.7563 312.375 76.7123 312.318C76.6682 312.261 76.6358 312.196 76.6171 312.126C76.5983 312.057 76.5935 311.984 76.6029 311.913C76.6123 311.841 76.6357 311.772 76.6718 311.71C76.744 311.586 76.8622 311.495 77.0008 311.457C77.1394 311.419 77.2873 311.438 77.4125 311.508C77.4751 311.544 77.53 311.591 77.5741 311.649C77.6182 311.706 77.6505 311.771 77.6693 311.84C77.6881 311.91 77.6929 311.983 77.6835 312.054C77.6741 312.126 77.6507 312.195 77.6145 312.257C77.5668 312.34 77.4981 312.408 77.4153 312.455C77.3325 312.503 77.2386 312.527 77.1432 312.526C77.0489 312.529 76.9557 312.506 76.8738 312.459ZM86.907 312.249C86.8355 312.123 86.8158 311.975 86.8519 311.835C86.8881 311.695 86.9773 311.575 87.1006 311.499C87.1623 311.464 87.2306 311.44 87.3015 311.431C87.3723 311.422 87.4443 311.427 87.5132 311.445C87.5822 311.464 87.6467 311.496 87.703 311.54C87.7593 311.584 87.8063 311.639 87.8413 311.701C87.9127 311.827 87.9325 311.975 87.8964 312.115C87.8602 312.255 87.771 312.375 87.6477 312.451C87.561 312.493 87.4663 312.516 87.3699 312.518C87.2785 312.519 87.1883 312.497 87.1074 312.455C87.0265 312.412 86.9576 312.35 86.907 312.274V312.249ZM74.6349 310.742C74.5346 310.64 74.4785 310.502 74.4785 310.359C74.4785 310.216 74.5346 310.078 74.6349 309.976C74.6857 309.925 74.7461 309.885 74.8125 309.857C74.8789 309.83 74.9501 309.815 75.0221 309.815C75.094 309.815 75.1652 309.83 75.2317 309.857C75.2981 309.885 75.3584 309.925 75.4093 309.976C75.51 310.08 75.5664 310.219 75.5664 310.363C75.5664 310.508 75.51 310.647 75.4093 310.75C75.359 310.802 75.2987 310.843 75.2321 310.87C75.1656 310.898 75.0941 310.911 75.0221 310.91C74.9494 310.91 74.8776 310.895 74.811 310.866C74.7444 310.837 74.6845 310.795 74.6349 310.742ZM89.1123 310.742C89.0606 310.692 89.0195 310.633 88.9914 310.567C88.9633 310.501 88.9488 310.431 88.9488 310.359C88.9488 310.287 88.9633 310.217 88.9914 310.151C89.0195 310.085 89.0606 310.025 89.1123 309.976C89.216 309.875 89.3549 309.819 89.4995 309.819C89.6441 309.819 89.7829 309.875 89.8866 309.976C89.9869 310.078 90.043 310.216 90.043 310.359C90.043 310.502 89.9869 310.64 89.8866 310.742C89.7812 310.847 89.6396 310.907 89.491 310.91C89.4185 310.907 89.3473 310.89 89.2821 310.858C89.2169 310.826 89.159 310.781 89.1123 310.725V310.742ZM72.9178 308.528C72.8475 308.403 72.8293 308.255 72.8671 308.116C72.9049 307.978 72.9957 307.86 73.1198 307.788C73.1816 307.752 73.2499 307.728 73.3207 307.719C73.3916 307.71 73.4635 307.715 73.5325 307.733C73.6014 307.752 73.6659 307.785 73.7222 307.829C73.7785 307.873 73.8256 307.927 73.8605 307.99C73.8968 308.051 73.9206 308.119 73.9305 308.189C73.9404 308.26 73.9362 308.331 73.9182 308.4C73.9002 308.469 73.8687 308.534 73.8256 308.59C73.7825 308.647 73.7285 308.695 73.6669 308.73C73.5831 308.781 73.487 308.807 73.3892 308.806C73.2914 308.803 73.1962 308.775 73.1133 308.723C73.0304 308.671 72.9629 308.598 72.9178 308.511V308.528ZM90.8462 308.722C90.7212 308.648 90.6306 308.528 90.5942 308.387C90.5579 308.247 90.5789 308.098 90.6526 307.973C90.6876 307.91 90.7346 307.856 90.7909 307.812C90.8472 307.768 90.9117 307.735 90.9806 307.717C91.0496 307.698 91.1216 307.693 91.1924 307.702C91.2632 307.711 91.3315 307.735 91.3933 307.771C91.5181 307.845 91.609 307.964 91.6468 308.104C91.6845 308.244 91.666 308.393 91.5953 308.52C91.5464 308.601 91.4773 308.669 91.3948 308.716C91.3123 308.763 91.219 308.788 91.1239 308.789C91.0261 308.783 90.9311 308.754 90.8462 308.705V308.722ZM71.8404 305.936C71.8042 305.795 71.8244 305.646 71.8968 305.52C71.9691 305.394 72.0879 305.302 72.2276 305.262C72.3671 305.226 72.5152 305.247 72.6396 305.319C72.7641 305.392 72.855 305.511 72.8926 305.65C72.9115 305.719 72.9166 305.791 72.9073 305.862C72.898 305.933 72.8747 306.001 72.8386 306.063C72.8026 306.125 72.7545 306.179 72.6973 306.223C72.6401 306.266 72.5748 306.297 72.5054 306.315C72.4581 306.323 72.4096 306.323 72.3623 306.315C72.2443 306.314 72.1297 306.275 72.0356 306.203C71.9416 306.132 71.8731 306.032 71.8404 305.919V305.936ZM92.0414 306.298C91.972 306.28 91.9067 306.249 91.8495 306.206C91.7922 306.163 91.7442 306.108 91.7081 306.047C91.6721 305.985 91.6487 305.916 91.6395 305.845C91.6302 305.774 91.6352 305.702 91.6542 305.633C91.6918 305.494 91.7826 305.375 91.9071 305.303C92.0316 305.23 92.1797 305.21 92.3192 305.246C92.3897 305.263 92.4561 305.295 92.5143 305.338C92.5725 305.382 92.6215 305.437 92.6583 305.499C92.6951 305.562 92.7191 305.631 92.7288 305.703C92.7385 305.775 92.7337 305.849 92.7148 305.919C92.683 306.034 92.6136 306.136 92.5175 306.208C92.4215 306.279 92.3043 306.317 92.1845 306.315C92.121 306.317 92.0577 306.306 91.9993 306.281L92.0414 306.298ZM71.5122 303.15C71.5121 303.006 71.5686 302.868 71.6694 302.766C71.7702 302.663 71.9072 302.605 72.0508 302.603C72.1945 302.603 72.3324 302.659 72.4348 302.76C72.5371 302.861 72.5957 302.998 72.598 303.141C72.5991 303.213 72.586 303.284 72.5594 303.35C72.5328 303.416 72.4933 303.477 72.4432 303.528C72.3931 303.579 72.3333 303.619 72.2674 303.647C72.2015 303.674 72.1307 303.688 72.0593 303.688C71.983 303.696 71.906 303.686 71.8335 303.662C71.761 303.637 71.6946 303.597 71.6389 303.544C71.5831 303.491 71.5392 303.428 71.5101 303.357C71.481 303.286 71.4673 303.209 71.4701 303.133L71.5122 303.15ZM91.9825 303.15C91.9847 303.006 92.0433 302.869 92.1457 302.768C92.248 302.667 92.3859 302.611 92.5296 302.611C92.601 302.61 92.672 302.623 92.7383 302.65C92.8047 302.676 92.8651 302.716 92.916 302.766C92.9669 302.816 93.0073 302.876 93.0349 302.942C93.0625 303.008 93.0767 303.078 93.0767 303.15C93.0745 303.293 93.0159 303.43 92.9135 303.531C92.8112 303.632 92.6733 303.688 92.5296 303.688C92.4521 303.694 92.3742 303.684 92.3011 303.658C92.228 303.631 92.1614 303.59 92.1056 303.535C92.0499 303.481 92.0063 303.416 91.9778 303.344C91.9493 303.271 91.9366 303.194 91.9404 303.116L91.9825 303.15ZM72.2865 301.029C72.2169 301.011 72.1514 300.98 72.0938 300.937C72.0363 300.894 71.9877 300.84 71.951 300.778C71.9143 300.716 71.8901 300.648 71.8798 300.577C71.8694 300.506 71.8732 300.433 71.8909 300.364C71.9303 300.224 72.0228 300.105 72.1487 300.033C72.2745 299.96 72.4237 299.94 72.5643 299.976C72.7034 300.014 72.822 300.105 72.8945 300.229C72.967 300.354 72.9875 300.502 72.9515 300.641C72.9215 300.759 72.8531 300.864 72.7571 300.939C72.6611 301.013 72.5429 301.054 72.4212 301.054C72.3505 301.056 72.2805 301.039 72.2192 301.003L72.2865 301.029ZM91.6458 300.591C91.6267 300.521 91.6216 300.449 91.6308 300.377C91.6399 300.305 91.6632 300.236 91.6992 300.174C91.7352 300.111 91.7832 300.056 91.8405 300.012C91.8978 299.968 91.9632 299.936 92.033 299.918C92.1725 299.882 92.3205 299.902 92.445 299.975C92.5695 300.047 92.6604 300.166 92.698 300.305C92.7183 300.373 92.7245 300.445 92.7163 300.516C92.7082 300.587 92.6857 300.656 92.6503 300.718C92.6149 300.78 92.5674 300.834 92.5105 300.878C92.4536 300.921 92.3885 300.952 92.3192 300.97C92.2718 300.978 92.2235 300.978 92.1761 300.97C92.0488 300.978 91.9224 300.943 91.8182 300.869C91.714 300.796 91.6382 300.688 91.6037 300.566L91.6458 300.591ZM73.1282 298.512C73.0032 298.438 72.9126 298.318 72.8763 298.177C72.84 298.037 72.861 297.888 72.9346 297.763C72.9696 297.7 73.0166 297.646 73.0729 297.602C73.1293 297.558 73.1938 297.525 73.2627 297.507C73.3316 297.488 73.4036 297.483 73.4745 297.492C73.5453 297.502 73.6136 297.525 73.6753 297.561C73.7377 297.596 73.7924 297.643 73.8364 297.699C73.8803 297.755 73.9127 297.82 73.9315 297.889C73.9503 297.958 73.9552 298.03 73.9459 298.101C73.9366 298.171 73.9133 298.24 73.8773 298.301C73.8307 298.386 73.7625 298.456 73.6796 298.505C73.5967 298.553 73.5022 298.579 73.406 298.579C73.2962 298.574 73.1893 298.542 73.0946 298.487L73.1282 298.512ZM90.661 298.259C90.6249 298.197 90.6015 298.128 90.5921 298.057C90.5827 297.985 90.5875 297.912 90.6063 297.843C90.625 297.773 90.6574 297.708 90.7015 297.651C90.7455 297.594 90.8004 297.546 90.863 297.51C90.9243 297.474 90.9921 297.45 91.0626 297.44C91.1331 297.43 91.2049 297.435 91.2738 297.453C91.3426 297.471 91.4073 297.502 91.4639 297.545C91.5205 297.588 91.5681 297.642 91.6037 297.704C91.6752 297.829 91.6949 297.978 91.6588 298.118C91.6226 298.257 91.5335 298.378 91.4101 298.453C91.3289 298.502 91.2358 298.528 91.1408 298.529C91.0363 298.532 90.933 298.506 90.8423 298.454C90.7516 298.402 90.6772 298.326 90.6273 298.234L90.661 298.259ZM74.6686 296.298C74.5683 296.196 74.5122 296.058 74.5122 295.915C74.5122 295.772 74.5683 295.635 74.6686 295.532C74.7708 295.432 74.9083 295.376 75.0515 295.376C75.1947 295.376 75.3322 295.432 75.4345 295.532C75.4854 295.583 75.5258 295.643 75.5533 295.71C75.5809 295.776 75.5951 295.848 75.5951 295.919C75.5951 295.991 75.5809 296.063 75.5533 296.129C75.5258 296.195 75.4854 296.256 75.4345 296.307C75.3294 296.406 75.1916 296.462 75.0473 296.467C74.965 296.472 74.8826 296.458 74.8066 296.426C74.7306 296.394 74.6632 296.344 74.6096 296.281L74.6686 296.298ZM89.1375 296.256C89.0373 296.154 88.9811 296.016 88.9811 295.873C88.9811 295.73 89.0373 295.592 89.1375 295.49C89.1883 295.439 89.2487 295.399 89.3151 295.371C89.3816 295.344 89.4528 295.33 89.5247 295.33C89.5966 295.33 89.6679 295.344 89.7343 295.371C89.8007 295.399 89.8611 295.439 89.9119 295.49C90.0127 295.594 90.0691 295.733 90.0691 295.877C90.0691 296.022 90.0127 296.161 89.9119 296.265C89.8068 296.363 89.669 296.42 89.5247 296.424C89.4403 296.43 89.3558 296.415 89.2782 296.382C89.2005 296.348 89.1321 296.296 89.0786 296.231L89.1375 296.256ZM76.6971 294.573C76.6234 294.448 76.6024 294.299 76.6387 294.158C76.675 294.018 76.7657 293.897 76.8907 293.824C76.9531 293.787 77.022 293.764 77.0935 293.755C77.165 293.745 77.2376 293.75 77.3072 293.769C77.3768 293.788 77.4421 293.82 77.4991 293.864C77.5562 293.908 77.604 293.963 77.6398 294.026C77.7108 294.15 77.7303 294.297 77.6941 294.435C77.6579 294.574 77.5689 294.693 77.4462 294.766C77.3616 294.815 77.266 294.841 77.1684 294.842C77.0588 294.85 76.9493 294.825 76.8545 294.769C76.7597 294.714 76.6842 294.63 76.6382 294.531L76.6971 294.573ZM87.1258 294.741C87.0011 294.667 86.9101 294.548 86.8724 294.408C86.8346 294.268 86.8531 294.118 86.9238 293.992C86.9977 293.867 87.1173 293.776 87.2573 293.738C87.3972 293.701 87.5464 293.719 87.673 293.79C87.7977 293.864 87.8887 293.983 87.9264 294.123C87.9641 294.263 87.9457 294.412 87.875 294.539C87.8273 294.622 87.7585 294.69 87.6757 294.737C87.5929 294.785 87.499 294.809 87.4036 294.808C87.2825 294.809 87.1645 294.771 87.0669 294.699L87.1258 294.741ZM79.1044 293.411C79.0842 293.342 79.0782 293.27 79.0869 293.198C79.0957 293.127 79.1188 293.058 79.1551 292.995C79.1913 292.933 79.2398 292.879 79.2977 292.836C79.3555 292.793 79.4215 292.763 79.4915 292.746C79.5606 292.727 79.6328 292.722 79.7039 292.731C79.7749 292.741 79.8434 292.764 79.9054 292.8C79.9673 292.836 80.0214 292.884 80.0645 292.941C80.1076 292.999 80.1389 293.064 80.1565 293.133C80.1927 293.274 80.1725 293.423 80.1001 293.549C80.0278 293.675 79.909 293.767 79.7693 293.807C79.722 293.815 79.6735 293.815 79.6262 293.807C79.4926 293.818 79.3596 293.779 79.2526 293.698C79.1455 293.618 79.0718 293.501 79.0454 293.369L79.1044 293.411ZM84.7859 293.781C84.648 293.742 84.5307 293.651 84.4585 293.527C84.3864 293.403 84.3649 293.256 84.3987 293.117C84.4344 292.976 84.5245 292.855 84.6492 292.781C84.7739 292.707 84.923 292.685 85.0637 292.721C85.2049 292.759 85.3257 292.85 85.3998 292.976C85.4738 293.102 85.4952 293.253 85.4593 293.394C85.4265 293.51 85.3571 293.612 85.2615 293.685C85.1658 293.758 85.0492 293.797 84.929 293.798L84.7859 293.781ZM81.6463 292.915C81.6463 292.843 81.6605 292.772 81.688 292.705C81.7155 292.639 81.7558 292.578 81.8066 292.528C81.8574 292.477 81.9177 292.437 81.9841 292.409C82.0504 292.382 82.1216 292.367 82.1934 292.367C82.3385 292.367 82.4777 292.425 82.5803 292.528C82.6829 292.63 82.7405 292.769 82.7405 292.915C82.7384 293.059 82.68 293.197 82.5779 293.299C82.4758 293.401 82.3379 293.459 82.1934 293.462C82.049 293.459 81.9111 293.401 81.809 293.299C81.7068 293.197 81.6485 293.059 81.6463 292.915Z" fill="#445C63"/>
    <path d="M85.5852 303.655C85.5852 304.321 85.3878 304.972 85.0178 305.525C84.6479 306.079 84.122 306.51 83.5068 306.765C82.8916 307.02 82.2147 307.087 81.5616 306.957C80.9085 306.827 80.3085 306.506 79.8377 306.035C79.3668 305.565 79.0462 304.965 78.9163 304.312C78.7863 303.658 78.853 302.982 79.1078 302.366C79.3627 301.751 79.7942 301.225 80.3479 300.855C80.9016 300.485 81.5525 300.288 82.2184 300.288C83.1113 300.288 83.9677 300.643 84.5991 301.274C85.2305 301.905 85.5852 302.762 85.5852 303.655Z" fill="#445C63"/>
    <path d="M104.499 306.037C104.499 290.886 95.9806 281.526 82.2524 281.526C68.5241 281.526 59.9976 290.92 59.9976 306.037C59.9976 307.544 54.5518 307.544 54.5518 306.037C54.5518 296.972 57.2621 289.354 62.3965 284.001C67.3794 278.816 74.2393 276.08 82.2524 276.08C90.2654 276.08 97.1254 278.816 102.108 284.001C107.243 289.354 109.953 296.972 109.953 306.037C109.953 307.544 104.499 307.544 104.499 306.037Z" fill="#33C3C4"/>
    <path d="M82.2528 278.799C67.8596 278.799 57.2793 288.613 57.2793 306.037V307.173C58.6344 307.173 59.998 306.794 59.998 306.037C59.998 290.886 68.5245 281.526 82.2528 281.526C95.981 281.526 104.499 290.92 104.499 306.037C104.499 306.794 105.863 307.173 107.226 307.173V306.037C107.226 288.613 96.646 278.799 82.2528 278.799Z" fill="#359095"/>
    <path d="M413.969 286.408H260.753C260.451 286.408 260.206 286.653 260.206 286.955V306.264C260.206 306.566 260.451 306.811 260.753 306.811H413.969C414.271 306.811 414.516 306.566 414.516 306.264V286.955C414.516 286.653 414.271 286.408 413.969 286.408Z" fill="#2A393F"/>
    <path d="M428.978 277.722H378.812C378.51 277.722 378.265 277.967 378.265 278.269V306.264C378.265 306.566 378.51 306.811 378.812 306.811H428.978C429.28 306.811 429.525 306.566 429.525 306.264V278.269C429.525 277.967 429.28 277.722 428.978 277.722Z" fill="#2A393F"/>
    <path d="M428.97 277.764H378.77C378.627 277.766 378.49 277.825 378.389 277.927C378.288 278.029 378.231 278.167 378.231 278.311V283.748H418.33C418.476 283.748 418.615 283.806 418.717 283.909C418.82 284.011 418.878 284.15 418.878 284.295V306.803H428.978C429.122 306.803 429.26 306.746 429.362 306.645C429.464 306.545 429.523 306.408 429.525 306.264V278.269C429.514 278.13 429.451 278 429.348 277.906C429.244 277.812 429.109 277.761 428.97 277.764Z" fill="#445C63"/>
    <path d="M497.021 197.204H428.674C428.627 197.214 428.584 197.239 428.553 197.277C428.523 197.314 428.506 197.362 428.506 197.41C428.506 197.459 428.523 197.506 428.553 197.543C428.584 197.581 428.627 197.607 428.674 197.616H439.987V277.52C439.997 277.567 440.022 277.61 440.06 277.641C440.098 277.671 440.145 277.688 440.193 277.688C440.242 277.688 440.289 277.671 440.326 277.641C440.364 277.61 440.39 277.567 440.399 277.52V197.616H497.021C497.069 197.607 497.111 197.581 497.142 197.543C497.173 197.506 497.19 197.459 497.19 197.41C497.19 197.362 497.173 197.314 497.142 197.277C497.111 197.239 497.069 197.214 497.021 197.204Z" fill="#FF8935"/>
    <path d="M492.51 238.953L456.468 237.463V276.181H462.764C467.536 276.181 471.829 278.614 472.805 286.417H492.51V238.953Z" fill="#FF8935"/>
    <path d="M492.509 245.897C492.509 246.04 492.452 246.178 492.351 246.281C492.251 246.383 492.114 246.442 491.97 246.444L457.047 239.214C456.905 239.214 456.768 239.157 456.667 239.056C456.566 238.955 456.509 238.818 456.509 238.675V207.717C456.509 207.573 456.565 207.435 456.666 207.333C456.767 207.231 456.904 207.172 457.047 207.17H492.012C492.156 207.172 492.293 207.231 492.393 207.333C492.494 207.435 492.551 207.573 492.551 207.717L492.509 245.897Z" fill="#6AB7C7"/>
    <path d="M505.606 204.173H501.566C501.422 204.173 501.284 204.23 501.182 204.33C501.079 204.431 501.021 204.568 501.019 204.712V259.953C501.021 260.097 501.079 260.234 501.182 260.335C501.284 260.435 501.422 260.492 501.566 260.492H515.294V238.969C515.294 226.681 508.981 211.446 505.606 204.173Z" fill="#6AB7C7"/>
    <path d="M492.509 215.284L467.906 241.469L470.675 242.042L492.509 218.811V215.284Z" fill="#A4ECE0"/>
    <path d="M475.465 207.17L456.468 227.396V234.887L482.51 207.17H475.465Z" fill="#A4ECE0"/>
    <path d="M515.294 238.969C515.28 236.882 515.122 234.798 514.823 232.732L501.019 247.462V254.954L515.328 239.803L515.294 238.969Z" fill="#A4ECE0"/>
    <path d="M511.195 218.104L501.019 228.945V233.448L512.264 221.487C511.919 220.326 511.565 219.206 511.195 218.104Z" fill="#A4ECE0"/>
    <path d="M458.462 235.678V207.17H457.047C456.904 207.172 456.767 207.231 456.666 207.333C456.565 207.435 456.509 207.573 456.509 207.717V238.675C456.509 238.818 456.566 238.955 456.667 239.056C456.768 239.157 456.905 239.214 457.047 239.214L492.012 246.444C492.156 246.442 492.293 246.383 492.393 246.281C492.494 246.178 492.551 246.04 492.551 245.897V243.136L459.051 236.209C458.977 236.214 458.903 236.205 458.832 236.181C458.762 236.157 458.698 236.119 458.642 236.07C458.587 236.02 458.543 235.96 458.512 235.893C458.481 235.825 458.464 235.753 458.462 235.678Z" fill="#202B31"/>
    <path d="M503.746 254.423V204.173H501.566C501.422 204.173 501.284 204.23 501.182 204.33C501.079 204.431 501.021 204.568 501.019 204.712V259.953C501.021 260.097 501.079 260.234 501.182 260.335C501.284 260.435 501.422 260.492 501.566 260.492H515.294V254.97H504.293C504.148 254.97 504.009 254.913 503.906 254.81C503.803 254.707 503.746 254.568 503.746 254.423Z" fill="#202B31"/>
    <path d="M464.465 246.444H458.733C458.431 246.444 458.186 246.689 458.186 246.991V247.833C458.186 248.135 458.431 248.38 458.733 248.38H464.465C464.767 248.38 465.012 248.135 465.012 247.833V246.991C465.012 246.689 464.767 246.444 464.465 246.444Z" fill="#2A393F"/>
    <path d="M436.173 202.549H426.872C426.57 202.549 426.325 202.794 426.325 203.096V203.618C426.325 203.92 426.57 204.165 426.872 204.165H436.173C436.475 204.165 436.72 203.92 436.72 203.618V203.096C436.72 202.794 436.475 202.549 436.173 202.549Z" fill="#202B31"/>
    <path d="M436.173 205.554H426.872C426.57 205.554 426.325 205.799 426.325 206.101V206.623C426.325 206.925 426.57 207.17 426.872 207.17H436.173C436.475 207.17 436.72 206.925 436.72 206.623V206.101C436.72 205.799 436.475 205.554 436.173 205.554Z" fill="#202B31"/>
    <path d="M436.173 208.559H426.872C426.57 208.559 426.325 208.804 426.325 209.106V209.628C426.325 209.93 426.57 210.175 426.872 210.175H436.173C436.475 210.175 436.72 209.93 436.72 209.628V209.106C436.72 208.804 436.475 208.559 436.173 208.559Z" fill="#202B31"/>
    <path d="M436.173 211.563H426.872C426.57 211.563 426.325 211.808 426.325 212.111V212.632C426.325 212.935 426.57 213.179 426.872 213.179H436.173C436.475 213.179 436.72 212.935 436.72 212.632V212.111C436.72 211.808 436.475 211.563 436.173 211.563Z" fill="#202B31"/>
    <path d="M436.173 214.568H426.872C426.57 214.568 426.325 214.813 426.325 215.115V215.637C426.325 215.939 426.57 216.184 426.872 216.184H436.173C436.475 216.184 436.72 215.939 436.72 215.637V215.115C436.72 214.813 436.475 214.568 436.173 214.568Z" fill="#202B31"/>
    <path d="M436.173 217.573H426.872C426.57 217.573 426.325 217.818 426.325 218.12V218.642C426.325 218.944 426.57 219.189 426.872 219.189H436.173C436.475 219.189 436.72 218.944 436.72 218.642V218.12C436.72 217.818 436.475 217.573 436.173 217.573Z" fill="#202B31"/>
    <path d="M436.173 220.578H426.872C426.57 220.578 426.325 220.823 426.325 221.125V221.647C426.325 221.949 426.57 222.194 426.872 222.194H436.173C436.475 222.194 436.72 221.949 436.72 221.647V221.125C436.72 220.823 436.475 220.578 436.173 220.578Z" fill="#202B31"/>
    <path d="M436.173 223.583H426.872C426.57 223.583 426.325 223.828 426.325 224.13V224.652C426.325 224.954 426.57 225.199 426.872 225.199H436.173C436.475 225.199 436.72 224.954 436.72 224.652V224.13C436.72 223.828 436.475 223.583 436.173 223.583Z" fill="#202B31"/>
    <path d="M436.173 226.58H426.872C426.57 226.58 426.325 226.824 426.325 227.127V227.648C426.325 227.951 426.57 228.196 426.872 228.196H436.173C436.475 228.196 436.72 227.951 436.72 227.648V227.127C436.72 226.824 436.475 226.58 436.173 226.58Z" fill="#202B31"/>
    <path d="M436.173 229.584H426.872C426.57 229.584 426.325 229.829 426.325 230.132V230.653C426.325 230.956 426.57 231.2 426.872 231.2H436.173C436.475 231.2 436.72 230.956 436.72 230.653V230.132C436.72 229.829 436.475 229.584 436.173 229.584Z" fill="#202B31"/>
    <path d="M502.551 247.959H498.292C498.002 247.959 497.724 247.844 497.519 247.638C497.314 247.433 497.198 247.155 497.198 246.865V207.717C497.2 207.428 497.317 207.152 497.522 206.948C497.727 206.745 498.004 206.631 498.292 206.631H502.56C502.637 206.621 502.715 206.628 502.789 206.651C502.863 206.674 502.932 206.712 502.99 206.764C503.048 206.815 503.094 206.878 503.126 206.949C503.158 207.02 503.175 207.096 503.175 207.174C503.175 207.251 503.158 207.328 503.126 207.399C503.094 207.47 503.048 207.533 502.99 207.584C502.932 207.635 502.863 207.674 502.789 207.697C502.715 207.72 502.637 207.726 502.56 207.717H498.292V246.865H502.56C502.705 246.865 502.844 246.922 502.947 247.025C503.049 247.127 503.107 247.267 503.107 247.412C503.107 247.557 503.049 247.696 502.947 247.799C502.844 247.901 502.705 247.959 502.56 247.959H502.551Z" fill="#202B31"/>
    <path d="M506.026 240.729C506.022 240.816 506.001 240.902 505.963 240.981C505.926 241.06 505.873 241.131 505.808 241.189C505.743 241.248 505.667 241.293 505.585 241.322C505.502 241.352 505.415 241.364 505.328 241.36H494.924C494.837 241.364 494.75 241.352 494.667 241.322C494.585 241.293 494.509 241.248 494.444 241.189C494.379 241.131 494.326 241.06 494.289 240.981C494.251 240.902 494.23 240.816 494.226 240.729V212.952C494.23 212.865 494.251 212.779 494.289 212.7C494.326 212.621 494.379 212.55 494.444 212.492C494.509 212.433 494.585 212.388 494.667 212.358C494.75 212.329 494.837 212.316 494.924 212.321H505.294C505.381 212.316 505.469 212.329 505.551 212.358C505.634 212.388 505.709 212.433 505.774 212.492C505.839 212.55 505.892 212.621 505.929 212.7C505.967 212.779 505.988 212.865 505.993 212.952L506.026 240.729Z" fill="#2A393F"/>
    <path d="M515.816 269.018H506.347C506.045 269.018 505.8 269.263 505.8 269.566V277.175C505.8 277.477 506.045 277.722 506.347 277.722H515.816C516.118 277.722 516.363 277.477 516.363 277.175V269.566C516.363 269.263 516.118 269.018 515.816 269.018Z" fill="white"/>
    <path opacity="0.5" d="M508.157 275.718V268.985H506.339C506.195 268.987 506.058 269.046 505.957 269.148C505.856 269.25 505.8 269.388 505.8 269.532V277.107C505.8 277.251 505.856 277.389 505.957 277.491C506.058 277.594 506.195 277.652 506.339 277.654H515.816C515.961 277.654 516.1 277.597 516.203 277.494C516.306 277.392 516.363 277.252 516.363 277.107V276.19H508.704C508.571 276.191 508.442 276.144 508.341 276.057C508.241 275.97 508.175 275.85 508.157 275.718Z" fill="#FFE780"/>
    <path d="M515.816 282.057H506.347C506.045 282.057 505.8 282.301 505.8 282.604V290.213C505.8 290.515 506.045 290.76 506.347 290.76H515.816C516.118 290.76 516.363 290.515 516.363 290.213V282.604C516.363 282.301 516.118 282.057 515.816 282.057Z" fill="white"/>
    <path opacity="0.5" d="M508.157 288.748V282.057H506.339C506.195 282.059 506.058 282.117 505.957 282.22C505.856 282.322 505.8 282.46 505.8 282.604V290.179C505.8 290.323 505.856 290.461 505.957 290.563C506.058 290.665 506.195 290.724 506.339 290.726H515.816C515.961 290.726 516.1 290.668 516.203 290.566C516.306 290.463 516.363 290.324 516.363 290.179V289.295H508.704C508.559 289.295 508.419 289.238 508.317 289.135C508.214 289.032 508.157 288.893 508.157 288.748Z" fill="#FFE780"/>
    <path d="M466.307 303.47C466.309 307.682 465.061 311.8 462.722 315.304C460.383 318.807 457.057 321.538 453.165 323.151C449.274 324.763 444.991 325.186 440.86 324.364C436.728 323.543 432.933 321.515 429.954 318.536C426.975 315.557 424.947 311.762 424.126 307.63C423.304 303.499 423.727 299.216 425.339 295.325C426.952 291.433 429.683 288.107 433.186 285.768C436.69 283.429 440.808 282.181 445.02 282.183C450.666 282.183 456.08 284.425 460.072 288.417C464.065 292.41 466.307 297.824 466.307 303.47Z" fill="#4C4578"/>
    <path d="M459.16 303.47C459.162 306.267 458.334 309.001 456.781 311.328C455.228 313.655 453.021 315.468 450.437 316.54C447.853 317.611 445.01 317.893 442.266 317.348C439.522 316.803 437.002 315.457 435.024 313.48C433.045 311.503 431.698 308.983 431.151 306.24C430.605 303.497 430.884 300.653 431.955 298.069C433.025 295.484 434.837 293.275 437.163 291.721C439.488 290.167 442.223 289.337 445.02 289.337C448.769 289.337 452.364 290.826 455.016 293.476C457.667 296.126 459.158 299.721 459.16 303.47Z" fill="#2A393F"/>
    <path d="M444.481 313.166C444.481 313.022 444.537 312.885 444.638 312.782C444.739 312.68 444.876 312.621 445.019 312.619C445.091 312.618 445.163 312.631 445.23 312.658C445.297 312.685 445.358 312.726 445.409 312.777C445.46 312.828 445.5 312.888 445.527 312.955C445.554 313.022 445.568 313.094 445.566 313.166C445.566 313.309 445.51 313.446 445.409 313.547C445.308 313.648 445.171 313.705 445.028 313.705C444.884 313.705 444.746 313.648 444.644 313.548C444.541 313.447 444.483 313.31 444.481 313.166ZM442.233 313.351C442.094 313.312 441.976 313.219 441.905 313.093C441.834 312.967 441.816 312.817 441.854 312.678C441.872 312.609 441.903 312.544 441.946 312.487C441.99 312.43 442.044 312.382 442.106 312.347C442.168 312.311 442.237 312.289 442.308 312.281C442.379 312.273 442.451 312.279 442.519 312.299C442.588 312.317 442.652 312.348 442.709 312.39C442.765 312.433 442.813 312.486 442.849 312.547C442.885 312.608 442.909 312.676 442.918 312.746C442.928 312.816 442.924 312.887 442.907 312.956C442.876 313.073 442.808 313.176 442.711 313.25C442.615 313.323 442.497 313.362 442.376 313.36H442.233V313.351ZM447.149 312.956C447.113 312.816 447.133 312.668 447.206 312.544C447.278 312.419 447.397 312.328 447.536 312.291C447.605 312.272 447.676 312.266 447.747 312.275C447.817 312.284 447.886 312.306 447.947 312.342C448.009 312.377 448.063 312.424 448.107 312.48C448.15 312.536 448.182 312.601 448.201 312.669C448.22 312.739 448.225 312.812 448.216 312.883C448.207 312.955 448.184 313.024 448.148 313.087C448.112 313.149 448.064 313.204 448.006 313.248C447.949 313.292 447.884 313.324 447.814 313.343H447.671C447.553 313.344 447.439 313.307 447.345 313.237C447.251 313.167 447.182 313.068 447.149 312.956ZM439.632 312.274C439.509 312.199 439.42 312.078 439.384 311.939C439.348 311.799 439.367 311.65 439.439 311.525C439.511 311.401 439.629 311.31 439.768 311.272C439.906 311.234 440.054 311.252 440.179 311.323C440.242 311.359 440.297 311.406 440.341 311.463C440.385 311.52 440.417 311.586 440.436 311.655C440.455 311.725 440.46 311.798 440.45 311.869C440.441 311.941 440.418 312.009 440.381 312.072C440.334 312.154 440.265 312.223 440.182 312.27C440.099 312.318 440.005 312.342 439.91 312.341C439.813 312.343 439.718 312.32 439.632 312.274ZM449.674 312.063C449.636 312.003 449.612 311.935 449.601 311.864C449.591 311.793 449.595 311.721 449.613 311.652C449.631 311.583 449.663 311.518 449.706 311.461C449.75 311.405 449.805 311.358 449.867 311.323C449.929 311.285 449.998 311.26 450.069 311.25C450.14 311.239 450.213 311.243 450.283 311.261C450.353 311.279 450.418 311.311 450.476 311.355C450.533 311.399 450.581 311.454 450.617 311.516C450.653 311.579 450.676 311.648 450.686 311.719C450.695 311.791 450.69 311.863 450.671 311.933C450.653 312.003 450.62 312.068 450.576 312.125C450.532 312.182 450.477 312.23 450.415 312.265C450.331 312.308 450.239 312.332 450.145 312.333C450.05 312.333 449.957 312.308 449.874 312.261C449.791 312.213 449.722 312.145 449.674 312.063ZM437.402 310.59C437.301 310.487 437.245 310.348 437.245 310.203C437.245 310.059 437.301 309.92 437.402 309.816C437.452 309.764 437.512 309.723 437.579 309.695C437.645 309.666 437.717 309.652 437.789 309.652C437.861 309.652 437.933 309.666 437.999 309.695C438.066 309.723 438.126 309.764 438.176 309.816C438.277 309.92 438.333 310.059 438.333 310.203C438.333 310.348 438.277 310.487 438.176 310.59C438.071 310.688 437.933 310.743 437.789 310.742C437.645 310.743 437.507 310.688 437.402 310.59ZM451.871 310.59C451.77 310.487 451.714 310.348 451.714 310.203C451.714 310.059 451.77 309.92 451.871 309.816C451.974 309.715 452.113 309.659 452.258 309.659C452.403 309.659 452.541 309.715 452.645 309.816C452.746 309.92 452.802 310.059 452.802 310.203C452.802 310.348 452.746 310.487 452.645 310.59C452.595 310.642 452.535 310.683 452.468 310.71C452.401 310.738 452.33 310.751 452.258 310.75C452.186 310.751 452.114 310.738 452.048 310.71C451.981 310.683 451.921 310.642 451.871 310.59ZM435.685 308.377C435.649 308.314 435.625 308.245 435.616 308.174C435.606 308.102 435.611 308.03 435.63 307.96C435.649 307.891 435.681 307.825 435.725 307.768C435.769 307.711 435.824 307.663 435.887 307.628C435.948 307.592 436.017 307.568 436.088 307.559C436.158 307.55 436.23 307.555 436.299 307.574C436.368 307.592 436.433 307.625 436.489 307.669C436.545 307.713 436.592 307.767 436.627 307.83C436.664 307.891 436.687 307.959 436.697 308.029C436.707 308.1 436.703 308.172 436.685 308.24C436.667 308.309 436.636 308.374 436.592 308.431C436.549 308.487 436.495 308.535 436.434 308.57C436.349 308.619 436.254 308.645 436.156 308.646C436.057 308.641 435.961 308.61 435.878 308.555C435.795 308.5 435.728 308.424 435.685 308.335V308.377ZM453.613 308.562C453.55 308.526 453.495 308.478 453.452 308.421C453.408 308.364 453.376 308.298 453.358 308.228C453.34 308.158 453.336 308.086 453.346 308.014C453.357 307.943 453.382 307.874 453.42 307.813C453.454 307.751 453.501 307.696 453.558 307.652C453.614 307.608 453.679 307.576 453.748 307.557C453.817 307.538 453.889 307.533 453.959 307.542C454.03 307.552 454.098 307.575 454.16 307.611C454.285 307.685 454.376 307.804 454.414 307.944C454.451 308.084 454.433 308.233 454.362 308.36C454.311 308.442 454.241 308.509 454.157 308.556C454.073 308.603 453.979 308.628 453.882 308.629C453.784 308.62 453.69 308.582 453.613 308.52V308.562ZM434.607 305.776C434.588 305.707 434.583 305.635 434.593 305.564C434.602 305.493 434.625 305.424 434.661 305.362C434.697 305.3 434.745 305.246 434.803 305.203C434.86 305.16 434.925 305.129 434.995 305.111C435.063 305.092 435.135 305.086 435.205 305.095C435.276 305.104 435.344 305.127 435.406 305.162C435.468 305.197 435.522 305.244 435.566 305.3C435.609 305.357 435.641 305.421 435.659 305.49C435.696 305.63 435.676 305.779 435.603 305.905C435.531 306.031 435.412 306.124 435.272 306.163H435.129C435.006 306.163 434.886 306.121 434.791 306.042C434.696 305.964 434.631 305.855 434.607 305.734V305.776ZM454.766 306.146C454.696 306.128 454.631 306.096 454.574 306.052C454.516 306.008 454.468 305.953 454.432 305.89C454.396 305.828 454.373 305.758 454.364 305.687C454.355 305.615 454.36 305.543 454.379 305.473C454.398 305.404 454.43 305.34 454.473 305.284C454.517 305.227 454.571 305.18 454.633 305.145C454.694 305.11 454.763 305.087 454.833 305.078C454.904 305.07 454.975 305.075 455.044 305.094C455.113 305.112 455.179 305.143 455.236 305.186C455.293 305.229 455.341 305.283 455.377 305.345C455.413 305.407 455.437 305.476 455.446 305.547C455.455 305.618 455.45 305.69 455.431 305.759C455.403 305.875 455.336 305.979 455.241 306.052C455.146 306.126 455.029 306.165 454.909 306.163L454.766 306.146ZM434.229 302.99C434.231 302.845 434.289 302.708 434.391 302.605C434.493 302.503 434.631 302.445 434.776 302.443C434.919 302.443 435.057 302.499 435.16 302.6C435.262 302.701 435.321 302.838 435.323 302.981C435.324 303.053 435.311 303.124 435.284 303.19C435.258 303.256 435.218 303.317 435.168 303.368C435.118 303.419 435.058 303.459 434.992 303.487C434.926 303.514 434.856 303.529 434.784 303.529C434.709 303.53 434.634 303.516 434.564 303.486C434.494 303.457 434.431 303.414 434.379 303.36C434.327 303.305 434.287 303.24 434.261 303.169C434.235 303.099 434.224 303.023 434.229 302.948V302.99ZM454.707 302.99C454.71 302.846 454.768 302.709 454.871 302.608C454.973 302.508 455.111 302.451 455.254 302.451C455.326 302.45 455.397 302.463 455.463 302.49C455.529 302.516 455.59 302.556 455.641 302.606C455.692 302.656 455.732 302.716 455.76 302.782C455.787 302.848 455.802 302.918 455.802 302.99C455.799 303.133 455.741 303.27 455.638 303.371C455.536 303.472 455.398 303.529 455.254 303.529C455.178 303.529 455.103 303.513 455.033 303.483C454.963 303.452 454.9 303.407 454.849 303.351C454.797 303.295 454.758 303.228 454.734 303.156C454.709 303.084 454.7 303.007 454.707 302.931V302.99ZM435.003 300.869C434.933 300.851 434.868 300.82 434.811 300.777C434.754 300.734 434.706 300.68 434.67 300.618C434.634 300.556 434.61 300.487 434.601 300.416C434.592 300.345 434.597 300.273 434.616 300.204C434.653 300.065 434.744 299.946 434.869 299.874C434.993 299.801 435.141 299.781 435.281 299.817C435.42 299.856 435.539 299.949 435.612 300.074C435.684 300.2 435.704 300.349 435.668 300.49C435.638 300.606 435.571 300.708 435.476 300.781C435.382 300.854 435.265 300.894 435.146 300.894C435.083 300.888 435.024 300.861 434.978 300.818L435.003 300.869ZM454.362 300.431C454.326 300.29 454.346 300.141 454.419 300.015C454.491 299.89 454.61 299.797 454.749 299.758C454.889 299.722 455.037 299.742 455.161 299.815C455.286 299.887 455.377 300.006 455.414 300.145C455.435 300.213 455.441 300.285 455.433 300.356C455.425 300.427 455.402 300.496 455.367 300.558C455.331 300.62 455.284 300.675 455.227 300.718C455.17 300.761 455.105 300.792 455.036 300.81C454.988 300.818 454.94 300.818 454.893 300.81C454.77 300.809 454.651 300.765 454.556 300.687C454.461 300.609 454.396 300.501 454.371 300.381L454.362 300.431ZM435.845 298.352C435.72 298.278 435.629 298.159 435.591 298.019C435.553 297.879 435.572 297.729 435.643 297.603C435.678 297.54 435.726 297.485 435.784 297.441C435.841 297.397 435.906 297.366 435.976 297.348C436.046 297.329 436.119 297.326 436.19 297.336C436.262 297.347 436.33 297.372 436.392 297.409C436.516 297.482 436.607 297.6 436.644 297.738C436.682 297.877 436.664 298.025 436.594 298.15C436.545 298.231 436.476 298.299 436.393 298.346C436.311 298.393 436.217 298.419 436.122 298.419C436.028 298.4 435.938 298.36 435.861 298.302L435.845 298.352ZM453.377 298.1C453.304 297.975 453.283 297.825 453.319 297.685C453.355 297.544 453.446 297.424 453.571 297.35C453.697 297.279 453.845 297.259 453.985 297.295C454.125 297.331 454.245 297.421 454.32 297.544C454.392 297.67 454.411 297.818 454.375 297.958C454.339 298.098 454.25 298.218 454.127 298.293C454.042 298.342 453.946 298.368 453.849 298.369C453.752 298.36 453.658 298.326 453.579 298.27C453.499 298.214 453.435 298.138 453.394 298.049L453.377 298.1ZM437.385 296.138C437.333 296.089 437.292 296.029 437.264 295.964C437.236 295.898 437.221 295.827 437.221 295.755C437.221 295.684 437.236 295.613 437.264 295.547C437.292 295.481 437.333 295.422 437.385 295.372C437.487 295.272 437.625 295.216 437.768 295.216C437.911 295.216 438.049 295.272 438.151 295.372C438.252 295.476 438.308 295.615 438.308 295.76C438.308 295.904 438.252 296.043 438.151 296.147C438.046 296.246 437.908 296.303 437.764 296.307C437.687 296.3 437.613 296.278 437.546 296.24C437.479 296.202 437.421 296.15 437.377 296.088L437.385 296.138ZM451.854 296.138C451.754 296.036 451.698 295.899 451.698 295.755C451.698 295.612 451.754 295.475 451.854 295.372C451.904 295.322 451.964 295.282 452.029 295.254C452.095 295.227 452.166 295.213 452.237 295.213C452.308 295.213 452.379 295.227 452.444 295.254C452.51 295.282 452.57 295.322 452.62 295.372C452.671 295.423 452.711 295.484 452.739 295.55C452.766 295.616 452.78 295.688 452.78 295.76C452.78 295.831 452.766 295.903 452.739 295.969C452.711 296.036 452.671 296.096 452.62 296.147C452.515 296.246 452.377 296.303 452.233 296.307C452.153 296.296 452.076 296.266 452.009 296.221C451.942 296.176 451.886 296.116 451.846 296.046L451.854 296.138ZM439.413 294.455C439.34 294.33 439.319 294.181 439.355 294.04C439.391 293.9 439.482 293.779 439.607 293.706C439.67 293.67 439.738 293.646 439.81 293.637C439.881 293.627 439.954 293.632 440.024 293.651C440.093 293.67 440.159 293.702 440.216 293.746C440.273 293.79 440.32 293.845 440.356 293.908C440.392 293.97 440.415 294.038 440.425 294.109C440.434 294.18 440.429 294.252 440.41 294.32C440.391 294.389 440.359 294.454 440.315 294.51C440.271 294.567 440.216 294.614 440.154 294.649C440.073 294.698 439.98 294.724 439.885 294.724C439.769 294.727 439.656 294.691 439.563 294.622C439.471 294.554 439.403 294.457 439.371 294.346L439.413 294.455ZM449.842 294.623C449.718 294.549 449.627 294.43 449.589 294.29C449.551 294.15 449.57 294.001 449.64 293.874C449.714 293.749 449.834 293.658 449.974 293.621C450.114 293.583 450.263 293.601 450.389 293.672C450.514 293.746 450.605 293.866 450.643 294.006C450.681 294.146 450.662 294.295 450.591 294.421C450.542 294.504 450.471 294.572 450.387 294.619C450.303 294.667 450.208 294.691 450.112 294.691C450.002 294.664 449.905 294.602 449.834 294.514L449.842 294.623ZM441.821 293.293C441.802 293.225 441.796 293.153 441.805 293.083C441.814 293.012 441.836 292.944 441.872 292.882C441.907 292.82 441.954 292.766 442.01 292.722C442.066 292.679 442.131 292.647 442.2 292.628C442.269 292.609 442.342 292.604 442.414 292.613C442.485 292.623 442.554 292.646 442.617 292.682C442.679 292.718 442.734 292.766 442.778 292.823C442.822 292.88 442.854 292.946 442.873 293.016C442.909 293.156 442.889 293.305 442.817 293.431C442.744 293.557 442.625 293.65 442.486 293.689C442.438 293.698 442.39 293.698 442.343 293.689C442.207 293.685 442.078 293.631 441.981 293.538C441.883 293.445 441.823 293.319 441.812 293.184L441.821 293.293ZM447.502 293.664C447.364 293.624 447.247 293.533 447.175 293.409C447.103 293.285 447.081 293.138 447.115 292.999C447.151 292.858 447.241 292.737 447.366 292.663C447.49 292.589 447.639 292.567 447.78 292.603C447.921 292.641 448.042 292.733 448.116 292.859C448.19 292.985 448.212 293.135 448.176 293.277C448.142 293.391 448.072 293.493 447.977 293.565C447.881 293.638 447.765 293.678 447.645 293.681L447.502 293.664ZM444.447 292.822C444.446 292.749 444.459 292.677 444.486 292.61C444.513 292.543 444.553 292.481 444.604 292.43C444.655 292.378 444.716 292.337 444.783 292.309C444.85 292.281 444.921 292.266 444.994 292.266C445.139 292.266 445.278 292.324 445.381 292.427C445.484 292.529 445.541 292.668 445.541 292.814C445.541 292.959 445.484 293.098 445.381 293.2C445.278 293.303 445.139 293.361 444.994 293.361C444.909 293.367 444.824 293.353 444.745 293.32C444.666 293.287 444.597 293.236 444.541 293.172C444.485 293.107 444.446 293.031 444.425 292.948C444.404 292.865 444.403 292.779 444.422 292.696L444.447 292.822Z" fill="#445C63"/>
    <path d="M448.353 303.47C448.353 304.136 448.155 304.786 447.785 305.34C447.415 305.894 446.89 306.325 446.274 306.58C445.659 306.835 444.982 306.902 444.329 306.772C443.676 306.642 443.076 306.321 442.605 305.85C442.134 305.379 441.814 304.78 441.684 304.126C441.554 303.473 441.621 302.796 441.875 302.181C442.13 301.566 442.562 301.04 443.115 300.67C443.669 300.3 444.32 300.103 444.986 300.103C445.879 300.103 446.735 300.457 447.367 301.089C447.998 301.72 448.353 302.577 448.353 303.47Z" fill="#445C63"/>
    <path d="M467.511 306.803C467.511 288.479 464.834 285.255 459.22 285.255H424.171C422.664 285.255 422.664 279.801 424.171 279.801H459.22C471.904 279.801 472.956 292.578 472.956 306.803C472.956 308.309 467.511 308.309 467.511 306.803Z" fill="#33C3C4"/>
    <path d="M459.22 282.528H423.026C423.026 283.892 423.405 285.255 424.154 285.255H459.203C464.817 285.255 467.494 288.479 467.494 306.803C467.494 307.56 468.849 307.939 470.213 307.939V306.803C470.229 290.533 468.479 282.528 459.22 282.528Z" fill="#359095"/>
    <path d="M378.365 275.197H328.048V306.811H378.365V275.197Z" fill="#445C63"/>
    <path d="M370.183 303.47C370.185 307.682 368.937 311.8 366.598 315.303C364.259 318.806 360.934 321.537 357.043 323.15C353.152 324.763 348.87 325.186 344.739 324.365C340.607 323.544 336.812 321.517 333.833 318.539C330.854 315.561 328.825 311.767 328.003 307.636C327.18 303.504 327.601 299.222 329.213 295.331C330.825 291.439 333.554 288.113 337.056 285.772C340.558 283.432 344.676 282.183 348.888 282.183C354.534 282.183 359.95 284.425 363.943 288.417C367.936 292.409 370.181 297.823 370.183 303.47Z" fill="#4C4578"/>
    <path d="M363.029 303.47C363.031 306.267 362.203 309.001 360.65 311.328C359.098 313.655 356.89 315.468 354.306 316.54C351.722 317.611 348.879 317.893 346.135 317.348C343.392 316.803 340.871 315.457 338.893 313.48C336.914 311.503 335.567 308.983 335.02 306.24C334.474 303.497 334.754 300.653 335.824 298.069C336.894 295.484 338.706 293.275 341.032 291.721C343.357 290.167 346.092 289.337 348.889 289.337C352.638 289.337 356.233 290.826 358.885 293.476C361.536 296.126 363.027 299.721 363.029 303.47Z" fill="#2A393F"/>
    <path d="M348.358 313.166C348.357 313.095 348.37 313.024 348.397 312.957C348.423 312.891 348.463 312.831 348.513 312.78C348.563 312.729 348.623 312.688 348.689 312.661C348.755 312.633 348.826 312.619 348.897 312.619C348.969 312.618 349.041 312.631 349.108 312.658C349.175 312.685 349.235 312.726 349.286 312.777C349.337 312.828 349.378 312.888 349.405 312.955C349.432 313.022 349.445 313.094 349.444 313.166C349.444 313.309 349.387 313.446 349.286 313.547C349.185 313.648 349.048 313.705 348.905 313.705C348.762 313.705 348.624 313.648 348.522 313.547C348.419 313.447 348.361 313.31 348.358 313.166ZM346.111 313.351C345.971 313.312 345.853 313.219 345.78 313.093C345.708 312.968 345.688 312.818 345.724 312.678C345.763 312.538 345.856 312.42 345.982 312.349C346.108 312.278 346.258 312.26 346.397 312.299C346.466 312.317 346.53 312.348 346.587 312.39C346.643 312.433 346.691 312.486 346.727 312.547C346.763 312.608 346.786 312.676 346.796 312.746C346.806 312.816 346.802 312.887 346.784 312.956C346.754 313.073 346.685 313.176 346.589 313.249C346.493 313.323 346.375 313.362 346.254 313.36H346.111V313.351ZM351.027 312.956C351.007 312.887 351.002 312.815 351.011 312.745C351.02 312.674 351.042 312.606 351.077 312.544C351.113 312.482 351.16 312.428 351.216 312.385C351.272 312.341 351.337 312.309 351.405 312.291C351.545 312.252 351.694 312.27 351.82 312.341C351.947 312.412 352.039 312.53 352.079 312.669C352.115 312.81 352.095 312.959 352.022 313.085C351.95 313.211 351.831 313.303 351.692 313.343H351.548C351.426 313.352 351.303 313.318 351.202 313.247C351.101 313.177 351.027 313.074 350.993 312.956H351.027ZM343.51 312.274C343.385 312.2 343.294 312.08 343.257 311.94C343.219 311.8 343.237 311.651 343.308 311.525C343.383 311.402 343.503 311.312 343.642 311.274C343.782 311.237 343.93 311.254 344.057 311.323C344.181 311.398 344.27 311.518 344.306 311.658C344.342 311.798 344.322 311.946 344.251 312.072C344.206 312.155 344.139 312.224 344.057 312.272C343.976 312.319 343.882 312.343 343.788 312.341C343.691 312.343 343.595 312.32 343.51 312.274ZM353.543 312.063C353.472 311.939 353.453 311.792 353.489 311.654C353.525 311.515 353.614 311.396 353.737 311.323C353.798 311.285 353.866 311.261 353.936 311.25C354.007 311.24 354.079 311.243 354.149 311.261C354.218 311.28 354.283 311.311 354.339 311.355C354.396 311.399 354.443 311.454 354.478 311.516C354.549 311.642 354.569 311.79 354.533 311.93C354.496 312.07 354.407 312.19 354.284 312.265C354.201 312.308 354.108 312.331 354.015 312.333C353.915 312.335 353.817 312.312 353.73 312.265C353.643 312.217 353.57 312.148 353.518 312.063H353.543ZM341.28 310.59C341.228 310.54 341.186 310.48 341.158 310.414C341.13 310.347 341.115 310.275 341.115 310.203C341.115 310.131 341.13 310.059 341.158 309.993C341.186 309.926 341.228 309.866 341.28 309.816C341.33 309.764 341.39 309.723 341.457 309.695C341.523 309.666 341.595 309.652 341.667 309.652C341.739 309.652 341.811 309.666 341.877 309.695C341.944 309.723 342.004 309.764 342.054 309.816C342.155 309.92 342.211 310.059 342.211 310.203C342.211 310.348 342.155 310.487 342.054 310.59C341.949 310.688 341.81 310.743 341.667 310.742C341.523 310.743 341.385 310.688 341.28 310.59ZM355.749 310.59C355.648 310.487 355.591 310.348 355.591 310.203C355.591 310.059 355.648 309.92 355.749 309.816C355.852 309.715 355.991 309.659 356.136 309.659C356.28 309.659 356.419 309.715 356.523 309.816C356.624 309.92 356.68 310.059 356.68 310.203C356.68 310.348 356.624 310.487 356.523 310.59C356.473 310.642 356.412 310.683 356.346 310.71C356.279 310.738 356.208 310.751 356.136 310.75C356.064 310.751 355.992 310.738 355.926 310.71C355.859 310.683 355.799 310.642 355.749 310.59ZM339.563 308.377C339.525 308.315 339.501 308.246 339.491 308.174C339.481 308.102 339.485 308.029 339.504 307.959C339.523 307.889 339.556 307.824 339.601 307.767C339.645 307.71 339.701 307.663 339.765 307.628C339.826 307.592 339.895 307.568 339.965 307.559C340.036 307.55 340.108 307.555 340.177 307.574C340.246 307.592 340.311 307.625 340.367 307.669C340.423 307.713 340.47 307.767 340.505 307.83C340.541 307.891 340.564 307.96 340.574 308.031C340.583 308.101 340.578 308.173 340.559 308.242C340.541 308.311 340.508 308.376 340.464 308.432C340.42 308.488 340.366 308.535 340.303 308.57C340.222 308.62 340.129 308.646 340.034 308.646C339.935 308.641 339.839 308.61 339.756 308.555C339.673 308.5 339.606 308.424 339.563 308.335V308.377ZM357.491 308.562C357.366 308.488 357.275 308.368 357.237 308.228C357.2 308.088 357.218 307.939 357.289 307.813C357.324 307.75 357.371 307.696 357.427 307.652C357.483 307.608 357.548 307.575 357.617 307.557C357.686 307.538 357.758 307.533 357.829 307.542C357.9 307.552 357.968 307.575 358.03 307.611C358.092 307.647 358.147 307.694 358.191 307.751C358.235 307.808 358.268 307.874 358.286 307.943C358.305 308.013 358.31 308.086 358.301 308.157C358.291 308.229 358.268 308.297 358.232 308.36C358.183 308.442 358.114 308.51 358.032 308.557C357.949 308.604 357.855 308.629 357.76 308.629C357.662 308.619 357.568 308.581 357.491 308.52V308.562ZM338.477 305.776C338.458 305.707 338.453 305.635 338.462 305.564C338.471 305.492 338.495 305.424 338.531 305.362C338.567 305.3 338.615 305.246 338.672 305.203C338.729 305.16 338.794 305.128 338.864 305.111C338.932 305.091 339.004 305.084 339.075 305.092C339.146 305.101 339.215 305.123 339.277 305.159C339.339 305.194 339.394 305.241 339.437 305.298C339.48 305.355 339.511 305.42 339.529 305.49C339.565 305.629 339.546 305.777 339.476 305.903C339.405 306.029 339.288 306.122 339.15 306.163H338.999C338.876 306.16 338.758 306.116 338.663 306.039C338.569 305.961 338.503 305.853 338.477 305.734V305.776ZM358.678 306.146C358.608 306.128 358.542 306.095 358.485 306.052C358.428 306.008 358.38 305.953 358.344 305.89C358.308 305.828 358.285 305.758 358.275 305.687C358.266 305.615 358.271 305.542 358.291 305.473C358.309 305.404 358.341 305.34 358.384 305.283C358.428 305.227 358.482 305.18 358.544 305.145C358.606 305.11 358.674 305.087 358.745 305.078C358.815 305.07 358.887 305.075 358.955 305.094C359.025 305.112 359.09 305.143 359.147 305.186C359.205 305.229 359.253 305.283 359.289 305.345C359.325 305.407 359.348 305.476 359.357 305.547C359.367 305.618 359.362 305.69 359.343 305.759C359.312 305.874 359.244 305.976 359.149 306.049C359.055 306.121 358.94 306.162 358.821 306.163L358.678 306.146ZM338.14 302.99C338.14 302.845 338.198 302.706 338.3 302.603C338.403 302.5 338.542 302.443 338.687 302.443C338.831 302.443 338.969 302.499 339.071 302.6C339.173 302.701 339.232 302.838 339.234 302.981C339.234 303.125 339.178 303.263 339.077 303.365C338.976 303.468 338.839 303.526 338.696 303.528C338.617 303.536 338.538 303.526 338.463 303.5C338.389 303.474 338.321 303.431 338.265 303.376C338.209 303.321 338.165 303.253 338.138 303.179C338.111 303.105 338.1 303.026 338.106 302.948L338.14 302.99ZM358.619 302.99C358.621 302.846 358.68 302.709 358.782 302.608C358.884 302.508 359.022 302.451 359.166 302.451C359.309 302.451 359.446 302.508 359.547 302.609C359.648 302.71 359.705 302.847 359.705 302.99C359.705 303.133 359.648 303.27 359.547 303.371C359.446 303.472 359.309 303.528 359.166 303.528C359.085 303.536 359.004 303.526 358.928 303.499C358.852 303.472 358.783 303.428 358.726 303.371C358.669 303.314 358.625 303.245 358.598 303.169C358.57 303.092 358.56 303.011 358.568 302.931L358.619 302.99ZM338.914 300.869C338.845 300.851 338.78 300.82 338.722 300.777C338.665 300.734 338.617 300.679 338.581 300.618C338.545 300.556 338.522 300.487 338.512 300.416C338.503 300.345 338.508 300.273 338.527 300.204C338.565 300.065 338.656 299.946 338.78 299.874C338.905 299.801 339.053 299.781 339.192 299.817C339.332 299.856 339.451 299.948 339.523 300.074C339.595 300.2 339.616 300.349 339.579 300.49C339.548 300.605 339.48 300.707 339.386 300.779C339.292 300.852 339.177 300.893 339.057 300.894C339.02 300.896 338.983 300.89 338.949 300.877C338.914 300.864 338.882 300.844 338.855 300.818L338.914 300.869ZM358.274 300.431C358.237 300.29 358.258 300.141 358.33 300.015C358.402 299.89 358.521 299.797 358.661 299.758C358.8 299.722 358.948 299.742 359.073 299.815C359.197 299.887 359.288 300.006 359.326 300.145C359.346 300.214 359.352 300.286 359.343 300.358C359.334 300.429 359.311 300.498 359.275 300.56C359.239 300.623 359.19 300.677 359.133 300.72C359.075 300.763 359.009 300.793 358.939 300.81C358.891 300.818 358.843 300.818 358.796 300.81C358.668 300.816 358.542 300.776 358.442 300.697C358.341 300.618 358.273 300.506 358.248 300.38L358.274 300.431ZM339.756 298.352C339.631 298.278 339.54 298.158 339.503 298.019C339.465 297.879 339.483 297.729 339.554 297.603C339.59 297.54 339.638 297.485 339.695 297.441C339.752 297.397 339.818 297.366 339.888 297.347C339.958 297.329 340.03 297.326 340.102 297.336C340.173 297.347 340.242 297.372 340.303 297.409C340.427 297.481 340.518 297.6 340.556 297.738C340.594 297.877 340.576 298.025 340.505 298.15C340.454 298.232 340.384 298.299 340.3 298.346C340.216 298.393 340.122 298.418 340.025 298.419C339.921 298.405 339.823 298.365 339.739 298.301L339.756 298.352ZM357.289 298.099C357.215 297.974 357.194 297.825 357.231 297.685C357.267 297.544 357.357 297.424 357.482 297.35C357.608 297.279 357.756 297.259 357.896 297.295C358.036 297.331 358.156 297.421 358.232 297.544C358.268 297.606 358.291 297.675 358.301 297.747C358.31 297.818 358.305 297.891 358.286 297.96C358.268 298.03 358.235 298.095 358.191 298.152C358.147 298.209 358.092 298.257 358.03 298.293C357.948 298.342 357.855 298.369 357.76 298.369C357.657 298.367 357.556 298.336 357.47 298.279C357.384 298.223 357.315 298.143 357.272 298.049L357.289 298.099ZM341.296 296.138C341.196 296.036 341.14 295.899 341.14 295.755C341.14 295.612 341.196 295.475 341.296 295.372C341.4 295.272 341.539 295.215 341.684 295.215C341.828 295.215 341.967 295.272 342.071 295.372C342.172 295.476 342.228 295.615 342.228 295.76C342.228 295.904 342.172 296.043 342.071 296.147C341.963 296.246 341.822 296.303 341.675 296.307C341.592 296.305 341.51 296.285 341.435 296.247C341.361 296.209 341.296 296.155 341.246 296.088L341.296 296.138ZM355.774 296.138C355.674 296.036 355.617 295.899 355.617 295.755C355.617 295.612 355.674 295.475 355.774 295.372C355.824 295.322 355.884 295.281 355.949 295.254C356.015 295.227 356.086 295.212 356.157 295.212C356.228 295.212 356.299 295.227 356.364 295.254C356.43 295.281 356.49 295.322 356.54 295.372C356.639 295.477 356.694 295.616 356.694 295.76C356.694 295.903 356.639 296.042 356.54 296.147C356.435 296.246 356.297 296.303 356.153 296.307C356.065 296.302 355.98 296.276 355.905 296.23C355.83 296.185 355.768 296.121 355.723 296.046L355.774 296.138ZM343.325 294.455C343.289 294.392 343.265 294.324 343.256 294.252C343.247 294.181 343.251 294.108 343.27 294.038C343.289 293.969 343.321 293.903 343.365 293.846C343.409 293.789 343.464 293.742 343.527 293.706C343.589 293.67 343.657 293.647 343.728 293.637C343.799 293.628 343.871 293.633 343.94 293.652C344.009 293.67 344.073 293.703 344.129 293.747C344.186 293.791 344.233 293.845 344.268 293.908C344.305 293.969 344.33 294.037 344.34 294.107C344.351 294.178 344.347 294.25 344.329 294.319C344.311 294.389 344.279 294.453 344.235 294.51C344.191 294.567 344.137 294.614 344.074 294.648C343.993 294.698 343.9 294.724 343.805 294.724C343.687 294.726 343.572 294.691 343.477 294.622C343.382 294.554 343.311 294.457 343.274 294.345L343.325 294.455ZM353.762 294.623C353.678 294.595 353.603 294.546 353.542 294.482C353.481 294.417 353.437 294.339 353.412 294.254C353.388 294.169 353.386 294.079 353.404 293.992C353.422 293.905 353.461 293.824 353.518 293.756C353.592 293.631 353.712 293.541 353.851 293.503C353.991 293.465 354.141 293.484 354.267 293.554C354.392 293.628 354.483 293.748 354.519 293.889C354.555 294.029 354.534 294.178 354.461 294.303C354.414 294.387 354.345 294.455 354.262 294.503C354.179 294.55 354.085 294.574 353.989 294.573C353.893 294.58 353.797 294.559 353.712 294.514L353.762 294.623ZM345.741 293.293C345.722 293.225 345.716 293.153 345.725 293.083C345.734 293.012 345.756 292.944 345.791 292.882C345.827 292.82 345.874 292.766 345.93 292.722C345.986 292.679 346.051 292.647 346.119 292.628C346.189 292.609 346.262 292.604 346.333 292.613C346.405 292.622 346.474 292.646 346.537 292.682C346.599 292.718 346.654 292.766 346.698 292.823C346.742 292.88 346.774 292.946 346.793 293.016C346.829 293.156 346.809 293.305 346.736 293.431C346.664 293.557 346.545 293.65 346.406 293.689C346.358 293.698 346.31 293.698 346.262 293.689C346.191 293.695 346.12 293.686 346.052 293.663C345.985 293.641 345.922 293.605 345.869 293.558C345.816 293.511 345.772 293.453 345.742 293.389C345.711 293.325 345.693 293.255 345.69 293.184L345.741 293.293ZM351.422 293.664C351.34 293.652 351.261 293.622 351.192 293.575C351.123 293.528 351.066 293.466 351.024 293.394C350.983 293.322 350.959 293.241 350.953 293.158C350.948 293.075 350.961 292.992 350.993 292.915C351.011 292.845 351.042 292.779 351.085 292.722C351.128 292.664 351.182 292.616 351.243 292.579C351.305 292.542 351.374 292.518 351.445 292.508C351.516 292.497 351.588 292.501 351.658 292.519C351.728 292.536 351.794 292.568 351.852 292.612C351.91 292.655 351.959 292.71 351.995 292.773C352.031 292.836 352.054 292.906 352.063 292.978C352.071 293.05 352.065 293.123 352.045 293.192C352.014 293.307 351.946 293.409 351.852 293.482C351.758 293.555 351.642 293.595 351.523 293.596L351.422 293.664ZM348.367 292.822C348.364 292.749 348.377 292.677 348.404 292.609C348.43 292.541 348.47 292.479 348.521 292.427C348.573 292.375 348.634 292.334 348.701 292.306C348.769 292.279 348.841 292.265 348.914 292.266C349.058 292.269 349.196 292.327 349.298 292.429C349.4 292.531 349.459 292.669 349.461 292.814C349.459 292.958 349.4 293.096 349.298 293.198C349.196 293.3 349.058 293.358 348.914 293.361C348.827 293.371 348.739 293.36 348.657 293.329C348.575 293.298 348.501 293.248 348.443 293.183C348.384 293.118 348.342 293.04 348.32 292.955C348.298 292.87 348.297 292.781 348.316 292.696L348.367 292.822Z" fill="#445C63"/>
    <path d="M352.231 303.47C352.231 304.136 352.033 304.786 351.663 305.34C351.293 305.894 350.768 306.325 350.152 306.58C349.537 306.835 348.86 306.902 348.207 306.772C347.554 306.642 346.954 306.321 346.483 305.85C346.012 305.379 345.692 304.78 345.562 304.126C345.432 303.473 345.499 302.796 345.753 302.181C346.008 301.566 346.44 301.04 346.993 300.67C347.547 300.3 348.198 300.103 348.864 300.103C349.757 300.103 350.613 300.457 351.245 301.089C351.876 301.72 352.231 302.577 352.231 303.47Z" fill="#445C63"/>
    <path d="M313.116 303.47C313.116 307.68 311.867 311.795 309.528 315.296C307.189 318.796 303.865 321.525 299.975 323.136C296.085 324.747 291.805 325.169 287.676 324.347C283.547 323.526 279.754 321.499 276.777 318.522C273.8 315.545 271.772 311.752 270.951 307.622C270.13 303.493 270.551 299.213 272.162 295.323C273.774 291.434 276.502 288.109 280.002 285.77C283.503 283.431 287.619 282.183 291.829 282.183C297.474 282.183 302.889 284.425 306.881 288.417C310.873 292.41 313.116 297.824 313.116 303.47Z" fill="#4C4578"/>
    <path d="M305.961 303.47C305.963 306.267 305.135 309.001 303.582 311.328C302.029 313.655 299.821 315.468 297.238 316.54C294.654 317.611 291.81 317.893 289.067 317.348C286.323 316.803 283.803 315.457 281.824 313.48C279.846 311.503 278.498 308.983 277.952 306.24C277.406 303.497 277.685 300.653 278.755 298.069C279.825 295.484 281.638 293.275 283.963 291.721C286.289 290.167 289.023 289.337 291.82 289.337C295.569 289.337 299.165 290.826 301.816 293.476C304.468 296.126 305.959 299.721 305.961 303.47Z" fill="#2A393F"/>
    <path d="M291.291 313.166C291.288 313.094 291.301 313.023 291.327 312.956C291.353 312.889 291.393 312.828 291.443 312.777C291.493 312.726 291.553 312.686 291.62 312.658C291.686 312.631 291.758 312.618 291.829 312.619C291.975 312.619 292.114 312.677 292.216 312.779C292.319 312.882 292.377 313.021 292.377 313.166C292.377 313.309 292.32 313.446 292.219 313.547C292.118 313.648 291.981 313.705 291.838 313.705C291.766 313.706 291.695 313.693 291.629 313.666C291.563 313.64 291.502 313.6 291.452 313.55C291.401 313.5 291.36 313.44 291.333 313.374C291.305 313.308 291.291 313.238 291.291 313.166ZM289.043 313.351C288.904 313.312 288.785 313.219 288.713 313.094C288.64 312.968 288.62 312.818 288.656 312.678C288.675 312.608 288.707 312.543 288.751 312.486C288.795 312.429 288.85 312.382 288.913 312.346C288.976 312.311 289.045 312.289 289.116 312.28C289.188 312.272 289.26 312.279 289.33 312.299C289.398 312.317 289.463 312.348 289.519 312.39C289.576 312.433 289.623 312.486 289.659 312.547C289.695 312.608 289.719 312.676 289.729 312.746C289.739 312.816 289.734 312.887 289.717 312.956C289.684 313.071 289.615 313.173 289.519 313.246C289.423 313.319 289.307 313.359 289.186 313.36H289.043V313.351ZM293.959 312.956C293.94 312.887 293.934 312.815 293.943 312.745C293.952 312.674 293.975 312.606 294.01 312.544C294.045 312.482 294.092 312.428 294.148 312.385C294.205 312.341 294.269 312.309 294.338 312.291C294.406 312.27 294.478 312.264 294.549 312.272C294.62 312.281 294.689 312.303 294.751 312.338C294.813 312.374 294.867 312.421 294.911 312.478C294.954 312.535 294.985 312.6 295.003 312.669C295.042 312.809 295.023 312.958 294.952 313.084C294.881 313.211 294.763 313.304 294.624 313.343H294.481C294.363 313.345 294.248 313.309 294.154 313.239C294.059 313.168 293.991 313.069 293.959 312.956ZM286.443 312.274C286.38 312.238 286.325 312.19 286.281 312.133C286.237 312.076 286.205 312.011 286.186 311.941C286.167 311.872 286.162 311.799 286.172 311.728C286.181 311.656 286.204 311.587 286.241 311.525C286.314 311.4 286.434 311.309 286.574 311.271C286.714 311.234 286.863 311.252 286.99 311.323C287.113 311.398 287.202 311.518 287.238 311.658C287.274 311.798 287.255 311.946 287.183 312.072C287.136 312.154 287.067 312.223 286.984 312.27C286.901 312.318 286.807 312.342 286.712 312.341C286.618 312.344 286.524 312.321 286.443 312.274ZM296.476 312.063C296.405 311.939 296.385 311.792 296.421 311.654C296.458 311.515 296.547 311.396 296.669 311.323C296.73 311.285 296.798 311.261 296.869 311.25C296.94 311.24 297.012 311.243 297.081 311.262C297.15 311.28 297.215 311.312 297.271 311.355C297.328 311.399 297.375 311.454 297.41 311.516C297.481 311.642 297.501 311.79 297.465 311.93C297.429 312.07 297.34 312.19 297.216 312.265C297.13 312.308 297.035 312.33 296.939 312.333C296.845 312.331 296.753 312.306 296.672 312.259C296.591 312.211 296.523 312.144 296.476 312.063ZM284.204 310.59C284.103 310.487 284.046 310.348 284.046 310.203C284.046 310.059 284.103 309.92 284.204 309.816C284.254 309.764 284.314 309.723 284.38 309.695C284.447 309.666 284.518 309.652 284.591 309.652C284.663 309.652 284.735 309.666 284.801 309.695C284.868 309.723 284.928 309.764 284.978 309.816C285.079 309.92 285.135 310.059 285.135 310.203C285.135 310.348 285.079 310.487 284.978 310.59C284.873 310.688 284.734 310.743 284.591 310.742C284.447 310.743 284.309 310.688 284.204 310.59ZM298.681 310.59C298.629 310.54 298.588 310.48 298.56 310.414C298.531 310.347 298.517 310.276 298.517 310.203C298.517 310.131 298.531 310.06 298.56 309.993C298.588 309.926 298.629 309.866 298.681 309.816C298.783 309.716 298.921 309.66 299.064 309.66C299.207 309.66 299.345 309.716 299.447 309.816C299.499 309.866 299.54 309.926 299.568 309.993C299.597 310.06 299.611 310.131 299.611 310.203C299.611 310.276 299.597 310.347 299.568 310.414C299.54 310.48 299.499 310.54 299.447 310.59C299.398 310.642 299.339 310.682 299.274 310.71C299.209 310.738 299.139 310.751 299.068 310.75C298.996 310.752 298.924 310.739 298.858 310.711C298.791 310.683 298.731 310.642 298.681 310.59ZM282.486 308.377C282.416 308.25 282.397 308.101 282.435 307.961C282.473 307.821 282.564 307.701 282.689 307.628C282.75 307.592 282.819 307.568 282.889 307.559C282.96 307.55 283.032 307.555 283.101 307.574C283.17 307.592 283.235 307.625 283.291 307.669C283.347 307.713 283.394 307.767 283.429 307.83C283.465 307.891 283.489 307.959 283.499 308.029C283.509 308.1 283.505 308.172 283.487 308.24C283.469 308.309 283.437 308.374 283.394 308.431C283.351 308.487 283.297 308.535 283.236 308.57C283.151 308.619 283.055 308.645 282.958 308.646C282.859 308.641 282.763 308.61 282.68 308.555C282.597 308.5 282.53 308.424 282.486 308.335V308.377ZM300.415 308.562C300.29 308.488 300.199 308.368 300.163 308.227C300.127 308.087 300.148 307.938 300.221 307.813C300.256 307.751 300.303 307.696 300.36 307.652C300.416 307.608 300.48 307.576 300.549 307.557C300.618 307.538 300.69 307.533 300.761 307.542C300.832 307.552 300.9 307.575 300.962 307.611C301.025 307.647 301.079 307.694 301.124 307.751C301.168 307.809 301.2 307.874 301.219 307.943C301.238 308.013 301.242 308.086 301.233 308.157C301.224 308.229 301.2 308.298 301.164 308.36C301.115 308.441 301.046 308.509 300.963 308.556C300.881 308.603 300.788 308.628 300.693 308.629C300.592 308.618 300.496 308.581 300.415 308.52V308.562ZM281.409 305.776C281.39 305.707 281.385 305.635 281.394 305.564C281.404 305.493 281.427 305.424 281.463 305.362C281.499 305.3 281.547 305.246 281.604 305.203C281.662 305.16 281.727 305.129 281.796 305.111C281.865 305.092 281.936 305.086 282.007 305.095C282.078 305.104 282.146 305.127 282.208 305.162C282.27 305.197 282.324 305.244 282.367 305.3C282.411 305.357 282.443 305.421 282.461 305.49C282.497 305.63 282.477 305.779 282.405 305.905C282.333 306.031 282.214 306.124 282.074 306.163H281.931C281.808 306.162 281.689 306.119 281.594 306.04C281.499 305.962 281.434 305.854 281.409 305.734V305.776ZM301.568 306.146C301.429 306.107 301.31 306.014 301.239 305.888C301.168 305.762 301.15 305.612 301.189 305.473C301.207 305.404 301.238 305.339 301.281 305.282C301.325 305.225 301.379 305.177 301.441 305.142C301.503 305.106 301.572 305.084 301.643 305.076C301.714 305.068 301.786 305.074 301.854 305.094C301.924 305.112 301.989 305.143 302.045 305.186C302.102 305.229 302.15 305.284 302.185 305.346C302.221 305.408 302.243 305.477 302.251 305.548C302.26 305.619 302.253 305.691 302.233 305.759C302.204 305.875 302.137 305.979 302.043 306.052C301.948 306.126 301.831 306.165 301.711 306.163L301.568 306.146ZM281.039 302.99C281.039 302.845 281.096 302.706 281.199 302.603C281.302 302.5 281.441 302.443 281.586 302.443C281.729 302.443 281.866 302.499 281.967 302.601C282.068 302.702 282.125 302.839 282.125 302.981C282.126 303.053 282.113 303.124 282.086 303.19C282.059 303.256 282.02 303.317 281.97 303.368C281.92 303.419 281.86 303.459 281.794 303.487C281.728 303.514 281.657 303.529 281.586 303.529C281.511 303.53 281.436 303.516 281.367 303.486C281.298 303.457 281.235 303.414 281.184 303.359C281.132 303.305 281.093 303.24 281.068 303.169C281.043 303.098 281.033 303.023 281.039 302.948V302.99ZM301.509 302.99C301.511 302.846 301.57 302.709 301.672 302.608C301.775 302.508 301.913 302.451 302.056 302.451C302.128 302.45 302.199 302.463 302.265 302.49C302.331 302.516 302.392 302.556 302.443 302.606C302.493 302.656 302.534 302.716 302.562 302.782C302.589 302.848 302.603 302.918 302.603 302.99C302.601 303.133 302.542 303.27 302.44 303.371C302.338 303.472 302.2 303.529 302.056 303.529C301.98 303.529 301.904 303.513 301.834 303.483C301.765 303.452 301.702 303.407 301.65 303.351C301.599 303.295 301.56 303.228 301.535 303.156C301.511 303.084 301.502 303.007 301.509 302.931V302.99ZM281.813 300.869C281.743 300.852 281.677 300.821 281.619 300.779C281.56 300.736 281.511 300.682 281.475 300.62C281.438 300.558 281.414 300.489 281.404 300.418C281.394 300.346 281.399 300.273 281.418 300.204C281.457 300.064 281.549 299.945 281.675 299.873C281.801 299.801 281.95 299.78 282.091 299.817C282.231 299.856 282.349 299.949 282.422 300.074C282.494 300.2 282.514 300.349 282.478 300.49C282.447 300.606 282.377 300.709 282.282 300.782C282.186 300.855 282.068 300.894 281.948 300.894C281.887 300.889 281.83 300.862 281.788 300.818L281.813 300.869ZM301.172 300.431C301.136 300.29 301.156 300.141 301.229 300.015C301.301 299.89 301.42 299.797 301.56 299.758C301.629 299.739 301.701 299.734 301.772 299.743C301.843 299.752 301.911 299.776 301.973 299.812C302.035 299.848 302.089 299.896 302.133 299.953C302.176 300.01 302.207 300.075 302.225 300.145C302.245 300.213 302.251 300.285 302.243 300.356C302.235 300.427 302.212 300.496 302.177 300.558C302.142 300.62 302.094 300.675 302.037 300.718C301.98 300.761 301.915 300.792 301.846 300.81C301.798 300.818 301.75 300.818 301.703 300.81C301.579 300.809 301.459 300.766 301.362 300.688C301.266 300.61 301.199 300.502 301.172 300.381V300.431ZM282.655 298.352C282.53 298.278 282.439 298.159 282.401 298.019C282.364 297.879 282.382 297.729 282.453 297.603C282.488 297.54 282.536 297.485 282.594 297.441C282.651 297.397 282.717 297.366 282.786 297.348C282.856 297.329 282.929 297.326 283 297.336C283.072 297.347 283.14 297.372 283.202 297.409C283.264 297.444 283.319 297.491 283.363 297.548C283.407 297.604 283.439 297.668 283.458 297.737C283.477 297.806 283.482 297.878 283.472 297.949C283.463 298.02 283.44 298.088 283.404 298.15C283.356 298.232 283.287 298.3 283.204 298.347C283.121 298.395 283.028 298.419 282.933 298.419C282.835 298.4 282.743 298.36 282.663 298.302L282.655 298.352ZM300.188 298.1C300.114 297.975 300.093 297.825 300.129 297.685C300.166 297.544 300.256 297.424 300.381 297.35C300.507 297.279 300.655 297.259 300.795 297.295C300.935 297.331 301.055 297.421 301.13 297.544C301.202 297.67 301.222 297.818 301.185 297.958C301.149 298.098 301.06 298.218 300.937 298.293C300.856 298.342 300.762 298.369 300.667 298.369C300.567 298.362 300.471 298.329 300.388 298.273C300.306 298.217 300.239 298.139 300.196 298.049L300.188 298.1ZM284.195 296.138C284.095 296.036 284.039 295.899 284.039 295.755C284.039 295.612 284.095 295.475 284.195 295.372C284.297 295.272 284.435 295.216 284.578 295.216C284.721 295.216 284.859 295.272 284.961 295.372C285.012 295.423 285.052 295.484 285.08 295.55C285.108 295.616 285.122 295.688 285.122 295.76C285.122 295.831 285.108 295.903 285.08 295.969C285.052 296.036 285.012 296.096 284.961 296.147C284.856 296.246 284.718 296.303 284.574 296.307C284.496 296.302 284.42 296.279 284.352 296.242C284.283 296.204 284.224 296.151 284.178 296.088L284.195 296.138ZM298.664 296.138C298.564 296.036 298.508 295.899 298.508 295.755C298.508 295.612 298.564 295.475 298.664 295.372C298.715 295.321 298.775 295.281 298.842 295.254C298.908 295.226 298.979 295.212 299.051 295.212C299.123 295.212 299.194 295.226 299.261 295.254C299.327 295.281 299.388 295.321 299.438 295.372C299.539 295.476 299.596 295.615 299.596 295.76C299.596 295.904 299.539 296.043 299.438 296.147C299.334 296.247 299.196 296.304 299.051 296.307C298.968 296.298 298.888 296.27 298.818 296.225C298.748 296.179 298.689 296.118 298.647 296.046L298.664 296.138ZM286.224 294.455C286.15 294.33 286.129 294.181 286.165 294.04C286.202 293.9 286.292 293.779 286.417 293.706C286.48 293.67 286.549 293.646 286.62 293.637C286.692 293.627 286.764 293.632 286.834 293.651C286.903 293.67 286.969 293.702 287.026 293.746C287.083 293.79 287.131 293.845 287.166 293.908C287.237 294.032 287.257 294.179 287.221 294.318C287.185 294.456 287.096 294.575 286.973 294.649C286.888 294.697 286.793 294.723 286.695 294.724C286.58 294.724 286.469 294.687 286.376 294.619C286.284 294.551 286.216 294.455 286.182 294.346L286.224 294.455ZM296.652 294.623C296.528 294.549 296.437 294.43 296.399 294.29C296.361 294.15 296.38 294.001 296.45 293.874C296.524 293.749 296.644 293.658 296.784 293.621C296.924 293.583 297.073 293.601 297.2 293.672C297.324 293.746 297.415 293.866 297.453 294.006C297.491 294.146 297.472 294.295 297.402 294.421C297.354 294.504 297.285 294.572 297.202 294.62C297.119 294.667 297.026 294.691 296.93 294.691C296.816 294.664 296.713 294.602 296.636 294.514L296.652 294.623ZM288.631 293.293C288.612 293.224 288.607 293.152 288.616 293.081C288.625 293.01 288.649 292.941 288.685 292.88C288.721 292.818 288.769 292.764 288.826 292.72C288.883 292.677 288.949 292.646 289.018 292.628C289.087 292.609 289.159 292.604 289.23 292.614C289.302 292.623 289.37 292.646 289.432 292.682C289.494 292.718 289.548 292.766 289.591 292.824C289.634 292.881 289.666 292.946 289.683 293.016C289.719 293.156 289.699 293.305 289.627 293.431C289.554 293.557 289.436 293.65 289.296 293.689C289.251 293.697 289.206 293.697 289.161 293.689C289.023 293.689 288.89 293.638 288.789 293.544C288.687 293.45 288.625 293.322 288.614 293.184L288.631 293.293ZM294.312 293.664C294.175 293.624 294.057 293.533 293.985 293.409C293.913 293.285 293.892 293.138 293.925 292.999C293.943 292.929 293.974 292.864 294.017 292.806C294.06 292.749 294.114 292.7 294.176 292.663C294.238 292.627 294.306 292.602 294.377 292.592C294.448 292.582 294.521 292.585 294.59 292.603C294.732 292.641 294.852 292.733 294.926 292.859C295 292.985 295.022 293.135 294.986 293.277C294.953 293.392 294.884 293.494 294.788 293.567C294.692 293.64 294.576 293.68 294.456 293.681L294.312 293.664ZM291.266 292.822C291.263 292.75 291.276 292.678 291.302 292.611C291.328 292.543 291.367 292.482 291.417 292.43C291.467 292.378 291.528 292.337 291.594 292.309C291.661 292.281 291.732 292.266 291.804 292.266C291.949 292.266 292.088 292.324 292.191 292.427C292.294 292.529 292.351 292.668 292.351 292.814C292.351 292.959 292.294 293.098 292.191 293.2C292.088 293.303 291.949 293.361 291.804 293.361C291.719 293.369 291.633 293.356 291.553 293.324C291.473 293.291 291.403 293.241 291.347 293.176C291.291 293.111 291.251 293.033 291.231 292.95C291.211 292.866 291.211 292.779 291.232 292.696L291.266 292.822Z" fill="#445C63"/>
    <path d="M295.155 303.47C295.155 304.136 294.957 304.786 294.587 305.34C294.217 305.894 293.691 306.325 293.076 306.58C292.461 306.835 291.784 306.902 291.131 306.772C290.478 306.642 289.878 306.321 289.407 305.85C288.936 305.379 288.616 304.78 288.486 304.126C288.356 303.473 288.422 302.796 288.677 302.181C288.932 301.566 289.364 301.04 289.917 300.67C290.471 300.3 291.122 300.103 291.788 300.103C292.681 300.103 293.537 300.457 294.168 301.089C294.8 301.72 295.155 302.577 295.155 303.47Z" fill="#445C63"/>
    <path d="M314.076 305.852C314.076 290.701 305.549 281.341 291.821 281.341C278.092 281.341 269.566 290.735 269.566 305.852C269.566 307.358 264.12 307.358 264.12 305.852C264.12 296.786 266.83 289.169 271.965 283.816C276.939 278.631 283.808 275.895 291.821 275.895C299.834 275.895 306.694 278.631 311.677 283.816C316.811 289.169 319.521 296.786 319.521 305.852C319.521 307.358 314.076 307.358 314.076 305.852Z" fill="#33C3C4"/>
    <path d="M291.82 278.606C277.427 278.606 266.821 288.437 266.821 305.852V306.988C268.185 306.988 269.548 306.609 269.548 305.852C269.548 290.701 278.075 281.341 291.803 281.341C305.531 281.341 314.058 290.735 314.058 305.852C314.058 306.609 315.413 306.988 316.777 306.988V305.852C316.794 288.437 306.213 278.606 291.82 278.606Z" fill="#359095"/>
    <path d="M371.143 305.852C371.143 290.701 362.616 281.341 348.888 281.341C335.16 281.341 326.642 290.735 326.642 305.852C326.642 307.358 321.188 307.358 321.188 305.852C321.188 296.786 323.906 289.169 329.041 283.816C334.015 278.631 340.883 275.895 348.888 275.895C356.893 275.895 363.77 278.631 368.744 283.816C373.878 289.169 376.597 296.786 376.597 305.852C376.597 307.358 371.143 307.358 371.143 305.852Z" fill="#33C3C4"/>
    <path d="M348.889 278.606C334.504 278.606 323.915 288.42 323.915 305.835V306.971C325.279 306.971 326.642 306.592 326.642 305.835C326.642 290.684 335.169 281.324 348.889 281.324C362.608 281.324 371.143 290.718 371.143 305.835C371.143 306.592 372.507 306.971 373.87 306.971V305.835C373.87 288.437 363.282 278.606 348.889 278.606Z" fill="#359095"/>
    <path d="M516.498 295.288H474.488C474.186 295.288 473.941 295.533 473.941 295.835V307.51C473.941 307.812 474.186 308.057 474.488 308.057H516.498C516.8 308.057 517.045 307.812 517.045 307.51V295.835C517.045 295.533 516.8 295.288 516.498 295.288Z" fill="#33C3C4"/>
    <path d="M473.941 301.988V307.51C473.941 307.655 473.999 307.794 474.102 307.897C474.204 307.999 474.343 308.057 474.488 308.057H516.498C516.643 308.057 516.782 307.999 516.885 307.897C516.988 307.794 517.045 307.655 517.045 307.51V301.988H473.941Z" fill="#359095"/>
    <path d="M339.36 311.323C338.552 307.892 336.609 304.836 333.846 302.648C331.083 300.46 327.662 299.27 324.138 299.27C320.614 299.27 317.193 300.46 314.43 302.648C311.667 304.836 309.724 307.892 308.916 311.323H302.881C304.295 301.315 313.284 293.571 324.142 293.571C335 293.571 343.99 301.315 345.396 311.323H339.36Z" fill="#051616"/>
    <path d="M310.364 314.496C310.364 311.465 311.263 308.501 312.946 305.98C314.629 303.459 317.022 301.493 319.822 300.331C322.622 299.17 325.703 298.863 328.677 299.452C331.65 300.04 334.383 301.497 336.529 303.637C338.676 305.778 340.14 308.506 340.736 311.478C341.333 314.45 341.035 317.533 339.881 320.336C338.726 323.139 336.767 325.537 334.251 327.227C331.735 328.917 328.774 329.824 325.742 329.832C323.725 329.837 321.726 329.445 319.861 328.677C317.995 327.908 316.299 326.78 314.871 325.355C313.442 323.93 312.309 322.238 311.536 320.375C310.762 318.511 310.364 316.513 310.364 314.496Z" fill="#051616"/>
    <path d="M315.817 314.496C315.816 312.541 316.394 310.629 317.478 309.003C318.562 307.376 320.104 306.107 321.909 305.356C323.714 304.605 325.701 304.406 327.619 304.784C329.538 305.162 331.301 306.1 332.686 307.479C334.071 308.859 335.017 310.618 335.403 312.534C335.789 314.451 335.598 316.439 334.855 318.247C334.112 320.055 332.85 321.603 331.227 322.694C329.605 323.785 327.696 324.371 325.741 324.378C324.44 324.383 323.15 324.132 321.947 323.638C320.743 323.143 319.649 322.416 318.727 321.498C317.804 320.58 317.073 319.489 316.574 318.287C316.074 317.086 315.817 315.797 315.817 314.496Z" fill="#030C0B"/>
    <path d="M321.264 314.496C321.264 313.619 321.524 312.761 322.011 312.032C322.499 311.302 323.191 310.734 324.002 310.398C324.813 310.062 325.704 309.974 326.565 310.145C327.425 310.317 328.216 310.739 328.836 311.359C329.456 311.98 329.879 312.77 330.05 313.631C330.221 314.491 330.133 315.383 329.798 316.193C329.462 317.004 328.893 317.697 328.164 318.184C327.434 318.672 326.577 318.932 325.699 318.932C324.524 318.93 323.397 318.462 322.565 317.63C321.734 316.799 321.266 315.672 321.264 314.496Z" fill="#051616"/>
    <path d="M341.272 311.323C340.464 307.892 338.521 304.836 335.758 302.648C332.995 300.46 329.574 299.27 326.049 299.27C322.525 299.27 319.104 300.46 316.341 302.648C313.578 304.836 311.635 307.892 310.827 311.323H304.792C306.206 301.315 315.196 293.571 326.054 293.571C336.912 293.571 345.943 301.332 347.307 311.323H341.272Z" fill="#0F2C2A"/>
    <path d="M197.449 253.278C208.62 253.278 217.675 244.223 217.675 233.052C217.675 221.882 208.62 212.826 197.449 212.826C186.278 212.826 177.223 221.882 177.223 233.052C177.223 244.223 186.278 253.278 197.449 253.278Z" fill="#B36D2D"/>
    <path d="M177.222 261.098C188.393 261.098 197.449 252.042 197.449 240.872C197.449 229.701 188.393 220.646 177.222 220.646C166.052 220.646 156.996 229.701 156.996 240.872C156.996 252.042 166.052 261.098 177.222 261.098Z" fill="#98492F"/>
    <path d="M147.888 259.633C159.059 259.633 168.115 250.578 168.115 239.407C168.115 228.237 159.059 219.181 147.888 219.181C136.718 219.181 127.662 228.237 127.662 239.407C127.662 250.578 136.718 259.633 147.888 259.633Z" fill="#B36D2D"/>
    <path d="M127.654 271.232C138.825 271.232 147.88 262.177 147.88 251.006C147.88 239.835 138.825 230.78 127.654 230.78C116.483 230.78 107.428 239.835 107.428 251.006C107.428 262.177 116.483 271.232 127.654 271.232Z" fill="#98492F"/>
    <path d="M220.032 256.435C228.627 256.435 235.595 249.467 235.595 240.872C235.595 232.276 228.627 225.309 220.032 225.309C211.437 225.309 204.469 232.276 204.469 240.872C204.469 249.467 211.437 256.435 220.032 256.435Z" fill="#98492F"/>
    <path d="M267.757 312.072H361.843L361.085 264.238C361.035 261.522 360.463 258.842 359.402 256.342L346.852 226.42C345.475 223.173 343.172 220.404 340.23 218.458C337.289 216.512 333.839 215.475 330.313 215.477H267.757V312.072Z" fill="#0F2C2A" stroke="#0F2C2A" stroke-width="0.54711" stroke-miterlimit="10"/>
    <path d="M247.354 312.072H320.229V264.297C320.216 261.482 319.644 258.698 318.545 256.107L303.942 221.218C303.279 219.524 302.122 218.069 300.62 217.042C299.119 216.015 297.343 215.464 295.524 215.461H247.354V312.072Z" fill="#1C4A45" stroke="#0F2C2A" stroke-width="0.505025" stroke-miterlimit="10"/>
    <path d="M323.309 251.006H351.27L341.709 227.8H312.931L323.309 251.006Z" fill="#6FF8DC"/>
    <path d="M252.446 249.322H274.162V226.108H252.446V249.322Z" fill="#6FF8DC"/>
    <path d="M279.061 249.322H311.736L300.777 226.117H279.061V249.322Z" fill="#6FF8DC"/>
    <path d="M325.102 275.028H359.141V268.598H325.102V275.028Z" fill="#051616"/>
    <path d="M325.102 282.166H359.141V280.525H325.102V282.166Z" fill="#051616"/>
    <path d="M325.102 286.139H359.141V284.497H325.102V286.139Z" fill="#051616"/>
    <path d="M325.102 290.103H359.141V288.462H325.102V290.103Z" fill="#051616"/>
    <path d="M352.71 308.2H359.141V301.769H352.71V308.2Z" fill="#051616"/>
    <path d="M324.958 308.2H331.389V301.769H324.958V308.2Z" fill="#051616"/>
    <path d="M295.911 311.701C295.11 308.265 293.17 305.201 290.406 303.007C287.642 300.814 284.217 299.62 280.689 299.62C277.16 299.62 273.736 300.814 270.972 303.007C268.208 305.201 266.268 308.265 265.467 311.701H259.432C260.837 301.685 269.835 293.941 280.685 293.941C291.534 293.941 300.541 301.685 301.946 311.701H295.911Z" fill="#051616"/>
    <path d="M266.915 314.866C266.915 311.833 267.814 308.868 269.5 306.346C271.185 303.824 273.58 301.859 276.382 300.698C279.184 299.537 282.268 299.233 285.243 299.825C288.218 300.417 290.95 301.877 293.095 304.022C295.24 306.167 296.7 308.9 297.292 311.874C297.884 314.849 297.58 317.933 296.42 320.735C295.259 323.537 293.293 325.933 290.771 327.618C288.249 329.303 285.284 330.202 282.251 330.202C280.237 330.202 278.243 329.806 276.382 329.035C274.522 328.264 272.831 327.135 271.407 325.71C269.983 324.286 268.853 322.596 268.082 320.735C267.312 318.875 266.915 316.88 266.915 314.866Z" fill="#051616"/>
    <path d="M272.36 314.866C272.36 312.91 272.94 310.998 274.027 309.372C275.114 307.745 276.658 306.478 278.466 305.729C280.273 304.981 282.261 304.785 284.18 305.166C286.098 305.548 287.861 306.49 289.244 307.873C290.627 309.256 291.569 311.018 291.95 312.937C292.332 314.855 292.136 316.844 291.388 318.651C290.639 320.458 289.371 322.003 287.745 323.09C286.119 324.176 284.206 324.756 282.25 324.756C279.627 324.756 277.112 323.714 275.257 321.86C273.402 320.005 272.36 317.489 272.36 314.866Z" fill="#030C0B"/>
    <path d="M277.808 314.866C277.806 313.987 278.065 313.127 278.553 312.395C279.04 311.663 279.733 311.092 280.545 310.754C281.357 310.417 282.251 310.328 283.114 310.498C283.976 310.669 284.769 311.091 285.391 311.712C286.014 312.334 286.438 313.125 286.61 313.988C286.782 314.85 286.695 315.744 286.359 316.557C286.022 317.369 285.453 318.064 284.722 318.553C283.991 319.041 283.131 319.302 282.252 319.302C281.075 319.302 279.945 318.835 279.112 318.003C278.279 317.172 277.81 316.044 277.808 314.866Z" fill="#051616"/>
    <path d="M297.821 311.701C297.02 308.265 295.08 305.201 292.316 303.007C289.552 300.814 286.128 299.62 282.599 299.62C279.071 299.62 275.646 300.814 272.882 303.007C270.118 305.201 268.178 308.265 267.377 311.701H261.342C262.747 301.685 271.737 293.941 282.595 293.941C293.453 293.941 302.442 301.685 303.856 311.701H297.821Z" fill="#0F2C2A"/>
    <path d="M186.246 311.701C185.442 308.269 183.501 305.21 180.738 303.02C177.975 300.83 174.554 299.638 171.028 299.638C167.503 299.638 164.081 300.83 161.318 303.02C158.556 305.21 156.615 308.269 155.81 311.701H149.767C151.181 301.685 160.17 293.941 171.028 293.941C181.886 293.941 190.876 301.685 192.29 311.701H186.246Z" fill="#051616"/>
    <path d="M157.249 314.866C157.249 311.832 158.149 308.865 159.836 306.343C161.523 303.82 163.92 301.854 166.724 300.695C169.528 299.535 172.613 299.233 175.589 299.828C178.565 300.422 181.298 301.886 183.441 304.034C185.584 306.182 187.042 308.918 187.63 311.895C188.218 314.872 187.91 317.957 186.744 320.759C185.578 323.56 183.607 325.953 181.081 327.634C178.554 329.315 175.586 330.209 172.551 330.202C168.49 330.193 164.598 328.574 161.729 325.699C158.86 322.824 157.249 318.928 157.249 314.866Z" fill="#051616"/>
    <path d="M162.703 314.866C162.703 312.908 163.284 310.995 164.373 309.367C165.461 307.74 167.009 306.472 168.818 305.725C170.628 304.978 172.619 304.784 174.538 305.169C176.458 305.554 178.22 306.501 179.601 307.888C180.983 309.275 181.921 311.042 182.298 312.963C182.675 314.884 182.473 316.874 181.718 318.68C180.963 320.487 179.689 322.028 178.057 323.11C176.425 324.192 174.509 324.765 172.551 324.756C169.935 324.747 167.429 323.701 165.583 321.847C163.736 319.993 162.701 317.483 162.703 314.866Z" fill="#030C0B"/>
    <path d="M168.148 314.866C168.148 313.989 168.409 313.131 168.896 312.402C169.383 311.672 170.076 311.104 170.887 310.768C171.697 310.432 172.589 310.345 173.45 310.516C174.31 310.687 175.1 311.109 175.721 311.73C176.341 312.35 176.764 313.141 176.935 314.001C177.106 314.861 177.018 315.753 176.682 316.564C176.347 317.374 175.778 318.067 175.049 318.555C174.319 319.042 173.462 319.302 172.584 319.302C171.408 319.302 170.28 318.835 169.448 318.003C168.616 317.171 168.148 316.043 168.148 314.866Z" fill="#051616"/>
    <path d="M188.156 311.701C187.355 308.265 185.415 305.201 182.651 303.007C179.887 300.814 176.463 299.62 172.934 299.62C169.406 299.62 165.981 300.814 163.217 303.007C160.453 305.201 158.513 308.265 157.712 311.701H151.677C153.091 301.685 162.08 293.941 172.938 293.941C183.796 293.941 192.786 301.685 194.191 311.701H188.156Z" fill="#0F2C2A"/>
    <path d="M114.195 312.072H247.354V255.433H114.195V312.072Z" fill="#0F2C2A" stroke="#0F2C2A" stroke-width="0.54711" stroke-miterlimit="10"/>
    <path d="M100.635 291.063H242.379V240.88H100.635V291.063Z" fill="#F6B744"/>
    <path d="M100.635 254.465L242.379 254.465V248.27L100.635 248.27V254.465Z" fill="#F8C556"/>
    <path d="M100.888 269.818H242.632V263.623H100.888V269.818Z" fill="#F8C556"/>
    <path d="M100.888 285.179H242.632V278.984H100.888V285.179Z" fill="#F8C556"/>
    <path d="M280.466 256.788H293.294V255.433H280.466V256.788Z" fill="#051616"/>
    <path d="M252.791 256.788H265.618V255.433H252.791V256.788Z" fill="#051616"/>
    <path d="M163.242 311.701C162.438 308.269 160.497 305.21 157.734 303.02C154.971 300.83 151.55 299.638 148.024 299.638C144.499 299.638 141.077 300.83 138.314 303.02C135.552 305.21 133.611 308.269 132.806 311.701H126.763C128.177 301.685 137.166 293.941 148.024 293.941C158.882 293.941 167.872 301.685 169.286 311.701H163.242Z" fill="#051616"/>
    <path d="M134.244 314.866C134.244 311.833 135.144 308.868 136.829 306.346C138.514 303.824 140.909 301.859 143.711 300.698C146.514 299.537 149.597 299.233 152.572 299.825C155.547 300.417 158.279 301.877 160.424 304.022C162.569 306.167 164.03 308.9 164.621 311.874C165.213 314.849 164.909 317.933 163.749 320.735C162.588 323.537 160.622 325.933 158.1 327.618C155.578 329.303 152.613 330.202 149.58 330.202C145.513 330.202 141.612 328.587 138.736 325.71C135.86 322.834 134.244 318.934 134.244 314.866Z" fill="#051616"/>
    <path d="M139.724 314.866C139.724 312.91 140.304 310.997 141.391 309.371C142.478 307.744 144.023 306.477 145.831 305.728C147.639 304.98 149.628 304.785 151.546 305.167C153.465 305.549 155.227 306.492 156.61 307.876C157.993 309.26 158.934 311.023 159.315 312.942C159.695 314.861 159.498 316.85 158.749 318.657C157.999 320.464 156.73 322.008 155.102 323.094C153.475 324.18 151.562 324.758 149.605 324.756C146.984 324.754 144.47 323.711 142.617 321.857C140.764 320.002 139.724 317.488 139.724 314.866Z" fill="#030C0B"/>
    <path d="M145.146 314.866C145.146 313.989 145.406 313.131 145.893 312.402C146.38 311.672 147.073 311.104 147.884 310.768C148.694 310.432 149.586 310.345 150.447 310.516C151.307 310.687 152.098 311.109 152.718 311.73C153.338 312.35 153.761 313.141 153.932 314.001C154.103 314.861 154.015 315.753 153.679 316.564C153.344 317.374 152.775 318.067 152.046 318.555C151.316 319.042 150.459 319.302 149.581 319.302C148.405 319.302 147.277 318.835 146.445 318.003C145.613 317.171 145.146 316.043 145.146 314.866Z" fill="#051616"/>
    <path d="M165.152 311.701C164.351 308.265 162.411 305.201 159.647 303.007C156.883 300.814 153.459 299.62 149.93 299.62C146.402 299.62 142.977 300.814 140.213 303.007C137.449 305.201 135.509 308.265 134.708 311.701H128.673C130.087 301.685 139.076 293.941 149.934 293.941C160.792 293.941 169.782 301.685 171.188 311.701H165.152Z" fill="#1C4A45" stroke="#0F2C2A" stroke-width="0.505025" stroke-miterlimit="10"/>
    <path d="M388.71 310.431H356.952V334.386H388.71V310.431Z" fill="#EA9633"/>
    <path d="M388.702 310.431H379.174V334.386H388.702V310.431Z" fill="#CA791E"/>
    <path d="M370.377 310.431H365.47V315.918H370.377V310.431Z" fill="#374A3A"/>
    <path d="M385.385 310.431H382.507V315.918H385.385V310.431Z" fill="#374A3A"/>
    <path d="M371.177 330.354L369.603 328.552L368.029 330.354H368.837V332.079H370.369V330.354H371.177Z" fill="#374A3A"/>
    <path d="M367.819 330.354L366.245 328.552L364.671 330.354H365.479V332.079H367.011V330.354H367.819Z" fill="#374A3A"/>
    <path d="M401.26 286.467H369.502V310.422H401.26V286.467Z" fill="#EA9633"/>
    <path d="M401.252 286.467H391.724V310.422H401.252V286.467Z" fill="#CA791E"/>
    <path d="M382.928 286.467H378.021V291.955H382.928V286.467Z" fill="#374A3A"/>
    <path d="M397.935 286.467H395.057V291.955H397.935V286.467Z" fill="#374A3A"/>
    <path d="M383.727 306.39L382.153 304.598L380.579 306.39H381.387V308.124H382.919V306.39H383.727Z" fill="#374A3A"/>
    <path d="M380.369 306.39L378.795 304.597L377.221 306.39H378.029V308.124H379.561V306.39H380.369Z" fill="#374A3A"/>
    <path d="M420.417 310.431H388.659V334.386H420.417V310.431Z" fill="#EA9633"/>
    <path d="M420.409 310.431H410.881V334.386H420.409V310.431Z" fill="#CA791E"/>
    <path d="M402.076 310.431H397.169V315.918H402.076V310.431Z" fill="#374A3A"/>
    <path d="M417.084 310.431H414.205V315.918H417.084V310.431Z" fill="#374A3A"/>
    <path d="M402.877 330.354L401.303 328.552L399.729 330.354H400.537V332.079H402.077V330.354H402.877Z" fill="#374A3A"/>
    <path d="M399.517 330.354L397.952 328.552L396.378 330.354H397.178V332.079H398.718V330.354H399.517Z" fill="#374A3A"/>
    </g>
    <defs>
    <clipPath id="clip0_2739_49749">
    <rect width="559.736" height="335" fill="white"/>
    </clipPath>
    </defs>
    </svg>
    