<svg width="562" height="300" viewBox="0 0 562 300" fill="none" xmlns="http://www.w3.org/2000/svg">
<path d="M307.397 252L562 252V0L19 0L76.5865 111.201C88.1275 133.487 111.116 147.477 136.196 147.477H155.195C174.58 147.477 193.019 155.863 205.77 170.478L256.823 228.999C269.573 243.614 288.012 252 307.397 252Z" fill="#004C46"/>
<g clip-path="url(#clip0_1348_70814)">
<path d="M149.59 290.536C141.976 289.957 134.493 288.233 127.393 285.424C128.144 284.968 128.743 284.299 129.114 283.503C130.125 281.462 130.661 279.219 130.682 276.941C130.703 274.664 130.208 272.411 129.235 270.352C129.046 269.818 128.735 269.336 128.326 268.944C127.917 268.553 127.422 268.263 126.88 268.098C125.602 267.897 124.475 268.963 123.781 270.06C122.297 272.619 121.733 275.608 122.181 278.532C122.497 280.572 123.275 282.513 124.455 284.207C118.27 281.46 112.464 277.93 107.179 273.702C107.964 273.702 108.789 273.079 109.604 271.61C110.606 269.568 111.133 267.327 111.147 265.053C111.161 262.78 110.661 260.532 109.684 258.479C109.501 257.945 109.192 257.463 108.784 257.073C108.377 256.682 107.881 256.395 107.34 256.235C106.052 256.034 104.925 257.09 104.241 258.197C102.762 260.758 102.195 263.744 102.631 266.669C102.892 268.298 103.437 269.868 104.241 271.308C98.471 266.242 93.4922 260.341 89.4702 253.8C90.1746 253.649 90.9091 253.035 91.6335 251.727C92.6446 249.687 93.1807 247.443 93.2016 245.166C93.2225 242.888 92.7277 240.636 91.7543 238.577C91.5633 238.046 91.2508 237.568 90.842 237.18C90.4332 236.793 89.9393 236.506 89.3998 236.343C88.1219 236.152 86.985 237.208 86.3008 238.355C84.8177 240.914 84.2533 243.903 84.7009 246.827C84.9625 248.9 86.3913 252.623 88.2125 253.639C89.9081 256.49 91.7904 259.227 93.8471 261.829C92.3119 260.959 90.625 260.389 88.8766 260.149C85.943 259.76 82.9645 260.385 80.4347 261.92C79.348 262.624 78.3117 263.781 78.533 265.059C78.708 265.596 79.0068 266.085 79.4053 266.485C79.8038 266.885 80.2909 267.186 80.8271 267.363C82.9058 268.297 85.1688 268.747 87.4464 268.681C89.7239 268.614 91.9569 268.033 93.9779 266.981C95.457 266.126 95.9903 265.271 95.9903 264.476C100.938 270.197 106.681 275.178 113.045 279.267C111.099 279.373 109.199 279.894 107.471 280.796C104.854 282.174 102.785 284.403 101.605 287.115C101.122 288.322 100.941 289.862 101.866 290.777C102.32 291.117 102.847 291.344 103.405 291.44C103.963 291.536 104.535 291.499 105.076 291.331C107.312 290.892 109.42 289.952 111.241 288.582C113.062 287.213 114.549 285.449 115.591 283.422C115.948 282.724 116.138 281.952 116.144 281.168C121.037 284.012 126.217 286.33 131.599 288.081C130.021 288.296 128.493 288.783 127.081 289.52C124.505 290.874 122.457 293.052 121.266 295.708C120.793 296.915 120.612 298.454 121.527 299.36C121.98 299.701 122.506 299.93 123.064 300.028C123.622 300.126 124.195 300.09 124.737 299.924C126.973 299.484 129.08 298.545 130.901 297.175C132.722 295.806 134.21 294.041 135.252 292.015C135.768 291.15 135.92 290.115 135.674 289.137C140.211 290.343 144.849 291.128 149.529 291.482L149.59 290.536Z" stroke="#31BC2E" stroke-width="1.00618" stroke-miterlimit="10"/>
<path d="M165.226 254.884C168.546 248.004 170.812 240.664 171.947 233.11C171.177 233.535 170.298 233.721 169.422 233.644C167.148 233.494 164.937 232.832 162.956 231.706C160.975 230.58 159.274 229.02 157.981 227.144C157.614 226.712 157.354 226.201 157.221 225.65C157.088 225.1 157.087 224.525 157.217 223.974C157.69 222.767 159.229 222.324 160.477 222.284C163.434 222.286 166.302 223.298 168.607 225.151C170.208 226.447 171.492 228.092 172.36 229.961C173.103 223.228 172.975 216.427 171.977 209.727C171.555 210.381 170.629 210.793 168.959 210.733C166.682 210.591 164.467 209.936 162.481 208.815C160.494 207.694 158.787 206.138 157.488 204.263C157.12 203.834 156.859 203.325 156.726 202.775C156.593 202.226 156.592 201.653 156.724 201.104C157.197 199.896 158.676 199.443 159.974 199.403C162.931 199.404 165.8 200.416 168.104 202.271C169.382 203.311 170.469 204.568 171.313 205.984C169.839 198.451 167.234 191.185 163.586 184.431C163.193 184.764 162.735 185.01 162.241 185.152C161.746 185.294 161.227 185.33 160.718 185.256C158.444 185.107 156.234 184.444 154.252 183.319C152.271 182.193 150.57 180.633 149.278 178.756C148.91 178.328 148.648 177.818 148.515 177.269C148.382 176.719 148.382 176.147 148.513 175.597C148.986 174.39 150.465 173.937 151.763 173.896C154.724 173.898 157.596 174.909 159.903 176.764C161.563 178.032 164.059 181.141 164.028 183.224C165.64 186.122 167.058 189.124 168.275 192.209C168.286 190.447 168.627 188.703 169.281 187.067C170.421 184.337 172.454 182.074 175.046 180.648C176.203 180.064 177.723 179.752 178.719 180.588C179.095 181.008 179.368 181.512 179.513 182.057C179.658 182.603 179.672 183.175 179.554 183.727C179.322 185.993 178.579 188.177 177.38 190.113C176.18 192.05 174.557 193.689 172.631 194.906C171.142 195.761 170.116 195.831 169.432 195.429C171.886 202.569 173.309 210.023 173.658 217.565C174.733 215.95 176.135 214.579 177.773 213.54C180.278 211.966 183.246 211.295 186.185 211.638C187.473 211.83 188.891 212.443 189.203 213.651C189.263 214.207 189.193 214.769 188.997 215.293C188.801 215.818 188.486 216.289 188.076 216.669C186.58 218.378 184.716 219.727 182.626 220.616C180.535 221.504 178.271 221.909 176.002 221.801C175.219 221.764 174.457 221.54 173.778 221.147C173.781 226.806 173.181 232.449 171.987 237.98C172.969 236.729 174.156 235.653 175.499 234.801C178.004 233.227 180.972 232.556 183.911 232.899C185.199 233.09 186.617 233.704 186.929 234.962C186.989 235.518 186.919 236.08 186.723 236.604C186.528 237.128 186.212 237.6 185.802 237.98C184.306 239.689 182.443 241.038 180.352 241.927C178.261 242.815 175.997 243.22 173.728 243.112C173.227 243.12 172.73 243.028 172.265 242.841C171.8 242.655 171.378 242.377 171.021 242.025C169.788 246.555 168.137 250.961 166.091 255.186L165.226 254.884Z" stroke="#31BC2E" stroke-width="1.00618" stroke-miterlimit="10"/>
<path d="M172.179 235.456C170.991 230.626 168.808 225.686 164.602 223.019C160.396 220.353 153.957 221.621 151.763 226.088C154.513 219.115 154.473 211.35 151.653 204.405C150.992 202.633 149.964 201.021 148.634 199.676C147.972 199.009 147.173 198.494 146.292 198.168C145.411 197.841 144.469 197.71 143.533 197.784C142.375 198.01 141.295 198.535 140.402 199.306C139.509 200.077 138.833 201.068 138.441 202.181C137.566 204.355 137.606 207.977 137.667 210.331C135.783 203.677 132.415 197.536 127.816 192.371C125.472 189.735 122.403 187.219 118.881 187.34C115.36 187.461 112.411 190.479 110.963 193.749C108.759 198.67 109.041 204.415 110.62 209.577C112.226 214.908 114.447 220.034 117.241 224.851C116.357 223.562 115.134 222.543 113.707 221.905C112.28 221.267 110.705 221.035 109.155 221.234C107.605 221.434 106.14 222.058 104.921 223.037C103.703 224.016 102.778 225.312 102.249 226.782C100.961 230.364 102.189 234.349 103.829 237.78C107.529 245.505 113.196 252.123 120.26 256.968C118.145 255.789 115.833 255.005 113.438 254.654C111.023 254.442 108.407 255.288 107.089 257.34C105.529 259.825 106.435 263.096 107.672 265.752C110.886 272.444 115.843 278.147 122.022 282.261C128.201 286.376 135.374 288.751 142.788 289.136L172.34 278.369C176.445 268.861 174.654 245.528 172.179 235.456Z" stroke="#31BC2E" stroke-width="1.00618" stroke-miterlimit="10"/>
<path d="M153.635 279.536C137.987 253.793 125.926 226.035 117.785 197.029L118.72 196.758C126.841 225.681 138.868 253.361 154.47 279.033L153.635 279.536Z" stroke="#31BC2E" stroke-width="1.00618" stroke-miterlimit="10"/>
<path d="M135.212 242.471L134.457 241.847C141.865 232.862 145.854 221.545 145.716 209.9H146.722C146.85 221.775 142.772 233.313 135.212 242.471Z" stroke="#31BC2E" stroke-width="1.00618" stroke-miterlimit="10"/>
<path d="M139.86 255.318C134.002 254.375 128.449 252.069 123.646 248.585C118.843 245.102 114.926 240.539 112.21 235.265L113.075 234.832C115.724 239.967 119.541 244.408 124.219 247.799C128.898 251.189 134.307 253.434 140.011 254.352L139.86 255.318Z" stroke="#31BC2E" stroke-width="1.00618" stroke-miterlimit="10"/>
<path d="M139.015 275.341C130.265 275.352 121.811 272.18 115.229 266.416L115.883 265.691C120.49 269.722 126.072 272.475 132.074 273.677C138.076 274.879 144.289 274.489 150.093 272.544L150.415 273.459C146.746 274.716 142.893 275.352 139.015 275.341Z" stroke="#31BC2E" stroke-width="1.00618" stroke-miterlimit="10"/>
<path d="M148.745 270.25L148.041 269.576C152.809 264.517 156.447 258.501 158.713 251.928C160.978 245.355 161.82 238.375 161.181 231.452L162.187 231.361C162.836 238.426 161.973 245.548 159.655 252.254C157.337 258.959 153.618 265.094 148.745 270.25Z" stroke="#31BC2E" stroke-width="1.00618" stroke-miterlimit="10"/>
<path d="M490.595 285.915C498.208 285.336 505.691 283.613 512.791 280.804C512.04 280.347 511.442 279.679 511.071 278.882C510.059 276.841 509.523 274.598 509.502 272.321C509.482 270.043 509.976 267.791 510.95 265.731C511.138 265.198 511.449 264.715 511.858 264.324C512.267 263.932 512.763 263.642 513.304 263.478C514.582 263.276 515.709 264.343 516.403 265.44C517.887 267.999 518.452 270.988 518.003 273.912C517.679 275.962 516.887 277.911 515.689 279.607C521.886 276.87 527.704 273.343 532.995 269.112C532.21 269.112 531.385 268.488 530.57 267.019C529.558 264.977 529.021 262.732 529 260.453C528.979 258.173 529.475 255.919 530.45 253.858C530.636 253.325 530.947 252.843 531.357 252.453C531.766 252.063 532.262 251.776 532.804 251.615C534.082 251.413 535.219 252.47 535.903 253.577C537.387 256.136 537.951 259.125 537.503 262.049C537.253 263.675 536.711 265.243 535.903 266.677C541.675 261.617 546.654 255.719 550.674 249.18C549.97 249.029 549.235 248.415 548.511 247.107C547.499 245.066 546.963 242.823 546.943 240.545C546.922 238.268 547.416 236.015 548.39 233.956C548.578 233.422 548.889 232.94 549.298 232.549C549.707 232.157 550.203 231.867 550.744 231.702C552.022 231.501 553.159 232.568 553.843 233.664C555.326 236.224 555.891 239.213 555.443 242.136C555.182 244.209 553.753 247.932 551.932 248.948C550.236 251.8 548.354 254.536 546.297 257.139C547.844 256.263 549.545 255.693 551.308 255.458C554.241 255.069 557.22 255.694 559.75 257.229C560.836 257.934 561.873 259.091 561.651 260.368C561.476 260.906 561.178 261.394 560.779 261.794C560.381 262.194 559.893 262.495 559.357 262.673C557.279 263.606 555.016 264.056 552.738 263.99C550.46 263.924 548.227 263.343 546.206 262.29C544.727 261.435 544.194 260.58 544.194 259.785C539.229 265.508 533.469 270.489 527.089 274.576C529.035 274.682 530.935 275.204 532.663 276.105C535.28 277.483 537.349 279.712 538.529 282.424C539.002 283.631 539.193 285.171 538.268 286.087C537.813 286.424 537.286 286.649 536.729 286.745C536.171 286.842 535.599 286.805 535.058 286.64C532.822 286.201 530.715 285.261 528.893 283.892C527.072 282.522 525.585 280.758 524.543 278.731C524.186 278.033 523.996 277.262 523.99 276.477C519.097 279.322 513.917 281.639 508.535 283.39C510.113 283.605 511.641 284.092 513.053 284.829C515.669 286.207 517.738 288.436 518.919 291.148C519.392 292.355 519.573 293.894 518.657 294.8C518.204 295.139 517.677 295.366 517.119 295.464C516.562 295.562 515.989 295.528 515.447 295.364C513.212 294.925 511.104 293.985 509.283 292.615C507.462 291.246 505.975 289.481 504.933 287.455C504.674 287.027 504.504 286.553 504.431 286.059C504.359 285.565 504.386 285.061 504.51 284.577C499.974 285.783 495.336 286.568 490.655 286.922L490.595 285.915Z" stroke="#31BC2E" stroke-width="1.00618" stroke-miterlimit="10"/>
<path d="M474.959 250.258C471.633 243.384 469.367 236.047 468.238 228.494C469.008 228.92 469.887 229.106 470.764 229.028C473.037 228.878 475.248 228.216 477.229 227.09C479.211 225.964 480.911 224.404 482.204 222.528C482.569 222.095 482.828 221.583 482.961 221.033C483.093 220.483 483.096 219.91 482.969 219.358C482.496 218.151 480.956 217.708 479.708 217.668C476.751 217.67 473.883 218.682 471.579 220.535C469.972 221.826 468.687 223.473 467.825 225.345C467.082 218.608 467.211 211.804 468.208 205.101C468.63 205.765 469.556 206.177 471.226 206.107C473.5 205.957 475.711 205.295 477.692 204.169C479.673 203.043 481.374 201.484 482.667 199.607C483.035 199.178 483.296 198.668 483.429 198.119C483.562 197.57 483.563 196.997 483.431 196.447C482.958 195.24 481.479 194.787 480.181 194.747C477.224 194.748 474.355 195.76 472.051 197.615C470.773 198.655 469.686 199.912 468.842 201.327C470.316 193.795 472.921 186.528 476.569 179.775C476.961 180.108 477.42 180.354 477.914 180.497C478.409 180.639 478.928 180.674 479.437 180.6C481.711 180.451 483.921 179.788 485.903 178.662C487.884 177.537 489.585 175.977 490.877 174.1C491.243 173.67 491.503 173.16 491.636 172.612C491.769 172.063 491.771 171.49 491.642 170.941C491.169 169.733 489.68 169.28 488.392 169.24C485.431 169.241 482.559 170.253 480.252 172.108C478.592 173.376 476.096 176.475 476.126 178.568C474.516 181.468 473.094 184.469 471.87 187.553C471.865 185.79 471.524 184.045 470.864 182.411C469.729 179.678 467.695 177.413 465.099 175.992C463.942 175.408 462.422 175.086 461.426 175.931C461.049 176.352 460.777 176.855 460.632 177.401C460.487 177.946 460.473 178.519 460.591 179.071C460.827 181.335 461.572 183.518 462.771 185.453C463.97 187.389 465.591 189.029 467.514 190.249C469.003 191.105 470.029 191.175 470.713 190.773C468.259 197.913 466.836 205.366 466.487 212.909C465.412 211.291 464.006 209.919 462.362 208.884C459.861 207.308 456.896 206.637 453.96 206.982C452.672 207.173 451.254 207.787 450.942 208.995C450.882 209.551 450.953 210.113 451.149 210.637C451.344 211.161 451.659 211.632 452.069 212.013C453.565 213.722 455.428 215.071 457.519 215.959C459.61 216.848 461.874 217.253 464.143 217.145C464.931 217.111 465.698 216.883 466.377 216.48C466.375 222.142 466.972 227.788 468.158 233.324C467.181 232.068 465.993 230.992 464.646 230.144C462.145 228.569 459.18 227.898 456.244 228.243C454.956 228.434 453.538 229.048 453.226 230.255C453.166 230.811 453.237 231.374 453.433 231.897C453.629 232.421 453.943 232.893 454.353 233.274C455.849 234.983 457.712 236.331 459.803 237.22C461.894 238.109 464.158 238.514 466.427 238.405C466.928 238.413 467.425 238.321 467.89 238.135C468.355 237.948 468.777 237.671 469.134 237.319C470.364 241.849 472.015 246.255 474.064 250.479L474.959 250.258Z" stroke="#31BC2E" stroke-width="1.00618" stroke-miterlimit="10"/>
<path d="M468.006 230.837C469.194 226.007 471.377 221.057 475.583 218.4C479.789 215.744 486.228 217.002 488.422 221.469C485.672 214.495 485.712 206.731 488.532 199.786C489.19 198.012 490.219 196.4 491.551 195.057C492.213 194.39 493.012 193.875 493.893 193.549C494.774 193.222 495.716 193.091 496.652 193.165C497.811 193.391 498.89 193.915 499.783 194.687C500.676 195.458 501.352 196.449 501.744 197.562C502.619 199.736 502.579 203.358 502.518 205.712C504.397 199.056 507.766 192.914 512.369 187.752C514.713 185.116 517.782 182.6 521.304 182.721C524.825 182.842 527.774 185.86 529.222 189.13C531.416 194.051 531.144 199.796 529.565 204.958C527.951 210.294 525.719 215.423 522.914 220.242C523.798 218.953 525.021 217.934 526.448 217.295C527.875 216.657 529.45 216.426 531 216.625C532.55 216.825 534.015 217.449 535.234 218.428C536.452 219.406 537.377 220.703 537.906 222.173C539.194 225.755 537.966 229.74 536.326 233.171C532.639 240.89 526.991 247.507 519.945 252.359C522.058 251.179 524.365 250.388 526.757 250.025C529.172 249.823 531.788 250.668 533.106 252.721C534.666 255.206 533.76 258.476 532.523 261.133C529.309 267.825 524.352 273.528 518.173 277.642C511.994 281.757 504.821 284.131 497.407 284.516L467.855 273.75C463.74 264.242 465.531 240.908 468.006 230.837Z" stroke="#31BC2E" stroke-width="1.00618" stroke-miterlimit="10"/>
<path d="M486.51 274.919C502.159 249.176 514.22 221.417 522.36 192.412L521.424 192.15C513.299 221.062 501.272 248.732 485.675 274.396L486.51 274.919Z" stroke="#31BC2E" stroke-width="1.00618" stroke-miterlimit="10"/>
<path d="M504.973 237.851L505.728 237.228C498.311 228.247 494.322 216.927 494.469 205.281H493.462C493.324 217.158 497.402 228.699 504.973 237.851Z" stroke="#31BC2E" stroke-width="1.00618" stroke-miterlimit="10"/>
<path d="M500.315 250.701C506.174 249.759 511.73 247.453 516.535 243.97C521.339 240.487 525.258 235.923 527.975 230.647L527.11 230.215C524.461 235.35 520.644 239.791 515.966 243.182C511.288 246.572 505.879 248.817 500.174 249.735L500.315 250.701Z" stroke="#31BC2E" stroke-width="1.00618" stroke-miterlimit="10"/>
<path d="M501.17 270.724C509.931 270.746 518.399 267.573 524.987 261.799L524.343 261.074C519.736 265.105 514.153 267.858 508.151 269.06C502.149 270.262 495.937 269.871 490.133 267.926L489.811 268.842C493.467 270.094 497.306 270.73 501.17 270.724Z" stroke="#31BC2E" stroke-width="1.00618" stroke-miterlimit="10"/>
<path d="M491.441 265.633L492.145 264.959C487.377 259.9 483.739 253.884 481.473 247.311C479.208 240.738 478.366 233.758 479.004 226.835L477.998 226.744C477.352 233.809 478.217 240.93 480.534 247.635C482.852 254.34 486.57 260.475 491.441 265.633Z" stroke="#31BC2E" stroke-width="1.00618" stroke-miterlimit="10"/>
<path d="M321.718 186.839L302.842 186.879L302.979 252.15L321.855 252.11L321.718 186.839Z" fill="#022D2B"/>
<path d="M311.496 186.871L306.777 186.881L306.914 252.152L311.633 252.142L311.496 186.871Z" fill="#022D2B"/>
<path d="M326.431 183.689L298.117 183.748L298.148 198.69L326.462 198.631L326.431 183.689Z" fill="#004C46"/>
<path d="M308.34 183.727L302.051 183.74L302.083 198.682L308.371 198.669L308.34 183.727Z" fill="#022D2B"/>
<path d="M297.706 237.22L327.076 237.159C328.397 237.156 329.665 237.678 330.601 238.61C331.537 239.542 332.065 240.808 332.067 242.129L332.088 252.09L292.767 252.172L292.746 242.211C292.743 240.892 293.264 239.625 294.194 238.69C295.124 237.754 296.387 237.225 297.706 237.22Z" fill="#004C46"/>
<path d="M308.788 237.689H300.919V252.631H308.788V237.689Z" fill="#022D2B"/>
<path d="M448.773 20.6439L174.317 21.2188L174.665 187.148L449.121 186.573L448.773 20.6439Z" fill="white" stroke="#022D2B" stroke-width="5.25227" stroke-linecap="round" stroke-linejoin="round"/>
<path d="M266.51 51.6726L221.75 42.1016L207.803 107.327L252.562 116.898L266.51 51.6726Z" fill="#BBF9B9"/>
<path d="M436.04 49.4214L390.554 54.5234L397.989 120.808L443.475 115.706L436.04 49.4214Z" fill="#BBF9B9"/>
<path d="M319.989 53.5961L274.718 60.3457L284.554 126.316L329.825 119.567L319.989 53.5961Z" fill="#BBF9B9"/>
<path d="M394.481 95.6028L350.054 84.5918L334.008 149.333L378.435 160.344L394.481 95.6028Z" fill="#BBF9B9"/>
<path d="M449.096 21.1674L174.641 21.7422L174.674 37.4688L449.129 36.894L449.096 21.1674Z" fill="#022D2B"/>
<path d="M302.525 31.3907L302.512 25.2281L306.788 25.2191L306.791 26.6664L304.121 26.672L304.123 27.5217L306.027 27.5177L306.03 28.8623L304.125 28.8663L304.128 29.9401L306.91 29.9342L306.913 31.3815L302.525 31.3907Z" fill="white"/>
<path d="M311.598 25.209L313.419 25.2052L310.631 31.4858L310.118 31.4869L307.303 25.218L309.124 25.2142L310.372 28.2369L311.598 25.209Z" fill="white"/>
<path d="M314.069 31.3665L314.056 25.2039L318.332 25.1949L318.335 26.6422L315.665 26.6478L315.667 27.4975L317.571 27.4935L317.574 28.8381L315.669 28.8421L315.672 29.9159L318.454 29.9101L318.457 31.3573L314.069 31.3665Z" fill="white"/>
<path d="M323.301 25.1845L324.907 25.1812L324.92 31.4559L324.407 31.4569L321.057 28.2239L321.064 31.3519L319.458 31.3552L319.445 25.0805L319.958 25.0795L323.308 28.2658L323.301 25.1845Z" fill="white"/>
<path d="M327.477 31.3385L327.467 26.6231L325.618 26.627L325.615 25.1797L330.918 25.1686L330.922 26.6159L329.073 26.6197L329.083 31.3351L327.477 31.3385Z" fill="white"/>
<path d="M331.236 30.0607L332.317 29.2367C332.682 29.7215 333.066 30.0288 333.692 30.0275C334.112 30.0267 334.326 29.8768 334.326 29.578C334.325 29.3072 334.185 29.2235 333.699 29.0097L333.063 28.731C332.044 28.2849 331.502 27.7071 331.5 26.8761C331.498 25.7836 332.393 25.0534 333.653 25.0508C334.671 25.0487 335.391 25.5327 335.766 26.2882L334.694 27.1122C334.394 26.6646 334.114 26.4598 333.675 26.4607C333.339 26.4614 333.124 26.5926 333.125 26.854C333.125 27.0781 333.256 27.1992 333.658 27.3571L334.368 27.6544C335.443 28.1004 335.948 28.6409 335.95 29.5093C335.953 30.7044 334.974 31.4348 333.694 31.4375C332.583 31.4398 331.686 30.9095 331.236 30.0607Z" fill="white"/>
<path d="M482.394 252.129H140.312V259.997H482.394V252.129Z" fill="#022D2B"/>
<path d="M242.537 54.1167L192.842 47.168L182.717 119.583L232.411 126.532L242.537 54.1167Z" fill="#31B92E"/>
<path d="M231.189 124.92L240.918 55.3457L194.063 48.794L184.335 118.369L231.189 124.92Z" stroke="white" stroke-width="0.815008" stroke-miterlimit="10"/>
<path d="M231.835 88.7237L193.711 83.401C193.57 83.3826 193.435 83.3362 193.312 83.2647C193.19 83.1932 193.083 83.098 192.997 82.9846C192.912 82.8712 192.85 82.742 192.816 82.6044C192.781 82.4669 192.774 82.3238 192.795 82.1836C192.814 82.0429 192.86 81.9073 192.932 81.7848C193.003 81.6623 193.098 81.5553 193.212 81.47C193.325 81.3848 193.454 81.323 193.592 81.2883C193.729 81.2536 193.873 81.2466 194.013 81.2679L232.177 86.6007C232.318 86.6192 232.454 86.6655 232.577 86.7369C232.7 86.8083 232.808 86.9033 232.894 87.0165C232.98 87.1297 233.043 87.2588 233.079 87.3964C233.114 87.534 233.123 87.6774 233.103 87.8182C233.081 87.9618 233.031 88.0995 232.955 88.2233C232.879 88.347 232.778 88.4543 232.66 88.5387C232.542 88.6231 232.408 88.683 232.266 88.7148C232.125 88.7466 231.978 88.7496 231.835 88.7237Z" fill="white"/>
<path d="M231.111 93.8563L192.946 88.5235C192.663 88.4835 192.406 88.3332 192.233 88.1052C192.06 87.8772 191.983 87.59 192.02 87.306C192.06 87.0224 192.211 86.7661 192.439 86.5927C192.667 86.4194 192.954 86.3431 193.238 86.3803L231.413 91.7232C231.553 91.7416 231.689 91.788 231.811 91.8595C231.934 91.931 232.041 92.0262 232.126 92.1396C232.211 92.253 232.273 92.3822 232.308 92.5198C232.343 92.6573 232.349 92.8004 232.328 92.9407C232.308 93.0807 232.261 93.2156 232.189 93.3374C232.117 93.4593 232.022 93.5658 231.909 93.6508C231.796 93.7358 231.667 93.7978 231.53 93.833C231.393 93.8683 231.251 93.8762 231.111 93.8563Z" fill="white"/>
<path d="M224.027 98.1009L192.222 93.6636C191.939 93.6189 191.686 93.4655 191.515 93.2361C191.343 93.0068 191.269 92.7197 191.306 92.4361C191.326 92.296 191.373 92.1612 191.445 92.0393C191.517 91.9175 191.612 91.811 191.725 91.7259C191.838 91.6409 191.967 91.579 192.104 91.5437C192.241 91.5085 192.384 91.5006 192.524 91.5205L224.319 95.9678C224.46 95.9863 224.596 96.0326 224.719 96.104C224.842 96.1754 224.95 96.2704 225.036 96.3836C225.122 96.4968 225.185 96.6259 225.221 96.7635C225.256 96.9011 225.265 97.0445 225.245 97.1853C225.226 97.3259 225.18 97.4615 225.109 97.584C225.037 97.7065 224.942 97.8135 224.829 97.8988C224.715 97.9841 224.586 98.0459 224.448 98.0806C224.311 98.1153 224.168 98.1222 224.027 98.1009Z" fill="white"/>
<path d="M214.328 101.985L191.508 98.7956C191.367 98.7771 191.231 98.7308 191.108 98.6594C190.985 98.5881 190.877 98.493 190.791 98.3798C190.705 98.2666 190.643 98.1375 190.607 97.9999C190.571 97.8623 190.562 97.719 190.582 97.5782C190.602 97.4371 190.649 97.3013 190.722 97.1787C190.795 97.0562 190.891 96.9492 191.005 96.864C191.119 96.7789 191.249 96.7172 191.387 96.6826C191.525 96.648 191.669 96.6412 191.81 96.6625L214.63 99.8521C214.771 99.8706 214.906 99.9169 215.029 99.9884C215.151 100.06 215.258 100.155 215.344 100.269C215.429 100.382 215.491 100.511 215.525 100.649C215.56 100.786 215.567 100.929 215.546 101.07C215.527 101.21 215.481 101.346 215.409 101.468C215.338 101.591 215.243 101.698 215.129 101.783C215.016 101.868 214.887 101.93 214.749 101.965C214.612 102 214.468 102.007 214.328 101.985Z" fill="white"/>
<path d="M205.615 106.012L190.783 103.939C190.502 103.896 190.248 103.745 190.077 103.517C189.905 103.29 189.83 103.004 189.868 102.721C189.886 102.58 189.933 102.444 190.004 102.321C190.075 102.198 190.17 102.091 190.284 102.005C190.397 101.919 190.526 101.856 190.664 101.82C190.801 101.784 190.945 101.776 191.085 101.796L205.916 103.868C206.2 103.908 206.456 104.059 206.63 104.287C206.803 104.515 206.879 104.802 206.842 105.086C206.8 105.37 206.647 105.627 206.418 105.8C206.188 105.973 205.9 106.049 205.615 106.012Z" fill="white"/>
<path d="M226.244 111.96L192.652 107.263C190.797 107.003 189.084 108.296 188.824 110.151L188.521 112.323C188.261 114.178 189.555 115.892 191.409 116.151L225.001 120.848C226.855 121.108 228.569 119.814 228.829 117.96L229.132 115.787C229.392 113.933 228.098 112.219 226.244 111.96Z" fill="white"/>
<path d="M430.484 75.6122L380.854 83.0117L391.636 155.332L441.266 147.932L430.484 75.6122Z" fill="#31B92E"/>
<path d="M439.656 146.739L429.296 77.2559L382.503 84.2325L392.863 153.716L439.656 146.739Z" stroke="white" stroke-width="0.815008" stroke-miterlimit="10"/>
<path d="M430.003 111.847L391.929 117.522C391.789 117.543 391.646 117.537 391.509 117.503C391.371 117.469 391.241 117.408 391.127 117.324C391.013 117.24 390.917 117.134 390.844 117.012C390.771 116.891 390.723 116.756 390.702 116.616C390.661 116.332 390.735 116.044 390.907 115.814C391.078 115.584 391.334 115.431 391.617 115.388L429.732 109.704C429.872 109.682 430.016 109.689 430.154 109.724C430.292 109.758 430.422 109.82 430.536 109.905C430.651 109.99 430.747 110.097 430.819 110.22C430.892 110.342 430.939 110.478 430.959 110.619C430.98 110.763 430.972 110.91 430.935 111.05C430.898 111.191 430.833 111.322 430.743 111.437C430.654 111.552 430.542 111.647 430.415 111.718C430.288 111.788 430.148 111.832 430.003 111.847Z" fill="white"/>
<path d="M430.768 116.98L392.654 122.645C392.37 122.688 392.08 122.617 391.848 122.447C391.616 122.278 391.461 122.023 391.416 121.739C391.376 121.455 391.449 121.167 391.621 120.937C391.792 120.707 392.048 120.554 392.332 120.512L430.446 114.827C430.587 114.805 430.73 114.812 430.869 114.847C431.007 114.881 431.137 114.943 431.251 115.028C431.365 115.113 431.461 115.22 431.534 115.343C431.606 115.465 431.654 115.601 431.673 115.742C431.696 115.883 431.691 116.027 431.658 116.166C431.624 116.305 431.564 116.435 431.48 116.55C431.395 116.666 431.289 116.763 431.167 116.837C431.045 116.91 430.909 116.959 430.768 116.98Z" fill="white"/>
<path d="M416.299 124.374L393.419 127.785C393.278 127.808 393.135 127.802 392.997 127.769C392.859 127.736 392.729 127.675 392.614 127.59C392.5 127.506 392.404 127.4 392.331 127.278C392.258 127.156 392.211 127.02 392.191 126.879C392.17 126.739 392.176 126.596 392.21 126.459C392.244 126.321 392.305 126.192 392.389 126.078C392.473 125.964 392.579 125.867 392.7 125.794C392.822 125.721 392.956 125.673 393.097 125.652L415.977 122.241C416.117 122.219 416.26 122.226 416.398 122.26C416.535 122.294 416.665 122.355 416.779 122.439C416.893 122.523 416.989 122.629 417.062 122.75C417.136 122.872 417.184 123.006 417.205 123.146C417.228 123.287 417.222 123.43 417.189 123.568C417.155 123.706 417.095 123.836 417.01 123.951C416.926 124.065 416.82 124.161 416.697 124.234C416.575 124.307 416.44 124.354 416.299 124.374Z" fill="white"/>
<path d="M417.083 129.505L394.202 132.916C394.062 132.939 393.919 132.933 393.781 132.9C393.642 132.866 393.512 132.806 393.398 132.721C393.284 132.637 393.187 132.531 393.115 132.409C393.042 132.286 392.994 132.151 392.975 132.01C392.953 131.87 392.96 131.727 392.994 131.59C393.028 131.452 393.089 131.322 393.173 131.208C393.257 131.094 393.363 130.998 393.484 130.925C393.605 130.852 393.74 130.804 393.88 130.783L416.761 127.372C416.901 127.35 417.044 127.357 417.182 127.391C417.319 127.425 417.449 127.485 417.563 127.57C417.677 127.654 417.773 127.76 417.846 127.881C417.919 128.002 417.968 128.137 417.988 128.277C418.011 128.418 418.006 128.561 417.972 128.699C417.939 128.837 417.878 128.967 417.794 129.082C417.71 129.196 417.603 129.292 417.481 129.365C417.359 129.438 417.224 129.485 417.083 129.505Z" fill="white"/>
<path d="M417.828 134.636L394.947 138.047C394.807 138.069 394.664 138.064 394.526 138.031C394.387 137.997 394.257 137.937 394.143 137.852C394.029 137.768 393.932 137.661 393.86 137.539C393.787 137.417 393.739 137.282 393.72 137.141C393.698 137.001 393.705 136.858 393.739 136.72C393.773 136.583 393.834 136.453 393.918 136.339C394.002 136.225 394.108 136.129 394.229 136.056C394.351 135.983 394.485 135.934 394.625 135.914L417.506 132.503C417.646 132.481 417.789 132.488 417.927 132.522C418.064 132.556 418.194 132.616 418.308 132.7C418.422 132.785 418.518 132.89 418.591 133.012C418.664 133.133 418.713 133.268 418.734 133.408C418.756 133.548 418.751 133.692 418.718 133.83C418.684 133.968 418.623 134.098 418.539 134.213C418.455 134.327 418.348 134.423 418.226 134.496C418.104 134.569 417.969 134.616 417.828 134.636Z" fill="white"/>
<path d="M403.736 139.788L396.591 140.853C395.338 141.04 394.473 142.207 394.66 143.46L395.307 147.799C395.494 149.053 396.661 149.917 397.914 149.73L405.06 148.665C406.313 148.478 407.177 147.311 406.99 146.057L406.344 141.718C406.157 140.465 404.989 139.601 403.736 139.788Z" fill="white"/>
<path d="M418.027 137.665L410.881 138.73C409.628 138.917 408.764 140.084 408.951 141.337L409.598 145.676C409.784 146.93 410.952 147.794 412.205 147.607L419.35 146.542C420.603 146.355 421.468 145.188 421.281 143.934L420.634 139.595C420.447 138.342 419.28 137.478 418.027 137.665Z" fill="white"/>
<path d="M432.307 135.53L425.162 136.595C423.908 136.782 423.044 137.949 423.231 139.203L423.878 143.542C424.065 144.795 425.232 145.659 426.485 145.472L433.631 144.407C434.884 144.22 435.748 143.053 435.561 141.8L434.914 137.461C434.727 136.208 433.56 135.343 432.307 135.53Z" fill="white"/>
<path d="M299.526 70.7817L249.66 76.375L257.811 149.039L307.676 143.445L299.526 70.7817Z" fill="#31B92E"/>
<path d="M298.193 109.563L259.898 113.859C259.753 113.874 259.606 113.86 259.467 113.817C259.327 113.775 259.198 113.704 259.086 113.61C258.974 113.516 258.882 113.401 258.816 113.271C258.75 113.141 258.711 112.999 258.701 112.853C258.684 112.712 258.696 112.569 258.735 112.433C258.774 112.296 258.84 112.169 258.929 112.058C259.018 111.948 259.128 111.856 259.253 111.789C259.378 111.721 259.515 111.679 259.657 111.666L297.952 107.369C298.097 107.354 298.244 107.368 298.383 107.411C298.523 107.454 298.653 107.524 298.764 107.618C298.876 107.712 298.968 107.827 299.034 107.958C299.1 108.088 299.139 108.23 299.149 108.375C299.165 108.516 299.152 108.659 299.112 108.794C299.073 108.93 299.006 109.057 298.918 109.167C298.829 109.278 298.719 109.369 298.595 109.437C298.471 109.505 298.334 109.548 298.193 109.563Z" fill="white"/>
<path d="M298.777 114.685L260.471 118.971C260.331 118.988 260.188 118.977 260.051 118.939C259.915 118.9 259.787 118.835 259.676 118.747C259.565 118.659 259.472 118.55 259.403 118.426C259.334 118.303 259.29 118.166 259.274 118.026C259.259 117.88 259.273 117.734 259.316 117.594C259.358 117.454 259.429 117.325 259.523 117.213C259.617 117.101 259.732 117.01 259.862 116.944C259.992 116.877 260.135 116.838 260.28 116.828L298.535 112.582C298.68 112.567 298.826 112.581 298.965 112.624C299.104 112.667 299.233 112.737 299.344 112.831C299.455 112.925 299.546 113.041 299.611 113.171C299.676 113.301 299.714 113.443 299.723 113.588C299.729 113.856 299.636 114.117 299.462 114.319C299.287 114.522 299.043 114.653 298.777 114.685Z" fill="white"/>
<path d="M292.96 120.551L261.054 124.133C260.909 124.149 260.762 124.134 260.623 124.092C260.483 124.049 260.354 123.979 260.242 123.885C260.13 123.791 260.039 123.675 259.972 123.545C259.906 123.415 259.867 123.273 259.857 123.127C259.826 122.842 259.909 122.556 260.088 122.331C260.267 122.107 260.528 121.963 260.813 121.93L292.719 118.358C293.004 118.327 293.29 118.41 293.515 118.589C293.739 118.768 293.883 119.029 293.916 119.314C293.937 119.458 293.929 119.605 293.892 119.747C293.855 119.888 293.79 120.02 293.701 120.136C293.612 120.251 293.5 120.347 293.373 120.419C293.246 120.49 293.105 120.535 292.96 120.551Z" fill="white"/>
<path d="M284.529 126.717L261.629 129.283C261.343 129.314 261.057 129.231 260.833 129.052C260.608 128.873 260.464 128.612 260.431 128.327C260.416 128.186 260.428 128.044 260.468 127.908C260.508 127.772 260.574 127.645 260.663 127.535C260.752 127.425 260.861 127.333 260.986 127.265C261.11 127.197 261.246 127.155 261.387 127.14L284.268 124.574C284.408 124.557 284.551 124.568 284.688 124.607C284.824 124.645 284.952 124.71 285.063 124.798C285.174 124.886 285.267 124.995 285.336 125.119C285.405 125.243 285.449 125.379 285.465 125.52C285.496 125.802 285.416 126.085 285.241 126.309C285.066 126.533 284.811 126.679 284.529 126.717Z" fill="white"/>
<path d="M277.083 132.774L262.202 134.445C262.057 134.458 261.911 134.443 261.773 134.4C261.635 134.356 261.506 134.286 261.396 134.192C261.285 134.098 261.194 133.983 261.129 133.854C261.063 133.724 261.024 133.583 261.014 133.438C260.999 133.293 261.013 133.147 261.056 133.007C261.099 132.867 261.169 132.738 261.263 132.626C261.357 132.514 261.472 132.423 261.603 132.357C261.733 132.29 261.875 132.251 262.02 132.241L276.892 130.571C277.177 130.54 277.463 130.623 277.688 130.802C277.912 130.981 278.056 131.242 278.089 131.527C278.112 131.676 278.103 131.828 278.064 131.973C278.024 132.119 277.955 132.255 277.861 132.372C277.766 132.489 277.648 132.586 277.514 132.655C277.38 132.724 277.233 132.765 277.083 132.774Z" fill="white"/>
<path d="M306.097 142.195L298.267 72.3809L251.251 77.6545L259.082 147.468L306.097 142.195Z" stroke="white" stroke-width="0.815008" stroke-miterlimit="10"/>
<path d="M285.958 161.783H227.116V176.946H285.958V161.783Z" fill="#31B92E"/>
<path d="M439.29 163.242H380.448V178.405H439.29V163.242Z" fill="#31B92E"/>
<path d="M244.634 135.703H229.692V153.784H244.634V135.703Z" fill="#31B92E"/>
<path d="M364.259 161.783H349.317V179.864H364.259V161.783Z" fill="#2DA32A"/>
<path d="M214.187 139.406H185.481V174.14H214.187V139.406Z" fill="#31B92E"/>
<path d="M211.148 143.078H188.509V154.186H211.148V143.078Z" fill="white"/>
<path d="M331.337 148.684H305.84V179.533H331.337V148.684Z" fill="#2DA32A"/>
<path d="M328.64 151.941H308.537V161.812H328.64V151.941Z" fill="white"/>
<mask id="mask0_1348_70814" style="mask-type:luminance" maskUnits="userSpaceOnUse" x="85" y="60" width="181" height="236">
<path d="M265.281 60.8945H85.1143V295.929H265.281V60.8945Z" fill="white"/>
</mask>
<g mask="url(#mask0_1348_70814)">
<path d="M144.579 162.459L108.508 133.109L108.699 128.219C108.719 127.919 108.699 127.618 108.638 127.324C108.638 127.163 108.638 126.992 108.638 126.82L107.904 121.075C107.832 120.527 107.558 120.026 107.134 119.672C106.711 119.317 106.17 119.134 105.618 119.159C105.066 119.184 104.544 119.416 104.155 119.808C103.766 120.2 103.538 120.724 103.517 121.276L103.426 123.56L100.408 118.248C100.228 117.948 99.9897 117.688 99.7064 117.484C99.4231 117.28 99.1011 117.136 98.7601 117.06C98.4191 116.985 98.0663 116.98 97.7233 117.046C97.3803 117.112 97.0544 117.247 96.7654 117.443L88.0016 123.017C87.6022 123.269 87.2788 123.625 87.0662 124.047C86.8535 124.469 86.7595 124.941 86.7941 125.412L87.1564 129.688C87.2497 130.808 87.5906 131.894 88.1543 132.867C88.7181 133.839 89.4907 134.675 90.4164 135.313L98.1238 141.964C98.8193 142.709 99.6443 143.323 100.559 143.775C108.256 150.516 130.171 169.654 145.032 182.181C147.94 184.626 153.595 183.599 155.798 180.51C156.487 179.486 156.9 178.3 156.995 177.069C157.038 176.967 157.075 176.863 157.106 176.757L161.282 156.121L146.722 152.649L144.579 162.459Z" fill="#98492F"/>
<path d="M195.844 114.515V106.546V98.7074H199.054C199.509 98.6969 199.941 98.5089 200.259 98.1836C200.577 97.8583 200.755 97.4215 200.754 96.9667V90.819C200.754 90.4504 200.636 90.0914 200.42 89.7933C200.203 89.4952 199.897 89.2732 199.547 89.1588V96.685H172.098V88.0117H168.899C168.434 88.0117 167.989 88.1962 167.661 88.5245C167.332 88.8528 167.148 89.2981 167.148 89.7625V95.9002C167.148 96.3645 167.332 96.8098 167.661 97.1382C167.989 97.4665 168.434 97.6509 168.899 97.6509H170.257V103.084C170.252 103.537 170.336 103.986 170.506 104.406C170.675 104.826 170.927 105.207 171.245 105.529C171.563 105.851 171.942 106.107 172.36 106.281C172.777 106.456 173.225 106.546 173.678 106.546H178.216V114.595C178.219 115.076 178.252 115.557 178.317 116.034H195.724C195.804 115.531 195.844 115.023 195.844 114.515Z" fill="#98492F"/>
<path d="M215.756 196.843L225.265 203.393C225.265 203.393 236.886 182.072 246.022 162.582C246.602 161.191 246.691 159.644 246.274 158.195C246.277 157.802 246.202 157.412 246.053 157.048L240.901 146.986L227.659 154.331L231.684 162.612L215.756 196.843Z" fill="#98492F"/>
<path d="M162.157 189.988L168.556 160.396V151.411C168.166 150.89 167.956 150.256 167.956 149.605C167.956 148.954 168.166 148.321 168.556 147.799V115.953H163.445C160.661 115.935 157.953 116.859 155.761 118.574C153.569 120.289 152.022 122.695 151.37 125.401L144.911 152.196L146.772 152.649L161.332 156.15L161.794 156.261V190.532C161.795 190.814 161.85 191.094 161.955 191.357L162.157 189.988Z" fill="#31BC2E"/>
<path d="M215.254 190.703L214.569 192.122C214.971 191.754 215.216 191.246 215.254 190.703Z" fill="#31BC2E"/>
<path d="M173.306 147.801C173.712 148.321 173.932 148.962 173.93 149.622H201.701C201.699 148.962 201.919 148.321 202.324 147.801V115.955H173.306V147.801Z" fill="#31BC2E"/>
<path d="M243.537 145.486L230.155 121.338C228.694 118.699 226.315 116.689 223.47 115.687C220.626 114.686 217.512 114.763 214.72 115.904H207.023V147.8C207.433 148.319 207.655 148.961 207.655 149.621C207.655 150.282 207.433 150.924 207.023 151.443V158.325L215.264 188.782V145.395L221.965 157.47L227.66 154.3L240.901 146.955L243.537 145.486Z" fill="#31BC2E"/>
<path d="M168.556 147.801C168.839 147.448 169.197 147.164 169.605 146.968C170.012 146.773 170.459 146.671 170.911 146.671C171.363 146.671 171.809 146.773 172.216 146.968C172.624 147.164 172.982 147.448 173.265 147.801V115.955H168.556V147.801Z" fill="#005750"/>
<path d="M204.679 146.613C205.132 146.613 205.58 146.717 205.986 146.918C206.393 147.119 206.748 147.41 207.023 147.771V115.955H202.324V147.801C202.598 147.434 202.953 147.136 203.362 146.93C203.77 146.724 204.221 146.616 204.679 146.613Z" fill="#005750"/>
<path d="M207.022 158.295V151.413C206.63 151.878 206.107 152.213 205.521 152.375C204.935 152.537 204.314 152.519 203.738 152.322C203.163 152.125 202.661 151.759 202.297 151.272C201.933 150.785 201.725 150.199 201.7 149.592H173.929C173.906 150.202 173.698 150.79 173.334 151.28C172.97 151.769 172.466 152.137 171.888 152.334C171.311 152.531 170.687 152.549 170.099 152.384C169.512 152.22 168.987 151.881 168.596 151.413V160.398L162.157 189.99L161.905 191.358L160.255 200.334H161.08L146.42 341.33L170.568 343.805L186.798 223.365L194.183 340.666L218.895 339.559L215.615 189.99L215.283 174.706V188.793L207.022 158.295ZM214.569 192.123L215.253 190.704C215.215 191.248 214.97 191.755 214.569 192.123Z" fill="#005750"/>
<path d="M204.678 146.611C203.994 146.604 203.328 146.83 202.789 147.25C202.249 147.671 201.869 148.263 201.71 148.928C201.551 149.594 201.623 150.293 201.914 150.913C202.204 151.532 202.697 152.034 203.31 152.337C203.923 152.639 204.621 152.725 205.29 152.579C205.958 152.433 206.557 152.064 206.989 151.534C207.42 151.003 207.658 150.341 207.664 149.657C207.671 148.973 207.444 148.307 207.022 147.769C206.746 147.409 206.391 147.118 205.985 146.917C205.578 146.716 205.131 146.612 204.678 146.611Z" fill="#0F2C2A"/>
<path d="M170.951 146.611C170.487 146.612 170.03 146.72 169.615 146.925C169.2 147.131 168.837 147.43 168.556 147.799C168.159 148.323 167.945 148.962 167.945 149.62C167.945 150.277 168.159 150.917 168.556 151.441C168.863 151.86 169.273 152.193 169.746 152.408C170.219 152.623 170.739 152.711 171.257 152.666C171.774 152.62 172.272 152.442 172.7 152.148C173.128 151.854 173.474 151.455 173.703 150.988C173.931 150.522 174.036 150.004 174.006 149.486C173.976 148.967 173.813 148.465 173.532 148.028C173.252 147.591 172.863 147.233 172.403 146.99C171.944 146.748 171.43 146.627 170.911 146.642L170.951 146.611Z" fill="#0F2C2A"/>
<path d="M172.098 96.6857H199.587V69.8508C199.587 69.5231 199.523 69.1986 199.397 68.8959C199.272 68.5931 199.088 68.318 198.856 68.0863C198.625 67.8546 198.35 67.6708 198.047 67.5454C197.744 67.42 197.42 67.3555 197.092 67.3555H171.937C171.502 67.3555 171.085 67.5283 170.778 67.8358C170.47 68.1434 170.297 68.5606 170.297 68.9955V88.0124H172.139L172.098 96.6857Z" fill="#051616"/>
<path d="M231.724 162.582L215.756 196.843V217.298L225.265 203.393L242.038 170.883L231.724 162.582Z" fill="#98492F"/>
</g>
<mask id="mask1_1348_70814" style="mask-type:luminance" maskUnits="userSpaceOnUse" x="411" y="59" width="110" height="241">
<path d="M520.358 59.8965H411.066V299.821H520.358V59.8965Z" fill="white"/>
</mask>
<g mask="url(#mask1_1348_70814)">
<path d="M472.655 113.587V105.537V97.7895H475.865C476.094 97.7908 476.321 97.7467 476.532 97.6597C476.744 97.5727 476.937 97.4445 477.099 97.2826C477.26 97.1207 477.389 96.9283 477.476 96.7165C477.563 96.5047 477.607 96.2777 477.605 96.0488V89.901C477.605 89.5324 477.487 89.1735 477.271 88.8754C477.054 88.5773 476.748 88.3552 476.398 88.2408V95.767H448.909V87.0938H445.709C445.48 87.0937 445.253 87.1391 445.041 87.2272C444.829 87.3153 444.637 87.4444 444.475 87.6071C444.313 87.7698 444.185 87.9629 444.098 88.1753C444.012 88.3876 443.967 88.6151 443.969 88.8445V94.9822C443.967 95.2117 444.012 95.4391 444.098 95.6515C444.185 95.8638 444.313 96.0569 444.475 96.2196C444.637 96.3823 444.829 96.5114 445.041 96.5995C445.253 96.6876 445.48 96.733 445.709 96.733H447.068V102.156C447.068 103.064 447.428 103.934 448.07 104.575C448.711 105.217 449.582 105.577 450.489 105.577H455.037V113.627C455.036 114.105 455.066 114.582 455.127 115.056H472.554C472.626 114.569 472.66 114.078 472.655 113.587Z" fill="#98492F"/>
<path d="M481.75 192.211L489.8 200.492C489.8 200.492 505.335 181.817 518.084 164.471C518.917 163.219 519.304 161.723 519.18 160.225C519.256 159.836 519.256 159.436 519.18 159.047L516.081 148.15L501.673 152.829L504.047 161.744L481.75 192.211Z" fill="#98492F"/>
<path d="M456.023 194.173L447.611 202.132C447.611 202.132 432.921 182.793 420.937 164.903C420.16 163.614 419.841 162.1 420.031 160.607C419.967 160.218 419.985 159.821 420.082 159.44L423.654 148.684L437.841 153.956L435.074 162.75L456.023 194.173Z" fill="#98492F"/>
<path d="M438.968 189.051L445.417 159.459V150.474C445.021 149.949 444.806 149.31 444.806 148.652C444.806 147.995 445.021 147.355 445.417 146.831V115.026H440.225C437.442 115.006 434.733 115.928 432.541 117.644C430.348 119.36 428.801 121.767 428.151 124.474L421.691 151.268L423.563 151.721L438.112 155.223L438.575 155.333V189.604C438.576 189.887 438.631 190.167 438.736 190.429L438.968 189.051Z" fill="#31BC2E"/>
<path d="M492.064 189.785L491.39 191.204C491.785 190.833 492.026 190.326 492.064 189.785Z" fill="#31BC2E"/>
<path d="M450.116 146.851C450.522 147.371 450.741 148.012 450.74 148.672H478.51C478.508 148.012 478.728 147.371 479.134 146.851V115.025H450.116V146.851Z" fill="#31BC2E"/>
<path d="M520.348 144.568L506.976 120.42C505.503 117.793 503.122 115.796 500.279 114.802C497.436 113.809 494.329 113.889 491.541 115.027H483.854V146.852C484.25 147.377 484.465 148.016 484.465 148.674C484.465 149.331 484.25 149.971 483.854 150.495V157.377L492.084 187.834V144.478L498.785 156.552L504.49 153.383L517.702 146.027L520.348 144.568Z" fill="#31BC2E"/>
<path d="M448.909 95.7677H476.448V68.9328C476.448 68.2728 476.187 67.6396 475.721 67.1719C475.255 66.7042 474.623 66.4402 473.963 66.4375H448.708C448.273 66.4375 447.856 66.6103 447.548 66.9179C447.241 67.2254 447.068 67.6426 447.068 68.0776V87.0944H448.909V95.7677Z" fill="#051616"/>
<path d="M483.13 163.444V156.561C482.738 157.03 482.214 157.368 481.627 157.533C481.039 157.697 480.415 157.68 479.838 157.483C479.26 157.285 478.756 156.918 478.392 156.428C478.027 155.939 477.82 155.35 477.797 154.74H450.036C450.013 155.35 449.806 155.939 449.441 156.428C449.077 156.918 448.573 157.285 447.995 157.483C447.418 157.68 446.794 157.697 446.207 157.533C445.619 157.368 445.095 157.03 444.704 156.561V165.547L438.264 195.138L438.012 196.507L436.362 205.482H437.207L422.497 346.478L446.645 348.954L462.875 228.514L470.25 345.814L494.972 344.707L491.692 195.138L491.35 179.855V193.941L483.13 163.444ZM490.676 197.282L491.36 195.863C491.312 196.403 491.069 196.907 490.676 197.282Z" fill="#005750"/>
<path d="M492.064 115.025H437.841V202.08H492.064V115.025Z" fill="#31BC2E"/>
</g>
<mask id="mask2_1348_70814" style="mask-type:luminance" maskUnits="userSpaceOnUse" x="289" y="49" width="92" height="250">
<path d="M380.297 49.293H289.187V298.102H380.297V49.293Z" fill="white"/>
</mask>
<g mask="url(#mask2_1348_70814)">
<path d="M361.803 141.025L361.551 140.895L349.99 161.783C349.627 162.317 349.491 162.973 349.612 163.607C349.733 164.241 350.1 164.801 350.634 165.164C351.168 165.527 351.824 165.663 352.458 165.542C353.092 165.421 353.652 165.053 354.015 164.52L369.621 145.785C367.005 144.235 364.409 142.635 361.803 141.025Z" fill="#98492F"/>
<path d="M374.762 140.453L368.635 148.19L367.518 149.589L359.086 144.005L359.881 142.697L362.215 138.833L350.342 128.258L348.783 110.318L351.882 107.551L374.41 133.39C375.25 134.358 375.741 135.58 375.805 136.861C375.868 138.141 375.501 139.406 374.762 140.453Z" fill="#005750"/>
<path d="M338.933 93.043H328.76V106.365H338.933V93.043Z" fill="#FFAAA8"/>
<path d="M333.851 64.4375C319.342 64.7394 322.008 71.5915 322.642 83.8468C323.296 96.5649 333.851 95.9209 333.851 95.9209C333.851 95.9209 344.396 96.5951 345.05 83.8468C345.644 71.5915 348.35 64.7394 333.851 64.4375Z" fill="#98492F"/>
<path d="M344.547 78.1303C344.92 77.7996 345.378 77.5808 345.869 77.4989C346.36 77.417 346.865 77.4754 347.324 77.6674C347.761 77.8488 348.154 78.1225 348.475 78.4698C348.796 78.8172 349.039 79.23 349.186 79.6798C349.432 80.5456 349.452 81.46 349.246 82.3361C349.123 83.053 348.856 83.7375 348.461 84.3485C348.026 84.9841 347.387 85.4525 346.65 85.6766C346.27 85.7921 345.87 85.8203 345.478 85.7594C345.086 85.6984 344.713 85.5497 344.386 85.3245C344.376 82.8996 344.577 80.5552 344.547 78.1303Z" fill="#98492F"/>
<path d="M323.156 78.1306C322.783 77.801 322.324 77.5828 321.833 77.501C321.342 77.4192 320.838 77.4769 320.379 77.6677C319.941 77.8491 319.549 78.1228 319.228 78.4701C318.906 78.8175 318.664 79.2303 318.517 79.6801C318.255 80.5648 318.241 81.5047 318.477 82.3968C318.597 83.113 318.86 83.7975 319.252 84.4092C319.682 85.0411 320.313 85.5092 321.043 85.7373C321.422 85.8535 321.823 85.8821 322.215 85.8211C322.607 85.7601 322.98 85.6111 323.307 85.3852C323.327 82.8999 323.115 80.5555 323.156 78.1306Z" fill="#98492F"/>
<path d="M306.332 282.396C306.281 291.281 306.332 300.176 306.563 309.08C306.59 310.048 306.973 310.972 307.637 311.676C308.302 312.381 309.202 312.816 310.167 312.899C311.131 312.982 312.093 312.708 312.868 312.128C313.643 311.548 314.178 310.703 314.371 309.755C316.202 300.699 317.822 291.523 319.402 282.396H306.332Z" fill="#98492F"/>
<path d="M348.451 283.291C349.94 292.125 351.469 300.95 353.28 309.754C353.473 310.702 354.008 311.547 354.783 312.127C355.559 312.707 356.52 312.981 357.485 312.898C358.45 312.815 359.35 312.38 360.014 311.675C360.679 310.971 361.061 310.047 361.088 309.079C361.32 300.467 361.37 291.874 361.33 283.291H348.451Z" fill="#98492F"/>
<path d="M333.71 101.805C327.107 102.103 320.748 104.382 315.458 108.345C314.859 108.809 314.403 109.433 314.143 110.146C313.884 110.858 313.83 111.628 313.989 112.37C315.398 118.517 319.141 135.804 320.177 149.91H335.582V101.805H333.71Z" fill="#FFAAA8"/>
<path d="M333.982 101.805C340.591 102.099 346.959 104.378 352.254 108.345C352.855 108.808 353.313 109.432 353.574 110.144C353.836 110.856 353.891 111.628 353.733 112.37C352.325 118.517 348.582 135.804 347.535 149.91H332.141V101.805H333.982Z" fill="#FFAAA8"/>
<path d="M317.189 161.786L306.02 141.662C303.535 143.473 300.989 145.234 298.443 146.914L313.204 164.563C313.567 165.097 314.127 165.464 314.761 165.585C315.395 165.706 316.051 165.57 316.585 165.207C317.119 164.844 317.486 164.284 317.607 163.65C317.728 163.016 317.592 162.36 317.229 161.826L317.189 161.786Z" fill="#98492F"/>
<path d="M358.503 185.621C357.224 173.116 353.494 160.985 347.525 149.922H320.187C314.059 161.285 310.294 173.771 309.119 186.627L304.974 287.568L319.181 289.339L333.096 187.09L334.274 186.627L348.26 288.252L362.235 286.239L358.643 187.634C358.613 186.959 358.573 186.285 358.503 185.621Z" fill="#31B92E"/>
<path d="M353.693 110.279C352.807 107.673 350.282 105.983 347.716 105.017C345.15 104.051 342.363 103.719 339.868 102.592C335.972 103.46 331.93 103.436 328.045 102.521C325.56 103.648 323.014 103.779 320.398 104.584C317.782 105.389 315.156 106.888 314.13 109.414C313.335 111.366 313.647 113.559 313.959 115.632C315.79 127.585 317.618 139.536 319.442 151.482L348.42 151.663C349.698 139.861 351.519 128.109 353.592 116.447C353.954 114.354 354.317 112.221 353.693 110.279Z" fill="#005750"/>
<path d="M342.002 103.386C336.819 105.158 331.184 105.094 326.043 103.205C326.731 103.016 327.404 102.778 328.056 102.49C331.924 103.399 335.945 103.433 339.828 102.591C340.534 102.904 341.26 103.17 342.002 103.386Z" fill="#00144A"/>
<path d="M316.837 128.258L304.954 138.833L307.157 142.465L308.093 144.005L299.661 149.589L298.544 148.19L292.417 140.453C291.679 139.408 291.313 138.146 291.379 136.869C291.445 135.591 291.938 134.373 292.779 133.41L315.297 107.551L318.406 110.348L316.837 128.258Z" fill="#005750"/>
<path d="M308.093 144.004L299.661 149.589L298.544 148.19L307.157 142.465L308.093 144.004Z" fill="#022D2B"/>
<path d="M368.635 148.201L367.518 149.59L359.086 144.005L359.881 142.697L368.635 148.201Z" fill="#022D2B"/>
<path d="M321.415 91.8145C322.089 88.2526 320.861 84.6102 319.402 81.2798C317.943 77.9493 316.293 74.6188 316.001 70.9966C315.75 69.0641 316.223 67.1072 317.329 65.5028C317.906 64.7186 318.732 64.1539 319.672 63.9016C320.612 63.6492 321.61 63.7242 322.501 64.1143C322.394 63.3959 322.463 62.6621 322.703 61.9766C322.944 61.291 323.347 60.6744 323.88 60.1801C325.078 59.1007 326.495 58.294 328.035 57.8156C333.823 55.8288 340.159 56.1901 345.684 58.8218C348.37 60.1097 350.956 62.1422 351.721 65.0098C352.838 68.954 350.332 72.8983 348.833 76.7218C345.704 84.7712 347.022 93.8269 348.481 102.299C349.427 107.803 350.302 113.9 347.284 118.599C344.134 123.509 337.222 125.22 331.778 123.187C326.335 121.155 322.501 115.963 320.932 110.338C319.362 104.714 320.328 97.5397 321.415 91.8145Z" fill="#051616"/>
<path d="M320.406 287.574L303.644 285.922L303.321 289.196L320.084 290.849L320.406 287.574Z" fill="#1C4A45"/>
<path d="M346.665 290.178L363.427 288.525L363.104 285.251L346.342 286.903L346.665 290.178Z" fill="#1C4A45"/>
<path d="M307.55 144.367L300.336 149.136L301.533 150.575L307.852 144.931L307.55 144.367Z" fill="#31B92E"/>
<path d="M359.63 144.367L366.844 149.136L364.912 151.441L359.217 145.122L359.63 144.367Z" fill="#31B92E"/>
<path d="M306.312 289.469L317.943 290.616L317.32 294.137L306.312 290.827V289.469Z" fill="#98492F"/>
<path d="M361.34 288.703L349.497 289.87L350.232 293.583L361.34 290.766V288.703Z" fill="#98492F"/>
</g>
<path d="M114.464 300.154H527.361C527.948 300.154 528.511 299.921 528.926 299.505C529.341 299.09 529.575 298.527 529.575 297.94C529.576 297.649 529.52 297.361 529.409 297.092C529.298 296.822 529.135 296.578 528.929 296.372C528.724 296.166 528.479 296.003 528.21 295.892C527.941 295.782 527.652 295.725 527.361 295.727H114.464C113.877 295.727 113.314 295.96 112.899 296.375C112.484 296.79 112.25 297.353 112.25 297.94C112.253 298.526 112.487 299.088 112.902 299.503C113.316 299.917 113.878 300.151 114.464 300.154Z" fill="#004C46"/>
</g>
<defs>
<clipPath id="clip0_1348_70814">
<rect width="483.974" height="281.731" fill="white" transform="translate(78 18)"/>
</clipPath>
</defs>
</svg>
