<svg width="80" height="80" viewBox="0 0 80 80" fill="none" xmlns="http://www.w3.org/2000/svg">
<rect x="0.5" y="0.5" width="79" height="79" rx="39.5" fill="white"/>
<path d="M56.5 23.5H57.76C57.8371 23.5372 57.9174 23.5673 58 23.59C58.5019 23.6701 58.9819 23.8525 59.4103 24.1261C59.8387 24.3996 60.2062 24.7584 60.49 25.18C60.8342 25.794 61.1253 26.4363 61.36 27.1V28.255C61.36 28.405 61.27 28.555 61.24 28.705C61.109 29.2536 60.8654 29.769 60.5245 30.2183C60.1836 30.6676 59.753 31.0411 59.26 31.315C58.7747 31.5584 58.2735 31.7689 57.76 31.945V34.735H57.895C58.7512 34.8835 59.5397 35.2959 60.1502 35.9144C60.7607 36.533 61.1627 37.3268 61.3 38.185C61.3 38.185 61.3 38.305 61.3 38.365V39.535C61.2531 39.6628 61.2131 39.793 61.18 39.925C61.0255 40.5485 60.7297 41.1282 60.3152 41.619C59.9008 42.1098 59.379 42.4986 58.7901 42.7553C58.2013 43.012 57.5612 43.1297 56.9196 43.0993C56.2779 43.0689 55.6519 42.8912 55.09 42.58C54.7427 42.3885 54.3393 42.3248 53.95 42.4V48.4H56.86C57.34 48.4 57.52 48.58 57.52 49.045C57.52 50.35 57.52 51.655 57.52 52.975C57.52 53.44 57.34 53.62 56.86 53.62H54.085C54.0928 54.1555 53.9665 54.6844 53.7176 55.1586C53.4687 55.6329 53.1051 56.0372 52.66 56.335C52.264 56.5641 51.8471 56.755 51.415 56.905H50.245C50.1952 56.8663 50.1394 56.8359 50.08 56.815C49.4011 56.6474 48.7947 56.2646 48.3513 55.7239C47.9079 55.1832 47.6514 54.5135 47.62 53.815C47.627 53.7402 47.627 53.6648 47.62 53.59H35.62C35.4662 54.147 35.2758 54.6932 35.0499 55.225C34.8141 55.6444 34.489 56.0069 34.0976 56.2869C33.7062 56.5668 33.2581 56.7573 32.785 56.845H31.705C30.9759 56.6606 30.3181 56.2639 29.815 55.705C29.3189 55.0983 29.0391 54.3435 29.02 53.56H26.5C25.705 53.56 25.6 53.455 25.6 52.675V30.76H23.83C23.7798 30.7606 23.7304 30.7731 23.6861 30.7966C23.6417 30.8201 23.6036 30.8538 23.575 30.895C23.44 31.24 23.17 31.285 22.84 31.285C21.58 31.285 20.335 31.285 19.075 31.285C18.7552 31.3062 18.437 31.2245 18.1671 31.0517C17.8971 30.8789 17.6896 30.6243 17.575 30.325V28.255C17.7199 27.9476 17.9603 27.6953 18.2604 27.5358C18.5605 27.3763 18.9041 27.3181 19.24 27.37C20.425 27.37 21.61 27.37 22.795 27.37C23.23 27.37 23.59 27.37 23.71 27.925H28.255C28.975 27.925 29.095 28.045 29.095 28.78V48.385H31.63V42.385C30.745 42.385 30.7 42.25 30.7 41.395V39.325C30.7 38.515 30.7 38.455 31.555 38.38H31.645V32.38C30.73 32.29 30.7 32.26 30.7 31.36V29.2C30.7 28.525 30.835 28.405 31.51 28.405H39.82H40.2999V27.01C40.2999 26.23 40.39 26.14 41.155 26.14H52.885C53.0103 26.1774 53.1453 26.1637 53.2605 26.1018C53.3757 26.04 53.4618 25.9351 53.5 25.81C53.9052 24.9527 54.6015 24.267 55.465 23.875C55.81 23.725 56.17 23.62 56.5 23.5ZM26.5 52.6H28.87C28.9781 52.6132 29.0875 52.5891 29.1802 52.5319C29.2728 52.4747 29.3433 52.3876 29.38 52.285C29.626 51.7269 30.0364 51.2571 30.5563 50.9382C31.0762 50.6193 31.681 50.4664 32.29 50.5C32.8974 50.4751 33.498 50.6353 34.0123 50.9594C34.5266 51.2836 34.9303 51.7563 35.17 52.315C35.2092 52.4148 35.2808 52.4986 35.3732 52.5529C35.4657 52.6073 35.5736 52.6292 35.68 52.615H47.5C47.6061 52.6274 47.7133 52.6028 47.8034 52.5454C47.8936 52.4881 47.9612 52.4014 47.995 52.3C48.239 51.7644 48.6316 51.3101 49.1261 50.9911C49.6207 50.672 50.1964 50.5016 50.785 50.5C51.3675 50.4658 51.9475 50.6022 52.4537 50.8926C52.9599 51.183 53.3704 51.6148 53.635 52.135C53.7039 52.3019 53.8276 52.4404 53.9857 52.5277C54.1439 52.6149 54.327 52.6457 54.505 52.615C55.045 52.615 55.585 52.615 56.125 52.615H56.53V49.48H26.53L26.5 52.6ZM56.5 32.005L54.7 31.09C54.5103 30.9864 54.3005 30.925 54.085 30.91H41.35V38.41H52.975L53.275 37.27H52.435C52.3637 37.2767 52.2918 37.2678 52.2243 37.244C52.1567 37.2201 52.0952 37.182 52.0439 37.1321C51.9925 37.0821 51.9526 37.0217 51.9269 36.9549C51.9012 36.8881 51.8903 36.8164 51.895 36.745C51.8922 36.6753 51.9047 36.6059 51.9315 36.5416C51.9583 36.4772 51.9988 36.4195 52.0502 36.3724C52.1016 36.3252 52.1627 36.2899 52.2291 36.2688C52.2955 36.2476 52.3658 36.2412 52.435 36.25H53.695C53.7976 36.2813 53.9073 36.2813 54.01 36.25C54.385 35.95 54.745 35.62 55.135 35.275H48.475C48.325 35.275 48.13 35.275 48.025 35.275C47.92 35.275 47.665 34.99 47.665 34.84C47.7137 34.6374 47.8301 34.4575 47.995 34.33C48.085 34.33 48.265 34.33 48.4 34.33H55C55.2274 34.3113 55.4545 34.3694 55.645 34.495C55.795 34.615 55.795 34.9 55.87 35.125L56.635 34.93L56.5 32.005ZM28 48.385V28.885H26.5V48.385H28ZM57.1899 42.07C57.8165 42.0574 58.425 41.8581 58.9377 41.4978C59.4504 41.1374 59.844 40.6323 60.0681 40.0471C60.2922 39.4619 60.3367 38.8231 60.1958 38.2125C60.0549 37.6019 59.7351 37.0471 59.2772 36.6192C58.8194 36.1914 58.2443 35.9097 57.6256 35.8104C57.0068 35.7111 56.3725 35.7986 55.8038 36.0618C55.235 36.3249 54.7577 36.7517 54.4328 37.2876C54.1079 37.8234 53.9502 38.444 53.9799 39.07C54.0227 39.8936 54.3852 40.668 54.9904 41.2283C55.5955 41.7887 56.3955 42.0907 57.22 42.07H57.1899ZM52.99 27.19H41.35V29.83H53.5C53.0649 29.0225 52.8869 28.1014 52.99 27.19ZM52.99 42.415H49.375C49.375 43.285 49.375 44.11 49.375 44.95C49.375 45.505 48.91 45.76 48.505 45.4C48.1 45.04 47.425 44.815 46.885 45.4C46.8075 45.4612 46.7138 45.4987 46.6155 45.5077C46.5171 45.5168 46.4183 45.497 46.3309 45.451C46.2435 45.4049 46.1714 45.3345 46.1233 45.2482C46.0752 45.1619 46.0532 45.0635 46.06 44.965C46.06 44.59 46.06 44.215 46.06 43.84V42.34H45.445V46.555H52.945L52.99 42.415ZM40.33 46.615V42.4H36.715C36.715 43.285 36.715 44.125 36.715 44.98C36.715 45.46 36.2649 45.745 35.92 45.445C35.8117 45.3104 35.6747 45.2018 35.5189 45.1272C35.3632 45.0526 35.1927 45.0139 35.02 45.0139C34.8472 45.0139 34.6767 45.0526 34.521 45.1272C34.3652 45.2018 34.2282 45.3104 34.12 45.445C33.835 45.73 33.4 45.445 33.34 45.07C33.3247 44.9003 33.3247 44.7297 33.34 44.56V42.415H32.74V46.615H40.33ZM36.715 32.38C36.715 33.25 36.715 34.075 36.715 34.915C36.7107 35.019 36.6845 35.1209 36.638 35.214C36.5914 35.3071 36.5256 35.3892 36.445 35.455C36.3521 35.5024 36.2492 35.5271 36.145 35.5271C36.0407 35.5271 35.9378 35.5024 35.8449 35.455C35.748 35.3331 35.6248 35.2347 35.4846 35.1671C35.3444 35.0994 35.1907 35.0643 35.035 35.0643C34.8792 35.0643 34.7255 35.0994 34.5853 35.1671C34.4451 35.2347 34.3219 35.3331 34.225 35.455C33.82 35.83 33.355 35.575 33.34 35.02C33.325 34.465 33.34 33.61 33.34 32.89C33.3474 32.7501 33.3474 32.6099 33.34 32.47H32.77V36.67H40.27V32.38H36.715ZM41.35 42.4V48.4H44.35V42.4C43.42 42.25 43.42 42.25 43.42 41.29V39.475H42.34V41.635C42.34 42.205 42.205 42.355 41.635 42.37L41.35 42.4ZM57.145 30.85C57.9832 30.854 58.7891 30.5269 59.3875 29.9398C59.9858 29.3528 60.3281 28.5532 60.34 27.715C60.3361 26.878 60.0039 26.0759 59.4149 25.4812C58.8258 24.8865 58.0269 24.5468 57.1899 24.535C56.757 24.5051 56.3225 24.5646 55.9136 24.7098C55.5046 24.855 55.1298 25.0827 54.8126 25.3788C54.4953 25.6749 54.2423 26.0331 54.0694 26.4312C53.8964 26.8292 53.8072 27.2585 53.8072 27.6925C53.8072 28.1265 53.8964 28.5558 54.0694 28.9538C54.2423 29.3519 54.4953 29.7101 54.8126 30.0062C55.1298 30.3023 55.5046 30.53 55.9136 30.6752C56.3225 30.8204 56.757 30.8799 57.1899 30.85H57.145ZM31.765 41.35H41.215V39.475H31.765V41.35ZM31.78 29.5V31.3H40.27V29.5H31.78ZM52.93 39.52H44.5V41.35H53.695L52.93 39.52ZM34.465 53.695C34.462 53.2631 34.3314 52.8418 34.0896 52.484C33.8478 52.1261 33.5057 51.8478 33.1061 51.6839C32.7066 51.52 32.2675 51.4779 31.8441 51.5629C31.4206 51.6478 31.0318 51.8561 30.7264 52.1615C30.4211 52.4669 30.2128 52.8557 30.1278 53.2791C30.0428 53.7025 30.0849 54.1416 30.2488 54.5412C30.4127 54.9407 30.6911 55.2829 31.0489 55.5247C31.4068 55.7664 31.8281 55.897 32.26 55.9C32.5495 55.9 32.8362 55.843 33.1038 55.7322C33.3713 55.6213 33.6144 55.4589 33.8191 55.2542C34.0239 55.0494 34.1863 54.8063 34.2971 54.5388C34.4079 54.2713 34.465 53.9846 34.465 53.695ZM48.655 53.695C48.6579 54.1275 48.7889 54.5494 49.0313 54.9076C49.2737 55.2657 49.6168 55.5441 50.0172 55.7076C50.4176 55.871 50.8575 55.9123 51.2813 55.8261C51.7051 55.7399 52.094 55.5301 52.3987 55.2233C52.7035 54.9164 52.9106 54.5262 52.9939 54.1018C53.0772 53.6774 53.033 53.2378 52.8668 52.8385C52.7006 52.4392 52.4199 52.098 52.0601 51.8581C51.7003 51.6181 51.2775 51.49 50.845 51.49C50.5554 51.492 50.269 51.5509 50.0023 51.6636C49.7355 51.7762 49.4935 51.9403 49.2902 52.1464C49.0868 52.3526 48.926 52.5968 48.817 52.865C48.7081 53.1333 48.653 53.4204 48.655 53.71V53.695ZM22.525 28.465H22.39H18.88C18.64 28.465 18.52 28.57 18.52 28.81V29.23C18.52 30.505 18.355 30.325 19.63 30.325H22.525V28.465ZM32.74 37.69C32.635 38.395 32.635 38.41 33.295 38.41H39.7299C40.36 38.41 40.3899 38.41 40.24 37.69H32.74ZM32.74 48.415H39.76C40.39 48.415 40.42 48.415 40.255 47.71H32.755L32.74 48.415ZM52.945 48.415V47.695H50.17C48.67 47.695 47.17 47.695 45.67 47.695C45.37 47.695 45.265 47.785 45.28 48.085C45.295 48.385 45.445 48.445 45.7 48.445H52.495L52.945 48.415ZM35.65 34V32.395H34.39V34C34.4603 33.8979 34.5544 33.8144 34.6641 33.7568C34.7739 33.6991 34.896 33.669 35.02 33.669C35.1439 33.669 35.266 33.6991 35.3758 33.7568C35.4855 33.8144 35.5796 33.8979 35.65 34ZM35.65 43.93V42.4H34.39V43.9C35.035 43.675 35.035 43.675 35.65 43.99V43.93ZM47.035 44.02C47.1089 43.9207 47.2051 43.84 47.3158 43.7845C47.4265 43.7289 47.5486 43.7 47.6725 43.7C47.7963 43.7 47.9184 43.7289 48.0291 43.7845C48.1398 43.84 48.236 43.9207 48.31 44.02V42.415H47.035V44.02ZM23.605 28.96V29.71H25.495V28.96H23.605Z" fill="#367AFE"/>
<path d="M46.2096 33.0852H42.9996C42.9348 33.0926 42.8694 33.0926 42.8046 33.0852C42.4596 33.0852 42.2196 32.9352 42.2196 32.5752C42.2196 32.2152 42.4746 32.0502 42.8046 32.0502H49.7496C49.8234 32.0417 49.8982 32.049 49.969 32.0715C50.0398 32.0941 50.105 32.1314 50.1603 32.181C50.2156 32.2307 50.2597 32.2914 50.2898 32.3594C50.3198 32.4273 50.3351 32.5009 50.3346 32.5752C50.3346 32.8902 50.1096 33.0852 49.7046 33.0852C48.5346 33.1002 47.3646 33.0852 46.2096 33.0852Z" fill="#367AFE"/>
<path d="M46.2249 37.24H42.8499C42.3699 37.24 42.1449 37.045 42.1599 36.7C42.1749 36.355 42.3999 36.205 42.8349 36.205H49.6449C50.1099 36.205 50.3499 36.4 50.3349 36.745C50.3199 37.09 50.0949 37.24 49.6449 37.24H46.2249Z" fill="#367AFE"/>
<path d="M44.0799 35.1699H42.7449C42.672 35.1807 42.5975 35.1756 42.5267 35.1549C42.4559 35.1342 42.3904 35.0983 42.3348 35.0499C42.2792 35.0014 42.2347 34.9414 42.2045 34.8741C42.1744 34.8067 42.1591 34.7337 42.1599 34.6599C42.1599 34.3599 42.3699 34.1349 42.7599 34.1349H45.5049C45.8499 34.1349 46.0749 34.2999 46.0749 34.6599C46.0749 35.0199 45.8349 35.1549 45.4899 35.1699H44.0799Z" fill="#367AFE"/>
<path d="M53.8149 33.0848H52.4949C52.1499 33.0848 51.9249 32.9498 51.8949 32.5898C51.8649 32.2298 52.1049 32.0648 52.4949 32.0498H55.2099C55.5999 32.0498 55.8249 32.2448 55.8249 32.5598C55.8249 32.8748 55.5849 33.0698 55.1949 33.0698C54.8049 33.0698 54.2799 33.0698 53.8149 33.0698V33.0848Z" fill="#367AFE"/>
<path d="M56.8448 38.965L58.5548 37.18C58.5918 37.1278 58.6391 37.0839 58.6938 37.0509C58.7485 37.0178 58.8094 36.9964 58.8727 36.988C58.9361 36.9795 59.0005 36.9842 59.0619 37.0018C59.1233 37.0193 59.1805 37.0493 59.2298 37.09C59.3545 37.2597 59.4227 37.4644 59.4248 37.675C59.4248 37.75 59.3348 37.855 59.2598 37.93L57.1898 40C56.8448 40.33 56.5748 40.315 56.2748 40L55.7198 39.28C55.663 39.2321 55.6173 39.1724 55.586 39.105C55.5547 39.0377 55.5385 38.9643 55.5385 38.89C55.5385 38.8157 55.5547 38.7423 55.586 38.6749C55.6173 38.6076 55.663 38.5478 55.7198 38.5C55.7777 38.4535 55.8451 38.4202 55.9171 38.4025C55.9892 38.3848 56.0643 38.383 56.1372 38.3972C56.21 38.4115 56.2789 38.4415 56.3389 38.4852C56.399 38.5289 56.4488 38.5851 56.4848 38.65L56.8448 38.965Z" fill="#367AFE"/>
<path d="M45.0999 29.02H42.8949C42.4899 29.02 42.2649 28.825 42.2649 28.51C42.2649 28.195 42.5049 28 42.8949 28H47.2899C47.6349 28 47.8899 28.105 47.9199 28.495C47.9499 28.885 47.7099 29.02 47.2749 29.02H45.0999Z" fill="#367AFE"/>
<path d="M55.7499 28.4798C55.8399 28.4798 55.9899 28.1798 56.1849 28.1048C56.3799 28.0298 56.6799 28.1948 56.7699 28.4948C56.7699 28.4948 56.7699 28.6898 56.7699 28.7348C56.7699 28.7798 57.0399 28.9598 57.1599 28.9448C57.2316 28.9161 57.2959 28.8715 57.3479 28.8143C57.3998 28.7572 57.4381 28.6889 57.4599 28.6148C57.451 28.5421 57.4245 28.4727 57.3826 28.4126C57.3408 28.3524 57.2849 28.3034 57.2199 28.2698C57.0399 28.1798 56.8149 28.1648 56.6199 28.0898C56.3813 28.0287 56.1665 27.8974 56.0034 27.7129C55.8402 27.5284 55.7362 27.2991 55.7049 27.0548C55.6639 26.7917 55.6937 26.5224 55.7912 26.2746C55.8888 26.0268 56.0505 25.8094 56.2599 25.6448C56.4099 25.5248 56.4999 25.3298 56.6499 25.2098C56.7999 25.0898 56.9499 24.9248 57.1149 24.9248C57.2881 24.9769 57.4437 25.0755 57.5649 25.2098C57.7149 25.3469 57.846 25.5032 57.9549 25.6748C58.1725 25.9668 58.3538 26.2841 58.4949 26.6198C58.5231 26.6874 58.5355 26.7606 58.531 26.8338C58.5266 26.9069 58.5054 26.9781 58.4692 27.0418C58.433 27.1055 58.3827 27.1601 58.3222 27.2013C58.2616 27.2426 58.1924 27.2694 58.1199 27.2798C57.7599 27.2798 57.5649 27.1748 57.4899 26.8298C57.4899 26.8298 57.4899 26.6648 57.4899 26.6348C57.4899 26.6048 57.2049 26.4998 57.0849 26.4998C56.9649 26.4998 56.8299 26.7098 56.7999 26.8448C56.7699 26.9798 56.9199 27.0998 57.0399 27.1598C57.2597 27.2455 57.4852 27.3157 57.7149 27.3698C57.9569 27.4399 58.1703 27.5853 58.324 27.7849C58.4778 27.9845 58.5639 28.2279 58.5699 28.4798C58.5992 28.7299 58.5603 28.9832 58.4573 29.213C58.3543 29.4427 58.1911 29.6403 57.9849 29.7848C57.8499 29.9048 57.7749 30.0848 57.6399 30.2048C57.5049 30.3248 57.3099 30.5048 57.1449 30.5048C56.9799 30.5048 56.8299 30.2948 56.6799 30.1598C56.5299 30.0248 56.5149 29.9198 56.4099 29.8298C56.1909 29.6827 56.0145 29.4804 55.8986 29.2434C55.7828 29.0064 55.7314 28.743 55.7499 28.4798Z" fill="#367AFE"/>
<path d="M32.2598 55.1949C31.9631 55.1949 31.6731 55.107 31.4264 54.9422C31.1797 54.7773 30.9875 54.5431 30.8739 54.269C30.7604 53.9949 30.7307 53.6933 30.7886 53.4023C30.8465 53.1113 30.9893 52.8441 31.1991 52.6343C31.4089 52.4245 31.6762 52.2816 31.9671 52.2238C32.2581 52.1659 32.5597 52.1956 32.8338 52.3091C33.1079 52.4227 33.3421 52.6149 33.507 52.8616C33.6718 53.1083 33.7598 53.3983 33.7598 53.6949C33.7598 54.0928 33.6017 54.4743 33.3204 54.7556C33.0391 55.0369 32.6576 55.1949 32.2598 55.1949ZM32.7998 53.7699V53.5899C32.6348 53.4699 32.4698 53.2899 32.2898 53.2599C32.1098 53.2299 31.8098 53.4249 31.8248 53.7099C31.8155 53.7733 31.8219 53.8379 31.8436 53.8982C31.8652 53.9585 31.9013 54.0125 31.9488 54.0555C31.9962 54.0985 32.0535 54.1291 32.1156 54.1447C32.1777 54.1603 32.2426 54.1604 32.3048 54.1449C32.4998 54.0999 32.6348 53.9049 32.7998 53.7699Z" fill="#367AFE"/>
<path d="M52.3446 53.71C52.3446 54.0066 52.2566 54.2966 52.0918 54.5433C51.927 54.79 51.6927 54.9822 51.4186 55.0958C51.1445 55.2093 50.8429 55.239 50.552 55.1811C50.261 55.1233 49.9937 54.9804 49.7839 54.7706C49.5742 54.5608 49.4313 54.2936 49.3734 54.0026C49.3155 53.7116 49.3453 53.41 49.4588 53.1359C49.5723 52.8618 49.7646 52.6276 50.0112 52.4628C50.2579 52.2979 50.5479 52.21 50.8446 52.21C51.2424 52.21 51.624 52.368 51.9053 52.6493C52.1866 52.9306 52.3446 53.3121 52.3446 53.71ZM50.3196 53.605V53.8C50.4846 53.92 50.6496 54.115 50.8296 54.145C50.8927 54.1574 50.9578 54.1547 51.0196 54.137C51.0814 54.1192 51.1381 54.0871 51.185 54.0431C51.2319 53.9991 51.2677 53.9446 51.2894 53.8841C51.311 53.8235 51.318 53.7587 51.3096 53.695C51.3096 53.425 51.1296 53.2 50.8596 53.245C50.5896 53.29 50.4996 53.5 50.3196 53.605Z" fill="#367AFE"/>
<rect x="0.5" y="0.5" width="79" height="79" rx="39.5" stroke="#ADC5FF"/>
</svg>
