<svg width="80" height="80" viewBox="0 0 80 80" fill="none" xmlns="http://www.w3.org/2000/svg">
<rect x="0.5" y="0.5" width="79" height="79" rx="39.5" fill="white"/>
<path d="M40.87 43.1501H40.135V53.7401C40.1442 54.0848 40.0344 54.4221 39.824 54.6953C39.6137 54.9686 39.3156 55.1609 38.98 55.2401C38.7718 55.2881 38.5558 55.291 38.3464 55.2487C38.137 55.2064 37.9391 55.1199 37.7658 54.9949C37.5925 54.87 37.448 54.7094 37.3418 54.5241C37.2356 54.3387 37.1702 54.1328 37.15 53.9201V35.5001C37.15 35.5001 37.15 35.3351 37.15 35.2301H36.61V41.0951C36.61 41.5001 36.61 41.8901 36.61 42.2951C36.576 42.6075 36.4278 42.8963 36.1939 43.1062C35.9599 43.316 35.6568 43.432 35.3425 43.432C35.0283 43.432 34.7251 43.316 34.4912 43.1062C34.2572 42.8963 34.109 42.6075 34.075 42.2951C34.075 39.8651 34.075 37.4351 34.075 34.9901C34.1348 33.9308 34.5906 32.9326 35.3519 32.1936C36.1131 31.4545 37.1244 31.0285 38.185 31.0001C39.715 31.0001 41.245 31.0001 42.775 31.0001C43.893 31.012 44.9612 31.4644 45.7476 32.2593C46.534 33.0541 46.9751 34.127 46.975 35.2451C46.975 37.6001 46.975 39.9701 46.975 42.3251C46.977 42.4886 46.9468 42.6509 46.886 42.8027C46.8253 42.9545 46.7352 43.0929 46.621 43.2099C46.5068 43.3269 46.3706 43.4203 46.2203 43.4846C46.07 43.549 45.9085 43.5832 45.745 43.5851C45.581 43.5952 45.4166 43.5724 45.2616 43.5179C45.1066 43.4635 44.964 43.3785 44.8424 43.2681C44.7208 43.1576 44.6225 43.0239 44.5534 42.8748C44.4843 42.7257 44.4457 42.5643 44.44 42.4001C44.44 40.9001 44.44 39.3251 44.44 37.7951V35.2451H43.9C43.9 35.3351 43.9 35.4251 43.9 35.5001V53.7851C43.9 54.1829 43.742 54.5645 43.4607 54.8458C43.1794 55.1271 42.7978 55.2851 42.4 55.2851C42.0022 55.2851 41.6207 55.1271 41.3394 54.8458C41.058 54.5645 40.9 54.1829 40.9 53.7851V43.1501H40.87Z" fill="#367AFE"/>
<path d="M59.7849 36.4001H59.3649C59.3649 36.5201 59.3649 36.6401 59.3649 36.7451V50.5001C59.3649 50.7984 59.2463 51.0846 59.0354 51.2956C58.8244 51.5066 58.5382 51.6251 58.2399 51.6251C57.9415 51.6251 57.6553 51.5066 57.4444 51.2956C57.2334 51.0846 57.1149 50.7984 57.1149 50.5001V42.4001H56.4999V50.5001C56.5092 50.664 56.4831 50.828 56.4232 50.9809C56.3633 51.1338 56.2711 51.2719 56.1528 51.3859C56.0346 51.4998 55.8932 51.5869 55.7382 51.6411C55.5832 51.6954 55.4183 51.7155 55.2549 51.7001C54.9875 51.6755 54.7378 51.5562 54.5507 51.3637C54.3637 51.1711 54.2516 50.918 54.2349 50.6501C54.2274 50.5202 54.2274 50.39 54.2349 50.2601V36.4001H53.8149C53.8149 36.5051 53.8149 36.6101 53.8149 36.7151V41.6501C53.837 41.7858 53.8302 41.9246 53.7948 42.0575C53.7595 42.1904 53.6965 42.3143 53.6099 42.4211C53.5233 42.5279 53.4151 42.6151 53.2924 42.6771C53.1696 42.7392 53.0352 42.7745 52.8979 42.7809C52.7605 42.7873 52.6234 42.7646 52.4954 42.7142C52.3675 42.6638 52.2517 42.587 52.1555 42.4887C52.0594 42.3904 51.9851 42.2729 51.9376 42.1439C51.8901 42.0149 51.8704 41.8772 51.8799 41.7401V36.4001C51.8778 35.9695 51.9616 35.5429 52.1264 35.1451C52.2911 34.7473 52.5335 34.3863 52.8393 34.0833C53.1452 33.7802 53.5084 33.5411 53.9077 33.3801C54.3069 33.219 54.7343 33.1391 55.1649 33.1451H58.3749C58.8175 33.1327 59.258 33.2107 59.6695 33.3744C60.0809 33.5381 60.4547 33.784 60.7678 34.0972C61.0809 34.4103 61.3268 34.784 61.4905 35.1955C61.6542 35.6069 61.7323 36.0474 61.7199 36.4901V41.6651C61.728 41.8173 61.7009 41.9693 61.6406 42.1093C61.5804 42.2493 61.4886 42.3735 61.3724 42.4722C61.2563 42.571 61.1189 42.6415 60.9711 42.6784C60.8232 42.7154 60.6688 42.7176 60.5199 42.6851C60.3006 42.6326 60.1068 42.5047 59.9724 42.3237C59.838 42.1427 59.7716 41.9201 59.7849 41.6951C59.7849 40.0451 59.7849 38.3951 59.7849 36.7451V36.4001Z" fill="#367AFE"/>
<path d="M24.2049 42.385H23.6649C23.6581 42.51 23.6581 42.6351 23.6649 42.76C23.6649 45.295 23.6649 47.83 23.6649 50.365C23.6788 50.5353 23.6552 50.7066 23.5958 50.8668C23.5365 51.027 23.4427 51.1722 23.3212 51.2923C23.1997 51.4124 23.0533 51.5044 22.8924 51.5619C22.7316 51.6194 22.56 51.6409 22.3899 51.625C22.1338 51.5923 21.8963 51.4735 21.7165 51.2882C21.5366 51.1029 21.425 50.8621 21.3999 50.605V36.715C21.3999 36.34 21.3999 36.34 20.9499 36.43V41.725C20.9595 41.9041 20.9163 42.082 20.8256 42.2367C20.7349 42.3913 20.6008 42.5159 20.4399 42.595C20.2939 42.687 20.1249 42.7357 19.9524 42.7357C19.7799 42.7357 19.6109 42.687 19.4649 42.595C19.3196 42.5168 19.199 42.3995 19.1169 42.2564C19.0347 42.1133 18.9942 41.95 18.9999 41.785C18.9999 39.91 18.9999 38.05 18.9999 36.175C19.0456 35.3684 19.3967 34.6094 19.9817 34.0522C20.5668 33.495 21.342 33.1814 22.1499 33.175H25.6749C26.4966 33.1862 27.2824 33.5135 27.869 34.0889C28.4556 34.6644 28.798 35.4437 28.8249 36.265C28.8249 38.11 28.8249 39.94 28.8249 41.785C28.8249 42.0397 28.7238 42.2838 28.5437 42.4639C28.3637 42.6439 28.1195 42.745 27.8649 42.745C27.6103 42.745 27.3661 42.6439 27.1861 42.4639C27.0061 42.2838 26.9049 42.0397 26.9049 41.785C26.9049 40.105 26.9049 38.44 26.9049 36.775V36.4H26.4999V50.5C26.5104 50.6725 26.481 50.845 26.414 51.0043C26.3471 51.1635 26.2443 51.3052 26.1138 51.4184C25.9832 51.5315 25.8284 51.6131 25.6612 51.6567C25.4941 51.7003 25.3191 51.7049 25.1499 51.67C24.8746 51.6157 24.629 51.4616 24.4602 51.2374C24.2913 51.0133 24.2111 50.7347 24.2349 50.455V42.385H24.2049Z" fill="#367AFE"/>
<path d="M50.5 24.4451C50.5 23.7851 50.5 23.2151 50.5 22.6301C50.4893 22.5453 50.4969 22.4591 50.5222 22.3774C50.5475 22.2958 50.59 22.2204 50.6468 22.1565C50.7036 22.0926 50.7735 22.0415 50.8516 22.0068C50.9298 21.9721 51.0145 21.9545 51.1 21.9551C51.1848 21.9568 51.2683 21.976 51.3453 22.0115C51.4224 22.047 51.4912 22.098 51.5476 22.1614C51.6039 22.2248 51.6466 22.2992 51.6728 22.3799C51.699 22.4605 51.7083 22.5457 51.7 22.6301V25.7351C51.7095 25.8222 51.6993 25.9102 51.6703 25.9928C51.6412 26.0753 51.594 26.1503 51.5321 26.2122C51.4702 26.2741 51.3952 26.3214 51.3126 26.3504C51.23 26.3795 51.142 26.3896 51.055 26.3801H47.875C47.7901 26.3908 47.704 26.3833 47.6223 26.3579C47.5406 26.3326 47.4653 26.2901 47.4013 26.2333C47.3374 26.1765 47.2864 26.1066 47.2517 26.0285C47.2169 25.9503 47.1993 25.8657 47.2 25.7801C47.2 25.4201 47.47 25.1951 47.89 25.1951H49.39V25.1051L49.21 25.0001C46.2574 22.6078 42.498 21.4424 38.71 21.7451C35.1634 21.9763 31.819 23.4781 29.29 25.9751C29.1783 26.0925 29.0391 26.1801 28.885 26.2301C28.7646 26.2701 28.6341 26.2665 28.5161 26.2199C28.3982 26.1733 28.3004 26.0866 28.24 25.9751C28.1626 25.859 28.1306 25.7184 28.1499 25.5802C28.1693 25.4419 28.2387 25.3156 28.345 25.2251C28.9069 24.6929 29.4978 24.1921 30.115 23.7251C33.0353 21.551 36.6013 20.4209 40.2408 20.5161C43.8803 20.6113 47.3823 21.9263 50.185 24.2501L50.5 24.4451Z" fill="#367AFE"/>
<path d="M29.35 56.7551V58.1801C29.35 58.3301 29.35 58.4801 29.35 58.6301C29.3462 58.7841 29.2834 58.9307 29.1745 59.0396C29.0656 59.1485 28.919 59.2113 28.765 59.2151C28.685 59.2152 28.6057 59.1992 28.5319 59.1681C28.4581 59.137 28.3913 59.0914 28.3354 59.0341C28.2794 58.9768 28.2356 58.9089 28.2063 58.8344C28.1771 58.7598 28.163 58.6802 28.165 58.6001V55.4351C28.1564 55.3502 28.1661 55.2644 28.1933 55.1834C28.2206 55.1025 28.2648 55.0283 28.323 54.9658C28.3812 54.9034 28.4521 54.854 28.5309 54.8211C28.6097 54.7883 28.6947 54.7726 28.78 54.7751C29.845 54.7751 30.925 54.7751 31.99 54.7751C32.0739 54.768 32.1583 54.7795 32.2372 54.8089C32.3161 54.8382 32.3875 54.8847 32.4463 54.9449C32.5051 55.0051 32.5498 55.0777 32.5773 55.1572C32.6047 55.2368 32.6142 55.3215 32.605 55.4051C32.6014 55.4867 32.5811 55.5666 32.5455 55.6401C32.5098 55.7135 32.4596 55.7789 32.3978 55.8323C32.336 55.8857 32.264 55.9258 32.1861 55.9504C32.1083 55.975 32.0262 55.9834 31.945 55.9751H30.445L30.595 56.1401C32.9295 57.9988 35.7772 59.0981 38.755 59.2901C40.8824 59.4489 43.019 59.148 45.0197 58.4077C47.0204 57.6675 48.8383 56.5053 50.35 55.0001C50.635 54.7301 50.86 54.6701 51.13 54.7901C51.2492 54.8401 51.3466 54.9311 51.4044 55.0467C51.4622 55.1623 51.4766 55.2948 51.445 55.4201C51.4173 55.5612 51.3496 55.6914 51.25 55.7951C48.7636 58.2745 45.5239 59.8574 42.04 60.2951C39.8269 60.6311 37.5679 60.5003 35.4083 59.9114C33.2487 59.3224 31.2362 58.2882 29.5 56.8751L29.35 56.7551Z" fill="#367AFE"/>
<path d="M40.6299 24.79C41.0105 24.7619 41.3927 24.8127 41.7528 24.9391C42.1128 25.0654 42.443 25.2647 42.7225 25.5244C43.0021 25.7842 43.2251 26.0988 43.3776 26.4486C43.5301 26.7984 43.6088 27.1759 43.6088 27.5575C43.6088 27.9391 43.5301 28.3166 43.3776 28.6664C43.2251 29.0162 43.0021 29.3308 42.7225 29.5905C42.443 29.8502 42.1128 30.0495 41.7528 30.1759C41.3927 30.3023 41.0105 30.353 40.6299 30.325C40.2493 30.353 39.8671 30.3023 39.507 30.1759C39.1469 30.0495 38.8168 29.8502 38.5372 29.5905C38.2577 29.3308 38.0347 29.0162 37.8822 28.6664C37.7297 28.3166 37.651 27.9391 37.651 27.5575C37.651 27.1759 37.7297 26.7984 37.8822 26.4486C38.0347 26.0988 38.2577 25.7842 38.5372 25.5244C38.8168 25.2647 39.1469 25.0654 39.507 24.9391C39.8671 24.8127 40.2493 24.7619 40.6299 24.79Z" fill="#367AFE"/>
<path d="M58.9901 30.55C58.9931 30.9689 58.8715 31.3793 58.641 31.7291C58.4104 32.0789 58.0811 32.3523 57.6949 32.5147C57.3087 32.6771 56.883 32.7211 56.4717 32.6412C56.0605 32.5613 55.6822 32.361 55.3849 32.0658C55.0876 31.7707 54.8847 31.3938 54.8019 30.9832C54.7191 30.5725 54.7601 30.1465 54.9197 29.7591C55.0793 29.3718 55.3504 29.0406 55.6985 28.8075C56.0466 28.5744 56.4561 28.45 56.8751 28.45C57.1521 28.448 57.4268 28.5009 57.6833 28.6055C57.9398 28.7102 58.1731 28.8646 58.3697 29.0598C58.5663 29.255 58.7223 29.4871 58.8288 29.7429C58.9353 29.9987 58.9901 30.273 58.9901 30.55Z" fill="#367AFE"/>
<path d="M23.995 32.6501C23.4381 32.6501 22.9039 32.4288 22.5101 32.035C22.1163 31.6412 21.895 31.107 21.895 30.5501C21.895 29.9931 22.1163 29.459 22.5101 29.0651C22.9039 28.6713 23.4381 28.4501 23.995 28.4501C24.552 28.4501 25.0861 28.6713 25.4799 29.0651C25.8738 29.459 26.095 29.9931 26.095 30.5501C26.095 31.107 25.8738 31.6412 25.4799 32.035C25.0861 32.4288 24.552 32.6501 23.995 32.6501Z" fill="#367AFE"/>
<rect x="0.5" y="0.5" width="79" height="79" rx="39.5" stroke="#ADC5FF"/>
</svg>
