<svg width="647" height="298" viewBox="0 0 647 298" fill="none" xmlns="http://www.w3.org/2000/svg">
<path d="M343.633 0H647V300L0 300L68.616 167.618C82.3674 141.087 109.759 124.432 139.642 124.432H162.28C185.378 124.432 207.349 114.449 222.541 97.0501L283.372 27.3824C298.565 9.98346 320.535 0 343.633 0Z" fill="#004C46"/>
<g clip-path="url(#clip0_1348_69878)">
<path d="M212.989 299.571C219.284 298.721 224.495 293.298 225.792 287.081C226.341 283.94 226.135 280.713 225.192 277.667C224.249 274.621 222.596 271.842 220.369 269.56C217.428 266.452 213.537 264.07 211.67 260.224C209.803 256.377 210.272 252.184 209.355 248.181C208.644 245.192 207.216 242.422 205.194 240.109C203.172 237.797 200.616 236.012 197.749 234.909C193.959 233.489 189.676 233.299 186.255 231.13C182.24 228.569 180.25 223.839 176.985 220.384C173.535 216.781 168.801 214.687 163.813 214.559C158.812 214.485 153.986 216.399 150.396 219.881C155.651 219.635 160.783 223.493 162.695 228.412C164.004 231.868 163.813 235.893 165.804 238.979C168.185 242.646 172.893 243.876 177.175 244.737C181.458 245.598 186.12 246.593 188.837 250.048C191.554 253.504 191.309 258.502 190.336 262.829C189.363 267.156 187.764 271.494 188.245 275.911C188.905 281.949 193.31 286.88 197.984 290.771C202.322 294.405 207.902 297.055 212.989 299.571Z" stroke="#31BC2E" stroke-width="1.11814" stroke-miterlimit="10"/>
<path d="M213.772 297.189C214.673 294.824 214.94 292.265 214.548 289.764C214.156 287.264 213.117 284.909 211.536 282.933C208.807 279.579 204.637 277.6 202.266 273.988C199.594 269.951 199.717 264.752 199.806 259.911C199.896 255.069 199.806 249.847 196.698 246.034C193.947 242.68 189.508 241.282 185.371 239.974C181.234 238.666 176.806 237 174.436 233.355C172.322 230.101 172.255 225.852 170.164 222.598C168.812 220.627 166.817 219.188 164.52 218.527C162.223 217.866 159.767 218.024 157.574 218.975" stroke="#31BC2E" stroke-width="1.11814" stroke-miterlimit="10"/>
<path d="M217.674 297.694C224.316 299.092 231.506 295.458 235.028 289.699C238.55 283.941 238.606 276.282 235.844 270.109C233.988 265.928 230.935 262.148 230.421 257.597C229.929 253.237 231.886 249.01 232.4 244.649C232.756 241.385 232.311 238.084 231.103 235.031C229.895 231.978 227.961 229.265 225.468 227.128C222.113 224.344 217.898 222.656 215.237 219.201C212.106 215.198 211.793 209.719 209.735 205.067C208.672 202.646 207.136 200.46 205.217 198.639C203.299 196.818 201.037 195.397 198.564 194.46C196.09 193.523 193.455 193.089 190.811 193.182C188.168 193.276 185.57 193.895 183.168 195.004C188.547 196.648 192.337 202.373 192.449 207.997C192.527 211.933 190.884 215.913 191.812 219.748C192.93 224.288 197.19 227.218 201.193 229.61C205.196 232.003 209.579 234.698 211.044 239.126C212.508 243.554 210.507 248.529 207.98 252.543C205.453 256.558 202.289 260.37 201.204 264.966C199.706 271.284 202.322 277.836 205.677 283.415C208.774 288.682 213.448 293.344 217.674 297.694Z" stroke="#31BC2E" stroke-width="1.11814" stroke-miterlimit="10"/>
<path d="M219.318 295.591C221.078 293.534 222.268 291.052 222.77 288.391C223.272 285.731 223.069 282.986 222.18 280.429C220.626 276.102 217.149 272.602 216.042 268.129C214.801 263.109 216.78 257.909 218.602 253.068C220.425 248.226 222.158 242.87 220.425 237.984C218.871 233.601 214.89 230.627 211.189 227.82C207.488 225.014 203.63 221.771 202.546 217.243C201.584 213.217 203.038 208.924 202.099 204.943C201.442 202.472 199.946 200.307 197.867 198.82C195.787 197.332 193.255 196.615 190.705 196.792" stroke="#31BC2E" stroke-width="1.11814" stroke-miterlimit="10"/>
<path d="M527.522 294.763C521.227 293.913 516.016 288.501 514.719 282.273C514.171 279.132 514.376 275.905 515.319 272.859C516.262 269.813 517.915 267.034 520.142 264.752C523.083 261.655 526.963 259.262 528.842 255.416C530.72 251.569 530.239 247.387 531.145 243.384C531.856 240.396 533.284 237.625 535.306 235.313C537.329 233 539.884 231.215 542.751 230.112C546.553 228.692 550.835 228.502 554.257 226.322C558.271 223.772 560.261 219.043 563.526 215.587C565.225 213.79 567.264 212.35 569.525 211.349C571.786 210.349 574.224 209.809 576.696 209.761C579.168 209.713 581.625 210.158 583.924 211.07C586.222 211.982 588.315 213.343 590.082 215.073C584.827 214.838 579.706 218.696 577.838 223.616C576.53 227.071 576.72 231.085 574.719 234.182C572.337 237.838 567.641 239.08 563.359 239.941C559.076 240.802 554.413 241.797 551.696 245.241C548.979 248.684 549.225 253.705 550.198 258.032C551.171 262.359 552.77 266.698 552.278 271.114C551.618 277.141 547.224 282.083 542.55 285.974C538.2 289.586 532.621 292.236 527.522 294.763Z" stroke="#31BC2E" stroke-width="1.11814" stroke-miterlimit="10"/>
<path d="M526.739 292.38C525.832 290.015 525.561 287.455 525.953 284.953C526.346 282.451 527.388 280.096 528.976 278.123C531.704 274.769 535.875 272.79 538.245 269.178C540.917 265.142 540.794 259.942 540.694 255.101C540.593 250.259 540.761 244.982 543.813 241.225C546.553 237.87 550.992 236.473 555.14 235.153C559.288 233.834 563.705 232.19 566.076 228.545C568.178 225.291 568.256 221.042 570.347 217.788C571.697 215.816 573.693 214.375 575.991 213.714C578.288 213.052 580.745 213.212 582.937 214.166" stroke="#31BC2E" stroke-width="1.11814" stroke-miterlimit="10"/>
<path d="M522.848 292.886C516.195 294.283 509.017 290.649 505.484 284.891C501.95 279.132 501.917 271.473 504.667 265.301C506.524 261.119 509.587 257.329 510.102 252.789C510.582 248.428 508.626 244.191 508.111 239.841C507.76 236.576 508.208 233.275 509.418 230.222C510.628 227.17 512.562 224.457 515.055 222.32C518.409 219.536 522.614 217.847 525.286 214.392C528.417 210.389 528.719 204.899 530.776 200.259C531.841 197.838 533.378 195.654 535.296 193.834C537.215 192.013 539.476 190.593 541.949 189.656C544.422 188.72 547.057 188.285 549.7 188.377C552.343 188.47 554.941 189.088 557.343 190.196C551.965 191.839 548.185 197.564 548.062 203.177C547.984 207.124 549.628 211.105 548.711 214.94C547.593 219.48 543.333 222.398 539.319 224.802C535.304 227.206 530.944 229.878 529.479 234.317C528.014 238.756 530.004 243.721 532.543 247.735C535.081 251.749 538.223 255.562 539.319 260.158C540.817 266.475 538.145 273.016 534.846 278.607C531.738 283.873 527.075 288.525 522.848 292.886Z" stroke="#31BC2E" stroke-width="1.11814" stroke-miterlimit="10"/>
<path d="M521.205 290.781C519.445 288.724 518.255 286.242 517.752 283.582C517.25 280.922 517.454 278.176 518.342 275.619C519.897 271.292 523.374 267.792 524.481 263.32C525.722 258.299 523.743 253.1 521.909 248.258C520.075 243.417 518.365 238.05 520.087 233.174C521.641 228.791 525.621 225.817 529.322 223.011C533.023 220.204 536.892 216.95 537.966 212.433C538.927 208.408 537.485 204.103 538.424 200.078C539.072 197.601 540.563 195.429 542.641 193.935C544.719 192.441 547.253 191.718 549.807 191.893" stroke="#31BC2E" stroke-width="1.11814" stroke-miterlimit="10"/>
<path d="M279.295 73.5723C279.302 74.0463 279.448 74.5077 279.716 74.8986C279.985 75.2895 280.362 75.5924 280.802 75.7693C281.242 75.9461 281.724 75.9889 282.188 75.8924C282.652 75.7959 283.078 75.5643 283.41 75.2268C283.743 74.8893 283.969 74.461 284.059 73.9956C284.149 73.5302 284.1 73.0485 283.917 72.6112C283.734 72.1739 283.426 71.8004 283.031 71.5377C282.637 71.275 282.173 71.1348 281.699 71.1348C281.06 71.1493 280.452 71.4118 280.003 71.8667C279.555 72.3217 279.301 72.9334 279.295 73.5723Z" stroke="#FFB801" stroke-width="1.77784" stroke-miterlimit="10"/>
<path d="M257.614 78.625V87.9056C257.614 93.0043 261.416 97.1526 266.112 97.1526C270.808 97.1526 274.599 93.0043 274.599 87.9056V78.625H257.614Z" fill="#A24320"/>
<path d="M248.725 54.5987V59.8875C248.725 61.8453 249.111 63.7838 249.861 65.5922C250.611 67.4007 251.71 69.0435 253.095 70.4268C254.481 71.8101 256.125 72.9067 257.935 73.6539C259.744 74.401 261.683 74.7841 263.641 74.7811H267.443C271.391 74.7782 275.176 73.2077 277.967 70.415C280.758 67.6222 282.325 63.8356 282.325 59.8875V54.5987C282.335 52.8593 282.032 51.1324 281.431 49.5C280.329 46.5261 278.318 43.9752 275.683 42.2097C275.281 41.9525 274.878 41.7065 274.431 41.4606C272.262 40.3089 269.843 39.7062 267.387 39.7051H263.596C261.642 39.7051 259.706 40.0905 257.9 40.8392C256.094 41.588 254.454 42.6854 253.073 44.0687C251.692 45.452 250.597 47.094 249.851 48.9009C249.105 50.7077 248.722 52.6439 248.725 54.5987Z" fill="#011716"/>
<path d="M259.962 80.4277L274.655 88.6684V80.4277H259.962Z" fill="#793219"/>
<path d="M257.614 80.4279H275.303C277.157 80.422 278.933 79.6823 280.242 78.3706C281.552 77.0589 282.289 75.2819 282.292 73.4284V48.6504H257.614V80.4279Z" fill="#A24320"/>
<path d="M269.5 63.4306C269.295 62.8379 268.939 62.3092 268.466 61.8972C267.993 61.4853 267.42 61.2043 266.805 61.0825C266.18 61.0384 265.553 61.1374 264.972 61.3718C264.391 61.6062 263.871 61.97 263.451 62.4354C263.614 63.0519 263.977 63.597 264.483 63.9854C264.988 64.3738 265.609 64.5837 266.246 64.5823C268.751 64.8394 269.5 63.4306 269.5 63.4306Z" fill="white"/>
<path d="M264.513 62.5924C264.477 62.9841 264.556 63.3779 264.742 63.7246C264.928 64.0713 265.212 64.3556 265.559 64.5418C265.905 64.7281 266.299 64.808 266.691 64.7718C267.082 64.7355 267.455 64.5846 267.761 64.3379C268.067 64.0912 268.294 63.7597 268.414 63.3847C268.533 63.0098 268.539 62.608 268.431 62.2297C268.323 61.8514 268.106 61.5133 267.807 61.2576C267.508 61.002 267.14 60.8401 266.749 60.7922C266.484 60.7596 266.214 60.7807 265.957 60.8541C265.699 60.9276 265.459 61.0519 265.251 61.2197C265.042 61.3876 264.87 61.5956 264.743 61.8313C264.616 62.0671 264.538 62.3259 264.513 62.5924Z" fill="black"/>
<path d="M269.5 63.4308C269.318 62.8252 268.968 62.2834 268.491 61.868C268.015 61.4525 267.43 61.1803 266.805 61.0827C266.181 61.0428 265.555 61.1436 264.974 61.3778C264.394 61.612 263.873 61.9735 263.451 62.4357" stroke="black" stroke-width="0.547889" stroke-linecap="round" stroke-linejoin="round"/>
<path d="M275.046 63.4314C275.046 63.4314 275.695 61.3405 277.495 61.0833C278.065 61.0592 278.633 61.169 279.154 61.404C279.674 61.6389 280.132 61.9925 280.491 62.4363C280.358 63.023 280.037 63.5501 279.577 63.9376C279.117 64.3251 278.543 64.5518 277.942 64.5831C277.399 64.7131 276.83 64.6722 276.312 64.4661C275.793 64.2599 275.351 63.8985 275.046 63.4314Z" fill="white"/>
<path d="M279.597 62.5931C279.674 63.1091 279.543 63.6345 279.232 64.0538C278.922 64.4731 278.458 64.7521 277.942 64.8294C277.688 64.8461 277.433 64.811 277.193 64.7262C276.953 64.6414 276.733 64.5087 276.546 64.3362C276.358 64.1636 276.208 63.9548 276.104 63.7225C276 63.4901 275.945 63.239 275.941 62.9845C275.863 62.4702 275.993 61.9463 276.301 61.5272C276.609 61.1082 277.07 60.8281 277.584 60.7482C277.839 60.7315 278.094 60.7666 278.335 60.8512C278.575 60.9359 278.796 61.0684 278.985 61.2408C279.173 61.4132 279.324 61.6219 279.429 61.8543C279.534 62.0867 279.591 62.338 279.597 62.5931Z" fill="black"/>
<path d="M275.046 63.431C275.046 63.431 275.65 61.1947 277.495 61.0829C278.066 61.0534 278.636 61.1607 279.157 61.3961C279.678 61.6314 280.136 61.9879 280.491 62.4359" stroke="black" stroke-width="0.525526" stroke-linecap="round" stroke-linejoin="round"/>
<path d="M266.302 55.9951C265.252 55.8542 264.184 55.9226 263.16 56.1964C262.983 56.2249 262.819 56.3089 262.692 56.4365C262.565 56.564 262.482 56.7285 262.455 56.9063C262.427 57.084 262.457 57.2659 262.54 57.4256C262.622 57.5854 262.753 57.7148 262.914 57.7954C263.861 58.1521 264.849 58.3851 265.855 58.4886C268.304 58.7905 269.657 58.0861 269.657 57.4935C269.701 56.5989 267.61 56.0399 266.302 55.9951Z" fill="#011716"/>
<path d="M278.177 55.9958C279.149 55.8865 280.133 55.9701 281.073 56.2418C281.777 56.5437 282.023 57.4382 281.33 57.8407C280.464 58.1649 279.557 58.368 278.635 58.4445C276.399 58.6905 275.135 57.9413 275.135 57.3264C275.102 56.5996 276.947 56.0405 278.177 55.9958Z" fill="#011716"/>
<path d="M272.049 65.2324L273.805 66.8873C275.247 68.4303 273.447 68.6316 272.553 68.5868L272.005 68.4862" fill="#793219"/>
<path d="M254.696 59.2936C254.696 59.2936 254.696 59.4837 254.797 59.7856C255.098 60.9037 255.993 63.6879 257.592 63.5872C259.593 63.4866 260.387 57.0908 261.494 54.0495C262.601 51.0082 266.94 51.9474 272.575 52.5959C276.623 53.0991 279.876 50.751 281.375 49.4428C281.693 49.1853 281.992 48.905 282.269 48.6042C282.155 47.2695 281.614 46.0071 280.726 45.0038C278.769 42.7675 272.676 40.4082 272.575 40.4082L269.735 39.9609L258.296 44.9478L254.696 59.2936Z" fill="#011716"/>
<path d="M268.952 71.6836C268.813 72.0416 268.748 72.4238 268.76 72.8076C268.772 73.1914 268.861 73.5689 269.021 73.9175C269.182 74.2662 269.412 74.579 269.696 74.8372C269.98 75.0955 270.313 75.2939 270.676 75.4207C271.038 75.5475 271.422 75.6001 271.805 75.5754C272.189 75.5506 272.563 75.4491 272.906 75.2767C273.249 75.1043 273.554 74.8647 273.802 74.572C274.051 74.2794 274.238 73.9397 274.353 73.5732" fill="white"/>
<path d="M279.999 44.2998L268.36 45.1496C266.126 45.3082 263.998 46.1576 262.269 47.58C260.54 49.0025 259.296 50.9275 258.71 53.0884L255.814 63.8337L254.819 72.4322L251.017 68.3845L248.87 63.8337L248.468 53.5915L249.474 49.2979L253.019 43.1034L260.611 39.4582L273.101 38.9551L279.999 44.2998Z" fill="#32B82F"/>
<path d="M256.418 72.9226H257.614V63.6309H256.418C255.478 63.6367 254.578 64.0136 253.914 64.6795C253.25 65.3453 252.876 66.2464 252.873 67.1865V69.3334C252.87 69.8018 252.96 70.2662 253.136 70.7001C253.313 71.134 253.573 71.5288 253.902 71.8621C254.231 72.1954 254.623 72.4606 255.055 72.6426C255.486 72.8245 255.949 72.9197 256.418 72.9226Z" fill="#A24320"/>
<path d="M252.37 73.9291C252.412 74.5369 252.682 75.1063 253.128 75.5222C253.573 75.938 254.159 76.1693 254.769 76.1693C255.378 76.1693 255.964 75.938 256.41 75.5222C256.855 75.1063 257.126 74.5369 257.167 73.9291C257.166 73.6165 257.102 73.3072 256.98 73.0193C256.858 72.7314 256.68 72.4706 256.456 72.2521C256.233 72.0336 255.968 71.8618 255.677 71.7466C255.386 71.6314 255.076 71.5751 254.763 71.581C254.45 71.572 254.139 71.6262 253.847 71.7405C253.556 71.8547 253.29 72.0266 253.067 72.2458C252.843 72.4651 252.667 72.7272 252.547 73.0164C252.427 73.3057 252.367 73.6161 252.37 73.9291Z" stroke="#FFB801" stroke-width="1.77784" stroke-miterlimit="10"/>
<path d="M278.691 36.809C275.851 39.213 274.152 41.9078 275.001 42.9029C275.851 43.8981 278.792 42.7575 281.71 40.4095C284.629 38.0614 286.25 35.3107 285.4 34.3156C284.55 33.3204 281.598 34.4609 278.691 36.809Z" fill="#32B82F"/>
<path d="M272.206 39.0555C274.297 42.1528 276.902 44.0536 277.942 43.3044C278.982 42.5553 278.143 39.5028 276.052 36.4055C273.961 33.3083 271.356 31.4186 270.35 32.1678C269.343 32.9169 270.104 35.9583 272.206 39.0555Z" fill="#32B82F"/>
<g opacity="0.38">
<g opacity="0.38">
<path opacity="0.38" d="M261.763 63.8915C261.763 64.7319 262.012 65.5534 262.479 66.2521C262.946 66.9508 263.609 67.4954 264.386 67.817C265.162 68.1386 266.016 68.2228 266.84 68.0588C267.665 67.8949 268.422 67.4902 269.016 66.896C269.61 66.3018 270.015 65.5447 270.179 64.7205C270.343 63.8962 270.259 63.0419 269.937 62.2655C269.615 61.4891 269.071 60.8255 268.372 60.3587C267.673 59.8918 266.852 59.6426 266.012 59.6426C265.453 59.6411 264.9 59.75 264.384 59.963C263.868 60.176 263.399 60.4889 263.004 60.8838C262.609 61.2786 262.296 61.7476 262.083 62.2638C261.87 62.78 261.761 63.3331 261.763 63.8915Z" fill="white"/>
</g>
</g>
<path d="M261.762 63.8896C261.762 64.7299 262.012 65.5514 262.479 66.2502C262.945 66.9489 263.609 67.4935 264.385 67.8151C265.162 68.1367 266.016 68.2208 266.84 68.0569C267.665 67.8929 268.422 67.4882 269.016 66.894C269.61 66.2998 270.015 65.5427 270.179 64.7185C270.343 63.8943 270.258 63.04 269.937 62.2636C269.615 61.4872 269.071 60.8236 268.372 60.3567C267.673 59.8898 266.852 59.6406 266.011 59.6406C265.453 59.6392 264.9 59.7481 264.384 59.9611C263.867 60.1741 263.399 60.487 263.004 60.8818C262.609 61.2767 262.296 61.7457 262.083 62.2618C261.87 62.778 261.761 63.3312 261.762 63.8896Z" stroke="white" stroke-width="0.827424" stroke-miterlimit="10"/>
<g opacity="0.38">
<g opacity="0.38">
<path opacity="0.38" d="M273.402 63.4299C273.4 64.2707 273.648 65.0933 274.113 65.7935C274.579 66.4937 275.241 67.0401 276.018 67.3634C276.794 67.6867 277.648 67.7724 278.473 67.6097C279.298 67.4471 280.056 67.0433 280.652 66.4495C281.247 65.8557 281.653 65.0986 281.818 64.2741C281.983 63.4496 281.899 62.5947 281.578 61.8177C281.257 61.0406 280.712 60.3764 280.013 59.909C279.314 59.4416 278.492 59.1922 277.651 59.1922C277.091 59.1816 276.535 59.2839 276.016 59.4929C275.496 59.702 275.024 60.0136 274.627 60.4091C274.231 60.8046 273.918 61.2759 273.708 61.7949C273.497 62.3139 273.393 62.8699 273.402 63.4299Z" fill="white"/>
</g>
</g>
<path d="M273.402 63.4311C273.4 64.2719 273.647 65.0945 274.113 65.7947C274.579 66.4949 275.241 67.0413 276.018 67.3646C276.794 67.6879 277.648 67.7736 278.473 67.6109C279.298 67.4483 280.056 67.0445 280.652 66.4507C281.247 65.8569 281.653 65.0999 281.818 64.2753C281.983 63.4508 281.899 62.5959 281.578 61.8189C281.257 61.0418 280.712 60.3776 280.013 59.9102C279.314 59.4428 278.492 59.1934 277.651 59.1934C276.526 59.1934 275.447 59.6395 274.651 60.4339C273.854 61.2283 273.405 62.3062 273.402 63.4311Z" stroke="white" stroke-width="0.827424" stroke-miterlimit="10"/>
<path d="M270.35 63.4863H273.447" stroke="white" stroke-width="0.827424" stroke-miterlimit="10"/>
<path d="M261.762 63.5879H255.512" stroke="white" stroke-width="0.827424" stroke-miterlimit="10"/>
<path d="M300.629 141.02L345.836 111.445L353.663 119.44C353.663 119.44 327.945 139.868 308.747 153.308C305.706 155.455 300.26 153.912 298.404 150.714C296.626 147.718 297.633 142.764 300.629 141.02Z" fill="#A34321"/>
<path d="M297.834 149.462L289.94 114.8L303.894 112.295L311.285 146.119C311.455 146.875 311.474 147.657 311.341 148.421C311.208 149.185 310.926 149.914 310.51 150.569C310.095 151.223 309.554 151.789 308.92 152.234C308.285 152.679 307.569 152.995 306.812 153.163C303.67 153.879 298.684 152.514 297.834 149.462Z" fill="#A34321"/>
<path d="M242.396 134.577L235.386 193.011L222.695 192.564C222.695 192.564 225.747 155.665 228.14 132.766C228.543 129.121 233.082 126.057 236.683 126.772C240.026 127.332 243.022 131.223 242.396 134.577Z" fill="#A34321"/>
<path d="M227.044 139.341L231.886 103.561L245.829 105.797L241.725 140.124C241.54 141.677 240.749 143.093 239.524 144.065C238.298 145.037 236.739 145.485 235.184 145.312C232.087 145.01 226.888 142.517 227.044 139.341Z" fill="#A34321"/>
<path d="M235.229 191.828C234.793 190.506 233.981 189.34 232.892 188.474C233.017 187.925 233.028 187.356 232.925 186.802C232.822 186.249 232.607 185.722 232.293 185.255C231.978 184.788 231.572 184.39 231.098 184.086C230.624 183.782 230.093 183.578 229.538 183.487L227.861 183.185C226.826 183.017 225.766 183.244 224.892 183.822C224.017 184.401 223.393 185.287 223.142 186.304V186.405C221.086 190.513 219.816 194.969 219.396 199.543C218.491 209.338 223.489 208.734 226.586 208.79C229.482 208.79 230.231 202.898 230.935 198.649L232.736 202.987C232.848 203.259 233.045 203.487 233.296 203.64C233.547 203.793 233.84 203.862 234.133 203.837C234.446 203.811 234.741 203.678 234.967 203.46C235.193 203.242 235.337 202.952 235.374 202.64L236.034 197.598C236.218 195.638 235.942 193.663 235.229 191.828Z" fill="#A34321"/>
<path d="M284.293 132.88L308.367 127.926L302.776 101.102C301.927 98.1157 299.981 95.5606 297.327 93.9496C294.673 92.3385 291.508 91.7908 288.467 92.4163C285.426 93.0417 282.734 94.7941 280.931 97.3218C279.128 99.8495 278.348 102.965 278.747 106.044L284.293 132.88Z" fill="#31B92E"/>
<path d="M267.856 92.1128L240.529 93.1079C239.636 93.4686 238.911 94.1512 238.497 95.0207C238.083 95.8903 238.01 96.8835 238.293 97.8041L247.238 151.956C247.432 153.075 248.016 154.09 248.885 154.823C249.754 155.555 250.853 155.957 251.99 155.959H284.606C285.826 155.969 287.004 155.512 287.897 154.679C288.789 153.847 289.328 152.704 289.403 151.486C290.152 139.343 292.355 106.123 294.748 96.0263C294.994 95.0792 294.88 94.0743 294.428 93.2065C293.975 92.3387 293.217 91.67 292.299 91.3301L267.856 92.1128Z" fill="#31B92E"/>
<path d="M247.987 134.377L223.992 129.424L229.493 102.588C230.221 99.4641 232.14 96.7478 234.841 95.0185C237.543 93.2892 240.814 92.6838 243.955 93.3314C247.097 93.979 249.861 95.8283 251.659 98.485C253.456 101.142 254.145 104.396 253.578 107.553L247.987 134.377Z" fill="#31B92E"/>
<path d="M254.215 92.8596H279.843L278.3 85.6699H255.322L254.215 92.8596Z" fill="#31B92E"/>
<path d="M346.439 110.551C346.423 109.589 346.662 108.639 347.133 107.8C348.631 105.15 349.481 103.249 350.33 101.404C350.412 101.206 350.536 101.028 350.692 100.882C350.848 100.735 351.034 100.624 351.236 100.554L351.583 100.409C351.701 100.359 351.827 100.333 351.955 100.334C352.083 100.335 352.21 100.361 352.327 100.413C352.444 100.464 352.55 100.539 352.637 100.632C352.725 100.726 352.792 100.836 352.835 100.957C353.251 102.589 353.436 104.272 353.383 105.955L359.879 103.406L361.322 116.98L355.429 119.216C354.541 119.571 353.577 119.689 352.629 119.558C351.682 119.426 350.786 119.05 350.029 118.467C349.578 118.667 349.092 118.773 348.599 118.777C348.106 118.782 347.618 118.685 347.164 118.494C346.71 118.302 346.301 118.019 345.961 117.662C345.62 117.306 345.357 116.883 345.187 116.421L344.684 115.023C344.369 114.193 344.375 113.275 344.699 112.448C345.024 111.622 345.644 110.945 346.439 110.551Z" fill="#A34321"/>
<path d="M525.297 156.135H214.186V293.308H525.297V156.135Z" fill="#022D2B"/>
<path d="M525.297 156.135H279.507V293.308H525.297V156.135Z" fill="#005750"/>
<path d="M507.015 92.5588L457.627 96.3381L459.014 51.7355C459.069 49.838 459.861 48.0366 461.222 46.7133C462.583 45.3899 464.406 44.6486 466.304 44.6465H478.246C481.54 44.6492 484.753 45.6628 487.453 47.5505C490.152 49.4381 492.208 52.1088 493.341 55.2017L507.015 92.5588Z" fill="#011716"/>
<path d="M481.432 79.6777V88.0302C481.432 92.637 478.011 96.3716 473.784 96.3716C469.558 96.3716 466.147 92.637 466.147 88.0302V79.6777H481.432Z" fill="#A24320"/>
<path d="M479.353 81.2988L466.147 88.7009V81.2988H479.353Z" fill="#793219"/>
<path d="M481.432 81.3005H465.51C463.841 81.2946 462.242 80.6299 461.061 79.4509C459.88 78.2719 459.213 76.6742 459.204 75.0054V52.6426H481.432V81.3005Z" fill="#A24320"/>
<path d="M482.539 74.4895H481.421V66.1817H482.539C482.959 66.1788 483.376 66.2591 483.764 66.418C484.153 66.577 484.506 66.8114 484.803 67.1078C485.101 67.4042 485.336 67.7565 485.497 68.1446C485.657 68.5326 485.739 68.9486 485.737 69.3684V71.3028C485.739 71.7226 485.657 72.1386 485.497 72.5266C485.336 72.9147 485.101 73.2671 484.803 73.5634C484.506 73.8598 484.153 74.0942 483.764 74.2532C483.376 74.4121 482.959 74.4925 482.539 74.4895Z" fill="#A24320"/>
<path d="M470.721 65.5439C470.976 65.041 471.364 64.6178 471.843 64.3201C472.322 64.0225 472.874 63.8618 473.438 63.8555C473.991 63.9033 474.526 64.0812 474.998 64.3746C475.47 64.6679 475.867 65.0686 476.155 65.5439C475.918 66.0679 475.517 66.5007 475.013 66.7771C474.509 67.0534 473.928 67.1582 473.359 67.0757C471.19 66.9304 470.721 65.5439 470.721 65.5439Z" fill="white"/>
<path d="M475.249 65.5427C475.231 65.8986 475.108 66.241 474.895 66.5267C474.682 66.8123 474.389 67.0283 474.053 67.1474C473.717 67.2664 473.353 67.2831 473.008 67.1954C472.663 67.1076 472.351 66.9194 472.113 66.6544C471.875 66.3895 471.72 66.0598 471.67 65.7072C471.619 65.3545 471.674 64.9947 471.828 64.6733C471.981 64.3519 472.227 64.0834 472.534 63.9018C472.84 63.7202 473.194 63.6336 473.55 63.6531C474.024 63.6819 474.468 63.8963 474.786 64.2498C475.104 64.6033 475.271 65.0677 475.249 65.5427Z" fill="black"/>
<path d="M470.721 65.5443C470.963 65.0315 471.349 64.5995 471.831 64.3001C472.312 64.0007 472.87 63.8464 473.438 63.8559C473.988 63.9146 474.519 64.0969 474.989 64.3893C475.46 64.6816 475.858 65.0764 476.155 65.5443" stroke="black" stroke-width="0.626159" stroke-linecap="round" stroke-linejoin="round"/>
<path d="M465.79 65.5437C465.56 65.0563 465.205 64.6388 464.761 64.3341C464.317 64.0295 463.8 63.8488 463.263 63.8105C462.759 63.8551 462.273 64.0221 461.848 64.2968C461.424 64.5716 461.072 64.9458 460.825 65.3871C461.024 65.8917 461.381 66.3181 461.842 66.6024C462.304 66.8867 462.846 67.0135 463.386 66.9637C463.886 67.0191 464.391 66.9106 464.824 66.6546C465.258 66.3985 465.597 66.0087 465.79 65.5437Z" fill="white"/>
<path d="M461.653 65.5445C461.669 65.9988 461.857 66.4301 462.179 66.7515C462.5 67.073 462.931 67.261 463.386 67.2776C463.61 67.2568 463.828 67.1913 464.026 67.085C464.225 66.9788 464.4 66.8338 464.542 66.6588C464.684 66.4837 464.789 66.2821 464.851 66.0658C464.914 65.8495 464.933 65.6228 464.906 65.3991C464.892 64.9439 464.705 64.5112 464.383 64.1892C464.061 63.8671 463.628 63.68 463.173 63.666C462.948 63.6838 462.728 63.7473 462.528 63.8526C462.328 63.9579 462.152 64.1029 462.009 64.2786C461.867 64.4544 461.762 64.6572 461.701 64.8749C461.639 65.0925 461.623 65.3203 461.653 65.5445Z" fill="black"/>
<path d="M465.79 65.5431C465.79 65.5431 464.962 63.6535 463.263 63.81C462.762 63.8645 462.28 64.0354 461.857 64.3092C461.434 64.5829 461.08 64.9519 460.825 65.3866" stroke="black" stroke-width="0.592614" stroke-linecap="round" stroke-linejoin="round"/>
<path d="M473.594 59.3262C474.538 59.1788 475.5 59.2053 476.434 59.4045C476.594 59.4324 476.742 59.5086 476.857 59.6229C476.972 59.7371 477.049 59.8839 477.079 60.0434C477.108 60.203 477.087 60.3677 477.02 60.5153C476.953 60.6629 476.842 60.7865 476.703 60.8692C475.857 61.2167 474.97 61.4535 474.064 61.5737C471.828 61.8867 470.631 61.2941 470.598 60.7462C470.553 59.9524 472.409 59.4045 473.594 59.3262Z" fill="#011716"/>
<path d="M462.95 59.292C462.069 59.227 461.184 59.3333 460.344 59.605C460.195 59.6501 460.062 59.7382 459.963 59.8582C459.863 59.9783 459.801 60.1249 459.785 60.28C459.768 60.435 459.797 60.5915 459.869 60.73C459.941 60.8685 460.052 60.9828 460.188 61.0586C460.972 61.3513 461.799 61.5137 462.636 61.5394C464.649 61.696 465.745 60.9803 465.745 60.4213C465.745 59.8622 464.012 59.292 462.95 59.292Z" fill="#011716"/>
<path d="M468.428 67.6016L466.852 69.0551C465.555 70.4752 467.165 70.6317 467.97 70.587L468.484 70.5087" fill="#793219"/>
<path d="M459.204 52.6753C459.204 52.6753 462.871 56.8907 467.959 56.2981C473.046 55.7055 476.904 54.8892 477.933 57.5951C478.961 60.301 479.621 66.1042 481.432 66.1825C483.244 66.2607 484.082 62.2801 484.082 62.2801L480.806 49.3768L465.152 46.8945C465.152 46.8945 459.595 47.912 459.204 52.6753Z" fill="#011716"/>
<path d="M470.318 74.568C470.475 75.2724 469.647 76.0998 468.473 76.3794C467.299 76.6589 466.181 76.3011 465.991 75.5519C465.801 74.8028 466.651 74.0089 467.836 73.7406C469.021 73.4722 470.162 73.8188 470.318 74.568Z" fill="#6D1B12"/>
<path d="M469.882 72.7109C469.822 73.1856 469.667 73.6434 469.428 74.0578C469.189 74.4721 468.869 74.8345 468.488 75.1239C468.107 75.4133 467.672 75.6239 467.209 75.7433C466.746 75.8627 466.263 75.8886 465.79 75.8194" stroke="#011716" stroke-width="1.01751" stroke-miterlimit="10" stroke-linecap="round"/>
<path d="M484.083 78.2234C484.083 80.4597 483.68 82.3941 483.244 82.3941C482.808 82.3941 482.417 80.5491 482.417 78.2234C482.417 75.8977 482.819 74.0527 483.244 74.0527C483.669 74.0527 484.083 75.9424 484.083 78.2234Z" stroke="#FFB801" stroke-width="1.76666" stroke-miterlimit="10"/>
<path d="M442.845 136.167L401.854 109.398L394.721 116.644C394.721 116.644 418.023 135.183 435.477 147.315C438.239 149.238 443.17 147.862 444.903 144.944C446.479 142.227 445.607 137.788 442.845 136.167Z" fill="#A34321"/>
<path d="M445.406 143.881L452.607 112.506L439.972 110.27L433.263 140.895C432.962 142.284 433.218 143.735 433.978 144.936C434.737 146.137 435.938 146.991 437.322 147.314C440.128 147.861 444.623 146.643 445.406 143.881Z" fill="#A34321"/>
<path d="M521.126 132.981L508.234 102.869L496.572 108.18L508.436 137.252C508.974 138.565 510.009 139.612 511.316 140.165C512.623 140.718 514.096 140.732 515.413 140.204C518.096 139.119 522.077 135.698 521.126 132.981Z" fill="#A34321"/>
<path d="M457.706 128.809L435.913 124.336L440.922 100.05C441.563 97.2085 443.293 94.7316 445.741 93.1516C448.188 91.5716 451.158 91.0146 454.012 91.6002C456.865 92.1859 459.376 93.8675 461.003 96.2838C462.63 98.7001 463.245 101.658 462.715 104.523L457.706 128.809Z" fill="#31B92E"/>
<path d="M472.644 91.888L497.444 92.7937C498.255 93.1174 498.915 93.7334 499.294 94.52C499.673 95.3067 499.743 96.2068 499.49 97.0426L491.328 146.051C491.154 147.064 490.628 147.983 489.842 148.646C489.057 149.308 488.062 149.672 487.034 149.673H457.437C456.326 149.681 455.255 149.259 454.447 148.497C453.639 147.735 453.156 146.69 453.099 145.581C452.428 134.556 450.415 104.489 448.246 95.3207C448.023 94.4596 448.128 93.5462 448.541 92.7586C448.955 91.971 449.647 91.3656 450.482 91.0605L472.644 91.888Z" fill="#31B92E"/>
<path d="M499.446 131.012L519.237 120.949L507.921 98.8095C506.416 96.5001 504.11 94.8282 501.447 94.115C498.784 93.4018 495.952 93.6976 493.493 94.9454C491.035 96.1932 489.124 98.3052 488.128 100.876C487.132 103.446 487.121 106.294 488.097 108.873L499.446 131.012Z" fill="#31B92E"/>
<path d="M485.033 92.5586H461.764L463.151 86.0957H483.993L485.033 92.5586Z" fill="#31B92E"/>
<path d="M401.34 108.571C401.353 107.706 401.137 106.854 400.714 106.1C399.372 103.696 398.589 102.008 397.796 100.274C397.726 100.101 397.62 99.9449 397.485 99.8158C397.35 99.6866 397.189 99.5876 397.013 99.5252L396.7 99.4022C396.483 99.3313 396.247 99.3449 396.04 99.4403C395.833 99.5357 395.669 99.7058 395.582 99.9166C395.199 101.394 395.025 102.919 395.067 104.445L389.197 102.119L387.755 114.363L393.122 116.454C393.926 116.768 394.797 116.871 395.652 116.753C396.507 116.636 397.318 116.302 398.008 115.783C398.424 115.964 398.873 116.058 399.327 116.06C399.781 116.062 400.231 115.972 400.649 115.796C401.067 115.619 401.445 115.359 401.76 115.032C402.075 114.705 402.32 114.318 402.481 113.893L402.95 112.63C403.241 111.875 403.236 111.038 402.938 110.286C402.64 109.534 402.069 108.922 401.34 108.571Z" fill="#A34321"/>
<path d="M391.254 106.412C391.246 106.08 391.11 105.763 390.875 105.528C390.64 105.293 390.323 105.157 389.991 105.149L383.718 104.992C383.502 104.991 383.289 105.033 383.089 105.116C382.89 105.199 382.71 105.321 382.56 105.476C382.409 105.631 382.292 105.814 382.214 106.015C382.137 106.217 382.1 106.432 382.108 106.647C382.128 107.057 382.308 107.444 382.609 107.723C382.909 108.003 383.307 108.155 383.718 108.145L389.991 107.832C390.345 107.806 390.675 107.644 390.911 107.379C391.146 107.113 391.27 106.767 391.254 106.412Z" fill="#A34321"/>
<path d="M390.818 108.85C390.801 108.518 390.656 108.207 390.415 107.98C390.173 107.753 389.853 107.628 389.521 107.631H384.277C384.069 107.634 383.864 107.678 383.673 107.762C383.483 107.845 383.311 107.966 383.168 108.118C383.026 108.269 382.914 108.447 382.842 108.642C382.769 108.837 382.736 109.044 382.745 109.252C382.762 109.452 382.818 109.646 382.911 109.824C383.004 110.001 383.131 110.159 383.285 110.286C383.439 110.414 383.617 110.511 383.808 110.569C384 110.628 384.201 110.648 384.4 110.628L389.644 110.191C389.978 110.169 390.288 110.014 390.508 109.763C390.728 109.512 390.84 109.183 390.818 108.85Z" fill="#A34321"/>
<path d="M390.863 111.13C390.83 110.82 390.682 110.533 390.448 110.326C390.214 110.12 389.912 110.007 389.6 110.012H385.496C385.297 110.001 385.097 110.031 384.91 110.101C384.723 110.171 384.553 110.278 384.41 110.417C384.266 110.556 384.154 110.724 384.078 110.909C384.003 111.093 383.967 111.292 383.973 111.491C383.978 111.691 384.025 111.887 384.11 112.068C384.195 112.248 384.317 112.409 384.467 112.54C384.618 112.671 384.794 112.77 384.985 112.829C385.175 112.889 385.376 112.908 385.574 112.886L389.678 112.405C390.003 112.39 390.31 112.249 390.531 112.01C390.753 111.772 390.872 111.456 390.863 111.13Z" fill="#A34321"/>
<path d="M391.176 112.864C391.151 112.559 391.011 112.274 390.785 112.067C390.56 111.86 390.264 111.745 389.957 111.746L386.603 112.059C386.407 112.064 386.215 112.11 386.038 112.193C385.861 112.276 385.702 112.394 385.573 112.541C385.444 112.688 385.347 112.861 385.287 113.047C385.228 113.233 385.208 113.43 385.228 113.625C385.236 113.811 385.282 113.994 385.362 114.163C385.443 114.331 385.556 114.482 385.696 114.606C385.835 114.73 385.999 114.825 386.176 114.885C386.352 114.945 386.54 114.969 386.726 114.955L390.08 114.172C390.243 114.172 390.403 114.135 390.55 114.066C390.697 113.997 390.827 113.897 390.931 113.772C391.036 113.648 391.112 113.502 391.154 113.345C391.196 113.188 391.204 113.024 391.176 112.864Z" fill="#A34321"/>
<path d="M513.791 128.931L464.448 135.64L466.461 145.368C466.461 145.368 495.353 144.73 516.005 141.778C519.27 141.309 521.876 137.06 521.171 133.828C520.456 130.854 516.833 128.26 513.791 128.931Z" fill="#A34321"/>
<path d="M469.088 132.633H448.134C444.322 132.62 440.626 133.946 437.691 136.379L434.28 139.14C433.896 139.453 433.589 139.85 433.385 140.301C433.181 140.753 433.085 141.245 433.105 141.74C433.124 142.235 433.259 142.719 433.498 143.152C433.737 143.586 434.074 143.958 434.482 144.239H471.459L469.088 132.633Z" fill="#A34321"/>
<path d="M449.604 248.895C462.942 222.819 452.616 190.867 426.54 177.529C400.464 164.191 368.512 174.517 355.174 200.593C341.836 226.67 352.162 258.621 378.238 271.959C404.314 285.298 436.266 274.971 449.604 248.895Z" fill="#31B92E"/>
<path d="M422.607 149.706H351.158C350.195 149.689 349.266 149.349 348.52 148.741C347.774 148.133 347.254 147.291 347.043 146.352L336.398 102.219C336.242 101.587 336.23 100.929 336.363 100.292C336.496 99.6551 336.772 99.0566 337.168 98.5408C337.565 98.0251 338.072 97.6053 338.653 97.3129C339.234 97.0204 339.874 96.8627 340.524 96.8516H413.919C414.905 96.8686 415.856 97.2229 416.613 97.8557C417.37 98.4884 417.887 99.3613 418.079 100.329L426.755 144.518C426.886 145.139 426.877 145.782 426.73 146.399C426.583 147.017 426.301 147.594 425.904 148.09C425.508 148.586 425.007 148.988 424.437 149.267C423.867 149.547 423.242 149.696 422.607 149.706Z" fill="#231F20"/>
<path d="M146.46 298.217H605.3C605.952 298.217 606.578 297.958 607.039 297.497C607.501 297.035 607.76 296.41 607.76 295.757C607.757 295.107 607.497 294.484 607.036 294.025C606.575 293.566 605.951 293.309 605.3 293.309H146.46C146.137 293.307 145.818 293.369 145.519 293.492C145.221 293.614 144.95 293.794 144.721 294.022C144.493 294.249 144.311 294.52 144.187 294.818C144.064 295.115 144 295.435 144 295.757C143.999 296.081 144.061 296.401 144.184 296.7C144.307 297 144.488 297.271 144.717 297.5C144.946 297.729 145.218 297.91 145.517 298.033C145.816 298.156 146.136 298.219 146.46 298.217Z" fill="#022D2B"/>
<path d="M352.533 243.419C357.389 242.268 362.359 241.668 367.349 241.63C368.015 251.483 370.522 261.124 374.739 270.053C375.858 271.775 386.402 276.416 390.069 276.617C399.689 272.96 408.515 267.486 416.066 260.493C419.898 264.015 423.395 267.885 426.509 272.055C426.99 271.809 427.493 271.597 427.963 271.328C424.826 266.975 421.272 262.938 417.352 259.275C423.904 252.849 429.211 245.267 433.006 236.912C443.718 240.937 451.902 244.057 451.902 244.057L452.383 242.681C445.987 240.255 439.245 237.616 433.643 235.492C437.142 227.358 439.041 218.627 439.234 209.775C443.795 209.642 448.331 209.054 452.774 208.019C452.607 207.527 452.45 207.046 452.271 206.565C447.98 207.484 443.61 207.985 439.223 208.064C439.191 198.934 437.264 189.911 433.565 181.564C431.733 180.356 429.829 179.261 427.862 178.288C429.226 179.037 430.579 179.82 431.888 180.692C433.061 183.364 434.062 186.109 434.884 188.91C436.699 195.142 437.592 201.607 437.534 208.097C429.071 208.042 420.69 206.443 412.801 203.379C419.633 188.273 424.832 176.689 424.832 176.689L423.502 176.119L411.314 202.797C402.955 199.345 395.294 194.4 388.705 188.206C393.34 183.368 398.673 179.253 404.527 175.996C406.852 174.704 409.253 173.554 411.716 172.552C414.851 173.126 417.927 173.983 420.907 175.112C417.208 173.522 413.341 172.355 409.379 171.635C406.914 172.632 404.513 173.783 402.19 175.079C396.645 178.192 391.573 182.081 387.128 186.629C384.158 183.669 381.425 180.48 378.955 177.091C378.463 177.326 378.016 177.561 377.535 177.818C380.042 181.403 382.847 184.769 385.921 187.881C379.512 194.808 374.592 202.974 371.463 211.877L353.048 204.877L352.701 205.582C352.891 206.04 360.304 209.092 370.971 213.274C368.139 221.852 366.893 230.873 367.293 239.897C362.123 239.993 356.982 240.691 351.974 241.977C352.175 242.458 352.354 242.939 352.533 243.419ZM373.219 214.191C381.448 217.411 391.31 221.191 401.172 224.948L392.395 244.169C385.049 241.468 377.299 240.028 369.473 239.908C369.196 231.182 370.464 222.476 373.219 214.191ZM410.52 204.542L401.877 223.472L373.711 212.771C376.738 204.197 381.423 196.302 387.497 189.536C394.186 195.93 402.009 201.019 410.565 204.542H410.52ZM431.843 234.866L403.409 224.053C406.372 217.557 409.301 211.105 412.018 205.123C420.139 208.291 428.784 209.896 437.501 209.853C437.212 218.468 435.308 226.953 431.888 234.866H431.843ZM393.916 244.683C396.711 238.645 399.719 232.104 402.727 225.529C412.79 229.364 422.853 233.166 431.206 236.286C427.473 244.398 422.311 251.773 415.965 258.056C409.464 252.352 402.018 247.826 393.96 244.683H393.916ZM380.487 272.402C381.359 271.541 386.581 260.628 393.166 246.416C401.035 249.458 408.326 253.822 414.724 259.319C407.262 266.37 398.475 271.869 388.873 275.499C385.995 274.705 383.19 273.669 380.487 272.402ZM369.63 241.675C377.163 241.885 384.613 243.312 391.69 245.902C381.269 268.712 379.916 271.686 379.738 272.066C378.832 271.652 377.904 271.25 377.032 270.769C372.69 261.643 370.175 251.756 369.63 241.664V241.675Z" fill="#145912"/>
<path d="M538.95 143.367H200.533V156.136H538.95V143.367Z" fill="#145912"/>
<path d="M538.95 143.367H263.082V156.136H538.95V143.367Z" fill="#A6A8AB"/>
<path d="M364.755 173.712H371.841V208.982H369.479L349.43 187.568V208.352H342.344V173.082H344.653L364.755 194.391V173.712Z" fill="white"/>
<path d="M402.913 197.75H384.7C385.54 201.057 388.217 202.894 391.996 202.894C394.568 202.894 396.982 202.002 399.239 200.27L402.178 205.098C399.081 207.67 395.617 208.982 391.786 208.982C383.756 209.14 377.405 202.894 377.562 195.388C377.405 187.883 383.651 181.637 391.156 181.795C398.347 181.795 403.385 187.096 403.385 193.866C403.385 195.126 403.228 196.438 402.913 197.75ZM384.7 192.764H396.51C396.457 189.562 393.99 187.516 390.894 187.516C387.902 187.516 385.488 189.562 384.7 192.764Z" fill="white"/>
<path d="M441.269 182.372H448.722L436.651 208.982H434.341L426.888 193.866L419.383 208.982H417.074L405.002 182.372H412.455L418.596 197.173L425.681 181.795H428.043L435.234 196.858L441.269 182.372Z" fill="white"/>
<path d="M449.76 203.944L453.329 199.64C455.586 202.002 458.053 203.156 460.625 203.156C462.514 203.156 463.931 202.421 463.931 201.004C463.931 199.902 463.197 199.482 461.255 198.642L458.473 197.488C453.697 195.546 451.387 193.394 451.387 189.562C451.387 184.681 455.271 181.795 460.94 181.795C464.824 181.795 467.92 183.107 470.282 185.679L466.713 190.035C464.981 188.408 463.039 187.568 460.887 187.568C459.155 187.568 458.105 188.198 458.105 189.405C458.105 190.402 458.788 190.875 460.835 191.714L463.354 192.764C468.393 194.811 470.649 196.858 470.649 200.689C470.649 203.261 469.705 205.308 467.763 206.778C465.873 208.247 463.459 208.982 460.52 208.982C455.954 208.982 452.122 207.093 449.76 203.944Z" fill="white"/>
</g>
<defs>
<clipPath id="clip0_1348_69878">
<rect width="463.76" height="268.141" fill="white" transform="translate(144 32)"/>
</clipPath>
</defs>
</svg>
