<svg width="151" height="103" viewBox="0 0 151 103" fill="none" xmlns="http://www.w3.org/2000/svg">
    <path opacity="0.47" d="M141.19 20.6899H9.8103V87.9313H141.19V20.6899Z" fill="#6FF8DC" />
    <path opacity="0.47" d="M141.125 87.4141H9.875L0.5 102.414H150.5L141.125 87.4141Z" fill="#EFEFEF" />
    <path d="M90.5467 85.1396H20.0173V98.276H90.5467V85.1396Z" fill="#007DFF" />
    <path d="M30.5667 86.0898H23.3712V97.3256H30.5667V86.0898Z" fill="#A9CAFF" />
    <path d="M134.881 72H64.3516V85.1363H134.881V72Z" fill="#A9CAFF" />
    <path d="M118.17 58.8638H66.6185V72.0001H118.17V58.8638Z" fill="#005BCF" />
    <path d="M118.173 61.2266H69.0688V69.6301H118.173V61.2266Z" fill="#EAEAE8" />
    <path d="M126.602 85.1396H56.0721V98.276H126.602V85.1396Z" fill="#007DFF" />
    <path d="M66.6186 86.0898H59.4231V97.3256H66.6186V86.0898Z" fill="#A9CAFF" />
    <path d="M123.248 86.0898H116.052V97.3256H123.248V86.0898Z" fill="#A9CAFF" />
    <path opacity="0.5" d="M132.611 73.5869H66.6185V83.5494H132.611V73.5869Z" fill="#007DFF" />
    <path d="M98.8291 72H28.2997V85.1363H98.8291V72Z" fill="#A9CAFF" />
    <path d="M82.1182 58.8638H30.5667V72.0001H82.1182V58.8638Z" fill="#005BCF" />
    <path d="M82.1215 61.2266H33.0171V69.6301H82.1215V61.2266Z" fill="#EAEAE8" />
    <path d="M87.1961 86.0898H80.0006V97.3256H87.1961V86.0898Z" fill="#A9CAFF" />
    <path opacity="0.5" d="M96.5589 73.5869H30.5667V83.5494H96.5589V73.5869Z" fill="#007DFF" />
    <path
      d="M48.6569 68.7926L104.949 68.2191C104.949 68.2191 107.012 51.6954 97.0357 32.2919C88.5697 15.7888 89.9229 -0.000488281 89.9229 -0.000488281L33.6309 0.572994C33.6309 0.572994 32.7191 20.2818 41.4203 35.935C50.6786 52.5907 48.6569 68.7926 48.6569 68.7926Z"
      fill="#3A7EE4"
    />
    <path
      d="M96.5941 60.2194C96.8184 60.2441 97.0448 60.1969 97.2406 60.0846C97.4363 59.9722 97.5913 59.8006 97.6831 59.5944C97.775 59.3883 97.7989 59.1583 97.7514 58.9376C97.704 58.717 97.5877 58.5171 97.4192 58.3669L92.6499 54.1503C92.4369 53.973 92.1631 53.8856 91.8867 53.907C91.6104 53.9283 91.3532 54.0566 91.17 54.2645C90.9867 54.4725 90.8918 54.7438 90.9055 55.0206C90.9191 55.2974 91.0402 55.5581 91.243 55.747L96.0206 59.9594C96.1809 60.1024 96.3809 60.193 96.5941 60.2194Z"
      fill="white"
    />
    <path
      d="M92.0972 60.5C92.2688 60.5213 92.4429 60.5005 92.6047 60.4394C92.7664 60.3783 92.9109 60.2787 93.0255 60.1493L97.2379 55.3675C97.4239 55.1563 97.5184 54.8799 97.5006 54.599C97.4828 54.3181 97.3542 54.0559 97.143 53.8698C96.9318 53.6838 96.6554 53.5893 96.3745 53.6071C96.0936 53.6249 95.8314 53.7536 95.6453 53.9647L91.4288 58.7424C91.3 58.8872 91.2134 59.0647 91.1783 59.2553C91.1433 59.446 91.1612 59.6426 91.2301 59.8238C91.299 60.005 91.4163 60.1638 91.5692 60.283C91.722 60.4023 91.9046 60.4773 92.0972 60.5Z"
      fill="white"
    />
    <path
      d="M93.8342 48.9806C93.7386 49.0349 93.6358 49.0752 93.5288 49.1003C93.3505 49.1386 93.1653 49.1302 92.9911 49.076C92.8169 49.0218 92.6597 48.9236 92.5345 48.7908L89.7373 45.8203C89.6416 45.7189 89.5669 45.5998 89.5173 45.4696C89.4678 45.3394 89.4443 45.2007 89.4483 45.0614C89.4523 44.9222 89.4838 44.7851 89.5408 44.6579C89.5978 44.5308 89.6793 44.4162 89.7806 44.3205C89.8819 44.2249 90.0011 44.1502 90.1313 44.1006C90.2615 44.051 90.4002 44.0276 90.5394 44.0316C90.6787 44.0356 90.8158 44.067 90.9429 44.1241C91.07 44.1811 91.1847 44.2625 91.2803 44.3639L92.877 46.0596L94.6469 40.9807C94.688 40.8429 94.7565 40.7149 94.8484 40.6043C94.9403 40.4938 95.0536 40.403 95.1816 40.3374C95.3095 40.2718 95.4494 40.2328 95.5928 40.2228C95.7362 40.2128 95.8802 40.2319 96.016 40.279C96.1519 40.3262 96.2767 40.4003 96.3831 40.497C96.4895 40.5938 96.5752 40.711 96.635 40.8418C96.6948 40.9725 96.7275 41.114 96.7312 41.2577C96.7348 41.4014 96.7093 41.5444 96.6562 41.678L94.3086 48.4112C94.2241 48.6519 94.0556 48.8541 93.8342 48.9806Z"
      fill="white"
    />
    <path
      d="M90.3809 37.4122C90.2897 37.475 90.1895 37.5237 90.0838 37.5566C89.9096 37.6114 89.7241 37.62 89.5454 37.5817C89.3668 37.5434 89.2012 37.4594 89.0648 37.3379L86.0076 34.6438C85.903 34.5517 85.8176 34.4399 85.7562 34.3148C85.6949 34.1897 85.6588 34.0537 85.65 33.9146C85.6411 33.7755 85.6598 33.6361 85.7049 33.5042C85.75 33.3724 85.8206 33.2507 85.9127 33.1461C86.0048 33.0416 86.1166 32.9562 86.2417 32.8948C86.3668 32.8334 86.5028 32.7973 86.6419 32.7885C86.7809 32.7797 86.9204 32.7984 87.0522 32.8434C87.1841 32.8885 87.3058 32.9591 87.4103 33.0512L89.1555 34.5902L90.451 29.3669C90.5315 29.1074 90.7081 28.8885 90.9448 28.755C91.1815 28.6215 91.4602 28.5836 91.724 28.649C91.9877 28.7144 92.2164 28.8782 92.3633 29.1068C92.5102 29.3354 92.5641 29.6115 92.5139 29.8785L90.7935 36.7974C90.7346 37.0454 90.5881 37.2638 90.3809 37.4122Z"
      fill="white"
    />
    <path
      d="M86.6677 25.8017C86.5729 25.8565 86.4698 25.8955 86.3624 25.9173C86.183 25.9541 85.9971 25.9438 85.8229 25.8874C85.6486 25.831 85.492 25.7304 85.3681 25.5955L82.5997 22.6043C82.4268 22.3946 82.3406 22.1268 82.3588 21.8556C82.3771 21.5845 82.4983 21.3306 82.6977 21.1459C82.8971 20.9613 83.1596 20.8599 83.4313 20.8626C83.7031 20.8652 83.9635 20.9717 84.1593 21.1603L85.7394 22.8724L87.5589 17.8101C87.6004 17.6717 87.6697 17.5431 87.7625 17.4323C87.8553 17.3214 87.9697 17.2307 88.0988 17.1655C88.2278 17.1004 88.3688 17.0622 88.5131 17.0533C88.6574 17.0444 88.8019 17.065 88.938 17.1138C89.0741 17.1626 89.1988 17.2386 89.3045 17.3372C89.4102 17.4358 89.4948 17.5549 89.553 17.6872C89.6111 17.8196 89.6418 17.9624 89.643 18.1069C89.6442 18.2515 89.6159 18.3947 89.5599 18.528L87.1505 25.2365C87.0624 25.4766 86.8911 25.6772 86.6677 25.8017Z"
      fill="white"
    />
    <path
      d="M83.5857 13.14C83.4908 13.1947 83.3877 13.2337 83.2804 13.2555C83.1009 13.2919 82.9152 13.2814 82.741 13.225C82.5668 13.1686 82.4101 13.0683 82.286 12.9337L79.5177 9.93837C79.3447 9.7283 79.2587 9.45996 79.2774 9.18849C79.2961 8.91701 79.4181 8.66302 79.6183 8.47868C79.8185 8.29435 80.0817 8.19368 80.3538 8.19736C80.6259 8.20104 80.8862 8.30879 81.0813 8.49847L82.6615 10.2065L84.481 5.14835C84.5762 4.88354 84.7726 4.6674 85.0272 4.54747C85.2818 4.42755 85.5735 4.41365 85.8383 4.50885C86.1031 4.60405 86.3193 4.80054 86.4392 5.0551C86.5591 5.30966 86.573 5.60142 86.4778 5.86623L84.0684 12.5747C83.979 12.8141 83.8081 13.0143 83.5857 13.14Z"
      fill="white"
    />
    <path
      d="M41.9607 14.5676C42.0129 14.5717 42.0653 14.5717 42.1175 14.5676L76.8853 13.697C77.1562 13.6747 77.4084 13.5496 77.59 13.3474C77.7716 13.1451 77.8689 12.8811 77.8621 12.6093C77.8552 12.3376 77.7447 12.0788 77.5531 11.8859C77.3615 11.6931 77.1034 11.5809 76.8317 11.5723L42.0638 12.4428C41.7995 12.4554 41.5494 12.566 41.3622 12.753C41.175 12.94 41.0642 13.19 41.0513 13.4542C41.0384 13.7185 41.1244 13.9781 41.2926 14.1824C41.4607 14.3867 41.6989 14.5211 41.9607 14.5593V14.5676Z"
      fill="white"
    />
    <path
      d="M45.228 27.1018H45.3807L80.1486 26.2312C80.4193 26.2092 80.6715 26.0845 80.8533 25.8827C81.0351 25.6808 81.1329 25.4171 81.1265 25.1455C81.1202 24.8739 81.0103 24.615 80.8193 24.4218C80.6282 24.2286 80.3706 24.1158 80.099 24.1064L45.3271 24.977C45.0534 24.9755 44.7898 25.0799 44.5914 25.2682C44.3929 25.4566 44.2749 25.7144 44.2621 25.9877C44.2494 26.2611 44.3427 26.5288 44.5227 26.7348C44.7028 26.9409 44.9555 27.0694 45.228 27.0935V27.1018Z"
      fill="white"
    />
    <path
      d="M50.1502 38.9508C50.2024 38.955 50.2548 38.955 50.307 38.9508L83.9857 37.9482C84.1249 37.9442 84.262 37.9127 84.3891 37.8557C84.5162 37.7986 84.6308 37.7171 84.7264 37.6158C84.822 37.5145 84.8967 37.3953 84.9462 37.2651C84.9957 37.1349 85.0191 36.9962 85.0151 36.857C85.011 36.7177 84.9795 36.5807 84.9225 36.4536C84.8655 36.3265 84.784 36.2119 84.6826 36.1163C84.5813 36.0207 84.4621 35.946 84.3319 35.8965C84.2017 35.8469 84.063 35.8235 83.9238 35.8276L50.2451 36.8302C49.9719 36.8298 49.709 36.9349 49.5114 37.1236C49.3138 37.3123 49.1967 37.57 49.1844 37.843C49.1722 38.116 49.2658 38.3831 49.4457 38.5887C49.6257 38.7944 49.8781 38.9226 50.1502 38.9467V38.9508Z"
      fill="white"
    />
    <path
      d="M54.3914 50.0414H54.544L87.8637 49.2162C88.003 49.2127 88.1402 49.1818 88.2675 49.1252C88.3948 49.0687 88.5097 48.9876 88.6056 48.8867C88.7016 48.7857 88.7768 48.6669 88.8268 48.5369C88.8768 48.4069 88.9008 48.2683 88.8972 48.1291C88.8937 47.9898 88.8628 47.8526 88.8063 47.7253C88.7497 47.598 88.6687 47.4831 88.5677 47.3872C88.4668 47.2912 88.3479 47.216 88.2179 47.166C88.0879 47.116 87.9493 47.092 87.8101 47.0956L54.4904 47.9207C54.2168 47.9192 53.9532 48.0236 53.7547 48.212C53.5562 48.4003 53.4383 48.6581 53.4255 48.9315C53.4127 49.2048 53.5061 49.4725 53.6861 49.6786C53.8661 49.8846 54.1188 50.0132 54.3914 50.0372V50.0414Z"
      fill="white"
    />
    <path
      d="M56.2692 59.6541H56.4259L88.7761 58.829C89.0573 58.8219 89.3242 58.7034 89.518 58.4995C89.7118 58.2956 89.8167 58.0231 89.8096 57.7419C89.8025 57.4606 89.684 57.1938 89.4801 56.9999C89.2762 56.8061 89.0037 56.7012 88.7225 56.7083L56.3723 57.5335C56.108 57.5461 55.8579 57.6567 55.6707 57.8437C55.4835 58.0306 55.3727 58.2806 55.3598 58.5449C55.3469 58.8092 55.4329 59.0688 55.601 59.2731C55.7692 59.4774 56.0074 59.6118 56.2692 59.65V59.6541Z"
      fill="white"
    />
  </svg>