<svg width="303" height="200" viewBox="0 0 303 200" fill="none" xmlns="http://www.w3.org/2000/svg">
    <g clip-path="url(#clip0_2809_22294)">
    <g opacity="0.7">
    <path opacity="0.47" d="M302.794 0.707031H0.920898V172.328H302.794V0.707031Z" fill="#6FF8DC"/>
    </g>
    <path d="M213.192 27.3117H285.747C285.746 24.5153 284.992 21.7706 283.565 19.3656C282.138 16.9606 280.091 14.9838 277.637 13.6425C275.183 12.3013 272.414 11.645 269.619 11.7425C266.824 11.84 264.107 12.6877 261.753 14.1967C260.361 12.1161 258.489 10.4015 256.295 9.19784C254.1 7.99422 251.648 7.33709 249.146 7.28208C246.643 7.22708 244.165 7.77582 241.919 8.88186C239.674 9.98789 237.729 11.6186 236.247 13.636C233.874 12.3416 231.204 11.6866 228.501 11.7354C225.798 11.7843 223.154 12.5352 220.829 13.9144C218.503 15.2937 216.577 17.254 215.238 19.6028C213.899 21.9515 213.194 24.6081 213.192 27.3117Z" fill="white"/>
    <path d="M24.851 27.7147H78.5961C78.5947 25.6432 78.036 23.6102 76.9786 21.8289C75.9212 20.0477 74.4041 18.5836 72.5863 17.5903C70.7684 16.597 68.7169 16.1111 66.6467 16.1834C64.5764 16.2557 62.5638 16.8836 60.8197 18.0012C59.7886 16.4597 58.4012 15.1894 56.7749 14.2978C55.1487 13.4063 53.3315 12.9198 51.4774 12.8797C49.6232 12.8395 47.7867 13.2468 46.1233 14.067C44.46 14.8873 43.0189 16.0963 41.922 17.5918C40.165 16.6288 38.1874 16.1402 36.1841 16.174C34.1808 16.2078 32.2209 16.7629 30.4973 17.7845C28.7738 18.8062 27.3461 20.2592 26.3549 22.0004C25.3638 23.7417 24.8433 25.7111 24.8447 27.7147H24.851Z" fill="white"/>
    <path d="M244.367 23.6104V24.2695C245.161 51.468 242.374 72.6665 237.625 89.1834L223.655 97.9025L235.183 96.1122L235.513 96.0673C229.258 114.217 220.614 125.947 212.449 133.52C208.273 137.433 203.559 140.727 198.449 143.303C198.189 143.438 197.927 143.565 197.663 143.685C197.018 144 196.389 144.277 195.797 144.532L188.082 144.929C187.977 144.577 187.88 144.217 187.782 143.858C187.718 143.633 187.658 143.408 187.603 143.183C187.513 142.891 187.438 142.592 187.363 142.292C178.254 107.183 189.738 79.1834 204.734 59.2208C204.777 59.1507 204.827 59.0854 204.884 59.0261C209.744 52.6138 215.166 46.6476 221.086 41.1984L224.494 49.88L224.981 37.7227C230.877 32.5696 237.214 27.9427 243.917 23.895L244.367 23.6104Z" fill="#31B92E"/>
    <path d="M243.356 53.7333L223.724 67.2363L224.017 67.6622L243.649 54.1591L243.356 53.7333Z" fill="white"/>
    <path d="M242.378 45.2176L227.065 55.8618L227.36 56.2856L242.673 45.6414L242.378 45.2176Z" fill="white"/>
    <path d="M205.23 58.9374L204.717 59.0039L209.548 96.25L210.061 96.1835L205.23 58.9374Z" fill="white"/>
    <path d="M184.988 150.922C184.988 150.922 203.258 159.558 229.258 144.06L220.823 140.075L234.584 140.622C244.734 133.528 255.865 122.712 267.43 106.427L264.209 104.929L268.382 105.094C270.329 102.307 272.289 99.3635 274.262 96.2623C268.075 95.884 261.866 96.0796 255.715 96.8466L250.112 104.427L251.7 97.3859C229.385 100.734 196.898 112.427 184.988 150.922Z" fill="#31B92E"/>
    <path d="M274.114 95.9264L183.458 148.923L183.752 149.428L274.409 96.4309L274.114 95.9264Z" fill="white"/>
    <path d="M250.718 109.992L250.663 110.528L263.642 111.867L263.698 111.331L250.718 109.992Z" fill="white"/>
    <path d="M244.467 113.457L244.371 113.996L259.511 116.692L259.607 116.154L244.467 113.457Z" fill="white"/>
    <path d="M206.344 117.603L205.887 117.094C213.93 110.082 223.295 104.752 233.43 101.416L233.647 102.068C223.603 105.376 214.32 110.658 206.344 117.603Z" fill="#2E4882"/>
    <path d="M24.7866 74.3071L24.8765 74.9663C28.6218 101.933 34.9215 122.352 42.3372 137.843L57.6106 144.097L45.9477 144.262H45.6181C54.8166 161.116 65.296 171.228 74.6068 177.311C79.3816 180.475 84.5857 182.937 90.06 184.622L90.899 184.869C91.5881 185.071 92.2548 185.236 92.884 185.386L100.547 184.494C100.584 184.127 100.629 183.745 100.659 183.393C100.689 183.154 100.712 182.921 100.727 182.697C100.727 182.39 100.787 182.082 100.809 181.775C103.933 145.64 87.9327 119.948 69.8128 102.772C69.7583 102.711 69.6981 102.656 69.6331 102.607C63.7714 97.0959 57.4291 92.1198 50.6817 87.7378L48.7716 96.8614L46.2548 84.9588C39.5846 80.8549 32.5663 77.3457 25.281 74.4719L24.7866 74.3071Z" fill="#31B92E"/>
    <path d="M30.8084 103.798L30.5908 104.267L52.2036 114.299L52.4212 113.83L30.8084 103.798Z" fill="white"/>
    <path d="M29.5907 97.3525L29.373 97.8213L46.3113 105.684L46.5289 105.215L29.5907 97.3525Z" fill="white"/>
    <path d="M69.7992 102.587L69.2827 102.607L70.7441 140.137L71.2606 140.117L69.7992 102.587Z" fill="white"/>
    <path d="M104.599 189.918C104.599 189.918 88.0224 201.483 59.8052 190.539L67.4456 185.191L53.9625 188.03C42.779 182.727 29.9925 173.925 15.8726 159.805L18.7865 157.76L14.7041 158.622C12.317 156.2 9.89259 153.625 7.43066 150.899C13.4671 149.493 19.6206 148.647 25.8127 148.374L32.6067 154.921L29.8651 148.24C52.4344 147.85 86.4194 153.947 104.599 189.918Z" fill="#31B92E"/>
    <path d="M7.54383 150.621L7.3374 151.167L105.576 188.269L105.782 187.723L7.54383 150.621Z" fill="white"/>
    <path d="M32.9706 160.508L20.3965 163.996L20.5406 164.515L33.1147 161.028L32.9706 160.508Z" fill="white"/>
    <path d="M39.679 162.931L25.2026 168.12L25.3871 168.634L39.8635 163.445L39.679 162.931Z" fill="white"/>
    <path d="M77.9696 160.629L78.3367 160.045C69.2366 154.479 59.1157 150.789 48.5689 149.191L48.4565 149.865C58.9139 151.448 68.9488 155.108 77.9696 160.629Z" fill="#2E4882"/>
    <path d="M100.21 153.026H44.8765V194.772H100.21V153.026Z" fill="#EA9633"/>
    <path d="M100.202 153.026H83.5952V194.772H100.202V153.026Z" fill="#CA791E"/>
    <path d="M68.2696 153.026H59.7153V162.584H68.2696V153.026Z" fill="#374A3A"/>
    <path d="M94.4116 153.026H89.4004V162.584H94.4116V153.026Z" fill="#374A3A"/>
    <path d="M69.6555 187.738L66.9139 184.607L64.1724 187.738H65.5806V190.749H68.2548V187.738H69.6555Z" fill="#374A3A"/>
    <path d="M63.8049 187.738L61.0634 184.607L58.3218 187.738H59.73V190.749H62.3967V187.738H63.8049Z" fill="#374A3A"/>
    <path d="M122.075 111.288H66.7417V153.033H122.075V111.288Z" fill="#EA9633"/>
    <path d="M122.074 111.288H105.468V153.033H122.074V111.288Z" fill="#CA791E"/>
    <path d="M90.1349 111.288H81.5806V120.846H90.1349V111.288Z" fill="#374A3A"/>
    <path d="M116.276 111.288H111.265V120.846H116.276V111.288Z" fill="#374A3A"/>
    <path d="M91.5203 146L88.7787 142.869L86.0371 146H87.4454V149.011H90.1195V146H91.5203Z" fill="#374A3A"/>
    <path d="M85.6702 146L82.9286 142.869L80.187 146H81.5953V149.011H84.2619V146H85.6702Z" fill="#374A3A"/>
    <path d="M155.445 153.026H100.112V194.772H155.445V153.026Z" fill="#EA9633"/>
    <path d="M155.446 153.026H138.839V194.772H155.446V153.026Z" fill="#CA791E"/>
    <path d="M123.505 153.026H114.951V162.584H123.505V153.026Z" fill="#374A3A"/>
    <path d="M149.648 153.026H144.637V162.584H149.648V153.026Z" fill="#374A3A"/>
    <path d="M124.898 187.738L122.157 184.607L119.415 187.738H120.816V190.749H123.49V187.738H124.898Z" fill="#374A3A"/>
    <path d="M119.041 187.738L116.3 184.607L113.558 187.738H114.966V190.749H117.641V187.738H119.041Z" fill="#374A3A"/>
    <path d="M238.494 154.524H183.161V196.27H238.494V154.524Z" fill="#EA9633"/>
    <path d="M238.494 154.524H221.888V196.27H238.494V154.524Z" fill="#CA791E"/>
    <path d="M206.554 154.524H198V164.082H206.554V154.524Z" fill="#374A3A"/>
    <path d="M232.697 154.524H227.686V164.082H232.697V154.524Z" fill="#374A3A"/>
    <path d="M207.948 189.237L205.206 186.098L202.464 189.237H203.865V192.24H206.539V189.237H207.948Z" fill="#374A3A"/>
    <path d="M202.09 189.237L199.348 186.098L196.606 189.237H198.015V192.24H200.689V189.237H202.09Z" fill="#374A3A"/>
    <path d="M260.359 112.779H205.026V154.524H260.359V112.779Z" fill="#EA9633"/>
    <path d="M260.36 112.779H243.753V154.524H260.36V112.779Z" fill="#CA791E"/>
    <path d="M228.419 112.779H219.865V122.337H228.419V112.779Z" fill="#374A3A"/>
    <path d="M254.562 112.779H249.55V122.337H254.562V112.779Z" fill="#374A3A"/>
    <path d="M229.812 147.49L227.071 144.359L224.329 147.49H225.73V150.501H228.404V147.49H229.812Z" fill="#374A3A"/>
    <path d="M223.962 147.49L221.221 144.359L218.472 147.49H219.88V150.501H222.554V147.49H223.962Z" fill="#374A3A"/>
    <path d="M293.738 154.524H238.404V196.27H293.738V154.524Z" fill="#EA9633"/>
    <path d="M293.73 154.524H277.123V196.27H293.73V154.524Z" fill="#CA791E"/>
    <path d="M261.79 154.524H253.235V164.082H261.79V154.524Z" fill="#374A3A"/>
    <path d="M287.932 154.524H282.921V164.082H287.932V154.524Z" fill="#374A3A"/>
    <path d="M263.183 189.237L260.442 186.098L257.7 189.237H259.108V192.24H261.775V189.237H263.183Z" fill="#374A3A"/>
    <path d="M257.333 189.237L254.592 186.098L251.85 189.237H253.251V192.24H255.925V189.237H257.333Z" fill="#374A3A"/>
    <path d="M233.326 176.164L208.607 179.812L175.453 178.494L138.749 181.318L103.393 179.168L102.247 177.932C106.135 177.25 112.232 172.568 116.3 168.411C118.591 166.084 121.166 164.053 123.962 162.366C126.013 161.055 128.305 160.166 130.704 159.752C135.123 159.22 207.805 159.003 213.932 159.25C215.57 159.309 217.2 159.494 218.809 159.804C223.056 160.613 226.786 162.314 228.719 165.048C231.386 168.733 233.326 176.164 233.326 176.164Z" fill="#D9AB7E"/>
    <path d="M103.416 179.168C103.416 179.168 113.783 195.55 128.397 198.022C143.011 200.493 156.674 199.557 167.048 199.437C177.423 199.317 208.674 198.905 214.681 196.441C220.689 193.977 232.382 177.25 232.382 177.25L208.607 179.819L175.453 178.493L138.749 181.317L103.416 179.168Z" fill="#BF976F"/>
    <path d="M218.824 159.805C214.329 161.303 209.086 162.562 205.341 162.15C197.535 161.296 175.318 162.899 156.816 164.397C140.719 165.708 128.756 165.266 124.007 162.359C126.058 161.048 128.35 160.159 130.749 159.745C135.168 159.213 207.85 158.996 213.977 159.243C215.605 159.306 217.225 159.494 218.824 159.805Z" fill="#A68360"/>
    <path d="M99.58 178.757C99.4153 180.075 103.94 180.345 109.543 180.405C115.146 180.465 124.037 181.641 130.868 182.465C137.7 183.288 148.014 182.172 153.438 181.408C158.861 180.644 176.704 179.288 186.014 180.112C195.325 180.936 211.588 181.229 218.307 179.993C225.026 178.757 234.876 179.685 235.093 176.547C235.31 173.408 225.138 176.457 214.651 177.933C204.164 179.408 182.157 177.124 175.086 177.476C168.015 177.828 146.247 180.172 135.7 180.053C125.153 179.933 106.741 178.075 103.415 177.963C100.089 177.85 99.6699 178.053 99.58 178.757Z" fill="#F2BF8D"/>
    <path d="M231.738 144.817C231.738 144.817 224.891 156.307 213.948 159.251C203.004 162.195 177.476 160.465 168.899 161.611C160.322 162.757 138.142 162.023 129.7 159.933C121.259 157.843 118.142 154.607 115.139 153.483C112.135 152.36 109.273 149.296 108.832 147.491C108.832 147.491 115.656 148.989 120.202 148.644C124.749 148.3 142.674 145.723 146.142 145.154C149.611 144.585 163.026 142.547 170.622 142.585C178.217 142.622 183.356 143.783 190.202 142.959C197.049 142.135 204.577 141.663 211.176 143.191C217.775 144.719 231.738 144.817 231.738 144.817Z" fill="#BF976F"/>
    <path d="M231.213 144.524L215.647 143.903L202.277 142.165L186.546 143.213L168.711 142.592L145.026 145.221L124.614 148.142L114.981 148.449L108.292 146.719C108.798 144.261 110.117 142.044 112.037 140.427C115.13 138.045 118.689 132 120.591 128.442C121.714 126.459 123.171 124.685 124.898 123.198C127.277 120.991 130.251 119.533 133.453 119.004C139.243 118.3 153.37 117.356 159.258 116.412C165.145 115.468 171.632 112.906 187.011 115.738C198.052 117.768 207.198 118.472 213.43 120.33C215.579 120.872 217.597 121.843 219.363 123.183C224.606 127.551 226.426 132.921 227.483 136.037C228.539 139.153 228.561 142.322 231.213 144.524Z" fill="#D9AB7E"/>
    <path d="M107.168 146.539C106.419 148.464 110.569 148.973 115.168 149.326C119.767 149.678 121.528 149.767 133.992 147.738C146.456 145.708 166.015 143.393 174.03 143.992C182.044 144.591 185.662 144.876 192.322 143.992C198.981 143.108 206.254 142.644 211.97 144.209C217.685 145.775 232.03 146.15 232.119 144.681C232.209 143.213 229.82 143.767 226.996 143.797C222.701 143.815 218.413 143.459 214.179 142.734C209.198 141.85 205.243 141.056 201.558 140.966C197.872 140.876 191.64 142.142 186.756 142.202C181.872 142.262 177.093 141.678 170.846 141.558C164.599 141.438 154.996 143.056 151.872 143.588C148.749 144.12 137.176 145.738 133.842 146.179C130.509 146.621 124.359 147.55 121.438 147.835C118.201 148.062 114.949 147.82 111.782 147.116C109.73 146.539 107.535 145.595 107.168 146.539Z" fill="#F2BF8D"/>
    <path d="M213.438 120.337C208.285 122.784 202.602 123.904 196.906 123.596C176.786 122.787 158.067 125.094 142.157 126.525C132.509 127.394 127.423 125.139 124.929 123.229C127.307 121.022 130.282 119.563 133.483 119.034C139.273 118.33 153.401 117.386 159.288 116.442C165.176 115.498 171.663 112.937 187.041 115.768C198.06 117.776 207.206 118.48 213.438 120.337Z" fill="#A68360"/>
    <path d="M233.326 98.0068L208.607 101.655L175.453 100.329L138.749 103.16L103.393 101.011L102.247 99.7746C106.135 99.093 112.562 94.711 116.3 90.254C117.705 88.6125 119.429 87.2725 121.366 86.3147C123.304 85.3569 125.415 84.8012 127.573 84.681C131.977 84.4338 137.693 81.7297 139.708 81.3252C152.127 78.8533 204.794 78.6286 213.932 81.093C215.528 81.5199 218.232 82.1641 219.813 82.4787C224.06 83.2877 226.786 84.1567 228.719 86.8683C231.386 90.5761 233.326 98.0068 233.326 98.0068Z" fill="#D9AB7E"/>
    <path d="M103.416 101.011C103.416 101.011 113.783 117.386 128.397 119.865C143.011 122.345 156.674 121.363 167.048 121.273C177.423 121.183 208.674 120.749 214.681 118.277C220.689 115.805 232.359 99.1011 232.359 99.1011L208.584 101.663L175.453 100.33L138.749 103.161L103.416 101.011Z" fill="#BF976F"/>
    <path d="M99.58 100.599C99.4153 101.918 103.94 102.187 109.543 102.247C115.146 102.307 124.037 103.483 130.868 104.307C137.7 105.131 148.014 104.015 153.438 103.251C158.861 102.487 176.704 101.124 186.014 101.948C195.325 102.772 211.588 103.071 218.307 101.835C225.026 100.599 234.876 101.521 235.093 98.3895C235.31 95.2584 225.138 98.2996 214.651 99.7678C204.164 101.236 182.157 98.9588 175.086 99.3109C168.015 99.6629 146.247 102.008 135.7 101.895C125.153 101.783 106.741 99.9176 103.415 99.7978C100.089 99.6779 99.6699 99.8876 99.58 100.599Z" fill="#F2BF8D"/>
    </g>
    <defs>
    <clipPath id="clip0_2809_22294">
    <rect width="301.873" height="200" fill="white" transform="translate(0.921387)"/>
    </clipPath>
    </defs>
    </svg>
    