<svg width="304" height="213" viewBox="0 0 304 213" fill="none" xmlns="http://www.w3.org/2000/svg">
<g clip-path="url(#clip0_1343_61309)">
<path d="M302.895 212.277H0.34419C0.152702 212.277 -0.000488281 211.913 -0.000488281 211.466C-0.000488281 211.02 0.152702 210.637 0.34419 210.637H302.895C303.086 210.637 303.239 211.001 303.239 211.454C303.239 211.907 303.086 212.277 302.895 212.277Z" fill="#004C46"/>
<path opacity="0.15" d="M79.6585 210.713C79.6585 210.713 51.3438 182.973 48.3183 141.19C44.546 89.2205 63.7841 61.6846 99.9179 56.1251C111.005 54.4144 125.679 42.8677 140.96 28.6785C171.802 0.0383301 259.382 30.4466 239.2 124.467C229.708 168.701 268.529 166.224 250.804 210.802L79.6585 210.713Z" fill="#31B92E"/>
<path d="M198.342 193.639C198.342 193.639 194.869 184.614 201.993 182.201C201.993 182.201 206.933 181.186 210.175 182.559C210.175 182.559 202.682 188.769 203.92 190.09C205.158 191.412 211.778 182.552 211.778 182.552C211.778 182.552 221.352 184.946 223.809 187.429C223.809 187.429 213.597 191.093 215.129 192.069C216.661 193.046 227.454 189.727 227.454 189.727C227.454 189.727 235.548 194.252 233.199 199.339C230.85 204.426 227.333 204.995 226.082 204.395C224.831 203.795 218.231 198.171 217.688 199.18C217.146 200.188 220.49 205.314 223.65 206.616C223.65 206.616 215.199 211.154 211.854 207.79C208.51 204.426 209.25 201.241 207.144 199.199C205.037 197.156 202.893 196.397 203.512 197.922C204.131 199.448 208.28 202.218 208.816 205.269C209.352 208.32 210.029 210.503 206.078 208.39C202.127 206.277 196.452 200.846 197.397 197.233L198.342 193.639Z" stroke="#31BC2E" stroke-width="0.638292" stroke-miterlimit="10"/>
<path d="M228.942 197.997C228.942 197.997 205.88 188.787 198.342 193.638C196.44 195.797 194.047 197.467 191.365 198.508L190.287 199.785C190.287 199.785 195.853 196.957 197.397 197.232C197.397 197.232 198.074 188.155 228.942 197.997Z" stroke="#31BC2E" stroke-width="0.638292" stroke-miterlimit="10"/>
<path d="M191.366 198.509C189.363 199.223 187.527 200.34 185.972 201.79C184.416 203.24 183.174 204.993 182.321 206.941L183.202 207.349C183.202 207.349 187.243 201.062 191.091 199.409C194.94 197.756 191.366 198.509 191.366 198.509Z" stroke="#31BC2E" stroke-width="0.638292" stroke-miterlimit="10"/>
<path d="M191.984 171.44C191.984 171.44 176.665 160.94 185.301 149.355C185.301 149.355 192.01 142.333 198.642 141.019C198.642 141.019 193.535 158.993 196.944 159.74C200.352 160.487 201.188 139.314 201.188 139.314C201.188 139.314 218.927 132.676 225.539 133.927C225.539 133.927 213.373 150.829 216.859 150.714C220.344 150.599 233.812 133.589 233.812 133.589C233.812 133.589 251.537 131.942 253.401 142.525C255.265 153.108 250.273 157.844 247.656 158.278C245.039 158.712 228.469 156.97 228.705 159.159C228.941 161.348 239.818 165.81 246.233 164.438C246.233 164.438 237.807 180.816 228.846 179.118C219.884 177.42 217.593 171.593 212.039 170.654C206.486 169.716 202.254 170.852 204.916 172.614C207.578 174.376 217.139 174.216 221.307 178.467C225.475 182.718 228.922 185.418 220.376 186.382C211.829 187.346 196.861 184.901 194.435 178.174L191.984 171.44Z" stroke="#31BC2E" stroke-width="0.638292" stroke-miterlimit="10"/>
<path d="M245.142 145.014C245.142 145.014 198.63 155.552 191.985 171.439C191.985 171.439 191.532 178.773 186.24 186.758L185.947 189.981C185.947 189.981 191.691 179.437 194.398 178.167C194.411 178.167 185.583 163.045 245.142 145.014Z" stroke="#31BC2E" stroke-width="0.638292" stroke-miterlimit="10"/>
<path d="M186.253 186.757C186.253 186.757 178.326 196.708 181.147 209.946L182.985 209.627C182.985 209.627 182.526 195.285 186.815 188.474C191.104 181.664 186.253 186.757 186.253 186.757Z" stroke="#31BC2E" stroke-width="0.638292" stroke-miterlimit="10"/>
<path d="M112.708 195.158C112.708 195.158 116.18 186.133 109.057 183.713C109.057 183.713 104.117 182.699 100.874 184.077C100.874 184.077 108.368 190.281 107.129 191.603C105.891 192.924 99.2784 184.09 99.2784 184.09C99.2784 184.09 89.704 186.477 87.2402 188.967C87.2402 188.967 97.4529 192.624 95.921 193.601C94.3891 194.577 83.6147 191.264 83.6147 191.264C83.6147 191.264 75.5276 195.79 77.8701 200.877C80.2126 205.964 83.736 206.532 84.9935 205.926C86.2509 205.32 92.8381 199.703 93.3806 200.711C93.9232 201.72 90.5785 206.845 87.419 208.147C87.419 208.147 95.87 212.685 99.2146 209.322C102.559 205.958 101.819 202.773 103.925 200.73C106.032 198.688 108.176 197.928 107.557 199.454C106.938 200.979 102.764 203.762 102.215 206.807C101.666 209.851 101.002 212.034 104.953 209.922C108.904 207.809 114.597 202.352 113.653 198.745L112.708 195.158Z" stroke="#31BC2E" stroke-width="0.638292" stroke-miterlimit="10"/>
<path d="M82.1094 199.517C82.1094 199.517 105.171 190.306 112.709 195.157C114.613 197.319 117.007 198.991 119.692 200.034L120.764 201.311C120.764 201.311 115.198 198.477 113.654 198.757C113.654 198.757 112.977 189.668 82.1094 199.517Z" stroke="#31BC2E" stroke-width="0.638292" stroke-miterlimit="10"/>
<path d="M119.692 200.035C121.695 200.75 123.53 201.868 125.084 203.319C126.639 204.77 127.879 206.524 128.73 208.473L127.85 208.875C127.85 208.875 123.809 202.588 119.96 200.941C116.111 199.295 119.692 200.035 119.692 200.035Z" stroke="#31BC2E" stroke-width="0.638292" stroke-miterlimit="10"/>
<path d="M119.073 172.976C119.073 172.976 134.392 162.476 125.749 150.891C125.749 150.891 119.041 143.908 112.409 142.555C112.409 142.555 117.515 160.536 114.107 161.276C110.698 162.016 109.869 140.851 109.869 140.851C109.869 140.851 92.124 134.219 85.5113 135.464C85.5113 135.464 97.6772 152.372 94.1921 152.251C90.707 152.129 77.2327 135.087 77.2327 135.087C77.2327 135.087 59.5073 133.44 57.6435 144.023C55.7797 154.606 60.7711 159.342 63.3881 159.77C66.0051 160.197 82.5752 158.493 82.3454 160.657C82.1156 162.821 71.2327 167.302 64.8115 165.929C64.8115 165.929 73.237 182.308 82.1986 180.61C91.1602 178.912 93.4517 173.078 99.0048 172.146C104.558 171.214 108.79 172.344 106.128 174.099C103.467 175.855 93.9049 175.708 89.7368 179.959C85.5688 184.21 82.122 186.91 90.6687 187.867C99.2155 188.825 114.183 186.386 116.609 179.659L119.073 172.976Z" stroke="#31BC2E" stroke-width="0.638292" stroke-miterlimit="10"/>
<path d="M65.9092 146.527C65.9092 146.527 112.422 157.066 119.073 172.953C119.073 172.953 119.519 180.287 124.817 188.272L125.104 191.489C125.104 191.489 119.36 180.944 116.653 179.667C116.641 179.68 125.468 164.565 65.9092 146.527Z" stroke="#31BC2E" stroke-width="0.638292" stroke-miterlimit="10"/>
<path d="M124.797 188.297C124.797 188.297 132.725 198.248 129.904 211.493L128.072 211.174C128.072 211.174 128.525 196.825 124.242 190.021C119.959 183.216 124.797 188.297 124.797 188.297Z" stroke="#31BC2E" stroke-width="0.638292" stroke-miterlimit="10"/>
<mask id="mask0_1343_61309" style="mask-type:luminance" maskUnits="userSpaceOnUse" x="67" y="0" width="182" height="211">
<path d="M248.927 0H67.6523V210.451H248.927V0Z" fill="white"/>
</mask>
<g mask="url(#mask0_1343_61309)">
<path d="M99.8095 104.227C98.9912 103.812 98.2908 103.198 97.7733 102.44C96.1712 100.021 94.9457 98.5017 93.733 96.9379C93.6069 96.7817 93.5131 96.6019 93.4572 96.409C93.4013 96.2161 93.3844 96.014 93.4074 95.8145L93.4521 95.4954C93.4589 95.3737 93.4908 95.2547 93.546 95.1459C93.6011 95.0372 93.6782 94.9411 93.7724 94.8637C93.8666 94.7863 93.9758 94.7293 94.0932 94.6963C94.2106 94.6633 94.3335 94.655 94.4542 94.672C96.0114 95.0372 97.5136 95.606 98.9223 96.3635L99.6053 89.7891L111.733 94.3529L111.095 100.327C111.004 101.229 110.684 102.092 110.166 102.835C109.647 103.578 108.948 104.176 108.133 104.572C108.102 105.04 107.975 105.498 107.761 105.916C107.547 106.333 107.249 106.703 106.887 107.002C106.525 107.301 106.106 107.523 105.655 107.653C105.204 107.784 104.731 107.822 104.265 107.763L102.88 107.591C102.043 107.509 101.266 107.12 100.699 106.499C100.132 105.877 99.815 105.068 99.8095 104.227Z" fill="#A34321"/>
<path d="M98.2972 98.0942C97.813 97.8574 97.4368 97.4455 97.2449 96.9419C97.0529 96.4383 97.0594 95.8805 97.2631 95.3815L101.023 86.0752C101.16 85.7625 101.359 85.4807 101.608 85.2463C101.856 85.0119 102.15 84.8298 102.47 84.7108C102.79 84.5917 103.131 84.5382 103.472 84.5533C103.813 84.5684 104.148 84.6518 104.457 84.7986C105.047 85.0898 105.499 85.6033 105.712 86.2266C105.925 86.8499 105.882 87.5323 105.593 88.1241L101.125 97.0602C101.012 97.3176 100.847 97.5494 100.642 97.7417C100.437 97.9341 100.195 98.0831 99.9313 98.1796C99.6672 98.2762 99.3863 98.3184 99.1055 98.3037C98.8247 98.2891 98.5497 98.2178 98.2972 98.0942Z" fill="#A34321"/>
<path d="M102.126 99.0507C101.66 98.8082 101.302 98.3987 101.125 97.9042C100.947 97.4096 100.963 96.8662 101.168 96.3827L104.475 88.7232C104.604 88.4232 104.793 88.1524 105.029 87.9268C105.265 87.7011 105.545 87.5253 105.85 87.4097C106.156 87.2941 106.481 87.2411 106.808 87.2538C107.134 87.2665 107.455 87.3448 107.751 87.4838C108.046 87.6229 108.311 87.8199 108.529 88.0633C108.747 88.3066 108.914 88.5913 109.02 88.9004C109.126 89.2095 109.168 89.5368 109.145 89.8627C109.122 90.1886 109.034 90.5065 108.885 90.7976L104.902 98.1571C104.779 98.3988 104.61 98.6137 104.404 98.7896C104.197 98.9655 103.958 99.0988 103.7 99.1818C103.442 99.2649 103.17 99.2961 102.9 99.2736C102.63 99.2511 102.367 99.1753 102.126 99.0507Z" fill="#A34321"/>
<path d="M105.464 100.581C105.015 100.354 104.672 99.9586 104.512 99.4806C104.352 99.0026 104.387 98.4808 104.609 98.0283L107.316 92.0475C107.438 91.7519 107.619 91.4843 107.848 91.2606C108.077 91.037 108.348 90.862 108.647 90.7463C108.945 90.6306 109.263 90.5765 109.583 90.5873C109.903 90.5981 110.217 90.6736 110.507 90.8092C110.781 90.9539 111.024 91.1518 111.221 91.3913C111.418 91.6308 111.566 91.9072 111.655 92.2042C111.744 92.5013 111.773 92.8132 111.74 93.1216C111.708 93.43 111.614 93.7289 111.464 94.0007L108.101 99.6878C107.988 99.9216 107.831 100.131 107.637 100.303C107.443 100.474 107.216 100.606 106.971 100.689C106.725 100.772 106.465 100.806 106.207 100.787C105.948 100.769 105.696 100.699 105.464 100.581Z" fill="#A34321"/>
<path d="M107.833 102.127C107.39 101.902 107.052 101.514 106.89 101.044C106.729 100.575 106.755 100.062 106.964 99.6116L109.594 94.9776C109.705 94.6836 109.875 94.4156 110.094 94.1903C110.313 93.965 110.576 93.7873 110.867 93.6683C111.158 93.5493 111.47 93.4915 111.784 93.4986C112.098 93.5057 112.408 93.5775 112.693 93.7095C112.978 93.8415 113.233 94.0309 113.441 94.2658C113.65 94.5007 113.808 94.7761 113.905 95.0749C114.003 95.3736 114.037 95.6892 114.007 96.0019C113.977 96.3146 113.883 96.6178 113.73 96.8925L110.488 101.246C110.245 101.707 109.833 102.057 109.338 102.221C108.843 102.385 108.303 102.352 107.833 102.127Z" fill="#A34321"/>
<path d="M148.301 90.3453C148.301 90.7492 148.421 91.1442 148.645 91.48C148.869 91.8159 149.188 92.0777 149.562 92.2323C149.935 92.3869 150.346 92.4274 150.742 92.3486C151.138 92.2697 151.502 92.0752 151.788 91.7896C152.073 91.5039 152.268 91.14 152.347 90.7438C152.425 90.3475 152.385 89.9369 152.23 89.5636C152.076 89.1904 151.814 88.8714 151.478 88.647C151.142 88.4225 150.747 88.3027 150.343 88.3027C149.806 88.3157 149.294 88.5351 148.913 88.9153C148.533 89.2956 148.314 89.8076 148.301 90.3453Z" stroke="#FFB801" stroke-width="1.01488" stroke-miterlimit="10"/>
<path d="M129.829 94.6406V102.517C129.829 106.858 133.065 110.387 137.067 110.387C141.069 110.387 144.299 106.858 144.299 102.517V94.6406H129.829Z" fill="#A24320"/>
<path d="M122.252 74.1692V78.6819C122.254 82.0451 123.59 85.2701 125.969 87.6482C128.347 90.0263 131.572 91.3631 134.935 91.3648H138.171C141.534 91.3631 144.759 90.0263 147.137 87.6482C149.515 85.2701 150.852 82.0451 150.854 78.6819V74.1692C150.863 72.688 150.604 71.2174 150.088 69.8288C149.549 68.3589 148.742 67.0018 147.707 65.8267C146.972 64.9784 146.126 64.2334 145.192 63.6118C144.854 63.4012 144.509 63.1842 144.126 62.9736C142.277 61.9984 140.217 61.488 138.126 61.4863H134.89C131.534 61.4965 128.318 62.8374 125.949 65.215C123.58 67.5925 122.25 70.8127 122.252 74.1692Z" fill="#011716"/>
<path d="M131.826 96.1719L144.343 103.193V96.1719H131.826Z" fill="#793219"/>
<path d="M129.829 96.1715H144.893C146.472 96.1682 147.985 95.5399 149.102 94.4239C150.219 93.308 150.849 91.7952 150.854 90.2163V69.1016H129.829V96.1715Z" fill="#A24320"/>
<path d="M139.958 81.702C139.958 81.702 139.364 79.9148 137.66 79.7042C137.136 79.6711 136.61 79.7573 136.124 79.9563C135.638 80.1553 135.202 80.4619 134.852 80.8531C134.987 81.3798 135.295 81.8458 135.727 82.1767C136.159 82.5077 136.689 82.6844 137.232 82.6786C139.32 82.8956 139.958 81.702 139.958 81.702Z" fill="white"/>
<path d="M135.7 80.9797C135.667 81.3161 135.734 81.655 135.893 81.9535C136.052 82.2519 136.295 82.4966 136.593 82.6566C136.891 82.8165 137.23 82.8846 137.566 82.8522C137.903 82.8199 138.222 82.6885 138.484 82.4746C138.746 82.2608 138.939 81.9741 139.038 81.6509C139.137 81.3276 139.138 80.9822 139.041 80.6583C138.944 80.3344 138.753 80.0465 138.493 79.8311C138.232 79.6156 137.913 79.4822 137.577 79.4478C137.125 79.4032 136.674 79.5393 136.322 79.8264C135.971 80.1134 135.747 80.5281 135.7 80.9797Z" fill="black"/>
<path d="M139.958 81.7024C139.958 81.7024 139.403 79.8322 137.66 79.7046C137.136 79.6757 136.612 79.7638 136.126 79.9625C135.641 80.1612 135.205 80.4656 134.852 80.8535" stroke="black" stroke-width="0.312763" stroke-linecap="round" stroke-linejoin="round"/>
<path d="M144.682 81.7004C144.682 81.7004 145.237 79.9132 146.769 79.7025C147.255 79.68 147.739 79.7723 148.183 79.9719C148.626 80.1715 149.017 80.4728 149.322 80.8515C149.209 81.3507 148.935 81.7992 148.544 82.1287C148.152 82.4582 147.663 82.6508 147.152 82.677C145.275 82.894 144.682 81.7004 144.682 81.7004Z" fill="white"/>
<path d="M148.556 80.9802C148.61 81.413 148.493 81.8498 148.231 82.1985C147.97 82.5473 147.583 82.781 147.152 82.8504C146.939 82.8624 146.726 82.8323 146.525 82.7617C146.325 82.6911 146.14 82.5815 145.981 82.4391C145.823 82.2967 145.694 82.1244 145.602 81.932C145.511 81.7397 145.458 81.5312 145.448 81.3185C145.394 80.8856 145.511 80.4489 145.773 80.1001C146.035 79.7513 146.421 79.5177 146.852 79.4483C147.065 79.4353 147.278 79.4649 147.479 79.5351C147.681 79.6054 147.866 79.715 148.025 79.8576C148.183 80.0001 148.312 80.1728 148.403 80.3655C148.494 80.5582 148.547 80.7672 148.556 80.9802Z" fill="black"/>
<path d="M144.682 81.7012C144.682 81.7012 145.192 79.831 146.769 79.7033C147.255 79.6782 147.74 79.7693 148.184 79.9691C148.628 80.1689 149.018 80.4716 149.322 80.8522" stroke="black" stroke-width="0.299997" stroke-linecap="round" stroke-linejoin="round"/>
<path d="M137.233 75.3585C136.336 75.2428 135.426 75.3014 134.552 75.5308C134.4 75.554 134.26 75.6249 134.151 75.7333C134.043 75.8416 133.971 75.9818 133.948 76.1334C133.924 76.285 133.95 76.4401 134.021 76.5762C134.091 76.7124 134.204 76.8224 134.341 76.8904C135.147 77.1996 135.991 77.4014 136.85 77.4904C138.937 77.7457 140.086 77.1457 140.086 76.6351C140.13 75.8691 138.343 75.4032 137.233 75.3585Z" fill="#011716"/>
<path d="M147.324 75.3575C148.152 75.2675 148.989 75.3412 149.788 75.5745C150.388 75.8298 150.599 76.5958 150.005 76.9341C149.267 77.2105 148.493 77.3824 147.707 77.4447C145.831 77.6553 144.727 77.0171 144.727 76.5064C144.727 75.8298 146.303 75.4022 147.324 75.3575Z" fill="#011716"/>
<path d="M142.128 83.2344L143.615 84.6386C144.854 85.9599 143.322 86.1258 142.556 86.0875L142.083 85.9982" fill="#793219"/>
<path d="M127.358 78.1735C127.393 78.3124 127.421 78.4531 127.441 78.5948C127.697 79.5778 128.469 81.9139 129.829 81.831C131.533 81.748 132.209 76.297 133.148 73.6991C134.086 71.1013 137.788 71.9119 142.594 72.4672C146.041 72.8949 148.811 70.8906 150.088 69.7864C150.36 69.5644 150.616 69.3234 150.854 69.0651C150.754 67.9265 150.291 66.8502 149.533 65.9949C147.873 64.1247 142.684 62.0822 142.594 62.0822L140.169 61.6992L130.422 65.9566L127.358 78.1735Z" fill="#011716"/>
<path d="M139.493 88.7246C139.305 89.3272 139.358 89.9792 139.641 90.5435C139.924 91.1079 140.414 91.5406 141.009 91.7506C141.605 91.9606 142.258 91.9315 142.833 91.6696C143.407 91.4076 143.857 90.9331 144.089 90.3459" fill="white"/>
<path d="M148.894 65.3554L138.981 66.0831C137.078 66.2166 135.265 66.9401 133.792 68.1528C132.32 69.3655 131.262 71.007 130.766 72.849L128.296 82.0404L127.441 89.3616L124.211 85.9148L122.379 82.0404L122.041 73.3149L122.89 69.6575L125.909 64.3788L132.381 61.2767L143.022 60.8555L148.894 65.3554Z" fill="#32B82F"/>
<path d="M128.808 89.7879H129.829V81.873H128.808C128.007 81.8747 127.239 82.1931 126.673 82.7588C126.106 83.3244 125.786 84.0914 125.782 84.8922V86.7241C125.78 87.1239 125.856 87.5203 126.007 87.8907C126.157 88.261 126.38 88.5981 126.66 88.8826C126.941 89.1671 127.276 89.3935 127.644 89.5488C128.013 89.7041 128.408 89.7854 128.808 89.7879Z" fill="#A24320"/>
<path d="M125.361 90.6376C125.361 91.1793 125.576 91.6988 125.959 92.0819C126.342 92.4649 126.862 92.6801 127.403 92.6801C127.945 92.6801 128.465 92.4649 128.848 92.0819C129.231 91.6988 129.446 91.1793 129.446 90.6376C129.445 90.3716 129.392 90.1085 129.288 89.8636C129.185 89.6186 129.033 89.3967 128.843 89.2108C128.653 89.0248 128.428 88.8786 128.181 88.7805C127.934 88.6825 127.669 88.6346 127.403 88.6397C127.137 88.6311 126.871 88.6765 126.622 88.7733C126.373 88.8701 126.147 89.0162 125.956 89.2028C125.765 89.3895 125.614 89.6128 125.512 89.8594C125.41 90.1059 125.358 90.3706 125.361 90.6376Z" stroke="#FFB801" stroke-width="1.01488" stroke-miterlimit="10"/>
<path d="M147.79 59.0177C145.364 61.0602 143.916 63.3581 144.637 64.207C145.358 65.056 147.873 64.0794 150.343 62.0815C152.813 60.0837 154.218 57.7411 153.49 56.8858C152.762 56.0305 150.26 57.0135 147.79 59.0177Z" fill="#32B82F"/>
<path d="M142.256 60.9319C144.043 63.568 146.258 65.1893 147.151 64.551C148.045 63.9127 147.324 61.3149 145.53 58.6723C143.736 56.0298 141.534 54.4213 140.641 55.0596C139.747 55.6979 140.468 58.2894 142.256 60.9319Z" fill="#32B82F"/>
<g opacity="0.38">
<g opacity="0.38">
<path opacity="0.38" d="M133.358 82.084C133.358 82.7998 133.57 83.4995 133.968 84.0946C134.366 84.6898 134.931 85.1537 135.592 85.4276C136.253 85.7015 136.981 85.7732 137.683 85.6335C138.385 85.4939 139.03 85.1492 139.536 84.6431C140.042 84.1369 140.387 83.4921 140.527 82.79C140.666 82.088 140.595 81.3603 140.321 80.699C140.047 80.0377 139.583 79.4724 138.988 79.0748C138.393 78.6771 137.693 78.4648 136.977 78.4648C136.017 78.4648 135.097 78.8461 134.418 79.5249C133.739 80.2036 133.358 81.1241 133.358 82.084Z" fill="white"/>
</g>
</g>
<path d="M133.358 82.0859C133.358 82.8017 133.571 83.5014 133.968 84.0966C134.366 84.6917 134.931 85.1556 135.593 85.4295C136.254 85.7035 136.982 85.7751 137.684 85.6355C138.386 85.4958 139.03 85.1512 139.537 84.645C140.043 84.1389 140.387 83.494 140.527 82.792C140.667 82.0899 140.595 81.3622 140.321 80.7009C140.047 80.0396 139.583 79.4744 138.988 79.0767C138.393 78.6791 137.693 78.4668 136.978 78.4668C136.018 78.4668 135.097 78.8481 134.418 79.5268C133.74 80.2055 133.358 81.1261 133.358 82.0859Z" stroke="white" stroke-width="0.472336" stroke-miterlimit="10"/>
<g opacity="0.38">
<g opacity="0.38">
<path opacity="0.38" d="M143.277 81.7016C143.277 82.4174 143.489 83.1171 143.887 83.7123C144.284 84.3075 144.85 84.7713 145.511 85.0453C146.172 85.3192 146.9 85.3908 147.602 85.2512C148.304 85.1115 148.949 84.7669 149.455 84.2607C149.961 83.7546 150.306 83.1097 150.446 82.4077C150.585 81.7056 150.514 80.9779 150.24 80.3166C149.966 79.6553 149.502 79.0901 148.907 78.6924C148.311 78.2948 147.612 78.0825 146.896 78.0825C146.419 78.0747 145.944 78.163 145.502 78.3422C145.059 78.5213 144.657 78.7876 144.32 79.1252C143.982 79.4628 143.716 79.8649 143.537 80.3075C143.357 80.7501 143.269 81.2242 143.277 81.7016Z" fill="white"/>
</g>
</g>
<path d="M143.278 81.7031C143.278 82.4189 143.49 83.1186 143.888 83.7138C144.285 84.3089 144.851 84.7728 145.512 85.0467C146.173 85.3207 146.901 85.3923 147.603 85.2527C148.305 85.113 148.95 84.7683 149.456 84.2622C149.962 83.7561 150.307 83.1112 150.447 82.4092C150.586 81.7071 150.515 80.9794 150.241 80.3181C149.967 79.6568 149.503 79.0916 148.908 78.6939C148.312 78.2962 147.613 78.084 146.897 78.084C145.937 78.084 145.017 78.4653 144.338 79.144C143.659 79.8227 143.278 80.7433 143.278 81.7031Z" stroke="white" stroke-width="0.472336" stroke-miterlimit="10"/>
<path d="M140.642 81.7461H143.278" stroke="white" stroke-width="0.472336" stroke-miterlimit="10"/>
<path d="M133.358 81.8301H128.042" stroke="white" stroke-width="0.472336" stroke-miterlimit="10"/>
<path d="M140.737 155.955L171.299 248.227C172.178 250.845 174.032 253.024 176.476 254.311C178.919 255.599 181.765 255.895 184.422 255.14C187.078 254.384 189.342 252.634 190.742 250.253C192.142 247.872 192.572 245.043 191.941 242.354C188.96 230.099 184.237 210.644 180.535 195.28C176.608 179.068 168.355 164.226 156.656 152.336L140.737 155.955Z" fill="#022D2B"/>
<path d="M154.467 155.527L153.274 185.195L150.848 190.174L149.418 262.977L129.031 265.365C128.993 264.471 126.65 221.776 124.736 194.112C123.925 182.406 126.012 167.98 135.293 156.785L154.467 155.527Z" fill="#004C46"/>
<path d="M94.1733 149.999L110.82 115.672L124.167 122.929L107.673 156.21C107.306 156.957 106.795 157.625 106.169 158.175C105.543 158.724 104.815 159.145 104.027 159.413C103.238 159.68 102.404 159.789 101.573 159.733C100.742 159.678 99.93 159.459 99.1839 159.089C96.0882 157.659 92.8457 153.12 94.1733 149.999Z" fill="#A34321"/>
<path d="M180.094 92.8151L189.4 43.5645L200.162 44.6815C200.162 44.6815 195.477 75.894 192.139 95.2087C191.59 98.2853 187.556 100.615 184.537 99.8172C181.722 99.1086 179.398 95.6236 180.094 92.8151Z" fill="#A34321"/>
<path d="M187.856 99.4717L160.275 113.182L155.169 102.331L181.339 88.7867C182.523 88.1748 183.902 88.0554 185.173 88.4547C186.445 88.854 187.508 89.7395 188.13 90.9186C189.42 93.1909 190.147 98.0675 187.856 99.4717Z" fill="#A34321"/>
<path d="M181.186 108.204L169.889 90.6387L150.248 103.232C147.986 104.762 146.411 107.116 145.862 109.791C145.312 112.466 145.832 115.25 147.308 117.548C148.785 119.845 151.102 121.474 153.764 122.085C156.426 122.695 159.222 122.241 161.552 120.817L181.186 108.204Z" fill="#31B92E"/>
<path d="M137.335 103.875L114.459 108.305C113.751 108.724 113.227 109.394 112.99 110.181C112.754 110.969 112.822 111.817 113.182 112.556L127.863 156.962C128.175 157.876 128.799 158.651 129.625 159.152C130.451 159.653 131.427 159.847 132.382 159.701L159.829 155.411C160.859 155.257 161.791 154.714 162.432 153.893C163.073 153.073 163.375 152.037 163.275 151.001C162.312 140.679 159.797 112.429 160.486 103.62C160.571 102.791 160.344 101.96 159.85 101.288C159.355 100.617 158.629 100.154 157.812 99.9883L137.335 103.875Z" fill="#31B92E"/>
<path d="M118.084 144.103L98.584 136.596L106.914 114.83C107.906 112.242 109.885 110.154 112.417 109.025C113.671 108.466 115.022 108.16 116.394 108.123C117.766 108.086 119.132 108.32 120.414 108.811C121.695 109.303 122.868 110.041 123.864 110.986C124.86 111.93 125.66 113.061 126.219 114.315C126.778 115.568 127.085 116.92 127.121 118.292C127.158 119.664 126.924 121.03 126.433 122.311L118.084 144.103Z" fill="#31B92E"/>
<path d="M126.931 106.775H148.767L147.445 100.686H127.869L126.931 106.775Z" fill="#31B92E"/>
<path d="M189.394 40.4802C188.839 39.6099 188.527 38.6074 188.488 37.576C188.373 34.3143 188.086 32.1058 187.85 29.9165C187.813 29.6914 187.825 29.4611 187.884 29.241C187.943 29.0208 188.049 28.8159 188.194 28.6399L188.424 28.3016C188.505 28.1911 188.608 28.0981 188.725 28.0281C188.843 27.958 188.974 27.9124 189.11 27.894C189.245 27.8755 189.384 27.8846 189.516 27.9206C189.648 27.9566 189.772 28.0189 189.879 28.1037C191.176 29.3603 192.289 30.7935 193.186 32.3611L197.692 26.3867L206.628 37.9462L202.498 43.4036C201.887 44.2267 201.071 44.8758 200.132 45.2867C199.193 45.6976 198.162 45.856 197.143 45.7461C196.844 46.1827 196.459 46.5531 196.01 46.8345C195.562 47.1158 195.061 47.3021 194.538 47.3817C194.015 47.4613 193.481 47.4325 192.969 47.2972C192.458 47.1619 191.98 46.9229 191.564 46.5951L190.32 45.5929C189.551 45.0131 189.029 44.165 188.857 43.2175C188.686 42.27 188.877 41.2927 189.394 40.4802Z" fill="#A34321"/>
<path d="M94.4031 152.342L98.8712 102.428L109.69 102.472C109.69 102.472 108.069 133.991 106.633 153.536C106.39 156.651 102.599 159.363 99.5222 158.866C96.6371 158.451 93.9818 155.208 94.4031 152.342Z" fill="#A34321"/>
<path d="M201.947 41.1928C199.947 41.9058 198.181 43.153 196.841 44.7992L197.032 45.3353L208.407 41.2949L208.215 40.7524C206.125 40.32 203.956 40.4723 201.947 41.1928Z" fill="#FED100"/>
<path d="M209.897 40.7081L195.511 45.8223L198.708 54.8135L213.094 49.6994L209.897 40.7081Z" fill="#97512C"/>
<path d="M214.085 49.3483L197.714 55.168L198.197 56.5272L214.568 50.7075L214.085 49.3483Z" fill="#7C3E25"/>
<path d="M199.943 31.9238C199.306 32.4546 198.5 32.7399 197.671 32.728C197.537 32.3686 197.322 32.0453 197.042 31.7838C196.761 31.5223 196.424 31.3298 196.056 31.2216C193.274 30.5136 190.74 29.0565 188.728 27.0089C185.106 23.34 182.336 18.9183 180.616 14.058L201.411 6.66016C203.146 11.5156 203.786 16.6942 203.288 21.826C203.013 24.6796 201.962 27.4036 200.25 29.7025C200.033 30.0177 199.893 30.3793 199.84 30.7584C199.788 31.1374 199.826 31.5234 199.95 31.8855L199.943 31.9238Z" fill="#FED100"/>
<path d="M199.796 32.0391C199.903 32.3321 200.073 32.5982 200.293 32.8187C200.514 33.0392 200.78 33.2088 201.073 33.3156C201.177 33.3575 201.271 33.4214 201.348 33.503C201.425 33.5845 201.484 33.6817 201.52 33.788C201.591 33.9912 201.58 34.2145 201.488 34.4094C201.396 34.6043 201.231 34.7549 201.028 34.8284L198.743 35.639C198.642 35.6744 198.536 35.6895 198.429 35.6836C198.323 35.6777 198.219 35.6508 198.123 35.6046C198.027 35.5583 197.941 35.4936 197.87 35.4141C197.799 35.3346 197.744 35.2418 197.709 35.1412C197.672 35.0374 197.657 34.9272 197.665 34.8173C197.672 34.7075 197.703 34.6004 197.754 34.5029C197.912 34.2349 198.01 33.9353 198.04 33.6253C198.07 33.3153 198.031 33.0025 197.926 32.7093L199.796 32.0391Z" fill="#FED100"/>
<path d="M204.118 41.1214C203.554 41.5306 202.935 41.8573 202.28 42.0917C201.621 42.3229 200.934 42.4604 200.237 42.5002L199.79 41.2236C199.869 39.8776 199.675 38.5296 199.222 37.2598C199.033 36.7287 198.8 36.2142 198.526 35.7215L201.156 34.7832C201.258 35.3383 201.403 35.8847 201.59 36.4172C202.041 37.6882 202.742 38.8558 203.652 39.8512L204.105 41.1278L204.118 41.1214Z" fill="#FFDB31"/>
<path d="M190.707 32.8236C190.18 33.018 189.6 33.018 189.073 32.8236C188.869 32.7449 188.704 32.5883 188.616 32.3884C188.527 32.1885 188.522 31.9616 188.6 31.7576C188.679 31.5536 188.836 31.3893 189.036 31.3007C189.236 31.2121 189.462 31.2066 189.666 31.2853C189.744 31.3178 189.828 31.3345 189.912 31.3345C189.997 31.3345 190.08 31.3178 190.158 31.2853C190.335 31.2217 190.48 31.0909 190.561 30.9212C190.642 30.7516 190.653 30.5567 190.592 30.3789C190.573 30.3269 190.547 30.2775 190.515 30.2321C190.277 29.8987 189.959 29.6309 189.59 29.4534C189.512 29.4298 189.437 29.3977 189.366 29.3577L180.347 25.3939C177.347 24.1173 174.533 21.3662 174.986 18.2514C175.086 17.5937 175.356 16.9736 175.769 16.452C176.182 15.9304 176.724 15.5254 177.341 15.2769H177.398H177.456H177.513C178.19 15.0627 178.913 15.0466 179.599 15.2307C180.284 15.4148 180.902 15.7913 181.38 16.3156C181.858 16.84 182.176 17.4904 182.296 18.1897C182.416 18.8891 182.334 19.6082 182.058 20.262C181.963 20.4463 181.802 20.5879 181.607 20.6586C181.412 20.7292 181.197 20.7237 181.006 20.643C180.815 20.5624 180.661 20.4126 180.576 20.2237C180.491 20.0347 180.48 19.8204 180.545 19.6237C180.745 19.1464 180.761 18.6121 180.59 18.1237C180.409 17.6114 180.034 17.1906 179.545 16.9519C179.057 16.7132 178.495 16.6756 177.979 16.8471C177.622 16.9831 177.307 17.2112 177.066 17.5082C176.825 17.8053 176.666 18.1607 176.607 18.5386C176.281 20.7854 178.656 22.9109 181.005 23.9386L190.075 27.9023H190.145H190.209C190.883 28.1989 191.463 28.6733 191.888 29.2747C191.995 29.4349 192.081 29.6088 192.143 29.7917C192.251 30.0848 192.299 30.3966 192.285 30.7087C192.272 31.0208 192.195 31.3269 192.062 31.6093C191.928 31.8916 191.739 32.1444 191.507 32.3529C191.274 32.5614 191.002 32.7214 190.707 32.8236Z" fill="#FED100"/>
<path d="M202.394 26.173C202.33 25.9892 202.287 25.7986 202.266 25.605C202.217 24.8724 202.367 24.1403 202.7 23.4858L202.738 23.422L202.77 23.3518L207.302 14.5497C208.477 12.2774 208.975 9.12425 207.302 7.59235C207.018 7.33551 206.672 7.15831 206.297 7.07872C205.923 6.99913 205.534 7.01998 205.17 7.13917C204.671 7.33407 204.266 7.7148 204.041 8.2015C203.816 8.6882 203.789 9.24308 203.964 9.74978C204.136 10.2393 204.487 10.6453 204.947 10.8859C205.128 10.9938 205.261 11.1671 205.318 11.3701C205.376 11.5732 205.353 11.7905 205.255 11.9771C205.156 12.1638 204.99 12.3057 204.79 12.3734C204.591 12.4412 204.372 12.4297 204.181 12.3412C203.551 12.0108 203.029 11.5058 202.677 10.8867C202.326 10.2676 202.16 9.56055 202.2 8.84987C202.24 8.13919 202.483 7.45495 202.901 6.87884C203.319 6.30273 203.894 5.85909 204.558 5.60088H204.609H204.672H204.73C205.36 5.39652 206.032 5.35908 206.681 5.49221C207.33 5.62534 207.933 5.9245 208.432 6.36045C210.749 8.49235 210.277 12.3795 208.777 15.2965L204.258 24.0731C204.23 24.1475 204.194 24.2183 204.149 24.2837C203.972 24.6532 203.893 25.062 203.919 25.4709C203.926 25.5275 203.939 25.5831 203.958 25.6369C203.989 25.7245 204.037 25.805 204.1 25.874C204.162 25.9429 204.238 25.9988 204.322 26.0385C204.406 26.0782 204.497 26.1009 204.59 26.1054C204.683 26.1099 204.776 26.096 204.864 26.0645C205.024 26.0104 205.158 25.899 205.24 25.7518C205.35 25.564 205.529 25.427 205.739 25.3706C205.948 25.3142 206.172 25.3431 206.361 25.4509C206.549 25.5587 206.688 25.7367 206.746 25.9461C206.804 26.1555 206.777 26.3793 206.67 26.5688C206.383 27.0584 205.93 27.4296 205.394 27.6156C204.805 27.8217 204.158 27.7855 203.595 27.5151C203.033 27.2446 202.601 26.7619 202.394 26.173Z" fill="#FED100"/>
<path d="M185.352 13.4336L181.829 14.7102C183.062 18.1855 184.956 21.3892 187.407 24.1441C186.868 23.2417 186.419 22.2881 186.067 21.2974C185.166 18.7791 184.92 16.0731 185.352 13.4336Z" fill="#FFDF5A"/>
<path d="M198.705 54.8323L213.085 49.726L209.894 40.7324C209.894 40.7324 208.279 51.4047 198.705 54.8323Z" fill="#8D492B"/>
<path d="M208.68 43.4783L198.191 47.207L200.017 52.3432L210.506 48.6145L208.68 43.4783Z" fill="#FED100"/>
<path d="M175.917 19.0683C176.025 18.3682 176.314 17.7084 176.755 17.1543C177.196 16.6001 177.774 16.1707 178.432 15.9088H178.49H178.554H178.617C179.017 15.7784 179.436 15.7158 179.856 15.7237C179.122 15.4079 178.3 15.3671 177.539 15.6088H177.488H177.43H177.379C176.826 15.8297 176.341 16.1918 175.971 16.6588C175.601 17.1258 175.361 17.6814 175.273 18.2704C175.199 18.8976 175.251 19.5333 175.428 20.1397C175.605 20.7461 175.901 21.3108 176.3 21.8002C175.92 20.9432 175.788 19.9968 175.917 19.0683Z" fill="#FFDF5A"/>
<path d="M192.061 29.594C193.307 30.3147 194.648 30.8602 196.043 31.2153C196.411 31.3234 196.749 31.5159 197.029 31.7774C197.309 32.0389 197.525 32.3622 197.658 32.7216C198.488 32.7335 199.294 32.4482 199.931 31.9174C199.807 31.5554 199.769 31.1694 199.822 30.7903C199.874 30.4112 200.014 30.0496 200.231 29.7344C201.942 27.4287 202.989 24.6978 203.256 21.8387C203.767 16.7051 203.137 11.522 201.412 6.66016C203.275 26.511 192.112 29.5749 192.061 29.594Z" fill="#FCC200"/>
<path d="M195.459 25.3675C198.254 24.857 200.106 22.1773 199.596 19.3823C199.085 16.5872 196.406 14.7352 193.611 15.2456C190.816 15.7561 188.964 18.4358 189.474 21.2308C189.985 24.0259 192.664 25.878 195.459 25.3675Z" fill="#FFF3C0"/>
<path d="M195.373 24.1051L193.305 18.2838L192.239 18.6604L191.78 17.3838L194.288 16.4902L196.841 23.6072L195.373 24.1051Z" fill="#D69A13"/>
<path d="M195.98 33.0409C195.778 32.6903 195.722 32.2747 195.823 31.8833C195.925 31.4918 196.176 31.1558 196.522 30.9473L202.688 26.8941C202.898 26.7684 203.13 26.6851 203.372 26.6492C203.613 26.6132 203.86 26.6252 204.097 26.6845C204.334 26.7437 204.557 26.8491 204.753 26.9946C204.95 27.1401 205.115 27.3228 205.241 27.5324C205.367 27.7419 205.45 27.9742 205.486 28.2159C205.522 28.4577 205.51 28.7041 205.451 28.9412C205.392 29.1783 205.286 29.4013 205.141 29.5977C204.995 29.7941 204.812 29.9598 204.603 30.0856L198.105 33.6409C197.93 33.7548 197.732 33.83 197.525 33.8613C197.319 33.8927 197.108 33.8795 196.906 33.8227C196.705 33.7659 196.518 33.6668 196.358 33.5319C196.199 33.3971 196.069 33.2297 195.98 33.0409Z" fill="#A84527"/>
<path d="M197.907 35.2561C197.719 34.9169 197.668 34.5184 197.766 34.1431C197.863 33.7677 198.101 33.4441 198.43 33.2391L203.696 29.9327C203.902 29.7956 204.134 29.7018 204.377 29.657C204.621 29.6123 204.871 29.6175 205.112 29.6724C205.353 29.7273 205.581 29.8306 205.781 29.9762C205.981 30.1218 206.15 30.3066 206.276 30.5194C206.403 30.7321 206.485 30.9683 206.517 31.2137C206.55 31.4591 206.532 31.7085 206.465 31.9468C206.398 32.1851 206.283 32.4072 206.127 32.5997C205.972 32.7923 205.779 32.9511 205.56 33.0667L200.007 35.9135C199.638 36.0866 199.218 36.1151 198.829 35.9934C198.44 35.8717 198.111 35.6086 197.907 35.2561Z" fill="#A84527"/>
<path d="M199.266 37.5679C199.102 37.2351 199.071 36.8527 199.177 36.4975C199.284 36.1423 199.521 35.8406 199.841 35.653L204.021 33.1445C204.215 33.0108 204.434 32.9182 204.664 32.8725C204.895 32.8269 205.133 32.8291 205.363 32.879C205.592 32.929 205.809 33.0256 206 33.1629C206.191 33.3002 206.352 33.4753 206.472 33.6772C206.593 33.8792 206.671 34.1037 206.701 34.337C206.731 34.5702 206.713 34.8071 206.648 35.0331C206.582 35.259 206.471 35.4691 206.322 35.6504C206.172 35.8317 205.986 35.9803 205.777 36.087L201.309 38.1423C201.137 38.2405 200.948 38.3035 200.752 38.3277C200.556 38.352 200.357 38.3369 200.167 38.2834C199.977 38.2299 199.799 38.1391 199.645 38.0163C199.49 37.8934 199.361 37.741 199.266 37.5679Z" fill="#A84527"/>
<path d="M200.083 39.513C199.913 39.1861 199.872 38.8065 199.971 38.4511C200.069 38.0956 200.299 37.7907 200.613 37.5981L204.143 35.8683C204.334 35.7392 204.549 35.6505 204.776 35.6076C205.002 35.5648 205.235 35.5686 205.46 35.619C205.685 35.6694 205.897 35.7653 206.084 35.9007C206.27 36.0361 206.427 36.2082 206.545 36.4064C206.663 36.6046 206.738 36.8248 206.768 37.0535C206.797 37.2821 206.78 37.5143 206.716 37.7359C206.653 37.9575 206.545 38.1638 206.398 38.342C206.252 38.5203 206.071 38.6668 205.866 38.7726L202.037 40.0492C201.874 40.1451 201.694 40.2074 201.506 40.2324C201.319 40.2573 201.129 40.2444 200.946 40.1944C200.764 40.1444 200.594 40.0583 200.446 39.9413C200.298 39.8242 200.174 39.6786 200.083 39.513Z" fill="#A84527"/>
</g>
</g>
<defs>
<clipPath id="clip0_1343_61309">
<rect width="303.33" height="212.257" fill="white"/>
</clipPath>
</defs>
</svg>
