<svg width="415" height="292" viewBox="0 0 415 292" fill="none" xmlns="http://www.w3.org/2000/svg">
<g clip-path="url(#clip0_2251_72201)">
<path opacity="0.7" d="M0 218.508H414.06H0Z" stroke="#31BC2E" stroke-width="2.47787" stroke-miterlimit="10"/>
<g opacity="0.7">
<path d="M369.045 218.249H365.742V202.184C365.742 199.293 365.816 196.402 365.7 193.52C365.7 192.611 365.32 191.116 364.792 190.959C363.544 190.579 361.645 190.282 360.827 190.959C356.855 194.199 352.047 196.246 346.959 196.865V218.183L343.829 218.464V196.989C341.904 196.543 340.286 196.254 338.725 195.791C329.895 193.206 323.139 185.376 322.296 176.414C321.363 166.453 325.195 158.648 333.818 153.494C337.754 151.166 342.304 150.09 346.865 150.408C351.427 150.727 355.783 152.425 359.357 155.278C360.015 155.882 360.809 156.319 361.671 156.552C362.534 156.785 363.44 156.807 364.313 156.616C366.547 156.182 368.845 156.196 371.074 156.656C373.303 157.116 375.419 158.013 377.299 159.295C379.179 160.578 380.787 162.221 382.028 164.128C383.27 166.036 384.121 168.171 384.532 170.409C386.333 179.379 380.6 188.217 371.317 190.488C369.491 190.934 369.029 191.678 369.045 193.396C369.12 200.507 369.045 207.627 369.045 214.747V218.249ZM346.901 193.371C358.465 192.157 366.146 182.691 365.072 171.599C364.048 160.969 354.426 152.792 343.986 153.692C332.736 154.658 324.46 164.124 325.303 175.051C326.063 184.888 334.859 193.652 343.722 193.041C343.722 187.424 343.788 181.775 343.722 176.133C343.68 173.722 344.68 173.325 346.926 174.101L346.901 193.371ZM364.247 187.127C367.02 187.896 369.966 187.759 372.655 186.735C375.345 185.711 377.637 183.854 379.196 181.436C380.815 179.024 381.647 176.17 381.576 173.266C381.505 170.362 380.535 167.552 378.8 165.222C377.213 162.971 374.961 161.272 372.361 160.362C369.76 159.453 366.941 159.379 364.296 160.151C369.871 169.121 369.896 178.165 364.247 187.127Z" fill="#31BC2E"/>
<path d="M399.961 218.266H396.657V213.855C396.657 204.266 396.616 194.668 396.698 185.071C396.698 183.154 396.244 182.254 394.22 181.618C391.791 180.84 389.677 179.302 388.19 177.23C386.702 175.158 385.921 172.663 385.961 170.113C385.895 165.058 385.895 160.003 385.961 154.948C385.863 153.264 386.111 151.577 386.689 149.992C387.266 148.407 388.161 146.956 389.32 145.729C390.478 144.502 391.874 143.525 393.423 142.856C394.973 142.188 396.642 141.844 398.329 141.844C400.017 141.844 401.686 142.188 403.235 142.856C404.785 143.525 406.181 144.502 407.339 145.729C408.497 146.956 409.393 148.407 409.97 149.992C410.548 151.577 410.795 153.264 410.698 154.948C410.759 159.904 410.759 164.86 410.698 169.815C410.648 175.366 407.576 179.941 402.381 181.61C400.374 182.254 399.903 183.163 399.903 185.079C399.985 194.99 399.903 204.902 399.903 214.813L399.961 218.266ZM399.961 178.992C404.223 177.885 406.948 175.523 407.229 171.781C407.716 165.629 407.716 159.448 407.229 153.296C406.824 148.423 402.372 145.499 397.466 145.863C395.231 146.03 393.138 147.022 391.593 148.646C390.049 150.27 389.163 152.41 389.108 154.651C388.953 159.904 388.953 165.16 389.108 170.418C389.132 172.476 389.911 174.454 391.296 175.976C392.682 177.498 394.577 178.46 396.624 178.678C396.624 174.226 396.582 169.807 396.624 165.396C396.624 164.24 395.872 162.456 398.144 162.406C400.621 162.357 399.837 164.29 399.862 165.537C400.01 169.89 399.961 174.275 399.961 178.992Z" fill="#31BC2E"/>
</g>
<g opacity="0.7">
<path d="M64.7792 153.677C67.893 149.927 72.8157 148.49 73.2369 143.072H76.1608V152.438C76.1608 161.523 76.1113 170.609 76.1608 179.694C76.1608 182.998 75.2688 186.087 72.4853 187.789C65.3491 192.158 63.3255 198.386 64.3992 206.331C64.8948 209.966 64.4818 213.716 64.4818 217.598H61.6653C61.5427 217.304 61.4567 216.996 61.4093 216.681C61.4093 210.28 61.5001 203.878 61.2854 197.485C61.1862 195.924 60.5159 194.454 59.4022 193.356C48.1196 183.246 49.8294 186.137 49.7303 171.195C49.6724 162.11 49.7303 153.024 49.7303 143.939C49.7765 143.656 49.854 143.379 49.9615 143.113L52.522 142.972C52.8854 148.482 57.9403 149.869 60.8807 153.602C61.7644 150.662 61.5497 148.597 59.2287 147.061C56.7509 145.409 55.9745 143.039 56.1066 140.115C56.2636 136.406 56.0323 132.681 56.1975 128.972C56.2553 127.692 55.1155 125.462 57.709 125.371C60.3025 125.28 59.3113 127.535 59.3609 128.816C59.4931 132.838 59.3609 136.86 59.4518 140.883C59.5977 141.956 59.8751 143.007 60.2777 144.013L61.2936 143.84V133.424L64.3579 133.251V143.716L65.4565 143.955C65.9125 142.916 66.2345 141.822 66.4146 140.701C66.5219 136.373 66.4146 132.037 66.5302 127.701C66.5302 126.875 67.4635 126.049 67.9674 125.223C68.5538 126.049 69.6193 126.875 69.6193 127.775C69.7927 131.995 69.6193 136.233 69.7349 140.462C69.8092 143.171 69.0081 145.417 66.7202 146.83C64.3084 148.432 64.2423 150.563 64.7792 153.677ZM64.6718 162.341C71.2794 158.666 73.8069 155.007 72.1054 150.893C69.7349 154.941 63.3916 155.94 64.6718 162.341ZM60.9054 181.71C61.7314 176.985 58.345 172.385 53.0176 169.998C51.8777 176.506 58.2128 177.431 60.9054 181.71ZM72.4688 160.64C69.7184 164.133 63.4576 165.191 64.8452 172.451C67.8022 168.214 73.8234 167.099 72.4523 160.648L72.4688 160.64ZM60.9054 162.391C62.1939 155.907 56.2801 154.709 53.1497 150.472C51.9521 157.757 58.1385 158.856 60.9137 162.399L60.9054 162.391ZM60.8146 171.798C61.5827 167.668 57.5108 162.358 52.9432 160.846C52.0347 167.09 58.1302 168.148 60.8146 171.798ZM65.0022 181.71C67.703 177.53 73.906 176.465 72.7662 169.923C66.2989 173.69 64.1267 176.754 65.0022 181.652V181.71ZM72.8653 179.372C67.4387 181.768 63.9367 186.566 65.2334 190.291C67.9674 186.591 73.4517 185.253 72.8653 179.314V179.372ZM53.4966 179.199C52.745 183.329 56.0488 187.599 61.3102 189.936C62.1526 183.676 56.0653 182.726 53.4966 179.141V179.199Z" fill="#31BC2E"/>
<path d="M96.0915 217.59C95.6854 217.673 95.2743 217.728 94.8608 217.755C94.3735 217.755 93.8779 217.664 93.1098 217.582C93.1098 214.278 93.2667 211.081 93.0355 207.926C92.93 206.556 92.3452 205.266 91.3835 204.284C79.9028 194.017 81.7694 197.321 81.6373 181.876C81.5629 173.005 81.6373 164.126 81.6373 155.255C81.6806 154.856 81.7579 154.46 81.8685 154.074L84.4373 153.868C84.8089 159.286 89.7069 160.673 92.4408 164.151C93.5723 160.426 93.5723 160.021 90.921 157.857C89.902 157.08 89.0964 156.057 88.5794 154.884C88.0623 153.711 87.8507 152.427 87.9641 151.15C88.1458 146.194 88.0136 141.296 88.0136 136.233H90.8549C90.9995 136.585 91.0967 136.955 91.144 137.332C91.144 141.974 91.144 146.616 91.2101 151.258C91.3455 152.449 91.5973 153.625 91.9617 154.768L93.0272 154.636V144.303H96.4136V154.454L97.4874 154.669C97.9233 153.521 98.2254 152.326 98.3876 151.109C98.495 146.26 98.4372 141.42 98.4372 136.333L101.188 136.035C101.364 136.344 101.492 136.678 101.568 137.026C101.568 142.18 101.848 147.359 101.485 152.496C101.171 154.478 100.161 156.282 98.6354 157.584C96.5705 159.41 95.9593 161.252 96.8514 164.349C99.7587 160.773 104.516 159.393 105.111 153.991L107.911 153.851V160.516C107.911 170.634 107.861 180.744 107.911 190.854C107.911 193.976 107.085 196.801 104.524 198.436C97.9169 202.698 94.8691 208.405 96.3062 216.293C96.3043 216.734 96.2318 217.172 96.0915 217.59ZM96.967 173.154C99.5935 169.602 105.962 168.536 104.12 162.036C101.865 165.852 95.1664 166.579 96.967 173.154ZM104.607 180.934C99.4366 183.024 95.8685 187.996 96.8596 191.721C103.426 187.385 104.954 185.262 104.607 180.934ZM104.607 171.469C98.4289 174.905 95.9759 178.374 96.9587 183.263C99.5109 178.902 105.83 177.977 104.599 171.469H104.607ZM92.3086 182.867C94.0927 178.737 92.2095 175.888 84.9741 171.452C83.6774 177.845 89.9629 178.919 92.3004 182.867H92.3086ZM85.3458 180.81C83.8426 187.277 89.9133 188.384 92.829 192.539C94.2166 185.46 88.0549 184.337 85.3375 180.81H85.3458ZM84.9493 162.094C83.9086 168.702 89.8307 169.784 92.7464 173.732C93.4237 168.859 91.6313 166.323 84.9411 162.094H84.9493ZM104.64 189.764C95.852 197.197 95.4059 196.908 97.1405 200.947C99.8661 197.404 105.35 196.033 104.632 189.764H104.64ZM85.2632 190.11C84.3712 196.181 89.7399 197.544 92.8703 201.492C94.0018 194.472 87.8898 193.571 85.255 190.11H85.2632Z" fill="#31BC2E"/>
<path d="M29.4038 154.56V144.335L32.7902 144.12V154.618L33.864 154.792C34.267 153.689 34.544 152.545 34.6899 151.381C34.7808 146.425 34.7312 141.469 34.7312 136.315L37.7955 136.051C37.7955 142.122 37.9524 147.978 37.6799 153.817C37.6221 155.097 36.2262 156.46 35.202 157.509C32.7241 159.987 32.6415 159.913 33.038 164.356C36.1271 160.929 40.6698 159.401 41.3636 154.197C43.3542 153.28 44.3206 153.817 44.3123 156.369C44.2545 168.032 44.4444 179.703 44.1471 191.357C44.0893 193.661 42.9164 196.866 41.1737 198.055C34.3513 202.697 31.2622 208.611 32.7407 216.788C32.7407 216.961 32.625 217.168 32.4846 217.614L29.5359 217.763C29.5359 214.459 29.7342 211.411 29.4534 208.371C29.3287 206.81 28.6795 205.337 27.6115 204.192C16.2381 193.967 18.1708 197.155 18.0056 182.313C17.923 173.64 18.0056 164.967 17.9561 156.303C17.9561 154.271 18.5012 153.346 20.7891 154.057C21.0534 159.301 26.1 160.664 28.9908 164.315C30.015 161.35 29.6185 159.318 27.2811 157.757C24.9436 156.196 24.159 153.916 24.2498 151.083C24.4068 146.251 24.2911 141.403 24.2911 136.323L27.1655 136.059C28.1814 142.303 26.5543 148.647 28.1483 154.635L29.4038 154.56ZM29.0817 192.596C29.7672 187.723 26.5295 183.345 21.2268 180.785C19.9796 187.177 26.2239 188.243 29.0817 192.596ZM21.582 171.352C20.946 175.647 24.3407 180.182 29.3873 182.304C30.4858 175.928 24.2333 174.945 21.582 171.352ZM21.4168 161.854C20.7891 166.355 23.1678 169.692 29.1395 173.054C29.825 168.313 30.9153 170.254 21.4168 161.887V161.854ZM40.8763 180.71C33.4427 185.575 31.989 187.739 33.5088 192.274C35.871 188.193 42.2144 187.26 40.8763 180.71ZM32.9802 182.478C39.7943 178.348 41.7105 175.54 40.3147 170.848C37.9937 175.102 31.6339 176.044 32.9802 182.478ZM40.5129 162.192C37.8698 165.711 31.7 166.793 33.1206 173.987C35.9867 169.667 42.1235 168.659 40.5129 162.192ZM29.0734 201.301C29.7672 197.039 26.2734 192.43 21.136 190.11C20.6487 196.023 25.9761 197.502 29.0734 201.301ZM40.5459 190.101C37.9937 193.579 31.923 194.578 33.038 201.376C36.2014 197.535 41.6279 196.156 40.5459 190.101Z" fill="#31BC2E"/>
</g>
<path d="M82.3564 204.573L109.266 93.1264C113.438 83.9001 119.608 75.7163 127.33 69.1669C135.052 62.6174 144.134 57.866 153.917 55.2564L211.387 39.9349C216.818 38.4867 222.582 38.9632 227.702 41.2834C232.821 43.6036 236.979 47.6244 239.47 52.6629L246.655 67.2244C248.669 71.2908 249.504 75.8395 249.066 80.3558C248.628 84.8721 246.935 89.1757 244.178 92.7795L160.095 207.909L82.3564 204.573Z" fill="#98492F"/>
<path d="M252.693 0H151.414C144.695 0 139.248 5.44705 139.248 12.1663V189.524C139.248 196.243 144.695 201.69 151.414 201.69H252.693C259.412 201.69 264.859 196.243 264.859 189.524V12.1663C264.859 5.44705 259.412 0 252.693 0Z" fill="#040B0A"/>
<path d="M250.471 3.85742H153.636C147.702 3.85742 142.891 8.66843 142.891 14.6031V186.782C142.891 192.716 147.702 197.527 153.636 197.527H250.471C256.406 197.527 261.217 192.716 261.217 186.782V14.6031C261.217 8.66843 256.406 3.85742 250.471 3.85742Z" fill="white"/>
<path d="M244.747 27.6367H159.715C157.265 27.6367 155.279 29.6225 155.279 32.0721C155.279 34.5217 157.265 36.5075 159.715 36.5075H244.747C247.196 36.5075 249.182 34.5217 249.182 32.0721C249.182 29.6225 247.196 27.6367 244.747 27.6367Z" fill="#C5FCF1"/>
<path d="M198.602 44.3789H161.31C159.554 44.3789 158.13 45.8026 158.13 47.5588V63.0207C158.13 64.7769 159.554 66.2006 161.31 66.2006H198.602C200.358 66.2006 201.782 64.7769 201.782 63.0207V47.5588C201.782 45.8026 200.358 44.3789 198.602 44.3789Z" fill="#DCFDF7"/>
<path d="M245.648 44.3789H208.356C206.599 44.3789 205.176 45.8026 205.176 47.5588V63.0207C205.176 64.7769 206.599 66.2006 208.356 66.2006H245.648C247.404 66.2006 248.828 64.7769 248.828 63.0207V47.5588C248.828 45.8026 247.404 44.3789 245.648 44.3789Z" fill="#DCFDF7"/>
<path d="M247.464 75.4004H163.332C160.81 75.4004 158.765 77.4453 158.765 79.9679V91.8617C158.765 94.3843 160.81 96.4292 163.332 96.4292H247.464C249.987 96.4292 252.032 94.3843 252.032 91.8617V79.9679C252.032 77.4453 249.987 75.4004 247.464 75.4004Z" fill="#DCFDF7"/>
<path d="M247.647 104.689H163.515C160.992 104.689 158.947 106.734 158.947 109.257V121.151C158.947 123.673 160.992 125.718 163.515 125.718H247.647C250.169 125.718 252.214 123.673 252.214 121.151V109.257C252.214 106.734 250.169 104.689 247.647 104.689Z" fill="#DCFDF7"/>
<path d="M247.647 133.68H163.515C160.992 133.68 158.947 135.725 158.947 138.247V150.141C158.947 152.664 160.992 154.709 163.515 154.709H247.647C250.169 154.709 252.214 152.664 252.214 150.141V138.247C252.214 135.725 250.169 133.68 247.647 133.68Z" fill="#DCFDF7"/>
<path d="M246.234 162.672H162.103C159.58 162.672 157.535 164.717 157.535 167.239V179.133C157.535 181.656 159.58 183.701 162.103 183.701H246.234C248.757 183.701 250.802 181.656 250.802 179.133V167.239C250.802 164.717 248.757 162.672 246.234 162.672Z" fill="#3CB44A"/>
<path d="M226.676 114.709C229.038 113.454 231.79 113.147 234.371 113.85C236.952 114.553 239.168 116.213 240.568 118.492L284.344 189.781L263.695 203.434L222.331 129.007C221.67 127.785 221.257 126.443 221.118 125.06C220.978 123.678 221.114 122.281 221.518 120.951C221.922 119.621 222.586 118.385 223.472 117.313C224.357 116.242 225.446 115.357 226.676 114.709Z" fill="#98492F"/>
<path d="M266.858 126.949C268.197 126.225 269.666 125.772 271.18 125.617C272.695 125.462 274.225 125.607 275.683 126.044C277.141 126.482 278.498 127.203 279.677 128.166C280.855 129.129 281.832 130.316 282.552 131.657L308.272 178.406C309.151 180.043 309.698 181.838 309.884 183.687C310.069 185.535 309.888 187.403 309.351 189.181C308.814 190.96 307.931 192.616 306.754 194.054C305.577 195.491 304.128 196.683 302.49 197.56C300.803 198.466 298.95 199.021 297.043 199.189C295.135 199.358 293.214 199.138 291.394 198.541C289.575 197.945 287.895 196.986 286.457 195.721C285.02 194.456 283.854 192.913 283.031 191.184L261.853 142.139C260.57 139.45 260.374 136.369 261.307 133.539C262.239 130.709 264.228 128.349 266.858 126.949Z" fill="#98492F"/>
<path d="M293.297 119.269C294.563 118.513 295.966 118.014 297.425 117.8C298.884 117.586 300.371 117.662 301.801 118.024C303.23 118.385 304.575 119.024 305.758 119.906C306.94 120.787 307.937 121.892 308.692 123.159L334.784 165.382C335.709 166.928 336.32 168.641 336.582 170.424C336.844 172.207 336.751 174.023 336.31 175.77C335.869 177.517 335.088 179.16 334.011 180.604C332.934 182.049 331.583 183.267 330.035 184.189C328.441 185.141 326.669 185.76 324.828 186.007C322.987 186.253 321.115 186.123 319.326 185.624C317.537 185.125 315.868 184.268 314.42 183.104C312.973 181.94 311.777 180.494 310.906 178.853L289.134 134.194C287.775 131.648 287.449 128.677 288.224 125.897C288.999 123.117 290.816 120.743 293.297 119.269Z" fill="#98492F"/>
<path d="M320.298 114.519C321.402 113.814 322.635 113.333 323.925 113.104C325.216 112.875 326.539 112.903 327.818 113.187C329.098 113.47 330.309 114.002 331.383 114.754C332.456 115.505 333.371 116.461 334.075 117.567L363.644 161.888C365.38 164.616 365.963 167.921 365.265 171.079C364.566 174.236 362.644 176.988 359.919 178.729C358.528 179.616 356.971 180.212 355.344 180.48C353.716 180.748 352.05 180.683 350.448 180.289C348.846 179.896 347.341 179.181 346.023 178.189C344.705 177.197 343.602 175.947 342.78 174.517L317.002 127.85C315.74 125.629 315.379 123.008 315.992 120.527C316.605 118.047 318.146 115.897 320.298 114.519Z" fill="#98492F"/>
<path d="M235.067 223.371C250.95 216.152 275.051 224.973 275.051 224.973L247.547 173.269L346.075 147.201C353.707 144.641 361.529 151.728 365.271 159.987L384.268 194.429C388.022 201.521 389.9 209.456 389.72 217.479C389.541 225.502 387.311 233.345 383.243 240.262C385.322 243.872 386.645 247.867 387.132 252.004C387.62 256.141 387.261 260.334 386.079 264.328C384.896 268.323 382.914 272.035 380.253 275.24C377.592 278.445 374.307 281.075 370.598 282.972L359.481 288.646C352.766 292.062 345.03 292.887 337.746 290.963C330.463 289.039 324.143 284.501 319.992 278.214C311.748 279.237 303.38 278.099 295.709 274.911C272.309 265.106 257.095 248.984 240.683 243.648C237.389 242.542 234.651 240.204 233.043 237.123L231.647 234.497C229.616 230.524 230.921 225.254 235.067 223.371Z" fill="#98492F"/>
<path d="M109.266 93.127L64.3009 275.209C63.8085 277.204 63.7764 279.285 64.2072 281.294C64.6379 283.303 65.5201 285.188 66.7871 286.806C68.054 288.424 69.6725 289.733 71.5199 290.633C73.3673 291.532 75.3952 292 77.4501 292H130.559C133.905 292.002 137.133 290.764 139.62 288.524C142.106 286.285 143.675 283.204 144.022 279.875C146.137 259.631 151.291 219.969 160.095 207.91L116.914 186.113L109.266 93.127Z" fill="#98492F"/>
<path d="M192.489 173.893L192.968 173.537C193.373 174.157 193.885 174.471 194.488 174.471C195.14 174.471 195.586 174.116 195.586 173.562C195.586 173.067 195.289 172.901 194.678 172.604L194.067 172.315C193.315 171.96 192.836 171.58 192.836 170.853C192.836 170.002 193.588 169.432 194.48 169.432C195.206 169.432 195.834 169.804 196.189 170.358L195.719 170.713C195.421 170.275 194.967 170.027 194.471 170.027C193.934 170.027 193.505 170.316 193.505 170.82C193.505 170.977 193.538 171.109 193.612 171.217C193.753 171.423 193.951 171.53 194.38 171.737L194.983 172.026C195.842 172.447 196.255 172.844 196.255 173.546C196.255 174.446 195.512 175.065 194.496 175.065C193.645 175.065 192.919 174.619 192.489 173.893ZM197.409 173.372V170.952H198.036V173.414C198.036 174.066 198.482 174.479 199.077 174.479C199.663 174.479 200.101 174.05 200.101 173.414V170.952H200.737V173.372C200.737 174.388 200.01 175.065 199.077 175.065C198.135 175.065 197.409 174.388 197.409 173.372ZM206.185 172.968C206.185 174.149 205.334 175.065 204.203 175.065C203.575 175.065 202.98 174.793 202.675 174.339V174.975H202.08V168.78H202.716V171.539C203.038 171.117 203.591 170.861 204.194 170.861C205.326 170.861 206.185 171.786 206.185 172.968ZM205.532 172.959C205.532 172.092 204.921 171.448 204.104 171.448C203.36 171.448 202.708 171.943 202.708 172.968C202.708 173.983 203.385 174.479 204.104 174.479C204.921 174.479 205.532 173.827 205.532 172.959ZM213.171 172.447V174.975H212.535V172.53C212.535 171.877 212.18 171.448 211.585 171.448C210.982 171.448 210.553 171.902 210.553 172.472V174.975H209.917V172.53C209.917 171.877 209.545 171.448 208.959 171.448C208.356 171.448 207.935 171.894 207.935 172.53V174.975H207.299V170.952H207.893V171.373C208.182 171.043 208.595 170.861 209.091 170.861C209.677 170.861 210.099 171.117 210.33 171.555C210.627 171.134 211.115 170.861 211.709 170.861C212.634 170.861 213.171 171.489 213.171 172.447ZM214.518 174.975V170.952H215.154V174.975H214.518ZM214.361 169.416C214.361 169.16 214.575 168.953 214.84 168.953C215.096 168.953 215.311 169.16 215.311 169.416C215.311 169.68 215.104 169.878 214.84 169.878C214.575 169.878 214.361 169.68 214.361 169.416ZM218.747 174.438V174.975C218.491 175.032 218.268 175.065 218.078 175.065C217.244 175.065 216.724 174.644 216.724 173.76V171.522H216.046V170.952H216.724V169.854H217.36V170.952H218.615V171.522H217.36V173.719C217.36 174.289 217.657 174.487 218.21 174.487C218.367 174.487 218.541 174.471 218.747 174.438Z" fill="white"/>
</g>
<defs>
<clipPath id="clip0_2251_72201">
<rect width="414.06" height="292" fill="white"/>
</clipPath>
</defs>
</svg>
