<svg width="324" height="602" viewBox="0 0 324 602" fill="none" xmlns="http://www.w3.org/2000/svg">
<path d="M77.4939 16.6425C77.4939 19.2031 75.4724 21 72.6198 21H66.0161V6.17549H71.2721C74.0124 6.17549 75.9665 7.88256 75.9665 10.3084C75.9665 11.3865 75.6072 12.285 74.8659 12.9813C76.5056 13.5877 77.4939 14.8456 77.4939 16.6425ZM71.025 8.78101H68.9361V12.1727H71.025C72.2604 12.1727 72.9567 11.5213 72.9567 10.4656C72.9567 9.40993 72.2604 8.78101 71.025 8.78101ZM74.5065 16.5302C74.5065 15.3847 73.7204 14.6659 72.3952 14.6659H68.9361V18.3945H72.3952C73.7204 18.3945 74.5065 17.6982 74.5065 16.5302ZM79.9668 21V6.17549H89.9396V8.91578H82.9991V11.9256H88.0978V14.5087H82.9991V18.2597H90.2092V21H79.9668ZM92.8426 21V6.17549H102.591V8.91578H95.8749V12.6219H101.378V15.3622H95.8749V21H92.8426ZM103.9 13.5877C103.832 9.34255 107.494 5.81611 111.761 5.90596C116.029 5.81611 119.735 9.34255 119.668 13.5877C119.735 17.8329 116.029 21.3594 111.761 21.2695C107.494 21.3594 103.832 17.8329 103.9 13.5877ZM116.545 13.5877C116.545 10.7801 114.501 8.71363 111.784 8.71363C109.043 8.71363 107.022 10.7352 107.022 13.5877C107.022 16.4403 109.043 18.4619 111.784 18.4619C114.501 18.4619 116.545 16.4403 116.545 13.5877ZM134.746 21H131.332L127.491 15.7665H125.268V21H122.235V6.17549H127.806C130.905 6.17549 133.152 8.10717 133.152 10.9598C133.152 12.8465 132.163 14.3739 130.546 15.1825L134.746 21ZM125.268 8.8484V13.0936H127.806C129.221 13.0936 130.052 12.2401 130.052 10.9598C130.052 9.70193 129.176 8.8484 127.806 8.8484H125.268ZM136.603 21V6.17549H146.576V8.91578H139.635V11.9256H144.734V14.5087H139.635V18.2597H146.845V21H136.603ZM154.92 13.5877C154.853 9.34255 158.514 5.81611 162.827 5.90596C165.634 5.90596 168.038 7.2761 169.363 9.58962L167.072 11.2068C166.016 9.5447 164.601 8.71363 162.827 8.71363C160.064 8.71363 158.043 10.7801 158.043 13.6102C158.043 16.4403 160.064 18.4619 162.827 18.4619C164.601 18.4619 166.016 17.6308 167.072 15.9687L169.363 17.5859C168.083 19.8994 165.657 21.2695 162.804 21.2695C158.469 21.3594 154.831 17.8329 154.92 13.5877ZM171.94 21V6.17549H181.688V8.91578H174.972V12.6219H180.475V15.3622H174.972V21H171.94ZM201.053 16.6425C201.053 19.2031 199.032 21 196.179 21H189.576V6.17549H194.832C197.572 6.17549 199.526 7.88256 199.526 10.3084C199.526 11.3865 199.167 12.285 198.425 12.9813C200.065 13.5877 201.053 14.8456 201.053 16.6425ZM194.585 8.78101H192.496V12.1727H194.585C195.82 12.1727 196.516 11.5213 196.516 10.4656C196.516 9.40993 195.82 8.78101 194.585 8.78101ZM198.066 16.5302C198.066 15.3847 197.28 14.6659 195.955 14.6659H192.496V18.3945H195.955C197.28 18.3945 198.066 17.6982 198.066 16.5302ZM203.391 14.868V6.17549H206.424V15.0927C206.424 17.249 207.771 18.4619 209.681 18.4619C211.635 18.4619 212.938 17.249 212.938 15.0927V6.17549H215.97V14.868C215.97 18.7988 213.275 21.2695 209.681 21.2695C206.042 21.2695 203.391 18.7988 203.391 14.868ZM231.181 6.17549L226.082 15.16V21H223.05V15.1825L217.928 6.17549H221.298L224.577 12.0604L227.834 6.17549H231.181ZM233.27 21V6.17549H243.243V8.91578H236.302V11.9256H241.401V14.5087H236.302V18.2597H243.512V21H233.27ZM258.657 21H255.243L251.402 15.7665H249.178V21H246.146V6.17549H251.716C254.816 6.17549 257.062 8.10717 257.062 10.9598C257.062 12.8465 256.074 14.3739 254.457 15.1825L258.657 21ZM249.178 8.8484V13.0936H251.716C253.131 13.0936 253.962 12.2401 253.962 10.9598C253.962 9.70193 253.086 8.8484 251.716 8.8484H249.178Z" fill="white"/>
<g clip-path="url(#clip0_1468_78421)">
<path d="M49.012 277.582L49.012 375.283H323.132V277.582H49.012Z" fill="#F2F2F2"/>
<path d="M109.568 307.236H110.279V320.482H108.186V312.309L104.456 317.205H103.745L99.9941 312.29V320.482H97.9016V307.236H98.632L104.1 314.52L109.568 307.236ZM113.321 320.482V310.789H115.393V320.482H113.321ZM112.946 307.177C112.946 306.407 113.577 305.795 114.367 305.795C115.137 305.795 115.769 306.407 115.769 307.177C115.769 307.947 115.137 308.539 114.367 308.539C113.577 308.539 112.946 307.947 112.946 307.177ZM125.754 305.677H127.847V320.482H125.912V319.1C125.201 320.107 123.958 320.699 122.517 320.699C119.792 320.699 117.779 318.508 117.779 315.646C117.72 312.823 119.832 310.513 122.517 310.572C123.859 310.572 125.024 311.085 125.754 311.974V305.677ZM125.793 315.646C125.793 313.553 124.372 312.467 122.872 312.467C121.214 312.467 119.891 313.77 119.891 315.626C119.891 317.481 121.154 318.804 122.872 318.804C124.392 318.804 125.793 317.758 125.793 315.646ZM138.208 305.677H140.3V320.482H138.365V319.1C137.655 320.107 136.411 320.699 134.97 320.699C132.246 320.699 130.232 318.508 130.232 315.646C130.173 312.823 132.285 310.513 134.97 310.572C136.312 310.572 137.477 311.085 138.208 311.974V305.677ZM138.247 315.646C138.247 313.553 136.826 312.467 135.325 312.467C133.667 312.467 132.345 313.77 132.345 315.626C132.345 317.481 133.608 318.804 135.325 318.804C136.845 318.804 138.247 317.758 138.247 315.646ZM143.298 320.482V305.677H145.371V320.482H143.298ZM157.093 316.317H149.868C150.125 317.896 151.368 318.863 153.027 318.863C154.033 318.863 154.981 318.488 155.85 317.718L156.837 319.14C155.731 320.186 154.448 320.699 152.967 320.699C150.006 320.699 147.756 318.508 147.756 315.646C147.697 312.862 150.026 310.513 152.77 310.572C155.336 310.572 157.251 312.487 157.251 315.014C157.251 315.428 157.192 315.863 157.093 316.317ZM149.908 314.698H155.178C155.159 313.217 154.053 312.329 152.691 312.329C151.329 312.329 150.223 313.257 149.908 314.698ZM174.175 314.422V320.482H172.082V314.718C172.082 313.356 171.313 312.467 170.069 312.467C168.806 312.467 167.937 313.375 167.937 314.619V320.482H165.864V314.718C165.864 313.375 165.075 312.467 163.831 312.467C162.567 312.467 161.699 313.375 161.699 314.718V320.482H159.626V310.789H161.561V311.697C162.252 310.987 163.199 310.572 164.364 310.572C165.706 310.572 166.733 311.145 167.305 312.092C168.016 311.164 169.22 310.572 170.582 310.572C172.813 310.572 174.175 312.112 174.175 314.422ZM185.779 316.317H178.554C178.81 317.896 180.054 318.863 181.712 318.863C182.719 318.863 183.666 318.488 184.535 317.718L185.522 319.14C184.417 320.186 183.133 320.699 181.653 320.699C178.692 320.699 176.441 318.508 176.441 315.646C176.382 312.862 178.712 310.513 181.455 310.572C184.022 310.572 185.937 312.487 185.937 315.014C185.937 315.428 185.877 315.863 185.779 316.317ZM178.593 314.698H183.864C183.844 313.217 182.739 312.329 181.377 312.329C180.014 312.329 178.909 313.257 178.593 314.698ZM196.78 314.422V320.482H194.708V314.698C194.708 313.356 193.859 312.448 192.595 312.448C191.312 312.448 190.384 313.375 190.384 314.698V320.482H188.312V310.789H190.246V311.737C190.977 310.967 191.944 310.572 193.148 310.572C195.418 310.572 196.78 312.112 196.78 314.422ZM97.9016 345.482V332.453H99.9941V345.482H97.9016ZM111.514 339.422V345.482H109.442V339.698C109.442 338.356 108.593 337.448 107.329 337.448C106.046 337.448 105.118 338.375 105.118 339.698V345.482H103.046V335.789H104.98V336.737C105.711 335.967 106.678 335.572 107.882 335.572C110.152 335.572 111.514 337.112 111.514 339.422ZM120.165 343.725V345.482C119.513 345.62 118.941 345.699 118.447 345.699C116.216 345.699 114.874 344.594 114.874 342.323V337.586H113.295V335.789H114.874V333.243H116.967V335.789H119.849V337.586H116.967V342.146C116.967 343.389 117.618 343.824 118.881 343.824C119.177 343.824 119.592 343.784 120.165 343.725ZM130.798 341.317H123.573C123.83 342.896 125.073 343.863 126.732 343.863C127.738 343.863 128.686 343.488 129.555 342.718L130.542 344.14C129.436 345.186 128.153 345.699 126.672 345.699C123.711 345.699 121.461 343.508 121.461 340.646C121.402 337.862 123.731 335.513 126.475 335.572C129.041 335.572 130.956 337.487 130.956 340.014C130.956 340.428 130.897 340.863 130.798 341.317ZM123.613 339.698H128.883C128.864 338.217 127.758 337.329 126.396 337.329C125.034 337.329 123.928 338.257 123.613 339.698ZM138.878 335.789V337.625H138.247C136.608 337.625 135.404 338.592 135.404 340.31V345.482H133.331V335.789H135.266V337.053C135.957 336.184 136.983 335.691 138.089 335.691C138.385 335.691 138.641 335.73 138.878 335.789ZM143.162 334.013V335.789H145.452V337.586H143.162V345.482H141.089V337.586H139.707V335.789H141.089V333.835C141.089 331.565 142.412 330.459 144.544 330.459C145.077 330.459 145.511 330.519 145.886 330.637V332.394C145.57 332.354 145.294 332.335 145.057 332.335C143.794 332.335 143.162 332.769 143.162 334.013ZM155.821 341.317H148.596C148.852 342.896 150.096 343.863 151.754 343.863C152.761 343.863 153.709 343.488 154.577 342.718L155.564 344.14C154.459 345.186 153.176 345.699 151.695 345.699C148.734 345.699 146.484 343.508 146.484 340.646C146.424 337.862 148.754 335.513 151.498 335.572C154.064 335.572 155.979 337.487 155.979 340.014C155.979 340.428 155.92 340.863 155.821 341.317ZM148.635 339.698H153.906C153.886 338.217 152.781 337.329 151.419 337.329C150.057 337.329 148.951 338.257 148.635 339.698ZM163.901 335.789V337.625H163.269C161.631 337.625 160.427 338.592 160.427 340.31V345.482H158.354V335.789H160.288V337.053C160.979 336.184 162.006 335.691 163.111 335.691C163.407 335.691 163.664 335.73 163.901 335.789ZM174.289 341.317H167.064C167.321 342.896 168.564 343.863 170.223 343.863C171.229 343.863 172.177 343.488 173.045 342.718L174.032 344.14C172.927 345.186 171.644 345.699 170.163 345.699C167.202 345.699 164.952 343.508 164.952 340.646C164.893 337.862 167.222 335.513 169.966 335.572C172.532 335.572 174.447 337.487 174.447 340.014C174.447 340.428 174.388 340.863 174.289 341.317ZM167.103 339.698H172.374C172.354 338.217 171.249 337.329 169.887 337.329C168.525 337.329 167.419 338.257 167.103 339.698ZM185.291 339.422V345.482H183.218V339.698C183.218 338.356 182.369 337.448 181.106 337.448C179.823 337.448 178.895 338.375 178.895 339.698V345.482H176.822V335.789H178.757V336.737C179.487 335.967 180.454 335.572 181.658 335.572C183.929 335.572 185.291 337.112 185.291 339.422ZM187.565 340.626C187.505 337.842 189.914 335.533 192.697 335.572C194.494 335.572 195.935 336.421 196.784 337.823L195.323 338.968C194.632 337.981 193.763 337.487 192.717 337.487C190.98 337.487 189.677 338.869 189.677 340.626C189.677 342.402 190.98 343.784 192.717 343.784C193.744 343.784 194.612 343.291 195.323 342.323L196.784 343.449C195.915 344.85 194.454 345.699 192.697 345.699C189.835 345.699 187.565 343.449 187.565 340.626ZM207.601 341.317H200.376C200.633 342.896 201.876 343.863 203.535 343.863C204.541 343.863 205.489 343.488 206.358 342.718L207.345 344.14C206.239 345.186 204.956 345.699 203.475 345.699C200.514 345.699 198.264 343.508 198.264 340.646C198.205 337.862 200.534 335.513 203.278 335.572C205.844 335.572 207.759 337.487 207.759 340.014C207.759 340.428 207.7 340.863 207.601 341.317ZM200.416 339.698H205.686C205.667 338.217 204.561 337.329 203.199 337.329C201.837 337.329 200.732 338.257 200.416 339.698Z" fill="#262261"/>
</g>
<g clip-path="url(#clip1_1468_78421)">
<path d="M49.3916 390.763L49.3916 488.463H323.512V390.763H49.3916Z" fill="#F2F2F2"/>
<path d="M97.9016 434.377V421.349H99.9941V432.502H105.956V434.377H97.9016ZM115.622 428.515V434.377H113.687V433.292C112.976 434.141 111.91 434.595 110.588 434.595C108.555 434.595 107.212 433.469 107.212 431.791C107.212 430.113 108.594 429.028 110.785 429.028H113.529V428.396C113.529 427.054 112.779 426.323 111.456 426.323C110.371 426.323 109.581 426.797 108.772 427.764L107.568 426.54C108.535 425.139 109.976 424.468 111.654 424.468C114.042 424.468 115.622 425.909 115.622 428.515ZM113.529 430.706V430.528H111.042C109.936 430.528 109.324 430.923 109.324 431.712C109.324 432.522 110.015 432.996 111.022 432.996C112.424 432.996 113.529 432.028 113.529 430.706ZM117.894 429.521C117.835 426.738 120.244 424.428 123.027 424.468C124.823 424.468 126.264 425.317 127.113 426.718L125.653 427.863C124.962 426.876 124.093 426.383 123.047 426.383C121.31 426.383 120.007 427.764 120.007 429.521C120.007 431.298 121.31 432.68 123.047 432.68C124.073 432.68 124.942 432.186 125.653 431.219L127.113 432.344C126.245 433.746 124.784 434.595 123.027 434.595C120.165 434.595 117.894 432.344 117.894 429.521ZM129.398 434.377V419.572H131.471V434.377H129.398ZM133.978 428.949L138.222 434.377H135.735L131.53 428.929L135.321 424.685H137.887L133.978 428.949ZM144.845 429.521C144.786 426.738 147.174 424.428 149.958 424.468C152.781 424.408 155.169 426.777 155.11 429.521C155.169 432.265 152.781 434.654 149.958 434.595C147.174 434.654 144.786 432.265 144.845 429.521ZM152.978 429.541C152.978 427.745 151.655 426.363 149.978 426.363C148.26 426.363 146.957 427.745 146.957 429.541C146.957 431.337 148.26 432.68 149.958 432.68C151.675 432.68 152.978 431.298 152.978 429.541ZM159.914 422.908V424.685H162.204V426.481H159.914V434.377H157.842V426.481H156.46V424.685H157.842V422.731C157.842 420.46 159.164 419.355 161.296 419.355C161.829 419.355 162.264 419.414 162.639 419.533V421.289C162.323 421.25 162.046 421.23 161.809 421.23C160.546 421.23 159.914 421.665 159.914 422.908ZM100.961 459.377V448.224H96.579V446.349H107.456V448.224H103.054V459.377H100.961ZM113.913 449.685V451.521H113.282C111.643 451.521 110.439 452.488 110.439 454.205V459.377H108.366V449.685H110.301V450.948C110.992 450.08 112.018 449.586 113.124 449.586C113.42 449.586 113.676 449.626 113.913 449.685ZM123.275 453.515V459.377H121.34V458.292C120.63 459.141 119.564 459.595 118.241 459.595C116.208 459.595 114.866 458.469 114.866 456.791C114.866 455.113 116.247 454.028 118.439 454.028H121.183V453.396C121.183 452.054 120.432 451.323 119.11 451.323C118.024 451.323 117.234 451.797 116.425 452.764L115.221 451.54C116.188 450.139 117.629 449.468 119.307 449.468C121.696 449.468 123.275 450.909 123.275 453.515ZM121.183 455.706V455.528H118.695C117.59 455.528 116.978 455.923 116.978 456.712C116.978 457.522 117.669 457.996 118.675 457.996C120.077 457.996 121.183 457.028 121.183 455.706ZM134.628 453.317V459.377H132.556V453.593C132.556 452.251 131.707 451.343 130.443 451.343C129.16 451.343 128.233 452.271 128.233 453.593V459.377H126.16V449.685H128.094V450.632C128.825 449.863 129.792 449.468 130.996 449.468C133.266 449.468 134.628 451.007 134.628 453.317ZM136.606 457.719L137.791 456.416C138.64 457.305 139.488 457.798 140.515 457.798C141.403 457.798 142.074 457.423 142.074 456.712C142.074 456.14 141.66 455.903 140.712 455.508L139.725 455.094C138.008 454.383 137.199 453.633 137.199 452.271C137.199 450.534 138.64 449.468 140.614 449.468C142.015 449.468 143.121 449.961 143.97 450.968L142.844 452.251C142.232 451.619 141.423 451.264 140.574 451.264C139.765 451.264 139.252 451.58 139.252 452.192C139.252 452.685 139.587 452.942 140.535 453.337L141.463 453.712C143.298 454.482 144.108 455.271 144.108 456.634C144.108 457.561 143.772 458.292 143.081 458.825C142.39 459.338 141.542 459.595 140.515 459.595C138.857 459.595 137.475 458.844 136.606 457.719ZM156.566 454.521C156.566 457.423 154.552 459.595 151.808 459.595C150.486 459.595 149.341 459.081 148.571 458.193V462.931H146.498V449.685H148.432V451.047C149.143 450.04 150.387 449.468 151.808 449.468C154.552 449.468 156.566 451.659 156.566 454.521ZM154.434 454.541C154.434 452.685 153.15 451.363 151.473 451.363C149.953 451.363 148.551 452.409 148.551 454.521C148.551 456.653 149.953 457.699 151.473 457.699C153.131 457.699 154.434 456.397 154.434 454.541ZM166.65 453.515V459.377H164.716V458.292C164.005 459.141 162.939 459.595 161.616 459.595C159.583 459.595 158.241 458.469 158.241 456.791C158.241 455.113 159.623 454.028 161.814 454.028H164.558V453.396C164.558 452.054 163.808 451.323 162.485 451.323C161.399 451.323 160.61 451.797 159.8 452.764L158.596 451.54C159.563 450.139 161.004 449.468 162.682 449.468C165.071 449.468 166.65 450.909 166.65 453.515ZM164.558 455.706V455.528H162.07C160.965 455.528 160.353 455.923 160.353 456.712C160.353 457.522 161.044 457.996 162.051 457.996C163.452 457.996 164.558 457.028 164.558 455.706ZM175.082 449.685V451.521H174.45C172.812 451.521 171.608 452.488 171.608 454.205V459.377H169.535V449.685H171.47V450.948C172.16 450.08 173.187 449.586 174.292 449.586C174.589 449.586 174.845 449.626 175.082 449.685ZM185.47 455.212H178.245C178.502 456.791 179.745 457.759 181.404 457.759C182.41 457.759 183.358 457.384 184.227 456.614L185.214 458.035C184.108 459.081 182.825 459.595 181.344 459.595C178.383 459.595 176.133 457.403 176.133 454.541C176.074 451.758 178.403 449.408 181.147 449.468C183.713 449.468 185.628 451.383 185.628 453.909C185.628 454.324 185.569 454.758 185.47 455.212ZM178.285 453.593H183.555C183.536 452.113 182.43 451.225 181.068 451.225C179.706 451.225 178.601 452.152 178.285 453.593ZM196.472 453.317V459.377H194.399V453.593C194.399 452.251 193.55 451.343 192.287 451.343C191.004 451.343 190.076 452.271 190.076 453.593V459.377H188.003V449.685H189.938V450.632C190.668 449.863 191.635 449.468 192.84 449.468C195.11 449.468 196.472 451.007 196.472 453.317ZM198.746 454.521C198.687 451.738 201.095 449.428 203.878 449.468C205.675 449.468 207.116 450.317 207.965 451.718L206.504 452.863C205.813 451.876 204.944 451.383 203.898 451.383C202.161 451.383 200.858 452.764 200.858 454.521C200.858 456.298 202.161 457.68 203.898 457.68C204.925 457.68 205.793 457.186 206.504 456.219L207.965 457.344C207.096 458.746 205.635 459.595 203.878 459.595C201.016 459.595 198.746 457.344 198.746 454.521ZM217.001 449.685H219.212L214.494 460.483C213.685 462.319 212.599 463.148 210.941 463.148C210.408 463.148 209.875 463.089 209.342 462.95V461.194C209.954 461.253 210.329 461.273 210.487 461.273C211.454 461.273 212.125 460.937 212.599 459.851L212.994 458.943L209.125 449.685H211.355L214.139 456.732L217.001 449.685Z" fill="#262261"/>
</g>
<g clip-path="url(#clip2_1468_78421)">
<path d="M49.498 503.801L49.498 601.501H323.618V503.801H49.498Z" fill="#F2F2F2"/>
<path d="M97.9014 547.486V534.458H99.9939V547.486H97.9014ZM111.514 541.426V547.486H109.441V541.702C109.441 540.36 108.592 539.452 107.329 539.452C106.046 539.452 105.118 540.38 105.118 541.702V547.486H103.045V537.794H104.98V538.741C105.71 537.971 106.678 537.577 107.882 537.577C110.152 537.577 111.514 539.116 111.514 541.426ZM113.788 542.63C113.729 539.847 116.137 537.537 118.921 537.577C120.717 537.577 122.158 538.425 123.007 539.827L121.546 540.972C120.855 539.985 119.987 539.491 118.94 539.491C117.203 539.491 115.9 540.873 115.9 542.63C115.9 544.407 117.203 545.789 118.94 545.789C119.967 545.789 120.835 545.295 121.546 544.328L123.007 545.453C122.138 546.855 120.678 547.703 118.921 547.703C116.058 547.703 113.788 545.453 113.788 542.63ZM124.487 542.63C124.428 539.847 126.817 537.537 129.6 537.577C132.423 537.517 134.812 539.886 134.752 542.63C134.812 545.374 132.423 547.763 129.6 547.703C126.817 547.763 124.428 545.374 124.487 542.63ZM132.62 542.65C132.62 540.854 131.298 539.472 129.62 539.472C127.902 539.472 126.6 540.854 126.6 542.65C126.6 544.446 127.902 545.789 129.6 545.789C131.318 545.789 132.62 544.407 132.62 542.65ZM145.597 541.426V547.486H143.525V541.702C143.525 540.36 142.676 539.452 141.412 539.452C140.129 539.452 139.201 540.38 139.201 541.702V547.486H137.129V537.794H139.063V538.741C139.794 537.971 140.761 537.577 141.965 537.577C144.235 537.577 145.597 539.116 145.597 541.426ZM147.575 545.828L148.76 544.525C149.609 545.414 150.457 545.907 151.484 545.907C152.372 545.907 153.043 545.532 153.043 544.821C153.043 544.249 152.629 544.012 151.681 543.617L150.694 543.203C148.977 542.492 148.167 541.742 148.167 540.38C148.167 538.643 149.609 537.577 151.583 537.577C152.984 537.577 154.09 538.07 154.938 539.077L153.813 540.36C153.201 539.728 152.392 539.373 151.543 539.373C150.734 539.373 150.22 539.689 150.22 540.301C150.22 540.794 150.556 541.051 151.504 541.446L152.431 541.821C154.267 542.591 155.077 543.38 155.077 544.742C155.077 545.67 154.741 546.401 154.05 546.934C153.359 547.447 152.51 547.703 151.484 547.703C149.826 547.703 148.444 546.953 147.575 545.828ZM157.467 547.486V537.794H159.54V547.486H157.467ZM157.092 534.181C157.092 533.411 157.723 532.799 158.513 532.799C159.283 532.799 159.915 533.411 159.915 534.181C159.915 534.951 159.283 535.543 158.513 535.543C157.723 535.543 157.092 534.951 157.092 534.181ZM161.629 545.828L162.813 544.525C163.662 545.414 164.511 545.907 165.537 545.907C166.426 545.907 167.097 545.532 167.097 544.821C167.097 544.249 166.682 544.012 165.735 543.617L164.748 543.203C163.03 542.492 162.221 541.742 162.221 540.38C162.221 538.643 163.662 537.577 165.636 537.577C167.038 537.577 168.143 538.07 168.992 539.077L167.867 540.36C167.255 539.728 166.445 539.373 165.597 539.373C164.787 539.373 164.274 539.689 164.274 540.301C164.274 540.794 164.61 541.051 165.557 541.446L166.485 541.821C168.321 542.591 169.13 543.38 169.13 544.742C169.13 545.67 168.795 546.401 168.104 546.934C167.413 547.447 166.564 547.703 165.537 547.703C163.879 547.703 162.497 546.953 161.629 545.828ZM177.285 545.729V547.486C176.633 547.625 176.061 547.703 175.567 547.703C173.336 547.703 171.994 546.598 171.994 544.328V539.59H170.415V537.794H171.994V535.247H174.087V537.794H176.969V539.59H174.087V544.15C174.087 545.394 174.738 545.828 176.001 545.828C176.298 545.828 176.712 545.789 177.285 545.729ZM187.918 543.321H180.693C180.95 544.9 182.194 545.868 183.852 545.868C184.858 545.868 185.806 545.493 186.675 544.723L187.662 546.144C186.556 547.19 185.273 547.703 183.792 547.703C180.831 547.703 178.581 545.512 178.581 542.65C178.522 539.866 180.851 537.517 183.595 537.577C186.161 537.577 188.076 539.491 188.076 542.018C188.076 542.433 188.017 542.867 187.918 543.321ZM180.733 541.702H186.003C185.984 540.222 184.878 539.333 183.516 539.333C182.154 539.333 181.049 540.261 180.733 541.702ZM198.92 541.426V547.486H196.847V541.702C196.847 540.36 195.998 539.452 194.735 539.452C193.452 539.452 192.524 540.38 192.524 541.702V547.486H190.451V537.794H192.386V538.741C193.116 537.971 194.083 537.577 195.288 537.577C197.558 537.577 198.92 539.116 198.92 541.426ZM207.57 545.729V547.486C206.919 547.625 206.346 547.703 205.853 547.703C203.622 547.703 202.28 546.598 202.28 544.328V539.59H200.7V537.794H202.28V535.247H204.372V537.794H207.254V539.59H204.372V544.15C204.372 545.394 205.024 545.828 206.287 545.828C206.583 545.828 206.998 545.789 207.57 545.729ZM214.414 544.881L215.895 543.755C216.764 545.019 217.81 545.828 219.31 545.828C220.652 545.828 221.56 545.117 221.56 544.012C221.56 543.084 221.008 542.689 219.646 542.058L218.205 541.387C216.309 540.518 215.165 539.511 215.165 537.774C215.165 535.642 217.02 534.24 219.271 534.24C221.106 534.24 222.666 535.168 223.475 536.57L222.014 537.695C221.324 536.669 220.376 536.116 219.271 536.116C218.165 536.116 217.297 536.669 217.297 537.695C217.375 538.722 217.83 538.899 219.113 539.551L220.573 540.222C222.686 541.189 223.692 542.216 223.692 543.933C223.692 546.203 221.837 547.703 219.33 547.703C217.198 547.703 215.421 546.637 214.414 544.881ZM226.132 543.42V537.794H228.185V543.578C228.185 544.92 229.113 545.789 230.376 545.789C231.581 545.789 232.508 544.92 232.508 543.578V537.794H234.581V543.42C234.581 546.026 232.745 547.703 230.376 547.703C227.948 547.703 226.132 546.026 226.132 543.42ZM247.557 542.63C247.557 545.532 245.543 547.703 242.799 547.703C241.477 547.703 240.332 547.19 239.562 546.302V551.04H237.489V537.794H239.424V539.156C240.134 538.149 241.378 537.577 242.799 537.577C245.543 537.577 247.557 539.768 247.557 542.63ZM245.425 542.65C245.425 540.794 244.142 539.472 242.464 539.472C240.944 539.472 239.542 540.518 239.542 542.63C239.542 544.762 240.944 545.808 242.464 545.808C244.122 545.808 245.425 544.506 245.425 542.65ZM260.01 542.63C260.01 545.532 257.997 547.703 255.253 547.703C253.93 547.703 252.785 547.19 252.015 546.302V551.04H249.943V537.794H251.877V539.156C252.588 538.149 253.832 537.577 255.253 537.577C257.997 537.577 260.01 539.768 260.01 542.63ZM257.878 542.65C257.878 540.794 256.595 539.472 254.917 539.472C253.397 539.472 251.996 540.518 251.996 542.63C251.996 544.762 253.397 545.808 254.917 545.808C256.576 545.808 257.878 544.506 257.878 542.65ZM262.396 547.486V532.681H264.469V547.486H262.396ZM274.218 537.794H276.429L271.711 548.592C270.901 550.428 269.815 551.257 268.157 551.257C267.624 551.257 267.091 551.198 266.558 551.059V549.302C267.17 549.362 267.545 549.381 267.703 549.381C268.67 549.381 269.342 549.046 269.815 547.96L270.21 547.052L266.341 537.794H268.572L271.355 544.841L274.218 537.794ZM97.1513 567.63C97.092 564.847 99.4806 562.537 102.264 562.577C105.087 562.517 107.476 564.886 107.416 567.63C107.476 570.374 105.087 572.763 102.264 572.703C99.4806 572.763 97.092 570.374 97.1513 567.63ZM105.284 567.65C105.284 565.854 103.962 564.472 102.284 564.472C100.566 564.472 99.2635 565.854 99.2635 567.65C99.2635 569.446 100.566 570.789 102.264 570.789C103.981 570.789 105.284 569.407 105.284 567.65ZM112.221 561.017V562.794H114.511V564.59H112.221V572.486H110.148V564.59H108.766V562.794H110.148V560.839C110.148 558.569 111.471 557.464 113.603 557.464C114.136 557.464 114.57 557.523 114.945 557.641V559.398C114.629 559.359 114.353 559.339 114.116 559.339C112.852 559.339 112.221 559.773 112.221 561.017ZM120.438 565.972C120.359 562.241 123.577 559.181 127.288 559.24C129.677 559.24 131.749 560.405 132.875 562.241L131.295 563.406C130.367 561.965 129.025 561.155 127.308 561.155C124.643 561.155 122.609 563.208 122.609 565.972C122.609 568.736 124.643 570.789 127.308 570.789C129.025 570.789 130.367 569.979 131.295 568.538L132.875 569.703C131.769 571.539 129.716 572.703 127.288 572.703C123.577 572.763 120.359 569.703 120.438 565.972ZM140.786 562.794V564.63H140.155C138.516 564.63 137.312 565.597 137.312 567.314V572.486H135.239V562.794H137.174V564.057C137.865 563.189 138.891 562.695 139.997 562.695C140.293 562.695 140.55 562.735 140.786 562.794ZM141.837 567.63C141.778 564.847 144.167 562.537 146.95 562.577C149.773 562.517 152.162 564.886 152.102 567.63C152.162 570.374 149.773 572.763 146.95 572.703C144.167 572.763 141.778 570.374 141.837 567.63ZM149.97 567.65C149.97 565.854 148.648 564.472 146.97 564.472C145.252 564.472 143.95 565.854 143.95 567.65C143.95 569.446 145.252 570.789 146.95 570.789C148.668 570.789 149.97 569.407 149.97 567.65ZM164.546 567.63C164.546 570.532 162.533 572.703 159.789 572.703C158.466 572.703 157.321 572.19 156.551 571.302V576.04H154.479V562.794H156.413V564.156C157.124 563.149 158.368 562.577 159.789 562.577C162.533 562.577 164.546 564.768 164.546 567.63ZM162.414 567.65C162.414 565.794 161.131 564.472 159.453 564.472C157.933 564.472 156.532 565.518 156.532 567.63C156.532 569.762 157.933 570.808 159.453 570.808C161.112 570.808 162.414 569.506 162.414 567.65ZM166.024 570.828L167.209 569.525C168.057 570.414 168.906 570.907 169.933 570.907C170.821 570.907 171.492 570.532 171.492 569.821C171.492 569.249 171.078 569.012 170.13 568.617L169.143 568.203C167.426 567.492 166.616 566.742 166.616 565.38C166.616 563.643 168.057 562.577 170.031 562.577C171.433 562.577 172.539 563.07 173.387 564.077L172.262 565.36C171.65 564.728 170.841 564.373 169.992 564.373C169.183 564.373 168.669 564.689 168.669 565.301C168.669 565.794 169.005 566.051 169.953 566.446L170.88 566.821C172.716 567.591 173.526 568.38 173.526 569.742C173.526 570.67 173.19 571.401 172.499 571.934C171.808 572.447 170.959 572.703 169.933 572.703C168.275 572.703 166.893 571.953 166.024 570.828Z" fill="#262261"/>
</g>
<g clip-path="url(#clip3_1468_78421)">
<path d="M49.3916 164.931L49.3916 262.631H323.512V164.931H49.3916Z" fill="#F2F2F2"/>
<path d="M97.9019 208.174V195.146H99.9944V206.299H105.956V208.174H97.9019ZM107.234 203.318C107.175 200.535 109.563 198.225 112.347 198.265C115.17 198.205 117.558 200.574 117.499 203.318C117.558 206.062 115.17 208.451 112.347 208.391C109.563 208.451 107.175 206.062 107.234 203.318ZM115.367 203.338C115.367 201.541 114.045 200.16 112.367 200.16C110.649 200.16 109.346 201.541 109.346 203.338C109.346 205.134 110.649 206.477 112.347 206.477C114.064 206.477 115.367 205.095 115.367 203.338ZM128.344 202.114V208.174H126.271V202.39C126.271 201.048 125.423 200.14 124.159 200.14C122.876 200.14 121.948 201.068 121.948 202.39V208.174H119.875V198.482H121.81V199.429C122.54 198.659 123.508 198.265 124.712 198.265C126.982 198.265 128.344 199.804 128.344 202.114ZM138.83 198.482H140.745V207.168C140.745 210.227 138.83 211.945 135.889 211.945C133.974 211.945 132.395 211.195 131.23 210.109L132.375 208.668C133.461 209.536 134.448 210.05 135.77 210.05C137.527 210.05 138.672 209.102 138.672 207.286V206.595C137.942 207.483 136.738 207.977 135.395 207.977C132.691 207.977 130.677 205.944 130.677 203.121C130.677 200.298 132.711 198.265 135.395 198.265C136.876 198.265 138.12 198.857 138.83 199.864V198.482ZM138.692 203.101C138.692 201.127 137.369 200.12 135.77 200.12C134.922 200.12 134.231 200.397 133.658 200.949C133.086 201.502 132.809 202.232 132.809 203.121C132.809 204.029 133.086 204.759 133.658 205.332C134.231 205.884 134.922 206.161 135.77 206.161C136.58 206.161 137.251 205.904 137.823 205.371C138.396 204.838 138.692 204.088 138.692 203.101ZM152.625 208.174L151.697 206.003H145.834L144.906 208.174H142.675L148.42 194.928H149.131L154.875 208.174H152.625ZM150.947 204.206L148.775 198.817L146.584 204.206H150.947ZM165.281 202.114V208.174H163.208V202.39C163.208 201.048 162.359 200.14 161.096 200.14C159.812 200.14 158.885 201.068 158.885 202.39V208.174H156.812V198.482H158.746V199.429C159.477 198.659 160.444 198.265 161.648 198.265C163.918 198.265 165.281 199.804 165.281 202.114ZM175.53 193.369H177.622V208.174H175.688V206.792C174.977 207.799 173.733 208.391 172.292 208.391C169.568 208.391 167.555 206.2 167.555 203.338C167.495 200.515 169.608 198.205 172.292 198.265C173.635 198.265 174.799 198.778 175.53 199.666V193.369ZM175.569 203.338C175.569 201.245 174.148 200.16 172.648 200.16C170.989 200.16 169.667 201.463 169.667 203.318C169.667 205.174 170.93 206.496 172.648 206.496C174.168 206.496 175.569 205.45 175.569 203.338ZM186.291 208.174V195.146H194.661V197.021H188.383V200.91H193.555V202.805H188.383V208.174H186.291ZM201.84 198.482V200.318H201.208C199.57 200.318 198.366 201.285 198.366 203.002V208.174H196.293V198.482H198.227V199.745C198.918 198.877 199.945 198.383 201.05 198.383C201.346 198.383 201.603 198.422 201.84 198.482ZM211.202 202.311V208.174H209.267V207.089C208.556 207.937 207.49 208.391 206.168 208.391C204.135 208.391 202.792 207.266 202.792 205.588C202.792 203.91 204.174 202.825 206.365 202.825H209.109V202.193C209.109 200.851 208.359 200.12 207.036 200.12C205.951 200.12 205.161 200.594 204.352 201.561L203.147 200.337C204.115 198.936 205.556 198.265 207.234 198.265C209.622 198.265 211.202 199.706 211.202 202.311ZM209.109 204.503V204.325H206.622C205.516 204.325 204.904 204.72 204.904 205.509C204.904 206.319 205.595 206.792 206.602 206.792C208.004 206.792 209.109 205.825 209.109 204.503ZM221.686 198.482H223.601V207.168C223.601 210.227 221.686 211.945 218.745 211.945C216.83 211.945 215.251 211.195 214.086 210.109L215.231 208.668C216.317 209.536 217.304 210.05 218.627 210.05C220.384 210.05 221.529 209.102 221.529 207.286V206.595C220.798 207.483 219.594 207.977 218.252 207.977C215.547 207.977 213.534 205.944 213.534 203.121C213.534 200.298 215.567 198.265 218.252 198.265C219.732 198.265 220.976 198.857 221.686 199.864V198.482ZM221.548 203.101C221.548 201.127 220.226 200.12 218.627 200.12C217.778 200.12 217.087 200.397 216.514 200.949C215.942 201.502 215.666 202.232 215.666 203.121C215.666 204.029 215.942 204.759 216.514 205.332C217.087 205.884 217.778 206.161 218.627 206.161C219.436 206.161 220.107 205.904 220.68 205.371C221.252 204.838 221.548 204.088 221.548 203.101ZM241.147 202.114V208.174H239.054V202.41C239.054 201.048 238.284 200.16 237.04 200.16C235.777 200.16 234.908 201.068 234.908 202.311V208.174H232.836V202.41C232.836 201.068 232.046 200.16 230.802 200.16C229.539 200.16 228.67 201.068 228.67 202.41V208.174H226.598V198.482H228.532V199.39C229.223 198.679 230.171 198.265 231.335 198.265C232.678 198.265 233.704 198.837 234.277 199.785C234.987 198.857 236.192 198.265 237.554 198.265C239.784 198.265 241.147 199.804 241.147 202.114ZM252.75 204.009H245.525C245.782 205.588 247.025 206.556 248.684 206.556C249.69 206.556 250.638 206.181 251.507 205.411L252.494 206.832C251.388 207.878 250.105 208.391 248.624 208.391C245.663 208.391 243.413 206.2 243.413 203.338C243.354 200.554 245.683 198.205 248.427 198.265C250.993 198.265 252.908 200.179 252.908 202.706C252.908 203.121 252.849 203.555 252.75 204.009ZM245.565 202.39H250.835C250.816 200.91 249.71 200.021 248.348 200.021C246.986 200.021 245.881 200.949 245.565 202.39ZM263.752 202.114V208.174H261.679V202.39C261.679 201.048 260.83 200.14 259.567 200.14C258.284 200.14 257.356 201.068 257.356 202.39V208.174H255.283V198.482H257.218V199.429C257.948 198.659 258.915 198.265 260.12 198.265C262.39 198.265 263.752 199.804 263.752 202.114ZM272.402 206.417V208.174C271.751 208.313 271.178 208.391 270.685 208.391C268.454 208.391 267.112 207.286 267.112 205.016V200.278H265.532V198.482H267.112V195.935H269.204V198.482H272.086V200.278H269.204V204.838C269.204 206.082 269.856 206.516 271.119 206.516C271.415 206.516 271.83 206.477 272.402 206.417ZM283.036 204.009H275.811C276.067 205.588 277.311 206.556 278.969 206.556C279.976 206.556 280.924 206.181 281.792 205.411L282.779 206.832C281.674 207.878 280.391 208.391 278.91 208.391C275.949 208.391 273.698 206.2 273.698 203.338C273.639 200.554 275.969 198.205 278.713 198.265C281.279 198.265 283.194 200.179 283.194 202.706C283.194 203.121 283.134 203.555 283.036 204.009ZM275.85 202.39H281.121C281.101 200.91 279.996 200.021 278.634 200.021C277.272 200.021 276.166 200.949 275.85 202.39ZM292.932 193.369H295.024V208.174H293.09V206.792C292.379 207.799 291.136 208.391 289.694 208.391C286.97 208.391 284.957 206.2 284.957 203.338C284.898 200.515 287.01 198.205 289.694 198.265C291.037 198.265 292.202 198.778 292.932 199.666V193.369ZM292.971 203.338C292.971 201.245 291.55 200.16 290.05 200.16C288.392 200.16 287.069 201.463 287.069 203.318C287.069 205.174 288.332 206.496 290.05 206.496C291.57 206.496 292.971 205.45 292.971 203.338ZM97.9019 233.174V220.146H102.659C105.285 220.146 107.081 221.784 107.081 224.133C107.081 226.463 105.285 228.14 102.659 228.14H99.9944V233.174H97.9019ZM99.9944 226.285H102.62C104.1 226.285 104.93 225.436 104.93 224.153C104.93 222.87 104.1 222.001 102.62 222.001H99.9944V226.285ZM114.8 223.482V225.318H114.169C112.53 225.318 111.326 226.285 111.326 228.002V233.174H109.253V223.482H111.188V224.745C111.879 223.877 112.905 223.383 114.011 223.383C114.307 223.383 114.564 223.422 114.8 223.482ZM115.851 228.318C115.792 225.535 118.181 223.225 120.964 223.265C123.787 223.205 126.176 225.574 126.116 228.318C126.176 231.062 123.787 233.451 120.964 233.391C118.181 233.451 115.792 231.062 115.851 228.318ZM123.984 228.338C123.984 226.541 122.662 225.16 120.984 225.16C119.266 225.16 117.964 226.541 117.964 228.338C117.964 230.134 119.266 231.477 120.964 231.477C122.682 231.477 123.984 230.095 123.984 228.338ZM127.881 228.318C127.821 225.535 130.23 223.225 133.013 223.265C134.81 223.265 136.251 224.113 137.1 225.515L135.639 226.66C134.948 225.673 134.079 225.179 133.033 225.179C131.296 225.179 129.993 226.561 129.993 228.318C129.993 230.095 131.296 231.477 133.033 231.477C134.059 231.477 134.928 230.983 135.639 230.016L137.1 231.141C136.231 232.543 134.77 233.391 133.013 233.391C130.151 233.391 127.881 231.141 127.881 228.318ZM139.286 229.108V223.482H141.339V229.266C141.339 230.608 142.267 231.477 143.53 231.477C144.734 231.477 145.662 230.608 145.662 229.266V223.482H147.735V229.108C147.735 231.714 145.899 233.391 143.53 233.391C141.102 233.391 139.286 231.714 139.286 229.108ZM156.19 223.482V225.318H155.558C153.92 225.318 152.716 226.285 152.716 228.002V233.174H150.643V223.482H152.577V224.745C153.268 223.877 154.295 223.383 155.4 223.383C155.696 223.383 155.953 223.422 156.19 223.482ZM166.578 229.009H159.353C159.61 230.588 160.853 231.556 162.512 231.556C163.518 231.556 164.466 231.181 165.334 230.411L166.322 231.832C165.216 232.878 163.933 233.391 162.452 233.391C159.491 233.391 157.241 231.2 157.241 228.338C157.182 225.554 159.511 223.205 162.255 223.265C164.821 223.265 166.736 225.179 166.736 227.706C166.736 228.121 166.677 228.555 166.578 229.009ZM159.393 227.39H164.663C164.644 225.91 163.538 225.021 162.176 225.021C160.814 225.021 159.708 225.949 159.393 227.39ZM183.66 227.114V233.174H181.567V227.41C181.567 226.048 180.798 225.16 179.554 225.16C178.29 225.16 177.422 226.068 177.422 227.311V233.174H175.349V227.41C175.349 226.068 174.559 225.16 173.316 225.16C172.052 225.16 171.184 226.068 171.184 227.41V233.174H169.111V223.482H171.046V224.39C171.737 223.679 172.684 223.265 173.849 223.265C175.191 223.265 176.218 223.837 176.79 224.785C177.501 223.857 178.705 223.265 180.067 223.265C182.298 223.265 183.66 224.804 183.66 227.114ZM195.264 229.009H188.039C188.295 230.588 189.539 231.556 191.197 231.556C192.204 231.556 193.151 231.181 194.02 230.411L195.007 231.832C193.902 232.878 192.618 233.391 191.138 233.391C188.177 233.391 185.926 231.2 185.926 228.338C185.867 225.554 188.197 223.205 190.94 223.265C193.507 223.265 195.422 225.179 195.422 227.706C195.422 228.121 195.362 228.555 195.264 229.009ZM188.078 227.39H193.349C193.329 225.91 192.224 225.021 190.861 225.021C189.499 225.021 188.394 225.949 188.078 227.39ZM206.265 227.114V233.174H204.193V227.39C204.193 226.048 203.344 225.14 202.08 225.14C200.797 225.14 199.869 226.068 199.869 227.39V233.174H197.797V223.482H199.731V224.429C200.462 223.659 201.429 223.265 202.633 223.265C204.903 223.265 206.265 224.804 206.265 227.114ZM214.915 231.417V233.174C214.264 233.313 213.692 233.391 213.198 233.391C210.967 233.391 209.625 232.286 209.625 230.016V225.278H208.046V223.482H209.625V220.935H211.718V223.482H214.6V225.278H211.718V229.838C211.718 231.082 212.369 231.516 213.632 231.516C213.928 231.516 214.343 231.477 214.915 231.417ZM222.688 233.174V220.146H227.445C230.071 220.146 231.867 221.784 231.867 224.133C231.867 226.463 230.071 228.14 227.445 228.14H224.78V233.174H222.688ZM224.78 226.285H227.406C228.886 226.285 229.715 225.436 229.715 224.153C229.715 222.87 228.886 222.001 227.406 222.001H224.78V226.285ZM239.586 223.482V225.318H238.954C237.316 225.318 236.112 226.285 236.112 228.002V233.174H234.039V223.482H235.974V224.745C236.664 223.877 237.691 223.383 238.796 223.383C239.093 223.383 239.349 223.422 239.586 223.482ZM240.637 228.318C240.578 225.535 242.966 223.225 245.75 223.265C248.573 223.205 250.961 225.574 250.902 228.318C250.961 231.062 248.573 233.451 245.75 233.391C242.966 233.451 240.578 231.062 240.637 228.318ZM248.77 228.338C248.77 226.541 247.447 225.16 245.769 225.16C244.052 225.16 242.749 226.541 242.749 228.338C242.749 230.134 244.052 231.477 245.75 231.477C247.467 231.477 248.77 230.095 248.77 228.338ZM252.666 228.318C252.607 225.535 255.015 223.225 257.799 223.265C259.595 223.265 261.036 224.113 261.885 225.515L260.424 226.66C259.733 225.673 258.865 225.179 257.819 225.179C256.081 225.179 254.779 226.561 254.779 228.318C254.779 230.095 256.081 231.477 257.819 231.477C258.845 231.477 259.714 230.983 260.424 230.016L261.885 231.141C261.017 232.543 259.556 233.391 257.799 233.391C254.937 233.391 252.666 231.141 252.666 228.318ZM272.703 229.009H265.478C265.734 230.588 266.978 231.556 268.636 231.556C269.643 231.556 270.591 231.181 271.459 230.411L272.446 231.832C271.341 232.878 270.058 233.391 268.577 233.391C265.616 233.391 263.366 231.2 263.366 228.338C263.306 225.554 265.636 223.205 268.38 223.265C270.946 223.265 272.861 225.179 272.861 227.706C272.861 228.121 272.802 228.555 272.703 229.009ZM265.517 227.39H270.788C270.768 225.91 269.663 225.021 268.301 225.021C266.939 225.021 265.833 225.949 265.517 227.39ZM274.328 231.516L275.512 230.213C276.361 231.102 277.21 231.595 278.236 231.595C279.125 231.595 279.796 231.22 279.796 230.509C279.796 229.937 279.381 229.7 278.434 229.305L277.447 228.891C275.729 228.18 274.92 227.43 274.92 226.068C274.92 224.331 276.361 223.265 278.335 223.265C279.737 223.265 280.842 223.758 281.691 224.765L280.566 226.048C279.954 225.416 279.144 225.061 278.296 225.061C277.486 225.061 276.973 225.377 276.973 225.989C276.973 226.482 277.309 226.739 278.256 227.134L279.184 227.509C281.02 228.279 281.829 229.068 281.829 230.43C281.829 231.358 281.494 232.089 280.803 232.622C280.112 233.135 279.263 233.391 278.236 233.391C276.578 233.391 275.196 232.641 274.328 231.516ZM283.311 231.516L284.496 230.213C285.344 231.102 286.193 231.595 287.22 231.595C288.108 231.595 288.779 231.22 288.779 230.509C288.779 229.937 288.365 229.7 287.417 229.305L286.43 228.891C284.713 228.18 283.903 227.43 283.903 226.068C283.903 224.331 285.344 223.265 287.319 223.265C288.72 223.265 289.826 223.758 290.674 224.765L289.549 226.048C288.937 225.416 288.128 225.061 287.279 225.061C286.47 225.061 285.956 225.377 285.956 225.989C285.956 226.482 286.292 226.739 287.24 227.134L288.167 227.509C290.003 228.279 290.813 229.068 290.813 230.43C290.813 231.358 290.477 232.089 289.786 232.622C289.095 233.135 288.246 233.391 287.22 233.391C285.562 233.391 284.18 232.641 283.311 231.516Z" fill="#262261"/>
</g>
<path d="M51.949 473.214C70.5088 471.743 84.3624 455.506 82.892 436.946C81.4215 418.386 65.1838 404.533 46.624 406.003C28.0642 407.473 14.2106 423.711 15.6811 442.271C17.1515 460.831 33.3892 474.684 51.949 473.214Z" fill="#3E7B97"/>
<path d="M51.949 473.214C70.5088 471.743 84.3624 455.506 82.892 436.946C81.4215 418.386 65.1838 404.533 46.624 406.003C28.0642 407.473 14.2106 423.711 15.6811 442.271C17.1515 460.831 33.3892 474.684 51.949 473.214Z" fill="#C1B49A"/>
<path d="M49.4069 591.312C44.2644 591.414 39.1532 590.489 34.3724 588.592C29.5917 586.694 25.2375 583.862 21.5646 580.261C17.8917 576.66 14.974 572.363 12.9821 567.621C10.9902 562.879 9.96429 557.787 9.96429 552.643C9.96429 547.5 10.9902 542.408 12.9821 537.666C14.974 532.924 17.8917 528.626 21.5646 525.026C25.2375 521.425 29.5917 518.593 34.3724 516.695C39.1532 514.798 44.2644 513.873 49.4069 513.975H49.498V503.801H49.4069C36.451 503.801 24.0257 508.947 14.8645 518.109C5.70335 527.27 0.556641 539.695 0.556641 552.651C0.556641 565.607 5.70335 578.032 14.8645 587.193C24.0257 596.355 36.451 601.501 49.4069 601.501H49.498V591.312H49.4069Z" fill="#C1B49A"/>
<path d="M52.054 586.254C70.6138 584.784 84.4674 568.546 82.997 549.986C81.5265 531.427 65.2888 517.573 46.729 519.044C28.1692 520.514 14.3156 536.752 15.786 555.311C17.2565 573.871 33.4942 587.725 52.054 586.254Z" fill="#3E7B97"/>
<path d="M52.054 586.254C70.6138 584.784 84.4674 568.546 82.997 549.986C81.5265 531.427 65.2888 517.573 46.729 519.044C28.1692 520.514 14.3156 536.752 15.786 555.311C17.2565 573.871 33.4942 587.725 52.054 586.254Z" fill="#C1B49A"/>
<g clip-path="url(#clip4_1468_78421)">
<path d="M49.384 52.0002L49.384 149.701L323.504 149.701V52.0002L49.384 52.0002Z" fill="#F2F2F2"/>
<path d="M97.9016 108.765V95.7359H99.9941V106.889H105.956V108.765H97.9016ZM107.234 103.908C107.175 101.125 109.563 98.8154 112.347 98.8549C115.17 98.7957 117.558 101.165 117.499 103.908C117.558 106.652 115.17 109.041 112.347 108.982C109.563 109.041 107.175 106.652 107.234 103.908ZM115.367 103.928C115.367 102.132 114.044 100.75 112.366 100.75C110.649 100.75 109.346 102.132 109.346 103.928C109.346 105.725 110.649 107.067 112.347 107.067C114.064 107.067 115.367 105.685 115.367 103.928ZM132.262 99.072H134.473L130.169 108.982H129.459L126.419 102.527L123.379 108.982H122.668L118.364 99.072H120.575L123.122 105.409L126.063 98.8549H126.774L129.755 105.33L132.262 99.072ZM161.059 111.074V112.732C160.289 112.871 159.559 112.95 158.868 112.95C155.394 112.95 152.472 111.43 150.439 108.567C149.688 108.844 148.899 108.982 148.05 108.982C144.319 109.041 141.141 105.981 141.22 102.25C141.161 98.5193 144.339 95.4595 148.05 95.5187C151.742 95.4595 154.979 98.5193 154.9 102.25C154.9 104.461 153.873 106.416 152.156 107.659C153.952 110.028 156.183 111.153 159.203 111.153C159.539 111.153 160.171 111.134 161.059 111.074ZM148.07 107.067C150.735 107.067 152.748 105.014 152.748 102.25C152.748 99.4866 150.735 97.4336 148.05 97.4336C145.385 97.4336 143.391 99.4866 143.391 102.231C143.391 105.014 145.365 107.067 148.07 107.067ZM157.176 104.698V99.072H159.229V104.856C159.229 106.198 160.156 107.067 161.42 107.067C162.624 107.067 163.552 106.198 163.552 104.856V99.072H165.625V104.698C165.625 107.304 163.789 108.982 161.42 108.982C158.992 108.982 157.176 107.304 157.176 104.698ZM176.231 102.902V108.765H174.297V107.679C173.586 108.528 172.52 108.982 171.198 108.982C169.164 108.982 167.822 107.857 167.822 106.179C167.822 104.501 169.204 103.415 171.395 103.415H174.139V102.783C174.139 101.441 173.389 100.711 172.066 100.711C170.98 100.711 170.191 101.184 169.381 102.152L168.177 100.928C169.144 99.5261 170.586 98.8549 172.263 98.8549C174.652 98.8549 176.231 100.296 176.231 102.902ZM174.139 105.093V104.915H171.652C170.546 104.915 169.934 105.31 169.934 106.1C169.934 106.909 170.625 107.383 171.632 107.383C173.033 107.383 174.139 106.416 174.139 105.093ZM179.116 108.765V93.9592H181.189V108.765H179.116ZM184.186 108.765V99.072H186.259V108.765H184.186ZM183.811 95.4595C183.811 94.6896 184.443 94.0777 185.232 94.0777C186.002 94.0777 186.634 94.6896 186.634 95.4595C186.634 96.2294 186.002 96.8216 185.232 96.8216C184.443 96.8216 183.811 96.2294 183.811 95.4595ZM195.02 107.008V108.765C194.369 108.903 193.797 108.982 193.303 108.982C191.072 108.982 189.73 107.876 189.73 105.606V100.868H188.151V99.072H189.73V96.5255H191.823V99.072H194.705V100.868H191.823V105.428C191.823 106.672 192.474 107.106 193.737 107.106C194.033 107.106 194.448 107.067 195.02 107.008ZM203.873 99.072H206.084L201.366 109.87C200.556 111.706 199.471 112.535 197.813 112.535C197.28 112.535 196.747 112.476 196.214 112.338V110.581C196.826 110.64 197.201 110.66 197.358 110.66C198.326 110.66 198.997 110.324 199.471 109.238L199.866 108.33L195.996 99.072H198.227L201.01 106.119L203.873 99.072ZM212.837 102.25C212.758 98.5193 215.976 95.4595 219.687 95.5187C222.076 95.5187 224.148 96.6834 225.274 98.5193L223.694 99.684C222.767 98.2429 221.424 97.4336 219.707 97.4336C217.042 97.4336 215.009 99.4866 215.009 102.25C215.009 105.014 217.042 107.067 219.707 107.067C221.424 107.067 222.767 106.258 223.694 104.817L225.274 105.981C224.168 107.817 222.115 108.982 219.687 108.982C215.976 109.041 212.758 105.981 212.837 102.25ZM233.186 99.072V100.908H232.554C230.915 100.908 229.711 101.875 229.711 103.593V108.765H227.638V99.072H229.573V100.335C230.264 99.4669 231.29 98.9733 232.396 98.9733C232.692 98.9733 232.949 99.0128 233.186 99.072ZM234.236 103.908C234.177 101.125 236.566 98.8154 239.349 98.8549C242.172 98.7957 244.561 101.165 244.502 103.908C244.561 106.652 242.172 109.041 239.349 108.982C236.566 109.041 234.177 106.652 234.236 103.908ZM242.37 103.928C242.37 102.132 241.047 100.75 239.369 100.75C237.652 100.75 236.349 102.132 236.349 103.928C236.349 105.725 237.652 107.067 239.349 107.067C241.067 107.067 242.37 105.685 242.37 103.928ZM256.945 103.908C256.945 106.81 254.932 108.982 252.188 108.982C250.865 108.982 249.72 108.469 248.951 107.58V112.318H246.878V99.072H248.812V100.434C249.523 99.4274 250.767 98.8549 252.188 98.8549C254.932 98.8549 256.945 101.046 256.945 103.908ZM254.813 103.928C254.813 102.073 253.53 100.75 251.852 100.75C250.332 100.75 248.931 101.796 248.931 103.908C248.931 106.04 250.332 107.087 251.852 107.087C253.511 107.087 254.813 105.784 254.813 103.928ZM258.423 107.106L259.608 105.804C260.457 106.692 261.305 107.185 262.332 107.185C263.22 107.185 263.891 106.81 263.891 106.1C263.891 105.527 263.477 105.29 262.529 104.896L261.542 104.481C259.825 103.77 259.015 103.02 259.015 101.658C259.015 99.9209 260.457 98.8549 262.431 98.8549C263.832 98.8549 264.938 99.3484 265.786 100.355L264.661 101.638C264.049 101.007 263.24 100.651 262.391 100.651C261.582 100.651 261.068 100.967 261.068 101.579C261.068 102.073 261.404 102.329 262.352 102.724L263.279 103.099C265.115 103.869 265.925 104.659 265.925 106.021C265.925 106.949 265.589 107.679 264.898 108.212C264.207 108.725 263.358 108.982 262.332 108.982C260.674 108.982 259.292 108.232 258.423 107.106Z" fill="#262261"/>
</g>
<path d="M49.3004 139.65C44.1579 139.752 39.0467 138.827 34.266 136.93C29.4853 135.032 25.131 132.2 21.4582 128.599C17.7853 124.998 14.8675 120.701 12.8757 115.959C10.8838 111.217 9.85785 106.125 9.85785 100.981C9.85785 95.8378 10.8838 90.7459 12.8757 86.0037C14.8675 81.2615 17.7853 76.9643 21.4582 73.3635C25.131 69.7626 29.4853 66.9306 34.266 65.0331C39.0467 63.1356 44.1579 62.2107 49.3004 62.3126H49.3915V52.1387H49.3004C36.3445 52.1387 23.9193 57.2854 14.7581 66.4466C5.5969 75.6078 0.450195 88.033 0.450195 100.989C0.450195 113.945 5.5969 126.37 14.7581 135.531C23.9193 144.692 36.3445 149.839 49.3004 149.839H49.3915V139.65H49.3004Z" fill="#C1B49A"/>
<path d="M51.9603 134.598C70.52 133.127 84.3737 116.89 82.9032 98.3297C81.4327 79.77 65.195 65.9163 46.6352 67.3868C28.0755 68.8573 14.2218 85.095 15.6923 103.655C17.1628 122.215 33.4005 136.068 51.9603 134.598Z" fill="#3E7B97"/>
<path d="M51.9603 134.598C70.52 133.127 84.3737 116.89 82.9032 98.3297C81.4327 79.77 65.195 65.9163 46.6352 67.3868C28.0755 68.8573 14.2218 85.095 15.6923 103.655C17.1628 122.215 33.4005 136.068 51.9603 134.598Z" fill="#C1B49A"/>
<path d="M38.0332 106.318C37.9937 106.743 37.8861 107.158 37.7143 107.548C36.6969 109.067 35.6036 110.373 34.5254 111.815C34.0222 111.38 33.6819 110.787 33.5604 110.133C33.439 109.479 33.5437 108.803 33.8573 108.216C34.4147 107.371 34.7379 106.393 34.7939 105.382C34.8499 104.371 34.6368 103.363 34.1762 102.461C32.0199 103.266 32.0199 103.266 30.9722 105.787C30.5971 105.515 30.2893 105.16 30.0723 104.751C29.8554 104.342 29.7349 103.888 29.7203 103.425C29.7056 102.962 29.7971 102.501 29.9878 102.079C30.1785 101.657 30.4632 101.284 30.8203 100.988C31.4383 100.532 31.9553 99.9531 32.3388 99.2876C32.6743 98.4102 33.3344 97.6953 34.1824 97.2911C35.0304 96.8869 36.0014 96.8242 36.8943 97.1162C37.3003 97.2386 37.7335 97.2386 38.1395 97.1162C42.3306 95.1725 45.8231 96.2658 48.1464 100.29C48.2527 100.502 48.3742 100.7 48.5109 100.928C51.2138 96.7365 54.1445 95.4458 58.1534 96.691C58.4906 96.7575 58.814 96.8807 59.11 97.0554C59.6786 97.5636 60.3689 97.9159 61.114 98.0782C61.859 98.2405 62.6334 98.2073 63.3618 97.9817C64.6677 97.5262 65.6396 98.6195 66.0192 100.092C66.2153 100.804 66.5919 101.452 67.1125 101.975C67.4362 102.326 67.6836 102.739 67.8393 103.19C67.995 103.64 68.0554 104.118 68.0169 104.594C67.9784 105.069 67.8417 105.531 67.6154 105.951C67.3892 106.37 67.0783 106.739 66.7025 107.032C66.247 105.772 66.824 103.995 64.4703 103.631C64.6407 104.52 64.9159 105.387 65.2903 106.212C65.6484 106.755 65.8007 107.409 65.72 108.055C65.6393 108.7 65.3308 109.296 64.85 109.735C64.0917 110.894 63.4701 112.138 62.9974 113.44C62.3542 113.001 61.891 112.345 61.693 111.591C61.4949 110.838 61.5752 110.039 61.9192 109.34C62.3179 108.703 62.5294 107.966 62.5294 107.214C62.5294 106.462 62.3179 105.726 61.9192 105.088C61.7143 104.54 61.7143 103.936 61.9192 103.388C62.4659 101.489 62.3596 101.004 60.4007 99.5306C60.5144 100.326 60.7025 101.109 60.9626 101.869C61.261 102.413 61.3546 103.046 61.2264 103.654C61.0983 104.261 60.7569 104.802 60.2641 105.179C59.3612 106.291 58.5583 107.48 57.8648 108.733C57.3806 108.296 57.0391 107.723 56.8848 107.089C56.7304 106.456 56.7703 105.79 56.9993 105.179C57.1307 104.704 57.3468 104.257 57.6371 103.858C57.9243 103.501 58.1098 103.072 58.1739 102.618C58.2381 102.163 58.1785 101.7 58.0015 101.277C57.8631 100.076 57.8631 98.8635 58.0015 97.6628C53.446 95.7343 49.1031 98.7865 49.0272 104.42H56.7715C56.6045 105.726 56.4982 106.865 56.316 107.989C55.7541 111.603 55.1315 115.202 54.6001 118.816C54.4482 119.757 54.1445 120.167 53.0816 120.137C50.0445 120.137 47.1442 120.137 44.1831 120.137C43.2113 120.137 42.8165 119.879 42.6646 118.861C42.1483 115.202 41.5106 111.557 40.9183 107.898C40.8424 107.366 40.7209 106.85 40.5539 105.999L39.5213 108.642L38.0028 106.379C38.5647 105.073 39.1265 103.782 39.6428 102.476C39.7266 102.101 39.7266 101.713 39.6428 101.338C39.4606 100.123 39.2328 98.908 38.9898 97.5413C38.3976 98.1487 37.6536 98.8169 37.031 99.5913C36.8901 99.7726 36.7867 99.98 36.7267 100.202C36.6667 100.423 36.6515 100.654 36.6817 100.882C37.1069 102.659 37.5928 104.481 38.0332 106.318ZM55.2682 108.125H41.8598L43.6365 119.028H53.5978L55.2682 108.125ZM47.8731 104.329C48.4501 100.563 45.0639 96.7365 41.6928 97.0402L42.8317 104.329H47.8731ZM41.0398 105.407C41.632 106.136 42.0117 107.017 42.4065 107.017C46.7342 107.123 51.0468 107.093 55.4201 107.093L55.7086 105.271H42.5887L41.0398 105.407ZM63.1948 103.145H62.6178C62.7029 103.983 62.8864 104.809 63.1644 105.605C63.4451 106.061 63.5937 106.587 63.5937 107.123C63.5937 107.659 63.4451 108.185 63.1644 108.642C62.8486 109.308 62.6189 110.012 62.4811 110.737C63.2455 110.088 63.9287 109.348 64.5159 108.535C64.6981 108.277 64.9411 107.852 64.8651 107.609C64.364 106.166 63.7566 104.663 63.1948 103.145ZM59.2011 98.5891H58.8063C58.6763 99.3836 58.6763 100.194 58.8063 100.988C59.0735 101.512 59.1827 102.103 59.1207 102.688C59.0587 103.273 58.8281 103.827 58.4571 104.284C58.1451 104.749 57.9094 105.262 57.7585 105.802C58.3356 105.362 59.1404 104.8 59.8693 104.162C60.0148 104.036 60.1309 103.879 60.2096 103.704C60.2883 103.528 60.3276 103.337 60.3248 103.145C60.0515 101.581 59.6719 100.062 59.2011 98.5284V98.5891ZM39.2176 105.574L39.0961 105.316C39.9038 104.856 40.6533 104.3 41.3283 103.661C41.6507 103.112 41.764 102.465 41.6472 101.839C41.5417 100.917 41.3743 100.004 41.1461 99.1054C41.055 98.6802 40.9183 98.255 40.8121 97.845H40.2046C40.1441 98.6487 40.2003 99.4568 40.3717 100.244C40.663 100.784 40.7842 101.399 40.7191 102.009C40.654 102.619 40.4059 103.195 40.0072 103.661C39.6701 104.244 39.405 104.866 39.2176 105.513V105.574ZM34.6621 108.945C35.1025 108.596 35.7099 108.11 36.3477 107.67C36.5508 107.563 36.7286 107.414 36.8689 107.233C37.0092 107.051 37.1087 106.842 37.1606 106.618C37.2125 106.395 37.2156 106.163 37.1696 105.938C37.1237 105.713 37.0298 105.501 36.8943 105.316C36.6575 104.539 36.4998 103.741 36.4236 102.932L36.1502 101.581H35.6643C35.5884 102.234 35.2391 103.023 35.4669 103.539C35.8521 104.223 36.0125 105.01 35.9253 105.789C35.8381 106.569 35.5077 107.301 34.981 107.882C34.7912 108.184 34.6815 108.529 34.6621 108.885V108.945ZM30.8203 102.644L30.957 102.886C31.9535 102.497 32.8775 101.942 33.6903 101.246C34.2667 100.259 34.6868 99.1887 34.9354 98.0728L34.7836 97.8754L30.8203 102.644ZM66.991 103.524C66.8696 103.281 66.8088 102.902 66.6114 102.811C66.1002 102.528 65.6758 102.112 65.3841 101.606C65.0924 101.1 64.9444 100.524 64.9562 99.9406C64.9442 99.7592 64.894 99.5823 64.8088 99.4217C64.7237 99.261 64.6056 99.1202 64.4622 99.0084C64.3188 98.8965 64.1535 98.8163 63.9769 98.7728C63.8004 98.7293 63.6166 98.7237 63.4377 98.7561C63.9085 100.836 64.3033 103.038 66.991 103.524Z" fill="white"/>
<path d="M53.7954 81.2925C55.3139 82.158 55.7239 83.4488 54.6306 84.7091C54.3691 84.9105 54.1573 85.1693 54.0116 85.4655C53.8658 85.7617 53.79 86.0873 53.79 86.4174C53.79 86.7475 53.8658 87.0732 54.0116 87.3694C54.1573 87.6656 54.3691 87.9243 54.6306 88.1257C55.6935 89.2494 55.1621 90.7224 53.6132 91.5727C53.5373 91.4513 53.3702 91.269 53.4006 91.2235C53.6291 90.9594 53.8034 90.6528 53.9133 90.3213C54.0233 89.9898 54.0669 89.6398 54.0415 89.2915C54.0161 88.9431 53.9223 88.6032 53.7654 88.2911C53.6085 87.9791 53.3917 87.701 53.1273 87.4728C52.9677 87.0655 52.9065 86.6263 52.9488 86.1909C52.991 85.7556 53.1354 85.3363 53.3702 84.9673C54.0991 83.8739 54.6154 82.9932 53.6436 81.824C53.598 81.7632 53.7195 81.5658 53.7954 81.2925Z" fill="white"/>
<path d="M44.4869 93.8971C43.1051 93.6693 42.5888 92.9404 42.847 91.923C42.9796 91.4472 43.2069 91.0031 43.5151 90.6171C43.6814 90.4537 43.811 90.2567 43.8952 90.0393C43.9794 89.8219 44.0162 89.589 44.0033 89.3562C43.9904 89.1234 43.9279 88.896 43.8202 88.6893C43.7124 88.4825 43.5618 88.3011 43.3784 88.1571C42.1788 86.8056 42.3003 85.8034 43.6669 84.8164C43.6669 85.0746 43.9099 85.3479 43.834 85.4694C43.5906 85.847 43.5022 86.3039 43.587 86.7451C43.6718 87.1863 43.9235 87.5778 44.2895 87.8382C44.6668 88.1331 44.9197 88.5588 44.9984 89.0311C45.0771 89.5034 44.9759 89.988 44.7147 90.3893C43.9099 91.513 43.0899 92.4697 44.4869 93.8971Z" fill="white"/>
<path d="M49.194 88.3236C48.8899 88.264 48.6044 88.1325 48.3615 87.9401C48.1185 87.7477 47.925 87.5 47.7972 87.2177C47.6694 86.9354 47.611 86.6266 47.6268 86.317C47.6426 86.0075 47.7322 85.7063 47.8881 85.4384C48.9207 83.2518 48.9207 83.2518 48.6474 81.46C48.8553 81.4709 49.0588 81.5245 49.2451 81.6175C49.4315 81.7104 49.5967 81.8407 49.7306 82.0002C49.8645 82.1597 49.9641 82.345 50.0233 82.5446C50.0825 82.7443 50.1 82.954 50.0748 83.1607C50.056 83.6 49.942 84.0301 49.7407 84.421C48.6625 86.4103 48.6474 86.4103 49.194 88.3236Z" fill="white"/>
<path d="M49.9535 88.9609C49.9814 89.4786 49.8986 89.9963 49.7105 90.4794C48.9665 91.5272 48.3439 92.5294 49.422 93.8505C47.2809 93.6076 47.4024 92.2105 49.9535 88.9609Z" fill="white"/>
<path d="M44.3348 83.9213L43.3782 81.5069L43.773 81.1729C44.1867 81.5637 44.5399 82.0141 44.8207 82.5091C44.9181 82.9851 44.9181 83.4758 44.8207 83.9517L44.3348 83.9213Z" fill="white"/>
<path d="M49.3004 252.473C44.1579 252.575 39.0467 251.65 34.266 249.753C29.4853 247.855 25.131 245.023 21.4582 241.422C17.7853 237.822 14.8675 233.524 12.8757 228.782C10.8838 224.04 9.85785 218.948 9.85785 213.805C9.85785 208.661 10.8838 203.569 12.8757 198.827C14.8675 194.085 17.7853 189.788 21.4582 186.187C25.131 182.586 29.4853 179.754 34.266 177.856C39.0467 175.959 44.1579 175.034 49.3004 175.136H49.3915V164.962H49.3004C36.3445 164.962 23.9193 170.109 14.7581 179.27C5.5969 188.431 0.450195 200.856 0.450195 213.812C0.450195 226.768 5.5969 239.193 14.7581 248.354C23.9193 257.516 36.3445 262.662 49.3004 262.662H49.3915V252.473H49.3004Z" fill="#C1B49A"/>
<path d="M51.9549 247.389C70.5147 245.919 84.3683 229.681 82.8978 211.121C81.4274 192.561 65.1896 178.708 46.6299 180.178C28.0701 181.649 14.2165 197.887 15.6869 216.446C17.1574 235.006 33.3951 248.86 51.9549 247.389Z" fill="#3E7B97"/>
<path d="M51.9549 247.389C70.5147 245.919 84.3683 229.681 82.8978 211.121C81.4274 192.561 65.1896 178.708 46.6299 180.178C28.0701 181.649 14.2165 197.887 15.6869 216.446C17.1574 235.006 33.3951 248.86 51.9549 247.389Z" fill="#C1B49A"/>
<path d="M65.8674 196.289H67.1278L67.3555 196.365C67.8651 196.454 68.3518 196.643 68.7872 196.922C69.2227 197.201 69.5981 197.564 69.8914 197.99C70.2366 198.608 70.5311 199.253 70.7722 199.918V201.103L70.6355 201.543C70.5085 202.103 70.2641 202.629 69.9186 203.087C69.573 203.545 69.1342 203.925 68.6311 204.2C68.1386 204.44 67.6314 204.648 67.1126 204.823V207.647H67.2492C68.1177 207.781 68.9221 208.184 69.5488 208.8C70.1755 209.416 70.5929 210.213 70.7418 211.079C70.7578 211.148 70.7833 211.215 70.8177 211.277V212.461C70.7654 212.59 70.7198 212.722 70.6811 212.856C70.5256 213.488 70.2263 214.075 69.8065 214.572C69.3867 215.068 68.8577 215.462 68.2609 215.72C67.6641 215.979 67.0156 216.096 66.366 216.063C65.7163 216.03 65.0832 215.847 64.5159 215.528C64.1681 215.34 63.7645 215.28 63.3771 215.361V221.435H66.3078C66.7937 221.435 66.9911 221.618 66.9911 222.104V226.067C66.9911 226.553 66.7937 226.72 66.3078 226.735H63.4074C63.4016 227.283 63.2598 227.821 62.9948 228.301C62.7298 228.781 62.3498 229.187 61.8889 229.484C61.4856 229.7 61.0698 229.893 60.6437 230.061H59.5201L59.3378 229.969C58.651 229.801 58.0378 229.414 57.5911 228.866C57.1444 228.318 56.8887 227.639 56.8627 226.932C56.8679 226.852 56.8679 226.77 56.8627 226.689H44.7147C44.5619 227.252 44.3742 227.805 44.1528 228.345C43.9117 228.769 43.5821 229.136 43.1865 229.422C42.7909 229.707 42.3384 229.905 41.8599 230H40.7514C40.0174 229.803 39.3541 229.403 38.8381 228.846C38.334 228.234 38.0552 227.467 38.0484 226.674H35.3759C34.5711 226.674 34.4648 226.568 34.4648 225.778V203.654H32.764C32.6729 203.654 32.5363 203.73 32.5211 203.806C32.3692 204.155 32.0959 204.2 31.7618 204.2C30.4863 204.2 29.2259 204.2 27.9656 204.2C27.6271 204.243 27.2843 204.17 26.9923 203.994C26.7003 203.817 26.4761 203.548 26.356 203.229V201.118C26.5002 200.804 26.7426 200.545 27.0466 200.381C27.3506 200.217 27.6998 200.155 28.0415 200.207C29.2411 200.207 30.4407 200.207 31.6403 200.207C32.0959 200.207 32.4452 200.207 32.5666 200.753H37.2436C37.9877 200.753 38.094 200.875 38.094 201.619V221.466H40.6754V215.392C39.7795 215.316 39.734 215.255 39.734 214.39V212.279C39.734 211.459 39.734 211.398 40.5995 211.322V205.248C39.6732 205.172 39.658 205.142 39.658 204.231V202.029C39.658 201.346 39.7947 201.209 40.4628 201.209H49.3613V199.827C49.3613 199.038 49.4524 198.946 50.2268 198.946C54.1901 198.946 58.1534 198.946 62.1167 198.946C62.2321 198.96 62.3489 198.935 62.4481 198.874C62.5473 198.814 62.6232 198.721 62.6634 198.612C63.0917 197.727 63.825 197.026 64.7285 196.638C65.1015 196.501 65.4817 196.385 65.8674 196.289ZM35.4973 225.733H37.8207C37.9281 225.745 38.0366 225.72 38.1278 225.662C38.2191 225.604 38.2876 225.517 38.3218 225.414C38.5865 224.861 39.0022 224.395 39.5207 224.068C40.0393 223.742 40.6396 223.568 41.2525 223.568C41.8653 223.568 42.4657 223.742 42.9842 224.068C43.5028 224.395 43.9184 224.861 44.1832 225.414C44.2203 225.518 44.2916 225.606 44.3854 225.664C44.4793 225.722 44.59 225.746 44.6995 225.733H56.6349C56.7419 225.743 56.8492 225.717 56.9399 225.659C57.0305 225.601 57.0995 225.515 57.136 225.414C57.3897 224.863 57.7967 224.397 58.3083 224.071C58.82 223.745 59.4146 223.573 60.0212 223.577C60.6109 223.542 61.198 223.68 61.7105 223.974C62.2229 224.268 62.6385 224.705 62.9063 225.232C62.9681 225.404 63.0889 225.549 63.2474 225.641C63.4058 225.732 63.5916 225.765 63.7719 225.733C64.3185 225.733 64.8804 225.733 65.427 225.733H65.8218V222.59H35.4518L35.4973 225.733ZM65.8674 204.899L63.9085 203.973C63.7162 203.866 63.5045 203.799 63.2859 203.775H50.5609V211.368H62.3445L62.6482 210.199H61.7826C61.7119 210.208 61.6399 210.202 61.5721 210.179C61.5043 210.157 61.4424 210.119 61.3912 210.07C61.34 210.02 61.3008 209.959 61.2766 209.892C61.2523 209.825 61.2436 209.753 61.2512 209.682C61.2512 209.348 61.4637 209.181 61.7978 209.166H63.0582C63.1621 209.198 63.2731 209.198 63.3771 209.166L64.5311 208.179H57.713C57.5628 208.21 57.4077 208.21 57.2575 208.179C57.1056 208.073 56.9082 207.875 56.9082 207.723C56.952 207.52 57.0714 207.341 57.2423 207.222C57.3182 207.222 57.5005 207.222 57.6371 207.222H64.3185C64.5535 207.203 64.7882 207.262 64.9867 207.389C65.1233 207.511 65.1385 207.784 65.2144 208.012L65.9889 207.814L65.8674 204.899ZM37.031 221.496V201.756H35.5125V221.496H37.031ZM66.5659 215.103C67.2045 215.093 67.8256 214.893 68.3494 214.527C68.8731 214.162 69.2758 213.648 69.5055 213.052C69.7353 212.456 69.7817 211.805 69.6389 211.183C69.496 210.56 69.1704 209.995 68.7038 209.559C68.2371 209.123 67.6508 208.836 67.0201 208.736C66.3894 208.635 65.743 208.725 65.164 208.995C64.585 209.264 64.0997 209.701 63.7705 210.248C63.4413 210.795 63.2831 211.428 63.3163 212.066C63.3595 212.895 63.7222 213.674 64.3283 214.241C64.9343 214.807 65.7365 215.116 66.5659 215.103ZM62.2837 200.04H50.5609V202.697H62.8608C62.4024 201.891 62.2011 200.964 62.2837 200.04ZM62.2837 215.437H58.6241C58.6241 216.318 58.6241 217.168 58.6241 218.019C58.6241 218.581 58.1686 218.839 57.7434 218.474C57.3182 218.11 56.6501 217.882 56.1186 218.474C56.0402 218.536 55.9454 218.574 55.8458 218.583C55.7463 218.593 55.6462 218.573 55.5577 218.526C55.4693 218.479 55.3963 218.408 55.3476 218.321C55.2989 218.233 55.2766 218.134 55.2834 218.034C55.2834 217.654 55.2834 217.275 55.2834 216.895V215.377H54.676V219.659H62.2685L62.2837 215.437ZM49.4676 219.704V215.437H45.808C45.808 216.318 45.808 217.184 45.808 218.034C45.808 218.535 45.3524 218.824 45.0184 218.52C44.9105 218.381 44.7723 218.269 44.6144 218.192C44.4565 218.114 44.283 218.074 44.1073 218.074C43.9315 218.074 43.758 218.114 43.6001 218.192C43.4422 218.269 43.304 218.381 43.1962 218.52C42.8925 218.808 42.4521 218.52 42.3913 218.125C42.3913 217.958 42.3913 217.791 42.3913 217.624V215.437H41.7839V219.704H49.4676ZM45.8687 205.294C45.8687 206.159 45.8687 207.01 45.8687 207.845C45.8687 207.951 45.844 208.056 45.7966 208.15C45.7491 208.245 45.6803 208.328 45.5954 208.392C45.5026 208.443 45.398 208.471 45.2917 208.471C45.1854 208.471 45.0808 208.443 44.988 208.392C44.8899 208.268 44.7652 208.169 44.6232 208.1C44.4812 208.032 44.3256 207.996 44.168 207.996C44.0104 207.996 43.8548 208.032 43.7128 208.1C43.5708 208.169 43.4461 208.268 43.348 208.392C42.9532 208.756 42.4825 208.498 42.4673 207.951C42.4521 207.404 42.4673 206.509 42.4673 205.795C42.4759 205.653 42.4759 205.511 42.4673 205.37H41.8902V209.606H49.4828V205.355L45.8687 205.294ZM50.5609 215.422V221.496H53.5979V215.422C52.6564 215.27 52.6564 215.27 52.6564 214.299V212.431H51.5479V214.617C51.5479 215.21 51.4113 215.346 50.8494 215.377L50.5609 215.422ZM66.5659 203.745C67.1976 203.748 67.8161 203.564 68.3436 203.216C68.8711 202.869 69.2841 202.373 69.5306 201.791C69.7771 201.21 69.8461 200.568 69.7291 199.947C69.612 199.326 69.314 198.754 68.8726 198.302C68.4312 197.85 67.866 197.539 67.2482 197.407C66.6303 197.276 65.9873 197.33 65.4 197.562C64.8127 197.795 64.3073 198.196 63.9474 198.715C63.5875 199.235 63.389 199.849 63.3771 200.48C63.3647 201.326 63.6861 202.143 64.2715 202.754C64.8569 203.365 65.6593 203.721 66.5052 203.745H66.5659ZM40.8577 214.374H50.4242V212.507H40.8577V214.374ZM40.8577 202.363V204.231H49.4524V202.363H40.8577ZM62.2685 212.522H53.5979V214.374H62.9063L62.2685 212.522ZM43.5758 226.917C43.5758 226.479 43.4461 226.051 43.2032 225.687C42.9602 225.323 42.6149 225.039 42.2107 224.87C41.8064 224.702 41.3614 224.657 40.9318 224.742C40.5022 224.826 40.1071 225.036 39.7965 225.344C39.4858 225.653 39.2735 226.046 39.1862 226.476C39.099 226.905 39.1407 227.35 39.3062 227.755C39.4717 228.161 39.7535 228.508 40.116 228.753C40.4786 228.999 40.9058 229.131 41.3436 229.134C41.933 229.122 42.4937 228.878 42.9033 228.454C43.313 228.03 43.5384 227.461 43.5302 226.872L43.5758 226.917ZM57.9408 226.917C57.9448 227.21 58.0064 227.5 58.1223 227.769C58.2382 228.039 58.4059 228.282 58.616 228.487C58.8261 228.691 59.0745 228.852 59.3468 228.961C59.6192 229.069 59.9102 229.123 60.2034 229.119C60.7861 229.107 61.3406 228.866 61.747 228.448C62.1534 228.031 62.379 227.47 62.3748 226.887C62.3748 226.299 62.1413 225.735 61.7255 225.319C61.3097 224.903 60.7458 224.67 60.1578 224.67C59.5698 224.67 59.0059 224.903 58.5902 225.319C58.1744 225.735 57.9408 226.299 57.9408 226.887V226.917ZM31.4429 201.315H31.3063H27.7834C27.5404 201.315 27.4189 201.406 27.4341 201.665V202.09C27.4341 203.38 27.2519 203.183 28.5426 203.198H31.4733L31.4429 201.315ZM41.7839 210.654C41.6777 211.383 41.6777 211.383 42.3458 211.383H48.8602C49.4979 211.383 49.5283 211.383 49.3765 210.654H41.7839ZM41.7839 221.511H48.8754C49.5131 221.511 49.5587 221.511 49.3916 220.798H41.7991L41.7839 221.511ZM62.223 221.511V220.798H54.9494C54.6305 220.798 54.5394 220.889 54.5394 221.208C54.5394 221.527 54.7064 221.557 54.9646 221.557H61.8586L62.223 221.511ZM44.7602 207.025V205.339H43.4695V206.919C43.5466 206.819 43.6469 206.74 43.7615 206.688C43.8761 206.636 44.0016 206.613 44.1273 206.62C44.2529 206.628 44.3748 206.666 44.4824 206.731C44.5901 206.796 44.6802 206.887 44.745 206.995L44.7602 207.025ZM44.7602 217.077V215.468H43.4695V216.986C44.1224 216.728 44.1224 216.728 44.745 217.047L44.7602 217.077ZM56.2705 217.153C56.3472 217.055 56.4451 216.976 56.5569 216.922C56.6688 216.867 56.7915 216.839 56.9158 216.839C57.0402 216.839 57.1629 216.867 57.2747 216.922C57.3865 216.976 57.4845 217.055 57.5612 217.153V215.513H56.2705V217.153ZM32.5514 201.832V202.591H34.4648V201.832H32.5514Z" fill="white"/>
<path d="M55.42 206.007H51.9123C51.5782 206.007 51.3201 205.84 51.3201 205.476C51.3201 205.111 51.5782 204.959 51.9123 204.959H59.0037C59.353 204.959 59.5807 205.111 59.5959 205.491C59.6111 205.871 59.3681 206.007 58.9733 206.007H55.42Z" fill="white"/>
<path d="M55.4352 210.199H52.0793C51.6086 210.199 51.3656 210.016 51.3808 209.667C51.396 209.318 51.6238 209.166 52.0793 209.166H58.9581C59.4289 209.166 59.6718 209.363 59.6566 209.713C59.6415 210.062 59.4289 210.199 58.9733 210.199H55.4352Z" fill="white"/>
<path d="M53.2787 208.102H51.9272C51.578 208.102 51.3502 207.965 51.3198 207.6C51.2894 207.236 51.5476 207.069 51.9272 207.054H54.7061C54.7806 207.042 54.8567 207.048 54.9289 207.069C55.0011 207.091 55.0673 207.129 55.1228 207.18C55.1783 207.231 55.2215 207.294 55.2492 207.365C55.277 207.435 55.2886 207.51 55.2831 207.585C55.2831 207.95 55.0401 208.102 54.7061 208.102H53.2787Z" fill="white"/>
<path d="M63.1338 206.007H61.7824C61.4331 206.007 61.2054 205.855 61.1902 205.491C61.175 205.126 61.4028 204.959 61.7976 204.959H64.5309C64.9257 204.959 65.1686 205.172 65.1686 205.491C65.1686 205.81 64.9105 206.007 64.5157 206.007H63.1338Z" fill="white"/>
<path d="M66.2011 211.961C66.7933 211.323 67.3552 210.731 67.9322 210.153C67.9665 210.099 68.0123 210.053 68.0663 210.018C68.1204 209.983 68.1814 209.961 68.245 209.952C68.3087 209.944 68.3735 209.949 68.4349 209.968C68.4963 209.987 68.5527 210.019 68.6003 210.062C68.729 210.228 68.8033 210.43 68.8129 210.639C68.8129 210.715 68.7066 210.837 68.6307 210.913C67.9322 211.611 67.2489 212.31 66.5352 212.993C66.2011 213.327 65.9278 213.312 65.6241 212.993C65.3204 212.674 65.2293 212.522 65.047 212.264C64.9898 212.217 64.9437 212.158 64.9121 212.091C64.8804 212.024 64.864 211.951 64.864 211.877C64.864 211.803 64.8804 211.73 64.9121 211.663C64.9437 211.596 64.9898 211.537 65.047 211.49C65.1057 211.443 65.1738 211.409 65.2468 211.391C65.3198 211.373 65.3958 211.371 65.4695 211.386C65.5433 211.4 65.613 211.431 65.6738 211.475C65.7346 211.519 65.785 211.576 65.8215 211.642L66.2011 211.961Z" fill="white"/>
<path d="M54.3116 201.893H52.0794C51.6846 201.893 51.4417 201.68 51.4417 201.377C51.4417 201.073 51.6846 200.86 52.0946 200.86H56.5286C56.8779 200.86 57.1512 200.951 57.1664 201.361C57.1816 201.771 56.9538 201.893 56.5134 201.893H54.3116Z" fill="white"/>
<path d="M65.0778 201.345C65.1841 201.254 65.3207 201.027 65.5181 200.966C65.5832 200.945 65.6522 200.939 65.7199 200.949C65.7876 200.958 65.8523 200.983 65.9092 201.021C65.9661 201.059 66.0137 201.109 66.0485 201.168C66.0833 201.227 66.1045 201.292 66.1103 201.361C66.1103 201.361 66.1103 201.558 66.1103 201.588C66.1103 201.619 66.3989 201.816 66.5203 201.801C66.5932 201.78 66.6588 201.739 66.7098 201.682C66.7607 201.626 66.795 201.557 66.8088 201.482C66.7998 201.408 66.773 201.338 66.7306 201.277C66.6883 201.216 66.6318 201.167 66.5659 201.133C66.3709 201.049 66.1672 200.988 65.9585 200.951C65.7197 200.886 65.5056 200.752 65.3433 200.566C65.1811 200.379 65.078 200.148 65.0474 199.903C65.0059 199.636 65.0361 199.364 65.1348 199.113C65.2336 198.862 65.3973 198.642 65.6092 198.475C65.7611 198.354 65.8522 198.157 65.9889 198.035C66.1085 197.888 66.2745 197.787 66.4596 197.747C66.6266 197.747 66.7937 197.914 66.9303 198.035C67.0729 198.173 67.2002 198.326 67.31 198.491C67.5236 198.791 67.7067 199.111 67.8566 199.447C67.8881 199.516 67.903 199.592 67.9 199.668C67.8969 199.744 67.8761 199.818 67.8392 199.885C67.8023 199.951 67.7503 200.008 67.6873 200.051C67.6244 200.093 67.5524 200.121 67.477 200.131C67.4046 200.151 67.3284 200.155 67.2542 200.142C67.18 200.13 67.1097 200.1 67.0484 200.056C66.9871 200.013 66.9365 199.956 66.9003 199.89C66.864 199.824 66.8432 199.75 66.8392 199.675C66.8392 199.675 66.8392 199.508 66.8392 199.478C66.8392 199.447 66.5507 199.25 66.4292 199.28C66.3564 199.311 66.292 199.358 66.2418 199.419C66.1915 199.48 66.1568 199.552 66.1407 199.63C66.1407 199.721 66.2622 199.903 66.3685 199.948C66.591 200.035 66.8193 200.106 67.0518 200.161C67.2996 200.234 67.5181 200.384 67.6762 200.588C67.8343 200.793 67.924 201.042 67.9325 201.3C67.9516 201.552 67.9074 201.805 67.804 202.036C67.7006 202.266 67.5412 202.467 67.3403 202.621C67.1885 202.727 67.1126 202.925 66.9759 203.046C66.8392 203.168 66.6418 203.35 66.4748 203.35C66.3077 203.35 66.1559 203.137 66.0192 203.001C65.8826 202.864 65.8522 202.742 65.7307 202.667C65.5187 202.52 65.3475 202.322 65.2332 202.09C65.119 201.859 65.0655 201.603 65.0778 201.345Z" fill="white"/>
<path d="M41.2976 228.375C40.8948 228.375 40.5086 228.215 40.2238 227.93C39.939 227.645 39.7791 227.259 39.7791 226.856C39.7791 226.454 39.939 226.067 40.2238 225.783C40.5086 225.498 40.8948 225.338 41.2976 225.338C41.7003 225.338 42.0865 225.498 42.3713 225.783C42.6561 226.067 42.8161 226.454 42.8161 226.856C42.8161 227.259 42.6561 227.645 42.3713 227.93C42.0865 228.215 41.7003 228.375 41.2976 228.375ZM41.8442 226.948V226.765C41.662 226.644 41.5101 226.446 41.3127 226.416C41.1153 226.386 40.842 226.598 40.842 226.887C40.842 227.175 41.0546 227.388 41.3431 227.312C41.6316 227.236 41.6772 227.084 41.8442 226.948Z" fill="white"/>
<path d="M61.6308 226.872C61.6308 227.275 61.4708 227.661 61.186 227.946C60.9012 228.231 60.515 228.391 60.1123 228.391C59.7095 228.391 59.3233 228.231 59.0385 227.946C58.7537 227.661 58.5938 227.275 58.5938 226.872C58.5938 226.469 58.7537 226.083 59.0385 225.798C59.3233 225.513 59.7095 225.354 60.1123 225.354C60.515 225.354 60.9012 225.513 61.186 225.798C61.4708 226.083 61.6308 226.469 61.6308 226.872ZM59.5808 226.766V226.963C59.763 227.1 59.9148 227.282 60.1123 227.312C60.3097 227.343 60.583 227.145 60.583 226.857C60.5904 226.797 60.5841 226.737 60.5645 226.68C60.545 226.623 60.5128 226.572 60.4703 226.529C60.4279 226.487 60.3763 226.454 60.3195 226.435C60.2627 226.415 60.2022 226.409 60.1426 226.416C59.9452 226.447 59.763 226.659 59.5808 226.766Z" fill="white"/>
<path d="M48.8502 365.328C43.7077 365.43 38.5965 364.505 33.8158 362.608C29.0351 360.71 24.6808 357.878 21.008 354.277C17.3351 350.677 14.4173 346.379 12.4255 341.637C10.4336 336.895 9.40765 331.803 9.40765 326.66C9.40765 321.516 10.4336 316.424 12.4255 311.682C14.4173 306.94 17.3351 302.643 21.008 299.042C24.6808 295.441 29.0351 292.609 33.8158 290.711C38.5965 288.814 43.7077 287.889 48.8502 287.991V277.802C35.8944 277.802 23.4691 282.948 14.3079 292.11C5.14671 301.271 0 313.696 0 326.652C0 339.608 5.14671 352.033 14.3079 361.194C23.4691 370.356 35.8944 375.502 48.8502 375.502V365.328Z" fill="#C1B49A"/>
<path d="M51.4136 360.256C69.9734 358.786 83.827 342.548 82.3566 323.988C80.8861 305.429 64.6484 291.575 46.0886 293.045C27.5288 294.516 13.6752 310.754 15.1457 329.313C16.6161 347.873 32.8539 361.727 51.4136 360.256Z" fill="#C1B49A"/>
<path d="M49.0476 329.917H48.2883V340.637C48.3145 341.04 48.1796 341.437 47.9134 341.74C47.6471 342.043 47.2712 342.229 46.8685 342.255C46.4658 342.281 46.0691 342.146 45.7659 341.88C45.4626 341.613 45.2775 341.238 45.2513 340.835C45.2513 340.683 45.2513 340.516 45.2513 340.364V322.142C45.2585 322.051 45.2585 321.96 45.2513 321.869H44.7198C44.7123 321.965 44.7123 322.061 44.7198 322.157V327.806C44.7198 328.201 44.7198 328.611 44.7198 329.021C44.7158 329.353 44.5813 329.669 44.3454 329.902C44.1094 330.135 43.7911 330.266 43.4595 330.266C43.2917 330.276 43.1235 330.252 42.9654 330.195C42.8073 330.138 42.6626 330.049 42.5402 329.934C42.4179 329.819 42.3204 329.679 42.2539 329.525C42.1874 329.371 42.1532 329.204 42.1536 329.036C42.1536 326.561 42.1536 324.101 42.1536 321.641C42.1995 320.551 42.6581 319.52 43.4363 318.756C44.2146 317.992 45.2543 317.552 46.3446 317.526H50.9913C52.1231 317.538 53.2045 317.996 54.0005 318.801C54.7966 319.605 55.2431 320.691 55.2431 321.823C55.2431 324.222 55.2431 326.607 55.2431 328.991C55.2472 329.326 55.1187 329.65 54.8856 329.892C54.6525 330.133 54.3335 330.273 53.9979 330.281C53.8326 330.292 53.667 330.268 53.5109 330.213C53.3548 330.158 53.2115 330.072 53.0896 329.96C52.9676 329.847 52.8695 329.712 52.8012 329.561C52.7329 329.41 52.6957 329.247 52.692 329.082C52.692 327.563 52.692 325.969 52.692 324.405V321.869H52.1605C52.1532 321.955 52.1532 322.041 52.1605 322.127V340.698C52.1605 341.101 52.0005 341.487 51.7157 341.772C51.431 342.057 51.0447 342.217 50.642 342.217C50.2393 342.217 49.853 342.057 49.5683 341.772C49.2835 341.487 49.1235 341.101 49.1235 340.698C49.1235 337.251 49.1235 333.789 49.1235 330.327L49.0476 329.917Z" fill="#F2F2F2"/>
<path d="M68.1955 323.084H67.7703C67.7628 323.205 67.7628 323.327 67.7703 323.449V337.388C67.7703 337.69 67.6503 337.98 67.4367 338.194C67.2231 338.407 66.9335 338.527 66.6314 338.527C66.3294 338.527 66.0397 338.407 65.8261 338.194C65.6125 337.98 65.4925 337.69 65.4925 337.388V329.158H64.8851V337.297C64.8741 337.584 64.7569 337.856 64.5565 338.06C64.356 338.265 64.0866 338.388 63.8006 338.405C63.5146 338.422 63.2325 338.332 63.0092 338.152C62.7858 337.973 62.6372 337.717 62.5922 337.434C62.5846 337.302 62.5846 337.171 62.5922 337.039V323.084H62.167C62.167 323.206 62.167 323.312 62.167 323.418V328.399C62.1795 328.533 62.1643 328.669 62.1222 328.798C62.0802 328.926 62.0122 329.044 61.9225 329.145C61.8328 329.247 61.7234 329.328 61.6009 329.385C61.4783 329.442 61.3454 329.473 61.2104 329.477C61.0797 329.483 60.9491 329.463 60.8267 329.416C60.7043 329.37 60.5926 329.299 60.4987 329.208C60.4048 329.117 60.3305 329.008 60.2805 328.887C60.2306 328.766 60.2059 328.636 60.2081 328.505V323.099C60.2061 322.663 60.2909 322.23 60.4575 321.827C60.624 321.423 60.8692 321.057 61.1786 320.749C61.488 320.441 61.8555 320.197 62.2598 320.032C62.6641 319.868 63.0971 319.785 63.5337 319.789H66.7833C67.2321 319.779 67.6784 319.859 68.095 320.027C68.5115 320.194 68.8897 320.445 69.2065 320.763C69.5232 321.081 69.7719 321.46 69.9375 321.878C70.1031 322.295 70.182 322.742 70.1695 323.19V328.399C70.1869 328.538 70.1745 328.679 70.1332 328.812C70.0918 328.946 70.0226 329.069 69.93 329.174C69.8373 329.279 69.7235 329.363 69.5959 329.421C69.4684 329.478 69.33 329.508 69.1901 329.508C69.0502 329.508 68.9118 329.478 68.7843 329.421C68.6567 329.363 68.5428 329.279 68.4502 329.174C68.3576 329.069 68.2883 328.946 68.247 328.812C68.2057 328.679 68.1933 328.538 68.2107 328.399V323.084H68.1955Z" fill="#F2F2F2"/>
<path d="M32.1616 329.158H31.615C31.6074 329.279 31.6074 329.401 31.615 329.522C31.615 332.089 31.615 334.67 31.615 337.236C31.6294 337.408 31.6057 337.581 31.5454 337.743C31.4852 337.904 31.3901 338.05 31.2667 338.171C31.1434 338.291 30.9949 338.383 30.832 338.439C30.669 338.496 30.4956 338.515 30.3242 338.497C30.0639 338.466 29.822 338.347 29.6394 338.159C29.4568 337.971 29.3447 337.725 29.322 337.464V323.418C29.322 323.038 29.322 323.023 28.8817 323.114V328.49C28.8883 328.669 28.8431 328.845 28.7515 328.999C28.6599 329.153 28.5258 329.276 28.3654 329.355C28.2147 329.448 28.0412 329.497 27.8643 329.497C27.6873 329.497 27.5139 329.448 27.3632 329.355C27.2263 329.275 27.1134 329.159 27.0361 329.02C26.9587 328.881 26.9196 328.725 26.9228 328.566C26.9228 326.683 26.9228 324.785 26.9228 322.902C26.9691 322.085 27.3244 321.317 27.9167 320.753C28.509 320.189 29.2938 319.871 30.1116 319.865C31.2961 319.865 32.4805 319.865 33.6498 319.865C34.4827 319.872 35.2804 320.202 35.875 320.786C36.4697 321.369 36.8151 322.16 36.8386 322.993C36.8386 324.845 36.8386 326.713 36.8386 328.566C36.8386 328.824 36.7362 329.071 36.554 329.253C36.3717 329.435 36.1245 329.538 35.8668 329.538C35.609 329.538 35.3618 329.435 35.1796 329.253C34.9973 329.071 34.8949 328.824 34.8949 328.566C34.8949 326.88 34.8949 325.18 34.8949 323.494V323.145H34.4394V337.358C34.4532 337.533 34.4256 337.709 34.3588 337.872C34.2921 338.035 34.188 338.18 34.0551 338.295C33.9221 338.41 33.764 338.493 33.5933 338.536C33.4227 338.579 33.2444 338.581 33.0727 338.542C32.7983 338.485 32.5538 338.33 32.3838 338.107C32.2137 337.884 32.1295 337.607 32.1464 337.328V329.158H32.1616Z" fill="#F2F2F2"/>
<path d="M58.7355 310.983V309.16C58.7355 309.081 58.7512 309.002 58.7817 308.928C58.8122 308.854 58.857 308.787 58.9134 308.731C58.9698 308.674 59.0367 308.63 59.1104 308.599C59.1841 308.569 59.2631 308.553 59.3429 308.553C59.4226 308.553 59.5016 308.569 59.5753 308.599C59.649 308.63 59.716 308.674 59.7724 308.731C59.8288 308.787 59.8735 308.854 59.9041 308.928C59.9346 309.002 59.9503 309.081 59.9503 309.16C59.9503 310.208 59.9503 311.256 59.9503 312.304C59.9599 312.392 59.9496 312.481 59.9202 312.564C59.8908 312.648 59.843 312.724 59.7803 312.787C59.7177 312.849 59.6417 312.897 59.5581 312.926C59.4746 312.956 59.3854 312.966 59.2973 312.957C58.2496 312.957 57.1866 312.957 56.1237 312.957C56.0394 312.965 55.9544 312.956 55.8738 312.93C55.7931 312.905 55.7185 312.863 55.6546 312.807C55.5906 312.752 55.5386 312.684 55.5018 312.608C55.465 312.532 55.444 312.449 55.4403 312.364C55.4403 311.985 55.7137 311.757 56.154 311.757H57.6725V311.666L57.4751 311.56C54.5672 309.245 50.9152 308.07 47.2031 308.254C43.491 308.439 39.9735 309.97 37.3094 312.562C37.1952 312.672 37.0613 312.759 36.9146 312.82C36.7904 312.858 36.6569 312.854 36.5356 312.807C36.4144 312.76 36.3125 312.674 36.2465 312.562C36.1688 312.44 36.1383 312.294 36.1607 312.152C36.1831 312.009 36.2568 311.879 36.3679 311.787C36.945 311.271 37.522 310.724 38.1446 310.269C41.104 308.075 44.7126 306.936 48.395 307.032C52.0773 307.129 55.6214 308.455 58.4622 310.8L58.7355 310.983Z" fill="#F2F2F2"/>
<path d="M37.3701 343.689V345.587C37.3701 345.748 37.3061 345.903 37.1922 346.017C37.0783 346.131 36.9238 346.195 36.7627 346.195C36.6016 346.195 36.4471 346.131 36.3332 346.017C36.2193 345.903 36.1553 345.748 36.1553 345.587V342.398C36.1553 341.988 36.383 341.73 36.7779 341.73H40.0275C40.1116 341.721 40.1968 341.73 40.2767 341.758C40.3567 341.786 40.4293 341.831 40.4892 341.891C40.5491 341.951 40.5946 342.024 40.6225 342.104C40.6503 342.184 40.6598 342.269 40.65 342.353C40.6463 342.435 40.6258 342.516 40.5897 342.591C40.5537 342.665 40.5028 342.731 40.4403 342.785C40.3777 342.839 40.3048 342.88 40.226 342.905C40.1472 342.93 40.0641 342.938 39.9819 342.93H38.4634C38.5066 342.992 38.5577 343.048 38.6152 343.097C40.9777 344.982 43.8601 346.1 46.8759 346.301C49.0399 346.48 51.2169 346.187 53.2566 345.442C55.2963 344.698 57.15 343.519 58.6899 341.988C58.9784 341.715 59.2213 341.654 59.4795 341.791C59.5998 341.839 59.6994 341.927 59.7606 342.041C59.8218 342.155 59.8405 342.287 59.8135 342.414C59.783 342.559 59.7088 342.691 59.601 342.793C57.0901 345.312 53.8073 346.916 50.2774 347.349C48.0364 347.678 45.7512 347.533 43.5697 346.924C41.3883 346.314 39.3589 345.254 37.613 343.811L37.3701 343.689Z" fill="#F2F2F2"/>
<path d="M48.7892 311.331C49.3448 311.337 49.8861 311.508 50.3447 311.821C50.8033 312.135 51.1585 312.578 51.3656 313.093C51.5726 313.609 51.6221 314.174 51.5079 314.718C51.3936 315.262 51.1206 315.759 50.7235 316.148C50.3264 316.536 49.823 316.799 49.277 316.901C48.7309 317.004 48.1667 316.942 47.6557 316.724C47.1447 316.506 46.7099 316.141 46.4062 315.676C46.1026 315.21 45.9437 314.665 45.9496 314.11C45.9516 313.74 46.0268 313.375 46.171 313.035C46.3151 312.694 46.5253 312.386 46.7894 312.128C47.0535 311.869 47.3662 311.666 47.7095 311.529C48.0528 311.392 48.4198 311.325 48.7892 311.331Z" fill="#F2F2F2"/>
<path d="M67.3911 317.177C67.3911 317.6 67.2659 318.014 67.0313 318.365C66.7967 318.717 66.4632 318.992 66.0728 319.154C65.6825 319.317 65.2527 319.36 64.8378 319.278C64.4229 319.197 64.0414 318.995 63.7414 318.697C63.4413 318.399 63.2362 318.019 63.1519 317.604C63.0676 317.19 63.1078 316.76 63.2675 316.369C63.4273 315.977 63.6993 315.642 64.0494 315.405C64.3995 315.167 64.812 315.039 65.2348 315.036C65.5178 315.032 65.7988 315.085 66.0612 315.191C66.3237 315.297 66.5623 315.454 66.7631 315.653C66.964 315.853 67.123 316.09 67.2308 316.352C67.3386 316.614 67.3931 316.894 67.3911 317.177Z" fill="#F2F2F2"/>
<path d="M31.934 319.288C31.5105 319.285 31.0975 319.156 30.747 318.919C30.3966 318.681 30.1246 318.345 29.9653 317.952C29.806 317.56 29.7667 317.129 29.8523 316.714C29.9378 316.3 30.1444 315.92 30.446 315.622C30.7475 315.325 31.1305 315.124 31.5464 315.044C31.9623 314.964 32.3925 315.01 32.7825 315.175C33.1726 315.34 33.505 315.616 33.7378 315.97C33.9706 316.324 34.0932 316.739 34.0902 317.162C34.0903 317.444 34.0343 317.723 33.9255 317.983C33.8168 318.243 33.6575 318.478 33.4569 318.676C33.2562 318.874 33.0183 319.03 32.7568 319.135C32.4954 319.24 32.2157 319.292 31.934 319.288Z" fill="#F2F2F2"/>
<path d="M49.3004 478.274C44.1579 478.376 39.0467 477.451 34.266 475.554C29.4853 473.656 25.131 470.824 21.4582 467.223C17.7853 463.622 14.8675 459.325 12.8757 454.583C10.8838 449.841 9.85785 444.749 9.85785 439.605C9.85785 434.462 10.8838 429.37 12.8757 424.628C14.8675 419.886 17.7853 415.588 21.4582 411.987C25.131 408.387 29.4853 405.555 34.266 403.657C39.0467 401.76 44.1579 400.835 49.3004 400.937H49.3915V390.763H49.3004C36.3445 390.763 23.9193 395.909 14.7581 405.071C5.5969 414.232 0.450195 426.657 0.450195 439.613C0.450195 452.569 5.5969 464.994 14.7581 474.155C23.9193 483.316 36.3445 488.463 49.3004 488.463H49.3915V478.274H49.3004Z" fill="#C1B49A"/>
<path d="M38.276 449.437C33.7535 447.14 29.6474 444.101 26.128 440.448C24.8676 439.142 24.8524 438.732 26.128 437.411C31.5187 431.99 37.5775 427.692 45.2156 426.037C49.6627 425.081 54.2938 425.473 58.5176 427.161C58.8734 427.352 59.287 427.404 59.6793 427.309C60.0715 427.214 60.4148 426.977 60.6435 426.645C61.6609 425.521 62.7694 424.473 63.8628 423.41C64.4398 422.833 65.0624 421.983 65.9128 422.894C66.7631 423.805 65.9128 424.412 65.3205 424.959C64.1513 426.068 62.9669 427.146 61.6458 428.36L63.2554 429.302C67.1252 431.478 70.651 434.216 73.7179 437.426C74.9327 438.686 74.9478 439.096 73.7179 440.296C68.1449 445.96 61.8432 450.364 53.8558 451.897C49.6133 452.665 45.2401 452.223 41.2371 450.622C40.8997 450.441 40.5085 450.387 40.1349 450.471C39.7613 450.554 39.4303 450.77 39.2023 451.077C38.0959 452.318 36.9143 453.489 35.6642 454.585C35.415 454.77 35.125 454.893 34.8185 454.943C34.512 454.994 34.198 454.97 33.9027 454.874C33.189 454.372 33.5838 453.659 34.1457 453.127L38.276 449.437ZM57.4547 433.068C58.8033 434.864 59.4862 437.072 59.3865 439.316C59.2867 441.559 58.4107 443.699 56.908 445.368C53.6584 448.875 49.68 449.24 44.1374 446.567L42.0571 448.526C51.3048 452.915 63.3161 448.344 72.1234 438.899C69.6235 436.196 66.7375 433.878 63.5591 432.02C59.4439 429.697 60.9624 429.499 57.4547 433.068ZM42.4215 444.851C39.7034 439.628 39.916 435.619 43.2415 432.309C44.8234 430.661 46.9489 429.642 49.2243 429.441C51.4998 429.24 53.771 429.87 55.6173 431.215L58.0317 429.393C48.04 424.929 36.0894 430.016 27.8135 439.051C30.3418 441.725 33.2292 444.035 36.3931 445.914C40.493 448.238 39.0201 448.253 42.3608 444.973C42.3899 444.938 42.4107 444.896 42.4215 444.851ZM45.7774 444.851C47.2184 445.931 49.0154 446.423 50.8052 446.228C52.595 446.034 54.2443 445.167 55.4199 443.804C57.7584 441.177 57.9102 437.001 55.8299 434.875L45.7774 444.851ZM43.94 442.893L54.0077 433.007C52.6169 431.977 50.8931 431.5 49.1705 431.668C47.4479 431.836 45.8491 432.638 44.6841 433.918C42.2089 436.5 41.9356 440.645 43.94 442.877V442.893Z" fill="#F2F2F2"/>
<path d="M70.6048 544.346C68.6156 547.383 66.6415 550.42 64.5308 553.457C64.0785 553.933 63.4563 554.212 62.7997 554.232C61.6266 554.282 60.4759 554.569 59.4164 555.075C58.357 555.581 57.4108 556.296 56.6346 557.177C56.348 557.457 56.004 557.671 55.6264 557.805C55.2489 557.939 54.8468 557.989 54.4479 557.952C49.8924 557.071 45.3369 556.039 40.6903 555.052C40.4505 555.033 40.2171 554.966 40.0046 554.853C39.7922 554.741 39.6052 554.586 39.4556 554.397C39.3059 554.209 39.1967 553.992 39.1348 553.76C39.0729 553.527 39.0596 553.285 39.0959 553.047C39.1566 550.496 39.1566 547.965 39.0959 545.455C39.0959 544.179 39.5818 543.83 40.7966 543.723C41.8005 543.612 42.7634 543.263 43.6058 542.706C46.9162 540.474 50.1961 538.151 53.4153 535.797C53.7792 535.437 54.2703 535.235 54.782 535.235C55.2937 535.235 55.7848 535.437 56.1487 535.797C57.8342 537.118 59.5501 538.394 61.3267 539.593C64.1056 541.446 66.2771 544.543 70.4378 543.815L70.6048 544.346ZM40.1436 544.786C40.1436 547.55 40.0525 550.086 40.1436 552.622C40.2345 552.968 40.4076 553.286 40.6482 553.551C40.8888 553.815 41.1898 554.018 41.5255 554.14C45.8076 555.203 50.105 556.145 54.4327 557.01C54.9794 557.117 55.7083 556.585 56.3005 556.251C57.819 555.401 59.2464 553.958 60.856 553.73C61.9071 553.619 62.911 553.236 63.7685 552.618C64.6261 552 65.3075 551.169 65.7456 550.208C66.4593 548.871 67.3856 547.656 68.1752 546.366C68.4189 545.875 68.6269 545.368 68.7978 544.847L40.1436 544.786ZM64.4397 543.556L64.6371 543.147C62.9212 541.841 61.2205 540.504 59.4742 539.229C54.9187 535.888 54.9187 535.888 50.3632 539.122C48.4802 540.444 46.6428 541.795 44.7903 543.131L45.0028 543.556H64.4397Z" fill="#F2F2F2" stroke="#F2F2F2" stroke-width="0.759252" stroke-miterlimit="10"/>
<path d="M22.438 553.138L27.1757 554.064C30.8809 554.854 34.5708 555.689 38.2912 556.418C38.5664 556.427 38.8364 556.495 39.0834 556.617C39.3304 556.739 39.5487 556.911 39.7239 557.124C39.8991 557.336 40.0271 557.584 40.0995 557.849C40.1718 558.115 40.1869 558.393 40.1437 558.665C40.0451 560.39 40.0451 562.119 40.1437 563.843C40.1437 564.466 40.7663 565.058 41.1004 565.681C41.7078 565.316 42.4974 565.103 42.877 564.572C43.987 563.063 45.0013 561.486 45.914 559.849C46.142 559.312 46.5729 558.886 47.1131 558.664C47.6533 558.442 48.2592 558.443 48.7992 558.665C50.9403 559.197 53.1421 559.515 55.268 560.092C55.808 560.315 56.4139 560.315 56.9541 560.093C57.4943 559.872 57.9252 559.446 58.1532 558.908C58.8405 557.771 59.8957 556.903 61.1439 556.447C62.3921 555.991 63.7585 555.976 65.0168 556.402C66.2377 556.804 67.3039 557.575 68.0681 558.609C68.8324 559.642 69.2571 560.888 69.2838 562.173C69.2579 563.714 68.6666 565.192 67.6223 566.326C66.5781 567.46 65.1537 568.17 63.6198 568.323C62.0861 568.443 60.5638 567.977 59.3603 567.019C58.1568 566.061 57.3618 564.682 57.1358 563.16C57.1402 562.589 56.9225 562.038 56.5287 561.624C56.1349 561.211 55.5957 560.966 55.0251 560.943C52.9295 560.533 50.834 560.123 48.7536 559.622C48.2984 559.46 47.7977 559.484 47.36 559.689C46.9224 559.893 46.5829 560.262 46.4151 560.715C45.6168 562.331 44.6497 563.858 43.53 565.271C43.2004 565.651 42.7884 565.951 42.3253 566.149C41.8622 566.346 41.3602 566.435 40.8574 566.409C40.425 566.141 40.0558 565.782 39.7753 565.358C39.4948 564.933 39.3097 564.452 39.2326 563.949C39.0568 562.436 39.0568 560.907 39.2326 559.394C39.2914 559.127 39.2898 558.85 39.2281 558.584C39.1664 558.318 39.046 558.069 38.8758 557.855C38.7056 557.641 38.4898 557.468 38.2442 557.348C37.9986 557.228 37.7293 557.164 37.456 557.162C32.9916 556.281 28.5576 555.279 24.1083 554.307C23.5161 554.185 22.9543 553.988 22.3621 553.821L22.438 553.138ZM68.2209 562.127C68.2296 561.457 68.1018 560.792 67.8452 560.173C67.5887 559.554 67.2087 558.994 66.7284 558.526C66.2482 558.059 65.6777 557.694 65.0519 557.454C64.4261 557.214 63.758 557.105 63.0883 557.131C62.4142 557.121 61.7448 557.247 61.1201 557.5C60.4955 557.754 59.9282 558.131 59.4522 558.608C58.9761 559.086 58.601 559.654 58.3492 560.279C58.0973 560.905 57.9738 561.575 57.9861 562.249C57.9859 563.604 58.5168 564.905 59.465 565.873C60.4132 566.841 61.7031 567.399 63.0579 567.427C63.7513 567.436 64.4392 567.303 65.0797 567.037C65.7201 566.771 66.2996 566.378 66.7828 565.88C67.266 565.383 67.6427 564.792 67.89 564.144C68.1372 563.496 68.2498 562.805 68.2209 562.112V562.127Z" fill="#F2F2F2" stroke="#F2F2F2" stroke-width="0.759252" stroke-miterlimit="10"/>
<path d="M26.9481 549.66L36.211 551.512L36.044 552.378L26.7507 550.54L26.9481 549.66Z" fill="#F2F2F2" stroke="#F2F2F2" stroke-width="0.759252" stroke-miterlimit="10"/>
<defs>
<clipPath id="clip0_1468_78421">
<rect width="274.12" height="97.7005" fill="white" transform="translate(49.012 277.583)"/>
</clipPath>
<clipPath id="clip1_1468_78421">
<rect width="274.12" height="97.7005" fill="white" transform="translate(49.3916 390.763)"/>
</clipPath>
<clipPath id="clip2_1468_78421">
<rect width="274.12" height="97.7005" fill="white" transform="translate(49.498 503.801)"/>
</clipPath>
<clipPath id="clip3_1468_78421">
<rect width="274.12" height="97.7005" fill="white" transform="translate(49.3916 164.932)"/>
</clipPath>
<clipPath id="clip4_1468_78421">
<rect width="274.12" height="97.7005" fill="white" transform="translate(49.384 52)"/>
</clipPath>
</defs>
</svg>
