<svg width="324" height="594" viewBox="0 0 324 594" fill="none" xmlns="http://www.w3.org/2000/svg">
<path d="M96.038 6.17549H99.4072L93.4774 21.2695H92.4891L88.3562 11.9705L84.2008 21.2695H83.2125L77.2827 6.17549H80.6519L83.9538 14.9354L87.8396 5.90596H88.8503L92.7362 14.8905L96.038 6.17549ZM101.679 21V6.17549H104.712V21H101.679ZM111.453 21V8.91578H106.714V6.17549H119.247V8.91578H114.485V21H111.453ZM121.245 21V6.17549H124.278V11.8582H130.836V6.17549H133.869V21H130.836V14.5985H124.278V21H121.245ZM142.7 13.5877C142.632 9.34255 146.293 5.81611 150.606 5.90596C153.414 5.90596 155.817 7.2761 157.142 9.58962L154.851 11.2068C153.795 9.5447 152.38 8.71363 150.606 8.71363C147.843 8.71363 145.822 10.7801 145.822 13.6102C145.822 16.4403 147.843 18.4619 150.606 18.4619C152.38 18.4619 153.795 17.6308 154.851 15.9687L157.142 17.5859C155.862 19.8994 153.436 21.2695 150.583 21.2695C146.248 21.3594 142.61 17.8329 142.7 13.5877ZM159.719 21V6.17549H169.467V8.91578H162.751V12.6219H168.254V15.3622H162.751V21H159.719ZM188.833 16.6425C188.833 19.2031 186.811 21 183.958 21H177.355V6.17549H182.611C185.351 6.17549 187.305 7.88256 187.305 10.3084C187.305 11.3865 186.946 12.285 186.205 12.9813C187.844 13.5877 188.833 14.8456 188.833 16.6425ZM182.364 8.78101H180.275V12.1727H182.364C183.599 12.1727 184.295 11.5213 184.295 10.4656C184.295 9.40993 183.599 8.78101 182.364 8.78101ZM185.845 16.5302C185.845 15.3847 185.059 14.6659 183.734 14.6659H180.275V18.3945H183.734C185.059 18.3945 185.845 17.6982 185.845 16.5302ZM191.171 14.868V6.17549H194.203V15.0927C194.203 17.249 195.551 18.4619 197.46 18.4619C199.414 18.4619 200.717 17.249 200.717 15.0927V6.17549H203.749V14.868C203.749 18.7988 201.054 21.2695 197.46 21.2695C193.821 21.2695 191.171 18.7988 191.171 14.868ZM218.96 6.17549L213.861 15.16V21H210.829V15.1825L205.708 6.17549H209.077L212.356 12.0604L215.613 6.17549H218.96ZM221.049 21V6.17549H231.022V8.91578H224.081V11.9256H229.18V14.5087H224.081V18.2597H231.292V21H221.049ZM246.436 21H243.022L239.181 15.7665H236.957V21H233.925V6.17549H239.495C242.595 6.17549 244.841 8.10717 244.841 10.9598C244.841 12.8465 243.853 14.3739 242.236 15.1825L246.436 21ZM236.957 8.8484V13.0936H239.495C240.911 13.0936 241.742 12.2401 241.742 10.9598C241.742 9.70193 240.866 8.8484 239.495 8.8484H236.957Z" fill="white"/>
<path d="M0 44.0002L0 141.701L274.12 141.701V44.0002L0 44.0002Z" fill="#EBF0FF"/>
<path d="M36.3772 100.903V87.8741H38.4697V93.0658H45.0236V87.8741H47.1161V100.903H45.0236V94.9412H38.4697V100.903H36.3772ZM50.177 100.903V91.2102H52.2497V100.903H50.177ZM49.8019 87.5977C49.8019 86.8278 50.4336 86.2159 51.2232 86.2159C51.9931 86.2159 52.6248 86.8278 52.6248 87.5977C52.6248 88.3676 51.9931 88.9598 51.2232 88.9598C50.4336 88.9598 49.8019 88.3676 49.8019 87.5977ZM62.8471 91.2102H64.762V99.8961C64.762 102.956 62.8471 104.673 59.9058 104.673C57.991 104.673 56.4117 103.923 55.247 102.837L56.392 101.396C57.4777 102.265 58.4647 102.778 59.7874 102.778C61.5443 102.778 62.6892 101.831 62.6892 100.015V99.3236C61.9588 100.212 60.7546 100.705 59.4123 100.705C56.7078 100.705 54.6943 98.6722 54.6943 95.8493C54.6943 93.0264 56.7276 90.9931 59.4123 90.9931C60.8928 90.9931 62.1365 91.5853 62.8471 92.5921V91.2102ZM62.709 95.8295C62.709 93.8555 61.3863 92.8487 59.7874 92.8487C58.9385 92.8487 58.2476 93.1251 57.6751 93.6778C57.1026 94.2305 56.8263 94.9609 56.8263 95.8493C56.8263 96.7573 57.1026 97.4877 57.6751 98.0602C58.2476 98.6129 58.9385 98.8893 59.7874 98.8893C60.5967 98.8893 61.2679 98.6327 61.8404 98.0997C62.4128 97.5667 62.709 96.8165 62.709 95.8295ZM76.2271 94.8425V100.903H74.1543V95.1386C74.1543 93.7962 73.3252 92.8882 72.0421 92.8882C70.7589 92.8882 69.8311 93.816 69.8311 95.1386V100.903H67.7584V86.0974H69.8311V92.1775C70.4826 91.4076 71.4696 90.9931 72.6343 90.9931C74.8452 90.9931 76.2271 92.5526 76.2271 94.8425ZM103.834 103.212V104.871C103.064 105.009 102.333 105.088 101.642 105.088C98.1681 105.088 95.2465 103.568 93.2132 100.705C92.463 100.982 91.6734 101.12 90.8246 101.12C87.0936 101.179 83.9154 98.1194 83.9943 94.3885C83.9351 90.6575 87.1134 87.5977 90.8246 87.6569C94.5161 87.5977 97.7535 90.6575 97.6745 94.3885C97.6745 96.5994 96.648 98.5537 94.9306 99.7974C96.727 102.166 98.9577 103.291 101.978 103.291C102.314 103.291 102.945 103.272 103.834 103.212ZM90.8443 99.2051C93.5093 99.2051 95.5228 97.1521 95.5228 94.3885C95.5228 91.6248 93.5093 89.5718 90.8246 89.5718C88.1596 89.5718 86.1658 91.6248 86.1658 94.3687C86.1658 97.1521 88.1399 99.2051 90.8443 99.2051ZM99.9501 96.8363V91.2102H102.003V96.9942C102.003 98.3366 102.931 99.2051 104.194 99.2051C105.398 99.2051 106.326 98.3366 106.326 96.9942V91.2102H108.399V96.8363C108.399 99.442 106.563 101.12 104.194 101.12C101.766 101.12 99.9501 99.442 99.9501 96.8363ZM119.006 95.0399V100.903H117.071V99.8171C116.361 100.666 115.295 101.12 113.972 101.12C111.939 101.12 110.596 99.9948 110.596 98.3168C110.596 96.6389 111.978 95.5531 114.169 95.5531H116.913V94.9214C116.913 93.5791 116.163 92.8487 114.841 92.8487C113.755 92.8487 112.965 93.3225 112.156 94.2898L110.952 93.0658C111.919 91.6643 113.36 90.9931 115.038 90.9931C117.427 90.9931 119.006 92.4341 119.006 95.0399ZM116.913 97.2311V97.0534H114.426C113.321 97.0534 112.709 97.4482 112.709 98.2379C112.709 99.0472 113.4 99.521 114.406 99.521C115.808 99.521 116.913 98.5537 116.913 97.2311ZM121.891 100.903V86.0974H123.963V100.903H121.891ZM126.961 100.903V91.2102H129.033V100.903H126.961ZM126.586 87.5977C126.586 86.8278 127.217 86.2159 128.007 86.2159C128.777 86.2159 129.409 86.8278 129.409 87.5977C129.409 88.3676 128.777 88.9598 128.007 88.9598C127.217 88.9598 126.586 88.3676 126.586 87.5977ZM137.795 99.1459V100.903C137.144 101.041 136.571 101.12 136.078 101.12C133.847 101.12 132.505 100.015 132.505 97.7443V93.0066H130.925V91.2102H132.505V88.6637H134.597V91.2102H137.479V93.0066H134.597V97.5667C134.597 98.8103 135.248 99.2446 136.512 99.2446C136.808 99.2446 137.223 99.2051 137.795 99.1459ZM146.647 91.2102H148.858L144.14 102.008C143.331 103.844 142.245 104.673 140.587 104.673C140.054 104.673 139.521 104.614 138.988 104.476V102.719C139.6 102.778 139.975 102.798 140.133 102.798C141.1 102.798 141.772 102.462 142.245 101.377L142.64 100.469L138.771 91.2102H141.002L143.785 98.2576L146.647 91.2102ZM155.612 94.3885C155.533 90.6575 158.75 87.5977 162.462 87.6569C164.85 87.6569 166.923 88.8216 168.048 90.6575L166.469 91.8222C165.541 90.3811 164.199 89.5718 162.481 89.5718C159.816 89.5718 157.783 91.6248 157.783 94.3885C157.783 97.1521 159.816 99.2051 162.481 99.2051C164.199 99.2051 165.541 98.3958 166.469 96.9547L168.048 98.1194C166.943 99.9553 164.89 101.12 162.462 101.12C158.75 101.179 155.533 98.1194 155.612 94.3885ZM175.96 91.2102V93.0461H175.328C173.69 93.0461 172.486 94.0134 172.486 95.7308V100.903H170.413V91.2102H172.348V92.4736C173.039 91.605 174.065 91.1115 175.171 91.1115C175.467 91.1115 175.723 91.151 175.96 91.2102ZM177.011 96.0467C176.952 93.2632 179.34 90.9536 182.124 90.9931C184.947 90.9339 187.335 93.3027 187.276 96.0467C187.335 98.7906 184.947 101.179 182.124 101.12C179.34 101.179 176.952 98.7906 177.011 96.0467ZM185.144 96.0664C185.144 94.27 183.821 92.8882 182.144 92.8882C180.426 92.8882 179.123 94.27 179.123 96.0664C179.123 97.8628 180.426 99.2051 182.124 99.2051C183.841 99.2051 185.144 97.8233 185.144 96.0664ZM199.72 96.0467C199.72 98.9485 197.706 101.12 194.963 101.12C193.64 101.12 192.495 100.607 191.725 99.7184V104.456H189.652V91.2102H191.587V92.5723C192.298 91.5656 193.541 90.9931 194.963 90.9931C197.706 90.9931 199.72 93.1843 199.72 96.0467ZM197.588 96.0664C197.588 94.2108 196.305 92.8882 194.627 92.8882C193.107 92.8882 191.705 93.9344 191.705 96.0467C191.705 98.1786 193.107 99.2249 194.627 99.2249C196.285 99.2249 197.588 97.922 197.588 96.0664ZM201.198 99.2446L202.382 97.9418C203.231 98.8301 204.08 99.3236 205.106 99.3236C205.995 99.3236 206.666 98.9485 206.666 98.2379C206.666 97.6654 206.251 97.4285 205.304 97.0337L204.317 96.6191C202.599 95.9085 201.79 95.1583 201.79 93.7962C201.79 92.0591 203.231 90.9931 205.205 90.9931C206.607 90.9931 207.712 91.4866 208.561 92.4934L207.436 93.7765C206.824 93.1448 206.014 92.7895 205.166 92.7895C204.356 92.7895 203.843 93.1053 203.843 93.7173C203.843 94.2108 204.179 94.4674 205.126 94.8622L206.054 95.2373C207.89 96.0072 208.699 96.7968 208.699 98.1589C208.699 99.0867 208.364 99.8171 207.673 100.35C206.982 100.863 206.133 101.12 205.106 101.12C203.448 101.12 202.066 100.37 201.198 99.2446Z" fill="#3A7EE4"/>
<path d="M0 157.276L0 254.976L274.12 254.976V157.276H0Z" fill="#EBF0FF"/>
<path d="M37.7371 200.173V187.145H46.3045V189.02H39.8296V192.356H44.7055V194.172H39.8296V198.298H46.5414V200.173H37.7371ZM56.5367 194.31V200.173H54.6022V199.088C53.8915 199.936 52.8255 200.39 51.5029 200.39C49.4696 200.39 48.1273 199.265 48.1273 197.587C48.1273 195.909 49.5091 194.824 51.7003 194.824H54.4442V194.192C54.4442 192.85 53.6941 192.119 52.3715 192.119C51.2857 192.119 50.4961 192.593 49.6868 193.56L48.4826 192.336C49.4499 190.935 50.8909 190.264 52.5689 190.264C54.9575 190.264 56.5367 191.705 56.5367 194.31ZM54.4442 196.502V196.324H51.9569C50.8514 196.324 50.2395 196.719 50.2395 197.508C50.2395 198.318 50.9304 198.792 51.9372 198.792C53.3388 198.792 54.4442 197.824 54.4442 196.502ZM58.5134 198.515L59.6978 197.212C60.5467 198.101 61.3955 198.594 62.422 198.594C63.3103 198.594 63.9815 198.219 63.9815 197.508C63.9815 196.936 63.567 196.699 62.6194 196.304L61.6324 195.89C59.915 195.179 59.1056 194.429 59.1056 193.067C59.1056 191.33 60.5467 190.264 62.5207 190.264C63.9223 190.264 65.0278 190.757 65.8766 191.764L64.7514 193.047C64.1395 192.415 63.3301 192.06 62.4812 192.06C61.6719 192.06 61.1586 192.376 61.1586 192.988C61.1586 193.481 61.4942 193.738 62.4418 194.133L63.3696 194.508C65.2054 195.278 66.0148 196.067 66.0148 197.429C66.0148 198.357 65.6792 199.088 64.9883 199.621C64.2974 200.134 63.4485 200.39 62.422 200.39C60.7638 200.39 59.382 199.64 58.5134 198.515ZM75.1562 190.481H77.3672L72.6492 201.279C71.8398 203.115 70.7541 203.944 69.0959 203.944C68.5629 203.944 68.0299 203.885 67.4969 203.746V201.989C68.1088 202.049 68.4839 202.068 68.6418 202.068C69.6091 202.068 70.2803 201.733 70.7541 200.647L71.1489 199.739L67.2797 190.481H69.5104L72.2938 197.528L75.1562 190.481ZM84.91 200.173V187.145H88.9963C93.2603 187.145 96.0832 189.79 96.0832 193.639C96.0832 197.429 93.2406 200.173 88.9963 200.173H84.91ZM87.0025 198.298H88.9766C91.9969 198.298 93.9315 196.363 93.9315 193.639C93.9315 190.876 92.0166 189.04 88.9766 189.04H87.0025V198.298ZM98.4399 200.173V190.481H100.513V200.173H98.4399ZM98.0648 186.868C98.0648 186.098 98.6965 185.486 99.4861 185.486C100.256 185.486 100.888 186.098 100.888 186.868C100.888 187.638 100.256 188.23 99.4861 188.23C98.6965 188.23 98.0648 187.638 98.0648 186.868ZM111.11 190.481H113.025V199.167C113.025 202.226 111.11 203.944 108.169 203.944C106.254 203.944 104.675 203.194 103.51 202.108L104.655 200.667C105.741 201.535 106.728 202.049 108.05 202.049C109.807 202.049 110.952 201.101 110.952 199.285V198.594C110.222 199.482 109.018 199.976 107.675 199.976C104.971 199.976 102.957 197.943 102.957 195.12C102.957 192.297 104.99 190.264 107.675 190.264C109.156 190.264 110.399 190.856 111.11 191.863V190.481ZM110.972 195.1C110.972 193.126 109.649 192.119 108.05 192.119C107.201 192.119 106.511 192.396 105.938 192.948C105.366 193.501 105.089 194.231 105.089 195.12C105.089 196.028 105.366 196.758 105.938 197.331C106.511 197.883 107.201 198.16 108.05 198.16C108.86 198.16 109.531 197.903 110.103 197.37C110.676 196.837 110.972 196.087 110.972 195.1ZM116.021 200.173V190.481H118.094V200.173H116.021ZM115.646 186.868C115.646 186.098 116.278 185.486 117.068 185.486C117.837 185.486 118.469 186.098 118.469 186.868C118.469 187.638 117.837 188.23 117.068 188.23C116.278 188.23 115.646 187.638 115.646 186.868ZM126.856 198.416V200.173C126.204 200.312 125.632 200.39 125.138 200.39C122.908 200.39 121.565 199.285 121.565 197.015V192.277H119.986V190.481H121.565V187.934H123.658V190.481H126.54V192.277H123.658V196.837C123.658 198.081 124.309 198.515 125.572 198.515C125.869 198.515 126.283 198.476 126.856 198.416ZM128.957 200.173V190.481H131.03V200.173H128.957ZM128.582 186.868C128.582 186.098 129.213 185.486 130.003 185.486C130.773 185.486 131.405 186.098 131.405 186.868C131.405 187.638 130.773 188.23 130.003 188.23C129.213 188.23 128.582 187.638 128.582 186.868ZM136.06 198.377H141.193V200.173H132.961V199.601L138.034 192.277H133.415V190.481H141.153V191.073L136.06 198.377ZM151.851 196.008H144.626C144.883 197.587 146.127 198.555 147.785 198.555C148.792 198.555 149.739 198.18 150.608 197.41L151.595 198.831C150.489 199.877 149.206 200.39 147.726 200.39C144.764 200.39 142.514 198.199 142.514 195.337C142.455 192.553 144.784 190.204 147.528 190.264C150.094 190.264 152.009 192.178 152.009 194.705C152.009 195.12 151.95 195.554 151.851 196.008ZM144.666 194.389H149.936C149.917 192.909 148.811 192.02 147.449 192.02C146.087 192.02 144.982 192.948 144.666 194.389ZM161.747 185.368H163.84V200.173H161.905V198.792C161.195 199.798 159.951 200.39 158.51 200.39C155.786 200.39 153.772 198.199 153.772 195.337C153.713 192.514 155.825 190.204 158.51 190.264C159.852 190.264 161.017 190.777 161.747 191.665V185.368ZM161.787 195.337C161.787 193.244 160.366 192.159 158.865 192.159C157.207 192.159 155.885 193.462 155.885 195.317C155.885 197.173 157.148 198.495 158.865 198.495C160.385 198.495 161.787 197.449 161.787 195.337ZM37.7371 225.173V212.145H42.4946C45.1201 212.145 46.9164 213.783 46.9164 216.132C46.9164 218.462 45.1201 220.14 42.4946 220.14H39.8296V225.173H37.7371ZM39.8296 218.284H42.4551C43.9356 218.284 44.7647 217.435 44.7647 216.152C44.7647 214.869 43.9356 214 42.4551 214H39.8296V218.284ZM54.6356 215.481V217.317H54.0039C52.3655 217.317 51.1613 218.284 51.1613 220.001V225.173H49.0885V215.481H51.0231V216.744C51.714 215.876 52.7405 215.382 53.846 215.382C54.1421 215.382 54.3987 215.422 54.6356 215.481ZM55.6865 220.317C55.6273 217.534 58.0159 215.224 60.7993 215.264C63.6222 215.204 66.0108 217.573 65.9516 220.317C66.0108 223.061 63.6222 225.45 60.7993 225.39C58.0159 225.45 55.6273 223.061 55.6865 220.317ZM63.8196 220.337C63.8196 218.541 62.497 217.159 60.819 217.159C59.1016 217.159 57.7987 218.541 57.7987 220.337C57.7987 222.133 59.1016 223.476 60.7993 223.476C62.5167 223.476 63.8196 222.094 63.8196 220.337ZM67.7159 220.317C67.6567 217.534 70.065 215.224 72.8484 215.264C74.6448 215.264 76.0859 216.112 76.9347 217.514L75.4739 218.659C74.783 217.672 73.9144 217.178 72.8682 217.178C71.131 217.178 69.8281 218.56 69.8281 220.317C69.8281 222.094 71.131 223.476 72.8682 223.476C73.8947 223.476 74.7633 222.982 75.4739 222.015L76.9347 223.14C76.0661 224.542 74.6053 225.39 72.8484 225.39C69.986 225.39 67.7159 223.14 67.7159 220.317ZM87.7524 221.008H80.5273C80.784 222.587 82.0276 223.555 83.6858 223.555C84.6926 223.555 85.6401 223.18 86.5087 222.41L87.4957 223.831C86.3903 224.877 85.1071 225.39 83.6266 225.39C80.6655 225.39 78.4151 223.199 78.4151 220.337C78.3559 217.553 80.6853 215.204 83.4292 215.264C85.9955 215.264 87.9103 217.178 87.9103 219.705C87.9103 220.12 87.8511 220.554 87.7524 221.008ZM80.5668 219.389H85.8375C85.8178 217.909 84.7123 217.02 83.3502 217.02C81.9881 217.02 80.8827 217.948 80.5668 219.389ZM89.3773 223.515L90.5617 222.212C91.4105 223.101 92.2594 223.594 93.2859 223.594C94.1742 223.594 94.8454 223.219 94.8454 222.508C94.8454 221.936 94.4308 221.699 93.4833 221.304L92.4963 220.89C90.7788 220.179 89.9695 219.429 89.9695 218.067C89.9695 216.33 91.4105 215.264 93.3846 215.264C94.7862 215.264 95.8916 215.757 96.7405 216.764L95.6153 218.047C95.0033 217.415 94.194 217.06 93.3451 217.06C92.5358 217.06 92.0225 217.376 92.0225 217.988C92.0225 218.481 92.3581 218.738 93.3056 219.133L94.2334 219.508C96.0693 220.278 96.8787 221.067 96.8787 222.429C96.8787 223.357 96.5431 224.088 95.8522 224.621C95.1612 225.134 94.3124 225.39 93.2859 225.39C91.6277 225.39 90.2459 224.64 89.3773 223.515ZM98.3608 223.515L99.5452 222.212C100.394 223.101 101.243 223.594 102.269 223.594C103.158 223.594 103.829 223.219 103.829 222.508C103.829 221.936 103.414 221.699 102.467 221.304L101.48 220.89C99.7623 220.179 98.953 219.429 98.953 218.067C98.953 216.33 100.394 215.264 102.368 215.264C103.77 215.264 104.875 215.757 105.724 216.764L104.599 218.047C103.987 217.415 103.177 217.06 102.329 217.06C101.519 217.06 101.006 217.376 101.006 217.988C101.006 218.481 101.342 218.738 102.289 219.133L103.217 219.508C105.053 220.278 105.862 221.067 105.862 222.429C105.862 223.357 105.527 224.088 104.836 224.621C104.145 225.134 103.296 225.39 102.269 225.39C100.611 225.39 99.2293 224.64 98.3608 223.515Z" fill="#3A7EE4"/>
<path d="M0 269.582L0 367.283H274.12V269.582H0Z" fill="#EBF0FF"/>
<path d="M36.1326 312.482V299.453H40.2189C44.4829 299.453 47.3058 302.098 47.3058 305.948C47.3058 309.738 44.4631 312.482 40.2189 312.482H36.1326ZM38.2251 310.607H40.1992C43.2195 310.607 45.154 308.672 45.154 305.948C45.154 303.184 43.2392 301.348 40.1992 301.348H38.2251V310.607ZM49.6624 312.482V302.789H51.7352V312.482H49.6624ZM49.2874 299.177C49.2874 298.407 49.9191 297.795 50.7087 297.795C51.4786 297.795 52.1103 298.407 52.1103 299.177C52.1103 299.947 51.4786 300.539 50.7087 300.539C49.9191 300.539 49.2874 299.947 49.2874 299.177ZM60.2796 302.789V304.625H59.6479C58.0094 304.625 56.8053 305.592 56.8053 307.31V312.482H54.7325V302.789H56.6671V304.053C57.358 303.184 58.3845 302.691 59.49 302.691C59.7861 302.691 60.0427 302.73 60.2796 302.789ZM70.6678 308.317H63.4427C63.6993 309.896 64.943 310.863 66.6012 310.863C67.608 310.863 68.5555 310.488 69.4241 309.718L70.4111 311.14C69.3057 312.186 68.0225 312.699 66.542 312.699C63.5809 312.699 61.3305 310.508 61.3305 307.646C61.2713 304.862 63.6006 302.513 66.3446 302.572C68.9108 302.572 70.8257 304.487 70.8257 307.014C70.8257 307.428 70.7665 307.863 70.6678 308.317ZM63.4822 306.698H68.7529C68.7332 305.217 67.6277 304.329 66.2656 304.329C64.9035 304.329 63.798 305.257 63.4822 306.698ZM72.5888 307.626C72.5295 304.842 74.9379 302.533 77.7213 302.572C79.5177 302.572 80.9587 303.421 81.8076 304.823L80.3468 305.968C79.6559 304.981 78.7873 304.487 77.741 304.487C76.0039 304.487 74.701 305.869 74.701 307.626C74.701 309.402 76.0039 310.784 77.741 310.784C78.7675 310.784 79.6361 310.291 80.3468 309.323L81.8076 310.449C80.939 311.85 79.4782 312.699 77.7213 312.699C74.8589 312.699 72.5888 310.449 72.5888 307.626ZM89.8569 310.725V312.482C89.2055 312.62 88.633 312.699 88.1395 312.699C85.9088 312.699 84.5665 311.594 84.5665 309.323V304.586H82.9872V302.789H84.5665V300.243H86.659V302.789H89.5411V304.586H86.659V309.146C86.659 310.389 87.3104 310.824 88.5738 310.824C88.8699 310.824 89.2845 310.784 89.8569 310.725ZM100.841 312.482L99.9135 310.31H94.0506L93.1228 312.482H90.8921L96.6366 299.236H97.3472L103.092 312.482H100.841ZM99.1634 308.514L96.9919 303.125L94.8007 308.514H99.1634ZM104.089 307.626C104.03 304.842 106.438 302.533 109.221 302.572C111.018 302.572 112.459 303.421 113.308 304.823L111.847 305.968C111.156 304.981 110.287 304.487 109.241 304.487C107.504 304.487 106.201 305.869 106.201 307.626C106.201 309.402 107.504 310.784 109.241 310.784C110.268 310.784 111.136 310.291 111.847 309.323L113.308 310.449C112.439 311.85 110.978 312.699 109.221 312.699C106.359 312.699 104.089 310.449 104.089 307.626ZM114.788 307.626C114.729 304.842 117.137 302.533 119.921 302.572C121.717 302.572 123.158 303.421 124.007 304.823L122.546 305.968C121.855 304.981 120.987 304.487 119.94 304.487C118.203 304.487 116.9 305.869 116.9 307.626C116.9 309.402 118.203 310.784 119.94 310.784C120.967 310.784 121.835 310.291 122.546 309.323L124.007 310.449C123.138 311.85 121.677 312.699 119.921 312.699C117.058 312.699 114.788 310.449 114.788 307.626ZM134.825 308.317H127.599C127.856 309.896 129.1 310.863 130.758 310.863C131.765 310.863 132.712 310.488 133.581 309.718L134.568 311.14C133.462 312.186 132.179 312.699 130.699 312.699C127.738 312.699 125.487 310.508 125.487 307.646C125.428 304.862 127.757 302.513 130.501 302.572C133.068 302.572 134.982 304.487 134.982 307.014C134.982 307.428 134.923 307.863 134.825 308.317ZM127.639 306.698H132.91C132.89 305.217 131.784 304.329 130.422 304.329C129.06 304.329 127.955 305.257 127.639 306.698ZM136.449 310.824L137.634 309.521C138.483 310.409 139.332 310.903 140.358 310.903C141.246 310.903 141.918 310.528 141.918 309.817C141.918 309.244 141.503 309.008 140.555 308.613L139.568 308.198C137.851 307.488 137.042 306.737 137.042 305.375C137.042 303.638 138.483 302.572 140.457 302.572C141.858 302.572 142.964 303.066 143.813 304.072L142.687 305.356C142.075 304.724 141.266 304.369 140.417 304.369C139.608 304.369 139.095 304.684 139.095 305.296C139.095 305.79 139.43 306.047 140.378 306.441L141.306 306.816C143.141 307.586 143.951 308.376 143.951 309.738C143.951 310.666 143.615 311.396 142.924 311.929C142.233 312.442 141.385 312.699 140.358 312.699C138.7 312.699 137.318 311.949 136.449 310.824ZM145.433 310.824L146.617 309.521C147.466 310.409 148.315 310.903 149.342 310.903C150.23 310.903 150.901 310.528 150.901 309.817C150.901 309.244 150.486 309.008 149.539 308.613L148.552 308.198C146.834 307.488 146.025 306.737 146.025 305.375C146.025 303.638 147.466 302.572 149.44 302.572C150.842 302.572 151.947 303.066 152.796 304.072L151.671 305.356C151.059 304.724 150.25 304.369 149.401 304.369C148.591 304.369 148.078 304.684 148.078 305.296C148.078 305.79 148.414 306.047 149.361 306.441L150.289 306.816C152.125 307.586 152.934 308.376 152.934 309.738C152.934 310.666 152.599 311.396 151.908 311.929C151.217 312.442 150.368 312.699 149.342 312.699C147.683 312.699 146.301 311.949 145.433 310.824ZM166.621 310.725V312.482C165.97 312.62 165.398 312.699 164.904 312.699C162.673 312.699 161.331 311.594 161.331 309.323V304.586H159.752V302.789H161.331V300.243H163.423V302.789H166.306V304.586H163.423V309.146C163.423 310.389 164.075 310.824 165.338 310.824C165.634 310.824 166.049 310.784 166.621 310.725ZM167.918 307.626C167.859 304.842 170.247 302.533 173.031 302.572C175.854 302.513 178.242 304.882 178.183 307.626C178.242 310.37 175.854 312.758 173.031 312.699C170.247 312.758 167.859 310.37 167.918 307.626ZM176.051 307.646C176.051 305.849 174.728 304.467 173.05 304.467C171.333 304.467 170.03 305.849 170.03 307.646C170.03 309.442 171.333 310.784 173.031 310.784C174.748 310.784 176.051 309.402 176.051 307.646ZM36.1326 337.482V324.453H44.5026V326.329H38.2251V330.217H43.3971V332.113H38.2251V337.482H36.1326ZM53.6213 331.619V337.482H51.6868V336.396C50.9761 337.245 49.9101 337.699 48.5875 337.699C46.5542 337.699 45.2119 336.574 45.2119 334.896C45.2119 333.218 46.5937 332.132 48.7849 332.132H51.5288V331.501C51.5288 330.158 50.7787 329.428 49.4561 329.428C48.3704 329.428 47.5807 329.902 46.7714 330.869L45.5672 329.645C46.5345 328.243 47.9755 327.572 49.6535 327.572C52.0421 327.572 53.6213 329.013 53.6213 331.619ZM51.5288 333.81V333.633H49.0415C47.9361 333.633 47.3241 334.027 47.3241 334.817C47.3241 335.626 48.015 336.1 49.0218 336.1C50.4234 336.1 51.5288 335.133 51.5288 333.81ZM62.0532 327.789V329.625H61.4215C59.783 329.625 58.5788 330.592 58.5788 332.31V337.482H56.5061V327.789H58.4406V329.053C59.1316 328.184 60.1581 327.691 61.2635 327.691C61.5597 327.691 61.8163 327.73 62.0532 327.789ZM78.4576 331.422V337.482H76.3651V331.718C76.3651 330.356 75.5952 329.467 74.3515 329.467C73.0881 329.467 72.2195 330.375 72.2195 331.619V337.482H70.1468V331.718C70.1468 330.375 69.3572 329.467 68.1135 329.467C66.8501 329.467 65.9815 330.375 65.9815 331.718V337.482H63.9088V327.789H65.8434V328.697C66.5343 327.987 67.4818 327.572 68.6465 327.572C69.9889 327.572 71.0154 328.145 71.5878 329.092C72.2985 328.164 73.5027 327.572 74.8648 327.572C77.0955 327.572 78.4576 329.112 78.4576 331.422ZM90.0613 333.317H82.8363C83.0929 334.896 84.3365 335.863 85.9947 335.863C87.0015 335.863 87.9491 335.488 88.8176 334.718L89.8047 336.14C88.6992 337.186 87.4161 337.699 85.9355 337.699C82.9744 337.699 80.724 335.508 80.724 332.646C80.6648 329.862 82.9942 327.513 85.7381 327.572C88.3044 327.572 90.2192 329.487 90.2192 332.014C90.2192 332.428 90.16 332.863 90.0613 333.317ZM82.8757 331.698H88.1465C88.1267 330.217 87.0213 329.329 85.6592 329.329C84.2971 329.329 83.1916 330.257 82.8757 331.698ZM98.1413 327.789V329.625H97.5096C95.8712 329.625 94.667 330.592 94.667 332.31V337.482H92.5942V327.789H94.5288V329.053C95.2197 328.184 96.2462 327.691 97.3517 327.691C97.6478 327.691 97.9045 327.73 98.1413 327.789ZM99.0889 335.824L100.273 334.521C101.122 335.409 101.971 335.903 102.998 335.903C103.886 335.903 104.557 335.528 104.557 334.817C104.557 334.244 104.142 334.008 103.195 333.613L102.208 333.198C100.49 332.488 99.6811 331.737 99.6811 330.375C99.6811 328.638 101.122 327.572 103.096 327.572C104.498 327.572 105.603 328.066 106.452 329.072L105.327 330.356C104.715 329.724 103.906 329.369 103.057 329.369C102.247 329.369 101.734 329.684 101.734 330.296C101.734 330.79 102.07 331.047 103.017 331.441L103.945 331.816C105.781 332.586 106.59 333.376 106.59 334.738C106.59 335.666 106.255 336.396 105.564 336.929C104.873 337.442 104.024 337.699 102.998 337.699C101.339 337.699 99.9575 336.949 99.0889 335.824Z" fill="#3A7EE4"/>
<path d="M0 382.625L0 480.326H274.12V382.625H0Z" fill="#EBF0FF"/>
<path d="M40.9248 427.998V416.845H36.5424V414.969H47.4194V416.845H43.0173V427.998H40.9248ZM53.8768 418.305V420.141H53.2451C51.6066 420.141 50.4024 421.109 50.4024 422.826V427.998H48.3297V418.305H50.2642V419.569C50.9552 418.7 51.9817 418.207 53.0871 418.207C53.3833 418.207 53.6399 418.246 53.8768 418.305ZM63.2384 422.135V427.998H61.3038V426.912C60.5932 427.761 59.5272 428.215 58.2046 428.215C56.1713 428.215 54.8289 427.09 54.8289 425.412C54.8289 423.734 56.2108 422.648 58.402 422.648H61.1459V422.017C61.1459 420.674 60.3958 419.944 59.0732 419.944C57.9874 419.944 57.1978 420.418 56.3884 421.385L55.1843 420.161C56.1516 418.759 57.5926 418.088 59.2706 418.088C61.6592 418.088 63.2384 419.529 63.2384 422.135ZM61.1459 424.326V424.149H58.6586C57.5531 424.149 56.9412 424.543 56.9412 425.333C56.9412 426.142 57.6321 426.616 58.6389 426.616C60.0404 426.616 61.1459 425.649 61.1459 424.326ZM74.5918 421.938V427.998H72.5191V422.214C72.5191 420.872 71.6702 419.964 70.4068 419.964C69.1237 419.964 68.1959 420.891 68.1959 422.214V427.998H66.1231V418.305H68.0577V419.253C68.7881 418.483 69.7554 418.088 70.9596 418.088C73.2297 418.088 74.5918 419.628 74.5918 421.938ZM76.5697 426.34L77.7542 425.037C78.603 425.925 79.4519 426.419 80.4784 426.419C81.3667 426.419 82.0379 426.044 82.0379 425.333C82.0379 424.761 81.6233 424.524 80.6758 424.129L79.6888 423.714C77.9713 423.004 77.162 422.254 77.162 420.891C77.162 419.154 78.603 418.088 80.5771 418.088C81.9787 418.088 83.0841 418.582 83.933 419.589L82.8078 420.872C82.1958 420.24 81.3864 419.885 80.5376 419.885C79.7282 419.885 79.215 420.201 79.215 420.812C79.215 421.306 79.5506 421.563 80.4981 421.957L81.4259 422.333C83.2618 423.102 84.0712 423.892 84.0712 425.254C84.0712 426.182 83.7356 426.912 83.0446 427.445C82.3537 427.959 81.5049 428.215 80.4784 428.215C78.8202 428.215 77.4383 427.465 76.5697 426.34ZM96.529 423.142C96.529 426.044 94.5154 428.215 91.7715 428.215C90.4489 428.215 89.3039 427.702 88.5341 426.814V431.551H86.4613V418.305H88.3959V419.668C89.1065 418.661 90.3502 418.088 91.7715 418.088C94.5154 418.088 96.529 420.279 96.529 423.142ZM94.397 423.162C94.397 421.306 93.1139 419.983 91.4359 419.983C89.9159 419.983 88.5143 421.03 88.5143 423.142C88.5143 425.274 89.9159 426.32 91.4359 426.32C93.0941 426.32 94.397 425.017 94.397 423.162ZM106.614 422.135V427.998H104.679V426.912C103.968 427.761 102.902 428.215 101.58 428.215C99.5465 428.215 98.2041 427.09 98.2041 425.412C98.2041 423.734 99.586 422.648 101.777 422.648H104.521V422.017C104.521 420.674 103.771 419.944 102.448 419.944C101.363 419.944 100.573 420.418 99.7636 421.385L98.5595 420.161C99.5268 418.759 100.968 418.088 102.646 418.088C105.034 418.088 106.614 419.529 106.614 422.135ZM104.521 424.326V424.149H102.034C100.928 424.149 100.316 424.543 100.316 425.333C100.316 426.142 101.007 426.616 102.014 426.616C103.416 426.616 104.521 425.649 104.521 424.326ZM115.045 418.305V420.141H114.414C112.775 420.141 111.571 421.109 111.571 422.826V427.998H109.498V418.305H111.433V419.569C112.124 418.7 113.15 418.207 114.256 418.207C114.552 418.207 114.809 418.246 115.045 418.305ZM125.434 423.833H118.209C118.465 425.412 119.709 426.379 121.367 426.379C122.374 426.379 123.321 426.004 124.19 425.234L125.177 426.656C124.072 427.702 122.788 428.215 121.308 428.215C118.347 428.215 116.096 426.024 116.096 423.162C116.037 420.378 118.366 418.029 121.11 418.088C123.677 418.088 125.592 420.003 125.592 422.53C125.592 422.944 125.532 423.379 125.434 423.833ZM118.248 422.214H123.519C123.499 420.734 122.394 419.845 121.031 419.845C119.669 419.845 118.564 420.773 118.248 422.214ZM136.435 421.938V427.998H134.362V422.214C134.362 420.872 133.514 419.964 132.25 419.964C130.967 419.964 130.039 420.891 130.039 422.214V427.998H127.967V418.305H129.901V419.253C130.632 418.483 131.599 418.088 132.803 418.088C135.073 418.088 136.435 419.628 136.435 421.938ZM145.085 426.241V427.998C144.434 428.136 143.862 428.215 143.368 428.215C141.137 428.215 139.795 427.11 139.795 424.84V420.102H138.216V418.305H139.795V415.759H141.887V418.305H144.77V420.102H141.887V424.662C141.887 425.906 142.539 426.34 143.802 426.34C144.098 426.34 144.513 426.3 145.085 426.241ZM49.5317 439.752H50.2423V452.998H48.1498V444.825L44.4189 449.721H43.7082L39.9575 444.806V452.998H37.865V439.752H38.5954L44.0636 447.036L49.5317 439.752ZM52.6721 448.142C52.6129 445.358 55.0015 443.049 57.7849 443.088C60.6078 443.029 62.9964 445.398 62.9372 448.142C62.9964 450.886 60.6078 453.274 57.7849 453.215C55.0015 453.274 52.6129 450.886 52.6721 448.142ZM60.8052 448.162C60.8052 446.365 59.4826 444.983 57.8047 444.983C56.0872 444.983 54.7844 446.365 54.7844 448.162C54.7844 449.958 56.0872 451.3 57.7849 451.3C59.5024 451.3 60.8052 449.919 60.8052 448.162ZM73.7822 446.938V452.998H71.7094V447.214C71.7094 445.872 70.8606 444.964 69.5972 444.964C68.314 444.964 67.3862 445.891 67.3862 447.214V452.998H65.3135V443.305H67.248V444.253C67.9784 443.483 68.9457 443.088 70.1499 443.088C72.4201 443.088 73.7822 444.628 73.7822 446.938ZM76.6681 452.998V443.305H78.7409V452.998H76.6681ZM76.2931 439.693C76.2931 438.923 76.9248 438.311 77.7144 438.311C78.4843 438.311 79.116 438.923 79.116 439.693C79.116 440.463 78.4843 441.055 77.7144 441.055C76.9248 441.055 76.2931 440.463 76.2931 439.693ZM87.5025 451.241V452.998C86.851 453.136 86.2785 453.215 85.785 453.215C83.5544 453.215 82.212 452.11 82.212 449.84V445.102H80.6328V443.305H82.212V440.759H84.3045V443.305H87.1866V445.102H84.3045V449.662C84.3045 450.906 84.9559 451.34 86.2193 451.34C86.5154 451.34 86.93 451.3 87.5025 451.241ZM88.7989 448.142C88.7396 445.358 91.1282 443.049 93.9117 443.088C96.7346 443.029 99.1232 445.398 99.0639 448.142C99.1232 450.886 96.7346 453.274 93.9117 453.215C91.1282 453.274 88.7396 450.886 88.7989 448.142ZM96.932 448.162C96.932 446.365 95.6093 444.983 93.9314 444.983C92.214 444.983 90.9111 446.365 90.9111 448.162C90.9111 449.958 92.214 451.3 93.9117 451.3C95.6291 451.3 96.932 449.919 96.932 448.162ZM106.987 443.305V445.141H106.356C104.717 445.141 103.513 446.109 103.513 447.826V452.998H101.44V443.305H103.375V444.569C104.066 443.7 105.092 443.207 106.198 443.207C106.494 443.207 106.75 443.246 106.987 443.305ZM108.843 452.998V443.305H110.916V452.998H108.843ZM108.468 439.693C108.468 438.923 109.1 438.311 109.889 438.311C110.659 438.311 111.291 438.923 111.291 439.693C111.291 440.463 110.659 441.055 109.889 441.055C109.1 441.055 108.468 440.463 108.468 439.693ZM122.382 446.938V452.998H120.309V447.214C120.309 445.872 119.46 444.964 118.197 444.964C116.914 444.964 115.986 445.891 115.986 447.214V452.998H113.913V443.305H115.848V444.253C116.578 443.483 117.545 443.088 118.749 443.088C121.02 443.088 122.382 444.628 122.382 446.938ZM132.868 443.305H134.783V451.991C134.783 455.051 132.868 456.768 129.926 456.768C128.012 456.768 126.432 456.018 125.268 454.933L126.413 453.492C127.498 454.36 128.485 454.873 129.808 454.873C131.565 454.873 132.71 453.926 132.71 452.11V451.419C131.979 452.307 130.775 452.801 129.433 452.801C126.728 452.801 124.715 450.767 124.715 447.944C124.715 445.122 126.748 443.088 129.433 443.088C130.913 443.088 132.157 443.681 132.868 444.687V443.305ZM132.73 447.925C132.73 445.951 131.407 444.944 129.808 444.944C128.959 444.944 128.268 445.22 127.696 445.773C127.123 446.326 126.847 447.056 126.847 447.944C126.847 448.853 127.123 449.583 127.696 450.155C128.268 450.708 128.959 450.985 129.808 450.985C130.617 450.985 131.289 450.728 131.861 450.195C132.433 449.662 132.73 448.912 132.73 447.925Z" fill="#3A7EE4"/>
<path d="M0 495.801L0 593.501H274.12V495.801H0Z" fill="#EBF0FF"/>
<path d="M49.9225 538.7H47.5339L43.8227 533.666H41.4341V538.7H39.3416V525.671H44.0991C46.7246 525.671 48.5209 527.31 48.5209 529.659C48.5209 531.376 47.5734 532.719 46.0139 533.331L49.9225 538.7ZM41.4341 527.527V531.811H44.0596C45.5006 531.811 46.3692 530.942 46.3692 529.679C46.3692 528.396 45.5006 527.527 44.0596 527.527H41.4341ZM60.0931 534.535H52.868C53.1247 536.114 54.3683 537.081 56.0265 537.081C57.0333 537.081 57.9808 536.706 58.8494 535.937L59.8364 537.358C58.731 538.404 57.4478 538.917 55.9673 538.917C53.0062 538.917 50.7558 536.726 50.7558 533.864C50.6966 531.08 53.0259 528.731 55.7699 528.79C58.3362 528.79 60.251 530.705 60.251 533.232C60.251 533.647 60.1918 534.081 60.0931 534.535ZM52.9075 532.916H58.1782C58.1585 531.436 57.053 530.547 55.6909 530.547C54.3288 530.547 53.2234 531.475 52.9075 532.916ZM70.3248 532.837V538.7H68.3903V537.614C67.6796 538.463 66.6136 538.917 65.291 538.917C63.2577 538.917 61.9154 537.792 61.9154 536.114C61.9154 534.436 63.2972 533.351 65.4884 533.351H68.2323V532.719C68.2323 531.376 67.4822 530.646 66.1596 530.646C65.0738 530.646 64.2842 531.12 63.4749 532.087L62.2707 530.863C63.238 529.462 64.679 528.79 66.357 528.79C68.7456 528.79 70.3248 530.232 70.3248 532.837ZM68.2323 535.028V534.851H65.745C64.6396 534.851 64.0276 535.246 64.0276 536.035C64.0276 536.845 64.7185 537.318 65.7253 537.318C67.1269 537.318 68.2323 536.351 68.2323 535.028ZM73.2096 538.7V523.895H75.2823V538.7H73.2096ZM81.4776 538.7V527.547H77.0952V525.671H87.9723V527.547H83.5701V538.7H81.4776ZM89.7885 538.7V529.008H91.8613V538.7H89.7885ZM89.4135 525.395C89.4135 524.625 90.0452 524.013 90.8348 524.013C91.6047 524.013 92.2364 524.625 92.2364 525.395C92.2364 526.165 91.6047 526.757 90.8348 526.757C90.0452 526.757 89.4135 526.165 89.4135 525.395ZM109.407 532.64V538.7H107.315V532.936C107.315 531.574 106.545 530.686 105.301 530.686C104.038 530.686 103.169 531.594 103.169 532.837V538.7H101.097V532.936C101.097 531.594 100.307 530.686 99.0634 530.686C97.8 530.686 96.9314 531.594 96.9314 532.936V538.7H94.8586V529.008H96.7932V529.916C97.4841 529.205 98.4317 528.79 99.5963 528.79C100.939 528.79 101.965 529.363 102.538 530.31C103.248 529.383 104.453 528.79 105.815 528.79C108.045 528.79 109.407 530.33 109.407 532.64ZM121.011 534.535H113.786C114.043 536.114 115.286 537.081 116.945 537.081C117.951 537.081 118.899 536.706 119.767 535.937L120.755 537.358C119.649 538.404 118.366 538.917 116.885 538.917C113.924 538.917 111.674 536.726 111.674 533.864C111.615 531.08 113.944 528.731 116.688 528.79C119.254 528.79 121.169 530.705 121.169 533.232C121.169 533.647 121.11 534.081 121.011 534.535ZM113.826 532.916H119.096C119.077 531.436 117.971 530.547 116.609 530.547C115.247 530.547 114.141 531.475 113.826 532.916ZM131.615 525.671H133.964L128.22 538.917H127.509L121.765 525.671H124.114L127.865 534.732L131.615 525.671ZM135.901 538.7V529.008H137.974V538.7H135.901ZM135.526 525.395C135.526 524.625 136.158 524.013 136.947 524.013C137.717 524.013 138.349 524.625 138.349 525.395C138.349 526.165 137.717 526.757 136.947 526.757C136.158 526.757 135.526 526.165 135.526 525.395ZM140.063 537.042L141.248 535.739C142.096 536.627 142.945 537.121 143.972 537.121C144.86 537.121 145.531 536.746 145.531 536.035C145.531 535.463 145.117 535.226 144.169 534.831L143.182 534.416C141.465 533.706 140.655 532.956 140.655 531.594C140.655 529.856 142.096 528.79 144.071 528.79C145.472 528.79 146.578 529.284 147.426 530.291L146.301 531.574C145.689 530.942 144.88 530.587 144.031 530.587C143.222 530.587 142.708 530.903 142.708 531.515C142.708 532.008 143.044 532.265 143.992 532.66L144.919 533.035C146.755 533.805 147.565 534.594 147.565 535.956C147.565 536.884 147.229 537.614 146.538 538.147C145.847 538.661 144.998 538.917 143.972 538.917C142.314 538.917 140.932 538.167 140.063 537.042ZM149.955 538.7V529.008H152.028V538.7H149.955ZM149.58 525.395C149.58 524.625 150.211 524.013 151.001 524.013C151.771 524.013 152.403 524.625 152.403 525.395C152.403 526.165 151.771 526.757 151.001 526.757C150.211 526.757 149.58 526.165 149.58 525.395ZM165.093 533.864C165.093 536.726 163.059 538.917 160.355 538.917C158.933 538.917 157.69 538.365 156.959 537.358V538.7H155.025V523.895H157.098V530.192C157.828 529.304 158.993 528.79 160.335 528.79C163.079 528.79 165.093 530.982 165.093 533.864ZM162.961 533.844C162.961 531.988 161.658 530.686 159.999 530.686C158.479 530.686 157.078 531.732 157.078 533.864C157.078 535.976 158.479 537.022 159.999 537.022C161.677 537.022 162.961 535.7 162.961 533.844ZM167.478 538.7V529.008H169.551V538.7H167.478ZM167.103 525.395C167.103 524.625 167.735 524.013 168.525 524.013C169.294 524.013 169.926 524.625 169.926 525.395C169.926 526.165 169.294 526.757 168.525 526.757C167.735 526.757 167.103 526.165 167.103 525.395ZM172.548 538.7V523.895H174.621V538.7H172.548ZM177.619 538.7V529.008H179.691V538.7H177.619ZM177.243 525.395C177.243 524.625 177.875 524.013 178.665 524.013C179.435 524.013 180.066 524.625 180.066 525.395C180.066 526.165 179.435 526.757 178.665 526.757C177.875 526.757 177.243 526.165 177.243 525.395ZM188.453 536.943V538.7C187.801 538.838 187.229 538.917 186.735 538.917C184.505 538.917 183.162 537.812 183.162 535.542V530.804H181.583V529.008H183.162V526.461H185.255V529.008H188.137V530.804H185.255V535.364C185.255 536.608 185.906 537.042 187.17 537.042C187.466 537.042 187.88 537.003 188.453 536.943ZM197.305 529.008H199.516L194.798 539.806C193.989 541.642 192.903 542.471 191.245 542.471C190.712 542.471 190.179 542.411 189.646 542.273V540.516C190.258 540.576 190.633 540.595 190.791 540.595C191.758 540.595 192.429 540.26 192.903 539.174L193.298 538.266L189.429 529.008H191.659L194.443 536.055L197.305 529.008ZM39.3416 563.7V550.671H41.4341V563.7H39.3416ZM52.9542 557.64V563.7H50.8815V557.916C50.8815 556.574 50.0326 555.666 48.7692 555.666C47.4861 555.666 46.5583 556.594 46.5583 557.916V563.7H44.4855V554.008H46.4201V554.955C47.1505 554.185 48.1178 553.79 49.322 553.79C51.5921 553.79 52.9542 555.33 52.9542 557.64ZM61.6044 561.943V563.7C60.953 563.838 60.3805 563.917 59.887 563.917C57.6563 563.917 56.314 562.812 56.314 560.542V555.804H54.7347V554.008H56.314V551.461H58.4065V554.008H61.2886V555.804H58.4065V560.364C58.4065 561.608 59.0579 562.042 60.3213 562.042C60.6174 562.042 61.032 562.003 61.6044 561.943ZM62.9008 558.844C62.8416 556.061 65.2302 553.751 68.0136 553.79C70.8365 553.731 73.2251 556.1 73.1659 558.844C73.2251 561.588 70.8365 563.977 68.0136 563.917C65.2302 563.977 62.8416 561.588 62.9008 558.844ZM71.0339 558.864C71.0339 557.067 69.7113 555.686 68.0334 555.686C66.316 555.686 65.0131 557.067 65.0131 558.864C65.0131 560.66 66.316 562.003 68.0136 562.003C69.7311 562.003 71.0339 560.621 71.0339 558.864ZM84.1555 563.7L83.2277 561.529H77.3648L76.437 563.7H74.2063L79.9508 550.454H80.6615L86.406 563.7H84.1555ZM82.4776 559.732L80.3061 554.343L78.1149 559.732H82.4776ZM93.918 554.008H96.129L91.4504 563.917H90.7398L86.0415 554.008H88.2525L91.0951 560.423L93.918 554.008ZM105.314 557.837V563.7H103.38V562.614C102.669 563.463 101.603 563.917 100.28 563.917C98.2471 563.917 96.9047 562.792 96.9047 561.114C96.9047 559.436 98.2865 558.351 100.478 558.351H103.222V557.719C103.222 556.376 102.472 555.646 101.149 555.646C100.063 555.646 99.2736 556.12 98.4642 557.087L97.26 555.863C98.2273 554.462 99.6684 553.79 101.346 553.79C103.735 553.79 105.314 555.232 105.314 557.837ZM103.222 560.028V559.851H100.734C99.6289 559.851 99.0169 560.246 99.0169 561.035C99.0169 561.845 99.7079 562.318 100.715 562.318C102.116 562.318 103.222 561.351 103.222 560.028ZM108.199 563.7V554.008H110.272V563.7H108.199ZM107.824 550.395C107.824 549.625 108.456 549.013 109.245 549.013C110.015 549.013 110.647 549.625 110.647 550.395C110.647 551.165 110.015 551.757 109.245 551.757C108.456 551.757 107.824 551.165 107.824 550.395ZM113.269 563.7V548.895H115.342V563.7H113.269ZM126.038 557.837V563.7H124.103V562.614C123.393 563.463 122.327 563.917 121.004 563.917C118.971 563.917 117.628 562.792 117.628 561.114C117.628 559.436 119.01 558.351 121.201 558.351H123.945V557.719C123.945 556.376 123.195 555.646 121.873 555.646C120.787 555.646 119.997 556.12 119.188 557.087L117.984 555.863C118.951 554.462 120.392 553.79 122.07 553.79C124.459 553.79 126.038 555.232 126.038 557.837ZM123.945 560.028V559.851H121.458C120.353 559.851 119.741 560.246 119.741 561.035C119.741 561.845 120.432 562.318 121.438 562.318C122.84 562.318 123.945 561.351 123.945 560.028ZM138.99 558.864C138.99 561.726 136.957 563.917 134.253 563.917C132.831 563.917 131.588 563.365 130.857 562.358V563.7H128.923V548.895H130.995V555.192C131.726 554.304 132.89 553.79 134.233 553.79C136.977 553.79 138.99 555.982 138.99 558.864ZM136.858 558.844C136.858 556.988 135.555 555.686 133.897 555.686C132.377 555.686 130.976 556.732 130.976 558.864C130.976 560.976 132.377 562.022 133.897 562.022C135.575 562.022 136.858 560.7 136.858 558.844ZM141.376 563.7V548.895H143.449V563.7H141.376ZM155.172 559.535H147.946C148.203 561.114 149.447 562.081 151.105 562.081C152.112 562.081 153.059 561.706 153.928 560.937L154.915 562.358C153.809 563.404 152.526 563.917 151.046 563.917C148.085 563.917 145.834 561.726 145.834 558.864C145.775 556.08 148.104 553.731 150.848 553.79C153.415 553.79 155.329 555.705 155.329 558.232C155.329 558.647 155.27 559.081 155.172 559.535ZM147.986 557.916H153.257C153.237 556.436 152.131 555.547 150.769 555.547C149.407 555.547 148.302 556.475 147.986 557.916ZM162.448 561.094L163.928 559.969C164.797 561.233 165.843 562.042 167.343 562.042C168.686 562.042 169.594 561.331 169.594 560.226C169.594 559.298 169.041 558.903 167.679 558.272L166.238 557.6C164.343 556.732 163.198 555.725 163.198 553.988C163.198 551.856 165.053 550.454 167.304 550.454C169.14 550.454 170.699 551.382 171.509 552.784L170.048 553.909C169.357 552.882 168.409 552.33 167.304 552.33C166.198 552.33 165.33 552.882 165.33 553.909C165.409 554.935 165.863 555.113 167.146 555.764L168.607 556.436C170.719 557.403 171.726 558.429 171.726 560.147C171.726 562.417 169.87 563.917 167.363 563.917C165.231 563.917 163.454 562.851 162.448 561.094ZM174.165 559.634V554.008H176.218V559.792C176.218 561.134 177.146 562.003 178.41 562.003C179.614 562.003 180.542 561.134 180.542 559.792V554.008H182.614V559.634C182.614 562.239 180.779 563.917 178.41 563.917C175.982 563.917 174.165 562.239 174.165 559.634ZM195.59 558.844C195.59 561.746 193.577 563.917 190.833 563.917C189.51 563.917 188.365 563.404 187.595 562.516V567.253H185.522V554.008H187.457V555.37C188.168 554.363 189.411 553.79 190.833 553.79C193.577 553.79 195.59 555.982 195.59 558.844ZM193.458 558.864C193.458 557.008 192.175 555.686 190.497 555.686C188.977 555.686 187.575 556.732 187.575 558.844C187.575 560.976 188.977 562.022 190.497 562.022C192.155 562.022 193.458 560.719 193.458 558.864ZM208.044 558.844C208.044 561.746 206.03 563.917 203.286 563.917C201.964 563.917 200.819 563.404 200.049 562.516V567.253H197.976V554.008H199.911V555.37C200.621 554.363 201.865 553.79 203.286 553.79C206.03 553.79 208.044 555.982 208.044 558.844ZM205.912 558.864C205.912 557.008 204.629 555.686 202.951 555.686C201.431 555.686 200.029 556.732 200.029 558.844C200.029 560.976 201.431 562.022 202.951 562.022C204.609 562.022 205.912 560.719 205.912 558.864ZM210.429 563.7V548.895H212.502V563.7H210.429ZM222.251 554.008H224.462L219.744 564.806C218.934 566.642 217.849 567.471 216.19 567.471C215.657 567.471 215.124 567.411 214.591 567.273V565.516C215.203 565.576 215.578 565.595 215.736 565.595C216.704 565.595 217.375 565.26 217.849 564.174L218.243 563.266L214.374 554.008H216.605L219.388 561.055L222.251 554.008Z" fill="#3A7EE4"/>
<path d="M273.731 131.573C278.874 131.675 283.985 130.75 288.765 128.853C293.546 126.955 297.9 124.123 301.573 120.522C305.246 116.922 308.164 112.624 310.156 107.882C312.148 103.14 313.174 98.0481 313.174 92.9045C313.174 87.761 312.148 82.6691 310.156 77.9269C308.164 73.1848 305.246 68.8875 301.573 65.2867C297.9 61.6859 293.546 58.8538 288.765 56.9563C283.985 55.0588 278.874 54.1339 273.731 54.2359H273.64V44.0315H273.731C280.218 43.9171 286.662 45.096 292.688 47.4992C298.714 49.9024 304.201 53.4819 308.829 58.0287C313.456 62.5755 317.132 67.9985 319.641 73.9812C322.15 79.964 323.442 86.3866 323.442 92.8742C323.442 99.3618 322.15 105.784 319.641 111.767C317.132 117.75 313.456 123.173 308.829 127.72C304.201 132.266 298.714 135.846 292.688 138.249C286.662 140.652 280.218 141.831 273.731 141.717H273.64V131.543L273.731 131.573Z" fill="#3A7EE4"/>
<path d="M307.322 95.5604C308.793 77.0006 294.939 60.7628 276.379 59.2924C257.819 57.8219 241.582 71.6756 240.111 90.2353C238.641 108.795 252.494 125.033 271.054 126.503C289.614 127.974 305.852 114.12 307.322 95.5604Z" fill="#3E7B97"/>
<path d="M307.322 95.5604C308.793 77.0006 294.939 60.7628 276.379 59.2924C257.819 57.8219 241.582 71.6756 240.111 90.2353C238.641 108.795 252.494 125.033 271.054 126.503C289.614 127.974 305.852 114.12 307.322 95.5604Z" fill="#3A7EE4"/>
<path d="M260.824 106.928C258.911 106.928 257.24 106.928 255.57 106.928C255.16 106.928 254.522 106.609 254.431 106.305C254.203 105.577 254.75 105.334 255.418 105.349C257.164 105.349 258.911 105.349 260.657 105.349C260.984 105.406 261.32 105.34 261.601 105.163C261.881 104.986 262.086 104.712 262.175 104.392C262.433 103.754 262.813 103.147 263.208 102.357H256.268C255.881 102.419 255.486 102.419 255.099 102.357C254.795 102.236 254.401 101.871 254.401 101.613C254.401 101.355 254.78 101.006 255.069 100.869C255.384 100.8 255.71 100.8 256.025 100.869H272.729V98.3029C271.21 98.3029 269.586 98.394 268.052 98.3029C266.542 98.2784 265.075 97.8044 263.836 96.9416C262.597 96.0788 261.643 94.8662 261.097 93.4589C260.476 91.6559 259.994 89.808 259.655 87.9315C259.621 87.8012 259.616 87.6653 259.64 87.5329C259.663 87.4004 259.715 87.2746 259.791 87.1638C259.867 87.053 259.966 86.9599 260.082 86.8906C260.197 86.8213 260.326 86.7776 260.459 86.7623C262.859 86.0475 265.403 85.9742 267.839 86.5497C269.865 87.11 271.598 88.4251 272.683 90.2244C272.683 88.7059 273.139 87.1874 271.696 85.6689C267.429 81.326 268.766 76.9831 273.033 73.445C273.23 73.336 273.452 73.2788 273.678 73.2788C273.904 73.2788 274.126 73.336 274.323 73.445C275.962 74.6613 277.196 76.3445 277.861 78.2738C278.112 79.0043 278.211 79.7779 278.153 80.5479C278.096 81.3178 277.883 82.0681 277.527 82.7534C277.151 83.7127 276.577 84.582 275.842 85.3045C274.08 86.656 274.323 88.3415 274.445 90.2852C274.562 90.214 274.67 90.1271 274.764 90.027C275.479 88.8247 276.502 87.8349 277.727 87.1596C278.952 86.4843 280.335 86.1479 281.734 86.1852C283.399 86.2165 285.058 86.4149 286.684 86.7774C286.905 86.8662 287.1 87.0107 287.249 87.1969C287.398 87.3832 287.496 87.6049 287.534 87.8404C287.476 90.3794 286.696 92.8493 285.287 94.9622C284.407 96.1614 283.226 97.1073 281.864 97.7045C280.501 98.3017 279.006 98.529 277.527 98.3636C276.571 98.3636 275.629 98.1814 274.581 98.0751V100.763H291.133C291.376 100.763 291.619 100.763 291.877 100.763C292.469 100.763 293.062 100.9 292.925 101.598C292.925 101.902 292.257 102.312 291.892 102.312C289.478 102.312 287.048 102.312 284.634 102.312H283.237C283.768 103.314 284.178 104.195 284.755 105.015C284.877 105.212 285.302 105.273 285.591 105.273C287.615 105.273 289.68 105.273 291.786 105.273C292.394 105.273 293.016 105.273 293.031 106.078C293.046 106.882 292.394 106.898 291.786 106.898H285.712L286.851 109.13C287.124 109.661 287.231 110.254 286.562 110.436C286.342 110.441 286.124 110.389 285.93 110.286C285.736 110.182 285.572 110.03 285.454 109.843C284.194 107.611 283.009 105.288 281.855 103.071C281.808 102.911 281.725 102.764 281.611 102.642C281.498 102.52 281.357 102.426 281.201 102.367C281.045 102.308 280.878 102.286 280.712 102.303C280.546 102.32 280.387 102.375 280.246 102.464C280.959 104.514 281.688 106.548 282.371 108.538C282.599 109.175 283.237 110.056 282.144 110.421C281.05 110.785 281.111 109.692 280.883 109.084C280.17 107.141 279.501 105.197 278.833 103.253C278.454 102.175 278.454 102.175 277.148 102.388C277.527 104.544 277.892 106.7 278.271 108.872V109.069C278.408 109.661 278.484 110.314 277.725 110.451C276.966 110.588 276.768 109.919 276.662 109.312C276.313 107.308 275.903 105.318 275.644 103.238C275.508 102.205 275.067 101.993 274.05 102.297V109.327C274.05 109.935 273.974 110.557 273.215 110.542C272.456 110.527 272.41 109.889 272.41 109.282V102.448C271.423 102.145 270.891 102.312 270.816 103.405C270.557 105.425 270.147 107.399 269.798 109.403C269.692 109.98 269.555 110.633 268.811 110.527C268.067 110.421 268.067 109.722 268.189 109.099C268.583 106.898 268.963 104.696 269.358 102.448C268.492 102.145 267.976 102.266 267.672 103.238C267.019 105.379 266.23 107.475 265.486 109.585C265.303 110.117 265.091 110.77 264.332 110.496C263.572 110.223 263.755 109.631 263.952 108.978C264.605 107.141 265.258 105.303 265.896 103.451C266.017 103.101 266.123 102.737 266.245 102.372C266.101 102.287 265.94 102.236 265.773 102.222C265.606 102.209 265.439 102.234 265.283 102.296C265.128 102.357 264.989 102.454 264.876 102.578C264.764 102.702 264.681 102.85 264.635 103.01C263.542 105.212 262.373 107.368 261.219 109.54C260.945 110.041 260.702 110.785 259.913 110.39C259.123 109.995 259.548 109.312 259.822 108.75C260.095 108.188 260.383 107.809 260.824 106.928ZM272.547 95.1596C271.863 89.0856 266.139 85.7752 261.355 88.3567C262.008 94.78 266.594 98.4699 271.469 96.4047L270.527 95.691C268.735 94.4155 266.913 93.1703 265.167 91.8341C265.006 91.6829 264.884 91.4944 264.812 91.2853C264.741 91.0762 264.722 90.8527 264.757 90.6344C265.045 89.9967 265.607 90.2093 266.093 90.6344L266.898 91.1052L272.547 95.1596ZM285.955 88.2656C279.881 86.7471 275.675 88.8578 274.779 95.0988L275.69 94.5066L281.157 90.6041C281.612 90.27 282.113 89.9815 282.554 90.6041C282.994 91.2267 282.554 91.6215 282.068 91.9859C280.185 93.3222 278.307 94.6635 276.434 96.0099C276.212 96.1813 276 96.3638 275.796 96.5566C281.901 97.6803 285.272 94.6888 285.94 88.2656H285.955ZM272.805 84.4997V83.6645C272.805 82.3738 272.805 81.0982 272.805 79.8227C272.805 79.4583 273.306 79.1242 273.564 78.7901C273.875 79.0911 274.137 79.4396 274.339 79.8227C274.408 80.2451 274.408 80.6759 274.339 81.0982V84.5149C277.376 81.4779 277.041 77.7272 273.625 75.085C270.193 77.6816 269.768 81.3412 272.79 84.4997H272.805Z" fill="white"/>
<path d="M273.719 244.367C278.862 244.468 283.973 243.544 288.754 241.646C293.534 239.749 297.888 236.917 301.561 233.316C305.234 229.715 308.152 225.418 310.144 220.675C312.136 215.933 313.162 210.841 313.162 205.698C313.162 200.554 312.136 195.463 310.144 190.72C308.152 185.978 305.234 181.681 301.561 178.08C297.888 174.479 293.534 171.647 288.754 169.75C283.973 167.852 278.862 166.927 273.719 167.029H273.628V156.855H273.719C280.206 156.741 286.65 157.92 292.676 160.323C298.702 162.726 304.189 166.306 308.817 170.852C313.444 175.399 317.12 180.822 319.629 186.805C322.138 192.788 323.43 199.21 323.43 205.698C323.43 212.185 322.138 218.608 319.629 224.591C317.12 230.574 313.444 235.997 308.817 240.543C304.189 245.09 298.702 248.67 292.676 251.073C286.65 253.476 280.206 254.655 273.719 254.541H273.628V244.367H273.719Z" fill="#3A7EE4"/>
<path d="M307.322 208.366C308.793 189.806 294.939 173.569 276.379 172.098C257.819 170.628 241.582 184.481 240.111 203.041C238.641 221.601 252.494 237.839 271.054 239.309C289.614 240.779 305.852 226.926 307.322 208.366Z" fill="#3E7B97"/>
<path d="M307.322 208.366C308.793 189.806 294.939 173.569 276.379 172.098C257.819 170.628 241.582 184.481 240.111 203.041C238.641 221.601 252.494 237.839 271.054 239.309C289.614 240.779 305.852 226.926 307.322 208.366Z" fill="#3A7EE4"/>
<path d="M262.497 214.514V221.302C262.497 222.911 261.951 223.473 260.387 223.473C258.155 223.473 255.938 223.473 253.705 223.473C252.187 223.473 251.625 222.896 251.625 221.378V207.711C251.625 206.192 252.187 205.707 253.629 205.691H260.539C261.936 205.691 262.482 206.253 262.482 207.65C262.497 209.913 262.497 212.221 262.497 214.514ZM252.627 214.514C252.627 216.746 252.627 218.963 252.627 221.18C252.627 222.106 252.87 222.547 253.872 222.516C256.029 222.516 258.185 222.516 260.326 222.516C261.252 222.516 261.571 222.137 261.571 221.256C261.571 216.782 261.571 212.302 261.571 207.817C261.571 206.921 261.207 206.557 260.296 206.572C258.185 206.572 256.059 206.572 253.948 206.572C252.901 206.572 252.597 206.982 252.627 207.954C252.658 210.125 252.627 212.312 252.627 214.499V214.514Z" fill="white" stroke="white" stroke-width="0.759252" stroke-miterlimit="10"/>
<path d="M257.775 203.61H256.848C256.812 203.46 256.787 203.308 256.772 203.154C256.772 200.876 256.772 198.598 256.772 196.351C256.738 195.847 256.813 195.342 256.991 194.869C257.17 194.397 257.448 193.968 257.806 193.612C258.165 193.256 258.596 192.982 259.07 192.807C259.544 192.633 260.05 192.562 260.553 192.6H288.145C288.719 192.569 289.292 192.673 289.819 192.904C290.345 193.134 290.81 193.485 291.177 193.928C291.543 194.371 291.8 194.894 291.928 195.455C292.055 196.015 292.049 196.598 291.911 197.156C291.911 197.414 291.47 197.611 291.015 198.052C291.015 197.338 291.015 197.05 291.015 196.761C291.015 194.438 290.18 193.724 287.811 193.724H260.493C260.13 193.686 259.764 193.729 259.421 193.851C259.077 193.972 258.765 194.169 258.508 194.427C258.25 194.684 258.053 194.996 257.932 195.34C257.81 195.683 257.767 196.05 257.805 196.412C257.775 198.705 257.775 201.119 257.775 203.61Z" fill="white" stroke="white" stroke-width="0.759252" stroke-miterlimit="10"/>
<path d="M264.441 215.955H287.522C290.088 215.955 290.817 215.226 290.848 212.675C290.848 212.493 290.848 212.311 290.848 212.038H291.759C292.108 215.424 290.741 216.958 287.431 216.958H265.367C264.805 216.958 264.122 217.14 264.441 215.955Z" fill="white" stroke="white" stroke-width="0.759252" stroke-miterlimit="10"/>
<path d="M274.311 221.27C272.246 221.27 270.166 221.27 268.085 221.27C267.782 221.27 267.478 220.967 267.174 220.8C267.463 220.663 267.767 220.405 268.07 220.405C272.261 220.405 276.437 220.405 280.628 220.405C280.917 220.405 281.205 220.678 281.494 220.83C281.22 220.982 280.932 221.27 280.659 221.27C278.548 221.286 276.437 221.27 274.311 221.27Z" fill="white" stroke="white" stroke-width="0.759252" stroke-miterlimit="10"/>
<path d="M290.574 201.652C288.494 201.652 286.414 201.652 284.349 201.652C284.03 201.652 283.726 201.348 283.422 201.181C283.726 201.044 284.015 200.786 284.318 200.786C288.509 200.786 292.7 200.786 296.891 200.786C297.18 200.786 297.453 201.075 297.742 201.211C297.469 201.363 297.195 201.652 296.907 201.652C294.796 201.667 292.7 201.652 290.574 201.652Z" fill="white" stroke="white" stroke-width="0.759252" stroke-miterlimit="10"/>
<path d="M290.574 204.065C288.494 204.065 286.414 204.065 284.349 204.065C284.03 204.065 283.726 203.746 283.422 203.595C283.726 203.443 284.015 203.185 284.318 203.185C288.509 203.185 292.7 203.185 296.891 203.185C297.18 203.185 297.453 203.473 297.742 203.625C297.469 203.777 297.195 204.05 296.907 204.065C294.796 204.08 292.7 204.065 290.574 204.065Z" fill="white" stroke="white" stroke-width="0.759252" stroke-miterlimit="10"/>
<path d="M290.286 206.51C288.206 206.51 286.125 206.51 284.06 206.51C283.741 206.51 283.438 206.206 283.134 206.039C283.438 205.902 283.726 205.644 284.03 205.644C288.221 205.644 292.412 205.644 296.603 205.644C296.892 205.644 297.165 205.917 297.454 206.069C297.18 206.221 296.907 206.51 296.618 206.51C294.508 206.51 292.397 206.51 290.286 206.51Z" fill="white" stroke="white" stroke-width="0.759252" stroke-miterlimit="10"/>
<path d="M290.286 209.016C288.206 209.016 286.125 209.016 284.06 209.016C283.741 209.016 283.438 208.713 283.134 208.546C283.438 208.409 283.726 208.151 284.03 208.151C288.221 208.151 292.412 208.151 296.603 208.151C296.892 208.151 297.165 208.424 297.454 208.576C297.18 208.728 296.907 209.016 296.618 209.016C294.508 209.032 292.397 209.016 290.286 209.016Z" fill="white" stroke="white" stroke-width="0.759252" stroke-miterlimit="10"/>
<path d="M257.015 209.457C256.798 209.472 256.58 209.472 256.363 209.457C256.222 209.436 256.093 209.366 255.998 209.259C255.949 209.106 255.949 208.942 255.998 208.789C256.597 208.702 257.2 208.646 257.805 208.622C257.942 208.622 258.078 208.895 258.2 209.047C258.039 209.209 257.855 209.348 257.653 209.457C257.437 209.495 257.216 209.495 257 209.457H257.015Z" fill="white" stroke="white" stroke-width="0.759252" stroke-miterlimit="10"/>
<path d="M273.722 357.237C283.845 357.036 293.485 352.874 300.573 345.644C307.662 338.414 311.632 328.693 311.632 318.568C311.632 308.443 307.662 298.722 300.573 291.492C293.485 284.262 283.845 280.1 273.722 279.9H273.631V269.726H273.722C286.678 269.726 299.103 274.872 308.264 284.033C317.425 293.195 322.572 305.62 322.572 318.576C322.572 331.532 317.425 343.957 308.264 353.118C299.103 362.279 286.678 367.426 273.722 367.426H273.631V357.237H273.722Z" fill="#3A7EE4"/>
<path d="M307.322 321.225C308.793 302.666 294.939 286.428 276.379 284.957C257.819 283.487 241.582 297.341 240.111 315.9C238.641 334.46 252.494 350.698 271.054 352.168C289.614 353.639 305.852 339.785 307.322 321.225Z" fill="#3E7B97"/>
<path d="M307.322 321.225C308.793 302.666 294.939 286.428 276.379 284.957C257.819 283.487 241.582 297.341 240.111 315.9C238.641 334.46 252.494 350.698 271.054 352.168C289.614 353.639 305.852 339.785 307.322 321.225Z" fill="#3A7EE4"/>
<path d="M293.599 316.238H293.174C293.174 316.36 293.174 316.481 293.174 316.603V330.543C293.174 330.845 293.054 331.134 292.84 331.348C292.627 331.562 292.337 331.682 292.035 331.682C291.733 331.682 291.443 331.562 291.229 331.348C291.016 331.134 290.896 330.845 290.896 330.543V322.373H290.319V330.497C290.329 330.663 290.302 330.828 290.242 330.982C290.181 331.136 290.087 331.275 289.967 331.39C289.847 331.504 289.704 331.59 289.547 331.644C289.39 331.697 289.223 331.715 289.058 331.697C288.786 331.678 288.529 331.559 288.338 331.363C288.148 331.167 288.037 330.907 288.026 330.634C288.018 330.502 288.018 330.371 288.026 330.239V316.299H287.616C287.616 316.405 287.616 316.512 287.616 316.618V321.599C287.628 321.733 287.613 321.869 287.571 321.997C287.529 322.126 287.461 322.244 287.371 322.345C287.282 322.446 287.172 322.528 287.05 322.585C286.927 322.642 286.794 322.673 286.659 322.677C286.528 322.685 286.396 322.666 286.273 322.621C286.15 322.576 286.037 322.505 285.943 322.413C285.848 322.322 285.774 322.211 285.725 322.089C285.676 321.967 285.653 321.837 285.657 321.705V316.299C285.655 315.863 285.74 315.43 285.906 315.026C286.073 314.623 286.318 314.257 286.627 313.949C286.937 313.641 287.304 313.397 287.709 313.232C288.113 313.068 288.546 312.985 288.983 312.989H292.232C292.68 312.981 293.126 313.063 293.541 313.231C293.957 313.399 294.334 313.65 294.651 313.968C294.967 314.285 295.216 314.664 295.382 315.08C295.548 315.496 295.629 315.942 295.618 316.39C295.618 318.137 295.618 319.883 295.618 321.629C295.636 321.768 295.623 321.909 295.582 322.043C295.541 322.176 295.472 322.3 295.379 322.405C295.286 322.51 295.172 322.594 295.045 322.651C294.917 322.709 294.779 322.738 294.639 322.738C294.499 322.738 294.361 322.709 294.233 322.651C294.106 322.594 293.992 322.51 293.899 322.405C293.807 322.3 293.737 322.176 293.696 322.043C293.655 321.909 293.642 321.768 293.66 321.629V316.254L293.599 316.238Z" fill="#F2F2F2"/>
<path d="M257.58 322.312H257.019C257.019 322.449 257.019 322.555 257.019 322.676C257.019 325.258 257.019 327.824 257.019 330.39C257.033 330.562 257.009 330.735 256.949 330.897C256.889 331.058 256.794 331.204 256.67 331.325C256.547 331.445 256.398 331.537 256.236 331.593C256.073 331.65 255.899 331.669 255.728 331.651C255.467 331.62 255.226 331.501 255.043 331.313C254.86 331.125 254.748 330.879 254.726 330.618C254.718 330.487 254.718 330.355 254.726 330.223V316.557C254.726 316.177 254.726 316.162 254.27 316.253V321.629C254.271 321.806 254.224 321.98 254.134 322.133C254.044 322.286 253.914 322.411 253.759 322.497C253.603 322.582 253.428 322.624 253.251 322.619C253.073 322.613 252.901 322.559 252.752 322.464C252.615 322.383 252.502 322.267 252.424 322.129C252.347 321.99 252.308 321.833 252.311 321.674C252.311 319.791 252.311 317.893 252.311 316.01C252.357 315.194 252.713 314.425 253.305 313.861C253.897 313.297 254.682 312.98 255.5 312.973C256.685 312.973 257.854 312.973 259.038 312.973C259.871 312.981 260.669 313.311 261.263 313.894C261.858 314.477 262.203 315.269 262.227 316.101C262.227 317.954 262.227 319.822 262.227 321.674C262.227 321.802 262.202 321.928 262.153 322.046C262.104 322.164 262.033 322.271 261.942 322.361C261.852 322.452 261.745 322.523 261.627 322.572C261.509 322.621 261.383 322.646 261.255 322.646C261.128 322.646 261.001 322.621 260.883 322.572C260.765 322.523 260.658 322.452 260.568 322.361C260.478 322.271 260.406 322.164 260.357 322.046C260.308 321.928 260.283 321.802 260.283 321.674C260.283 319.989 260.283 318.303 260.283 316.602V316.253H259.843V330.466C259.854 330.641 259.824 330.816 259.756 330.977C259.688 331.138 259.584 331.281 259.452 331.396C259.32 331.51 259.163 331.593 258.994 331.637C258.825 331.681 258.648 331.686 258.476 331.651C258.2 331.596 257.954 331.442 257.783 331.219C257.613 330.995 257.53 330.717 257.55 330.436V322.327L257.58 322.312Z" fill="#F2F2F2"/>
<path d="M284.139 304.135C284.139 303.482 284.139 302.89 284.139 302.313C284.139 302.152 284.203 301.997 284.317 301.884C284.431 301.77 284.585 301.706 284.746 301.706C284.908 301.706 285.062 301.77 285.176 301.884C285.29 301.997 285.354 302.152 285.354 302.313V305.456C285.364 305.544 285.353 305.634 285.324 305.717C285.294 305.801 285.247 305.877 285.184 305.939C285.121 306.002 285.045 306.05 284.962 306.079C284.878 306.109 284.789 306.119 284.701 306.109H281.527C281.443 306.12 281.357 306.113 281.275 306.088C281.193 306.063 281.118 306.022 281.053 305.966C280.989 305.91 280.937 305.841 280.901 305.764C280.865 305.686 280.845 305.602 280.844 305.517C280.845 305.43 280.865 305.344 280.902 305.265C280.939 305.186 280.992 305.115 281.058 305.058C281.124 305 281.201 304.958 281.284 304.932C281.368 304.907 281.456 304.899 281.542 304.91H283.061V304.819L282.879 304.712C279.968 302.396 276.314 301.221 272.599 301.405C268.884 301.59 265.364 303.122 262.698 305.714C262.589 305.831 262.454 305.92 262.303 305.973C262.181 306.013 262.049 306.009 261.93 305.962C261.81 305.915 261.711 305.827 261.65 305.714C261.571 305.594 261.538 305.45 261.557 305.307C261.577 305.165 261.648 305.034 261.756 304.94C262.349 304.424 262.91 303.877 263.548 303.422C266.508 301.228 270.118 300.089 273.801 300.189C277.484 300.288 281.028 301.618 283.866 303.968L284.139 304.135Z" fill="#F2F2F2"/>
<path d="M262.789 336.844V338.286C262.789 338.438 262.789 338.59 262.789 338.742C262.789 338.899 262.726 339.05 262.615 339.161C262.504 339.272 262.354 339.334 262.197 339.334C262.116 339.334 262.035 339.318 261.961 339.287C261.886 339.255 261.818 339.209 261.762 339.151C261.705 339.093 261.661 339.024 261.631 338.949C261.601 338.873 261.587 338.793 261.589 338.712V335.584C261.578 335.498 261.586 335.412 261.611 335.33C261.637 335.248 261.68 335.172 261.738 335.109C261.796 335.045 261.867 334.995 261.946 334.962C262.025 334.928 262.111 334.912 262.197 334.915C263.29 334.915 264.368 334.915 265.461 334.915C265.545 334.908 265.629 334.92 265.708 334.949C265.786 334.978 265.858 335.023 265.917 335.082C265.976 335.142 266.022 335.213 266.051 335.292C266.079 335.37 266.091 335.454 266.084 335.538C266.08 335.621 266.06 335.701 266.024 335.776C265.988 335.85 265.937 335.916 265.874 335.97C265.812 336.024 265.739 336.065 265.66 336.09C265.581 336.115 265.498 336.123 265.416 336.115H263.897C263.932 336.179 263.978 336.236 264.034 336.282C266.948 338.565 270.592 339.711 274.287 339.507C277.983 339.303 281.479 337.763 284.124 335.173C284.412 334.9 284.64 334.839 284.913 334.976C285.033 335.024 285.131 335.113 285.19 335.228C285.248 335.342 285.263 335.474 285.232 335.599C285.207 335.742 285.138 335.875 285.035 335.978C282.518 338.497 279.23 340.101 275.696 340.534C273.455 340.861 271.17 340.715 268.989 340.106C266.808 339.496 264.779 338.437 263.032 336.996L262.789 336.844Z" fill="#F2F2F2"/>
<path d="M292.794 310.331C292.749 310.865 292.505 311.364 292.109 311.727C291.714 312.09 291.197 312.291 290.661 312.291C290.124 312.291 289.607 312.09 289.212 311.727C288.817 311.364 288.572 310.865 288.527 310.331C288.502 310.035 288.539 309.738 288.635 309.458C288.731 309.177 288.884 308.92 289.084 308.701C289.285 308.483 289.528 308.309 289.8 308.19C290.071 308.071 290.364 308.009 290.661 308.009C290.957 308.009 291.25 308.071 291.521 308.19C291.793 308.309 292.036 308.483 292.237 308.701C292.438 308.92 292.591 309.177 292.687 309.458C292.782 309.738 292.819 310.035 292.794 310.331Z" fill="#F2F2F2"/>
<path d="M257.353 312.458C257.057 312.483 256.76 312.446 256.479 312.35C256.199 312.254 255.942 312.101 255.723 311.901C255.505 311.7 255.331 311.456 255.212 311.185C255.093 310.914 255.031 310.621 255.031 310.324C255.031 310.028 255.093 309.735 255.212 309.463C255.331 309.192 255.505 308.948 255.723 308.748C255.942 308.547 256.199 308.394 256.479 308.298C256.76 308.202 257.057 308.166 257.353 308.191C257.911 308.21 258.442 308.443 258.834 308.841C259.227 309.239 259.452 309.773 259.463 310.332C259.455 310.891 259.231 311.425 258.837 311.821C258.444 312.218 257.911 312.446 257.353 312.458Z" fill="#F2F2F2"/>
<path d="M273.71 470.201C278.853 470.303 283.964 469.378 288.745 467.48C293.526 465.583 297.88 462.751 301.553 459.15C305.226 455.549 308.143 451.252 310.135 446.51C312.127 441.767 313.153 436.676 313.153 431.532C313.153 426.388 312.127 421.297 310.135 416.554C308.143 411.812 305.226 407.515 301.553 403.914C297.88 400.313 293.526 397.481 288.745 395.584C283.964 393.686 278.853 392.761 273.71 392.863H273.619V382.659H273.71C280.197 382.545 286.641 383.723 292.667 386.127C298.694 388.53 304.181 392.109 308.808 396.656C313.436 401.203 317.112 406.626 319.621 412.609C322.13 418.591 323.422 425.014 323.422 431.502C323.422 437.989 322.13 444.412 319.621 450.395C317.112 456.377 313.436 461.8 308.808 466.347C304.181 470.894 298.694 474.473 292.667 476.877C286.641 479.28 280.197 480.459 273.71 480.344H273.619V470.17L273.71 470.201Z" fill="#3A7EE4"/>
<path d="M307.322 434.192C308.793 415.632 294.939 399.395 276.379 397.924C257.819 396.454 241.582 410.307 240.111 428.867C238.641 447.427 252.494 463.665 271.054 465.135C289.614 466.606 305.852 452.752 307.322 434.192Z" fill="#3E7B97"/>
<path d="M307.322 434.192C308.793 415.632 294.939 399.395 276.379 397.924C257.819 396.454 241.582 410.307 240.111 428.867C238.641 447.427 252.494 463.665 271.054 465.135C289.614 466.606 305.852 452.752 307.322 434.192Z" fill="#3A7EE4"/>
<path d="M297.688 447.953C296.883 448.789 296.169 449.639 295.288 450.444C295.119 450.594 294.9 450.677 294.673 450.677C294.447 450.677 294.228 450.594 294.058 450.444C293.825 450.243 293.602 450.03 293.39 449.806L288.835 445.25C288.667 445.121 288.54 444.946 288.468 444.748C288.395 444.549 288.38 444.334 288.425 444.127C288.443 444.089 288.453 444.047 288.453 444.005C288.453 443.963 288.443 443.922 288.425 443.884C288.015 443.443 287.59 443.018 287.088 442.502C287.088 442.76 287.088 442.882 287.088 443.018C287.088 444.825 287.088 446.647 287.088 448.454C287.088 449.381 286.754 449.73 285.828 449.73H269.565C269.444 449.707 269.335 449.645 269.253 449.554C269.171 449.463 269.121 449.348 269.111 449.225C269.1 449.103 269.13 448.981 269.196 448.878C269.261 448.774 269.359 448.695 269.474 448.652C269.65 448.629 269.829 448.629 270.005 448.652H285.843V443.109L284.826 443.535V446.359C284.826 447.255 284.461 447.619 283.565 447.619H261.866V448.652H266.725C266.876 448.629 267.03 448.629 267.181 448.652C267.304 448.687 267.41 448.768 267.478 448.877C267.545 448.987 267.569 449.118 267.545 449.244C267.538 449.368 267.487 449.486 267.401 449.575C267.314 449.664 267.198 449.719 267.075 449.73H261.805C261.654 449.751 261.499 449.735 261.354 449.686C261.209 449.637 261.078 449.554 260.97 449.445C260.863 449.336 260.782 449.204 260.735 449.058C260.687 448.912 260.674 448.758 260.697 448.606V447.543H259.634C259.48 447.563 259.323 447.547 259.176 447.497C259.028 447.447 258.895 447.364 258.785 447.254C258.675 447.144 258.591 447.01 258.541 446.863C258.491 446.716 258.475 446.559 258.495 446.404V413.757C258.475 413.604 258.49 413.45 258.54 413.304C258.589 413.159 258.671 413.027 258.78 412.918C258.889 412.809 259.021 412.727 259.166 412.678C259.312 412.628 259.466 412.613 259.619 412.633H283.915C284.042 412.635 284.168 412.662 284.286 412.713C284.403 412.763 284.509 412.837 284.598 412.928C284.686 413.02 284.756 413.128 284.803 413.247C284.85 413.366 284.873 413.492 284.871 413.62C284.871 414 284.871 414.379 284.871 414.82H285.737C286.754 414.82 287.073 415.154 287.073 416.171V425.024C287.62 425.115 287.772 425.54 287.908 425.996C288.044 426.463 288.297 426.888 288.642 427.23C288.988 427.573 289.414 427.822 289.882 427.955L290.247 428.076C290.415 428.127 290.561 428.232 290.663 428.375C290.765 428.518 290.816 428.69 290.809 428.866C290.806 429.033 290.75 429.196 290.649 429.33C290.548 429.463 290.407 429.562 290.247 429.61L289.913 429.747C290.775 431.318 291.192 433.095 291.117 434.885C291.042 436.676 290.478 438.412 289.488 439.905L290.915 441.318C290.962 441.354 291.015 441.382 291.073 441.397C291.13 441.413 291.19 441.417 291.249 441.409C291.418 441.368 291.594 441.374 291.759 441.425C291.925 441.476 292.074 441.57 292.191 441.697L294.043 443.535C294.103 443.59 294.15 443.657 294.182 443.731C294.214 443.806 294.231 443.886 294.231 443.967C294.231 444.048 294.214 444.129 294.182 444.203C294.15 444.278 294.103 444.345 294.043 444.4C293.989 444.461 293.922 444.511 293.848 444.544C293.773 444.578 293.692 444.595 293.61 444.595C293.529 444.595 293.448 444.578 293.373 444.544C293.298 444.511 293.232 444.461 293.178 444.4C292.585 443.823 292.024 443.246 291.477 442.684L289.731 444.446L294.681 449.396L296.442 447.634L295.152 446.374C294.939 446.177 294.848 445.903 295.045 445.691C295.212 445.533 295.425 445.432 295.653 445.402C295.653 445.402 295.835 445.402 295.911 445.524L297.429 447.042C297.528 447.162 297.61 447.295 297.672 447.437L297.688 447.953ZM277.279 425.783C276.869 425.783 276.459 425.783 276.049 425.783C275.959 425.787 275.869 425.77 275.787 425.732C275.705 425.694 275.633 425.637 275.578 425.565C275.523 425.493 275.486 425.41 275.47 425.321C275.454 425.232 275.46 425.141 275.487 425.054C275.535 424.92 275.627 424.806 275.748 424.731C275.87 424.656 276.014 424.626 276.155 424.644C277.157 424.644 278.144 424.644 279.192 424.644C279.708 424.644 280.27 424.462 280.711 424.918H280.817L283.717 425.024V421.683C283.717 421.167 284.188 420.863 284.568 421.137C284.734 421.304 284.836 421.524 284.856 421.759C284.856 422.868 284.856 423.991 284.856 425.115C284.856 425.237 284.856 425.404 284.963 425.449C285.069 425.495 285.555 425.707 285.874 425.844V415.913H284.856V416.338C284.856 417.173 284.856 418.024 284.856 418.859C284.869 418.959 284.855 419.06 284.817 419.153C284.778 419.246 284.715 419.328 284.636 419.389C284.556 419.45 284.461 419.49 284.361 419.503C284.262 419.517 284.16 419.504 284.067 419.466C283.945 419.411 283.844 419.317 283.781 419.199C283.718 419.081 283.695 418.945 283.717 418.813V413.726H259.664V446.283H283.657V443.747H283.459C282.158 444.028 280.812 444.028 279.511 443.747C278.858 443.556 278.186 443.439 277.507 443.398C272.83 443.398 268.138 443.398 263.461 443.398H263.081C262.946 443.376 262.823 443.306 262.734 443.202C262.646 443.098 262.597 442.965 262.597 442.828C262.597 442.692 262.646 442.559 262.734 442.455C262.823 442.35 262.946 442.281 263.081 442.259C263.212 442.251 263.344 442.251 263.476 442.259H275.852C275.335 441.773 274.849 441.348 274.409 440.877C274.332 440.788 274.236 440.717 274.129 440.67C274.021 440.623 273.904 440.6 273.786 440.604H272.04C271.966 440.608 271.891 440.597 271.822 440.571C271.752 440.546 271.688 440.506 271.634 440.455C271.58 440.404 271.537 440.342 271.507 440.274C271.478 440.205 271.463 440.132 271.463 440.057C271.461 439.981 271.474 439.905 271.503 439.834C271.531 439.763 271.573 439.698 271.627 439.644C271.681 439.59 271.746 439.548 271.817 439.52C271.888 439.491 271.964 439.478 272.04 439.48H273.3C273.088 439.025 272.86 438.66 272.723 438.265C272.587 437.87 272.405 437.825 272.025 437.825H263.111C262.981 437.821 262.857 437.766 262.767 437.673C262.676 437.579 262.625 437.454 262.625 437.324C262.598 437.191 262.624 437.053 262.698 436.939C262.772 436.826 262.888 436.746 263.02 436.716C263.161 436.701 263.304 436.701 263.445 436.716H272.162L271.919 435.092H263.476C263.3 435.115 263.121 435.088 262.959 435.016C262.784 434.871 262.67 434.665 262.641 434.439C262.641 434.272 262.914 434.089 263.081 433.968C263.248 433.846 263.339 433.968 263.461 433.968H271.919L272.162 432.313H263.157C263.014 432.313 262.878 432.257 262.776 432.158C262.673 432.059 262.614 431.924 262.61 431.781C262.602 431.71 262.608 431.638 262.628 431.57C262.648 431.501 262.682 431.437 262.727 431.382C262.772 431.327 262.829 431.281 262.892 431.248C262.955 431.215 263.025 431.195 263.096 431.189C263.237 431.174 263.38 431.174 263.521 431.189C266.239 431.189 268.957 431.189 271.66 431.189C272.298 431.189 272.632 431.068 272.875 430.43C273.162 429.803 273.497 429.198 273.877 428.623H263.476C263.335 428.646 263.191 428.646 263.051 428.623C262.918 428.6 262.798 428.528 262.716 428.421C262.635 428.314 262.597 428.18 262.61 428.046C262.614 427.909 262.669 427.778 262.765 427.679C262.86 427.581 262.989 427.522 263.126 427.514H274.637C274.781 427.554 274.933 427.554 275.077 427.514C275.821 426.77 276.535 426.239 277.279 425.707V425.783ZM283.171 428.547C281.897 428.163 280.533 428.208 279.288 428.674C278.043 429.141 276.985 430.003 276.277 431.128C275.512 432.337 275.187 433.772 275.358 435.193C275.529 436.613 276.185 437.93 277.215 438.923C278.245 439.915 279.586 440.522 281.011 440.64C282.437 440.758 283.859 440.381 285.038 439.571C286.137 438.822 286.959 437.733 287.379 436.471C287.799 435.209 287.793 433.844 287.362 432.586C286.602 432.723 286.344 432.586 286.117 431.857C285.979 431.327 285.7 430.843 285.31 430.458C284.919 430.073 284.432 429.801 283.9 429.671C283.247 429.397 283.095 429.124 283.171 428.471V428.547ZM288.744 430.263L288.227 430.885C288.163 430.974 288.129 431.08 288.129 431.189C288.129 431.298 288.163 431.405 288.227 431.493C288.751 432.679 288.951 433.983 288.808 435.271C288.665 436.56 288.183 437.788 287.412 438.83C286.641 439.873 285.608 440.693 284.418 441.207C283.227 441.721 281.922 441.911 280.635 441.758C279.592 441.638 278.587 441.296 277.687 440.756C276.788 440.215 276.014 439.488 275.419 438.623C274.824 437.759 274.421 436.777 274.237 435.743C274.054 434.71 274.093 433.649 274.354 432.632C274.614 431.616 275.089 430.666 275.747 429.849C276.406 429.031 277.231 428.364 278.169 427.892C279.106 427.42 280.134 427.154 281.183 427.112C282.231 427.071 283.277 427.255 284.249 427.651C284.37 427.651 284.568 427.757 284.674 427.651C284.78 427.545 285.221 427.271 285.524 427.074C283.83 426.129 281.858 425.806 279.95 426.161C278.042 426.516 276.319 427.526 275.077 429.018C273.641 430.648 272.891 432.77 272.982 434.94C273.073 437.111 273.998 439.163 275.565 440.667C277.133 442.172 279.22 443.013 281.393 443.015C283.565 443.017 285.655 442.181 287.225 440.68C288.656 439.378 289.59 437.62 289.867 435.706C290.144 433.792 289.747 431.84 288.744 430.187V430.263ZM286.952 426.694C286.565 427.612 285.835 428.343 284.917 428.729C285.828 429.118 286.556 429.841 286.952 430.749C287.341 429.838 288.063 429.11 288.971 428.714C288.518 428.528 288.106 428.253 287.759 427.907C287.412 427.56 287.138 427.148 286.952 426.694ZM289.989 442.122L288.683 440.832L287.863 441.591L289.214 442.942L289.989 442.122Z" fill="#F2F2F2"/>
<path d="M291.416 425.495C291.416 425.951 291.507 426.497 290.839 426.573C290.475 426.573 290.338 426.376 290.216 425.48C289.791 425.404 289.169 425.616 289.169 424.842C289.169 424.478 289.397 424.356 290.247 424.28C290.247 423.855 290.125 423.232 290.869 423.232C291.249 423.232 291.355 423.43 291.431 424.28C291.856 424.28 292.479 424.189 292.494 424.933C292.494 425.298 292.297 425.404 291.416 425.495Z" fill="#F2F2F2"/>
<path d="M268.578 425.707H263.491C263.34 425.722 263.187 425.722 263.036 425.707C262.919 425.673 262.817 425.602 262.744 425.505C262.671 425.408 262.632 425.289 262.632 425.168C262.632 425.047 262.671 424.929 262.744 424.831C262.817 424.734 262.919 424.663 263.036 424.629C263.187 424.606 263.34 424.606 263.491 424.629H273.711C274.303 424.629 274.576 424.811 274.576 425.206C274.576 425.601 274.303 425.783 273.726 425.783L268.578 425.707Z" fill="#F2F2F2"/>
<path d="M271.661 417.371H276.596C276.795 417.357 276.993 417.411 277.158 417.523C277.233 417.587 277.289 417.671 277.32 417.765C277.351 417.86 277.356 417.96 277.334 418.057C277.312 418.154 277.265 418.243 277.196 418.315C277.127 418.386 277.041 418.438 276.945 418.464C276.799 418.487 276.651 418.487 276.505 418.464H266.589C266.509 418.468 266.429 418.457 266.354 418.43C266.279 418.403 266.21 418.362 266.15 418.308C266.091 418.254 266.043 418.19 266.009 418.117C265.975 418.045 265.955 417.967 265.951 417.887C265.951 417.538 266.194 417.31 266.619 417.31L271.661 417.371Z" fill="#F2F2F2"/>
<path d="M274.986 422.913H269.914C269.844 422.911 269.776 422.896 269.712 422.867C269.648 422.839 269.591 422.798 269.543 422.747C269.495 422.696 269.457 422.636 269.432 422.571C269.408 422.506 269.396 422.436 269.398 422.367C269.392 422.292 269.401 422.218 269.424 422.147C269.448 422.076 269.486 422.011 269.536 421.956C269.586 421.9 269.646 421.856 269.714 421.824C269.782 421.793 269.855 421.776 269.929 421.774H280.21C280.357 421.782 280.496 421.846 280.598 421.954C280.7 422.061 280.757 422.204 280.756 422.351C280.756 422.425 280.742 422.498 280.714 422.566C280.685 422.635 280.644 422.697 280.592 422.749C280.54 422.801 280.478 422.842 280.409 422.871C280.341 422.899 280.268 422.913 280.194 422.913H275.047H274.986Z" fill="#F2F2F2"/>
<path d="M266.634 439.42H269.762C269.904 439.404 270.046 439.404 270.187 439.42C270.315 439.435 270.432 439.498 270.514 439.597C270.596 439.696 270.636 439.823 270.628 439.951C270.638 440.08 270.6 440.209 270.522 440.313C270.443 440.416 270.33 440.487 270.203 440.513C270.077 440.529 269.949 440.529 269.823 440.513H263.096C262.954 440.498 262.823 440.427 262.732 440.316C262.641 440.205 262.597 440.063 262.61 439.921C262.608 439.853 262.619 439.785 262.643 439.722C262.668 439.658 262.704 439.6 262.75 439.551C262.797 439.502 262.853 439.462 262.915 439.434C262.977 439.406 263.043 439.391 263.111 439.389H266.634V439.42Z" fill="#F2F2F2"/>
<path d="M265.541 422.913H263.293C262.868 422.913 262.625 422.716 262.61 422.351C262.595 421.987 262.853 421.774 263.293 421.774H267.849C268.289 421.774 268.563 422.002 268.547 422.351C268.532 422.701 268.289 422.913 267.834 422.913H265.541Z" fill="#F2F2F2"/>
<path d="M281.5 433.012C282.594 433.012 283.687 433.012 284.78 433.012C285.246 433.012 285.489 433.194 285.509 433.558C285.509 433.923 285.266 434.151 284.795 434.151H278.175C277.734 434.151 277.476 433.938 277.476 433.573C277.476 433.209 277.719 433.012 278.175 433.012C279.283 432.996 280.392 433.012 281.5 433.012Z" fill="#F2F2F2"/>
<path d="M281.516 435.137H284.826C284.961 435.12 285.099 435.148 285.216 435.217C285.334 435.285 285.427 435.391 285.479 435.517C285.507 435.588 285.52 435.665 285.517 435.742C285.513 435.819 285.494 435.894 285.46 435.963C285.425 436.032 285.377 436.092 285.317 436.141C285.258 436.19 285.189 436.226 285.114 436.246C284.963 436.269 284.81 436.269 284.659 436.246H278.099C278.019 436.25 277.938 436.238 277.863 436.21C277.788 436.182 277.719 436.139 277.66 436.083C277.602 436.028 277.556 435.961 277.524 435.887C277.492 435.814 277.476 435.734 277.476 435.654C277.476 435.32 277.704 435.107 278.114 435.107L281.516 435.137Z" fill="#F2F2F2"/>
<path d="M281.531 430.871H284.097C284.522 430.871 284.765 431.068 284.781 431.418C284.796 431.767 284.522 432.01 284.082 432.01H278.889C278.448 432.01 278.19 431.767 278.205 431.418C278.221 431.068 278.464 430.871 278.889 430.871H281.531Z" fill="#F2F2F2"/>
<path d="M281.531 437.324H283.141C283.551 437.324 283.809 437.567 283.809 437.901C283.809 438.235 283.551 438.463 283.141 438.463H279.846C279.436 438.463 279.177 438.235 279.177 437.901C279.177 437.567 279.436 437.339 279.846 437.324H281.531Z" fill="#F2F2F2"/>
<path d="M273.721 583.237C278.864 583.339 283.975 582.414 288.756 580.516C293.536 578.619 297.891 575.787 301.563 572.186C305.236 568.585 308.154 564.288 310.146 559.546C312.138 554.803 313.164 549.712 313.164 544.568C313.164 539.424 312.138 534.333 310.146 529.59C308.154 524.848 305.236 520.551 301.563 516.95C297.891 513.349 293.536 510.517 288.756 508.62C283.975 506.722 278.864 505.797 273.721 505.899H273.63V495.725H273.721C280.208 495.611 286.652 496.79 292.678 499.193C298.704 501.596 304.191 505.176 308.819 509.723C313.447 514.269 317.122 519.692 319.631 525.675C322.14 531.658 323.433 538.08 323.433 544.568C323.433 551.056 322.14 557.478 319.631 563.461C317.122 569.444 313.447 574.867 308.819 579.414C304.191 583.96 298.704 587.54 292.678 589.943C286.652 592.346 280.208 593.525 273.721 593.411H273.63V583.237H273.721Z" fill="#3A7EE4"/>
<path d="M307.322 547.228C308.793 528.668 294.939 512.43 276.379 510.96C257.819 509.489 241.582 523.343 240.111 541.903C238.641 560.463 252.494 576.7 271.054 578.171C289.614 579.641 305.852 565.788 307.322 547.228Z" fill="#3E7B97"/>
<path d="M307.322 547.228C308.793 528.668 294.939 512.43 276.379 510.96C257.819 509.489 241.582 523.343 240.111 541.903C238.641 560.463 252.494 576.7 271.054 578.171C289.614 579.641 305.852 565.788 307.322 547.228Z" fill="#3A7EE4"/>
<path d="M272.719 554.946C273.736 553.063 274.784 551.165 275.756 549.252C275.886 548.883 275.886 548.482 275.756 548.113C274.693 543.208 276.348 540.035 280.949 538.258C283.264 537.556 285.698 537.337 288.101 537.614C290.504 537.891 292.825 538.658 294.92 539.868C292.399 544.423 289.407 548.569 284.381 550.695C283.352 551.177 282.218 551.395 281.083 551.328C279.949 551.262 278.848 550.914 277.882 550.315C276.88 549.692 276.363 549.966 275.786 550.846C273.843 553.929 273.007 557.582 273.418 561.203H285.201V561.84H262.226L262.135 561.415C262.631 561.272 263.139 561.175 263.654 561.127C266.038 561.127 268.437 561.127 270.821 561.127C272.112 561.127 272.506 560.565 272.339 559.426C272.174 558.182 271.931 556.95 271.61 555.736C270.715 552.805 270.684 552.851 267.799 553.534C266.696 553.813 265.539 553.806 264.439 553.514C263.339 553.221 262.332 552.654 261.512 551.864C259.667 549.976 257.937 547.978 256.334 545.881C255.59 544.985 255.864 544.362 256.957 543.952C259.878 542.802 263.073 542.538 266.144 543.193C267.773 543.575 269.193 544.568 270.111 545.967C271.03 547.365 271.376 549.063 271.079 550.71C271.202 552.224 271.577 553.707 272.188 555.098L272.719 554.946ZM293.781 540.08C289.97 538.362 285.696 537.961 281.633 538.941C280.331 539.255 279.144 539.928 278.207 540.884C277.27 541.84 276.621 543.04 276.333 544.347C276.226 545.417 276.277 546.497 276.485 547.551C279.826 545.258 282.696 543.178 286.401 542.753C286.013 543.148 285.555 543.468 285.049 543.694C282.893 544.97 280.661 546.139 278.641 547.582C277.229 548.584 277.426 549.541 279.112 549.799C280.961 550.2 282.884 550.105 284.685 549.525C288.861 547.749 291.412 544.15 293.781 540.08ZM263.274 547.096L263.578 546.443L269.803 550.102C270.745 548.143 269.485 545.547 267.07 544.469C264.197 543.361 261.014 543.361 258.141 544.469C257.777 544.575 257.291 545.577 257.443 545.82C258.93 548.823 261.478 551.166 264.595 552.395C265.411 552.771 266.332 552.852 267.202 552.625C268.071 552.398 268.835 551.877 269.363 551.15L263.274 547.096Z" fill="#F2F2F2" stroke="#F2F2F2" stroke-width="0.759252" stroke-miterlimit="10"/>
<path d="M277.746 534.28C277.742 535.344 277.525 536.397 277.108 537.376C276.69 538.355 276.08 539.241 275.314 539.98C274.548 540.719 273.641 541.297 272.648 541.679C271.655 542.062 270.595 542.241 269.531 542.206C267.95 542.167 266.416 541.662 265.122 540.753C263.828 539.845 262.831 538.574 262.258 537.101C261.684 535.628 261.558 534.018 261.897 532.473C262.236 530.929 263.024 529.519 264.161 528.421C265.299 527.323 266.736 526.586 268.292 526.303C269.847 526.02 271.452 526.203 272.904 526.829C274.356 527.455 275.59 528.496 276.451 529.822C277.313 531.148 277.763 532.699 277.746 534.28ZM276.774 534.204C276.798 533.275 276.638 532.35 276.302 531.484C275.966 530.618 275.461 529.827 274.817 529.157C274.172 528.488 273.402 527.953 272.549 527.583C271.696 527.214 270.779 527.018 269.85 527.006C267.938 527.002 266.101 527.752 264.739 529.094C263.377 530.436 262.6 532.262 262.576 534.173C262.607 536.079 263.379 537.898 264.729 539.244C266.078 540.591 267.898 541.359 269.804 541.386C271.678 541.35 273.462 540.575 274.768 539.23C276.073 537.885 276.794 536.078 276.774 534.204Z" fill="#F2F2F2" stroke="#F2F2F2" stroke-width="0.759252" stroke-miterlimit="10"/>
<path d="M274.541 535.024C272.81 535.221 271.094 535.48 269.363 535.601C269.09 535.601 268.498 535.024 268.513 534.766C268.675 533.198 269.069 531.663 269.682 530.21C269.765 530.916 269.811 531.626 269.819 532.336C269.743 533.855 270.366 534.523 271.93 534.371C272.807 534.346 273.684 534.381 274.557 534.477L274.541 535.024Z" fill="#F2F2F2" stroke="#F2F2F2" stroke-width="0.759252" stroke-miterlimit="10"/>
</svg>
