<svg width="72" height="72" viewBox="0 0 72 72" fill="none" xmlns="http://www.w3.org/2000/svg">
<rect width="72" height="72" rx="36" fill="#367AFE"/>
<path d="M33.6285 46.2856C34.6 44.5142 35.5857 42.7285 36.4857 40.9285C36.5926 40.5794 36.5926 40.2062 36.4857 39.8571C35.4857 35.2428 37.0428 32.2571 41.3714 30.5856C43.5575 29.9171 45.858 29.7066 48.1292 29.9671C50.4004 30.2277 52.5934 30.9537 54.5714 32.0999C52.2 36.3856 49.3714 40.2856 44.6571 42.2856C43.6887 42.7394 42.6223 42.9444 41.5547 42.882C40.487 42.8196 39.4518 42.4919 38.5428 41.9285C38.3958 41.788 38.2156 41.6872 38.0189 41.6355C37.8223 41.5838 37.6158 41.5829 37.4187 41.6328C37.2216 41.6828 37.0405 41.7821 36.8923 41.9212C36.7441 42.0604 36.6337 42.235 36.5714 42.4285C34.7366 45.3259 33.9501 48.7645 34.3428 52.1713H45.4285V52.6999H23.8L23.7142 52.2999C24.1809 52.1649 24.6592 52.074 25.1428 52.0285C27.3857 52.0285 29.6428 52.0285 31.8857 52.0285C33.0857 52.0285 33.4714 51.4999 33.3142 50.4285C33.1622 49.2564 32.9283 48.0964 32.6142 46.9571C31.7857 44.1999 31.7571 44.2428 29.0428 44.8856C28.0047 45.1479 26.9169 45.1412 25.8821 44.8662C24.8472 44.5913 23.8996 44.0571 23.1285 43.3142C21.3668 41.5372 19.7115 39.6578 18.1714 37.6856C17.4714 36.8428 17.7428 36.2571 18.7714 35.8713C21.4972 34.8 24.4773 34.5516 27.3428 35.1571C28.8798 35.5102 30.2215 36.4422 31.0889 37.7592C31.9563 39.0763 32.2826 40.677 32 42.2285C32.1473 43.6589 32.5337 45.0545 33.1428 46.3571L33.6285 46.2856ZM53.4571 32.2999C49.8724 30.6831 45.8513 30.3062 42.0285 31.2285C40.803 31.524 39.6849 32.1572 38.8011 33.0562C37.9173 33.9551 37.3032 35.0839 37.0285 36.3142C36.9403 37.3214 36.9932 38.3359 37.1857 39.3285C40.3285 37.1713 43.0285 35.2142 46.5 34.8142C46.1429 35.1888 45.7157 35.4897 45.2428 35.6999C43.2142 36.8999 41.1142 37.9999 39.2 39.3571C37.8857 40.2999 38.0571 41.1999 39.6571 41.4428C41.3969 41.8193 43.2053 41.7306 44.9 41.1856C48.8571 39.5142 51.2285 36.1285 53.4571 32.2999ZM24.7571 38.8571L25.0428 38.2428L30.9 41.7142C31.2562 40.6702 31.1859 39.5278 30.7044 38.5353C30.2229 37.5428 29.369 36.7805 28.3285 36.4142C25.6256 35.3717 22.6315 35.3717 19.9285 36.4142C19.5857 36.5142 19.1285 37.4571 19.2714 37.6856C20.6598 40.5244 23.06 42.7411 26 43.8999C26.7678 44.2531 27.6344 44.3294 28.4522 44.1158C29.2699 43.9023 29.9885 43.412 30.4857 42.7285L24.7571 38.8571Z" fill="#F2F2F2" stroke="#F2F2F2" stroke-width="0.714286" stroke-miterlimit="10"/>
<path d="M38.3714 26.8427C38.3682 27.8435 38.1639 28.8334 37.7707 29.7537C37.3776 30.674 36.8035 31.506 36.0827 32.2002C35.3618 32.8944 34.5088 33.4367 33.5744 33.7949C32.6399 34.1532 31.643 34.32 30.6428 34.2856C28.6534 34.2444 26.7598 33.4231 25.3702 31.9988C23.9806 30.5744 23.2063 28.6611 23.2142 26.6713C23.3183 24.7172 24.1735 22.8789 25.6011 21.5406C27.0287 20.2023 28.9183 19.4674 30.875 19.4895C32.8317 19.5116 34.7042 20.2891 36.1012 21.6594C37.4981 23.0296 38.3115 24.8868 38.3714 26.8427ZM37.4571 26.8427C37.4896 25.9629 37.3457 25.0856 37.0339 24.2622C36.7222 23.4389 36.2489 22.6863 35.6418 22.0486C35.0348 21.411 34.3064 20.9012 33.4994 20.5494C32.6924 20.1975 31.8231 20.0107 30.9428 19.9998C29.144 19.9959 27.4164 20.7019 26.1351 21.9645C24.8539 23.227 24.1225 24.9441 24.1 26.7427C24.1259 28.5368 24.8511 30.2499 26.1211 31.5173C27.3912 32.7847 29.1058 33.5063 30.9 33.5284C32.657 33.4835 34.326 32.75 35.5472 31.486C36.7684 30.222 37.4441 28.5288 37.4285 26.7713L37.4571 26.8427Z" fill="#F2F2F2" stroke="#F2F2F2" stroke-width="0.714286" stroke-miterlimit="10"/>
<path d="M35.3428 27.5429C33.7285 27.7286 32.1142 27.9714 30.4856 28.0857C30.2285 28.0857 29.6571 27.5429 29.6856 27.3C29.8391 25.8266 30.2048 24.3831 30.7714 23.0143C30.8611 23.6773 30.9088 24.3453 30.9142 25.0143C30.9142 26.4429 31.4285 27.0714 32.8999 26.9286C33.7251 26.9051 34.5508 26.9385 35.3714 27.0286L35.3428 27.5429Z" fill="#F2F2F2" stroke="#F2F2F2" stroke-width="0.714286" stroke-miterlimit="10"/>
</svg>
