<svg width="336" height="232" viewBox="0 0 336 232" fill="none" xmlns="http://www.w3.org/2000/svg">
<g clip-path="url(#clip0_1343_61206)">
<path d="M94.2925 136.739H63.7751C58.2874 136.569 53.9439 135.566 50.8505 133.758C49.5596 133.06 48.476 132.034 47.7095 130.782C46.943 129.531 46.5209 128.099 46.4858 126.632V41.2737C46.503 41.1851 46.5504 41.1052 46.62 41.0478C46.6896 40.9904 46.777 40.959 46.8672 40.959C46.9574 40.959 47.0449 40.9904 47.1144 41.0478C47.184 41.1052 47.2315 41.1851 47.2486 41.2737V126.632C47.2808 127.989 47.6706 129.314 48.3787 130.472C49.0868 131.63 50.0881 132.581 51.2813 133.229C54.2547 134.959 58.464 135.927 63.7892 136.089H94.2925C94.3858 136.083 94.4778 136.114 94.5489 136.174C94.6201 136.235 94.6649 136.321 94.6739 136.414C94.6649 136.507 94.6201 136.593 94.5489 136.653C94.4778 136.714 94.3858 136.745 94.2925 136.739Z" fill="#31BC2E"/>
<path d="M215.98 24.4007H66.3311C66.2299 24.4007 66.1329 24.3605 66.0614 24.289C65.9899 24.2175 65.9497 24.1204 65.9497 24.0193C65.9497 23.9175 65.9896 23.8197 66.061 23.7471C66.1323 23.6745 66.2293 23.6327 66.3311 23.6309H215.98C216.082 23.6327 216.179 23.6745 216.25 23.7471C216.322 23.8197 216.362 23.9175 216.362 24.0193C216.362 24.1204 216.321 24.2175 216.25 24.289C216.178 24.3605 216.081 24.4007 215.98 24.4007Z" fill="#31BC2E"/>
<path d="M298.895 211.828C298.794 211.828 298.697 211.788 298.626 211.716C298.554 211.644 298.514 211.547 298.514 211.446V93.9672C298.514 83.6699 291.098 75.2937 281.987 75.2937H266.711C257.6 75.2937 250.185 83.6699 250.185 93.9672V117.274C250.185 127.988 242.416 136.71 232.895 136.71C223.375 136.71 215.599 127.988 215.599 117.274V24.0122C215.599 23.9111 215.639 23.8141 215.711 23.7426C215.782 23.671 215.879 23.6309 215.981 23.6309C216.082 23.6309 216.179 23.671 216.25 23.7426C216.322 23.8141 216.362 23.9111 216.362 24.0122V117.302C216.362 127.592 223.778 135.968 232.895 135.968C242.013 135.968 249.422 127.592 249.422 117.302V93.9954C249.422 83.2744 257.191 74.5592 266.711 74.5592H281.987C291.522 74.5592 299.284 83.2744 299.284 93.9954V211.446C299.282 211.548 299.24 211.645 299.168 211.716C299.095 211.788 298.997 211.828 298.895 211.828Z" fill="#31BC2E"/>
<path d="M127.331 209.533C127.238 209.539 127.146 209.509 127.075 209.448C127.003 209.387 126.959 209.301 126.95 209.208V92.1389C126.967 92.0503 127.014 91.9705 127.084 91.9131C127.153 91.8556 127.241 91.8242 127.331 91.8242C127.421 91.8242 127.509 91.8556 127.578 91.9131C127.648 91.9705 127.695 92.0503 127.712 92.1389V209.208C127.703 209.301 127.659 209.387 127.588 209.448C127.516 209.509 127.424 209.539 127.331 209.533Z" fill="#31BC2E"/>
<path d="M216.305 87.1317C216.236 87.133 216.168 87.1144 216.109 87.0781C216.05 87.0417 216.003 86.9893 215.973 86.9268C215.949 86.883 215.933 86.8346 215.928 86.7847C215.923 86.7347 215.927 86.6842 215.942 86.6361C215.956 86.588 215.98 86.5433 216.012 86.5046C216.045 86.466 216.084 86.4343 216.129 86.4113C222.589 82.9324 228.733 78.8961 234.492 74.3484C241.379 68.9054 247.724 62.8104 253.44 56.1481C257.089 51.8959 260.498 47.4443 263.653 42.8139C263.71 42.7306 263.798 42.6735 263.897 42.6549C263.997 42.6364 264.099 42.658 264.183 42.715C264.266 42.7722 264.323 42.8601 264.342 42.9594C264.36 43.0587 264.339 43.1613 264.282 43.2447C261.115 47.9063 257.689 52.3863 254.02 56.6637C248.277 63.36 241.903 69.488 234.986 74.9628C229.185 79.5373 222.996 83.5972 216.489 87.0963C216.432 87.1251 216.369 87.1373 216.305 87.1317Z" stroke="#31BC2E" stroke-width="0.706259" stroke-miterlimit="10"/>
<path d="M225.868 72.6026C225.868 72.6026 197.745 60.4902 220.924 32.5859C220.917 32.5859 245.601 43.9708 225.868 72.6026Z" stroke="#31BC2E" stroke-width="0.706259" stroke-miterlimit="10"/>
<path d="M222.598 83.5009C222.545 83.5141 222.489 83.5141 222.436 83.5009C222.39 83.4805 222.348 83.4509 222.314 83.4139C222.279 83.3769 222.253 83.3334 222.236 83.2859C222.218 83.2384 222.211 83.1879 222.214 83.1374C222.217 83.087 222.23 83.0377 222.252 82.9924C227.902 70.64 224.223 53.7251 224.187 53.5556C224.166 53.4564 224.185 53.3528 224.239 53.2671C224.293 53.1813 224.378 53.1201 224.477 53.0965C224.576 53.0753 224.68 53.0937 224.766 53.1478C224.851 53.2019 224.913 53.2874 224.936 53.3861C224.971 53.5626 228.693 70.7247 222.944 83.3102C222.91 83.3711 222.86 83.4213 222.799 83.455C222.738 83.4887 222.668 83.5046 222.598 83.5009Z" stroke="#31BC2E" stroke-width="0.706259" stroke-miterlimit="10"/>
<path d="M254.606 45.0175C254.606 45.0175 238.277 34.6073 251.032 23.0176C251.032 23.0176 265.553 30.4827 254.606 45.0175Z" stroke="#31BC2E" stroke-width="0.706259" stroke-miterlimit="10"/>
<path d="M251.604 59.2257C251.548 59.2356 251.491 59.2356 251.435 59.2257C251.343 59.1801 251.274 59.1005 251.241 59.004C251.208 58.9076 251.214 58.802 251.258 58.7101C256.837 47.3464 253.002 33.5249 252.96 33.3907C252.934 33.2933 252.946 33.1895 252.995 33.1012C253.044 33.0129 253.125 32.947 253.221 32.9175C253.27 32.9035 253.32 32.8991 253.37 32.9047C253.42 32.9102 253.468 32.9256 253.512 32.9499C253.556 32.9741 253.595 33.0069 253.626 33.0462C253.658 33.0855 253.681 33.1305 253.695 33.1788C253.737 33.3201 257.65 47.417 251.95 59.0491C251.913 59.1063 251.861 59.1528 251.801 59.1838C251.74 59.2147 251.672 59.2292 251.604 59.2257Z" stroke="#31BC2E" stroke-width="0.706259" stroke-miterlimit="10"/>
<path d="M249.387 69.5084C249.387 69.5084 250.997 91.7485 275.405 82.7084C275.441 82.7084 273.11 57.9116 249.387 69.5084Z" stroke="#31BC2E" stroke-width="0.706259" stroke-miterlimit="10"/>
<path d="M261.76 75.0809C261.667 75.083 261.576 75.0502 261.506 74.989C258.543 72.7161 255.112 71.1296 251.462 70.3442C247.811 69.5589 244.031 69.5942 240.396 70.4478C240.297 70.469 240.193 70.4506 240.107 70.3965C240.022 70.3424 239.96 70.2569 239.937 70.1582C239.916 70.0591 239.934 69.9555 239.988 69.8697C240.042 69.7839 240.128 69.7227 240.226 69.6992C243.982 68.8231 247.884 68.7912 251.653 69.6058C255.422 70.4204 258.963 72.0612 262.022 74.4099C262.093 74.4825 262.133 74.5801 262.133 74.6818C262.133 74.7835 262.093 74.8811 262.022 74.9537C261.989 74.9916 261.949 75.0224 261.904 75.0442C261.859 75.0661 261.81 75.0786 261.76 75.0809Z" stroke="#31BC2E" stroke-width="0.706259" stroke-miterlimit="10"/>
<path d="M218.347 94.2003C218.347 94.2003 214.109 124.273 247.303 118.488C247.317 118.488 248.462 87.625 218.347 94.2003Z" stroke="#31BC2E" stroke-width="0.706259" stroke-miterlimit="10"/>
<path d="M232.775 103.962C232.724 103.962 232.674 103.953 232.626 103.933C232.579 103.914 232.536 103.885 232.5 103.849C229.412 100.766 225.876 98.1656 222.012 96.1365C220.156 95.1378 218.219 94.299 216.221 93.6293C216.173 93.6133 216.128 93.588 216.09 93.5548C216.052 93.5216 216.021 93.4812 215.999 93.4358C215.976 93.3905 215.963 93.3412 215.96 93.2907C215.957 93.2402 215.964 93.1897 215.981 93.1419C215.996 93.0942 216.02 93.05 216.053 93.012C216.085 92.9739 216.125 92.9428 216.17 92.9204C216.215 92.898 216.264 92.8848 216.314 92.8816C216.364 92.8784 216.414 92.8853 216.461 92.9018C218.501 93.5837 220.478 94.4391 222.372 95.4585C226.309 97.5273 229.913 100.175 233.065 103.312C233.118 103.366 233.154 103.434 233.169 103.508C233.183 103.583 233.175 103.66 233.145 103.729C233.116 103.799 233.066 103.858 233.003 103.9C232.939 103.941 232.865 103.963 232.79 103.962H232.775Z" stroke="#31BC2E" stroke-width="0.706259" stroke-miterlimit="10"/>
<path d="M277.693 44.056C277.693 44.056 269.409 37.6996 264.529 47.2553C264.529 47.2553 271.302 53.8023 277.693 44.056Z" stroke="#31BC2E" stroke-width="0.706259" stroke-miterlimit="10"/>
<path d="M251.174 94.1081C251.174 94.1081 259.077 79.1495 244.295 75.0391C244.295 75.0179 234.951 87.3986 251.174 94.1081Z" stroke="#31BC2E" stroke-width="0.706259" stroke-miterlimit="10"/>
<path d="M205.005 74.2068C205.005 74.2068 211.043 85.4363 220.917 74.913C220.917 74.9342 216.552 62.8572 205.005 74.2068Z" stroke="#31BC2E" stroke-width="0.706259" stroke-miterlimit="10"/>
<path d="M246.816 85.4564C246.738 85.4561 246.662 85.4323 246.597 85.3882C246.533 85.3442 246.484 85.2818 246.455 85.2092C246.3 84.8208 242.698 75.5829 244.153 69.3608C244.165 69.3116 244.186 69.2652 244.215 69.2242C244.245 69.1833 244.282 69.1485 244.325 69.1219C244.368 69.0954 244.416 69.0775 244.466 69.0694C244.516 69.0613 244.566 69.0631 244.616 69.0747C244.665 69.0863 244.711 69.1075 244.752 69.137C244.793 69.1665 244.828 69.2038 244.854 69.2468C244.881 69.2897 244.899 69.3375 244.907 69.3874C244.915 69.4372 244.913 69.4882 244.902 69.5373C243.489 75.5264 247.133 84.8349 247.169 84.9267C247.206 85.0214 247.205 85.127 247.165 85.2208C247.126 85.3145 247.051 85.389 246.957 85.4281C246.911 85.4436 246.864 85.4531 246.816 85.4564Z" stroke="#31BC2E" stroke-width="0.706259" stroke-miterlimit="10"/>
<path d="M224.59 77.3497C224.493 77.3503 224.4 77.3151 224.329 77.2508C224.279 77.2085 220.55 73.882 212.64 74.1574C212.538 74.1594 212.44 74.1212 212.366 74.0512C212.292 73.9812 212.248 73.8849 212.244 73.7831C212.243 73.733 212.251 73.683 212.268 73.6361C212.285 73.5891 212.312 73.546 212.346 73.5092C212.38 73.4725 212.421 73.4428 212.467 73.422C212.512 73.4011 212.562 73.3894 212.612 73.3876C220.875 73.1051 224.689 76.5375 224.844 76.6858C224.901 76.7375 224.941 76.8051 224.959 76.8798C224.977 76.9546 224.972 77.033 224.944 77.1047C224.917 77.1765 224.868 77.2383 224.805 77.282C224.742 77.3257 224.667 77.3493 224.59 77.3497Z" stroke="#31BC2E" stroke-width="0.706259" stroke-miterlimit="10"/>
<path d="M264.345 47.6088C263.269 47.6205 262.194 47.5211 261.139 47.3121C261.089 47.3019 261.043 47.2822 261.001 47.2539C260.96 47.2257 260.924 47.1896 260.897 47.1476C260.869 47.1056 260.85 47.0586 260.841 47.0093C260.831 46.96 260.832 46.9093 260.842 46.8601C260.852 46.811 260.872 46.7643 260.9 46.7228C260.928 46.6813 260.965 46.6458 261.007 46.6182C261.049 46.5907 261.096 46.5717 261.145 46.5623C261.194 46.5529 261.245 46.5533 261.294 46.5635C265.228 47.3969 270.97 46.0974 271.556 45.8573C271.632 45.8123 271.722 45.7954 271.81 45.8096C271.898 45.8238 271.978 45.8681 272.036 45.9349C272.103 46.0121 272.136 46.1123 272.13 46.2141C272.123 46.3158 272.077 46.4109 272.001 46.4788C271.761 46.6906 268.018 47.6088 264.345 47.6088Z" stroke="#31BC2E" stroke-width="0.706259" stroke-miterlimit="10"/>
<path opacity="0.3" d="M141.068 76.7422H64.0713V86.6369H141.068V76.7422Z" fill="#31BC2E"/>
<path opacity="0.3" d="M194.538 40.9492H64.0713V50.8439H194.538V40.9492Z" fill="#31BC2E"/>
<path opacity="0.3" d="M194.538 58.8457H64.0713V68.7404H194.538V58.8457Z" fill="#31BC2E"/>
<path d="M194.482 100.077H193.775C193.506 100.078 193.245 99.9902 193.031 99.8266C192.818 99.6629 192.665 99.4331 192.596 99.1732C192.404 98.4854 192.168 97.8108 191.89 97.1532C191.793 96.9286 191.766 96.6803 191.811 96.44C191.856 96.1997 191.972 95.9783 192.144 95.8043L193.062 94.8862C193.177 94.7738 193.267 94.6397 193.33 94.4917C193.392 94.3438 193.424 94.185 193.424 94.0245C193.424 93.8641 193.392 93.7053 193.33 93.5573C193.267 93.4094 193.177 93.2753 193.062 93.1629L188.57 88.6852C188.341 88.4575 188.032 88.3297 187.709 88.3297C187.386 88.3297 187.076 88.4575 186.847 88.6852L186.346 89.1866C186.156 89.376 185.909 89.4973 185.643 89.5318C185.378 89.5663 185.108 89.512 184.877 89.3773C184.252 89.028 183.605 88.719 182.941 88.4521C182.714 88.3636 182.519 88.2083 182.381 88.0066C182.244 87.8048 182.171 87.5662 182.172 87.3221V86.0155C182.17 85.6927 182.04 85.3838 181.811 85.1561C181.582 84.9285 181.273 84.8008 180.95 84.8008H174.593C174.271 84.8008 173.961 84.9285 173.732 85.1561C173.503 85.3838 173.373 85.6927 173.372 86.0155V86.7218C173.372 86.9904 173.283 87.2516 173.12 87.4648C172.956 87.678 172.727 87.8314 172.468 87.9013C171.779 88.0901 171.104 88.3261 170.448 88.6075C170.223 88.7042 169.975 88.7316 169.734 88.6863C169.494 88.641 169.273 88.525 169.099 88.3533L168.181 87.4281C167.952 87.2003 167.642 87.0725 167.319 87.0725C166.996 87.0725 166.686 87.2003 166.457 87.4281L161.98 91.9058C161.752 92.1347 161.624 92.4445 161.624 92.7674C161.624 93.0903 161.752 93.4001 161.98 93.629L162.481 94.1305C162.67 94.32 162.792 94.5669 162.826 94.8325C162.861 95.0982 162.806 95.3679 162.672 95.5995C162.324 96.2224 162.015 96.8664 161.747 97.5276C161.658 97.7558 161.503 97.9521 161.302 98.0907C161.1 98.2293 160.861 98.3038 160.617 98.3045H159.31C158.988 98.3045 158.679 98.4324 158.451 98.6602C158.223 98.8881 158.095 99.197 158.095 99.5192V105.876C158.095 106.198 158.223 106.507 158.451 106.735C158.679 106.962 158.988 107.09 159.31 107.09H160.016C160.285 107.092 160.545 107.181 160.758 107.344C160.971 107.507 161.125 107.736 161.196 107.994C161.383 108.683 161.619 109.358 161.902 110.014C162 110.239 162.027 110.487 161.982 110.728C161.937 110.968 161.82 111.19 161.648 111.363L160.779 112.295C160.551 112.524 160.423 112.834 160.423 113.157C160.423 113.48 160.551 113.79 160.779 114.019L165.257 118.489C165.369 118.604 165.503 118.695 165.651 118.757C165.799 118.819 165.958 118.851 166.118 118.851C166.279 118.851 166.438 118.819 166.586 118.757C166.733 118.695 166.868 118.604 166.98 118.489L167.481 117.995C167.671 117.806 167.917 117.684 168.182 117.648C168.448 117.612 168.718 117.665 168.95 117.797C169.572 118.148 170.216 118.457 170.878 118.722C171.107 118.813 171.303 118.969 171.441 119.172C171.58 119.375 171.654 119.614 171.655 119.859V121.159C171.654 121.319 171.685 121.478 171.746 121.626C171.806 121.774 171.896 121.909 172.009 122.023C172.122 122.136 172.256 122.226 172.404 122.288C172.551 122.349 172.71 122.381 172.87 122.381H179.226C179.387 122.381 179.545 122.349 179.693 122.288C179.841 122.226 179.975 122.136 180.088 122.023C180.201 121.909 180.29 121.774 180.351 121.626C180.411 121.478 180.442 121.319 180.441 121.159V120.453C180.441 120.184 180.53 119.923 180.693 119.71C180.857 119.497 181.086 119.343 181.345 119.273C182.033 119.082 182.708 118.846 183.365 118.567C183.59 118.469 183.838 118.441 184.079 118.487C184.319 118.532 184.541 118.649 184.714 118.821L185.639 119.739C185.752 119.854 185.886 119.945 186.034 120.007C186.182 120.069 186.341 120.101 186.501 120.101C186.661 120.101 186.82 120.069 186.968 120.007C187.116 119.945 187.25 119.854 187.363 119.739L191.833 115.269C191.948 115.156 192.039 115.022 192.101 114.874C192.163 114.726 192.195 114.568 192.195 114.407C192.195 114.247 192.163 114.088 192.101 113.94C192.039 113.792 191.948 113.658 191.833 113.546L191.339 113.044C191.149 112.855 191.027 112.608 190.992 112.343C190.956 112.078 191.008 111.808 191.141 111.575C191.493 110.952 191.802 110.305 192.066 109.64C192.158 109.413 192.315 109.219 192.517 109.081C192.72 108.944 192.959 108.871 193.203 108.87H194.503C194.827 108.87 195.138 108.741 195.367 108.512C195.596 108.283 195.725 107.972 195.725 107.648V101.292C195.724 101.13 195.691 100.97 195.628 100.822C195.565 100.673 195.472 100.538 195.357 100.425C195.241 100.312 195.104 100.223 194.954 100.163C194.804 100.104 194.643 100.074 194.482 100.077ZM184.94 98.0078C181.473 101.633 178.752 105.905 176.931 110.579C176.844 110.823 176.69 111.038 176.486 111.198C176.283 111.358 176.038 111.457 175.78 111.483H175.639C175.404 111.48 175.174 111.418 174.969 111.303C174.765 111.189 174.592 111.025 174.466 110.826C174.431 110.77 170.878 104.979 168.887 102.888C168.636 102.625 168.5 102.273 168.508 101.909C168.513 101.729 168.552 101.552 168.625 101.387C168.698 101.222 168.802 101.074 168.933 100.949C169.063 100.825 169.217 100.728 169.385 100.663C169.552 100.598 169.732 100.567 169.912 100.571C170.275 100.579 170.62 100.732 170.871 100.995C172.535 102.935 174.048 104.999 175.399 107.168C177.288 103.061 179.857 99.3029 182.998 96.0515C183.125 95.9238 183.275 95.8224 183.441 95.7533C183.607 95.6841 183.786 95.6485 183.965 95.6485C184.145 95.6485 184.323 95.6841 184.49 95.7533C184.656 95.8224 184.806 95.9238 184.933 96.0515C185.187 96.3136 185.329 96.6636 185.33 97.0282C185.331 97.3929 185.192 97.7439 184.94 98.0078Z" fill="#004C46"/>
<path d="M232.182 136.739H143.723C143.622 136.739 143.525 136.698 143.453 136.627C143.382 136.555 143.342 136.458 143.342 136.357C143.342 136.255 143.382 136.158 143.453 136.085C143.524 136.012 143.621 135.971 143.723 135.969H232.182C232.284 135.971 232.381 136.012 232.452 136.085C232.524 136.158 232.563 136.255 232.563 136.357C232.563 136.407 232.554 136.457 232.534 136.503C232.515 136.549 232.487 136.591 232.452 136.627C232.416 136.662 232.374 136.69 232.328 136.71C232.282 136.729 232.232 136.739 232.182 136.739Z" fill="#5E453B"/>
<path d="M335.148 212.146H0.380891C0.279743 212.146 0.182738 212.105 0.111215 212.034C0.0396927 211.962 -0.000488281 211.865 -0.000488281 211.764C-0.000488281 211.663 0.0396927 211.566 0.111215 211.495C0.182738 211.423 0.279743 211.383 0.380891 211.383H335.148C335.249 211.383 335.346 211.423 335.417 211.495C335.489 211.566 335.529 211.663 335.529 211.764C335.529 211.865 335.489 211.962 335.417 212.034C335.346 212.105 335.249 212.146 335.148 212.146Z" fill="#47332A"/>
<path d="M64.0999 65.287C64.0463 65.2976 63.9911 65.2976 63.9374 65.287C63.8668 65.287 56.783 61.8687 48.654 53.6902C41.1606 46.1121 31.2024 32.8344 26.3221 12.3882C26.2988 12.288 26.3162 12.1826 26.3705 12.0953C26.4248 12.0079 26.5115 11.9456 26.6117 11.9221C26.6608 11.9106 26.7118 11.909 26.7616 11.9174C26.8114 11.9258 26.859 11.944 26.9017 11.9709C26.9444 11.9979 26.9814 12.033 27.0104 12.0743C27.0394 12.1156 27.0599 12.1623 27.0707 12.2116C31.9016 32.4883 41.768 45.6459 49.1978 53.1111C57.2068 61.1977 64.1917 64.5242 64.2694 64.5595C64.3149 64.5808 64.3558 64.6108 64.3897 64.6479C64.4236 64.685 64.4498 64.7284 64.4669 64.7756C64.4839 64.8229 64.4915 64.873 64.4891 64.9232C64.4867 64.9734 64.4745 65.0226 64.453 65.068C64.4209 65.1342 64.3707 65.1899 64.3082 65.2287C64.2457 65.2675 64.1734 65.2877 64.0999 65.287Z" stroke="#31BC2E" stroke-width="0.706259" stroke-miterlimit="10"/>
<path d="M42.8132 38.8019C42.8132 38.8019 62.1506 39.8331 57.3268 16.7949C57.3268 16.7949 37.5163 17.0704 42.8132 38.8019Z" stroke="#31BC2E" stroke-width="0.706259" stroke-miterlimit="10"/>
<path d="M42.375 46.0633C42.3283 46.0621 42.2836 46.0444 42.2487 46.0134C42.2138 45.9824 42.191 45.94 42.1843 45.8938C41.0331 36.4935 49.2469 28.089 49.3175 28.0042C49.3541 27.9742 49.4006 27.9588 49.4479 27.9612C49.4952 27.9635 49.5399 27.9833 49.5734 28.0168C49.6068 28.0503 49.6267 28.095 49.629 28.1423C49.6313 28.1896 49.616 28.236 49.5859 28.2726C49.5082 28.3574 41.4357 36.6276 42.5657 45.8443C42.5697 45.869 42.5686 45.8942 42.5625 45.9185C42.5564 45.9427 42.5454 45.9654 42.5301 45.9853C42.5149 46.0051 42.4958 46.0216 42.474 46.0338C42.4522 46.046 42.4281 46.0536 42.4033 46.0562L42.375 46.0633Z" fill="#47332A"/>
<path d="M30.8274 12.7757C30.8274 12.7757 43.0245 10.2685 38.0242 0.380859C38.0242 0.380859 27.5857 1.53206 30.8274 12.7757Z" stroke="#31BC2E" stroke-width="0.706259" stroke-miterlimit="10"/>
<path d="M29.4718 22.2824C29.377 22.2812 29.2858 22.2454 29.2156 22.1816C29.1453 22.1179 29.1008 22.0306 29.0905 21.9363C28.3277 13.5883 33.7588 6.08787 33.9848 5.77005C34.0148 5.72948 34.0525 5.69525 34.0958 5.66935C34.1391 5.64345 34.1871 5.62639 34.237 5.61917C34.2869 5.61194 34.3378 5.61469 34.3866 5.62726C34.4355 5.63982 34.4813 5.66195 34.5216 5.69237C34.6031 5.75299 34.6576 5.84313 34.6734 5.94346C34.6893 6.04379 34.6652 6.14634 34.6063 6.22912C34.5498 6.29975 29.1187 13.8143 29.8532 21.8657C29.8581 21.9158 29.853 21.9664 29.8382 22.0145C29.8234 22.0627 29.7992 22.1074 29.767 22.1461C29.7348 22.1849 29.6953 22.2169 29.6507 22.2403C29.6061 22.2636 29.5573 22.278 29.5071 22.2824H29.4718Z" stroke="#31BC2E" stroke-width="0.706259" stroke-miterlimit="10"/>
<path d="M27.395 31.9936C27.395 31.9936 14.0467 37.2411 12.5 20.5734C12.5 20.5734 27.5433 15.001 27.395 31.9936Z" stroke="#31BC2E" stroke-width="0.706259" stroke-miterlimit="10"/>
<path d="M34.7125 34.3526C27.4804 33.8229 19.0548 27.3395 18.7016 27.064C18.6613 27.0336 18.6276 26.9954 18.6024 26.9516C18.5773 26.9078 18.5613 26.8594 18.5553 26.8092C18.5494 26.7591 18.5537 26.7082 18.5679 26.6598C18.5821 26.6113 18.606 26.5663 18.6381 26.5273C18.6686 26.4872 18.7067 26.4536 18.7502 26.4284C18.7938 26.4032 18.8419 26.3868 18.8917 26.3802C18.9416 26.3736 18.9923 26.377 19.0409 26.3901C19.0895 26.4033 19.135 26.4259 19.1748 26.4567C19.2596 26.5202 27.77 33.0743 34.769 33.5899C34.8702 33.5899 34.9672 33.6301 35.0387 33.7016C35.1102 33.7731 35.1504 33.8701 35.1504 33.9713C35.1504 34.0724 35.1102 34.1694 35.0387 34.2409C34.9672 34.3125 34.8702 34.3526 34.769 34.3526H34.7125Z" stroke="#31BC2E" stroke-width="0.706259" stroke-miterlimit="10"/>
<path d="M42.3745 53.5059C42.3745 53.5059 38.031 72.5749 19.3999 61.4513C19.3999 61.4443 25.7915 42.6437 42.3745 53.5059Z" stroke="#31BC2E" stroke-width="0.706259" stroke-miterlimit="10"/>
<path d="M31.5554 56.211C31.4831 56.2104 31.4124 56.1895 31.3512 56.1509C31.2901 56.1122 31.241 56.0572 31.2094 55.9921C31.1879 55.9467 31.1757 55.8974 31.1733 55.8473C31.1709 55.7971 31.1785 55.7469 31.1955 55.6997C31.2126 55.6524 31.2388 55.609 31.2727 55.5719C31.3066 55.5348 31.3475 55.5048 31.393 55.4836C31.8309 55.2717 42.2411 50.4762 50.801 54.7773C50.8917 54.8215 50.9612 54.8998 50.9943 54.9951C51.0274 55.0904 51.0214 55.1949 50.9776 55.2858C50.932 55.377 50.8524 55.4467 50.7559 55.4797C50.6595 55.5127 50.5539 55.5065 50.462 55.4624C42.2341 51.359 31.8238 56.1686 31.7179 56.211C31.6643 56.2217 31.6091 56.2217 31.5554 56.211Z" stroke="#31BC2E" stroke-width="0.706259" stroke-miterlimit="10"/>
<path d="M42.8132 38.8019C42.8132 38.8019 62.1506 39.8331 57.3268 16.7949C57.3268 16.7949 37.5163 17.0704 42.8132 38.8019Z" stroke="#31BC2E" stroke-width="0.706259" stroke-miterlimit="10"/>
<path d="M42.375 46.2537C42.2813 46.2528 42.191 46.2179 42.1209 46.1556C42.0508 46.0933 42.0056 46.0078 41.9937 45.9147C40.8213 36.4226 48.8232 28.2512 49.1622 27.8698C49.1977 27.8337 49.24 27.8051 49.2867 27.7855C49.3334 27.7659 49.3835 27.7559 49.4341 27.7559C49.4847 27.7559 49.5348 27.7659 49.5815 27.7855C49.6282 27.8051 49.6705 27.8337 49.706 27.8698C49.7772 27.9424 49.817 28.04 49.817 28.1417C49.817 28.2434 49.7772 28.341 49.706 28.4136C49.6213 28.4984 41.6193 36.7051 42.7352 45.83C42.7421 45.8797 42.739 45.9304 42.7259 45.9789C42.7128 46.0274 42.6901 46.0727 42.6591 46.1123C42.6282 46.1518 42.5896 46.1847 42.5456 46.209C42.5016 46.2333 42.4532 46.2485 42.4033 46.2537H42.375Z" stroke="#31BC2E" stroke-width="0.706259" stroke-miterlimit="10"/>
<path d="M174.728 185.103C174.647 184.361 174.38 183.651 173.951 183.041C172.539 181.12 171.748 179.749 170.893 178.386C170.812 178.244 170.703 178.119 170.571 178.021C170.44 177.922 170.29 177.852 170.13 177.814L169.876 177.758C169.781 177.726 169.68 177.714 169.581 177.724C169.481 177.734 169.384 177.765 169.297 177.815C169.211 177.865 169.135 177.933 169.077 178.015C169.018 178.096 168.978 178.189 168.958 178.287C168.79 179.579 168.79 180.887 168.958 182.179L163.767 180.802V191.353L168.506 192.596C169.22 192.781 169.969 192.782 170.683 192.598C171.397 192.413 172.053 192.051 172.588 191.544C172.954 191.65 173.338 191.681 173.716 191.635C174.094 191.589 174.459 191.467 174.789 191.277C175.119 191.086 175.407 190.831 175.636 190.526C175.864 190.221 176.029 189.873 176.12 189.503L176.374 188.394C176.552 187.739 176.483 187.041 176.179 186.434C175.876 185.827 175.359 185.353 174.728 185.103Z" fill="#A34321"/>
<path d="M170.477 182.214C170.431 181.777 170.222 181.375 169.892 181.085C169.562 180.796 169.135 180.642 168.697 180.653L160.525 180.872C160.247 180.886 159.974 180.956 159.723 181.078C159.472 181.2 159.248 181.371 159.065 181.581C158.882 181.792 158.743 182.037 158.657 182.302C158.57 182.567 158.538 182.847 158.562 183.125C158.619 183.658 158.884 184.147 159.299 184.487C159.714 184.827 160.246 184.989 160.78 184.94L168.88 184.107C169.112 184.094 169.338 184.034 169.546 183.93C169.753 183.826 169.937 183.682 170.087 183.504C170.236 183.327 170.348 183.121 170.415 182.899C170.482 182.677 170.503 182.444 170.477 182.214Z" fill="#A34321"/>
<path d="M170.116 185.401C170.063 184.98 169.855 184.594 169.532 184.318C169.209 184.042 168.795 183.897 168.371 183.911L161.542 184.236C161.281 184.257 161.028 184.33 160.796 184.449C160.564 184.568 160.357 184.732 160.188 184.931C160.019 185.13 159.891 185.36 159.812 185.609C159.732 185.857 159.702 186.119 159.723 186.379C159.744 186.64 159.817 186.893 159.936 187.125C160.055 187.357 160.219 187.564 160.418 187.733C160.617 187.902 160.847 188.03 161.096 188.109C161.344 188.189 161.606 188.219 161.866 188.198L168.625 187.252C168.845 187.229 169.058 187.163 169.252 187.057C169.446 186.952 169.617 186.809 169.756 186.637C169.894 186.465 169.997 186.267 170.059 186.055C170.121 185.843 170.14 185.621 170.116 185.401Z" fill="#A34321"/>
<path d="M170.335 188.373C170.292 187.961 170.089 187.582 169.769 187.318C169.449 187.053 169.039 186.925 168.626 186.961L163.286 187.321C163.027 187.331 162.772 187.393 162.537 187.503C162.302 187.614 162.092 187.771 161.919 187.965C161.746 188.159 161.614 188.386 161.531 188.632C161.448 188.878 161.416 189.139 161.436 189.398C161.503 189.894 161.763 190.344 162.16 190.649C162.557 190.955 163.058 191.091 163.555 191.029L168.859 190.083C169.068 190.068 169.273 190.013 169.461 189.919C169.649 189.825 169.816 189.695 169.953 189.536C170.091 189.377 170.195 189.192 170.26 188.993C170.326 188.793 170.351 188.583 170.335 188.373Z" fill="#A34321"/>
<path d="M170.843 190.627C170.802 190.22 170.604 189.846 170.292 189.582C169.98 189.319 169.577 189.187 169.169 189.215L164.882 189.921C164.633 189.931 164.387 189.991 164.161 190.098C163.935 190.204 163.733 190.356 163.567 190.543C163.401 190.729 163.274 190.948 163.195 191.185C163.115 191.422 163.084 191.673 163.103 191.922C163.123 192.171 163.192 192.414 163.308 192.635C163.424 192.857 163.583 193.053 163.776 193.212C163.969 193.371 164.192 193.489 164.432 193.559C164.672 193.63 164.924 193.651 165.172 193.622L169.41 192.386C169.829 192.334 170.213 192.122 170.48 191.795C170.747 191.467 170.877 191.049 170.843 190.627Z" fill="#A34321"/>
<path d="M213.996 192.993L171.621 182.166L168.534 191.1C168.534 191.1 194.906 198.911 211.397 203.453C214.01 204.159 217.351 201.814 217.859 199.166C218.368 196.517 216.461 193.459 213.996 192.993Z" fill="#A34321"/>
<path d="M217.407 200.832L222.711 174.538L212.357 172.688L206.877 197.823C206.634 198.963 206.847 200.153 207.472 201.137C208.097 202.121 209.082 202.82 210.217 203.085C212.506 203.593 216.757 203.12 217.407 200.832Z" fill="#A34321"/>
<path d="M247.741 143.662H226.815V125.214C226.815 124.559 227.075 123.93 227.539 123.466C228.003 123.003 228.631 122.742 229.287 122.742H243.963C244.965 122.742 245.926 123.14 246.635 123.849C247.343 124.557 247.741 125.519 247.741 126.521V143.662Z" fill="#011716"/>
<path d="M245.071 149.551V156.416C245.071 160.187 242.246 163.28 238.786 163.28C235.325 163.28 232.5 160.187 232.5 156.416V149.551H245.071Z" fill="#A34321"/>
<path d="M243.341 150.674L232.479 156.79V150.688L243.341 150.674Z" fill="#7A3219"/>
<path d="M225.798 187.433L208.657 183.287L213.269 164.148C213.54 163.022 214.031 161.961 214.713 161.026C215.395 160.09 216.254 159.297 217.242 158.694C218.23 158.09 219.327 157.687 220.471 157.507C221.615 157.328 222.783 157.375 223.908 157.647C225.034 157.918 226.095 158.409 227.031 159.091C227.966 159.773 228.759 160.632 229.363 161.62C229.966 162.608 230.369 163.705 230.549 164.849C230.729 165.993 230.681 167.161 230.41 168.286L225.798 187.433Z" fill="#31B92E"/>
<path d="M245.072 150.674H231.971C231.294 150.674 230.623 150.54 229.998 150.281C229.372 150.022 228.804 149.642 228.325 149.164C227.846 148.685 227.467 148.116 227.207 147.491C226.948 146.865 226.815 146.195 226.815 145.518V127.127H245.072V150.667V150.674Z" fill="#A34321"/>
<path d="M245.961 145.115H245.071V138.25H245.982C246.678 138.263 247.341 138.547 247.831 139.042C248.32 139.536 248.597 140.203 248.603 140.898V142.502C248.59 143.196 248.306 143.857 247.813 144.345C247.32 144.833 246.655 145.109 245.961 145.115Z" fill="#A34321"/>
<path d="M236.257 138.102C236.404 137.663 236.668 137.274 237.02 136.974C237.372 136.674 237.799 136.475 238.256 136.4C238.709 136.368 239.165 136.441 239.587 136.611C240.009 136.781 240.387 137.044 240.692 137.381C240.57 137.837 240.301 138.241 239.927 138.529C239.553 138.818 239.095 138.975 238.623 138.978C236.843 139.133 236.257 138.102 236.257 138.102Z" fill="white"/>
<path d="M239.966 137.487C239.999 137.779 239.945 138.074 239.81 138.335C239.675 138.596 239.466 138.812 239.209 138.954C238.952 139.096 238.658 139.158 238.365 139.133C238.073 139.108 237.794 138.997 237.565 138.813C237.336 138.629 237.166 138.382 237.078 138.102C236.989 137.821 236.986 137.521 237.068 137.239C237.151 136.957 237.315 136.706 237.54 136.518C237.766 136.329 238.042 136.212 238.334 136.181C238.527 136.157 238.723 136.172 238.911 136.226C239.098 136.279 239.273 136.369 239.425 136.491C239.577 136.612 239.703 136.763 239.796 136.934C239.888 137.106 239.946 137.293 239.966 137.487Z" fill="black"/>
<path d="M236.257 138.102C236.386 137.654 236.645 137.253 237 136.951C237.356 136.648 237.792 136.457 238.256 136.4C238.709 136.373 239.163 136.446 239.585 136.616C240.006 136.786 240.384 137.048 240.692 137.382" stroke="black" stroke-width="0.353129" stroke-linecap="round" stroke-linejoin="round"/>
<path d="M232.154 138.102C232.154 138.102 231.681 136.542 230.339 136.4C229.918 136.378 229.498 136.455 229.112 136.626C228.727 136.796 228.387 137.055 228.121 137.382C228.249 137.784 228.485 138.143 228.802 138.421C229.12 138.699 229.508 138.884 229.924 138.957C230.339 139.03 230.767 138.987 231.16 138.834C231.553 138.681 231.897 138.423 232.154 138.088V138.102Z" fill="white"/>
<path d="M228.828 137.489C228.787 137.862 228.888 138.236 229.11 138.538C229.333 138.84 229.66 139.048 230.028 139.12C230.398 139.142 230.762 139.016 231.041 138.772C231.32 138.528 231.491 138.183 231.518 137.814C231.559 137.441 231.458 137.066 231.236 136.764C231.014 136.462 230.686 136.254 230.318 136.182C230.133 136.161 229.945 136.18 229.767 136.236C229.589 136.291 229.425 136.384 229.285 136.507C229.144 136.63 229.031 136.78 228.953 136.95C228.874 137.119 228.831 137.302 228.828 137.489Z" fill="black"/>
<path d="M232.154 138.102C232.154 138.102 231.716 136.47 230.339 136.399C229.918 136.38 229.499 136.458 229.114 136.629C228.729 136.799 228.389 137.057 228.121 137.381" stroke="black" stroke-width="0.331942" stroke-linecap="round" stroke-linejoin="round"/>
<path d="M238.623 132.586C239.4 132.486 240.188 132.534 240.947 132.728C241.078 132.752 241.199 132.816 241.292 132.912C241.385 133.008 241.446 133.131 241.466 133.263C241.486 133.395 241.465 133.53 241.405 133.649C241.344 133.768 241.249 133.866 241.13 133.928C240.428 134.192 239.695 134.363 238.948 134.437C237.133 134.656 236.123 134.112 236.123 133.674C236.116 133.06 237.642 132.657 238.623 132.586Z" fill="#011716"/>
<path d="M229.866 132.586C229.155 132.508 228.435 132.568 227.747 132.762C227.623 132.796 227.511 132.865 227.425 132.961C227.339 133.057 227.283 133.176 227.264 133.303C227.245 133.43 227.262 133.56 227.316 133.677C227.369 133.795 227.455 133.894 227.563 133.963C228.206 134.202 228.879 134.349 229.562 134.401C231.193 134.585 232.14 134.034 232.14 133.568C232.119 132.981 230.741 132.621 229.866 132.586Z" fill="#011716"/>
<path d="M245.453 138.251V131.57H243.709V128.95H226.758V124.924H245.432V131.57" fill="#011716"/>
<path d="M270.765 192.518L267.17 165.928L256.781 167.559L259.797 193.098C259.941 194.252 260.53 195.305 261.439 196.03C262.348 196.756 263.505 197.098 264.663 196.982C267.029 196.692 270.914 194.842 270.765 192.518Z" fill="#A34321"/>
<path d="M237.239 143.625C237.259 144.028 237.196 144.431 237.055 144.809C236.915 145.188 236.699 145.533 236.42 145.826C236.142 146.118 235.807 146.351 235.436 146.51C235.065 146.668 234.666 146.75 234.262 146.75C233.859 146.75 233.459 146.668 233.088 146.51C232.717 146.351 232.382 146.118 232.104 145.826C231.826 145.533 231.61 145.188 231.469 144.809C231.328 144.431 231.266 144.028 231.285 143.625" fill="white"/>
<path d="M234.371 139.416L233.1 140.61C232.013 141.775 233.354 141.916 234.047 141.881L234.442 141.81" fill="#7A3219"/>
<path d="M255.58 212.237H224.018C223.142 212.235 222.302 211.887 221.683 211.267C221.063 210.648 220.714 209.808 220.712 208.932V160.151C220.712 159.793 220.783 159.439 220.92 159.109C221.057 158.778 221.258 158.478 221.511 158.226C221.765 157.973 222.065 157.773 222.396 157.637C222.727 157.5 223.081 157.431 223.439 157.432H258.928V208.932C258.925 209.369 258.837 209.801 258.667 210.203C258.497 210.606 258.25 210.971 257.939 211.278C257.628 211.585 257.26 211.828 256.855 211.992C256.45 212.157 256.017 212.24 255.58 212.237Z" fill="#31B92E"/>
<path d="M254.457 187.067L271.817 184.094L268.512 164.693C268.322 163.548 267.907 162.452 267.292 161.467C266.677 160.483 265.873 159.63 264.927 158.958C263.981 158.285 262.912 157.806 261.78 157.548C260.649 157.29 259.477 157.259 258.333 157.455C257.19 157.652 256.096 158.072 255.115 158.693C254.134 159.313 253.286 160.121 252.618 161.071C251.951 162.021 251.478 163.093 251.226 164.226C250.974 165.359 250.949 166.53 251.152 167.673L254.457 187.067Z" fill="#31B92E"/>
<path d="M224.477 214.625C226.928 214.865 227.952 215.819 227.952 215.819C228.398 215.571 228.889 215.418 229.397 215.366C229.904 215.315 230.416 215.368 230.903 215.521C231.389 215.675 231.839 215.925 232.225 216.258C232.612 216.591 232.926 216.999 233.15 217.457L233.806 218.813C234.236 219.68 234.313 220.679 234.02 221.601C233.728 222.523 233.089 223.296 232.239 223.757L232.147 223.82C229.091 226.635 225.537 228.853 221.666 230.36C213.374 233.581 212.64 229.068 211.835 226.427C211.079 223.919 216.016 221.779 219.547 220.12L215.31 219.632C215.037 219.604 214.783 219.485 214.585 219.296C214.388 219.106 214.26 218.856 214.221 218.585C214.182 218.314 214.235 218.038 214.371 217.8C214.506 217.563 214.717 217.377 214.971 217.273L219.208 215.458C220.874 214.769 222.679 214.484 224.477 214.625Z" fill="#A34321"/>
<path d="M262.657 190.294L227.168 215.762L232.006 223.884C232.006 223.884 254.931 208.671 268.993 198.953C271.21 197.406 271.57 193.303 269.847 191.233C268.258 189.277 264.628 188.67 262.657 190.294Z" fill="#A34321"/>
<path d="M143.454 183.251L147.409 211.396L157.742 211.262L155.793 182.538C155.628 181.239 154.96 180.056 153.933 179.244C152.905 178.431 151.6 178.055 150.298 178.195C147.643 178.534 143.278 180.638 143.454 183.251Z" fill="#7A3219"/>
<path d="M139.372 187.052L156.513 182.92L151.901 163.781C151.63 162.655 151.139 161.594 150.457 160.658C149.775 159.723 148.916 158.93 147.928 158.326C146.94 157.723 145.843 157.32 144.699 157.14C143.555 156.96 142.387 157.008 141.262 157.279C140.136 157.551 139.075 158.042 138.139 158.724C137.203 159.406 136.411 160.265 135.807 161.253C135.204 162.241 134.801 163.338 134.621 164.482C134.441 165.626 134.489 166.794 134.76 167.919L139.372 187.052Z" fill="#31B92E"/>
<path d="M94.405 192.138L97.9998 165.547L108.389 167.178L105.373 192.717C105.23 193.871 104.64 194.924 103.731 195.65C102.822 196.375 101.665 196.717 100.507 196.601C98.1693 196.34 94.2567 194.461 94.405 192.138Z" fill="#A34321"/>
<path d="M109.59 211.879H141.153C142.028 211.875 142.867 211.526 143.486 210.907C144.105 210.288 144.454 209.449 144.458 208.574V159.771C144.458 159.413 144.387 159.059 144.25 158.728C144.113 158.397 143.913 158.097 143.659 157.843C143.406 157.59 143.106 157.389 142.775 157.252C142.444 157.115 142.09 157.045 141.732 157.045H106.242V208.552C106.242 208.991 106.329 209.425 106.497 209.83C106.666 210.235 106.913 210.603 107.224 210.912C107.535 211.221 107.904 211.466 108.31 211.632C108.716 211.798 109.151 211.882 109.59 211.879Z" fill="#31B92E"/>
<path d="M110.712 186.684L93.3525 183.704L96.6578 164.31C96.8479 163.165 97.2625 162.069 97.8776 161.085C98.4927 160.1 99.2963 159.247 100.242 158.575C101.188 157.902 102.258 157.423 103.389 157.165C104.521 156.908 105.692 156.876 106.836 157.072C107.98 157.269 109.074 157.689 110.055 158.31C111.035 158.93 111.884 159.739 112.551 160.688C113.219 161.638 113.692 162.71 113.944 163.843C114.195 164.976 114.22 166.147 114.018 167.29L110.712 186.684Z" fill="#31B92E"/>
<path d="M149.578 184.858C147.162 185.352 146.237 186.404 146.237 186.404C145.769 186.207 145.265 186.107 144.757 186.11C144.249 186.113 143.746 186.219 143.28 186.421C142.814 186.624 142.394 186.919 142.045 187.289C141.696 187.659 141.426 188.095 141.251 188.573L140.735 189.985C140.411 190.889 140.445 191.883 140.832 192.762C141.218 193.641 141.927 194.338 142.812 194.71L142.918 194.759C146.248 197.239 150.014 199.072 154.02 200.162C162.608 202.5 162.862 197.938 163.385 195.219C163.872 192.648 158.738 191.038 155.058 189.752L159.204 188.827C159.471 188.77 159.712 188.625 159.888 188.416C160.063 188.207 160.165 187.946 160.175 187.673C160.186 187.4 160.105 187.131 159.946 186.909C159.786 186.687 159.558 186.524 159.296 186.447L154.924 185.084C153.185 184.586 151.353 184.508 149.578 184.858Z" fill="#A34321"/>
<path d="M99.6387 189.56L143.194 186.262L144.712 195.591C144.712 195.591 117.366 198.671 100.352 200.267C97.6541 200.5 94.7513 197.597 94.7019 194.899C94.6737 192.357 97.0891 189.581 99.6387 189.56Z" fill="#A34321"/>
<mask id="mask0_1343_61206" style="mask-type:luminance" maskUnits="userSpaceOnUse" x="115" y="123" width="24" height="41">
<path d="M138.094 123.779H115.522V163.471H138.094V123.779Z" fill="white"/>
</mask>
<g mask="url(#mask0_1343_61206)">
<path d="M119.18 150.433H132.726C133.428 150.435 134.124 150.298 134.773 150.031C135.422 149.763 136.012 149.37 136.508 148.874C137.005 148.378 137.399 147.789 137.667 147.14C137.936 146.491 138.074 145.796 138.073 145.094V128.144C138.073 127.601 137.857 127.08 137.473 126.696C137.089 126.311 136.568 126.096 136.024 126.096H119.18V150.433Z" fill="#99492F"/>
<path d="M117.026 137.573V130.658H118.99V127.96H138.094V127.494C138.05 126.468 137.601 125.501 136.845 124.806C136.088 124.111 135.087 123.744 134.061 123.786H119.971C119.221 123.756 118.488 124.021 117.932 124.526C117.375 125.031 117.04 125.734 116.998 126.484V130.658" fill="#99492F"/>
<path d="M120.021 127.486H117.026V139.048H120.021V127.486Z" fill="#99492F"/>
<path d="M128.284 137.409C128.129 136.955 127.854 136.55 127.489 136.238C127.123 135.927 126.681 135.719 126.207 135.637C125.74 135.603 125.272 135.677 124.837 135.852C124.403 136.027 124.014 136.299 123.7 136.647C123.827 137.115 124.101 137.53 124.483 137.829C124.865 138.128 125.334 138.296 125.819 138.306C127.683 138.504 128.284 137.409 128.284 137.409Z" fill="white"/>
<path d="M132.536 137.411C132.536 137.411 133.023 135.779 134.415 135.638C134.85 135.611 135.286 135.689 135.685 135.865C136.084 136.041 136.436 136.309 136.71 136.648C136.611 137.098 136.368 137.504 136.017 137.803C135.667 138.103 135.228 138.28 134.768 138.308C134.349 138.402 133.911 138.367 133.512 138.206C133.114 138.046 132.773 137.769 132.536 137.411Z" fill="white"/>
<path d="M124.463 136.781C124.43 137.084 124.487 137.39 124.628 137.66C124.769 137.93 124.987 138.153 125.254 138.299C125.521 138.446 125.826 138.509 126.129 138.483C126.432 138.456 126.721 138.34 126.959 138.149C127.196 137.958 127.371 137.701 127.463 137.41C127.554 137.12 127.557 136.808 127.471 136.516C127.386 136.224 127.215 135.963 126.981 135.768C126.748 135.572 126.461 135.451 126.158 135.418C125.957 135.393 125.752 135.408 125.557 135.463C125.362 135.519 125.18 135.613 125.021 135.74C124.863 135.867 124.732 136.025 124.636 136.204C124.54 136.383 124.482 136.579 124.463 136.781Z" fill="black"/>
<path d="M135.997 136.782C136.044 137.17 135.942 137.563 135.709 137.878C135.477 138.193 135.132 138.407 134.747 138.477C134.555 138.493 134.363 138.47 134.181 138.41C133.999 138.349 133.831 138.252 133.687 138.125C133.544 137.997 133.428 137.842 133.347 137.668C133.265 137.494 133.22 137.306 133.214 137.114C133.168 136.724 133.273 136.332 133.507 136.017C133.74 135.702 134.085 135.488 134.471 135.419C134.662 135.403 134.854 135.427 135.035 135.488C135.216 135.549 135.383 135.646 135.526 135.773C135.669 135.901 135.784 136.056 135.865 136.229C135.946 136.403 135.991 136.591 135.997 136.782Z" fill="black"/>
<path d="M132.536 137.41C132.536 137.41 132.974 135.722 134.415 135.638C134.849 135.618 135.283 135.699 135.681 135.874C136.079 136.049 136.431 136.314 136.71 136.648" stroke="black" stroke-width="0.459068" stroke-linecap="round" stroke-linejoin="round"/>
<path d="M125.826 131.71C125.017 131.606 124.196 131.654 123.404 131.851C122.804 132.042 122.613 132.748 123.213 133.073C123.937 133.357 124.698 133.533 125.473 133.596C127.359 133.815 128.39 133.264 128.39 132.805C128.418 132.176 126.836 131.767 125.826 131.71Z" fill="#051616"/>
<path d="M134.894 131.711C135.636 131.638 136.385 131.712 137.098 131.93C137.218 131.972 137.324 132.047 137.406 132.145C137.487 132.243 137.541 132.361 137.56 132.487C137.58 132.613 137.565 132.742 137.517 132.86C137.469 132.979 137.39 133.082 137.288 133.159C136.636 133.417 135.947 133.574 135.247 133.625C133.559 133.815 132.578 133.243 132.578 132.777C132.564 132.12 133.983 131.739 134.894 131.711Z" fill="#051616"/>
<path d="M127.246 144.961C127.246 145.781 127.572 146.568 128.152 147.148C128.732 147.728 129.519 148.054 130.339 148.054C131.159 148.054 131.946 147.728 132.526 147.148C133.107 146.568 133.432 145.781 133.432 144.961" fill="white"/>
<path d="M130.248 138.801L131.583 140.058C132.699 141.251 131.307 141.421 130.601 141.365L130.163 141.28" fill="#723623"/>
<path d="M130.657 142.538C129.902 142.46 129.141 142.496 128.397 142.644C127.825 142.806 127.69 143.35 128.234 143.597C128.924 143.81 129.634 143.947 130.353 144.007C132.097 144.169 133.079 143.76 133.079 143.406C133.107 142.919 131.638 142.594 130.657 142.538Z" fill="#051616"/>
<path d="M119.18 149.268V156.33C119.18 160.257 122.097 163.393 125.692 163.393C129.287 163.393 132.211 160.208 132.211 156.33V149.268H119.18Z" fill="#99492F"/>
<path d="M120.946 150.434L132.211 156.733V150.434H120.946Z" fill="#723623"/>
<path d="M118.248 144.691H119.18V137.572H118.248C117.526 137.576 116.835 137.864 116.325 138.375C115.814 138.885 115.526 139.577 115.522 140.298V141.958C115.524 142.681 115.811 143.374 116.322 143.886C116.833 144.398 117.525 144.688 118.248 144.691Z" fill="#99492F"/>
<path d="M118.771 136.592H120.021L122.259 146.762L129.619 149.135H134.824L138.016 145.999V150.173C138.016 150.585 137.935 150.992 137.777 151.372C137.62 151.752 137.388 152.097 137.097 152.388C136.806 152.679 136.46 152.909 136.08 153.066C135.699 153.223 135.292 153.303 134.88 153.302H122.45C121.957 153.3 121.477 153.151 121.069 152.874C120.662 152.597 120.346 152.205 120.162 151.748L119.456 149.954L118.771 136.592Z" fill="#051616"/>
</g>
<path d="M75.9434 160.603C87.6841 160.603 97.2018 151.085 97.2018 139.344C97.2018 127.604 87.6841 118.086 75.9434 118.086C64.2028 118.086 54.6851 127.604 54.6851 139.344C54.6851 151.085 64.2028 160.603 75.9434 160.603Z" fill="#004C46"/>
<path d="M85.6054 152.001C85.7255 151.895 85.8667 151.782 85.9938 151.655L89.4051 148.237C88.8612 147.7 88.3316 147.22 87.8513 146.69C87.7242 146.556 87.7666 146.273 87.7312 146.061C87.9572 146.061 88.2539 146.061 88.3881 146.16C89.0096 146.718 89.5816 147.326 90.1749 147.912C90.2419 147.959 90.2966 148.022 90.3343 148.095C90.3721 148.169 90.3918 148.25 90.3918 148.332C90.3918 148.414 90.3721 148.495 90.3343 148.568C90.2966 148.641 90.2419 148.705 90.1749 148.752C88.8118 150.108 87.4558 151.464 86.0998 152.834C85.7396 153.195 85.4571 153.046 85.1605 152.75C84.0446 151.605 82.9004 150.482 81.7916 149.338C81.5253 149.042 81.1979 148.808 80.8322 148.65C80.4664 148.493 80.0708 148.417 79.6728 148.427C77.2927 148.427 74.9056 148.427 72.5184 148.427C71.8356 148.448 71.1555 148.334 70.5168 148.091C69.8782 147.849 69.2936 147.483 68.7964 147.015C67.3839 145.631 65.9714 144.218 64.5589 142.777C64.2154 142.443 64.0052 141.994 63.9675 141.516C63.9299 141.038 64.0672 140.563 64.3541 140.178C64.622 139.81 65.0124 139.55 65.4551 139.444C65.8978 139.337 66.3638 139.393 66.7695 139.599C67.1026 139.807 67.4169 140.043 67.7088 140.305C68.066 140.022 68.4411 139.763 68.8318 139.528C69.0083 139.437 69.2767 139.528 69.538 139.528C69.4674 139.747 69.4603 140.023 69.3191 140.164C69.0066 140.448 68.6712 140.705 68.3162 140.934C69.1072 141.725 69.8417 142.466 70.5833 143.194C71.3248 143.921 72.2642 143.688 73.1964 143.695C73.1187 143.37 73.034 143.088 72.9916 142.798C72.9515 142.535 72.9679 142.265 73.0396 142.008C73.1113 141.751 73.2368 141.512 73.4077 141.307C73.5786 141.102 73.791 140.936 74.031 140.819C74.2709 140.703 74.5329 140.638 74.7996 140.63C75.7672 140.595 76.7418 140.63 77.7165 140.63L77.9142 140.404C77.7659 140.37 77.6216 140.32 77.4834 140.256C76.6039 139.692 75.6179 139.314 74.5865 139.146C73.5551 138.979 72.5002 139.025 71.4873 139.281C71.3531 139.317 71.2048 139.415 71.0918 139.38C70.9004 139.31 70.7179 139.217 70.548 139.105C70.6751 138.942 70.774 138.681 70.9364 138.631C71.4449 138.476 71.9817 138.427 72.4902 138.285C72.6526 138.236 72.8857 138.017 72.8927 137.876C72.8927 136.096 72.8927 134.344 72.8927 132.459C72.2995 132.459 71.7768 132.459 71.2542 132.459C70.4348 132.457 69.649 132.133 69.0663 131.557C68.4836 130.981 68.1507 130.199 68.1396 129.379C68.1008 128.733 68.1008 128.084 68.1396 127.437C68.1396 127.24 68.408 126.901 68.5563 126.893C69.4101 126.814 70.27 126.831 71.12 126.943C71.7952 127.145 72.4428 127.43 73.0481 127.79C73.2388 127.473 73.5001 127.028 73.7544 126.59C74.227 125.844 74.9432 125.285 75.7813 125.008C76.2969 124.817 76.537 125.008 76.537 125.523C76.537 126.307 76.537 127.091 76.537 127.783L79.0019 125.495C78.7135 125.532 78.4216 125.532 78.1332 125.495C77.9285 125.389 77.7424 125.251 77.5823 125.085C77.7659 124.951 77.9354 124.711 78.1191 124.697C78.7194 124.64 79.3268 124.697 79.9271 124.697C80.5274 124.697 80.5768 124.937 80.5768 125.368C80.5768 126.251 80.5768 127.134 80.5768 128.009C80.5779 128.603 80.4603 129.19 80.231 129.737C80.0016 130.285 79.6652 130.78 79.2414 131.196C78.8176 131.611 78.315 131.937 77.7633 132.155C77.2115 132.373 76.6217 132.479 76.0285 132.466C75.2728 132.466 74.5171 132.466 73.6908 132.466C73.6908 134.316 73.6908 136.089 73.6908 137.869C73.6908 138.01 73.9874 138.264 74.164 138.278C75.8772 138.448 77.4982 139.135 78.8112 140.249C79.103 140.451 79.4519 140.555 79.807 140.545C83.4584 140.595 82.4767 140.213 85.1463 142.82C85.6901 143.349 86.2481 143.879 86.7495 144.451C86.912 144.635 86.912 144.952 86.9826 145.207C86.7213 145.143 86.3823 145.164 86.2198 145.009C85.1746 144.02 84.207 142.954 83.1335 142C82.7235 141.649 82.2103 141.441 81.6715 141.407C79.5528 141.344 77.3704 141.407 75.2163 141.407C74.3194 141.407 73.7473 141.901 73.7614 142.636C73.7756 143.37 74.3335 143.738 75.174 143.752C75.8802 143.752 76.5865 143.752 77.2927 143.752C77.4764 143.752 77.6529 143.999 77.8295 144.126C77.66 144.246 77.4975 144.472 77.328 144.472C75.3576 144.472 73.3871 144.522 71.4237 144.409C70.8142 144.303 70.252 144.012 69.8134 143.575C68.7964 142.671 67.8712 141.654 66.9037 140.694C66.2822 140.079 65.6465 140.023 65.131 140.51C65.0064 140.631 64.9092 140.777 64.846 140.939C64.7827 141.101 64.7548 141.274 64.7642 141.447C64.7735 141.621 64.82 141.79 64.9003 141.944C64.9806 142.098 65.093 142.233 65.2298 142.339C66.5858 143.705 67.9466 145.063 69.312 146.414C69.7035 146.81 70.1716 147.122 70.6877 147.331C71.2038 147.54 71.757 147.641 72.3136 147.629C74.7643 147.629 77.2574 147.629 79.6799 147.629C80.1539 147.617 80.6251 147.706 81.0622 147.89C81.4993 148.074 81.8924 148.348 82.2154 148.696C83.3383 149.776 84.4613 150.871 85.6054 152.001ZM72.3207 131.519C71.3955 130.63 70.5833 129.874 69.8134 129.083C69.6863 128.956 69.7216 128.659 69.6863 128.44C69.9053 128.475 70.1948 128.44 70.3361 128.56C70.9788 129.132 71.572 129.747 72.1794 130.347C72.363 130.524 72.5537 130.693 72.8009 130.919C73.0976 128.235 71.5862 127.289 68.9165 127.642C68.4574 130.411 69.6086 131.83 72.3207 131.541V131.519ZM73.7332 130.813C75.52 129.57 76.2122 127.741 75.5624 125.968C73.9309 126.865 73.3447 128.426 73.7403 130.806L73.7332 130.813ZM79.7152 128.454C78.4298 128.454 77.0526 128.073 76.3322 129.605C76.3322 129.605 76.3958 129.669 76.4311 129.669H78.3945C79.4609 129.669 79.4609 129.669 79.7223 128.447L79.7152 128.454ZM78.7123 130.509H76.0144C75.181 130.509 74.8773 130.7 74.4324 131.548C75.9085 131.555 77.4057 131.858 78.7194 130.502L78.7123 130.509ZM79.6658 127.614V126.562L78.4581 127.67L79.6658 127.614Z" fill="white"/>
<path d="M68.8525 139.535C68.9368 139.433 69.0565 139.367 69.1876 139.35C69.3186 139.333 69.4512 139.366 69.5587 139.443C69.6483 139.552 69.6959 139.69 69.6929 139.832L68.3228 141.004L67.9414 140.601L68.8525 139.535Z" fill="white"/>
<path d="M70.8232 138.674C70.8232 138.674 70.1169 138.872 70.3924 139.38C70.6678 139.889 71.2893 139.38 71.2893 139.38L71.5365 138.893L70.8232 138.674Z" fill="white"/>
<path d="M71.2538 142.588C71.7726 142.588 72.1931 142.167 72.1931 141.648C72.1931 141.13 71.7726 140.709 71.2538 140.709C70.735 140.709 70.3145 141.13 70.3145 141.648C70.3145 142.167 70.735 142.588 71.2538 142.588Z" fill="white"/>
<path d="M287.419 152.298C299.16 152.298 308.677 142.78 308.677 131.04C308.677 119.299 299.16 109.781 287.419 109.781C275.678 109.781 266.161 119.299 266.161 131.04C266.161 142.78 275.678 152.298 287.419 152.298Z" fill="#004C46"/>
<path d="M289.629 142.093C287.926 142.147 286.234 141.806 284.684 141.098C283.134 140.39 281.769 139.334 280.695 138.011C280.349 137.623 280.045 137.185 279.728 136.761C279.41 136.337 279.551 136.055 279.982 135.85C284.219 133.922 288.633 133.802 292.426 137.163C293.182 137.827 293.803 138.647 294.545 139.36C294.644 139.452 294.761 139.522 294.889 139.567C295.016 139.612 295.152 139.63 295.286 139.621C295.832 139.511 296.345 139.28 296.79 138.945C297.234 138.61 297.598 138.18 297.855 137.687C298.112 137.193 298.255 136.648 298.273 136.092C298.292 135.536 298.186 134.982 297.963 134.473C297.815 134.098 297.426 133.646 298.027 133.392C298.627 133.138 298.733 133.724 298.924 134.098C299.21 134.778 299.334 135.514 299.288 136.25C299.242 136.985 299.026 137.7 298.657 138.339C298.289 138.977 297.777 139.521 297.163 139.929C296.549 140.336 295.848 140.596 295.117 140.688C294.783 140.733 294.457 140.826 294.149 140.963C292.717 141.592 291.189 141.974 289.629 142.093ZM293.04 139.303C290.441 135.673 284.233 134.36 280.963 136.627C283.019 140.335 288.881 142.213 292.709 140.32C292.475 140.243 292.306 140.179 292.129 140.13C290.321 139.642 288.506 139.148 286.691 138.668C286.324 138.569 285.921 138.477 286.034 137.962C286.147 137.446 286.599 137.552 286.974 137.651C287.503 137.785 288.033 137.933 288.563 138.075L293.04 139.303Z" fill="white"/>
<path d="M296.868 130.403C296.807 132.292 296.373 134.15 295.59 135.87C295.279 136.576 295.011 136.64 294.389 136.18C291.875 134.302 289.933 132.021 289.389 128.821C289.03 126.57 289.337 124.262 290.272 122.182C290.384 121.982 290.419 121.748 290.37 121.524C290.32 121.3 290.19 121.102 290.003 120.968C289.615 120.598 289.152 120.316 288.645 120.139C288.139 119.962 287.601 119.895 287.067 119.942C286.533 119.989 286.015 120.148 285.547 120.41C285.079 120.672 284.672 121.031 284.353 121.462C284.29 121.54 284.254 121.674 284.17 121.709C283.93 121.815 283.619 122.006 283.463 121.928C283.089 121.766 283.181 121.42 283.379 121.123C283.799 120.466 284.373 119.921 285.051 119.536C285.729 119.15 286.491 118.936 287.27 118.911C288.05 118.886 288.824 119.051 289.525 119.392C290.227 119.733 290.834 120.24 291.296 120.869C291.504 121.13 291.741 121.367 292.002 121.575C294.361 123.432 296.162 125.657 296.692 128.715C296.798 129.245 296.819 129.838 296.868 130.403ZM291.049 123.341C289.064 126.921 291.246 133.666 294.764 135.065C296.882 131.251 295.47 124.873 292.087 123.122C292.108 123.253 292.136 123.382 292.172 123.51C292.673 125.403 293.189 127.303 293.69 129.16C293.775 129.506 293.81 129.867 293.358 129.98C292.906 130.093 292.8 129.789 292.708 129.457C292.546 128.842 292.384 128.228 292.214 127.621C291.833 126.222 291.444 124.81 291.049 123.327V123.341Z" fill="white"/>
<path d="M275.546 135.77C275.548 135.534 275.569 135.297 275.61 135.064C275.991 133.489 276.316 131.893 276.789 130.346C278.16 125.96 281.345 123.7 285.731 122.909C286.147 122.832 286.571 122.796 286.988 122.761C287.404 122.726 287.694 122.973 287.659 123.467C287.32 127.345 285.582 131.667 280.709 133.419C279.625 133.774 278.519 134.055 277.397 134.259C277.228 134.268 277.068 134.332 276.94 134.442C276.812 134.552 276.725 134.701 276.691 134.866C276.528 135.405 276.489 135.972 276.575 136.528C276.661 137.083 276.871 137.612 277.189 138.076C277.507 138.539 277.925 138.925 278.412 139.206C278.899 139.487 279.442 139.655 280.003 139.697C280.088 139.697 280.201 139.697 280.257 139.697C280.441 139.86 280.603 140.05 280.78 140.227C280.596 140.382 280.405 140.686 280.229 140.679C279.721 140.676 279.216 140.598 278.732 140.446C277.769 140.112 276.94 139.477 276.366 138.635C275.793 137.793 275.505 136.788 275.546 135.77ZM277.467 132.239C277.87 131.851 278.237 131.533 278.583 131.159C279.713 130.036 280.822 128.906 281.959 127.797C282.148 127.647 282.382 127.565 282.623 127.564C282.729 127.564 282.934 127.839 282.92 127.973C282.883 128.194 282.776 128.397 282.616 128.552C281.295 129.894 279.96 131.222 278.633 132.557C278.499 132.691 278.386 132.839 278.258 132.988C280.794 132.522 282.997 131.54 284.53 129.456C285.683 127.834 286.387 125.936 286.571 123.955C282.185 123.934 277.453 128.242 277.467 132.218V132.239Z" fill="white"/>
</g>
<defs>
<clipPath id="clip0_1343_61206">
<rect width="335.529" height="231.448" fill="white"/>
</clipPath>
</defs>
</svg>
